/* XPM */
static char *_639de7fbd5047d18eadee0b5bedfd54zebH5EEPFPrj3fxV[] = {
/* columns rows colors chars-per-pixel */
"128 128 42 1 ",
"  c black",
". c #202020",
"X c #2C2C2C",
"o c gray22",
"O c #404000",
"+ c #585400",
"@ c #706C00",
"# c #004040",
"$ c #005858",
"% c #006C6C",
"& c #007070",
"* c #007474",
"= c #007878",
"- c #007C7C",
"; c #484848",
": c gray33",
"> c #646464",
", c gray44",
"< c #7C7C7C",
"1 c #848400",
"2 c #9C9C00",
"3 c #B4AC00",
"4 c #CCC400",
"5 c #E4D800",
"6 c #FCF400",
"7 c #008484",
"8 c #008C8C",
"9 c #009898",
"0 c #00A4A4",
"q c #20B0B0",
"w c #20B4B4",
"e c #48C0C0",
"r c #74C8C8",
"t c gray55",
"y c #989898",
"u c gray66",
"i c #B4B4B4",
"p c #9CDCDC",
"a c #B8E8E8",
"s c #C0C0C0",
"d c #D0D0D0",
"f c #D8F4F4",
/* pixels */
"oooooooooooooooooooooooooooooooooooooooooooooooooooooooooooooooooooooooooooooooooooooooooooooooooooooooooooooooooooooooooooooooo",
"oooooooooooooooooooooooooooooooooooooooooooooooooooooooooooooooooooooooooooooooooooooooooooooooooooooooooooooooooooooooooooooooo",
"oo--==========================================================================================================================oo",
"oo--==========================================================================================================================oo",
"ooqq999988**&&qq8888888888**&&qq9988888888**&&qq8888888888**&&qq8888888888**&&qq8888888888**&&qq8888888888**&&qq888888888888==oo",
"ooqq999988**&&qq8888888888**&&qq9988888888**&&qq8888888888**&&qq8888888888**&&qq8888888888**&&qq8888888888**&&qq888888888888==oo",
"ooqqqqqqqq--##&&qqqqqqqqqq--##&&qqqqqqqqqq--##&&qqqqqqqqqq--##&&wwwweeeeqq--##&&eeeeeeqqqq--##&&qqqqqqqqqq--##&&qq9988889988==oo",
"ooqqqqqqqq--##&&qqqqqqqqqq--##&&qqqqqqqqqq--##&&qqqqqqqqqq--##&&wwwweeeeqq--##&&eeeeeeqqqq--##&&qqqqqqqqqq--##&&qq9988889988==oo",
"ooqqqqqqqq==--88qqqqqqqqqq==--88qqqqqqqqqq==--88qqqqqqqqqq==--88wweerrppqq==--88eeeeqqqqqq==--88qqqqqqqqqq==--88998888889988==oo",
"ooqqqqqqqq==--88qqqqqqqqqq==--88qqqqqqqqqq==--88qqqqqqqqqq==--88wweerrppqq==--88eeeeqqqqqq==--88qqqqqqqqqq==--88998888889988==oo",
"ooqqqqqqqq77$$$$$$$$$$$$$$$$$$$$$$$$$$$$$$$$$$$$$$$$$$$$$$$$$$$$$$$$$$$$$$$$$$$$$$$$$$$$$$$$$$$$$$$$$$$$$$$$$$$$$$$$88999988==oo",
"ooqqqqqqqq77$$$$$$$$$$$$$$$$$$$$$$$$$$$$$$$$$$$$$$$$$$$$$$$$$$$$$$$$$$$$$$$$$$$$$$$$$$$$$$$$$$$$$$$$$$$$$$$$$$$$$$$$88999988==oo",
"ooqqqqqqqqqq--==&&&&&&&&&&&&&&&&&&&&&&&&&&&&&&&&&&&&&&&&&&&&&&&&&&&&&&&&&&&&&&&&&&&&&&&&&&&&&&&&&&&&&&&&&&&&&&&&&&$$88999988==oo",
"ooqqqqqqqqqq--==&&&&&&&&&&&&&&&&&&&&&&&&&&&&&&&&&&&&&&&&&&&&&&&&&&&&&&&&&&&&&&&&&&&&&&&&&&&&&&&&&&&&&&&&&&&&&&&&&&$$88999988==oo",
"oo9977aaqqppqq88888888888888888888888888888888888888888888888888888888888888888888888888888888888888888888888888&&$$9977aa88==oo",
"oo9977aaqqppqq88888888888888888888888888888888888888888888888888888888888888888888888888888888888888888888888888&&$$9977aa88==oo",
"oo--&&77qqaaee0000000000000000000000000000000000qqqqqqqqwwwwwwwwwweewweewweewweewwwwwwwwqqqqqq000000000099999988&&$$--&&7788==oo",
"oo--&&77qqaaee0000000000000000000000000000000000qqqqqqqqwwwwwwwwwweewweewweewweewwwwwwwwqqqqqq000000000099999988&&$$--&&7788==oo",
"oo==--88qqaarr000000000000000000000000000000qqqqqqqqqqwwwwwwwwwweewweewweewweewwwwwwwwqqqqqq00000000009999999988&&$$==--8888==oo",
"oo==--88qqaarr000000000000000000000000000000qqqqqqqqqqwwwwwwwwwweewweewweewweewwwwwwwwqqqqqq00000000009999999988&&$$==--8888==oo",
"oo0000qqqqaarr00000000000000000000000000qqqqqqqqqqwwwwwwwweewweewweewweewweewwwwwwwwqqqqqq0000000000990099999988&&$$99000088==oo",
"oo0000qqqqaarr00000000000000000000000000qqqqqqqqqqwwwwwwwweewweewweewweewweewwwwwwwwqqqqqq0000000000990099999988&&$$99000088==oo",
"ooqqqqqqqqaarr0000000000000000000000qqqqqqqqqqwwwwwwwwwweewweewweewweewweewwwwwwwwqqqqqq00qq00000099009999888888&&$$99000088==oo",
"ooqqqqqqqqaarr0000000000000000000000qqqqqqqqqqwwwwwwwwwweewweewweewweewweewwwwwwwwqqqqqq00qq00000099009999888888&&$$99000088==oo",
"ooqqqqqqqqaarr0000000000000000qqqqqqqqqqqqwwwwwwwweewweewweewweewweewweewwwwwwwwqqqqqq00qq0000009900999988888888&&$$9900qq88==oo",
"ooqqqqqqqqaarr0000000000000000qqqqqqqqqqqqwwwwwwwweewweewweewweewweewweewwwwwwwwqqqqqq00qq0000009900999988888888&&$$9900qq88==oo",
"ooqqqqqqqqaarr000000000000qqqqqqqqqqqqwwwwwwwwwweewweewweewweewweewweewwwwwwwwqqqqqq00qq000000990099999999888888&&$$0000qq88==oo",
"ooqqqqqqqqaarr000000000000qqqqqqqqqqqqwwwwwwwwwweewweewweewweewweewweewwwwwwwwqqqqqq00qq000000990099999999888888&&$$0000qq88==oo",
"ooqqqqqqqqaarr00000000qqqqqqqqqqqqwwwwwwwwwwwweewweewweewweewweewweewwwwwwwwqqqqqq00qq00000099009999999988888888&&$$00qqqq88==oo",
"ooqqqqqqqqaarr00000000qqqqqqqqqqqqwwwwwwwwwwwweewweewweewweewweewweewwwwwwwwqqqqqq00qq00000099009999999988888888&&$$00qqqq88==oo",
"oo9977aaqqaarr0000qqqqqqqqqqqqqqwwwwwwwwwwwweewweewweewweewweewweewwwwwwwwqqqqqq00qq0000009900999999998888888888&&$$9977aa88==oo",
"oo9977aaqqaarr0000qqqqqqqqqqqqqqwwwwwwwwwwwweewweewweewweewweewweewwwwwwwwqqqqqq00qq0000009900999999998888888888&&$$9977aa88==oo",
"oo--&&77qqaarrqqqqqqqqqqqqqqwwwwwwwwwweewweewweewweewweewweewweewwwwwwwwqqqqqqqqqq000000000099999999888888778888&&$$--&&7788==oo",
"oo--&&77qqaarrqqqqqqqqqqqqqqwwwwwwwwwweewweewweewweewweewweewweewwwwwwwwqqqqqqqqqq000000000099999999888888778888&&$$--&&7788==oo",
"oo==--88qqaarrqqqqqqqqqqwwwwwwwwwwwweewweewweewweewweewweewweewwwwwwwwqqwwqqqqqq00000000009999999988888888778888&&$$==--8888==oo",
"oo==--88qqaarrqqqqqqqqqqwwwwwwwwwwwweewweewweewweewweewweewweewwwwwwwwqqwwqqqqqq00000000009999999988888888778888&&$$==--8888==oo",
"oo0000qqqqaarrqqqqqqwwwwwwwwwwwwwweewweewweewweewweewweewweewwwwwwwwqqwwqqqqqq0000000000990099998899888877888888&&$$0000qq88==oo",
"oo0000qqqqaarrqqqqqqwwwwwwwwwwwwwweewweewweewweewweewweewweewwwwwwwwqqwwqqqqqq0000000000990099998899888877888888&&$$0000qq88==oo",
"ooqqqqqqqqaarrqqwwwwwwwwwwwwwwwweewweewweewweewweewweewweewwwwwwwwqqwwqqqqqq000000000099009999889988888877888888&&$$00qqqq88==oo",
"ooqqqqqqqqaarrqqwwwwwwwwwwwwwwwweewweewweewweewweewweewweewwwwwwwwqqwwqqqqqq000000000099009999889988888877888888&&$$00qqqq88==oo",
"ooqqqqqqqqaarrwwwwwwwwwwwwwwwweewweewweewweewweewweewweewweewwwwqqwwqqqqqq00000000009900999988998888888888888888&&$$00qqqq88==oo",
"ooqqqqqqqqaarrwwwwwwwwwwwwwwwweewweewweewweewweewweewweewweewwwwqqwwqqqqqq00000000009900999988998888888888888888&&$$00qqqq88==oo",
"ooqqqqqqqqaarrwwwwwwwwwweewweewweewweewweewweewweewweewweewwwwqqwwqqqqqq00qq000000990099999999888888887788888888&&$$qqqqqq88==oo",
"ooqqqqqqqqaarrwwwwwwwwwweewweewweewweewweewweewweewweewweewwwwqqwwqqqqqq00qq000000990099999999888888887788888888&&$$qqqqqq88==oo",
"ooqqqqqqqqaarrwwwwwwwweewweewweewweewweewweewweewweewweewwwwqqwwqqqqqq00qq00000000009999999988888888778888888888&&$$qqqqqq88==oo",
"ooqqqqqqqqaarrwwwwwwwweewweewweewweewweewweewweewweewweewwwwqqwwqqqqqq00qq00000000009999999988888888778888888888&&$$qqqqqq88==oo",
"oo9977aaqqaarrwwwwwweewweewweewweewweewweewweewweewweewwwwqqwwqqqqqq00qq0000000000999999998899888877888888889988&&$$9977aa88==oo",
"oo9977aaqqaarrwwwwwweewweewweewweewweewweewweewweewweewwwwqqwwqqqqqq00qq0000000000999999998899888877888888889988&&$$9977aa88==oo",
"oo--&&77qqaarrwwwweewweewweewweewweewweewweewweewweewwwwqqwwqqqqqq00qq000000000099999999889988887788888888888888&&$$--&&7788==oo",
"oo--&&77qqaarrwwwweewweewweewweewweewweewweewweewweewwwwqqwwqqqqqq00qq000000000099999999889988887788888888888888&&$$--&&7788==oo",
"oo==--88qqaarrwweewweewweewweewweewweewweewweewweewwwwqqwwqqqqqq00qq00000000009999999988998888778877888888889988&&$$==--8888==oo",
"oo==--88qqaarrwweewweewweewweewweewweewweewweewweewwwwqqwwqqqqqq00qq00000000009999999988998888778877888888889988&&$$==--8888==oo",
"oo0000qqqqaarreewweewweewweewweewweewweewweewweewwwwqqwwqqqqqqqqqq0000000000990099998899888877887788888888998888&&$$00000088==oo",
"oo0000qqqqaarreewweewweewweewweewweewweewweewweewwwwqqwwqqqqqqqqqq0000000000990099998899888877887788888888998888&&$$00000088==oo",
"ooqqqqqqqqaarrwweewweewweewweeuuddddddddddddddssssqqwwqqqqqqqqqq000000000099009999889988887788778888888888889988&&$$qq000088==oo",
"ooqqqqqqqqaarrwweewweewweewweeuuddddddddddddddssssqqwwqqqqqqqqqq000000000099009999889988887788778888888888889988&&$$qq000088==oo",
"ooqqqqwwwwaarreewweewweewweeqq<<>>,,,,<<<<ttyyuusswwqqqqqqqqqq00000000009900999999998888888877887788888888998888&&$$00009988==oo",
"ooqqqqwwwwaarreewweewweewweeqq<<>>,,,,<<<<ttyyuusswwqqqqqqqqqq00000000009900999999998888888877887788888888998888&&$$00009988==oo",
"ooqqwwwwwwaarrwwee335566eeqq--XX>>oouu,,<<::ddyyiiqqqqqqqqqq0000000000990099999999889988887788778888888899889988&&$$00997788==oo",
"ooqqwwwwwwaarrwwee335566eeqq--XX>>oouu,,<<::ddyyiiqqqqqqqqqq0000000000990099999999889988887788778888888899889988&&$$00997788==oo",
"oowwwwwwwwaarree==++1166ww00--XX>>>>>>,,,,<<<<ttiiqqqqqqqq00qq00000099009999999988998888778877887788888888999988&&$$0088--88==oo",
"oowwwwwwwwaarree==++1166ww00--XX>>>>>>,,,,<<<<ttiiqqqqqqqq00qq00000099009999999988998888778877887788888888999988&&$$0088--88==oo",
"oo9977aawwaarr77**OO1155rr88--XX>>>>>>>>,,,,<<<<iiqqqqqq00qq0000000000999999998899888877887788778888888899889988&&$$88==ee88==oo",
"oo9977aawwaarr77**OO1155rr88--XX>>>>>>>>,,,,<<<<iiqqqqqq00qq0000000000999999998899888877887788778888888899889988&&$$88==ee88==oo",
"oo--&&77wwaaqq7788OO1155ee88--XX>>>>>>>>>>,,,,<<uuqqqq00qq000000000099999999889988887788778877887788889988999988&&$$--%%==88==oo",
"oo--&&77wwaaqq7788OO1155ee88--XX>>>>>>>>>>,,,,<<uuqqqq00qq000000000099999999889988887788778877887788889988999988&&$$--%%==88==oo",
"oo==--88eeaa9977ppOO1155ee88--XX::;;11444466,,,,uuqq00qq00000000009999999988998888888877887788778888888899999988&&$$==--8888==oo",
"oo==--88eeaa9977ppOO1155ee88--XX::;;11444466,,,,uuqq00qq00000000009999999988998888888877887788778888888899999988&&$$==--8888==oo",
"oo0000eerrrr9977rrOO1144ee88--XX;;XX@@    44>>,,uu00qq0000000000990099998899888888887788778877888888889988999988&&$$----9988==oo",
"oo0000eerrrr9977rrOO1144ee88--XX;;XX@@    44>>,,uu00qq0000000000990099998899888888887788778877888888889988999988&&$$----9988==oo",
"ooeerrrrppww9977rrOO1144ee88--XXooXX@@    44>>>>uuqq000000000099009999889988998888778877887788778888998899999988&&$$--889988==oo",
"ooeerrrrppww9977rrOO1144ee88--XXooXX@@    44>>>>uuqq000000000099009999889988998888778877887788778888998899999988&&$$--889988==oo",
"oorrrrppppqq9977rrOO1144ee88--XXXXXX++XXXX44>>>>uu00000000009900999999998899888877887788778877888888889999999988&&$$77880088==oo",
"oorrrrppppqq9977rrOO1144ee88--XXXXXX++XXXX44>>>>uu00000000009900999999998899888877887788778877888888889999999988&&$$77880088==oo",
"oorrppppaaqq9977eeOO1133ee88--XXXXXX++++@@11>>>>uu00000000990099999999889988887788778877887788888888998899999988&&$$77880088==oo",
"oorrppppaaqq9977eeOO1133ee88--XXXXXX++++@@11>>>>uu00000000990099999999889988887788778877887788888888998899999988&&$$77880088==oo",
"ooppaaaaaaqq9977eeOO1133ee88--XXXXXXXXXXXXXX>>>>yy00000099009999999988998888778877887788778888888899889999999988&&$$8899qq88==oo",
"ooppaaaaaaqq9977eeOO1133ee88--XXXXXXXXXXXXXX>>>>yy00000099009999999988998888778877887788778888888899889999999988&&$$8899qq88==oo",
"oorrwwaaffqq9977eeOO1122ee88--XXXXXXXXXXXX;;>>>>yy00009900999999998899888888887788778877887788888888999999999988&&$$88--pp88==oo",
"oorrwwaaffqq9977eeOO1122ee88--XXXXXXXXXXXX;;>>>>yy00009900999999998899888888887788778877887788888888999999999988&&$$88--pp88==oo",
"ooqq--wwaaqq997788**OO@@ww88--XXoooo;;;;::>>>>>>yy00000099999999889988888888778877887788778888888899889999999988&&$$--&&--88==oo",
"ooqq--wwaaqq997788**OO@@ww88--XXoooo;;;;::>>>>>>yy00000099999999889988888888778877887788778888888899889999999988&&$$--&&--88==oo",
"ooqqqqrraaww9977====77wwww88--XXoo..,,::>>XXtt>>tt00009900999988998888888877887788778877888888889988999999990088&&$$==--8888==oo",
"ooqqqqrraaww9977====77wwww88--XXoo..,,::>>XXtt>>tt00009900999988998888888877887788778877888888889988999999990088&&$$==--8888==oo",
"oorrrraappww99777777wwwwww88--XXXXoo::::::>>>>>>tt00990099998899889988887788778877887788888888888899999999999988&&$$77990088==oo",
"oorrrraappww99777777wwwwww88--XXXXoo::::::>>>>>>tt00990099998899889988887788778877887788888888888899999999999988&&$$77990088==oo",
"ooffaappppww997788wwwwwwqq88--XXXXXXXXXXXXXXXXXX>>99009999999988998888778877887788778877888888889988999999990088&&$$88990088==oo",
"ooffaappppww997788wwwwwwqq88--XXXXXXXXXXXXXXXXXX>>99009999999988998888778877887788778877888888889988999999990088&&$$88990088==oo",
"ooaapppprrww9999wwwwwwwwqq88--------------------9900999999998899888888887788778877887788888888998899999999009988&&$$9900qq88==oo",
"ooaapppprrww9999wwwwwwwwqq88--------------------9900999999998899888888887788778877887788888888998899999999009988&&$$9900qq88==oo",
"oopppprrrrww99wwwwwwwwqqqq88888888888888888888000099999999889988888888778877887788778888888899889999999999990088&&$$9900qq88==oo",
"oopppprrrrww99wwwwwwwwqqqq88888888888888888888000099999999889988888888778877887788778888888899889999999999990088&&$$9900qq88==oo",
"oopprreeeeeeqqwwwwwwqqqqqqqqqqqqqq00qq00000000009999999988998888888877887788778877888888888888998899999999009988&&$$0000qq88==oo",
"oopprreeeeeeqqwwwwwwqqqqqqqqqqqqqq00qq00000000009999999988998888888877887788778877888888888888998899999999009988&&$$0000qq88==oo",
"oo9977aaeeaawwwwwwqqqqqqqqqqqqqq00qq0000000000999999998899888888887788778877887788778888888899889999999999990088&&$$9977aa88==oo",
"oo9977aaeeaawwwwwwqqqqqqqqqqqqqq00qq0000000000999999998899888888887788778877887788778888888899889999999999990088&&$$9977aa88==oo",
"oo--&&77eeaaeewwqqqqqqqqqqqqqq00qq000000000099999999889988888888778877887788778877888888889988999999999999000088&&$$--&&7788==oo",
"oo--&&77eeaaeewwqqqqqqqqqqqqqq00qq000000000099999999889988888888778877887788778877888888889988999999999999000088&&$$--&&7788==oo",
"oo==--88eeaarrqqqqqqqqqqqqqq00qq00qq0000009900999988998899888877887788778877887788888888888899889999999900990088&&$$==--8888==oo",
"oo==--88eeaarrqqqqqqqqqqqqqq00qq00qq0000009900999988998899888877887788778877887788888888888899889999999900990088&&$$==--8888==oo",
"oo0000eeeeaarrqqqqqqqqqqqq00qq00qq000000990099998899889988888888778877887788778888888888889988999999999999000088&&$$0000qq88==oo",
"oo0000eeeeaarrqqqqqqqqqqqq00qq00qq000000990099998899889988888888778877887788778888888888889988999999999999000088&&$$0000qq88==oo",
"ooeeeeeewwaarrqqqqqqqqqq00qq00qq00000099009999999988998888888877887788778877887788888888998899999999999900990088&&$$0000qq88==oo",
"ooeeeeeewwaarrqqqqqqqqqq00qq00qq00000099009999999988998888888877887788778877887788888888998899999999999900990088&&$$0000qq88==oo",
"ooeeeewwwwaarrqqqqqqqq00qq00qq0000009900999999998899888888887788778877887788778888888888889988999999999999000088&&$$0000qq88==oo",
"ooeeeewwwwaarrqqqqqqqq00qq00qq0000009900999999998899888888887788778877887788778888888888889988999999999999000088&&$$0000qq88==oo",
"oowwwwwwwwaarrqqqqqq00qq00qq00qq00990099999999889988888888778877887788778877888888888888998899999999999900000088&&$$0000qq88==oo",
"oowwwwwwwwaarrqqqqqq00qq00qq00qq00990099999999889988888888778877887788778877888888888888998899999999999900000088&&$$0000qq88==oo",
"oowwwwwwwwaarrqqqq00qq00qq00qq0000009999999988998888888877887788778877887788888888888899889999999999990099000088&&$$00qqqq88==oo",
"oowwwwwwwwaarrqqqq00qq00qq00qq0000009999999988998888888877887788778877887788888888888899889999999999990099000088&&$$00qqqq88==oo",
"oo9977aawwaarrqqqqqq00qq00qq000000999999998899888888887788888877887788778877888888889988998899999999999900000088&&$$9977aa88==oo",
"oo9977aawwaarrqqqqqq00qq00qq000000999999998899888888887788888877887788778877888888889988998899999999999900000088&&$$9977aa88==oo",
"oo--&&77wwaarrqqqq00qq00qq00000099999999889988888888888888887788778877887788888888888899889999999999990099000000==$$--&&7788==oo",
"oo--&&77wwaarrqqqq00qq00qq00000099999999889988888888888888887788778877887788888888888899889999999999990099000000==$$--&&7788==oo",
"oo==--88qqaarrrrrrrrrrrrrrrrrrrrrrrrrrrrrrrrrrrreeeeeewwwwqq00000000qqwweeeeeeeeeeeeeeeeeeeeeeeewwwwwwwwwwwwwwww--$$==--8888==oo",
"oo==--88qqaarrrrrrrrrrrrrrrrrrrrrrrrrrrrrrrrrrrreeeeeewwwwqq00000000qqwweeeeeeeeeeeeeeeeeeeeeeeewwwwwwwwwwwwwwww--$$==--8888==oo",
"oo0000qqqqaaaaaaaaaaaaaaaaaaaaaaaaaaaaaaaaaaaaaapppppppprrrreeeeeerrrrpppppppppppppppppppppppppppppppprrrrrrrree88--0000qq88==oo",
"oo0000qqqqaaaaaaaaaaaaaaaaaaaaaaaaaaaaaaaaaaaaaapppppppprrrreeeeeerrrrpppppppppppppppppppppppppppppppprrrrrrrree88--0000qq88==oo",
"ooqqqqqqqqqqqqqqqqqqqqqqqqqq000000009999999999999999887777----------7788889999999999990000qqqqqqqqqqqqqqqqqqqqqqqqqqqqqqqq88==oo",
"ooqqqqqqqqqqqqqqqqqqqqqqqqqq000000009999999999999999887777----------7788889999999999990000qqqqqqqqqqqqqqqqqqqqqqqqqqqqqqqq88==oo",
"ooqqqqqqqq9977aaqqqqqqqqqq9977aa009999999999&&ww99887777--==&&99----77889999&&ww99999900qq9977aaqqqqqqqqqq9977aaqqqqqqqqqq88==oo",
"ooqqqqqqqq9977aaqqqqqqqqqq9977aa009999999999&&ww99887777--==&&99----77889999&&ww99999900qq9977aaqqqqqqqqqq9977aaqqqqqqqqqq88==oo",
"ooqqqqqqqq--&&77qqqqqqqqqq--&&779999999999--##&&887777----&&##$$--77778899--##&&99990000qq--&&77qqqqqqqqqq--&&77qqqqqqqqqq88==oo",
"ooqqqqqqqq--&&77qqqqqqqqqq--&&779999999999--##&&887777----&&##$$--77778899--##&&99990000qq--&&77qqqqqqqqqq--&&77qqqqqqqqqq88==oo",
";;qqqqqqqq==--88qqqqqqqqqq==--889999999999==--88887777----&&&&==7777889999==--88999900qqqq==--88qqqqqqqqqq==--88qqqqqqqqqq88==;;",
";;qqqqqqqq==--88qqqqqqqqqq==--889999999999==--88887777----&&&&==7777889999==--88999900qqqq==--88qqqqqqqqqq==--88qqqqqqqqqq88==;;",
"::::::::::::::::::::::::::::::::::::::::::::::::::::::::::::::::::::::::::::::::::::::::::::::::::::::::::::::::::::::::::::::::",
"::::::::::::::::::::::::::::::::::::::::::::::::::::::::::::::::::::::::::::::::::::::::::::::::::::::::::::::::::::::::::::::::"
};
