/* XPM */
static char *wall64[] = {
/* columns rows colors chars-per-pixel */
"64 64 213 2 ",
"   c #6C4414",
".  c #6A4515",
"X  c #734615",
"o  c #754916",
"O  c #7B4C16",
"+  c #764C18",
"@  c #7B4E18",
"#  c #7D5119",
"$  c #7D5016",
"%  c #5D4326",
"&  c #5C462B",
"*  c #5E482D",
"=  c #5E4C35",
"-  c #5E4F39",
";  c #5F523E",
":  c #624627",
">  c #664827",
",  c #694B26",
"<  c #634A2C",
"1  c #6A4D2A",
"2  c #6C512F",
"3  c #7D5521",
"4  c #634E33",
"5  c #604F38",
"6  c #645136",
"7  c #6B5333",
"8  c #64543B",
"9  c #6A573B",
"0  c #6C593D",
"q  c #725B3D",
"w  c #625541",
"e  c #635943",
"r  c #6C5C43",
"t  c #645D4B",
"y  c #725E41",
"u  c #66604E",
"i  c #6B614C",
"p  c #6F6045",
"a  c #726044",
"s  c #7F6845",
"d  c #7A694D",
"f  c #676250",
"g  c #696555",
"h  c #6E6957",
"j  c #726A56",
"k  c #776A55",
"l  c #814E16",
"z  c #864E17",
"x  c #845116",
"c  c #8A5417",
"v  c #8D5817",
"b  c #845319",
"n  c #8B5619",
"m  c #86581C",
"M  c #8C591A",
"N  c #9A5C16",
"B  c #925618",
"V  c #945C1B",
"C  c #995E1B",
"Z  c #935617",
"A  c #A15917",
"S  c #966116",
"D  c #986017",
"F  c #96611C",
"G  c #9C631C",
"H  c #9E681D",
"J  c #9F6917",
"K  c #A1651D",
"L  c #A9651E",
"P  c #A46A1D",
"I  c #AA6D1E",
"U  c #A36817",
"Y  c #B26C1D",
"T  c #A7711F",
"R  c #AC721E",
"E  c #AA7017",
"W  c #B2741D",
"Q  c #BA741D",
"!  c #B5791C",
"~  c #BB7D1C",
"^  c #B47817",
"/  c #815621",
"(  c #845A25",
")  c #8C5C21",
"_  c #935E21",
"`  c #985F21",
"'  c #8D6226",
"]  c #956323",
"[  c #9C6421",
"{  c #9D6B25",
"}  c #9D6D2E",
"|  c #88663B",
" . c #9C6931",
".. c #A26621",
"X. c #A86522",
"o. c #A56B22",
"O. c #AA6D22",
"+. c #A36C29",
"@. c #AA6F28",
"#. c #B26D23",
"$. c #A47125",
"%. c #AC7323",
"&. c #AE7924",
"*. c #A57229",
"=. c #AD7429",
"-. c #AD792B",
";. c #B27424",
":. c #BA7421",
">. c #B37B25",
",. c #BA7C24",
"<. c #B1752A",
"1. c #B47C2A",
"2. c #B97D2A",
"3. c #B8772A",
"4. c #A37232",
"5. c #AC7D34",
"6. c #AB7E39",
"7. c #A6723B",
"8. c #B27C32",
"9. c #B97F31",
"0. c #C37D22",
"q. c #C17826",
"w. c #A1794B",
"e. c #A77D53",
"r. c #BD811D",
"t. c #AF802F",
"y. c #B68125",
"u. c #BC8224",
"i. c #B4822A",
"p. c #BA832B",
"a. c #B7882F",
"s. c #BC8A2C",
"d. c #AF803F",
"f. c #B48334",
"g. c #BB8431",
"h. c #B68831",
"j. c #BC8B33",
"k. c #B3833A",
"l. c #B6893A",
"z. c #BA8C3B",
"x. c #B88239",
"c. c #BC913D",
"v. c #BE9032",
"b. c #C2851C",
"n. c #C58A1C",
"m. c #C9881D",
"M. c #CE901E",
"N. c #C38426",
"B. c #CA8523",
"V. c #C38A24",
"C. c #C98C23",
"Z. c #C2842D",
"A. c #C28B2B",
"S. c #CA8B2A",
"D. c #CB9223",
"F. c #CB942C",
"G. c #CE992E",
"H. c #C6902F",
"J. c #D59A23",
"K. c #D29C2C",
"L. c #D0972C",
"P. c #C48630",
"I. c #C28C33",
"U. c #C98C32",
"Y. c #C08D3D",
"T. c #C39234",
"R. c #CA9434",
"E. c #CD9A33",
"W. c #C2933B",
"Q. c #CE9638",
"!. c #CC9A3A",
"~. c #D19C33",
"^. c #D19D3D",
"/. c #D5A22D",
"(. c #D8A52F",
"). c #DAA92C",
"_. c #DFA926",
"`. c #CFA036",
"'. c #D5A333",
"]. c #D8A734",
"[. c #D7A836",
"{. c #DCAB35",
"}. c #D4A33A",
"|. c #D8A73B",
" X c #D6A93D",
".X c #DBAC3B",
"XX c #DEB035",
"oX c #DFB13B",
"OX c #E0B22F",
"+X c #E1B334",
"@X c #E7BD34",
"#X c #E1B43B",
"$X c #E4BA3A",
"%X c #E8BE3B",
"&X c #E9C23C",
"*X c #AE8340",
"=X c #AB854C",
"-X c #B58948",
";X c #BB9143",
":X c #C69941",
">X c #CEA143",
",X c #D3A542",
"<X c #D9AC42",
"1X c #D5A84C",
"2X c #DFB342",
"3X c #DBB149",
"4X c #D9AF52",
"5X c #E1B642",
"6X c #E4BB42",
"7X c #E3BE4F",
"8X c #E3BD57",
"9X c #E7C146",
"0X c #E8C452",
/* pixels */
"-X*Xl.z.I.T.T.T.v.j.T.j.j.I.T.j.z.z.f.l.f.l.l.l.z.z.j.l.f.l.l.d *Xl.T.v.W.T.T.v.i.f.f.f.W.I.s.f.j.f.f.f.5.d.f.f.f.f.l.5.5.4.4.y ",
"v.8X5X%X+X+X$X$XXX$X).{.XX{.{. X X.X|.|. X.X+X].(.{.XX{.{.[.y.s >.+X+XOX+X+X#X+X+X{.{.{.{.{.{.].{..X].}.~.E.~.(.].].{.].'.j.G r ",
"a.!.7X$X$X#X$X%X+X$X+XoX{.{.{.oXoX#X#X#X+X.XXX{.{.{.+X{.<X1./ y &.K.&X+X.XoX#X{.{.~.[.|.<X X2X X.X#X{.{..X].{.{.{.{.{.|.!.$.b r ",
"j.!.,X1.3.<.;.>.p.>.<.>.%.O.O.<.%.;.>.O.;.>.1.<.>.>.%.y.1.) b r &./.G.P >.R >.,.%.W V I &.R ! >.y.>.R %.%.I ;.;.I I G o.O.@ X w ",
"A. X|.<.<.<.u.o.%.<.O.O.%.+.%.o.O.O.X.O.O.<.<.=.;.3.=.>.2.V ( y u.G.F.I L I ;.>.>.&.P P %.o.R H P P P %.P P C K K V C G O.o X w ",
"v.!.^.O.#.;.3.3.;.2.<.<.O.X.o.o.;.;.;.=.;.>.,.&.;.>.;.<.O.m b y %.F.R.o.P G &.1.f.>.%.H I P K P F H %.T K G K G G K K K %.x o w ",
"s.R.}.;.@.;.3.p.3.3.2.,.u.3.;.<.;.<.@.O.;.1.i.>.2.1.1.%.<.M b r $.F.R.P H V n +.f.y.%.P L R I M m V K K P K P P O.K K O.R O X ; ",
"a.T.}.;.1.p.2.O.%.,.>.,.;.<.:.1.1.;.%.O.;.>.>.>.2.>.y.i.<.n # q y.G.A.K H V M v %.,.I G P O.V O O n D G G B K L O.K L P R x   6 ",
"p.~.^.<.2.p.;.....%.<.#.....o.<.p.p.<.;.%.;.&.&.-.i.i.>.2.M V q &.F.I.P C D o.%.P %.G I P G Z n V B E B O H ^ U K K K C :.x o = ",
"p.U.Q.O.;.;.=.%.C ] ` V _ ..[ 3.p.i.;.;.;.;.T { $.y.p.i.p.G m 9 &.s.j.H P ;.>.;.%.R P P P P v v v G ^ C n Y ~ G B K U G P x   4 ",
"s.R.Q.<...O.%.o.C V V ` C G C O.,.O.;.&.I ;.G i.y.u.>.i.p.G O q %.A.s.O.L G G C P I P I P G K D ! ^ I B U E P F C K K K P O X < ",
"s.R.Q.I.2.2.=.>.] G [ ..` [ _ C P ;.O.;.O.;.%.r.M.y.y.,.i.H m 0 &.p.Z.P K I P P K K W R I K D I ~ T W P R L %.P K K K G P O X 4 ",
"y.F.R.g.p.3.i.p.&.2.2.1.#.[ _ [ V ` <.2.&.>.&.i.t.&.&.&.3.D n 0 -.p.A.K B K P G I P K I W K R P I W G R I I I P %.I P I ^ l X < ",
"s.H.U.%.,.>.,.>.1.2.p.s.g.#.V _ ] c K >.2.y.%.&.y.y.&.&.,.C b q $.p.I.G I C G G G C Z D G I W R R W R R I H D K K U K H W X X 4 ",
"s.Q.P.O.+.%.1.&.1.>.%.2.1.1.B ) _ ) V >.>.i.>.>.&.>.&.T p.K x 0 &.T.A.K K C I D P G N V U F I W R R R G C C V S D B V Z N   x < ",
"s.U.U.O.%.,.y...%.,.&.O.O.X.z ) M ' M M ..P >.y.P %.%.&.;.B l 5 *.i.,.G V K G P G V M C F Z v R G R R R G B S G G M m V ^ x x 4 ",
"y.j.P.O.:.O.O.O.X.o.O.o.K C c ) _ ) ) M [ O.o.o.[ K o.:.%.l + 5 >.9.<.V C C H P C M V D v c v I P R R R I C V D B v F P ^ c O < ",
"y.Z.P.O...#.[ G [ G O...O.O.V l ) l M G ..P K C V B ..O.;.B X 4 +.8.,.V C C D H P G J D F T I R R P P I I I L Z v m J P >.c o 6 ",
"p.j.Z.X.o.#.L ..O.%.K [ K O.O.o...C G >.,.O.C G G ] C ..Y c X 7 =.1.2.B Z D R W R R P P D I P T I D C I K K P K c x H T ! v O 4 ",
"y.s.Z...K X.O.O.#.C ....n C O...X...G O.%.K [ V V B ` G L l   4 *.j.~.%.P R >.R R &.R T P R W I P P R W U Q I U c x V R n.v $ 6 ",
"1.2.P.%...K o.O.O.C K V M n V K I %...G P K ] V _ M G ..X.z l 4 *.g.Q.,.&.I R >.>.R P R R ! T R R ! I I V P F G P M H ! r.M b 8 ",
"%.8.q.O.O.O.<.O...C B B M O C K O.[ G B G V B M V M n F #.n / 5 *.g.U.o.R I ! R R P >.! T &.&.K F I P K c v H S >.H R u.r.n @ ; ",
"*.*.9.O.%.O.,.u.%.[ M B _ ..K o.G B V c B G F V ] G V G #.B n r *.T.R.>.I >.;.P R G R R >.! ! %.>.R G C S V H H I T ! ~ V.M b e ",
"$.=.2.o...O.1.p.3.;.C V o...L P C F m B o.{ G V V ] C C X.n z w -.g.~.R W %.K P G W %.R %.P H y.y.! R P V m F I R I P r.n.M # e ",
"{ 2.2.&.>.2.>.1.i.,...G P P O.O.F V o.;.>.P G F ] ` V V L B + w *.j.L.;.R R O.>.D G F G G V G J I >.P P V G P L R P G I b.V # t ",
"+.8.x.O.%.<.1.1.2.1.&.G o.P %.P C <.R >.;.&.o.V [ C o.<.3._ @ w { s.L.I L %.W ;.P H V V G V F P D O.R V H ! >.R %.P C C B.C x t ",
"[ 8.<.<.&.%.O.%.%.>.K b F H T %.I %.;.I :.P ....o.>.,.,.q.B l t ] E./.R R ,.y.&.>.K D K [ G F ..G o.G F r.! P P H C V Y B.V / u ",
"_ <.9.%.O.P O.%.O.%.F [ T { F &.K K { L +.o.&.O.u.,.0.3.q.` + u ] s.G.:.%.;.%.P %.&.,.%.{ P P %.P %.o.G o.y.&.>.,.! ~ m.J.] ' f ",
"] +.3.#.#.;.L ;.0.^ %.,.,.Y ^ r.0.Q Y #.#.#.:.:.:.Q q.B.S.X.) u { C.D.r.~ ,.,.W ,.u.u.u.>.~ N.~ u.W u.u.u.u.u.V.V.C.M.K._.O. .g ",
" .#.Y n O c l n B H v b x D ^ m x O l c z l l O l + n l B X.| u $.D.Q b b c x n V x C N G Z x m B H B l v F F v F F G F G ,.7.h ",
"..A X o @ @ b @ o # $ v S S o . O     o X @ O l O O   X X z w.h { Y m   .   O O O $ o O O x v m m M x . $ M # # $ m + m m b w.j ",
"k t t e e 9 6 5 6 < < % % % % % : * < * < 1 4 6 8 8 e t u u i 5 d 0 p e r ; ; 6 4 4 = 4 4 2 2 2 2 2 7 7 6 6 = ; 9 8 e e w t f 9 ",
"*Xj.s.i.-.i.t.a.t.H.j.z.-.h.j.l.z.1.f.i.8.1.1.h.h.a.a.f.8.-.} 0 =X-X;XW.W.c.c.c.;Xz.;Xz.z.z.;XW.W.z.W.:Xz.z.;X;Xz.;X;X-X6.k.6.s ",
"-. X X).(./.(.]./.(./.K.F.G.G.'.'.!.~.E.!.F.E.{.].{.(.)./.L.%.9 f.4X5X%X&X&X&X&X$X$X$X.X5XoX.X.X#X.XoX#X#X.X{.oX5X{.{.|. XQ.&.r ",
"-.I.3X$X+X&X@X@X$XXXXX(.G.'./.{.].'.{.[.'./.[.{.XXOXOX@X+XE x 9 y.E.0X7X0X9X6X9X6X6X6X$X#X5X5X5X2X5X2X#X6X#X5X#X5X5X#X#X#Xu.m r ",
"*.H./.n.R U %.I &.! %.P D G K >.R T P I I P P &.>.i.,.>.W m x 8 t.G.>Xs.2.1.u.i.1.1.1.<.3.:.3.1.<.,.<.<.1.3...;.%.1.1.;.V.m m 0 ",
"$.F.`.^ v D G C T H P H C G C P %.&.%.&.o.$.I P %.=.*.%.Y n o 8 s.]..Xs.1.<.>.<.;.O.#.O.<.O.%.%.<.>.2.O.1.<...@.O.O.%.1.,.V b q ",
"{ G.s.P F V %.M T T P Z P C C C P W &.&.&.%.H G &.=.&.K ;.M O 8 a.}..XS.>.3.<.1.3.;.<.<.#.<.1.&.1.O.&.1.i.G O.O.@.o.+.=.2.m m 9 ",
"$.F.`.r.b.J G D C H H K G P F P H T T &.1.1.&.T ,.%.O.&.I M $ 8 i.].5XA.,.3.;.2.p.1.%.=.<.2.<.<.<.O.=.,.%.[ [ O.%.O.[ %.<.V @ 2 ",
"$.H.G.n.b.W P %.V R P K C G C V P W %.y.2.1.>.&.>.%.&.O.K x O 6 t.'.5XA.>.;.<.1.1.1.O.&.i.1.1.1.>.%.o.+.G [ ..o.o.+.[ 1.<.M x 1 ",
"$.s.S.b.~ ^ U K V P I I F Z C A K I D %.2.>.&.&.R r.&.$.G O O < y.E.<Xs.<...i.<.,.-.&.O.1.i.>.%.-.1.1.1.[ G ..*.1.1._ <.2.V ) 1 ",
"$.H.L.~ ^ W I K K I V K I V C K K P P F %.&.I R &.&.%.! I o O * t.F.,X&...+.i.2.1.1.=.%.>.&.O.<.2.g.9.g.O...-.g.f.>.G %.O.M # 1 ",
"{ s.Z.~ W W U G G G V D D V N D I U P C G R P R y.&.! &.:.#   * t.E.!.1.O.-.g.g.2.=.<.>.1.=.O.O.=.i.f.=.1.=.f.@.1.&.<.>.@.b @ > ",
"] s.A.R I K U G H L D N K D K D G K I D A P G K >.i.y.y.y.V $ * a.}. XA.2.g.g.g.1.a.2.<.2.&.+...%.1.1.<.=.1.1.=.=.<.<.%.=.x O > ",
"[ Z.p.K I K U O.K V V V C U D H T T P J G H D I T y.i.s.y.F v 2 i.E. XV.=.1.1.g.=.8.1.i.1.2.....%.O.-.1.1.1.=.=.o.O.%.%.#.x + > ",
"{ 2.,.K C U G K D V N Z Z V C K U P I I K I I W %.i.s.H.H.F x 2 h.E.'.u.%.1.1.1.1.9.p.1.1.>.&.o.%.@.%.1.=.&.1.-.&...G &.O.m o > ",
"+.j.R.P I D C C V P c c n N D K I T P I U P U I R y.s.V.U.b x 1 t.T.}.s.<.%.=.=.<.=.1.1.&.%.%.%.<.*...&.=.=.=.=...G ..+.<.) l < ",
"{ s.Z.K v c x x V v x c v Z N G U H K G C L I I P ! y.s.R.m   2 t.s.}.2.%.1.<.+.f.g.2.o.%...[ ..O.O.O.o.%.1.-.%.o.C ..O.=.b b > ",
"' p.i.c x n n n U D V Z V V D P P J F $ b E &.O.T R >.r.u.O c 2 1.g.!.>.&.<.%.%.i.&.1.O.o.O.X.O.A ..=.o.o.<.=.*.G ..G O.1.m b < ",
"M $...O v V C U W G K B Z D N H J P v G H >.&.&.&.T R r.E O   * &.P.W.1.&.&.=.+.1.>.+...%.O.O.K o.O.O...C ..=.%.{ G ] o.1.M @ > ",
"] -.<.V J G U ^ R I V K K N H K P P F T R u.y.>.t.R &.H L $ o 2 -.I.R.1...O.O.V F V [ K G ..I O...C C K C K V %.O.G G [ -.m @ & ",
"{ 2.2.G U J ! ~ D I U G C C C U J P ! ^ ^ T >.P &.y.R I >.$ @ 6 &.T.T.+.[ ..] V G ] C ..K O.O.O.O.[ K K ` K C ` %.[ F G 8.# # > ",
"{ p.g.O.R ! ~ K G P P G D G K K J C R P K Z I V S >.>.W b.M O < %.g.I.O.X.K [ G [ [ C #.O.O.O.%.O.O...+.P D V n V o.[ _ 8.b @ 2 ",
"{ p.2.%.P G D G K K K N P K I K I P I P D S F M P T R ~ ;.M b 6 $.i.I.%.O...K ..[ K V o.i...o.K M B F >.K [ V V _ V O.[ 8.M b < ",
"{ g.3.O.R G x B V D F V P P I J T T P P H C H K F V v F I m + 6 -.<.Y.;.....C ..#.[ ] >.,.P P V M F ] &.O.P P G M V $.*.k.M b 4 ",
"] 1.<.V R H m v D D B v $.W %.P R H %.P C C D H v M V F >.V + 8 %.1.~.,.X.G G ;.1...O.p.<...n G +.o.+.$.O.O.O...] M [ <.z.V m < ",
"] [ 3.[ >.O.M M G M M G O.O.I R K K %.R L F M G F V M F P M m 8 { 2.~.%.O.K { %.8.1.9.,.&.O.C o.K ;.o.r.G [ =.X.V n c 1.;XV b 8 ",
") [ =.%.>.o.z V Z M V D %.I I O.K P O.P P %.F F v v M P ;.( m e *.p.!.;.%.o.+.%.%.,.&.%.>.G K O.O.K ] b.o.+.+. ...b ( -.x.F m 8 ",
"{ ] 2.n.>.G M V m M F P C.:.%.P K o.O.o.R %.G G F $ V R 3.m # t { <.R.G V %.,.>.#.&.` O.<.%.;.R %.$.n.! o.+.` =.[ _ ] g.!.{ n e ",
"*.2.V.M.y.F C C B %.y.V.&.I ;.P P O.I O.o.>.%.R y.&.G I ,.m # u ] *.g.C O.>.V.u.o.@.V O.>.I L b.b.n.,.G [ G +.@.] _ <.R.>XR m 0 ",
"*.H.).m.V.1.@.O.p.2.u.>.u.W Q %.>.%.! O.I ;.q.u.C.D.u.s.q.M ( i ] ;.q.0.,.N.C.D.Z.O.:.X.3.,.<.#.N.3.<.9.@.<.@.8.x.8.I.!.1Xi.' p ",
"-.V.r.M F V n M K m V M V M # V m v M x n # v m F M b S l *.| i { :.K b m @ F F x l O l O + O X b o + l o O z z l @ # M V 3.4.j ",
"$.5.( x x b m b c M c b m b o # l m # @ @ O o o b v $ M O / e.j [ L X X @ @ c M l X X X     + X             X O +   X X c b e.k ",
"j f i u e 8 9 6 6 6 6 7 2 < > 2 , 1 , 1 > < 4 7 0 8 8 p r 8 j 6 y r r 9 9 9 8 4 4 < : : : % 4 5 * % % & & = = w 5 w 8 w 9 0 i 7 "
};
