/* XPM */
static char *square[] = {
/* columns rows colors chars-per-pixel */
"38 49 214 2 ",
"   c #161616",
".  c #0B2525",
"X  c #1B2727",
"o  c #0B3B3B",
"O  c #063A3A",
"+  c #143B3B",
"@  c #1B3D3D",
"#  c #1A3434",
"$  c #2A2C2C",
"%  c #253D3D",
"&  c #2C3D3D",
"*  c #2D3131",
"=  c #343636",
"-  c #343A3A",
";  c #3C3D3D",
":  c #014444",
">  c #0D4242",
",  c #024C4C",
"<  c #0C4C4C",
"1  c #134242",
"2  c #154B4B",
"3  c #1C4A4A",
"4  c #1B4747",
"5  c #015454",
"6  c #0B5454",
"7  c #015C5C",
"8  c #0B5B5B",
"9  c #1D5656",
"0  c #135A5A",
"q  c #2C4848",
"w  c #2A5353",
"e  c #245757",
"r  c #355656",
"t  c #385959",
"y  c #3D4444",
"u  c #006363",
"i  c #0B6363",
"p  c #016C6C",
"a  c #0C6B6B",
"s  c #196C6C",
"d  c #146969",
"f  c #007373",
"g  c #0B7272",
"h  c #017B7B",
"j  c #0C7C7C",
"k  c #137979",
"l  c #157777",
"z  c #296464",
"x  c #326A6A",
"c  c #346767",
"v  c #237373",
"b  c #287171",
"n  c #387D7D",
"m  c #444545",
"M  c #4D4E4E",
"N  c #424E4E",
"B  c #435252",
"V  c #465858",
"C  c #535454",
"Z  c #5C5C5C",
"A  c #4C6868",
"S  c #477777",
"D  c #557171",
"F  c #626262",
"G  c #6D6C6C",
"H  c #706E6E",
"J  c #7B7B7B",
"K  c #787676",
"L  c #6F7373",
"P  c #BC0101",
"I  c #BE0A0A",
"U  c #B31919",
"Y  c #AE3C3C",
"T  c #C30000",
"R  c #D60000",
"E  c #D40B0B",
"W  c #E50404",
"Q  c #F91E1E",
"!  c #D42F2F",
"~  c #F42626",
"^  c #A74A4A",
"/  c #8F7777",
"(  c #A46F6F",
")  c #D14040",
"_  c #FC4747",
"`  c #FC4A4A",
"'  c #E94D4D",
"]  c #D67979",
"[  c #FC6B6B",
"{  c #F97070",
"}  c #EF6868",
"|  c #008383",
" . c #018C8C",
".. c #0B8D8D",
"X. c #098181",
"o. c #188C8C",
"O. c #019494",
"+. c #019C9C",
"@. c #099999",
"#. c #2B8585",
"$. c #318A8A",
"%. c #01A3A3",
"&. c #01ABAB",
"*. c #0CACAC",
"=. c #16A5A5",
"-. c #1DA9A9",
";. c #01B4B4",
":. c #01BCBC",
">. c #0BB8B7",
",. c #17B9B8",
"<. c #20AAAA",
"1. c #4C8D8D",
"2. c #638B8B",
"3. c #788585",
"4. c #6C9191",
"5. c #799090",
"6. c #57AFAF",
"7. c #7EAFAF",
"8. c #7FBBBB",
"9. c #01C4C4",
"0. c #02CACA",
"q. c #0DC8C8",
"w. c #1DCBCB",
"e. c #17C6C5",
"r. c #1CD0CF",
"t. c #01D2D2",
"y. c #0BD7D7",
"u. c #14DADA",
"i. c #18D6D6",
"p. c #23C9C9",
"a. c #2ECDCD",
"s. c #32D0CF",
"d. c #2CD5D5",
"f. c #28D8D8",
"g. c #34DCDC",
"h. c #3AD6D6",
"j. c #01E3E3",
"k. c #17E4E4",
"l. c #23E3E3",
"z. c #3CECEB",
"x. c #37F4F4",
"c. c #44D8D8",
"v. c #57D7D6",
"b. c #54CBCA",
"n. c #78D5D4",
"m. c #70C4C4",
"M. c #69E0DF",
"N. c #44E6E6",
"B. c #59EAEA",
"V. c #6DE8E8",
"C. c #79E7E7",
"Z. c #68F4F4",
"A. c #7BF2F2",
"S. c #8E8484",
"D. c #878A8A",
"F. c #928787",
"G. c #958888",
"H. c #9B9B9B",
"J. c #969999",
"K. c #8D9C9C",
"L. c #A19797",
"P. c #9CA4A4",
"I. c #94A6A6",
"U. c #86B4B4",
"Y. c #99BDBD",
"T. c #80A9A9",
"R. c #A4A5A5",
"E. c #ABAAAA",
"W. c #A4B8B8",
"Q. c #B4B4B4",
"!. c #BCBCBC",
"~. c #B5ACAC",
"^. c #F48787",
"/. c #F99696",
"(. c #FA9898",
"). c #DBB7B7",
"_. c #D6ABAB",
"`. c #F2A7A7",
"'. c #8BC6C5",
"]. c #97C5C5",
"[. c #8ADADA",
"{. c #97D8D7",
"}. c #B6C6C6",
"|. c #A9D7D7",
" X c #B2D2D2",
".X c #B0DEDE",
"XX c #A8CFCF",
"oX c #85E9E9",
"OX c #9CE8E8",
"+X c #8EF8F8",
"@X c #9DF7F7",
"#X c #96F9F9",
"$X c #A7EAEA",
"%X c #B2EBEB",
"&X c #A3F4F4",
"*X c #A6F7F7",
"=X c #B8F9F9",
"-X c #C2C4C4",
";X c #C7CACA",
":X c #D6CACA",
">X c #C1D2D2",
",X c #C8DBDB",
"<X c #D6D8D8",
"1X c #E6D8D8",
"2X c #E6CBCB",
"3X c #C8E5E5",
"4X c #C4F4F4",
"5X c #CCF8F8",
"6X c #D9F8F8",
"7X c #D8E5E5",
"8X c #E7F8F8",
"9X c #FBFCFC",
"0X c #E6E4E4",
"qX c None",
/* pixels */
"qXqXqXqXqXqXqXqXqXqXqXqXqX,.qXqXqXqXqXqXqXqXqXqXqXqXqXqXqX}.qXqXqXqXqXqXqXqX",
"qXqXqXqXqXqXqXqXqXqXqX'.W.1.4.H.qXqXqXqXqXqXqXqXqXj.qXqXqX3X,XqXqXqXqXqXqXqX",
"qXqXqXqXqXqXqXqXqXqX8.@X4X[.U.R.J.J qXqXqXqXqXqXqXj.qXqXqXC.5XE.qXqXqXqXqXqX",
"qXqXqXqXqXqXqXqXqXE.OX%X$X$XH.D.1.k qXqXqXqXqXqX0.9.qXqXqXx.*X4XqXqXqXqXqXqX",
"qXqXqXqXqXqXqXqXqX!.|.&X{.>XE.3.z < qXqXqXqXqXqX0.:.qXqXk.k.&X9XqXqXqXqXqXqX",
"qXqXqXqXqXqXqXqXqXv.B.+XY.P.K 5.#.i S qXqXqXqXqX0.y.k.k.0.u.@X9XqXqXqXqXqXqX",
"qXqXqXqXqXqXqXqXqX].V.'.I.H.H 3.n g c qXqXqXqX0.0.t.9.9.;.i.@X9XqXqXqXqXqXqX",
"qXqXqXqXqXqXqXqXqXY.V.7.I.J.H L z l z qXqXqX9.;.9.t.0.0.9.i.@X9XqXqXqXqXqXqX",
"qXqXqXqXqXqXqXqXqXE.{.].Y.H./ 3.n $.qXqXqXqX;.%.9.:.+.;.0.i.#X9XqXqXqXqXqXqX",
"qXqXqXqXqXqXqXqXqXZ D.W.!.-XE.K.2.D qXqXqXqX+.qX0.9.%.O.;.k.@X9XqXqXqXqXqXqX",
"qXqXqXqXqXqXqXqXqXH P.H.H.J.D.3.G N qXqXqXqXqXqX9.%.h  .%.u.@X9XqXqXqXqXqXqX",
"qXqXqXqX<XE.Q..X3X<X!.Q.!.R.D.F m w x v e M C S 9.+.qXqXO.q.#X8XqXqXqXqXqXqX",
"qXqX~.}.%Xb.{.*X6X8X3X X X}.6.o.o.....| a r t k 9.+.qXqXqXb.*X XqXqXqXqXqXqX",
"qXqX}.8XoXp.{.6X8X5X5X6X4Xn.>.t.9.;.+.| h 8 h %.9.+.f qXqXn.=XqXqXqXqXqXqXqX",
"qXqX3X4Xc.[.).:X7X3X8X5X$X6.:.t.0.9.+.| p 7 s o.9.+.f qXqXoX%XqXqXqXqXqXqXqX",
"qXqX%XA.[.2X{ ] ~.;X<X,XXX8.,.0.0.;.%.| p < A S 9.+.p qXqX|.qXqXqXqXqXqXqXqX",
"'.B.V.@X1X^.` ~ ! ! ( G.H.H.$.%.;.&.+.h 6 + 3 s 9.+.u qXqX XqXqXqXqXqXqXqXqX",
"qXqX4.<X`.[ ` Q W R U U ^ F.c g | f p 7 1 # 7 h 9.+.7 qXqXqXqXqXqXqXqXqXqXqX",
"qXqXR.1X/.[ _ Q W E T P Y F.t 1 , , > # X o h %.9.+.7 qXqXqXqXqXqXqXqXqXqXqX",
"qXqX.X0X/.[ _ Q E R T P Y S.e 5 u < % * X , h &.9.+.7 qXqXqXqXqXqXqXqXqXqXqX",
"qX%X@X<X/.[ _ Q W R T T Y F.B 8 h 7 q % O qX| %.w.@.p qXqXqXqXqXqXqXqXqXqXqX",
"=X&XV.;X/.[ _ Q W R T P Y F.B 8 f 8 q q o qX*.c.B.=.f 5 qXqXqXqXqXqXqXqXqXqX",
"%X8.c.>X/.[ _ Q W R T P Y F.B 6 7 7 w + qXqXa.A.v.@.f , 7 qXqXqXqXqXqXqXqXqX",
" X6.*.}./.[ _ Q W R T P Y F.e u | h s e qXqXv.A.c.+.f , 7 qXqXqXqXqXqXqXqXqX",
";X2.n }./.[ _ Q W R T P Y S.z h &.%. .i 5 qXqXC.a.O.p , qXqXqXqXqXqXqXqXqXqX",
"qXJ A !./.[ _ Q W R T P Y S.b h O.O.h u , qXqX=.@.f 7 qXqXqXqXqXqXqXqXqXqXqX",
"qXqXJ :X/.[ _ Q W R T P Y D.t 2 5 5 , > @ qXqXf | f qXqXqXqXqXqXqXqXqXqXqXqX",
"qXqXqX:X`.[ _ Q W R T I ^ / m % 2 6 < > - qXqXqX+.| qXqXqXqXqXqXqXqXqXqXqXqX",
"qXqXqXqX).{ ` Q W R T U ( Z & 0 a z 9 > - qXqXqX;.+.qXqXqXqXqXqXqXqXqXqXqXqX",
"qXqXqXqX:X^.` Q W R I ^ K m q a h x 9 1 - qXqXqX9.+.qXqXqXqXqXqXqXqXqXqXqXqX",
"qXqXqXqXqX).} ~ W E ^ H r + q g h x 9 1 - qXqXqX9.O.qXqXqXqXqXqXqXqXqXqXqXqX",
"qXqXqXqXqXqX_.' ! ^ J b 2 + 6 p h x 9 1 - qXqXqX:.| qXqXqXqXqXqXqXqXqXqXqXqX",
"qXqXqXqXqXqXqXU.T.1.k p < o 5 p h v 0 1 - qXqXqX>.h qXqXqXqXqXqXqXqXqXqXqXqX",
"qXqXqXqXqXqXqXB.z.;.| p 5 : 7 f  .%.h < & qXqXqX&.f qXqXqXqXqXqXqXqXqXqXqXqX",
"qXqXqXqXqXqXqX#Xz.:. .f u 1 i  .&.:.+.7 > qXqXqX+.u qXqXqXqXqXqXqXqXqXqXqXqX",
"qXqXqXqXqXqXoXg.0.&. .h u 3 a O.&.;.O.u , : qXe.-.g qXqXqXqXqXqXqXqXqXqXqXqX",
"qXqXqXqXqXqX;.O.| h f p 7 @ < 7 7 5 , , O qXqXw.z.e.h qXqXqXqXqXqXqXqXqXqXqX",
"qXqXqXqXqXqXqX;.%. .h u 7 + 8 f f 7 7 5 qXqXqXq.>. .f qXqXqXqXqXqXqXqXqXqXqX",
"qXqXqXqXqXqXqXqXi.d.;.| p 1 j ;.:...p u qXqXqXp.f.&.h qXqXqXqXqXqXqXqXqXqXqX",
"qXqXqXqXqXqXqXqXf.*Xv.O.f > X.0.l.<.u qXqXqXqX0.0.%.h qXqXqXqXqXqXqXqXqXqXqX",
"qXqXqXqXqXqXqXqXq.oXV.o.f o j p.d. .u qXqXqXqXqXe. .f qXqXqXqXqXqXqXqXqXqXqX",
"qXqXqXqXqXqXqXqX9.f.d...p + g =.-.| 7 qXqXqXqXq.u.;.| qXqXqXqXqXqXqXqXqXqXqX",
"qXqXqXqXqXqXqXqXqXt.;.h 5 + g %.+.f , qXqXqXqXqX,.h u qXqXqXqXqXqXqXqXqXqXqX",
"qXqXqXqXqXqXqXqXqXy.0.h 5 + a +.+.f qXqXqXqXqXw.l.:.| qXqXqXqXqXqXqXqXqXqXqX",
"qXqXqXqXqXqXqXqXqX:. .7 : + i  . .p u qXqXqXqXqX;.| f qXqXqXqXqXqXqXqXqXqXqX",
"qXqXqXqXqXqXqXqX*Xd.O.h 7 + i %.q.>. .p qXqXqXp.l.*.h qXqXqXqXqXqXqXqXqXqXqX",
"qXqXqXqXqXqXqX5XZ.f.+.f 7 + 0 &.N.A.d.%.s N B o.9.+.d M Z Z qXqXqXqXqXqXqXqX",
"qXqXqXqXqXqX@X+Xf.;. .u O X 4 X.,.N.Z.g.O.#   . f a # * = ; m m M C C Z F F ",
"qXqXqXqXqXu.f.,.@.| 5 . X ; C A r g o.o.h 4 $ $ & q - = = = m m M C F Z F F "
};
