/* XPM */
static char *_30dd6e0f4e84334ff59fdc4094d5d7aSWvTpFn5reqNTVoz[] = {
/* columns rows colors chars-per-pixel */
"48 32 12 1 ",
"  c None",
". c #202020",
"X c gray22",
"o c #484848",
"O c gray33",
"+ c #646464",
"@ c #7C7C7C",
"# c #989898",
"$ c gray66",
"% c #B4B4B4",
"& c #C0C0C0",
"* c #ECECEC",
/* pixels */
"                                                ",
"                                                ",
"                                                ",
"                                                ",
"        ##                                      ",
"        ##                                      ",
"          **********%%++                **      ",
"          **********%%++                **      ",
"        ##$$$$$$$$&&************************    ",
"        ##$$$$$$$$&&************************    ",
"      ++$$@@@@@@@@@@$$$$$$$$$$$$$$$$$$$$$$$$    ",
"      ++$$@@@@@@@@@@$$$$$$$$$$$$$$$$$$$$$$$$    ",
"          ++XXXXOO@@++++++++++++++++++++++++    ",
"          ++XXXXOO@@++++++++++++++++++++++++    ",
"        ooooXX..XXOOOO  oooooooooo              ",
"        ooooXX..XXOOOO  oooooooooo              ",
"        ++XXXXXXXXOOoooooo                      ",
"        ++XXXXXXXXOOoooooo                      ",
"      ooooXXXXXXoo++                            ",
"      ooooXXXXXXoo++                            ",
"      ooXX..XXXX++                              ",
"      ooXX..XXXX++                              ",
"      ooooXXXXoooo                              ",
"      ooooXXXXoooo                              ",
"        oooooooo                                ",
"        oooooooo                                ",
"                                                ",
"                                                ",
"                                                ",
"                                                ",
"                                                ",
"                                                "
};
