/* XPM */
static char *armor[] = {
/* columns rows colors chars-per-pixel */
"48 63 44 1 ",
"  c black",
". c #202020",
"X c #2C2C2C",
"o c gray22",
"O c #004040",
"+ c #005858",
"@ c #007070",
"# c #484848",
"$ c gray33",
"% c #646464",
"& c gray44",
"* c #7C7C7C",
"= c #BC0000",
"- c #D40000",
"; c #EC0000",
": c #FC2020",
"> c #FC4040",
", c #FC5454",
"< c #FC7C7C",
"1 c #008484",
"2 c #009C9C",
"3 c #00B4B4",
"4 c #00CCCC",
"5 c #00E4E4",
"6 c #00FCFC",
"7 c #20FCFC",
"8 c #40FCFC",
"9 c #54FCFC",
"0 c #5CFCFC",
"q c #7CFCF8",
"w c gray55",
"e c #989898",
"r c gray66",
"t c #B4B4B4",
"y c #FC9C9C",
"u c #9CFCFC",
"i c #B8FCFC",
"p c #C0C0C0",
"a c #D0D0D0",
"s c gainsboro",
"d c #D8FCFC",
"f c #ECECEC",
"g c gray99",
"h c None",
/* pixels */
"hhhhhhhhhhhhhhhhh4hhhhhhhhhhhhhhhhhhirhhhhhhhhhh",
"hhhhhhhhhhhhhhhww2wwhhhhhhhhhhh5hhhhrgrhhhhhhhhh",
"hhhhhhhhhhhhh*qia+rrr*hhhhhhhhh5hhhhhughhhhhhhhh",
"hhhhhhhhhhhh*qiif9rrrw%hhhhhhhh5hhhhr7grhhhhhhhh",
"hhhhhhhhhhhhtqia9s*ww11hhhhhhh353hhh77iihhhhhhhh",
"hhhhhhhhhhhhtss9sap*++Ohhhhhhh353hhh75ighhhhhhhh",
"hhhhhhhhhhhiw99d*a$t*OOehhhhhh351hh735ighhhhhhhh",
"hhhhhhhhhhh498ud#aXt21@*hhhhh535777335ighhhhhhhh",
"hhhhhhhhhhhef8*d#aXt$1@%hhhh5435333335ighhhhhhhh",
"hhhhhhhhhhh@f8%d#aXtX1@Ohhhh4335555335ighhhhhhhh",
"hhhhhhhhhhhha8*d#aXt$1*hhhh53235114535ighhhhhhhh",
"hhhhhhhhhhhh*aud*a$t21*hhhh42135321345ighhhhhhhh",
"hhhhhhhhhhhh#*etsapee*#hhhh41h35331155ighhhhhhhh",
"hhhhhhhhhhhh#a*******$#hhhh2hh35@@2135ighhhhhhhh",
"hhhhhhh*pppaaeagaar$$oo$$hhhhh35@h@125ighhhhhhhh",
"hhhh*sspauuggaee*%%ooo222+$#$$35@hh115iihhhhhhhh",
"hhhtdd53uuggdifiis54432111@#@@35@hhh1iirhhhhhhhh",
"hh*fgd53ffgdiigif335443211@O2335@hhh1iihhhhhhhhh",
"hhtdf53fapgiigg9s23544321@@O1135@@hh5iihhhhhhhhh",
"hhtdi3fg>ppppgg9a23544321@+O&&35@@hhrirhhhhhhhhh",
"hh6f6fg,>:*ppttttt3344321@+O%%35@@hhrihhhhhhhhhh",
"t6f6fg<,>:;--**eew+333321+oOOO35@+hhirhhhhhhhhhh",
"hh*$fy<,>:;--===ew+@11@@++XO++35@++hhhhhhhhhhhhh",
"hhrwfy<,>:;--===ewooOOOOOo.O1335@+hhhhhhhhhhhhhh",
"hhrify<,>:;--===ewOO+OOXX. O1335@+hhhhhhhhhhhhhh",
"hhrify<,>:;--===ewO+1@O#o.h@1335@+hhhhhhhhhhhhhh",
"hhiify<,>:;--===ewo+1@+#oOh@1135@1+hhhhhhhhhhhhh",
"hii3ay<,>:;--===ewo+1@+#oOh135qq@@+hhhhhhhhhhhhh",
"ii3iay<,>:;--===ewX+@++#Ohhh3ii32@O+hhhhhhhhhhhh",
"ir26ay<,>:;--===ewX++++$Ohhh3qq22@O+hhhhhhhhhhhh",
"ar22ay<,>:;--===ewO@2211$Ohh3iq32@O+hhhhhhhhhhhh",
"ar+way<,>:;--===ewO@3321@+Ohhiq32@O+hhhhhhhhhhhh",
"h**+ay<,>:;--===ew+@3332@+Ohh333OO+hhhhhhhhhhhhh",
"hh**ay<,>:;--===ew@@@@++OOhhh@@@@1hhhhhhhhhhhhhh",
"hhhhay<,>:;--===ewXXOOOOOohhhh1@@hhhhhhhhhhhhhhh",
"hhhhha<,>:;--===ewXo#+++Oohhhh32@hhhhhhhhhhhhhhh",
"hhhhha<,>:;--==*w.o+@@%+Oohhhh35@hhhhhhhhhhhhhhh",
"hhhhhay,>:;--==rw.#@1@%+Oohhhh35@hhhhhhhhhhhhhhh",
"hhhhhha,>:;--=*wXO#@1@%+Oohhhh44@hhhhhhhhhhhhhhh",
"hhhhhhha>:;--*w+XO#@1@%+Oohhhh44@hhhhhhhhhhhhhhh",
"hhhhhhhha:;-rw@+XO+@1@%+Oohhhh43+hhhhhhhhhhhhhhh",
"hhhhhhhhhttt@@@+XO+@1@%+Oohhhh43+hhhhhhhhhhhhhhh",
"hhhhhhhhh5432@@+OO+@112+Oohhhh42+hhhhhhhhhhhhhhh",
"hhhhhhhhhii421@+OO+@124@+ohhhh32+hhhhhhhhhhhhhhh",
"hhhhhhhhhi7521@@Oo@13342+OOhhh31Ohhhhhhhhhhhhhhh",
"hhhhhhhhi754211@+o133452@+Ohhh31Ohhhhhhhhhhhhhhh",
"hhhhhhhh3111111@+o+@@@+++OOhh3qq3@hhhhhhhhhhhhhh",
"hhhhhhhhh3@@+++OO.OOOOOOOOhhh3553@hhhhhhhhhhhhhh",
"hhhhhhhhhh4311@@+.122@@@+hhhhh31Ohhhhhhhhhhhhhhh",
"hhhhhhhhhh404311+.2443@@+hhhh3q53@hhhhhhhhhhhhhh",
"hhhhhhhhhh40g411+.254q@@+hhhh3553@hhhhhhhhhhhhhh",
"hhhhhhhhhh40g51@+.2446@+hhhhhh31Ohhhhhhhhhhhhhhh",
"hhhhhhhhhh34gu1@+.17i1@+hhhhh3q53@hhhhhhhhhhhhhh",
"hhhhhhhhhhh4451@+.1113@+hhhhh3553@hhhhhhhhhhhhhh",
"hhhhhhhhhhh442@@OX1341+Ohhhhhh31Ohhhhhhhhhhhhhhh",
"hhhhhhhhhhh374@+OX1112+hhhhhh3q53@hhhhhhhhhhhhhh",
"hhhhhhhhhhhh54@+OX@341+hhhhhh3553@hhhhhhhhhhhhhh",
"hhhhhhhhhhh41+OOOX@1@@@+hhhhhh31Ohhhhhhhhhhhhhhh",
"hhhhhhhhhhg0411@OX@25522+hhhh3q53@hhhhhhhhhhhhhh",
"hhhhhhhhhg0042@@OX+35i032+$$$3553@$%%%hhhhhhhhhh",
"hhhhhhhh0g0432@+OX+340i042+XXX31OXoo##$$$$%%%%hh",
"hhhhhhh0g0432@+O XX@@45i04@    3@..XXooo####$$%%",
"hhhhhhh4422@@O XX$%%$X@@@@@ooooooooooo###$$%%%%%"
};
