/* XPM */
static char *big_treasure[] = {
/* columns rows colors chars-per-pixel */
"29 14 35 1 ",
"  c #580000",
". c #044000",
"X c #046400",
"o c #585400",
"O c #706C00",
"+ c #5C4020",
"@ c #007070",
"# c #484848",
"$ c gray33",
"% c gray36",
"& c #646464",
"* c #880000",
"= c #A40000",
"- c #BC0000",
"; c #C80000",
": c #FC0000",
"> c #FC2020",
", c #A86840",
"< c #048800",
"1 c #04B000",
"2 c #40FC40",
"3 c #9C9C00",
"4 c #CCC400",
"5 c #E4D800",
"6 c #FCA85C",
"7 c #FCF440",
"8 c #FCFC7C",
"9 c #000088",
"0 c #0000E0",
"q c #5C60FC",
"w c #FCB080",
"e c #FCFC9C",
"r c #B8BCFC",
"t c #D8FCD8",
"y c None",
/* pixels */
"yyyyyyyyyyy22yyyyyyyyyyyyyyyy",
"yyyyy4477yt11<y88yyyyyyyyyyyy",
"yyy4-:844eX<X.rq0O53yyyyyyyyy",
"yyy4-458,67X.+909+w+3yyyyyyyy",
"yyyy4O5*77777777777773yyyyyyy",
"yyyyyy5;43          33yyyyyyy",
"yyyyyy5;4  ==========3yyyyyyy",
"yyyyyy5;4 =5=@53@=5==3yyyyyyy",
"yyyyyy5;4 =333oo333 =3yyyyyyy",
"yyy53y5>4 =3 @33@ 3 =3yy53yyy",
"43yyy3y443== =    = 33##$&yyy",
"yyy43y3343333333333333#Oo%&&y",
"yyyyyyyyyy$$$$$$$$$$$$$$$$%&&",
"yyyyyyyyy4353yyyyyyyyyyyyyyyy"
};
