/* XPM */
static char *bullets[] = {
/* columns rows colors chars-per-pixel */
"14 10 15 1 ",
"  c #6C4824",
". c #004040",
"X c #005858",
"o c #006060",
"O c #006464",
"+ c #007070",
"@ c #646464",
"# c #A86840",
"$ c #F0945C",
"% c #008484",
"& c #009C9C",
"* c #00B4B4",
"= c #FCB080",
"- c #FCE0D0",
"; c None",
/* pixels */
";;;&&%%%%;;;;;",
";;*=-#$$ X;;;;",
";;&%%%%%OX;;;;",
";;%+.+.+OX;;;;",
";;%+X+X+oX;;;;",
";;&+++++XX;;;;",
";&+%+%++X;;;;;",
"%&++++++X;;;;;",
"&&&%%%%O.@@@@@",
"+OOOOOO..@@@@@"
};
