/* XPM */
static char *barrel[] = {
/* columns rows colors chars-per-pixel */
"64 64 32 1 ",
"  c black",
". c #202020",
"X c #2C2C2C",
"o c gray22",
"O c #044000",
"+ c #044C00",
"@ c #045800",
"# c #046400",
"$ c #047000",
"% c #047C00",
"& c #484848",
"* c gray33",
"= c #646464",
"- c #048800",
"; c #049800",
": c #04A400",
"> c #00A800",
", c #04B000",
"< c #04BC00",
"1 c #04C800",
"2 c #00D400",
"3 c #00E000",
"4 c #00EC00",
"5 c #00FC00",
"6 c #20FC20",
"7 c #40FC40",
"8 c #54FC54",
"9 c #60FC5C",
"0 c #80FC7C",
"q c #9CFC9C",
"w c #BCFCB8",
"e c None",
/* pixels */
"eeeeeeeeeeeeeeeeeeeeeeeeeeeeeeeeeeeeeeeeeeeeeeeeeeeeeeeeeeeeeeee",
"eeeeeeeeeeeeeeeeeeeeeeeeeeeeeeeeeeeeeeeeeeeeeeeeeeeeeeeeeeeeeeee",
"eeeeeeeeeeeeeeeeeeeeeeeeeeeeeeeeeeeeeeeeeeeeeeeeeeeeeeeeeeeeeeee",
"eeeeeeeeeeeeeeeeeeeeeeeeeeeeeeeeeeeeeeeeeeeeeeeeeeeeeeeeeeeeeeee",
"eeeeeeeeeeeeeeeeeeeeeeeeeeeeeeeeeeeeeeeeeeeeeeeeeeeeeeeeeeeeeeee",
"eeeeeeeeeeeeeeeeeeeeeeeeeeeeeeeeeeeeeeeeeeeeeeeeeeeeeeeeeeeeeeee",
"eeeeeeeeeeeeeeeeeeeeeeeeeeeeeeeeeeeeeeeeeeeeeeeeeeeeeeeeeeeeeeee",
"eeeeeeeeeeeeeeeeeeeeeeeeeeeeeeeeeeeeeeeeeeeeeeeeeeeeeeeeeeeeeeee",
"eeeeeeeeeeeeeeeeeeeeeeeeeeeeeeeeeeeeeeeeeeeeeeeeeeeeeeeeeeeeeeee",
"eeeeeeeeeeeeeeeeeeeeeeeeeeeeeeeeeeeeeeeeeeeeeeeeeeeeeeeeeeeeeeee",
"eeeeeeeeeeeeeeeeeeeeeeeeeeeeeeeeeeeeeeeeeeeeeeeeeeeeeeeeeeeeeeee",
"eeeeeeeeeeeeeeeeeeeeeeeeeeeeeeeeeeeeeeeeeeeeeeeeeeeeeeeeeeeeeeee",
"eeeeeeeeeeeeeeeeeeeeeeeeeeeeeeeeeeeeeeeeeeeeeeeeeeeeeeeeeeeeeeee",
"eeeeeeeeeeeeeeeeeeeeeeeeeeeeeeeeeeeeeeeeeeeeeeeeeeeeeeeeeeeeeeee",
"eeeeeeeeeeeeeeeeeeeeeeeeeeeeeeeeeeeeeeeeeeeeeeeeeeeeeeeeeeeeeeee",
"eeeeeeeeeeeeeeeeeeeeeeeeeeeeeeeeeeeeeeeeeeeeeeeeeeeeeeeeeeeeeeee",
"eeeeeeeeeeeeeeeeeeeeeeeeeeeeeeeeeeeeeeeeeeeeeeeeeeeeeeeeeeeeeeee",
"eeeeeeeeeeeeeeeeeeeeeeeeeeeeeeeeeeeeeeeeeeeeeeeeeeeeeeeeeeeeeeee",
"eeeeeeeeeeeeeeeeeeeeeeeeeeeeeeeeeeeeeeeeeeeeeeeeeeeeeeeeeeeeeeee",
"eeeeeeeeeeeeeeeeeeeeeeeeeeeeeeeeeeeeeeeeeeeeeeeeeeeeeeeeeeeeeeee",
"eeeeeeeeeeeeeeeeeeeeeeeeeeeeeeeeeeeeeeeeeeeeeeeeeeeeeeeeeeeeeeee",
"eeeeeeeeeeeeeeeeeeeeeeeeeeeeeeeeeeeeeeeeeeeeeeeeeeeeeeeeeeeeeeee",
"eeeeeeeeeeeeeeeeeeeeeeeeeeeeeeeeeeeeeeeeeeeeeeeeeeeeeeeeeeeeeeee",
"eeeeeeeeeeeeeeeeeeeeeeeeeeeeeeeeeeeeeeeeeeeeeeeeeeeeeeeeeeeeeeee",
"eeeeeeeeeeeeeeeeeeeeeeeeeeeeeeeeeeeeeeeeeeeeeeeeeeeeeeeeeeeeeeee",
"eeeeeeeeeeeeeeeeeeeeeeeeeeeeeeeeeeeeeeeeeeeeeeeeeeeeeeeeeeeeeeee",
"eeeeeeeeeeeeeeeeeeeeeeeeeeeeeeeeeeeeeeeeeeeeeeeeeeeeeeeeeeeeeeee",
"eeeeeeeeeeeeeeeeeeeeeeeeeeeeeeeeeeeeeeeeeeeeeeeeeeeeeeeeeeeeeeee",
"eeeeeeeeeeeeeeeeeeeeeeeeeeeeeeeeeeeeeeeeeeeeeeeeeeeeeeeeeeeeeeee",
"eeeeeeeeeeeeeeeeeeeeeeeeeeeeeeeeeeeeeeeeeeeeeeeeeeeeeeeeeeeeeeee",
"eeeeeeeeeeeeeeeeeeeeeeeeeeeeeeeeeeeeeeeeeeeeeeeeeeeeeeeeeeeeeeee",
"eeeeeeeeeeeeeeeeeeeeeeeeeeeeeeeeeeeeeeeeeeeeeeeeeeeeeeeeeeeeeeee",
"eeeeeeeeeeeeeeeeeeeeeee22::::;;;;:::2222wweeeeeeeeeeeeeeeeeeeeee",
"eeeeeeeeeeeeeeeeeeeee22:@+#$--:<<22344509ww;eeeeeeeeeeeeeeeeeeee",
"eeeeeeeeeeeeeeeeeeee>5q3,;%#--:<<223445511;$$eeeeeeeeeeeeeeeeeee",
"eeeeeeeeeeeeeeeeeeeee,<wqqqqq853321<>-%%$$OOeeeeeeeeeeeeeeeeeeee",
"eeeeeeeeeeeeeeeeeeeee>2<,,;;$$$$$+++OOOOOOOOeeeeeeeeeeeeeeeeeeee",
"eeeeeeeeeeeeeeeeeeeee>2458432<<>;;-%#@OO+OOOeeeeeeeeeeeeeeeeeeee",
"eeeeeeeeeeeeeeeeeeee884488432<<:;;-%#@OO@@+OOeeeeeeeeeeeeeeeeeee",
"eeeeeeeeeeeeeeeeeeee16qqwqq65555332,:;##@@@OOeeeeeeeeeeeeeeeeeee",
"eeeeeeeeeeeeeeeeeeee::17743221<<,,>:;-$+OO@OOeeeeeeeeeeeeeeeeeee",
"eeeeeeeeeeeeeeeeeeeee;$-------%%%$$$##@+OO+Oeeeeeeeeeeeeeeeeeeee",
"eeeeeeeeeeeeeeeeeeeee>2<;-%$##@@++OOOOOOOOOOeeeeeeeeeeeeeeeeeeee",
"eeeeeeeeeeeeeeeeeeeee>222221<>>>;;-%#@OO+OOOeeeeeeeeeeeeeeeeeeee",
"eeeeeeeeeeeeeeeeeeeee>2488432<<>;;-%#@OO+OOOeeeeeeeeeeeeeeeeeeee",
"eeeeeeeeeeeeeeeeeeeee>2488432<<>;;-%#@OO+OOOeeeeeeeeeeeeeeeeeeee",
"eeeeeeeeeeeeeeeeeeeee>2488432<<>;;-%#@OO+OOOeeeeeeeeeeeeeeeeeeee",
"eeeeeeeeeeeeeeeeeeee884488432<<:;;-%#@OO@@+OOeeeeeeeeeeeeeeeeeee",
"eeeeeeeeeeeeeeeeeeee16qqqqq65555332,:;##@@@OOeeeeeeeeeeeeeeeeeee",
"eeeeeeeeeeeeeeeeeeee::77743221<<,,>:;-$+OO@OOeeeeeeeeeeeeeeeeeee",
"eeeeeeeeeeeeeeeeeeeee;$-------%%%$$$##@+OO+Oeeeeeeeeeeeeeeeeeeee",
"eeeeeeeeeeeeeeeeeeeee>2<;-%$$##@++OOOOOOOOOOeeeeeeeeeeeeeeeeeeee",
"eeeeeeeeeeeeeeeeeeeee>222221<>>>;;-%#@OO+OOOeeeeeeeeeeeeeeeeeeee",
"eeeeeeeeeeeeeeeeeeeee>2488432<<>;;-%#@OO+OOOeeeeeeeeeeeeeeeeeeee",
"eeeeeeeeeeeeeeeeeeeee>2488432<<>;;-%#@OO+OOOeeeeeeeeeeeeeeeeeeee",
"eeeeeeeeeeeeeeeeeeee884488432<<:;;-%#@OO@@+OOeeeeeeeeeeeeeeeeeee",
"eeeeeeeeeeeeeeeeeeee16qqqqq65555332,:;##@@@OOeeeeeeeeeeeeeeeeeee",
"eeeeeeeeeeeeeeeeeeee::77743221<<,,>:;-$+OO@OOeeeeeeeeeeeeeeeeeee",
"eeeeeeeeeeeeeeeeeeeee;$-------%%%$$$##@+OO+O********=====eeeeeee",
"eeeeeeeeeeeeeeeeeeeee>2<<-%$$##@++OOOOOOOOOO........Xo&*===eeeee",
"eeeeeeeeeeeeeeeeeeeee5228841<>>>;;-%#@OO+OOO+        ..X&*==eeee",
"eeeeeeeeeeeeeeeeeeee>1848841<>>>;;-%#@OO++@+           .X&*==eee",
"eeeeeeeeeeeeeeeeeeeee-,ww88854221<>>%#####+           .Xo&*==eee",
"eeeeeeeeeeeeeeeeeeeeeee,,,;%$$$#@@@+++OOOO         ..XXo&*==eeee"
};
