/* XPM */
static char *crown[] = {
/* columns rows colors chars-per-pixel */
"64 64 21 1 ",
"  c #700000",
". c #585400",
"X c #706C00",
"o c #484848",
"O c gray33",
"+ c #646464",
"@ c #980000",
"# c #BC0000",
"$ c #D40000",
"% c #848400",
"& c #9C9C00",
"* c #B4AC00",
"= c #CCC400",
"- c #E4D800",
"; c #FCF400",
": c #FCFC7C",
"> c #0000E0",
", c #4040FC",
"< c #5C60FC",
"1 c #FCFCB8",
"2 c None",
/* pixels */
"2222222222222222222222222222222222222222222222222222222222222222",
"2222222222222222222222222222222222222222222222222222222222222222",
"2222222222222222222222222222222222222222222222222222222222222222",
"2222222222222222222222222222222222222222222222222222222222222222",
"2222222222222222222222222222222222222222222222222222222222222222",
"2222222222222222222222222222222222222222222222222222222222222222",
"2222222222222222222222222222222222222222222222222222222222222222",
"2222222222222222222222222222222222222222222222222222222222222222",
"2222222222222222222222222222222222222222222222222222222222222222",
"2222222222222222222222222222222222222222222222222222222222222222",
"2222222222222222222222222222222222222222222222222222222222222222",
"2222222222222222222222222222222222222222222222222222222222222222",
"2222222222222222222222222222222222222222222222222222222222222222",
"2222222222222222222222222222222222222222222222222222222222222222",
"2222222222222222222222222222222222222222222222222222222222222222",
"2222222222222222222222222222222222222222222222222222222222222222",
"2222222222222222222222222222222222222222222222222222222222222222",
"2222222222222222222222222222222222222222222222222222222222222222",
"2222222222222222222222222222222222222222222222222222222222222222",
"2222222222222222222222222222222222222222222222222222222222222222",
"2222222222222222222222222222222222222222222222222222222222222222",
"2222222222222222222222222222222222222222222222222222222222222222",
"2222222222222222222222222222222222222222222222222222222222222222",
"2222222222222222222222222222222222222222222222222222222222222222",
"2222222222222222222222222222222222222222222222222222222222222222",
"2222222222222222222222222222222222222222222222222222222222222222",
"2222222222222222222222222222222222222222222222222222222222222222",
"2222222222222222222222222222222222222222222222222222222222222222",
"2222222222222222222222222222222222222222222222222222222222222222",
"2222222222222222222222222222222222222222222222222222222222222222",
"2222222222222222222222222222222222222222222222222222222222222222",
"2222222222222222222222222222222222222222222222222222222222222222",
"2222222222222222222222222222222222222222222222222222222222222222",
"2222222222222222222222222222222222222222222222222222222222222222",
"2222222222222222222222222222222222222222222222222222222222222222",
"2222222222222222222222222222222222222222222222222222222222222222",
"2222222222222222222222222222222222222222222222222222222222222222",
"2222222222222222222222222222222222222222222222222222222222222222",
"2222222222222222222222222222222222222222222222222222222222222222",
"2222222222222222222222222222222222222222222222222222222222222222",
"2222222222222222222222222222222222222222222222222222222222222222",
"2222222222222222222222222222222222222222222222222222222222222222",
"2222222222222222222222222222222222222222222222222222222222222222",
"2222222222222222222222222222222222222222222222222222222222222222",
"2222222222222222222222222222222222222222222222222222222222222222",
"2222222222222222222222222222222222222222222222222222222222222222",
"222222222222222222222222222222222;122222222222222222222222222222",
"222222222222222222222222222222222;122222222222222222222222222222",
"22222222222222222222222222222222;;;12222222222222222222222222222",
"222222222222222222222222222222222--22222222222222222222222222222",
"222222222222222222222222222;;;;;2;12;;;;;22222222222222222222222",
"22222222222222222222222222=@@##@;;1;#####;2222222222222222222222",
"2222222222222222222222222*@@#$$##::##$$###;222222222222222222222",
"2222222222222222222222222&@###$$#;;##@@$##;222222222222222222222",
"2222222222222222222222222%@##@##@--##@##@@-222222222222222222222",
"2222222222222222222222222%@@@#@#@==@@#$$#@=222222222222222222222",
"22222222222222222222222222% @@@@ == @@@##=2222222222222222222222",
"22222222222222222222222222%%  @@ **  @  =22222222222222222222222",
"222222222222222222222222222%X.   %%   ==;22222222222222222222222",
"222222222222222222222222222%>&&&&&***==<;22222222222222222222222",
"222222222222222222222222222222&>&&**,=22222222222222222222222222",
"2222222222222222222222222222222+++++++++++++22222222222222222222",
"2222222222222222222222222222++++OOOooooooOOO+++22222222222222222",
"22222222222222222222222222222222+++++++++++222222222222222222222"
};
