/* XPM */
static char *treasure[] = {
/* columns rows colors chars-per-pixel */
"25 9 34 1 ",
"  c #700000",
". c #044000",
"X c #047C00",
"o c #585400",
"O c #706C00",
"+ c #00007C",
"@ c #980000",
"# c #EC0000",
"$ c #FC4040",
"% c #FC5C5C",
"& c #FC7C7C",
"* c #048800",
"= c #04C800",
"- c #00EC00",
"; c #848400",
": c #9C9C00",
"> c #B4AC00",
", c #CCC400",
"< c #E4D800",
"1 c #FCF400",
"2 c #FCF420",
"3 c #80FC7C",
"4 c #FCF440",
"5 c #FCF85C",
"6 c #0000D4",
"7 c #4040FC",
"8 c #5C60FC",
"9 c #7C80FC",
"0 c #FCB8B8",
"q c #9CFC9C",
"w c #FCFC9C",
"e c #9C9CFC",
"r c #B8BCFC",
"t c None",
/* pixels */
"tttttttttttre98tttttttttt",
"tttttttttt89976+22ttttttt",
"ttttw1t11tt896+OOq3-ttttt",
"tttt1>,,,5<4>0&%X==*.tt1:",
"tttttt55<;<:#%#@ X*.>>Ott",
"<22<t5<<>:OoO#$ 2>.>>O><>",
",<<;ttt:OOO><<>2<>22O><>O",
"t:;tttttt>>>OOO<>OOOttOOt",
"tttttttttttttttOOtttttttt"
};
