/* XPM */
static char *AASTINKY[] = {
/* columns rows colors chars-per-pixel */
"24 72 14 1 ",
"  c #4F0000",
". c #470000",
"X c #777777",
"o c #6F6F6F",
"O c #5B472B",
"+ c #5B0707",
"@ c #533F1F",
"# c #4B371B",
"$ c gray50",
"% c #530707",
"& c #670000",
"* c #430000",
"= c #5F4323",
"- c #8B8B8B",
/* pixels */
"oXoO. . +..@XXXO.+  . .@",
"oXoO+.    .@XXXO + + +.#",
"oXoO&  .  .#XXXO &&   .@",
"XXXO  &.. .@o$oO +    .@",
"-XoO. +  ..@XXXO.  . ..#",
"$X$O. * +..#$XoO      .#",
"XXXO.+  . .@XooO  +++ .#",
"XXXO + + +.#$ooO.    ..@",
"XXXO &&   .@XXoO +    .@",
"o$oO +    .@ooXO+  +...@",
"XXXO.  . ..#XooO.    ..#",
"$XoO      .#XooO +  + .#",
"XooO  +++ .#XXXO+& . ..#",
"$ooO.    ..@oX$O    ...@",
"XXoO +    .@oXXO.+ ++ .@",
"ooXO+  +...@XX$O  +   .#",
"XooO.    ..#X-oO + .++.@",
"XooO +  + .#XXXO++ ++..@",
"XXXO+& . ..#oXXO  & . .@",
"oX$O    ...@oooO.  +  .@",
"oXXO.+ ++ .@oooO..  + .@",
"XX$O  +   .#oXoO +.   .@",
"X-oO + .++.@XooO  .+...@",
"XXXO++ ++..@XooO  .  ..=",
"oXXO  & . .@XXoO&  &. .@",
"oooO.  +  .@XXoO .+ .+.@",
"oooO..  + .@XXoO.& +. .=",
"oXoO +.   .@XXoO  + ...@",
"XooO  .+...@oXoO+.  . .#",
"XooO  .  ..=oXoO  & . .@",
"XXoO&  &. .@XXoO. .. ..@",
"XXoO .+ .+.@XXoO*  .  .@",
"XXoO.& +. .=XooO..+ * .#",
"XXoO  + ...@XooO  .....@",
"oXoO+.  . .#-XoO    +..@",
"oXoO  & . .@XXoO. .. ..@",
"XXoO. .. ..@XXoO. *+ ..#",
"XXoO*  .  .@oXoO...  ..#",
"XooO..+ * .#oXXO  .  ..#",
"XooO  .....@XXXO.  ++..#",
"-XoO    +..@ooXO.. % ..@",
"XXoO. .. ..@ooXO...+. .@",
"XXoO. *+ ..#XoXO ...  .@",
"oXoO...  ..#XXXO ...  .@",
"oXXO  .  ..#XXXO.  .+ .#",
"XXXO.  ++..#XXXO.  .  .#",
"ooXO.. % ..@X$XO..+. ..#",
"ooXO...+. .@X$XO %+....@",
"XoXO ...  .@X$oO...%  .#",
"XXXO ...  .@X$oO. %% ..@",
"XXXO.  .+ .#o$oO .% + .#",
"XXXO.  .  .#o$oO .%.+ .@",
"X$XO..+. ..#X$XO+ %%  .#",
"X$XO %+....@X$XO .+ %..@",
"X$oO...%  .#X$XO&.. % .@",
"X$oO. %% ..@X$XO .+.%..@",
"o$oO .% + .#X$XO  %%  .@",
"o$oO .%.+ .@X$XO%%&&  .#",
"X$XO+ %%  .#o$XO. + . .#",
"X$XO .+ %..@o$XO.%.&...=",
"X$XO&.. % .@oXoO %%.+..@",
"X$XO .+.%..@XXoO.   &..@",
"X$XO  %%  .@XooO  .   .@",
"X$XO%%&&  .#oXXO      .@",
"o$XO. + . .#XoXO  + +..#",
"o$XO.%.&...=XoXO  .   .@",
"oXoO %%.+..@oXoO  ++*+.@",
"XXoO.   &..@oXoO. . . .@",
"XooO  .   .@oXoO +   ..#",
"oXXO      .@XXXO    * .@",
"XoXO  + +..#-XoO  %%  .@",
"XoXO  .   .@$X$O.%  ...#"
};
