/* XPM */
static char *ASHWALL[] = {
/* columns rows colors chars-per-pixel */
"64 128 21 1 ",
"  c #1B1B1B",
". c #2F2F2F",
"X c #434343",
"o c black",
"O c gray34",
"+ c gray42",
"@ c #272727",
"# c #4B4B4B",
"$ c #373737",
"% c gray23",
"& c #232323",
"* c gray31",
"= c #777777",
"- c gray39",
"; c gray50",
": c gray28",
"> c #5B5B5B",
", c #939393",
"< c #0B0B0B",
"1 c #9F9F9F",
"2 c #8B8B8B",
/* pixels */
"o .X#oo. oooX    .;=..XX.   o XXO=+ooo.-XXXX  o.O. .XX.  oooX   ",
" XX oo # .  ooo . O;..-O o $$o.X.OOoooX+X...oo#+++. XXXX .  ooo ",
" + o #..XX oo ++XXOX .;O .XOX XOXX  X..OX@@@oo.O--. .XOXXX oo ++",
" X.o  .X   ooXOX;O...#X.@..OX$.OX......XX@ OX..   oo.=O..@ ooXOX",
" XX  o Xoo o OXXXXXX.++  @.O%@o.OO. .X... .OO.ooX.  X;X@oo o OXX",
"   o o Xo  o.#XXo OXX=+.o @$X.o ++  X..  .XX o.O-.  X.@ o  o.#XX",
"X# oo .Xo. o....  XO.X+O   @.ooX# o.X. .$.X  .OOX  .X.ooo. o....",
"XXooo #Xo   ..XXo #XX..OO.oo  .   .+X .X>Xoo ......XX@ooo   ..XX",
" oo  .XXoo.X..X.#+. ..OO.  .XX   .+O. *>>*.  XOO o XXoo.oo.X..X.",
"... oo.   XXX#.o#..  ....   XXoo .XXX O++O%o.X . ooX.     XXX# o",
"X#. oo XX..XXXX ooO+   XO .OOO.   .OX O=+%@ .O  X O=X o X..XXXX ",
"ooOX   X.  .X.oooO;X o XX#O.  ...  ..o%O%@  .o .  XO# o .  .X.oo",
" #X X. ..o X.. o.OO .OX. XO . . $+O.  @X. ... X. ..XXoo .oo... o",
"#+X .. .X oO%.oo.  .OX.. ..o.O o$XXX$.@ &.&X.      XX@ooX oOO.oo",
"=+     . oo-O   Xo$X. . X+.o.=oo$X###X.@ o . ...XooXX o  o +O   ",
"+   oo. oo +Xo  O$:+Xo.X..o #.oo.OX.....X.oo.XXO#oo.X. .oo :Xo  ",
"oO$oo.$oo XX ...XO+=$oX..;X.. . @.& .XXX...  ..  XO..XX..XX  XOO",
".O$  XOo.XX.o  .XO=+@oXo O...  @..@& +X .X.o .  XOX  XX.-O.o.X .",
" OX .X.O-XXXoo.. .X. OO.. ..   ...@&..X..XX.X o XXoo.X. +.X .O  ",
" .O. o +OX o.O# o#X OO..OXo o .O+X& oo.X.X..>X    XXXO oO....o .",
" .oo.OX .OX XX.O. . .. .O.oooo$#X.  @  .#O. >+.oo-.oO+# .oo.. X.",
"   ..OO.XOO. .XX  ..  .X o .X*X$#...  @$X+  ,> .XX oXX  oooX.   ",
".o ..OO.X+-X.  ..OOX..X.o .%>O*X+...  .XOOo.O:.XX.  ooX# o . ...",
"...XX.. .X  .. .XOX.   oo&%*-=X$#O. ..X*O.o X.....X o #.X.oo.XXO",
" XXX    X+X ....X oXOX. <&X*-+%.oo  O;O. ooo . o.O.oo.  ...  .. ",
"oX+O. o.;+X oo .X. .=X .< .%OX. ..oXOX. .X.oo.  .. o X  .X.o .  ",
"o.O .X..O=#o  ..XO. . o X+..X..:O.  .XX.XX  o O+#  o.O o.XX.X o ",
"oXX.O.o.XX....X@oX-.XX.XX..XXoO=O%  XO-+.o X.  .. ..  . .X..XX  ",
"# o.X o oo.. @.@ XX...XX$@O;%o;+#%.o.X-;X  ..  ..o X ...#O. O+.o",
".o X  X. .+X@@.@.+Oo.OX$@o#+%o*+OX%oo.::.o   .$X.ooo....X+  +. .",
". O o X. X+o$$$. XX OO$@ .%.&o.**%@o  o@@oo  .XOO.oo.%XXOOo.O..X",
".XX o O.ooX$::$.oX+#. o.=X  .# ..o    X+ o. oo$##$o o.%XO.o X...",
"O...ooO+X..+=:$ X ...oo =OXXX. %%.  o OX     @.$$: o.X o ooo . o",
";XX.ooXX.X O;$oX. .#X.  #+O%.@&%XX.oo +.o   o.+O@ oo+Xo .X.oo.  ",
" oO+ o.1+O. .  ...XXXX oXOX$@& +O%%@o..o X$ .XXXo   O.o.XX  o O+",
" o+X..XO-+   .XOO  X..X#X&..&o .%OO%@oX  X$ XOX o  o o& .o X.  .",
"Xo.OXX.O+.o  o.;.o..o .. o&&@oXX %#%@o. .X$o>+O@o  .#o&oX  ..  .",
".o.OOOX.$o . o.+  . o X.@ooo.X. oo     o.+X$:>#$@ ..# @@ o   ..X",
". .XXOOX  ...oo.ooXO  X$$@oo... .X.  oo X#X@.OXX.X. .. .@oo  ..O",
"X o .OOX  ...oo o.+.oO+OX$o.OX  .X .X oXX. o ..$   . .Xo.@. oo #",
" .2XXX  .X    . ...&o X##.o + ooo . . .. ooo    @   X oo..     o",
"o ,+XXooX+X  X o X&   .X.#o X.     X@&   .  ooo @ooXXo #o.@ o +O",
"  OO   X+#.oo.. . oo  oo.X o.Xo..  *X@o XX oo@$*.@. o =X X$ ooXX",
".... .. .Xo .@.@oX.o .X.oo.XX %OX. >>:@   oo@$OO.@@ooX.. X$  .X ",
" X+.       o@OX.oX.  O+Xo .X. %+OXo*+>:$&ooo$O**.$.@oX o.X$o++O ",
".XX.    o  @#+$@  .ooXOX. o .oX-X oX>+O%@ oo$#XXXO$. X o.+Xo =#o",
". O.oo .  @$X$ X  . oo#+.o.O.oX#X o%*>:$@@ oo...#$.X+.  X#XooOX ",
"oO+ o   .@$XX  ..oo# o##oo  .X oooo .XX$@   &.$X$ XX  .XX. o .oo",
".ooXoo .. @.$o . O.   #X oo X#X. oo  .$$&&.X..X.o .X#.@. oooX   ",
" o.oo       oo  .X..XX XO.o  .X.... oo..  XXX# o XX o@.#..  ooo ",
"XX. X.oXX # ooo  . o #..+O.oo.. X#.@oo XX..XX%. %+.o.#X.XX oo ++",
" o .X  XX#+oo  . o .  .. X oX..oo@$:.  X.  .X.oo-+.o ..X.  ooXOX",
"  .XX oo.;Oo ...ooX+.o.X .oo.X.o@#*$%. ..oo... o@XX. ..X.o o OXX",
" o O#oo.O+ o.XX o X  o   O#..Xo@#+*X$. .X oOO.oo.@ o o.X.  o.#XX",
" ooX ooXXooXX o    o ooo.XXXX.@%=+*X.  . o +O  .X#.oo .Xo. o....",
".X.XX. oo++oo ..oo.X oo     ..$%+*X.@o.. o +Xo @XX.oo #Xo   ..XX",
" oo  .XXoo.X..X..ooXoo ..  .oo$.%O.& $#X$ o X#X. oo  .XXoo.X..X.",
"... oo.   XXX# o o.oo       ooo .X&oXX$XO$   .X.... oo.   XXX# o",
"X#. oo XX..XXXX XX. X.oXX # oooo .oo@#$.+O.oo.. X#. oo XX..XXXX ",
"ooOX   X.  .X.oo o .X  o-.oOo  . o . @.$$X$oX..oooOX   X.  .X.oo",
" #X X. ..oo... o  .XX oXX oX ...ooX+.@$X..oo.X.o #X X. ..oo... o",
"#+X .. .X oOO.oo o O#ooX.  o.XX o X  o$:@O#..Xoo#+X .. .X oOO.oo",
"=+     . o +O    ooX oo..X oX o    o o@@.XXXX.oo=+     . o +O   ",
"+ o oo..oo +Xo  .X.XX. .O.ooo ..XXOX oo     ..oX+Xo oo..oo +Xo  ",
"o .X#oo. oooX    .;=..X.. o o XXO=+Ooo.-XXXX  X++X .XX.  oooX   ",
" XX oo # .  ooo . O;..-O o $$o.X.OOXooX+X...oo#+++. XXXX .  ooo ",
" + o #..XX oo ++XXOX .;O .XOX XOXX  X..OX@@@oo.O--. .XOXXX oo ++",
" X.o  .X   ooXOX;O...#X.@..OX$.OX......XX@ OX..   oo.=O..@ ooXOX",
" XX  o Xoo o OXXXXXX.++  @.O%@o.OO. .X... .OO.ooX.  X;X@oo o OXX",
"   o o Xo  o.#XXo OXX=+.o @$X.o ++  X..  .XX o.O-.  X.@ o  o.#XX",
"X# oo .Xo. o....  XO.X+O   @.ooX# o.X. .$.X  .OOX  .X.ooo. o....",
"XXooo #Xo   ..XXo #XX..OO.oo  .   .+X .X>Xoo ......XX@ooo   ..XX",
" oo  .XXoo.X..X.#+. ..OO.  .XX   .+O. *>>*.  XOO o XXoo.oo.X..X.",
"... oo.   XXX#.o#..  ....   XXoo .XXX O++O%o.X . ooX.     XXX# o",
"X#. oo XX..XXXX ooO+   XO .OOO.   .OX O=+%@ .O  X O=X o X..XXXX ",
"ooOX   X.  .X.oooO;X o XX#O.  ...  ..o%O%@  .o .  XO# o .  .X.oo",
" #X X. ..o X.. o.OO .OX. XO . . $+O.  @X. ... X. ..XXoo .oo... o",
"#+X .. .X oO%.oo.  .OX.. ..o.O o$XXX$.@ &.&X.      XX@ooX oOO.oo",
"=+     . oo-O   Xo$X. . X+.o.=oo$X###X.@ o . ...XooXX o  o +O   ",
"+   oo. oo +Xo  O$:+Xo.X..o #.oo.OX.....X.oo.XXO#oo.X. .oo :Xo  ",
"oO$oo.$oo XX ...XO+=$oX..;X.. . @.& .XXX...  ..  XO..XX..XX  XOO",
".O$  XOo.XX.o  .XO=+@oXo O...  @..@& +X .X.o .  XOX  XX.-O.o.X .",
" OX .X.O-XXXoo.. .X. OO.. ..   ...@&..X..XX.X o XXoo.X. +.X .O  ",
" .O. o +OX o.O# o#X OO..OXo o .O+X& oo.X.X..>X    XXXO oO....o .",
" .oo.OX .OX XX.O. . .. .O.oooo$#X.  @  .#O. >+.oo-.oO+# .oo.. X.",
"   ..OO.XOO. .XX  ..  .X o .X*X$#...  @$X+  ,> .XX oXX  oooX.   ",
".o ..OO.X+-X.  ..OOX..X.o .%>O*X+...  .XOOo.O:.XX.  ooX# o . ...",
"...XX.. .X  .. .XOX.   oo&%*-=X$#O. ..X*O.o X.....X o #.X.oo.XXO",
" XXX    X+X ....X oXOX. <&X*-+%.oo  O;O. ooo . o.O.oo.  ...  .. ",
"oX+O. o.;+X oo .X. .=X .< .%OX. ..oXOX. .X.oo.  .. o X  .X.o .  ",
"o.O .X..O=#o  ..XO. . o X+..X..:O.  .XX.XX  o O+#  o.O o.XX.X o ",
"oXX.O.o.XX....X@oX-.XX.XX..XXoO=O%  XO-+.o X.  .. ..  . .X..XX  ",
"# o.X o oo.. @.@ XX...XX$@O;%o;+#%.o.X-;X  ..  ..o X ...#O. O+.o",
".o X  X. .+X@@.@.+Oo.OX$@o#+%o*+OX%oo.::.o   .$X.ooo....X+  +. .",
". O o X. X+o$$$. XX OO$@ .%.&o.**%@o  o@@oo  .XOO.oo.%XXOOo.O..X",
".XX o O.ooX$::$.oX+#. o.=X  .# ..o    X+ o. oo$##$o o.%XO.o X...",
"O...ooO+X..+=:$ X ...oo =OXXX. %%.  o OX     @.$$: o.X o ooo . o",
";XX.ooXX.X O;$oX. .#X.  #+O%.@&%XX.oo +.o   o.+O@ oo+Xo .X.oo.  ",
" oO+ o.1+O. .  ...XXXX oXOX$@& +O%%@o..o X$ .XXXo   O.o.XX  o O+",
" o+X..XO-+   .XOO  X..X#X&..&o .%OO%@oX  X$ XOX o  o o& .o X.  .",
"Xo.OXX.O+.o  o.;.o..o .. o&&@oXX %#%@o. .X$o>+O@o  .#o&oX  ..  .",
".o.OOOX.$o . o.+  . o X.@ooo.X. oo     o.+X$:>#$@ ..# @@ o   ..X",
". .XXOOX  ...oo.ooXO  X$$@oo... .X.  oo X#X@.OXX.X. .. .@oo  ..O",
"X o .OOX  ...oo o.+.oO+OX$o.OX  .X .X oXX. o ..$   . .Xo.@. oo #",
" .2XXX  .X    . ...&o X##.o + ooo . . .. ooo    @   X oo..     o",
"o ,+XXooX+X  X o X&   .X.#o X.     X@&   .  ooo @ooXXo #o.@ o +O",
"  OO   X+#.oo.. . oo  oo.X o.Xo..  *X@o XX oo@$*.@. o =X X$ ooXX",
".... .. .Xo .@.@oX.o .X.oo.XX %OX. >>:@   oo@$OO.@@ooX.. X$  .X ",
" X+.       o@OX.oX.  O+Xo .X. %+OXo*+>:$&ooo$O**.$.@oX o.X$o++O ",
".XX.    o  @#+$@  .ooXOX. o .oX-X oX>+O%@ oo$#XXXO$. X o.+Xo =#o",
". O.oo .  @$X$ X  . oo#+.o.O.oX#X o%*>:$@@ oo...#$.X+.  X#XooOX ",
"oO+ o   .@$XX  ..oo# o##oo  .X oooo .XX$@   &.$X$ XX  .XX. o .oo",
".ooXoo .. @.$o . O.   #X oo X#X. oo  .$$&&.X..X.o .X#.@. oooX   ",
" o.oo       oo  .X..XX XO.o  .X.... oo..  XXX# o XX o@.#..  ooo ",
"XX. X.oXX # ooo  . o #..+O.oo.. X#.@oo XX..XX%. %+.o.#X.XX oo ++",
" o .X  XX#+oo  . o .  .. X oX..oo@$:.  X.  .X.oo-+.o ..X.  ooXOX",
"  .XX oo.;Oo ...ooX+.o.X .oo.X.o@#*$%. ..oo... o@XX. ..X.o o OXX",
" o O#oo.O+ o.XX o X  o   O#..Xo@#+*X$. .X oOO.oo.@ o o.X.  o.#XX",
" ooX ooXXooXX o    o ooo.XXXX.@%=+*X.  . o +O  .X#.oo .Xo. o....",
".X.XX. oo++oo ..oo.X oo     ..$%+*X.@o.. o +Xo @XX.oo #Xo   ..XX",
" oo  .XXoo.X..X..ooXoo ..  .oo$.%O.& $#X$ o X#X. oo  .XXoo.X..X.",
"... oo.   XXX# o o.oo       ooo .X&oXX$XO$   .X.... oo.   XXX# o",
"X#. oo XX..XXXX XX. X.oXX # oooo .oo@#$.+O.oo.. X#. oo XX..XXXX ",
"ooOX   X.  .X.oo o .X  XX#+oo  . o . @.$$X$oX..oooOX   X.  .X.oo",
" #X X. ..oo... o  .XX oo.;Oo ...ooX+.@$X..oo.X.o #X X. ..oo... o",
"#+X .. .X oOO.oo o O#oo.O+ o.XX o X  o$:@O#..Xoo#+X .. .X oOO.oo",
"=+     . o +O    ooX ooXXooXX o    o o@@.XXXX.oo=+     . o +O   ",
"+ o oo..oo +Xo  .X.XX. oo++oo ..oo.X oo     ..o + o oo..oo +Xo  "
};
