/* XPM */
static char *BIGDOOR7[] = {
/* columns rows colors chars-per-pixel */
"128 128 74 1 ",
"  c #272727",
". c #3F2F17",
"X c #2B230F",
"o c #43331B",
"O c #533F2F",
"+ c #5B472B",
"@ c #4B371B",
"# c #332B13",
"$ c #533F1F",
"% c #5F4323",
"& c #6F5743",
"* c #1F170B",
"= c #170F07",
"- c #6B4727",
"; c #5F4B37",
": c #67533F",
"> c #774F2B",
", c #373737",
"< c #675333",
"1 c #875733",
"2 c #2F2F2F",
"3 c #232323",
"4 c #1B1B1B",
"5 c black",
"6 c #775F4B",
"7 c #8F5F37",
"8 c #A36B3F",
"9 c #BF7B4B",
"0 c #775F3F",
"q c #9B633B",
"w c #7F532F",
"e c #7B634F",
"r c #E79B6B",
"t c #13230B",
"y c #B37347",
"u c gray23",
"i c #373F27",
"p c #131313",
"a c #D78B5B",
"s c #F7AB7B",
"d c #DF9363",
"f c #070707",
"g c #0B0B0B",
"h c #836B57",
"j c #AB6F43",
"k c #836B4B",
"l c #CB7F4F",
"z c #CF8353",
"x c gray28",
"c c #4F3B23",
"v c #EFA373",
"b c #FFBF9B",
"n c #574333",
"m c #FFBB93",
"M c #FFCFB3",
"N c #FFB383",
"B c #8B735B",
"V c gray31",
"C c #9B7F6B",
"Z c #434343",
"A c #4B4B4B",
"S c #FFC7A7",
"D c #3F472B",
"F c #0B1707",
"G c #937B63",
"H c #FFD3BB",
"J c #FFE3D3",
"K c #AF977F",
"L c #B79F87",
"P c gray39",
"I c #5B5B5B",
"U c #8F7753",
"Y c gray34",
"T c #5B6347",
/* pixels */
" # 5=4 X #.5=4 ##.#5=4o#X##5=4 2# X5=4   #X5=4  X  5=4#  # 5=4 ##o#5=4# #2 5=4o####5=4## # 5=4## # 5=4 X #.5=4 ##.#5=4o#X##5=4##",
" # 44X2X#.#44X   ##44X   ##44X2### 44X## X#44X#  #X44X ##  44X  o#X44X2 ##X44X    #44X2X # 44X2X # 44X2X#.#44X   ##44X   ##44X2X",
" #  32 X##. .  .   t# oo     # ###X#t# X X2##   #X#X#X#o# X# X X###X## 2 2#34 oo  #tX  X #  X  X #  32 X##. .  .   t# oo    X  X",
"#X # #  #   .# .# # # 2 ###  X ## X oX# #  ###X ## 3X# tX 2 t X ## tXt #XX #  2 # # ##  #X ###  #X # #  #   .# .# # # 2 ### ##  ",
"X  X###2#XXX#   # X2  2# 24#  22# # X2  ##X ## # 2#  XX X 2X # 2 #X##X4X#   #     #X X#2# # X 2#X  X###2#XXX#   # X2  2# 24##3  ",
" X  2 ####2## X2 ##   ##X2X32 # t2t 2#  Xo#X# 2# 2 .#### 23  o### #X2 ### X X  2#22 2###22 tX# # X  2 ####2## X2 ##   ##X2X3##  ",
"   ##   X  X3 3#3X### X#    2 #     #  X 3 XX##X## .   3#2  ##t  X#X ### #22 23 3  #.##  2 X##     ##   X  X3 3#3X### X#    #   ",
"**44XXXXXX*XXX*#XX44*444**XX4***4**4*4444444*p*44**X4*44**44F4*44XXXXXX*XXXX#XXX44**4**4X44X4*44**44XXXXXX*XXX*#XX44*444**XX *44",
"==pp********gpgg==g**====*=*gX**p*==*=****=******p*XfX*pp*p*==*=**=p*===gp=.f#*Xf**==*gp*==*=*=***p#pfggfggggfffggggg==p*p**==pp",
"**4*4XXXXXXifX4p4==X3*4*XXX.g.XX*X*XXX*X#XX#XXXXXX#ogiX**4*X**X*X#*4X*4**X*.=@##*#X*X**X.**3X2**#XX@=.*gg======g==*=*,X*X4*X4*44",
"XX3XX######i=3#*X*X.X#3X#.3c*o######X#X##.#.#....#.O*D3#X.3#XX###,33#3333X3n=%..#..X.#X.oX.##o##.2#%p#3*p*********X**iX #X3#3X33",
" #  o.o..o#Op*O*XoXoXo.X@+.;*O@O@OO.#ooOoo@$.@+@@@o0X:o.--78z87--O  , o ,3,n*&OOoo@#o..oO o#o; oOOO&g. *************4i o.# o##  ",
" #X o##o...OpXo *Xo.o o OO.:*;o,O+@#.o.%@oD$o.$@#@@0>q79drrvvvrrd97q>oo ,  O*&@$..+.X@.o@XO.@&.#@O.:=#*X*********XXXXi.#.# oX# X",
"X#  o..o.. O=oX X*#Xo..oOOX;X+ooO+#@@oo@..@$@oOO.O-ydsssrrrrsrrrrsssdy- oXon*6$<@oOoooOOOXi.@: oo$oeg#*X******X=X=XX4i  o  oX#  ",
"    o..@.2#OgoXo*XoXoo.OO+#;XOXO+ o@@@#XooOOOo@@.q9rsmmsrvsmSmsddsmmsr9qooonX&@+%@+ooooO+ O.o+@@@OO6g#* *********=*X*i# o# .X#  ",
"X  ,43.@.o#O=#XO*XXX@ oo@O.:X;XoOXO$@$ooo@o+O@O$-qlldaddlrmSMSmdlddadllq-$onX&oOOOO@o@o%%#Ooo+@$$@@0=#* ****p*******4iX2o #,43  ",
"   5=4o@...O=oX, oXXOooo@O.;X+.., oo++O;o%@OOq%.=5%98yyyldsmmmsdlyy88%%5=.%q*6;OooOooo$$<.O@o+O$%$@6g#=XX*********p*4iX .X 5=4# ",
"   44Xo@.o.O= Xooo.X$#%OO,#;X:O..o.o<+;Oo##@%8#q=%-qaasaqadrsrdaqjdsaq-%=q#8%@##@.>@+oo:;#+o.:+@+O@6=.=XX*3**3*******iX#. X44X2 ",
" XX #.oo.o.O=# oo.o.+@@@O$ AX:oooooX<&..ow-..s8=---55@>qy9ljljl9yq>@55---=8s..-wo..oOoO&<oO,.+%@$$o:=#** * *******X**iX2.#X#3#  ",
" XtXo.o..o#OgoX.OX, OOXo$OX:X:@oooO#$##o%8.*%>l%-l@55555.d1@1@1d.55555@l-%l>%*.8%o##+oO;+OOoX<%@@@@&=#=*o*X*********4iXo. #X # X",
" XXto##oo..OgoX.O O O;XO@%X;X&@@OoOoff#@.-*%>f#@Xs$55555.y%=%=%y.55555$sX@#f>%*-.@#ff@@+;,OOX&+@o+o6=.=* * **** ***XXiX#.XX# #  ",
"X X#o..ooo O=X.2O ..O@oOOOoAX&+OOOOOff**=.=55=@ff%>@55@7rsl181lsr7@55@>%ff@=55=.=**ff+o++o+Oo:+OoO@h=.** * ****X* ***iX oX 22#X#",
"XXXto...o2#Op o $o.ooOOO.&.+X&O+O@+@ff=55=@.=X5Xff$#==%8lsldldlsl8%==#$ffX5X=.@=55=ff:@++OO@@&OOOOOe=#*Xo*#*X***X****OX o33 2 #X",
"XXX,43..@o#O* ooOoXoXOoOo+++#&@+O@++==555***55Xf*=*===X>7ssrarsry>X======fX55***555==+.;+@+#%0O+++O6g.* X**********#4iX2o  ,43XX",
"XXX5=4...#.O*oooo. o.$ooo6O;X:@+@@+@=ff==*XX=5f*XXX=XX.$7ry-s-ys7$.XX=***=f5=XX*==ff=%@+O+;o@0@%%OO6=#* X**X******#o4i# . 35=4#X",
"XXX44X.@.  i*. o#oXoXOo@@&@;X<@O+o+,****=****==*...*==.$>a%.w.%a>$.==*oXX*=pf**=***=*+.+%OO@@e@%+;O6=.Xo*3*X*=*X*X$$*io#.2#44XX.",
" X#Xo ...#.Opo.,,@ , O@o@>+;X&O+@o+@XX#X*XXXX**.@+oXg==&@qX5@5Xq@&===Xo.#X**g#XXX*X*#O.+-+OOo0O@@-@6g. .******X *XDO*i#2.    #XX",
"    o#..  oi*O.O.O oXOoo@+@;X&@+@@++$.c.#.#$#XX+@$ooX==@e-@7@7@-e@==X.oo.cX#=O..oX##OOX+++OO@0+@O-.&=.  *******,* OO4i o.2# ##XX",
"  X 2...# #i*oXoXO...OooOOO;X&@@@@OO%%1%@+O:@o@$%@o.X==4-h@L@L@h-4==X.oO.cc;X6-:&Oo:@-X:++O@o&+.@:o&=.  ****** O .@O*i##.# #X#X ",
"X # 2..##.#Op  o.OXo@@o+@++;X;.+@@@OOO1++%%+$@$$$O..X==54G5e5e5G45==X=.Oocc;*&-+++O+O:#1++oo@+$o@:@&=.X *3****o$ oXO*i 2# # XX#X",
"X    o.. # O*oXoo. oOOo;O++;X:oOOoOOo+1+>$+OO%+@$@.%787%5&55555&5%888%.Ooncx*&:::+@>-1*&++O+@;;OO>@6=.  * X**X.%.oo.4uX2  #XX#XX",
"X  ,43.  ##O*ooo@X.,@Oo;@+@;X:o+O@O+@+&->%<+OOO$+#-8asa8-555555X-8rmr8-#Ono;X:;::>@++:.&--OOO:-@@OO:=.X * *X*Xo$oooo*i# X##,43 X",
"XX 5=4#####u*, .+..,.OOO@+@;X&#;Oo+@@O&:-++++@+%$#9ssass9X55555X9smMms9#$n.;X&:>--@++-O;&-O+O@+%$+$&=. #***X**o,, oO*io  X#5=4##",
" X 44X  2#tu*o.2;..oo<oO@:@;X:O+@@+@++:&+&+:O@@$.#-@-9-555%888%55*-9-@-#.$.;*6+&+%@<O;o&>+@+-@-+O:+6=#Xo*X****,OoXoO*u2 #t#44XX ",
" #2 #2#.#  i*...@o#O#+@O@++;X;O+@@Oo&@+-1k+>@O888q--y%y-5%8rmr8>5-y%y--q887;*6;;&+o;;&@---%--@w-%>@6=. o*X***X.O #$o4u## ##   XX",
"# 2 .22.2 #u* .oo.ooo+@+%-@;X;O:@O+@+%+&&e+<Oasa88--$=$>-9smMms9->$=$--88rmr*6-w++@;;6.&;+++:O&+%++&=.*oXX***XoO.o@o*u #   ## .#",
" 2##  2 2  i*ooOooooo@OO@+$+X&O;O@OO;;O1k1e&jsass9q-:.:$8-5$9$5-8X:.:-q9zmMm>6:&$>&+&;O;&:O<+@--@:O6=.*# 3**** O,,O.4i  2##X# 2 ",
"#  # #  #2 i*@.O@#@oO;OO$<@AX:@++OOO&;:111k1%@9-@.9-55XX>.$y=y$=%.55>-9.*-9@%&::&&+O&O+$0$$+<@&-@--&p.*, 3****XOo$+o*u#  tX # X#",
"  ##.2 ##  ipo.@O.oOo+%@@+$:X;O++OOO&+%0&eh:%y%y-$$>rmr8X->$=$>-$rmr8>9@-y%y%&+-+>$+&@+O&OO++%-++>+6=o*D#**X***OoO:o*uX#o  # 2 #",
" X ,43,2##2i*ooO+XoOO:O;O;O:X&+++%%$&--+&ek&>$=$>->amMmaj5$7.7$5jmMms9XXX$=$>&>+:6++;++O;;O+<@%<$>+0=o*O*X*X*XX$oOOO*iXX3 X,43 #",
"##.5=4X X##i*ooOO.@@@:+O@OO:X&%+++$$+%>$0016*:.:$X..-9-..X5:6:5X@-9-@-XX$7.7g6:->0++-++%+O+%-@+>+>+0=.*,XXXX=X.Oo+$+*iXtX##5=4##",
" # 44X 22 #i*oo@@X@.O;:+O+o<X<++$+<@%%-+ke0&-8aj7$X.y%y$%oX====X-y%y-X%>ass9#6&&;-w>++&@>+-%-@$<O++k=.*o*  **X o,OO:*i  o #44X#X",
"#2 X   2###i*Xo%OX,o.&;O+&o&X&+-O+++@+++$www9ssaj%%X$=$>-@%888%.>$=$8.=@9-=.##w>7---O:&o&++O+O++<+;6=.Xo*  3** oDOO;*uX#    X# .",
",#  X 2   #i* oO;Xo@OO++O&.:X<%-@w%%@++7w@XX.*%9**.X:.:$@-8rmr8-.7.7>=@y=y#=4#XX>7$++O6O&x+O++%%>-%6=#Xo* XX**#o,xO&4i  # Xo #3 ",
" X  X   .  i*ooO:.OO@;+++xo:X&++@>+&O+7w%XX5X%y=y..%55=#%9smMms9.:6;.Xo$=#54455X.>7Ox;eO;;O+@+%%&+O6=. o*   **oo$.%-4u  X#X  X  ",
"XX# ## 2.X i*Xoo+ ,oo&@+@O@+#&@+%+%++7w...555>:=:>---$5*8.5$9$55.*5$--$7.55455XXX@>7;;6OO:OO@+++1;O&4.. XXXX*  ,;O;;*i #X XX3#  ",
"  X    ##X#iXXoOO.O.@>OO+O+;#&O+@+@+7w@X5915#-wjdsdyqyv.>.$-=-$...vyq9dsdjw#4#19XX%>7>1@%&oO@%++1+%6*...*.  *, x+.O;*i#2#X#X 2#X",
" ##,43  ###i*oo.;.ooO&+@O@@:X&:O@+@:7>.XX1d9yqavbNryvJy$.->$=$>-.$yM99rNbba879v155@-7>1+@&OOOO+O1++6=. oX   *oO;OOO+*iX## X,43# ",
" # 5=4#   ti4...+o..+&+.O;O:X&-+%+%>7-#X5#9MadbJHbrzMv>8$.$:.:$X$8>vM9rbHJbzaM955X.$7&6+%+++O+@+1O:6=. .*  *Xo$oO,oo4i.X   5=4  ",
"X# 44X   X#iX#,X&o.@@0+@+&@&#;++++->1-X555@azvSHbNray>%-7$55555$7>%19rrNSHbvza@55XX$1&6:%-+O;O.&:+&&=.  *  XX@+oOoo *u # X 44X X",
"X   #X  ###iXo.o+ oOO0$@%1+;X&%%%%%->$X555#1yvNbNsrazj1%>>#555#>-%1jzarsNSNvq$555XX@>&0&@&+@-+.+6O-0=.  X  * O$XO ,,*u#  X# ##  ",
"## # X2 #.#iXooo,.,.O&@+oO+;X&$+++@+>$XX55-qarrNsraz9jq>-wo*5*ow%>qj9zarsNrraq#55X.$>&&>@++@1;O6:O164., *   .+$XoXoo4u# X 2X  X ",
"##X X#2#. #i*oo,Oo+X@>OO$OO:X:++++@+$..XX51zzarrazdsbdq11>@*5*@>>>qdbsdarrazzy%5XX..-1->o&+%&:+<&%w6=##.X  *oO@., oo4u ##X#o#t3X",
"## ##  # ##u*, OO.O.@+%@++O;#:@+@:O;*.$XX.zsbzjqydj-$7aq>-@*5*@->qy7$-jdyqjdbsj.X.$.*>->+-++O+-+>%w0=..,   *,.oXoXoo4, ### #### ",
"#X  #X #  .u*ooox.O@o;+%%%@;#;@OO-O+X=*.$.8%.==--===X.%y-%@*5*@%-y%.X===--==.%8.$$#*X<O&@-+$+$---@0:=.o    *ooo . oOXuXo2##  # X",
"  X,43## #.upo.OOoo.O&;O@-o;X&+OO%@$$*X*#$8XX5#ww%==5=X7%@X*5*X@%7X=5==%ww#=XX8$#*XX$-%>@+<oO++-++&&=.oX*XX , o  2,O4u .#X#,43  ",
" # 5=4 X #.u*,ooOoo+.1++@O.:X&+O%%.<@$.*X*>%==-##ywX==#>@X*...5X@>#==Xwy##-==%>*XXo$+:%:+>+.OO++:+;64ooXXX* , @X..ooXi #t o5=4##",
" # 44X2X#.#u*O.@@oO+oe-%@+o<X&++@+$+@++XoX%>y97==7q9j7>@5%8ldl8%5@>7j9q7==79y>%Xoww>@w%1+;&.;@-----&p.,X*XX*$#oXo.o@XO X X#44X2X",
" #  32 X##.u*@@OO.@+O;&@O;O:X:OO@O++++>@$o*.->$==$.>q-X=%8dsssd8%XX->>.$==$>-.=o>w>1--@+&+&@++--::;6=.o *XX*O  oooXO*, .2  XX  X",
"#X # #  #  u*@OOO@O;O&:O+&O;X;:Oo$+$%$+Oo>X*..%ww%%$@@5%q9rsssr9q%5@@$%%ww%..*X+>>&1->%$1+&+O&+&1+:e=ooXXXXXoXo oo.@4i#  2 ###  ",
"X2 X33  X##u*o,OO@o:.eO@++$<X;>@O@+++OO@@O++*$7--7w$X5@q89arrra98q@5$$w7--7$=#$%>><&+1-++01+O&+&+::B=.oX X* OX.Xo .o4i#  ## # X#",
"2##t X  X# u*oO,Ooo$@6O@+&o6X;6+O+@++O+-@+O++$h%%h7$#=%q999zzl999q%=#$7h%%h$*O$1&&+&><+++&&+%>+@%>-e=.,*  *oO    ..@*i# #X2 2#X ",
" 2  2   X# u*@OoOoo@@k+o:+o6X;&OO@+O+O+@++OO+XX.7@>55#9ssdz878zdss9#55#@.-..#eO+1k+;+&><<&-++:+@->+6=.o*X *#+  .Xo O4i X  2 2 #o",
"XX ,43  X# u*,O#+@@+OeO@O+o6X<+O+@+;OO+@+@+@+.@h;%C%5$7$.8rz7zr8.$7$5%C%Ch@:Xh@+1k+::&>%>%++%->@:;OB=.#*X *#OX.XXoo@Fu #2##,43X.",
",t 5=4  X# up o@+.@+,&@+;++&X&@O+OO+O@+@+@@@>@*=#%h%#%.====-9-====.%.%h%#=*@#e@+<>%>-&&+>@+-%>+O&;+B=, *Xo*oo  o##@o4u2 ##25=4#X",
"#t#44X2 X# u*. oOooO,;@@++@:X:o+:+@+OO:O+O@@+*X$>$**.XX=X=#w=w#=X=XX.=*$>$X*#6O&&1-::6&++@%++&@O&:Okgo *X.*oo..  oo.4iX#2o#44XX ",
" X X #  X  ip...+oOoo&+O++@:X;@-++oOO@+@OOOo@X#8K7#X>%===wy#=#yw===%>*#7K8#XX0O;ew6:::1-+++;;++@&+@k=oX*XX*,.,.  .O *O #oX o #XX",
"X#X #   ## ip oXOoOo.>-+O&o:#:O-+%$o,@+$@o@@O. 1C7##%>qj9q7===7q9jq>%X#7C1 .X0@+e:1++-1--+<+O:+o&++B=, * **, 2. ,.O.*i## # #### ",
"#2#  #XX##Xu*XooOo+@@-1+@+$:#:++:@+OO@O$OoOO++.-77%#5*##@.$===$.@##2Xo%77-.;X6@+7-++&++-+@+++%%.>>@k=c**X*XOX. .oXoX*u #o## #  X",
" #XX##  X##i*.o@@.OOO&O:O:O:X:@-+$$@@+++O@+@++@o---#=*2=#@%w9w%@#g23X#---o@:X6@-k&>+-O:nOO++@-+@&+@k=,*XX* ,*ooXo o *i  ot ##XX#",
"#  #X # 2# u*.oo+o$,,:+&@+OAX&O:;OO++@@@OO+@+%+@o##5**u=$w7-.-7w$*Z,X5##o@+&Xk$+k:><>$&+;@++@+;O+>@h=,*  * . XoXo#  *i 2 o    t ",
" #3,43X ## u*o@oOo,Oo&++O+O&X&:%-+@+&@+O+o++++<<oooo# ,=$7h%j%h7$*VuXoooo,+&X6++6:&<<@--&@-+O+OO@++h*,* X*oXXX...Xo 4i#### ,43#2",
"# X5=4   # O*,o.oo.O@&+;O:@&X&-O:+@+:@++@OO$$;&;G1%6# Z3.%X-CXC%.*PuXO++oo+&X6+:&&&&&O:+-+++$&+OO+@6X.*  X X.Xo  Xo *i2#o##5=4##",
"#X#44X#  . u*O. ooXO+::OOeO:#&+@:;;%--+@@O@@$++>0e+0.2, 3**###***3I,X+++@o+&Xk+-0&+>&+6:+-%>%++O.<+&X.XXXX#Xo..o  , 4i###X 44XXX",
" X2X#o XX Xu*..ooO.++&1OOOO:#&>++&+O+O;Oo+@@>%+>>U%&# 2  23*=****3V2XOOO$@;&Xe@+6&->&+0<++++iO%%.>%&X.XX *#  XXoXXoXXio ##   ###",
" #2 #X332#XO*O@X@+.O+&:+OO:AX:>+<&@+$<O@Oo@@++%1:C+&.   3Z3**XXX*3Z2XOO+O+&:Xh@1&1+&&+<>&+>+O>++@&+0X.XXXXoX  X@X=O.*u#XXX#X#XXt",
"# 3#X    X i*Oo#OOoO$:&;+;:;X;1;;:OO+&+$$O+X+>%-1e$0#4433Z4XX..XX3,3XOO+OO+&#kO&1&+&&+<>>>+--+&OO-+64, *X*oX.  oXooo4u## 2    2#",
"  #X#2X2X2#i*#@XOOo@OO:O++O;X:&&+1+o1-;+++$@-1+%1e$&X=343u4$@+$.X423X;O+@%>:Xk%<01%&+&>0O&O&+%>%%++04, XX*o .oXXoo o4i## #  # o ",
"  XX3 #3X Xup o O@X@;x:O++O:#;>>%>+o-++O+@O@++:+&&+&X=4=324@@&+.#423Xx,+@%>&Xk><&1+&O&1&$0$&@++@@O+6XoXXX*oXo .Xo#o 4uX## t  #  ",
"2  ,43# # #u*,XOoOXO++6O$$+;#:&<$1%.-%-@;OOo++O+&1%<X*X=3#44@+-c.4 3X;,Y@$>:Xk+1&0>&;h61@e@:OO+++@>&4. X*XXX## o.*.oFu# ## ,43##",
"2# 5=4#XX#2u*oO.X..+OO&+%:;;#;11+1+%OO+O+O@+O+>%1y+:X#X=3#*@$+&$.4 4X@O<$@%:Xh+&00&&;e&&-+@;+@<$$$<04. **.XXo  .o##$*u####t5=4# ",
" XX44X2 # #i*.o OXoOO$%+$&O:X&&1-&+;O@@@+OOOOO>@1j%0###=3#*O+O&+.*34X@+@$@$&*h+-1k&1<0%1>+++-O:OO%%6=. X*o*Xo  ##oo#*i# 2 #44X X",
"####. 2 #2 ip,o OX.OOOO+++@;X:&&++O+O@;,xO+@O;&+&e+&X##*3#*+OO1+c*34XO++%@@&Xk+10&:0<>@+0++O&o&O@+&6=.*3*#X#X  #  o#*i ###o  32 ",
"3   . ##X##i*.O.OXXo$OO&O<o:X:&>+@O++%@@O@@@@+-+G6:&X##*3#*+OO:+c**4#+%+@OO&Xe-&&0<&++++&+-%-.&%+O:h=.**  XX.Xo oOoo*iX  t##  2#",
"X# ####X# 2up.O..oXo$:O&@+@&X:&&+<$%@%@@$$ooO-++k;+:X##*3X*O+->+.*X4.O@+OO.&*h-:1->&+;O&&O:+@O;O;O:e*.**#XX   .Xoooo*i##t ## 32 ",
"X#  .#X## 2i*..X#& O+O@O$.o:*&+&%&<$++@@@OOO@&&@G1+&X##.3X*o%%+O.*#*.o,O;O.&*6+>0>&&O:o:&OVOO@O+O@+6=.**oX. XXX#o.,o*i   2   #2 ",
"X# #.###t#Xu*XoXooo.+.+OOo.<X;@1+++O:O+@@@Oo@+1@0>+&Xo..3X*@OOOO.#.*OoOO+Oo&*k$-1&::+:o<++@++O@O+O@ep2* .XXXXXXXoXoo4i o#X #  2 ",
"X# ,43##X  u*o. o O ; ;oOo@&X;@&O;+O;O@@+O,xO>>%k>&<XOc.X..+O+@<c@O.oOO++$o&*6$<>0&>+&O::+O+OOO&OOO6=.  XX.*** Xooo,*it # #,43  ",
" # 5=4 X #.u*0 u ,.O;O;;OO@&X;@0O+;O;O@OO$#OO:&$k<<0#&O@X.$+@;O:+O+cO+O@%@O&*e@&&>&-:>@1+O-%++o&O+@6=.,XXoX *     ooXi #t o5=4##",
" # 44X2X#.#u*Oo ...O@%@1OO+&X:@e+->O&O@@@Oo@;+>%0<<0X:;+.OOOOoO6;++O@++OOOO&*ho-1>++::+:+O-%+Oo:O+@0=O * .XX**XX 3#oXO X X#44X2X",
" #  32 X##.u*OO@..O@@@oe++<<X<@k++<<<+@@@<$$+-->ww>0X:;+cOO@.o+:;+;O+@++O@$:Xko%-1+%>>+&&O&+O0X&O;@64Z**o XX 3    o#*, .2  XX  X",
"#X # #  #  u*o@+oX@@.@@0@%%0#&Ok<<O&;+O@O&+o++@1+e>&X;++OO$.@$O++OO@$.O:oO;;XB@O;&+<+<%>><<$O+@+@+@64oX  X*  *    ,.4i#  2 ###  ",
"X2 X33  X##uX@o:ooo+o$++++O6X6@7-+O-O:OO;++.&$@k@BO&X;+@O+OOOOO$O@@o@@O;oOO&Xh@&;6;++>+:&>+@+O@O@%@04.X#XX*X *   X  4i#  ## # X#",
"2##t X  X# u*+o+@ooOoO@O;@@&X6$<++@>O+OoO@+%:O@<$><6X;;O+++OnOOO+o@@.oo+$O@&Xho+-0>&-&+-+<Oo:o@@-@O:=.XXX*  ...     *i# #X2 2#X ",
" 2  2   X# u*Ooo$.oOoX$o+%$<X&O&O++&+++@@+O@+OO@&%16X;OOOOOOoO@O<#@OOooOo;O;XB@$%11:::&+++OOOo$o<@@:=,X ** X o.o* *.4i X  2 2 #o",
"XX ,43  X# u=oOX<XooOX$XO:@:X&;;+++<@-@@+%%%+OO.&+;hX;OO+OOO.@@@<XOo+@@@@Oo;*B@+@6&+:&++++$+O@$o&O;:=oX **X*  #   * Fu #2##,43X.",
",t 5=4  X# u*o@ OO  OXo#O&o+X&++++<;O&@o+++@@o+.+&+hX&OO;,oo.+@o$ooo,;@oOOO;XB$OO0+;:<$$<+++OOO@:+O:=.* *    XXXX.X 4u2 ##25=4#X",
"#t#44X2 X# u**O@@<oXOo X<+@;X::+$$>+@&@$@&$+Oo+@+e@0X:@+OOO.OO+oO@oOOOO+O.OV*h+OO1++&+OO&;OOo+@O++@&=.XX* o#ooXXooXX4iX#2o#44XX ",
" X X #  X  ip OOo&oXo. OO+;;X<<+@+&+@-.$$+@+;O@++;O:*&o+@OOO.OO.$$ooo+@O+oOVX6++@<>O:+OO&+O;,;O@@+o0=. XXX@ #,3*# XX*O #oX o #XX",
"X#X #   ## i* .Oo:oXXo.O.;+;#;<$$$&Oo&@@++@+;O@+o++:X:o+@OOoooO.$@oo.$@$$.,&*6&:O+>+O>+@<+@&@;OO#&o&g.***ooXXO  o#Xo*i## # #### ",
"#2#  #XX##Xupo ooi:.XoX$Xo+;X:O+++>+.:OO++O:O:O;OO<<X:@$+$$OO@%X@oO.o.@oOo,V*6&++<+:%&+%-+$++%$+o:O:=.** o#XX,,O, .o*u #o## #  X",
" #XX##  X##i*O*#oX$o*##o O+<X:O+++&+@OOO++@+++.+@oO&X:O+%%+@+@@#@OO..@o, ,OVX&&+@++>-+-$@>@+OO++o:O&=.** X X #, O  o*i  ot ##XX#",
"#  #X # X# u*To ,oo@ oXoo++;X:+O+@<&oo@@++,;;+O@%@$6*&@$@%@$@Oo@oO.ooo,o..O;X&:O@++&+:++%1@$oO+Oo&;&=.** X X. o o.Xo*i 2 o    t ",
" #3,43X ## u*>$X#ooo .,o.+%:X<O$OO++.+@+++@++O&@+@+:X&o@$.$ioo@@Oo ...Oo.oox*6OO+O+;+O@+O;OO+@+Oo++&=.**o XXX ,..XO#4i#### ,43#2",
"# X5=4   # O*+< XoX+..o.,O+;X;@O@@+O.+$+@:O++++@&@+&*6@O+o+.@ooo@@#o# ,.o#onX6O++O&;O@@+OOOOOOOOOOO&=.*X X X*X#   Oo*i2#o##5=4##",
"#X#44X#  . u*$Oo o*x, @@+oO;X;++@$+OXOO$@&O++++@O@O6X&@@+oOO@o.oooo  ##oooXx*e@OOO;+;@+OoOOOOO@+.@O&=.* *#*X* X XX.o4i###X 44XXX",
" X2X#o XX Xu*oOO . ,O#O.O +:X;OOO;;OoO;@O<$%@+O.+@O6X:O.+X@@@. o@.oo...ooooV*e.%@O+$+.++oO+oOo+O..O&=,.X**XX*X  *XXoXio ##   ###",
" #X #X332#XO*ooOXo o+#@.O.x&X;Oo+;;xOoO@$>%$$O;,O@$&*&OOooo....O.#@#. oo .oV*h#$@+@$>.:+O+OoOo$@o.O6=o 3*33**4 **XXX*u#XXX#X#XXt",
"# 3#X    X i*#OOoo#oO.o O@O:X;@@@+OO@@+@O&++O++oOO@&*:OO@O.O.oOoXo+X  @.,o.x*6.$o%@>&o&+oO@OOo@OOo$&=o***X*****XXX X4u## 2    2#",
"  #X#2X2XX#i*oo+##o O #o@O;A*;@@@+@O+@@OO&+;@@O$@@@:*;@$Oo#.Oo$o oOXoX@o . n*6#+ooO&&o&O@@O@OooOO.O&=o****** *****X*4i## #  # o ",
"  XX3 #3X X,*.XOo , x oo .:;*;O@@+@O@+OOO<+:+@$+oOo;*+OOoo.,+@o.ooo*o#O.Xo#n*6oOo@+&<o+O.o;@oooO@X@0=.**=**  3 X**XX42X## t  #  ",
"3444XXX4X4X,4  OO*oXO oX#oO;X;oo@%@O;;OOO;++++@+@Oo;*O$@.@.oOO.. o,, OoX.o xp:+o@OO:;OO+O.Ooo@X$@#@&=.*****X*XX***XXF3X4XX44 4XX",
",i,,,iiiii,,4i,ii,2,io,iiii,i,,i,,,u2i2iiiiii,ii,ii,i,,,i,i,2,,iii,ii,,,iiiii,2iii,,2,iiii2iiii,,i,,,iiiii,,2i,ii,2,io,iiii,iii,",
" XX  #2 # ## X##  2X # #22  #42 #2  2X #   #XXX#2###X  X#2 X # #2#X X#     #   #X4X##X# 2 # X2 X XX  #2 # ## X##  2X # #22  X2 X",
"####. 2 #2 #X#oX  #2 t2t # 23X2X##   ## 2X ##2#### 2  X # #Xt 22###2 22#2  X X ### 2X# ###o  32 ####. 2 #2 #X#oX  #2 t2t # 2 32 ",
"3   . ##X##XX 3 X  #     # 2    #X ###X3#3 3X  X   ##     ##X 2  ##.#  3 32 22# ### X#X  t##  2#3   . ##X##XX 3 X  #     # 2  2#",
"X# ####X# 2 #   #X  #X  2  #o#  X# #X#XX   3X###o t#X3  X  XX#    ## o2#3   .#XX  oXXX##t ## 32 X# ####X# 2 #   #X  #X  2  # 32 ",
"X#  .#X## 2##X###2  X 2 o#  2#  X#  XX#XX ##3###o#  XX  X#  X# 2oX 3 #2 X#X XXX#X #X##   2   #2 X#  .#X## 2##X###2  X 2 o#   #2 ",
"X# #.###t#X  X ##X# X##2#X #X   X#  X# ###   ####X# 2   X#     o#X#3  2#X#  .X # #   X o#X #  2 X# #.###t#X  X ##X# X##2#X #  2 ",
"X# ,43##X  ,4322###,432 ###,43  X# ,43##XX ,432####,43  X# ,432 ###,43 oX# 243# XX 243t # #,43  X# u43##X  24322###,432 ###,43  ",
" # 5=4 X #.5=4 ##.#5=4o#X##5=4 2# X5=4   #X5=4  X  5=4#  # 5=4 ##o#5=4# #2 5=4o####5=4## # 5=4## # 5=4 X #.5=4 ##.#5=4o#X##5=4##",
" # 44X2X#.#44X   ##44X   ##44X2### 44X## X#44X#  #X44X ##  44X  o#X44X2 ##X44X    #44X2X # 44X2X # 44X2X#.#44X   ##44X   ##44X2X",
" #  32 X##. .  .   t# oo     # ###X#t# X X2##   #X#X#X#o# X# X X###X## 2 2#34 oo  #tX  X #  X  X #  32 X##. .  .   t# oo    X  X",
"#X # #  #   .# .# # # 2 ###  X ## X oX# #  ###X ## 3X# tX 2 t X ## tXt #XX #  2 # # ##  #X ###  #X # #  #   .# .# # # 2 ### ##  ",
"oooooooooooooooooooooooooooooooooooooooooooooooooooooooooooooooooooooooooooooooooooooooooooooooooooooooooooooooooooooooooooooooo",
"5555o5555555o5555555o5555555o5555555o5555555o5555555o5555555o5555555o5555555o5555555o5555555o5555555o5555555o5555555o5555555o555",
"5555o5555555o5555555o5555555o5555555o5555555o5555555o5555555o5555555o5555555o5555555o5555555o5555555o5555555o5555555o5555555o555",
"5555o5555555o5555555o5555555o5555555o5555555o5555555o5555555o5555555o5555555o5555555o5555555o5555555o5555555o5555555o5555555o555"
};
