/* XPM */
static char *BIGDOOR3[] = {
/* columns rows colors chars-per-pixel */
"128 128 53 1 ",
"  c #5B6347",
". c #6F7357",
"X c #7B7F63",
"o c #5F4323",
"O c #9F876F",
"+ c #6B4727",
"@ c #AF7B1F",
"# c #131313",
"$ c #533F1F",
"% c #774F2B",
"& c #4B371B",
"* c #937B63",
"= c #1B1B1B",
"- c #9B7F6B",
"; c #3F2F17",
": c #875733",
"> c #7F532F",
", c #2B230F",
"< c #5B0707",
"1 c #8F5F37",
"2 c #9B633B",
"3 c #831F1F",
"4 c #AB6F43",
"5 c #A36B3F",
"6 c #972F2F",
"7 c #771717",
"8 c #8B2323",
"9 c #BF7B4B",
"0 c #B37347",
"q c #9F8363",
"w c #CF8353",
"e c #8F2B2B",
"r c #6B0F0F",
"t c #D78B5B",
"y c #A33B3B",
"u c #CB7F4F",
"i c #F7AB7B",
"p c #0B0B0B",
"a c #FFBB93",
"s c #53573B",
"d c #474F33",
"f c #676B4F",
"g c #3F472B",
"h c #232B0F",
"j c #2F371F",
"k c #171F07",
"l c #373F27",
"z c #4F0000",
"x c #731313",
"c c #670B0B",
"v c #7F1B1B",
"b c #43331B",
"n c #430000",
/* pixels */
"gss  ssssffsff fff fff fff fff f ff   dff s f ffffffdffffffffffd s     s  ss s    df   ff  f  ff fffffsfffff   f fsffffssss  ssg",
"hss  ssssffsff fff fff fff fff f ff   dff s f ffffffdffdfffffffd s     s  ss s    df   ff  f sssgssfffsfffff   f fsffffssss  ssh",
"jss  ssssff fdndfdndfdndllndfdnd ff   dff s f fffffd fddfffffffd s     s  ss s    df   ff  f sffffsfffsfsvvvvvvvsfsffffssss  ssj",
"hds  ssssff fdsdfdsdfdssddddfdsd ff   dff s f ffffd  dsdfffffffd sssssss  ss s    df   ff ddddddffsfffszcxxxxxxxczsffffssss  sdh",
"hddssdddssdgddsdsdsdsdssddddsdsddsdgddssddddsdssssssddsdfffffffd       s  ss s    d sss  sdssssdffsfffsfscccccccsfsffffsdddssddh",
"hds  ssssff fdsdfdsdfdssddddfdsd ffffffff   f fffffffdsdfffffffddgdgdgdgdgdgdgdgdgdf   ff ddddddffsfffsfffff   f fsffffssss  sdh",
"h s  ssssff fdsdfdsdfdssddddfdsd sfsfsfsfs sfsfsfsfsfdsdfffffffffdfdfdfdfdsdfdfdfdff   ff fffsffffsfffsfsvvvvvvvsfsffffssss  s h",
"kdddddggsff fdsdfdsdfdssddddfdsd ffffffff   f fffffffdsdfffffffddgdgdgdgdgdgdgdgdgdddgdddddffsffffsfffszcxxxxxxxczsffffsggdddddk",
"kds  ssssff fdsdfdsdfdssddddfdsd ffffffff   f fffffffdsdfffffffdfsfsfsfsfsssfsfsfsff   ff dffsffffsfffsfscccccccsfsffffssss  sdk",
"jds  ssssssdsdsdsdsdsdssddddsdsddssssssssdddsdsdddddddzxxxxxxxxxzfffffffffsffsffffff   ff dffsffffsfffsfffff   f fsffffssss  sdj",
"jdsdddsssff fdsdfdsdfdssddddfdsd fffffdff  ds dssssssszxxxxxxxxxzfdddfdddfdddsdddfddd ddd dffsffffsfffsfsvvvvvvvsfsffffsssdddsdj",
"jdsd dsssff fdsdfdsdfdssddddfdsd fffffdff dssdsssssssssdfffffffdffdfdfdfdfdfdsdfdfdfd dfd dffsffffsfffszcxxxxxxxczsffffsssd dsdj",
"jddd dddsff fdddfdddfdddllldfddd fffffdddd sddddddddddddfffffffddddfdddfdddfdddfdddfdddfdddffssssssfffsfscccccccsfsffffsddd dddj",
"j  d dsssff ffffffffffff   fffff fffff ss  sffffffffffffffffffffffdfdfdfdfdfdsdfdfdfd dfdfffffffffffffsfffff   f fsffffsssd d  j",
"hddjdjdddddlddddddddddddllldddddlddddddggdglgdddddddddddddddddddddjdjdjdjdjdjdjdjdjdjdjdjdddddddddddddddddddddddddddddddddjdjddh",
"kjjjjjjjjjjjjjjjjjjjjjjjjjjjjjjjjjjjjjjjjjjjjjjjjjjjjjjjjjjjjjjjjjjjjjjjjjjjjjjjjjjjjjjjjjjjjjjjjjjjjjjjjjjjjjjjjjjjjjjjjjjjjjjk",
"hbjjjjjlsdddssdsddsdsssdlglsssddsdsssdsgdldssssslgbdgdsd$sssds ssdddsdssdsss sldsssddsdddssssssslbssdsdssssdssdbdsdsss>sljggggbh",
"hbjjjjjlsdddssdsddsdsssdlglsssddsdsssdsgdldssssslg&dgdsd$sssds ssdddsdssdsss sldsssddsdddssssssslbssdsdssssdssdbdsdsss>sljggggbh",
"hbljjgld               sgss          s ssds     dsosds s%   s .             . ds   ss           go  f s .. s  sos     4 dlgdddbh",
"h$s dgld  sX        fs.sgss   s.  lhhhhhhhhhhhhhhhhhhhhhhhhhhhhhhhhhh  sdsss. ds  ghhhhhhhhhhl  dof s s >X.ddddbdd  sX0 dlgs d$h",
"h$ldlgld  dl         glsgss   gh lhhhhhhhhhhhhhhhhhhhhhhhhhhhhhhhhhhd  s   s. ds  ghhhhhhhhhls  so.f .f >&Xds  osd  dlq dlgldl$h",
"h$jjjgld   d         sssdss   dslllhhhhhhhhhggghhhhhhhhhhhhhhhhhhhlgs  s   s. ss  sghhhhhhhlss  so   f..f&>sls osd   d- dlgjjj$h",
"h$jjjgld   s      s. sssdsss. dllldglllllhllgsglllblllllbllllldllldgs  s   s. ss  ssgllllllsss  sosssg&;s. sslsosd   s- dlgljl$h",
"h$jjjgld   s      dl s sd sgl llllsdsssdgldsgsgsddodsgsdosssds ssdsgs  s   s. ss  ssdldsdsssss  sog s$&&;s.ssdl$sd   s- dlgddd$h",
"hbjgjgld          sd s sd sdslllld d s sdld d d ddod s s+   s    ssgs  s   s. ss  sssls s ssss  sosls$g&;;sf ds&sd    - dlggggbh",
"hbjgjgld  sf   sX sd s s:5sdllllld d s sdgs d d  s+s s s1     f  ssgs  s   s. ss  sssls s ssss  sosll$s>&;&& dsodd  sf- dlggggbh",
"hblgjgld  dl   dl sd s so,slllllsd s   sdgs s s  s+s s s1     f  ssgs  s   s. ss  sssls s ssss  sosslbso%+&;gs osd  dl- dlgdddbh",
"h$s dgld   s   sg sd s s+ollgdlgss s    dgs s s  s+s   s1     f  ssgs  s   s. ss  sssls s ssss  sosslbl$o1%&g fos    s- dlgs d$h",
"h$ldlgld   s   sg sd  .s+blgsddg s s so dgs s s  s+s    5     f  ssgs  s   s. ss  sssls s ssss  sossdbl;&+ogds os    s- dlgldl$h",
"h$jjjgld       sg  d gls&bgdsssd s s s%dsgs s s  s+s    ussdgds  ssgs  s   s. ss  sssls s ssss  sossdbl,;o$s f os     - dlgjjj$h",
"h$ljlgldf s    sd  s ssdbbdd ssd s s ssdsds s s  s%s    -s    s  ssds  s   s.  s  sssls s sss . sossdll,;;$l+  os   s - dlgljl$h",
"h$gglgldfss.   sd s. sllbbsd ssd s s  sss s s s  s%s    -s s  s  ssds  s   s.  s  sssg  s sss f sossddl,;;,gls os   s.- dlgddd$h",
"h$gglgld sdl   ss gh ll&blss ssd s s    sss s s  s%s    -s    s  ssds  s   s.  s  sssg  s ssss  sossdsl,;,,d s os   dl. dlgddd$h",
"h$gglgld s d    s dgsll&blss sss s s s  sds s s   %s    -s s  s  ssds  s   s.  s  sssg  s s ss  sossdsd;;,,lds os    d. dlgddd$h",
"h$s dgld s     s. gllllblds  sss s s s ssds s s   %s    .s    s  ssds  s   s.  s  sssg  s sss .fsossdsd$;,,&l& os     . dlgs d$h",
"h$ldlgld s     b, lllll&lds  s ..f f.f.   f.f s   %s    .s s  s  ssds  s   sf  s  sssg  s ss $+fsossds o$b,bl&los     . dlgldl$h",
"h$jjjgld s     +sdllll&lld   s         dsds   s   >s    .s    s  ssds  s   sf  s  sssg    ssgbs sossds +o&,b&blbs     . dlgjjj$h",
"h$ljlgld ss.   odllll&lldd   ssgld dlllllhlld s   >s    .s s  s  ssds  s   sf  s  sssg    s &&  sossds %+&$;&blbl   s.f dlgljl$h",
"h$gdlgld sdl   bllll&dlldd   sss s s s ssds s s   >s    fs    s  ssds  s   sf  s  sssg   .sgb&  sossds %+&$l;blbds  dlf dlgddd$h",
"h$gdlgld s d   dlllldsggdd   s ..f f.f.ffff.f s   >s    fssssss  ssds  s   sf  s  sssg  f s&g&. sossds %+&+dgb&bls   df dlgddd$h",
"h$gdlgld s s   dllldssdgdd   s         dsss   s   >s    f        ssds  s   sf  s  sssg    sgsg+ sossds %+$+dsgbbls   sf dlgddd$h",
"h$s dgld s s   ddlld sdgdd   ssgld dlllllllld s   >s    f        ssds  s   sf  s  sssd    ssss  sossds %+o+d sgbss   sf dlgs d$h",
"h$ldlgld sss   ddggs ssgdd   sss s s s ss   s sdsdsdsdsdsdsdsdsdsdgds  s   sf  s  sssd    ss s . ossds %>+%d  slss  ssf dlgldl$h",
"h$jjjgld ss.   dsdgs ssddd   sss s s s s    s dldldldldldldldllll,lds  s   s   s  sssd    ssgss+ ossdsf%+%%d  slss  s.f dlgjjj$h",
"h$ljlgld sdl   sssds ssddd   sss s s s s ...   sss&dsdsdsdsdslldbbdds  s   s    . sssd    ss&ssssossd .:+o+d  slss  dl  dlgljl$h",
"h$gdlgld  sd   sssds s ddd   sss s s .*.  .XX.X   &dsssssss slls&&dds  s   s  f   sssd    ssgs  sossd f2:$+d  slss  sd  dlgddd$h",
"h$gdlgld  ss   ss ss s ddd   sss s s s s s .***. s+s       f glso&dds  s   s   s  sssd    ssd   sossds ++$+d  sgss  ss  dlgddd$h",
"h$gdlgld   s   ss ss s ddd   sss s s s s sssssssss+s       f dlso&dds  s   s      sssd    ssss  sossds oo$%d  sgss   s  dlgddd$h",
"h$s dgld   s   ss  ....fdd   ssf s s.s s.ss     ss> . ..   f dgso&dds  s   s      sssd    ss s  sossds %+l:d  sdss   s  dlgs d$h",
"hlldlgld  sf   ss s X**Xfd   sfXffXfXf fXfs     sf5fXfX s  f sgso&dds  s   s  f   sssd    ssds  s+ssds %+l2 f sdss  sf  dlgldllh",
"hljjjgld  dl   ss sd *OO*f   fOO..O.OOO**Xs     sXuf.. ss  f sgso&dds  s   s      sssd    ssds  s+ssds >+l:sossdss  dl  dlgjjjlh",
"hlljlgld  ss   ss sds           s  s      s d d ssodsdsss  f sgso&dds  s   s      sssd    ssds  s+ssds >+l+ss sdss  ss  dlgljllh",
"hlgdlgld  ss   ss sdss    s     s  s      s     ssodsdsss  f sgso&dds  s   s      sssd    ssds  s+ssds >+g% fsosss  ss  dlgdddlh",
"hlgdlgld  s    ss sdss          s         s x x ssodsdsss  f sgso&dds  s   s      sssd    ssds  s+ssds >+g:f2ogsss  s   dlgdddlh",
"hlgdlgld  s    ss sdss          s         glclclgs+d dsss  f sdso&dds  s   s      sssd    ssds  s+ssds :+g: oodsss  s   dlgdddlh",
"hls dgld  s.   ss sdss    s     s           c c  s+dsdsss  f  dso&dds  s   s      sssd    ssds  s+ssds :+dosssssss  s.  dlgs dlh",
"hlldlgld  dl   ss sdss         l=kkkkl      c c  s+d dsss  f  dso&dds  s   s      sssd    ssds  s+ssds :+d$s  ssss  dl  dlgldllh",
"hljjjgld       ss sdss         d====hd      z z  sdd dsss  f  dso&dds  s   s      sssd    ssds  s+ssds :+s+s  ssss      dlgjjjlh",
"hlljlgld       s .XXf        y szzzlls      s s  sdd dsss  f  dso&dds  sssss      sssd    ssds  s+ssds :+s+ss ssss      dlgljllh",
"hlgdlgld        .XX****X.    d snnclls   lhhhhhhhldd dsss  f  dso&dds             sssd    ssds  s+ssds :+s+ss ssss      dlgdddlh",
"hlggjgld        ss s    s    s shlclls   slhhhhhlgds dsss  f  dso&dds   fffffff   ssss    ssds  s+ssss :+s+ss ssds      dlgggglh",
"hlddlgld  s.    ss s    s    y sccclls   sdlhhhldgds dss ..... f2> ds  s       s  ss sss... ss  s+ss .f2: >ss ssds  s.  dlgdddlh",
"hls dgld  dl    ss      s    d snnclls   sdgdsssdgds ds .X**X.f.92. s  s s   s s  s . f **X. s  s+s .XX40.: fXfffs  dl  dlgs dlh",
"hlldlgld        ss      s    s shlclls   ssgs  sdgds ds.*OOOOX -w--.s  s  glg  s  s.*...OOO*.s  s+s.***ww.wf0*ff s      dlgldllh",
"hljjjgld        ss      s    y sccclls   ssgs  sdgd  ds       dsoos s  ddddsdddd  s  s       s  s+s   s%% 5      s      dlgjjjlh",
"hlljlgld       ghhhhhllds    d snnclls   ssgs  sdgd  ds    s  dsoos s   lds sdl   s  s       s  s+s   s%% 5      s      dlgljllh",
"hlddlgld       sghllss s     s sllclls   ssgs  sdgd  ds    s  dsoos s    bs  b    s  s       s  s+s   s%% 5     gs      dlgdddlh",
"hlggjgld  sf   ssdsdss s     s sllclls   ssgs  sdgd  dslhhhhhhhh,hhls    os  o    sghhhhhhhhgs  s+sghhh,,h,hhhhhgs  sf  dlgggglh",
"hlddlgld  dl   ssssdss s     s sllclls   ssgs  sdgd  dsdlhhhhhhh,hlds    os  o    sslhhhhhhlss  s+ssghh,,h,hhhhhds  dl  dlgdddlh",
"hls dgld       ss sdss s lhhhhhhllclls   ssgs  sdgs  dssgllhllhl&lgss    os  o    ssslhhhhlsss   +sssgh,,h,hhhhhss    s dlgs dlh",
"hlldlgld       ss sdss s skkkkkkllclls   ssds  sdgs  dssdssdssds&ddss    os  o    ssssssssssss   %ssssl;;l$lllllss    s dlgldllh",
"hljjjgld       ss sdss s szzzzzzccclls   ssds  sdgs  dsss  s  s >dsss    .f f.    ssss    ssss   %sssss$$d%dssssss    s dlgjjjlh",
"hlljlgld       ss  dss   snnnnnnnnnlls   ssds  sdgs  dss  f ff f: sss   s f.f s   ss  f fff ss   %ss f %+ 5sfffffs    s dlgljllh",
"hlddlgld  sf   s f. ss   sllllllllllls   ssds  sdgs  ss . . ff .2  ss   s     s   sfXfXfXXX.fs   %sf.. 1> w .fffOf  sfs dlgdddlh",
"hlddlgld  dl   sfX** s s szzzzzzccclls   ssds  sdgs  s XX.Xf.. f4 X s s dgddsss s fX*.*.***X.f   >f*OOf51fwfX.f.OX  dls dlgdddlh",
"hlddlgld       X.XOOX    snnnnnnnnclls   ssds  sdgs   ***.*...f99f.*     s s      XOO.O.OOOOOX   >XOO0090.i50.f.OX    s dlgdddlh",
"hls dgld        d        slllllllnclls   ssd   sdgs   .. s.ssds od      sdsdsss                  s    151d-d slsd .   s dlgs dlh",
"hlldlgld ff     d        fX.ff.Xf.XXXf   ssd   sdgs   f. s.ssds od      s     s                  s    %4:d-d slsd .   s dlgldllh",
"hljjjgld f f    d           ss  s        ssd   sdg    f. s.ssds od      s     s                  s    %4:d-s slsd .   s dlgjjjlh",
"hlljlgld fff    d           ss  s        ssd   sdg    f. s.ssds os      s    sssdsssssssssssss f      %0:d-s slsd .   s dlgljllh",
"hlddlgldsssssssdlds   s s sdggdsgdds     ssd   ssg    f. s. sds os      s    s               s .f     d9:d-s slsd .   s dlgdddlh",
"hlggjgld ff     d           ss  s        ssd   ssg     . sf sds os      s    sssdsssssssssssss f      d92s-s sgsd .   s dlgdddlh",
"hlddlgld ff  sssdsss sds sssdddsdsssss   ssd   ssg     .  f sds ds      s     s               f       s-2sfs sgsd f   s dlgdddlh",
"hls dgld ff  s sds s s s s  s        s   ssd   ssg     f  f sds ds      s     s                 f     sf2sfs sgsd f   s dlgs dlh",
"hlldlgld ff  s sds s s s s  s        s   ssd   ssg     f  f sds ss      s     s    ss  ss  %s  f:f    sf2sfs sdsd f   s dlgldllh",
"hljjjgld fdggllllllgggggddggl  l l l s   ssx333xsg        f sds ss      s     s    dd  dd  $b f:os    s 2s s sdss f   s dlgjjjlh",
"hlljlgld fs   s ds          l  d d d s d sszzzzzsd        f  d  ss      s     s    sd   s  +$   ss    s 2s s sdss       dlgljllh",
"hlddlgld fd   s ds        s g  d d d s   ssdsssdsd        f  d  ss      ddsgssd    sd   s  +$  ff     ss2s s sdss       dlgdddlh",
"hlddlgld fs   s ds          d  d d d s   sss   ssd   dhhhhhhhhhhhhhgg   ss s  s   ghhhhhhhh&lss:f dlllllollllllllllll   dlgdddlh",
"hlddlgld fdddlllddddddddddddd  s s s s   ssx333xsd   sdhhhhhhhhhhhggg   ss s  s   gghhhhhhhlssss  d   sss s  sdss   l   dlgdddlh",
"hls dgld f   sdsds       s           s d sszzzzzsd   sdghhhhhhhhhgggg   ss s  s   ggdlhhhhodss s  d d######hk#####d l   dlgs dlh",
"hlldlgld fssdllllddssssssdsss        s   ssdsssdsd   sdgdlgllllllggggghhhhhhhhhhhggggdlhhosdss s  d s###ooook###&os l   dlgldllh",
"hljjjgld fs  sdsds          s        s   sss   ssd   sdgss ssdsddggglhhhhhhhhhhhhhggggdsdssdss s  d skk@@@@shkk@%@s l   dlgjjjlh",
"hlljlgld fsdglllggddsssssdsss        s   ssx333xsd   sdgs    s ddggghhhhhhhhhblhhhhgggd d sdss s  d sk%@@@hshk+@%@s l   dlgljllh",
"hlddlgld f   sd ss       s           s d sszzzzzsd   sdgs f  s sdgghhhhhhhhhlhblhhhlggd s sdss s  s s+%@@hhsho+@%hs l   dlgdddlh",
"hlddlgld f   sd gdddddss s           s   ssdsssdsd   sdgs f .s. dsssdsdsddsddgosdslssss s ssss s  s s+%@hhhs@o+@hhs l   dlgdddlh",
"hlddsgld      dsd      s s  dsd sss  s   sss   ssd   sdgs f  s% ss  s s dd dd gdd l   s   ssss s  d f  f...X. f.f.. l   dgsdddlh",
"hlddd jl      dsdsss   s s  d s s s  s   sss   ssd   sdgs f.fsssss    s ss sd  sd d   s   ssss s  d  ss    . ss s   l   g ddddlh",
"hlggdd gd     s ds s   s gdsd sss ssds   sss   ssd   sdgs f .s s s  f.  ss sd . s d   s   ssss s  d  ss    . ss s   l dd ddggglh",
"hlggdddgd     s ssss   s    d s s s      sss   ssd   sdgs f fs  $   d%f ss s  fos d   s   ssss s  s  ss    . ss s lll d dddggglh",
"hlggdddce667d s s      s    gds s s      ssx333xsd   sdds f  s  g$f.ss  ss sds sd d   s   ssss s  s  ss    . ss sfdr666edddggglh",
"hls dddnzzznd s sssdgdss        s s    d sszzzzzsd   sdds f  s  ss +s   ss sd&sss s        sss s  d  ss    . ss s dnzzznddds dlh",
"hlldlddgd     s                 s s      ssdsssdsd   sdds f  s  s  :s   ss sd  ss s     f.X. s s  d  ss    f ss sdlll d dddldllh",
"hljjjddce667d s                 s s      sss   ssd   sdds f     ss >s   ss sd  ss s   f.XXX*.. s  d  ss    f  s sgd7666edddjjjlh",
"hlljlddnzzznd s +s  ss  s+s     s s      ssf.f ssd   sdds f     ss 1s   ss ss   s s f.XOO****  s  s  s     f  s sldnzzzndddljllh",
"hlggdddgd     s lg  ld  g&s     ssd      sfXX.fssd   ssds f     ss 1    ss ss   ss .XXOtO**... s  s  s     f  s ss..l d dddggglh",
"hlggddjgd     s ld  ld  dos              fXOOX.fsd   ssds f     ss 1    ss  s  s  ...9tX*.  +. s  d  s        s s   l ddjddggglh",
"hldddjhj        ld  gs  d+s     sss      XOOOOX. d   ssds f     ss 1    ss  s   fX.X*XX. .  ff s  d  s        s s   l   hjddddlh",
"hlddjh;&        ld  ds  d+s     s s       .XOOOXfs   ssd ..f.fff ff9..f.f f..ff.f*.X*. f.  fssf   d  s        s s   l   ;hjdddlh",
"hlddhj;&        gs  ds  s+s     sdd         .XOOXf   ss .XXfXf.X ..tXX.X. .XX.f..*.. f.. o ssss   d  s        s s   l   ;jhdddlh",
"hlddjj;&        gs  ds  s%s                   .XOX   s X*OOX*.X*.XXiX*.X.f.OO*.f..   . b&d gssg   d  s        s s   l   ;jjdddlh",
"hldd  ds        ds  ds  s%                            *OOOOXOXXOXXXaOOXOXfXOOO..   .f+$&&&dsggs   dblll;;llllllllllll   d sdddlh",
"hsgdddjdssssssssggssggssg+gssssssssssssssssssssssssssssssssssssssss2ssssssssssssss >.  sdoossssssss%ssdoodssssssssssssssjggdgdsh",
"jl  dgkdlddddddlllllllllllldddddddddddddddddddddddddddddddddddddddd>dddddddddddddddddddddddddddddddlllllllddddddddddddddkggdgdsh",
"jd**qqqqOOO**Xf ssf    11511 .***OOOOOOOOOOOOOOOO*Xf.XOOOOXf*fX* X ufXOf   XOX   f fXOOOOX.   .XOOO4..444444XOX.XXOOOOOOXXXXXffj",
"hdf.XXXXXXX.f   s   ss  s%    .XX.XXXXXXf fXXXXXXf  ffXXXXf .  .s. - .X. s .X.fsd:  .XXXX.  s s .XX%  s%os   X f fXXXXXX......dj",
"hd dlllgllld    s   ss  s%                                      s  -     s    soo           s s    %  s%os    s s   dllldllld gh",
"hd s<<<d<<<s  d#################################d    sX  sX  s. ss.- sX  s.    %d#################################d s<<nsn<<s gh",
"hd f.......f  fskkkk&&ookkkkooookk#kooookkkkooosf    gl  gl  gl sglf gl  gl   : fskkkkooookkkk&oook#kkobbokkkk&oosf f...f...f gh",
"hd dlllgllld   . hh@%%@hhkh@@@@hhhk@%@@hhhh@@@ .     ss  sd   s ssdf  s  s   :   X hh@@@@hhhk@+@@hhkh@@++hhhh@%@ X  dllldllld gh",
"hd s887de88s    Xf@@%%hhhk@@@@hhhh%@%@hhhh@@@fX      ss  sd   s ssd      s        Xf@@@@hhhh+@+@hhhk@@@+khhh@@%fX   s888s788s gh",
"hd s7<ndn<7s     Xf@%khhh%@@@hhhh@%@%hhhh@@@fX    ssssdsssddssdsgsdssssssdsssss    Xf@@hhhh@%@+hhhh+@@@kkhh@@@hX    s7<nsn<7s gh",
"hd sr<ndn<rs      Xfkkhh@%@@hhhh@@%@hhhh@@@fX    sdlllllllhlllllhlhllllllhllllds    Xfhhhh@@@@khhh@+@@hkkh@@@f      sr<nsn<rs gh",
"hd s<nndnn<s       X  OOXqXOOOOOO*.*.*OOOOXX    sdlh=========================hlds    XOOOOOOOXffXOO.OOOff.OOOXs     s<nnsnn<s gh",
"hd f.......f        ss..   .......    ....     sdlh=hsX  sX  s. ss.- sX  s.gh=hlds    ....... s  ..s . ss ... s     f...f...f gh",
"hd                  ss                        sdlh=ldgl  gl  gl sglf gl  glddl=llds           s    s   ss     s        sssssssgh",
"hjjjjjjjhhhllllllllllllllllllllllllllllllllllllll=khhhhhhhhhhhhhhhhhhhhhhhhhhhk=llllllllllllllllllllllllllllllllllhhhhhhjjjjjjjh",
"##kkkkkkkkkkkkkkkkkkkkkkkkkkkkkkkkkkkkkkkkkkkkkkkkpkkkkkkkkkkkkkkkkkkkkkkkkkkkpkkkkkkkkkkkkkkkkkkkkkkkkkkkkkkkkkkkkkkkkkkkkkkkk#"
};
