/* XPM */
static char *BRNBIGC[] = {
/* columns rows colors chars-per-pixel */
"128 128 32 1 ",
"  c cyan",
". c gray31",
"X c #5B5B5B",
"o c gray39",
"O c #3F2F17",
"+ c #4F3B23",
"@ c #332B13",
"# c #43331B",
"$ c #272727",
"% c #4B371B",
"& c #2F2F2F",
"* c #574333",
"= c #5F4B37",
"- c #67533F",
"; c #533F1F",
": c #533F2F",
"> c gray23",
", c gray28",
"< c #2B230F",
"1 c #232323",
"2 c black",
"3 c #775F4B",
"4 c #434343",
"5 c #5B472B",
"6 c #13230B",
"7 c #373737",
"8 c #5F4323",
"9 c #373F27",
"0 c #1F170B",
"q c #7B634F",
"w c #6F5743",
"e c #1B1B1B",
/* pixels */
"@##O@O########OOOO#;++:++##+#+##@##O@O########OOOO#;++:++##+#+##@#+####+:+::+::+%%#%*8:+#%#%#%##@####>******+*:++:#+*+:++##+#+##",
"@#####+++##++##OO##+##+++++#O+##@#####+++##++##OO##+##+++++#O+###+####+:++++:;%#%##%#8++#%O%@%#:@#+*+#+****+*+##+##+#+++++++O+##",
"$###+#++++++*#OOO#+#;#+++++#####$###+#++++++*#OOO#+#;#+++++###########++***+:%O%##%#;#*%%%#;####@##++#++***+*+O+##+#;#***+++##+#",
"######+***+**#@#O####++++##+#&########+***+**#@#O####++++##+#&######+#+*+**::#@######++*%%%*#@####%###+******+@######++++#+*####",
"##+###+55*+*+#O#@#+#++:::+**%@####+###+55*+*+#O#@#+#++:::+**%@####+###+5****+#O#@#%#++;*;%**@@###%*###+5****++O#@#+#+++*+***%###",
"######+55*+*+###@##$#++++**:%&########+55*+*+###@##$#++++**:%&########+5+***+###@##O#+;*;%*-@O####%###+5+=**+###@##$#++*+**-%###",
"######+55****+OOO####****++:%#O#######+55****+OOO####****++:%#O#######+5*****+@O#####;*+*+++O#O#####O#+5*=***+@O#####**=*+++%###",
"####&#+*5==**#OOO#+##****++:%&######&#+*5==**#OOO#+##****++:%&######>O+5===**#%O##*##**+*++*#%#O##O+&#+5===**#@O##+##**=*++*%###",
"######+*5==+=;O@O###+*=*=**:%#########+*5==+=;O@O###+*=*=**:%########O+,===*-*%@####+*=**;;*;#O$##O#O#+,===+**@@####+*===***%O##",
"##&###+*****=;O@O###:==*=**:%O+###&###+*****=;O@O###:==*=**:%O+###&##%+**=**=*%@###O*-=*=***;%@@#O&###+**=****O@###%*-===**=%O##",
"#>#&##++5===-;O@O@##:==*=*=:OO###>#&##++5===-;O@O@##:==*=*=:OO###>###%++====-,%@#@#O;-=*=*=*;%O##>O&+#++====*,O@#@#%8-=-=*=-%###",
"##&#9O+*,--=-+O@OO##:==*===:#O####&#9O+*,--=-+O@OO##:==*===:#O####&&#%+,-===-+OO###O,q====-*%O#O##&#9#+,-=-=*+@####%,q=-===-%O##",
"#####O+*---=:+O@@O##*==*===:@O#######O+*---=:+O@@O##*==*===:@O#######%+=-===:+$O@##O:---==w*%O#$####+#+=-=-=:+OO@##%*-=-=-3-%$O#",
"&####O+*---=*+O@@@##*-=*=--:@$#+&####O+*---=*+O@@@##*-=*=--:@$#+#####O+=-===*+@####O:-=3=*3*;O#@%#####+=-=-=*+@####%*-=-=33*%@@O",
"&##&#@+*****=*O@@$O#*******:@&&#&##&#@+*****=*O@@$O#*******:@&&####>&@+======*@O##O#:******:@O&###+&##+*=====*@O#$O#*3,----=%#OO",
"&#>&#@#@@##@@#$@$@##@#@@@@#@@$##&#>&#@#@@##@@#$@$@##@#@@@@#@@$####>#@@#@###@@#$##@##@#@@@@#@@O#O#+>&#@#@###@@#$#$@##@#@@@@#@@O@O",
"&####@@<<@@<<@@@$$#@<<<<<<<<@&#+&####@@<<@@<<@@@$$#@<<<<<<<<@&#+####$#@<@@@<<@&O@@#@<<<<<<<<@&#$#++###@<@@@<<@&O$$#@<<<<<<<<@$O#",
"&#&#&@<<<<<66<$@@$$$@<66666<@$##&#&#&@<<<<<66<$@@$$$@<66666<@$####&&##<<<<<66<$#@O$$@<66666<@$#O##&#&#<<<<<66<$#&$$$@<66666<@&##",
"&&&#&@@@@@@@@$@&@$@$@@@@@$@@&&&&&&&#&@@@@@@@@$@&@$@$@@@@@$@@&&&&#&&#&#@<<<<<@$O&O$@$@@@$$$@@&&&###&#&#@@@@@@@$&&&$@$@@@@@$@@&#&&",
"&&&&&@&####O@#@$$$@$@OOOO@OO#&##&&&&&@&####O@#@$$$@$@OOOO@OO#&###&&##$@@@@@@@#@$O@#@OOO@@@OO#$#&##&&&$OOOOOO##@$$$#$$OOOO@OO#&&#",
"&&&$$@O####O@#@$$$$@@OOOOO%%#&#&&&&$$@O####O@#@$$$$@@OOOOO%%#&#&#&&#&$@@@@@@@#@$@O@@OOOOOOOO#@#&#&&&&&OOOOOO##@$$$$@$O#OOO#O#&&&",
"&#&$$@O####O##@$@@$$@OOOOO%%O&&&&#&$$@O####O##@$@@$$@OOOOO%%O&&&&#&#&$@@@@@@@#@$&@O$OOOOOOOOOO$$##$$&&OOOOOO##@$&@$$$O#OOO#OO$$@",
"&#&&&@@####O#O@@@$@$OOOOO#%%#@&&&#&&&@@####O#O@@@$@$OOOOO#%%#@&&&#&&&@@@@@@@@O@@@$@$OOO###OO#@$$$#$&&@@OOOOO#O@@@$@$OO#OO####$$$",
"##&&$@$@@@@@@$$@$$@@@@@@@O@@$6&<##&&$@$@@@@@@$$@$$@@@@@@@O@@$6&<##&$@@@@@@@@@$$@$$@@@@@OOO@@$6&@##&&$@$@@@@@@$$@$$@@@@@@@O@@$@$<",
"66<<<<<<<<<<<666<6<6666<<<<<<66666<<<<<<<<<<<666<6<6666<<<<<<66666<<<<<<<<<<<666<6<6666<<<<<<66666<<<<<<<<<<<666<6<6666<<<<<<666",
"<&&&11111<6<$$1<$11$<$@@$$$$@$#&<&&&11111<6<$$1<$11$<$@@$$$$@$#&<&&&11111<6<$$1<$11$<$@@$$$$@$#&<&&&11111<6<$$1<$11$<$@@$$$$@$#&",
"&>=>&&&#>#&#&>##7>>4,>>4,,>**>>#&>=>&&&#>#&#&>##7>>4,>>4,,>**>>#&>*>&&&#>#&#&>##,>********==*>>#&>*>&&&#>#&#&>##,>********=--=>*",
",=*****5;*++%+*5*++***++*++****+,=*****5;*++%+*5*++***++*++****+,=*****5;*++++*5*++***++*++****+,=*****5;*++++*5*++***++*++****+",
"+++:;+#%++++%@+5++@#+#@++#O++++@+++:;+#%++++%@+5++@#+#@++#O++++@+++:;++O++++%@+5++@#+#%;+#O++++@++###+#O++++O@+5++O#+#@++#O++++O",
"#++++#O%;%++%O#+#O@#+#@##OO+++#O#++++#O%;%++%O#+#O@#+#@##OO+++#O#++++#+##%+%%O#+#O@#+#%;%%O+++#O#+@O##O#%+++@O#+#OO#+#@##OO+++#O",
"##%**#O%+%%+%O##@O@O+#@O#@#++#O@##%**#O%+%%+%O##@O@O+#@O#@#++#O@##%**#+#+%%#%O##OOOO+#%;%%#++#O@##@O####+%+#OO##OOOO+#@O#@#++##O",
"##%+++O#*;%+%@#O@#@##O@O#@O++#@@O#74++O#%%O+%@#O@#@##O@O#@O++#@@O#74+++##%##%O##O#O##O%;%%O++#@@O#74#+##+;+#O$##O#O##O@O#@O++#@@",
"O4222>O@OO@@%@#O@O@##O@O#O###OO@O4222>O@%%O@%@#O@O@##O@O#O###OO@O42e&>O@#O##%O##OO@##O%;%%####O@O4$&&+O@#++#O$##O$O##O@O#O#+##O@",
"420112>$OO@@%O#O@O@###@O+@O%#$O@420112>$%%O@%@#O@O@###@O+@O%#$O@42011&>$#####O##@@@###%;+%O##$O@42011&+$O+##OO##O@O##O@@+@O#@$O@",
"2$   12$OO@@$$#O@@@#&#@O###;@@O72$   12$%%O@%@#O@@@#&#@O###;@@O72$   1&,O####$##@@$#&#%;%%#O@@O72$  11&$O+##$$##O@O#@O@@###O#@O7",
"$     127O@@@<@#@$@##$$OOO#@&#72$     127%O@%@@#@$@##$$OOO#@&#72$     1&7O#@#<##@$O##@#;%%#@&#72$    11&####@<@#O$O#@@$@OO#@@#72",
"       117@@@@$#@@@#O#$OOO#@$72$       117@@%@##@@@#O#$OOO#@$72$       1&7#@#@##@@O#O##%%%#$&72$      111+##@@$#O@##@@$@@O@@@72$",
"        &1>@@@$#@O@#$$$O#$$$$2$         &1>@%@##@O@#$$$O#$$$$2$         &&>@#@##@$O#O@#%%%$$$2$        1&1+#@@$#@$##@$$@#$@$$2$ ",
"         &$4$$$#@#@#@@$O@$#@2$           &$4%@##@#@#@@$O@$#@2$           &&4#$##@#O#@@O#@%#%2$          1&$+$$$#@#$#@@$@@$@@2$  ",
"          &&4@$OOO@#$$OOO$$2$             &&4@#OOO@#$$OOO$$2$             &&4@#OO$O#O$%OO%$2$            1&&+@$OO$O#@$O@@$@2$   ",
"          >+:$@O$#$O$O#O$@2$              >+:$@O$#$O$O#O$@2$              >+:$#O@#@OOO#O%@2$              >+:@@O$#$O@O#O@@2$    ",
"          4*@<$O@O$$@OOO$2$               4*@<$O@O$$@OOO$2$               4*@<#O@$@@OOOO%2$               4*@@$#@$$O@OOO@2$     ",
"         .*@@$#@$O$@OO@O2$               .*%@$#@$O$@OO@O2$               .*@@$#@@$@@OO@O2$               .*@@@#O$$$$@O@O2$      ",
"        .*O@@O#&&@@O@O#2$               .*O%@O#&&@@O@O#2$               .*O@@@#@@$@O@O#2$               .*O@@@#&&$@O@O#2$       ",
"       .*@&@O@$#@@OO@O2$               .*@&%O@$#@@OO@O2$               .*@&@%OO#@@OO@O2$               .*@&@#@$#$@OO@O2$        ",
"      .4&$<+O@O@O@$O@2$               .4&$<+O@O@O@$O@2$               .4&$<;%OO$O@$O@2$               .4&$<##@O$O@$O@2$         ",
"     .:@&@#+#O@O@@@O2$               .:@&@#+#O@#@@@O2$               .:@&@#%#O@#@@@O2$               .:@&@##O@@#@@@O2$          ",
"    .4<@@O@+#O$O$$62$               .4<@@O@+#O$$$$62$               .4<@@O@##O$$$$62$               .4<@@O##O@$$$$62$           ",
"   .*$$@%OO+%@$O$@2$               .*$$@%OO+%@$@$@2$               .*$$@#OO##@$@$@2$               .*$$@#O##O@$@$@2$            ",
"  .*@$@O%O#+%&O$$2$               .*@$@O%O#+%&$$$2$               .*@$@@O####&$$$2$               .*@$@@O###O@$$$2$             ",
" .*#@<OOOO#%#@O$2$               .*#@<OOOO#%#@$$2$               .*#@<&#@####@$$2$               .*#@<&#@####@$$2$              ",
".*O#@#@OOOO%$@O2$               .*O#@#@O%O#%O@$2$               .*O#@$#@##@<$@$2$               .*O#@$#@##O#$@$2$               ",
"4@O#OOOOOOO%$@2$               .4@O#OOOOOOO%O@2$               .4@O#@$@##O$6$@2$               .4@O#@$@##O$#$@2$               .",
"<OO#OO$OO$$%&2$               .*<OO#OO$OO$OOO2$               .*<OO@@@@O#$$@&2$               .*<OO@@@@O#$$@&2$               .*",
"$#O%O&@#O$@O2$               .4@$#O%O&@OO$OO2$               .4@$##$$@$#@$@@2$               .4@$#@$$@$#@$@@@$               .4@",
"@OO%O#O<O$@2$               .4$@@OO%O#@OO$O2$               .4$@@&#O$@@<$$@2$               .4$@@&@O$@@<$$@2$               .4$@",
"#O#%OOO@O$2$               .4$@@#O#%O%$OO$2$               .4$@@$&#@@@$@@$2$               .4$@@@&@@@@$@@$2$               .4$@@",
"$O#%O$O$@2$               .4$$$@$O#OO%<OO2$               .4$$$@&&$$$$<$@2$               .4$$$@@&$&$$<$@2$               .4$$$@",
"@OO#@$O<2$               .:@$$$<@O#O@%$O2$               .:@$$$<@$##@$$<2$               .:@$$<<@&##@$$<2$               .:@$$$@",
"#OO<@$O2$               .*$$&$$@#O#O@%$2$               .*$$&$$@@$&<@$$2$               .*$$&$6<@&&<@$$2$               .*$$&$$@",
"#@O@@$2$               .:6$$<@$<#O$O@O2$               .:6$$<@$<@#$@@$2$               .:6$$<$$<@#$@@$2$               .:6$$<$$$",
"#$O<@2$               .*@@&$<@$$#O@O@2$               .*@@&$<@$$@$@<@2$               .*@@&<$$<<@$@<@2$               .*@@&$<$$$",
"@$O<2$               .*$<$$$<@$$@O$<2$               .*$<$$$<@$$@$$<2$               .*$<$@<$$$<@$$<2$               .*$<$$$<$$$",
"$$$2$               .*O@@@$$<@$$$O$2$               .*O@@@$$<@$$$$$2$               .*O@@@<<$$$$$$$2$               .*O@@@$$<$$$",
"$$2$               .4$O$@@$$<@@@$O2$               .4$O$@@$$<@@@$$2$               .4$O$#@@<$$@@$$2$               .4$O$$$$$$$@@",
"$2$               .*@@@#$@$$<@@<$2$               .*@@@#$@$$<@@<$2$               .*@@@@#@<<$@@<$2$               .*@@@$$$$$$@@<",
"2$               .4O@#@#$@$$$<<&2$               .4O@#@#$@$$$<<&2$               .4O@#O@#@<$$<<&2$               .4O@#$$$$$$$<<&",
"$               .4#O@$@O@@$$$<72$               .4#O@$@O@@$$$<72$               .4#O@$@@#@<$$<72$               .4#O@$<$$$<$$<&2",
"               .*&$@$@$@<@@@$72$               .*&$@$@$@<@@@$72$               .*&$$@$@@#@@@$72$               .*&$$$$$$$$@@$&2$",
"              .*<O@@&&$@<$$@&2$               .*<O@@&&$@<$$@&2$               .*<O$<@$@@%$$@&2$               .*<O$$$<$<$$$@&2$ ",
"             .4@$$@$&@$$@$@@2$               .4@$$@$&@$$@$@@2$               .4@$&@<$$@@%$@@2$               .4@$&@<$$$<@$@@2$  ",
"            .4$@@$<$$$$<$$@2$               .4$@@$<$$$$<$$@2$               .4$@$@$&$@@<O$@2$               .4$@$@$&$@$<$$@2$   ",
"           .4$@&$<@$<$$@@$2$               .4$@&$<@$<$$@@$2$               .4$@&$@@$@$$@O$2$               .4$@&$<@$$$$@@&2$    ",
"          .4$$$#@<$&<$<$@2$               .4$$$#@<$&<$<$@2$               .4$$$#@@$@@$<$@2$               .4$$$#@<$&$$<$@2$     ",
"         .:@$@@#@@$@@$$<2$               .:@$@@#@@$@@$$<2$               .:@$@@#@@$@@$$<2$               .:@$@@#@&$@@$@&2$      ",
"        .*$$@@@$@@$<@$$2$               .*$$@@@$@@$<@$$2$               .*$$$@@$$@$<@$$2$               .*$$@@@$$&$<@$&2$       ",
"       .:6$O@@6$@@$@@$2$               .:6$O@@6$@@$@@$2$               .:6$@$@6$@@$@@$2$               .:6$O@@6$@@$@@&2$        ",
"      .*@@@O@@$$@$@<@2$               .*@@@O@@$$@$@<@2$               .*@@#$@@$$@$@<@2$               .*@@OO@@$$@$@<&2$         ",
"     .*$<@@O@$$$@$$<2$               .*$<@@O@$$$@$$<2$               .*$<@$@@$$$@$$<2$               .*$<@O@@$$$@$$<2$          ",
"    .*O@@@@O@@@$$$$2$               .*O@@@@O@@@$$$$2$               .*O@O@$$@@@$$$$2$               .*O@@@OO@@@$$$$2$           ",
"   .4$O@@@@$$@@@$$2$               .4$O$$<@@$@@@$$2$               .4$O@@@@$$@@@$$2$               .4$O$<<&@#@@@$&2$            ",
"  .*@@$$@&$$<@@<$2$               .*@@$&6@@@@@@<$2$               .*@@$$@&$$<@@<$2$               .*@@$&$@@@@@@<&2$             ",
" .4O@@&1@$<&$<<&2$               .4O@@$$$$&@$<<&2$               .4O@@&1@$<&$<<&2$               .4O@@$$O<#$$<<&2$              ",
".4#O@<&<$$O$$<72$               .4#O<<@<@#$$$<72$               .4#O@<&<$$O$$<72$               .4#O<<@<@&@$$<72$               ",
"*&$<@@$@#$@@$72$               .*&$@$&$$6&@@$72$               .*&$<@@$@#$@@$72$               .*&$@$&$$$$@@$72$               .",
"&$<$$$@@$@$O@2$               .4&$@@$@$$&@$O@2$               .4&$<$$$@@$@$O@2$               .4&$@@$@$$$@$O&2$               .4",
"&#@@<@$$@@@O2$               .:@&$<@@$6$@@@O2$               .:@&#@@<@$$@@@O2$               .:@&$<@@$6$@@@O2$               .:@",
"@<@$@@&$$$62$               .4<@6$@$@@$$$$62$               .4<@@<@$@@&$$$62$               .4<@6$@$@@$$$$&2$               .4<@",
"@$$$@$$@$@2$               .*$$$<$@@@@$@$@2$               .*$$1@$$$@$$@$@2$               .*$$$<$@@@@$@$&2$               .*$$@",
"<$$<@&$$$2$               .*@$<@@<@$&&$$$2$               .*@$&6<$$<@&$$$2$               .*@$<@@<@$&&$$72$               .*@$$<",
"$$<$#@$$2$               .*#@@$&<@$@#@$$2$               .*#@<<1$$<$#@$$2$               .*#@@$&<@$@#@$&2$               .*#@@$@",
"@$$<$@$2$               .*O#@@@$<@<<$@$2$               .*O#@1$$@$$<$@$2$               .*O#@@@$<@<<$@$2$               .*O#@<$1",
"<1$6$@2$               .4@O<$$#<<<$6$@2$               .4@O<@$$1<1$6$@2$               .4@O<$$#<<<$6$&2$               .4@O<<$@@",
"<$$@&2$               .*<O<@<$@<@$$@&2$               .*<O<<<$@$<$$@&2$               X*<O<@<$@<@$$@&2$               .*<O$$<@$$",
"@$@@2$               .4@O<$@$@$$@$@@2$               .4@@@$@@@$$@$@@2$               X4@O<$@$@$$@$@&2$               .4@&$$$<@$$",
"$$@2$               .4$$O@@$<<$<$$@2$               .4$$@@$@<<$<$$@2$               X4$$O@@$<<$<$$&2$               .4$$$@$$<@$<",
"@$2$               .4$@$<&@$@&$@@$2$               .4$<@<@$<$$$@@$2$               .4$@$<&@$@&$@@72$               .4$##$@@@<@$@",
"@2$               .4$@<$<@&$@$<$@2$               .4$@O<$@&@$$<$@2$               .4$@<$<@&$@$<$72$               .4$<@@@&$6$$<$",
"2$               .:@@@@<@@$&@$$<2$               .:@$@$@$@@@@$$<2$               .:@@@@<@@$&@$$$2$               .:@&$$<@$$@@$$<",
"$               .*$$@@$6<6$<@$$2$               .*$$$$<$@@<<@$$2$               X*$$@@$6<6$<@$$2$               .*$$$&$@$$&<@$$2",
"               .:6&@$@$&$1$@@$2$               .:6&@$@$$$<$@@$2$               X:6&@$@$&$1$@@$2$               .:6@$$@@$<O$@@$2$",
"              .*@<@&@@$$@$@<@2$               .*@1&&$$$6<$@<@2$               .*@<@&@@$$@$@<@2$               .*@@@$@<&$@$@<@2$ ",
"             .*$@@@<<@$$@$$<2$               .*$#$#$@$$<@$$<2$               .*$@@@<<@$$@$$<2$               .*$$@$<$$&$@$$<2$  ",
"            .*O<@$<@@&@$$$$2$               .*O1$$@$<@<$$$$2$               .*O<@$<@@&@$$$$2$               .*O$6$$@&@@$$$$2$   ",
"           .4$$@@$&@7$@@$$2$               .4$&$$$@@@@@@$$2$               .4$$@@$&@7$@@$$2$               .4$@@$$&$@@@@$$2$    ",
"          .*@@$@$&<$<@@<$2$               .*@#@$@@$$$@@<$2$               .*@@$@$&<$<@@<$2$               .*@<$#&@<@&@@<$2$     ",
"         .4O@$$<$<<@$<<&2$               .4O#<$#$$#@$<<&2$               .4O@$$<$<<@$<<&2$               X4O<$$$@O$@#<<&2$      ",
"        .4#$$$<@$$$@$<72$               .4#@$@$@@6<@@<72$               .4#$$$<@$$$@$<72$               X.#$&$$@<@@@$<72$       ",
"       .*&<$$@<@$$<@#72$               .*&$@#@@$$$&$@72$               .*&<$$@<@$$<@#72$               o.&&@<@@$<$$@#72$        ",
"      .*@@&$$&@@<$@<@$71              .*@@$$#6$@@@<@@$71              .*@@&$$&@@<$@<@$71              o.@<$$$$$$@@$$#$71        ",
"     .*&$@$<@@$$$&&&$$&+1            .*&@@$&$#$$$<@<@$&+1            .*&$@$<@@$$$&&&$$&+1            o,&@@<$$$6$@@$&$$&+1       ",
"    .4@$@<$@$$<$@<@&@$$<*1          .4@O&@@@@@$$$@&$@$$<*1          .4@$@<$@$$<$@<@&@$$<*1          o47O<&@$@@#O&@@@@$$<*1      ",
"   .4&$$@<@<<@$@@@@$$$@@$4&        .4&$@<<&@#@@$$<@@$$@@$4&        .4&$$@<@<<@$@@@@$$$@@$4&        o,&$@<@&@$<$@<<&@#$@@$4&     ",
"  .:$<1$O$$$$@$$@&$$<$$@$$*7      .:$@@<$@@@@<$&6@@@@$$@$$*7      .:$<1$O$$$$@$$@&$$<$$@$$*7      o,$@@<@<@6$@@<$@@@@$$@$$*7    ",
" .*<@<@6@$$$<@&1@$<&<$<@$$<:>    .*<@$<@O<#$@@$$$$&@<$<@$$<:>    .*<@<@6@$$$<@&1@$<&<$<@$$<:>    o*<@$<@&@@&@$<@O<#$@$<@$$<:>   ",
".4$$$<<<@<@@@<&<$$O$$@<$$@<<*4  .4$@@@@$@&@<<<@<@#$@<@<$$@<<*4  .4$$$<<<@<@@@<&<$$O$$@<$$@<<*4  X4$@@@@$<<$@@@@$@&@<<@<$$@<<*4  ",
":$@@$1<$$$<<@@$@#$#$$$&$@@@@@*47:$@<1$@<$$@@$&$$6&&&@$&$@@@@@*47:$@@$1<$$$<<@@$@#$#$$$&$@@@@@*47:$@<1$@<<$@<1$@<$$@@$$&$@@@@@*47",
"<<<&<@$$<<<$$$@@$<$@$$$$<$$$$<##<$<&&$@$$@@@$@$$&#@<$$$$<$$$$<##<<<&<@$$<<<$$$@@$<$@$$$$<$$$$<##<$<&&$@$$$<&&$@$$@@@$@$$<$$$$<##",
"<@<$$1@$&#@@<@$$@$$$@<$#@#$$$<<<$6$@@$$@$$<@@$6$@$#$$$$#@#$$$<<<<@<$$1@$&#@@<@$$@$$$@<$#@#$$$<<<$6$@@$$@$6$@@$$@$$<@@$6$@#$$$<<<",
"<$$@6<&<@<@$@@&@@$$@@@&@&$$@$$$<$<<<O$@@6$@$@@$$@&@$&$&$@$$@<$&$<$$@6<&<@<@$@@&@@$$@@@&@&$$@$$$<$<<<O$@@$<<<O$@@6$@$@@$$@&@$&$&$",
"<&@@$@<&@$$$@$@&@$$@@@&<<&&$@@@@@&6<@<$$<$@@@@6<$$@$@@$$$6@$$1@@<&@@$@<&@$$$@$@&@$$@@@&<<&&$@@@@@&6<@<$$@&6<@<$$<$@@@@6<$$@$@@$$",
"66<<<<<<<<<<<666<6<6666<<<<<<66666<<<<<<<<<<<666<6<6666<<<<<<66666<<<<<<<<<<<666<6<6666<<<<<<66666<<<<<<<<<<<666<6<6666<<<<<<666",
"<&&&11111<6<$$1<$11$<$@@$$$$@$#&<&&&11111<6<$$1<$11$<$@@$$$$@$#&<&&&11111<6<$$1<$11$<$@@$$$$@$#&<&&&11111<6<$$1<$11$<$@@$$$$@$#&",
"&>=>&&&#>#&#&>##7>>4,>>4,,>**>>#&>=>&&&#>#&#&>##7>>4,>>4,,>**>>#&>*>&&&#>#&#&>##,>********==*>>#&>*>&&&#>#&#&>##,>*********-*>>#",
"<@@@#$6@<1$$<$$<<@$$$$@@$#&@1$$$O@<<$$#<<<@@6$@@<$$$#$$@$@$<<$@@<@@@#$6@<1$$<$$<<@$$$$@@$#&@1$$$O@<<$$#<O@<<$$#<<<@@6$@@<$$$#$$@",
"1@@@#@$$<<$$<@$$<@$&#<$1$@&$<@<$<<<@<$@<@@$$$&$$<@$&#<$$&@$$<@$$1@@@#@$$<<$$<@$$<@$&#<$1$@&$<@<$<<<@<$@<<<<@<$@<@@$$$&$$<@$&#<$$",
"$@@@@<@$&$$$<@$$$$$#@<@1$$&@<@$$O<$@$@$$$<$#@<$@$$$#@<@$&$$$<@$$$@@@@<@$&$$$<@$$$$$#@<@1$$&@<@$$O<$@$@$$O<$@$@$$$<$#@<$@$$$#@<@$",
"@@&@@@@$@@$$<@$$@@&$@@@&$@$#<@$$O@@$<<$$@@6$@$@$@@&$@@@$$@$$<@$$@@&@@@@$@@$$<@$$@@&$@@@&$@$#<@$$O@@$<<$$O@@$<<$$@@6$@$@$@@&$@@@$"
};
