/* XPM */
static char *BRNBIGL[] = {
/* columns rows colors chars-per-pixel */
"32 128 23 1 ",
"  c #332B13",
". c #272727",
"X c #2B230F",
"o c #2F2F2F",
"O c #3F2F17",
"+ c #43331B",
"@ c #4F3B23",
"# c #574333",
"$ c #4B371B",
"% c #13230B",
"& c #232323",
"* c #533F2F",
"= c #5F4B37",
"- c #373737",
"; c gray23",
": c #67533F",
"> c black",
", c #533F1F",
"< c #434343",
"1 c cyan",
"2 c #5B472B",
"3 c gray28",
"4 c #373F27",
/* pixels */
" ++O O++++++++OOOO+,@@*@@++@+@++",
" +++++@@@++@@++OO++@++@@@@@+O@++",
".+++@+@@@@@@#+OOO+@+,+@@@@@+++++",
"++++++@###@##+ +O++++@@@@++@+o++",
"++@+++@22#@#@+O+ +@+@@***@##$ ++",
"++++++@22#@#@+++ ++.+@@@@##*$o++",
"++++++@22####@OOO++++####@@*$+O+",
"++++o+@#2==##+OOO+@++####@@*$o++",
"++++++@#2==@=,O O+++@#=#=##*$+++",
"++o+++@#####=,O O+++*==#=##*$O@+",
"+;+o++@@2===:,O O ++*==#=#=*OO++",
"++o+4O@#3::=:@O OO++*==#===*+O++",
"+++++O@#:::=*@O  O++#==#===* O++",
"o++++O@#:::=#@O   ++#:=#=::* .+@",
"o++o+ @#####=#O  .O+#######* oo+",
"o+;o+ +  ++  +. . ++ +    +  .++",
"o++++  XX  XX   ..+ XXXXXXXX o+@",
"o+o+o XXXXX%%X.  ... X%%%%%X .++",
"ooo+o        . o . .     .  oooo",
"ooooo o++++O + ... . OOOO OO+o++",
"ooo.. O++++O + ....  OOOOO$$+o+o",
"o+o.. O++++O++ .  .. OOOOO$$Oooo",
"o+ooo  ++++O+O   . .OOOOO+$$+ oo",
"++oo. .      .. ..       O  .%oX",
"X%X%%%%XXXXXX%%%X%X%%%%XXXXXX%%%",
".&&.X.  .... .+o.&&.X.  .... .+o",
"3;#########:#;;==::==#####==#;;+",
"+$,@+O@@@@ @@+++#@#*#*@@#@@####@",
"+$,$$O@@@+O+@ O+@@#+@#$,@+O#*@@ ",
"+$,$$+@@+O ++ O++O*+@+$,$$O*@@+O",
"O$,$$O@@+ O++ O+OO*O@+$,$$+@@+O ",
"O$,$$++++O+++ O+O+$++O$,$$O@@+  ",
"+$,@$O++O+OO+ OOOO$++O$,$$++++O ",
"+$,$$+O+ +OOO OO  $+++$,@$O+ +O ",
" +,$$+++ O  O  O  $+o+$,$$+O +O-",
"++$$$++O +  O  O .O++ +,$$+$ +-%",
" +$$$ O++   O  O  O+O++$$$+$ -%.",
" O+,$++ .+  O  O .O+O +$$$.$->.1",
".$+,$+++O+  O  O +O+  O+ $+$>.11",
"O++$$++ oO  O  OO.O+O.$OO$.>.111",
".++$OO++.   O  O..O     ..>.1111",
" O+OO+++ O  O  O  O..  X.>.11111",
" OO$O+O OO  O  O..O .XXo>.111111",
" $O+OO .OO  .. O %O  X->.1111111",
"++O$OO .OO     O..O. ->.11111111",
".++$++ oOO   ..O     .-&11111111",
".$+$++  OO   . O.X X .o@&1111111",
" $+$++  OO   .O+.  O ..X#&111111",
" $+$++  Oo  ..O..X  ..  .<o11111",
"X$+++O  O   .oOo% X  .. ..#-1111",
" +O$OO. . .   O...X X.X ..X*;111",
" +O$O+O. .O   O  +X X X.. XX#<11",
"o O+O o . O     %ooo .o.     #<-",
"  OOO   X O   ..o+ X....X....X++",
". O+OX .  o o O. .+....+ +...XXX",
". O$O X.o.X o    o .o.o. .+ .X.o",
"  O+  X o   oX.. . OO .. .O .. .",
". O+ .X  XX o..X . O+ . X.+ . X.",
". OO .. .%X o... oXO+ .X..+ XX..",
". O+ . X... +...   O+  X..+  X..",
"oXO+ .X..XX.X.XX . O+ XX..O XX..",
"  O+  X...XX..%X XOO+  X.XO .X..",
". O+ XX...XX.Xo. .+ + X .%  oX.%",
"XOO+  X.XXX.....  O + X.XoO X..X",
".+ + X .%X. .. . .  + X ..  X  .",
" O + X.Xo.XX.. X .  + XX. . ..X.",
".  + X ... XXo. .+ + X .%X   ..X",
".  + XX. ......  O + X.Xo.XX .o>",
".  + XX..XX . . .  + X ....  o>.",
".  + .X...X.. X .  + XX. . Xo>.1",
"   +  X....X X..+.+. ..X ..->.11",
". O O X.o. X ..... .X X...o>.111",
"  O+ XX . ..X.oX..      .o>.1111",
". O+ .X.oX. +X..  ...  X.>.11111",
". OO .. .%X.o.. ..+ .XXo>.111111",
". O+ . X...+ X.. %X  X->.1111111",
".XO+ XX..XX.O.....o. ->.11111111",
"  O+  X.....o o.  X  .-&11111111",
". OO XX...%X.....X X .o@&1111111",
"X. O .X..X.X. ... o. ..X#&111111",
".o.  oX.%O%.o....X  ..  .<o11111",
"  .O X..X.X  ...%    .. ..#-1111",
" .   X  ... . ....o X.X ..X*;111",
"oX O %X....oX .  +. X X.. XX#<11",
"X XX   ..  X X..%ooo .o.     #<-",
".  oO.XX....   .o+ X....X....X++",
".X X. X  .o.X .. .+....+ +...XXX",
" ..X.. XXX  .. .X . .X.XXX.X.XXX",
"X.XXX.X . .X.X o XX o .. Xo .. X",
" .. X. XX o ..O.o  O.o%oX..o%oX.",
"o%oX.X   O.o%o.... ...   %..   %",
".   %O.. ...    X    X.... X....",
"X.... .    X.. XXX.X . .X   .X  ",
" .X    X.   .X.. X. XX o O . ..O",
". ..O. XX. . ..oX.X   O.o..... .",
"... ..X ......   %O.. ....    o.",
"   o.          ... .    X  X .. ",
"X .. .  .  X .@X    X.   X X.  X",
"X.  X   Xo X. +..O. XX. ..     .",
"    . . .     .. ..X ......X. .>",
". o.. X.. X. oo o.       &.%. >.",
"    . % . X   X.. .  .  X.. o>.1",
"X .   o..  X ..  X   Xo X.  >.11",
". XXX.Xo   . X   . . .   . >.111",
".XX ..X O.  X..o.. X.. X..>.1111",
"XX. . .  .. o X  . % . X >.11111",
"......X XXX XX .   o..  X.111111",
"o. .X X X&. XX..   o..  X1111111",
"oX... .&...oX ....o. ->.11111111",
".o  . &X X  o...  X  .-&11111111",
"XX .. .X Xo  X  .X X .o@&1111111",
"&. .& .  .X.XX .. o. ..X#&111111",
"X  %    &+o. o...X  ..  .<o11111",
"  .  o X... .. X%    .. ..#-1111",
"&Xo...  .&&  .. ..o X.X ..X*;111",
".X%X & ...XoXO X +. X X.. XX#<11",
"X%X X%X o  o oX.%ooo .o.     #<-",
"X+&X&.XX...o. X&o+ X....X....X++",
" -  %&.XX  . X.. .+....+ +...XXX",
"&X...&. ;..   X& o .o.o. .. X.o.",
"XXX.  o%.+.. XX .. .  ...% ..&  ",
".  ....X ... X..X%X%%%%XXXXXX%%%",
"  XX..  ..   X  .&&.X.  .... ..o",
"3;#*#######:*;;+-;;<3;;<33;##;;+",
"XX  %.  X...+.. X...o.. . .XX.  ",
"  ...o..X .o+X..X ..oX..o ..X ..",
".X.+ X. ...+ X .....oX .o...X ..",
"  %. . .  o.   .  o.   .. ..X .."
};
