/* XPM */
static char *BRNPOIS2[] = {
/* columns rows colors chars-per-pixel */
"64 128 35 1 ",
"  c #332B13",
". c #1B1B1B",
"X c #D7BB43",
"o c #C39B2F",
"O c #874307",
"+ c #AF7B1F",
"@ c #9B5B13",
"# c #732B00",
"$ c #0B1707",
"% c #4F3B23",
"& c #3F2F17",
"* c #43331B",
"= c #4B371B",
"- c #2F2F2F",
"; c #574333",
": c #272727",
"> c #533F2F",
", c #533F1F",
"< c #5F4B37",
"1 c gray23",
"2 c #67533F",
"3 c #5B472B",
"4 c gray28",
"5 c #2B230F",
"6 c #13230B",
"7 c #5F4323",
"8 c #774F2B",
"9 c #7B634F",
"0 c #373737",
"q c #232323",
"w c #373F27",
"e c #6B4727",
"r c #7F532F",
"t c #775F4B",
"y c #434343",
/* pixels */
"6655555555555666565666655555566666555555555556665656666555555666",
"5:::qqqqq565::q5:qq:5:  :::: :&:5:::qqqqq565::q5:qq:5:  :::: :&:",
":-%-:::&-&:&:-&&---01--011-==--&:-=-:::&-&:&:-&&1-========%%=--&",
">,,,,,,,=,====,,,==,,,==,==,,,,=>,,,,,,,=,====,,,==,,,==,==,,,,=",
"**%***********&* *%*%==%==%;= ****%***%*=**=**&* *=*%=*****== **",
"**************** **:*=%====%=-********%*=%==**** **&****=*=* &**",
"*******%**%%*%&&&****%=%=====*&*********=**%%% &******=*==%=&*&*",
"****-*******%*&&&*%**%==%====-******1&%3=%===*=&**;**==%;%%;*=*&",
" **& &***%****&&&&*,%===%**%*%** *%****%>%>>%>*%==*=;7>%*=*=*=**",
" *****%%%**%%**&&**%**=%%%%*&%***%****%>%%%%>,=*=**=*7%%*=&= =*>",
":***%*%%%%%%;*&&&*%*,*%>%>%***********%%;;;%>=&=**=*,*;===*,****",
"******%;;;%;;* *&****%%%>%%%*-******%*%;%;;>>* ******%%;===;* **",
"**%***%33;%;%*&* *%*%%>>>%;;= ****%***%3;;;;%*&* *=*%%,;,=;;  **",
"******%33;%;%*** **:*%%%%;;>=-********%3%;;;%*** **&*%,;,=;2 &**",
"******%33;;;;%&&&****;;;;%%>=*&*******%3;;;;;% &*****,;%;%%%&*&*",
"****-*%;3<<;;*&&&*%**;;;;%%>=-******1&%3<<<;;*=&**;**;;%;%%;*=*&",
"******%;3<<%<,& &***%;<;<;;>=********&%4<<<;2;= ****%;<;;,,;,*&:",
"**-***%;;;;;<,& &***><<;<;;>=&%***-**=%;;<;;<;= ***&;2<;<;;;,=  ",
"*1*-**%%3<<<2,& & **><<;<;<>&&***1***=%%<<<<24= * *&,2<;<;<;,=&*",
"**-*w&%;422<2%& &&**><<;<<<>*&****--*=%42<<<2%&&***&49<<<<<;=&*&",
"*****&%;222<>%&  &**;<<;<<<> &*******=%<2<<<>%:& **&>8<er<<;=&*:",
"-****&%;222<;%&   **;2<;<22> :*%*****&%<2<<<;% ****&>2<t8;7;,&* ",
"-**-* %;;;;;<;&  :&*;;;;;;;> --****1- %<<<<<<; &**&*>;;;;;;> &-*",
"-*1-* *  **  *: : ** *    *  :****1*  * ***  *:** ** *    *  &*&",
"-****  55  55   ::* 55555555 -*%****:* 5   55 -&  * 55555555 -*:",
"-*-*- 55555665:  ::: 5666665 :****--**55555665:* &:: 5666665 :*&",
"---*-        : - : :     :  ----*--*-* 55555 :&-&: :   :::  ---*",
"----- -****& * ::: : &&&& &&*-***--**:       * :& * &&&   &&*:*-",
"---:: &****& * ::::  &&&&&==*-*-*--*-:       * : &  &&&&&&&&* *-",
"-*-:: &****&** :  :: &&&&&==&----*-*-:       * :- &:&&&&&&&&&&::",
"-*---  ****&*&   : :&&&&&*==* ---*---        &   : :&&&***&&* ::",
"**--: :      :: ::       &  :6-5**-:         :: ::     &&&  :6- ",
"6655555555555666565666655555566666555555555556665656666555555666",
"5---qqqqq565::q5:qq:5:  :::: :*-5---qqqqq565::q5:qq:5:  :::: :*-",
"-1<1---*1*-*-1**011y411y441;;11*-1;1---*1*-*-1**41;;;;;;;;<<;11*",
"4<;;;;;3,;%%=%;3;%%;;;%%;%%;;;;%4<;;;;;3,;%%%%;3;%%;;;%%;%%;;;;%",
"%%%>,%*=%%%%= %3%% *%* %%*&%%%% %%%>,%%&%%%%= %3%% *%*=,%*&%%%% ",
"*%%%%*&=,=%%=&*%*& *%* **&&%%%*&*%%%%*%**=%==&*%*& *%*=,==&%%%*&",
"**=;;*&=%==%=&** & &%* &* *%%*& **=;;*%*%==*=&**&&&&%*=,==*%%*& ",
"**=%%%&*;,=%= *& * **& &* &%%*  **=%%%%*;=,*=&**&*&**&=,==&%%* &",
"**=%;*=%;,=%= *& & **& &*&***&& &**%;*%%;=,*=&**&& **&=,==****&*",
"-*=%%&*=;,=%=&*& & *** &% &=*&&:-**%%&%&;==%=&**   ***=,%=&**&*&",
"**=;= *=%*=%=&*&   *-* &***,* &:&**;* % %==%=&**  :*-*=,==*&* *&",
"**=%=&*=,*=%=*&& : **::&&&*=* : &**%=&%&*==*=*** :&** *,==*** & ",
"**=,%&&=,*=%=& &   *&*:&&&**& & &*&*%&%&*==*=& *  &*&**===**& * ",
"**=,=*&=,%&%*&&& & *:::&*&:&*   &***=**&*%=%=&&* :&*& *=== &**  ",
";*=,=**=%%&**&&& * *  :& :**:&& &*&**** %%=%*&** *&*  &*,=** :* ",
"*-*%=& =;* *=&*&&& *::&&:****&& &-*%*& &;==%*&**&:&*&:=*,=***&* ",
"*&*=*&&*=*&%= *&:*:&:& &* ** -&&&****&:*,*=%= ** * &&&**==** -& ",
":&*=**&&=**%=&%& &:: ::*&*&**: &:*****:&=*=%=&%& :  &:**=&&**:  ",
" &****&&=&*%*&* :&: * :*-:&** && ***=*&&*&=;=&*  :  * &*&&*** & ",
"*&*&=* &=&*%&&*--  : 5-*-:&& &&&*&&&%* &* *>= *  :  & &&=&*& && ",
"*  &*&&&=&&%& :*  ::  :&-*&&:&:&*  *=:&:*&&%=&&*  : & =&*&& :&& ",
"*&&&**:&*&*%& & &&   * &: &&:&&=*&&***::*&*,=&&:&&  &**&=&& :&& ",
"*&&&*- ** *%*& * -*   -&5:*&-&&=** :=- ** *=*& * -*  :**=** -&& ",
"*&&&&* &*& %*&:: ::: :*& :** &&=**: ,* &*& **&:: ::: :=*=**  && ",
"*&*&&&&*=&&%= &&:*:& & & :*& &&=**:** &&*&&** :-::    =*=**  && ",
":............................................................&- ",
"..............................................................  ",
".............................................................. :",
"....##OOOOOOOOOOOOOOOOOOOOOOOOOOOOOOOOOOOOOOOOOOOOOOOOOO##....:&",
"....#@@@@@@@@@@@....#@#...#@..@#...@#...#@....#@@@@@@@@@@#.... &",
"....#@@+++++++++..+..+..+..+..+..+++..+..@..+..++++++++@O#.... &",
"*....O@+oooooooo....@o..o..o..o@..@o..o..@..o..oooooooo+O....  -",
"*.....@+oXXXXXoX..XXoo..X..X..oXX..X..X..@..X..oXXXXXo++.....-:5",
":&.....+oXXXXXoX..XXoo@...@X..o...@X@...@@..X..oXXXXXo+..... -  ",
" &*.....oXXXXXoXoXXXooXoXXXXXXoXXXXXXXXXX@oXXXXoXXXXXo.....5  55",
"*&*&.....oXXXXoXoXXXooXoXXXXXXoXXXXXXXXXX@oXXXXoXXXXo.....:: :65",
"*  **.....oXXXoXoXXXooXoXXX+......+XXXXXX@oXXXXoXXXo..... : 5::5",
"*&&***.....oXXoXoXXXooXoXX+.#@++@#.+XXXXX@oXXXXoXXo.....* 55::55",
"*&&&*- .....oXoXoXXXooXoXX.#+oXXo+#.XXXXX@oXXXXoXo.....&*  5:::5",
"*&&&=* &.....ooXoXXXooXO.O.OooXXooO.O.OXX+oXXXXoo..... &* 55:::5",
"* &&& &&*.....oXoXXXooX....@#....#@....XX+oXXXXo.....5&&*  5::55",
"*:&=&:: &*.....ooXXXooX+.O.@..OO..@.O.+XX+oXXXo..... :* * 55:6:5",
"*:&&& -* **.....oXXXooXXo.O.O+XX+O.O.oXXX+oXXo.....:  & * 5::5:5",
"* &&::* **&*.....oXXooXXXo...O++O...oXXXXooXo.....:  :  * 5  ::5",
"-&&& : **&&*&.....oXooXXXo@........@oXXXXooo.....::: :  * 55::55",
"-&&    &*&&*&&.....oooXXo@.#.O++O.#.@oXoXoo..... ::5 :  * 55:: 5",
"-*&&: :*&&&*& :.....ooXo..............ooXo.....::- 5::  * :5:::5",
":-&&:  &&& *&   .....ooo...o+O..O+oo..oXo.....6:: :-:   *  5:::5",
":--:    && &  :: .....oooooooooooooooooo..... :: ::: 5&&&  5::5:",
":-:--   &&  5  :: .....o+o+o++o+ooo+ooo.....6  :: :- :* & 55:6:6",
": --    &&  55 ::::.....oo++++++++++++.....:55 :::::  & & 5::5:5",
"5:-:::  &&     :::: .....@+@+@++@+@+O.....::   ::::  :  & 5  :::",
"5:::&:: &  &:5 ::::: .....@@@@@@@@+O..... 5::5 ::::: :  & 55::5:",
"5 :-&5: &  &   5 ::5 :.....OOOOOOOO.....&:::   5 ::5 :  & 55:: 5",
":::& 5  && & : ::- 5:: .....OOOO##.....:& :: : ::- 5::  & :5:::5",
"  -:    &    56:: :-:   .....####..... :     56:: :-:   &  5:::5",
" 5 :::6 &  & 55  ::::5:::.....##.....:6   5  55  ::::5  &  555:5",
"5 :::5  &   :5 5-: :  *:: ..........:5 :  5::5 5-: :       55:::",
" 5::     :   5::::::  :::::........:   :&::& 5::::::       5: --",
":5-: &      :   : 6::::  :::......-: 6 :& 5::   : ::: 5    5: -5",
"5:- &:: & & :   : 5      : : ....:- 5:::& :::   : : :    5  5::5",
" :: :     &    :     6 : : :::5  :: :   &5::   :  ::        5:: ",
" :: ::&&  & &5 ::     5q:-: :555 ::     && : 5 :: ::::5     5: 5",
"    :&&&  & &  :-:::555 ::   ::: 5      &&5 5     5:5:     55 55",
"* &&& &&  & *&:-::    *& 5::55:5 -      & &:  :: ::: :     5::55",
"*:&=&::   * *&:* 5: -:&*: ::55:  -  -   & &:6  :: :- :    55:655",
"*:&&& -   * &&:::5::-5 *: ::55: 6      -& &:55 :::::  & 5 55:5:5",
"* &&::    & &  : 5   : & 5:5  : 5:  ::    &:   ::::  :   55 5::5",
"-&&& : *  & & ::- 5 : : 5 55:5555:  *::   &::5 ::::: :    5 5:55",
"-&&       & &&*:    --: 5 5:5 5 5   *5::& &:   5 ::5 :  5  55: 5",
"-*&&: :*  & & :: : :- ::555:  55::   5 :& &: : ::- 5:: 5 5 5:::5",
":-&&:  &    &    :5:::::  5:5 :-5 -    :  &  56:: :-:  5 55 5::5",
":-&    :    &  -:5 :5:: 5 5::5:5:-5    :& &*&  -:  : : 5 5555-55",
"--:::        5:* 5:-5 ::55-5 55 55:55   &  *:5:*  :      5 55 55",
"::&&:::        *  : ::::q5555 555:5 :::6&: &   *  :  : 5 5:55555",
" :-: :         :  :  ::q: :: 56  :5  : :&::&:  :: :  :   5: 5565",
":&-:-::   5   6:    5::5:5: 5555 *- :::-&   : 6:     : 5  : 55:5",
":&::--: ::    :: :55 -5 -5555556555 ::::& *:  :: :   -5 5 55::55",
":---&::      :::::555  5-: 55: $55: *::*& :  :::::5   5 55 555::",
":---: - :5     - :-55:  : 5&55566555: -:& ::   - :-  :5 5 555556",
":--:          :: ::: 5::   55655 55    :& ::  :: ::: 5 5  55 55:",
":-:--    5  5  :: :-6:*::5555656555 -   &:&:6  :: :- :555555 6:6",
": --    :5 555 :::::555:: 5:55 56555   -&5::55 :::::  55  5: 5:5",
"5:-:::  &  5   :::: 55:   5 5 5:555:::    ::   ::::  : 5 555555:",
"5:::&:: :555:5 ::::: :5 5 55:5555:55*::   5::5 ::::: 5555555555:",
"5 :-&5: &5  5  5 ::5 ::555555:555 55*5::&:::   5 ::5 : 5  55555 ",
":::& 5 5:55 5: ::- 5:5 55 :5 5555:55 5 :& :: : ::- 5:: 55 :55555",
"  -:    ::5  56:: :-:  55  555:55555   :     56:: :-:  555555555",
" 5 :::55& 55 55  ::::5:5::5555:5 5555:6   5  55  ::::55 5  5555:",
"5 :::5 555 555 5-: 5 5*555555:55555:55 :  5::5 5-: :     5 55:5:",
" 5:: 5 5&555 55:5::5  :55:5 :555 5::5  :&::& 5::::::  555 55:555",
":5-: 55 5555555 : 6::5555555:55555-5 5 :& 5::   : 6:5 5 5 55:555",
"5:- &55 55555 555 5    55:5:55555:5 5:::& :::   : 555  5 55 5555",
" ::5:  55&555 555   56 :5: :555555555 55 5::   :   5 6 555  5555",
" :: ::5&5555&55555    5q555 55:  5: :555555: 5 ::  5 555555 5555",
"    5&5&555&5 5:-5::555 ::5 5:5555 5555555555     5 555555555555"
};
