/* XPM */
static char *BRNSMALL[] = {
/* columns rows colors chars-per-pixel */
"32 64 23 1 ",
"  c #332B13",
". c #272727",
"X c #43331B",
"o c #2F2F2F",
"O c #2B230F",
"+ c #3F2F17",
"@ c #4B371B",
"# c #574333",
"$ c #4F3B23",
"% c #13230B",
"& c #232323",
"* c gray23",
"= c #373737",
"- c black",
"; c #533F1F",
": c #5F4B37",
"> c #434343",
", c #533F2F",
"< c gray28",
"1 c #67533F",
"2 c cyan",
"3 c gray39",
"4 c gray31",
/* pixels */
"%%OOOOOOOOOOO%%%O%O%%%%OOOOOO%%%",
"oXooo  XXXX+X+  ++++X@@X oo+oo  ",
"XXoo.        ..     + ..     +++",
"%%OOOO%%%%OOO%%%%%OOOOO%O%%%%OOO",
".  ....O.  . .Xo.  ....&&.O.  ..",
":::11:##:::1#**:#####:<*########",
"+$$$$ $X+$$$$XXX,$$#$$#$$####X#$",
"+$$$X+@@+$$$$ +X#@;$X+$$ X$X#X$X",
"X$$X+ @@X$$XX +XX@;@@+,$$X++$X+X",
"+$$X +@@+$$XX +XX@;@@X$$X+ +$X X",
"XXXX+X@@XXXX@ X+ +;XX+$XX+XXXX+X",
"+XX+X+$@+XX+@+X+ +;XXXX+$ +@X.+ ",
"X+X X+@@X+X @.X+  XXoXX+XXX;  +=",
"XXX + @@XXX @O X . XX.X+++X oX=-",
"XX+ X @@XX+ @ .X   X+X.+++X .=-.",
" +XX  @@ +XX@ .X + X...+X....-.2",
"XX .X ;@XX .@..X.X .. .X .   .22",
"XXX+X ;@XXX+@ .+ o +.  O.. -.222",
"XX o+ @@XX o@. + o    .  .-.2222",
"+XX.  @++XX.+O.+ o.o..O. -.22222",
"XXX + ++XXX+ .X  oXX ..O-.222222",
"X+ ++ @+X+ + +Xo ooO ..-.2222222",
"+ .++ X++ .+ ... X.  .-.22222222",
"+ .++ @++ .+   O . O -.222222222",
"XX .X ;@   O.    ..O-.2222222222",
"XXX+X ;@. .OO. ....-.22222222222",
"XX o+ @@... ......-.222222222222",
"+XX.  @+       O.-.2222222222222",
"XXX + ++  O .OOo-.22222222222222",
"X+ ++ @+$X  OO=-.222222222222222",
"+ .++ X+XX. .=-.2222222222222223",
"+ .++ @+XXO...=&2222222222222234",
"  .o.X... o. .o$&2222222222223<o",
"o     ... o.. . #&22222222223>=+",
"OOo X  ... o.  ..>o222222223<o. ",
".    O.o.   .  ...#=2222223<.  O",
"+OX.  .. o.. O.X..O,*22223#O .O ",
" o OOO OoOo   . . OO#>223>.    .",
"..  .o..Oo  X  .     #>=,. O&. O",
".   . ..  ..X%. O.. o.XXO.Ooo. .",
"  .o.X..  .o.X... o. ...O...O ..",
"o     ..o     ... o.. .   ..O ..",
"OOo X  .OOo X  ... o.  ...      ",
".    O.o.    O.o.   .  .  ...  O",
"+OX.  ..+OX.  .. o.. O.X..X .OOo",
" o OOO O o OOO OoOo   .  %O  O=-",
"..  .o....  .o..Oo  X  ...o. =-.",
".   . ...   . ..  ..X%.   O  .=&",
"++    +o.. o.. O  .o.X...O O .o$",
"X .. .Xo.   .   o     ... o. ..O",
"&O O .   o..  O OOo X  ..O  ..  ",
".O . OOO.Oo   . .    O.o%    .. ",
"O%O O%O o  o oO.+OX.  ....o O.O ",
"OX&O&.OO...o. O& o OOO O X. O O.",
" =  %&.OO  . O....  .o..%ooo .o.",
"&O...&. *..   O&.   . ..oX O....",
"OOO.  o%.X.. OO ..O  .%. .X....X",
".   ...O ... O..OOOOO%%%O%O%%%%O",
"  OO..     OOO  &O%O..&O.&&.O.  ",
"<*#########1#**X*XoXo*XX=**><**>",
"OO  %.  O...X.. OO  %.  O...X.. ",
"  ...o..O .oXO..  ...o..O .oXO..",
".O.X O. ...X O ..O.X O. ...X O .",
"  %. . .  o.   .  %. . .  o.   ."
};
