/* XPM */
static char *BRNSMALR[] = {
/* columns rows colors chars-per-pixel */
"32 64 26 1 ",
"  c cyan",
". c #332B13",
"X c #272727",
"o c #2F2F2F",
"O c #3F2F17",
"+ c #2B230F",
"@ c #43331B",
"# c #232323",
"$ c #4B371B",
"% c #4F3B23",
"& c #13230B",
"* c gray23",
"= c #434343",
"- c #574333",
"; c black",
": c #373737",
"> c #5F4B37",
", c #533F2F",
"< c #67533F",
"1 c #675333",
"2 c #533F1F",
"3 c gray28",
"4 c #5B472B",
"5 c #775F3F",
"6 c #1F170B",
"7 c gray31",
/* pixels */
"&&+++++++++++&&&&&+++++++++++&&&",
"o@ooo..@@@@O@O..o@ooo..@@@@O@O..",
"@@ooX.X......XX.@@ooX........XX.",
"+&+&&&&+++++++&&&&++++&&&&+++&&&",
"X##X+X..XXXX.#X+X..XXXX+X..X.X@o",
"3*---------<-5-->>><<>-->>><-**>",
"@$2%@O%%%%.%%1%@O%%%%.%@O%%%%@@@",
"@$2$$O%%%@O@%1$$O%%%@O$$O%%%%.O@",
"@$2$$@%%@O.@@4$$@%%@O.$$@%%@@.O@",
"O$2$$O%%@.O@@%$$O%%@.O$$O%%@@.O@",
"O=;;;*O.OO..$%$$@@@@O@$$@@@@$.@O",
"=;6##;*XOO..$2%$O@@O@O%$O@@O$O@O",
";X   #;XOO..X2$$@O@.@O$$@O@.$X@O",
"X     #;:O..$2$$@@@.O.$$@@@.$+.@",
"       ##:..$$$$@@O.@.$$@@O.$.X@",
"        o#*.$$$$.O@@..$$.O@@$.X@",
"         oX=$@2$@@.X@.2$@@.X$XX@",
"          oo=@2$@@@O@.2$@@@O$.XO",
"          *%,@$$@@.oO.$$@@.o$X.O",
"          =-.@$OO@@X..$OO@@XO+XO",
"         7-..@OO@@@.O.OO@@@O.X@.",
"        7-O..O$O@O.OO.$O@O.O.O@o",
"       7-.o.OO@OO.XOO.@OO.XO.XXX",
"      7=oX+%OO$OO.XOO.$OO.XO...+",
"     7,.o.@%@@$@@.oOO......+X...",
"    7=+..O.%@@$@@..OO.$.X.X++X.X",
"   7-XX.$OO%$@$@@..OO.$.XXX.XXXX",
"  7-.X.O$O@%$oOO:OoX..O.........",
" 7-@.+OOOO@$@.Oo;6##o@XX..+.X..+",
"7-O@.@.OOOO$X.O;X  ##o@O%@..+o.+",
"=.O@OOOOOOO$X.;X    ##o@@@X.X...",
"+OO@OOXOOXX$o;X      #Xo@@+XX.+X",
"X@O$Oo.@OX.O;X        X:o%&.X.+.",
".OO$O@O+OX.;X          ::*%XX..+",
"@O@$OOO.OX;X            :*=%...X",
"XO@$OXOX.;X              *=,X.+X",
".OO@.XO+;X               =-.+.#+",
"@OO+.XO;X               7-..X..X",
"@.O..X;X               7-O.oX+.o",
"@XO+.;X               7-.o.o..#o",
".XO+;X               7=oXo@o.X+X",
"XXX;X               7,.o.o@oXXX+",
"XX;X               7=+..Oo@oX#.#",
"X;X               7-XX.oOo@o.&o+",
";X               7-.X..o@o@ooXX.",
"X               7-@.+o@o@o@o.+.#",
"               7-O@.X@.o@o+o.+.X",
"              7=.O@.X.@oOo&o.X.+",
"#            7-+OO....OoXX.oXX.+",
"-#          7=.X@.XX.X@oX...X...",
"X=o        7=oXX#+.+.X...oXX..+.",
"XX-:      7,X+#XX+.X.+++X+o...X.",
"XX+,*    7-+.+.&+&+.+&+.o..o.o+X",
"X.++-=  7=XXX++++@#+#X++XXXoX.+#",
".....-=:,X..X#+X.:..&#X++..X.+XX",
"+XXXX+@@+++o+.XX#+XXX#X.*XX...+#",
".@XXX++++.+XX#.X+++X..o&X@XX.++.",
"+++++&&&&&++++++X...XXX+.XXX.+XX",
"XXXX.X@o+ooo####..++XX.....+++..",
"---<-**@o*>*ooo@3*---------<-**@",
"+XXX@XX.+...@X&.++..&X..+XXX@XX.",
"+.Xo@+XX#...@.XX..XXXoXX+.Xo@+XX",
"XXX@.+.XX....+.XX+X@.+X.XXX@.+.X",
"..oX...X..o....X..&X.X.X..oX...X"
};
