/* XPM */
static char *BROWNWEL[] = {
/* columns rows colors chars-per-pixel */
"256 72 49 1 ",
"  c #3F2F17",
". c #332B13",
"X c #43331B",
"o c #2B230F",
"O c #4B371B",
"+ c #1F170B",
"@ c #5B472B",
"# c #4F3B23",
"$ c #533F1F",
"% c #373F27",
"& c #533F2F",
"* c #5F4B37",
"= c #170F07",
"- c #574333",
"; c #67533F",
": c #53573B",
"> c #5F4323",
", c #6F5743",
"< c gray31",
"1 c #3F472B",
"2 c #474F33",
"3 c #5B6347",
"4 c #9B7F6B",
"5 c #6F7357",
"6 c #836B57",
"7 c #675333",
"8 c #6B4727",
"9 c #7B7F63",
"0 c #A78F77",
"q c #232323",
"w c #775F4B",
"e c #8B735B",
"r c #272727",
"t c #7B634F",
"y c #937B63",
"u c #838383",
"i c #434343",
"p c #0B1707",
"a c #373737",
"s c #9F9F9F",
"d c #9F876F",
"f c #A7A7A7",
"g c #BFA78F",
"h c #774F2B",
"j c #2F2F2F",
"k c #8B8B8B",
"l c gray50",
"z c gray28",
"x c #5B5B5B",
/* pixels */
"O. .    O  $O.   O     O  O.   ....>OO.$ $.O .    oO   ..o$ .   O. .    O  $O.   O     O  O.   ....>OO.$ $.O .    oO   ..o$ .   XX.$ OXX++O.XX  .X X.XXXX+ oXX.oooo.XX.+X@.oooo o@*oXX@XXX+#oo. O. .    O  $O.   O     O  O.   ....>OO.$ $.O .    oO   ..o$ .   ",
"O.O $ OO>.$$ >  Oo$O Ooo O . . . $  .$ .O   . $.  .   . O.O.    O.O $ OO>.$$ >  Oo$O Ooo O . . . $  .$ .O   . $.  .   . O.O.    >O $OO <+.XX$ XOXXOX XXXX.X.X..o.oo....+ooooooooo&.. @.X%-o..@X.O.O $ OO>.$$ >  Oo$O Ooo O . . . $  .$ .O   . $.  .   . O.O.    ",
"O$OOO.$$ O.$OO$OOoO.$        .  .O     o    .   O  .$.  $O  .OO O$OOO.$$ O.$OO$OOoO.$        .  .O     o    .   O  .$.  $O  .OO $ XOO OooOOOX OOXXXX XXXXXX .. X. o#ooXo+ooooo...@.X#@X.. o#-XO O$OOO.$$ O.$OO$OOoO.$        .  .O     o    .   O  .$.  $O  .OO ",
">>O>  $  >$O $ O$O.O O$O   O OO O.$ .O$.O..O .  $        $  O$O >>O>  $  >$O $ O$O.O O$O   O OO O.$ .O$.O..O .  $        $  O$O $$ X$OOXo> > .O.OXXOXXXXX#X.X.XX...ooooo+o.-6<4,euwXw<#*Xo&*-XXo>>O>  $  >$O $ O$O.O O$O   O OO O.$ .O$.O..O .  $        $  O$O ",
"$O.$O    O $O$ $ #> OOOOO>O > $ . $O.OOO   $ .  O.O.O O OOo  $. $O.$O    O $O$ $ #> OOOOO>O > $ . $O.OOO   $ .  O.O.O O OOo  $. XX..XO  =$.$X.X XX...XXXXX..XoX..@.#X-*..*e9:.*oo :X:*X.-#X1-.$ $O.$O    O $O$ $ #> OOOOO>O > $ . $O.OOO   $ .  O.O.O O OOo  $. ",
"OO.OOOO$.O%$ .OO  o  O.OO$OO$ $ O $O O O.O $O .O $  O.O . o   $OOO.OOOO$.O%$ .OO  o  O.OO$OO$ $ O $O O O.O $O .O $  O.O . o   $O.>.$OOXooO OO#OXXX XXXXXX&.oo.Xo;y656;tX46-++++o++++.::%::X**XXXOO.OOOO$.O%$ .OO  o  O.OO$OO$ $ O $O O O.O $O .O $  O.O . o   $O",
"       .$ #O $. ..  O > OO   $ oO O$O .  O  $O O   > OO ..     O       .$ #O $. ..  O > OO   $ oO O$O .  O  $O O   > OO ..     OOO XOOOXo OX .X.XX.XXXX.XXX.o.o.@5053*<06o+o %o<.++++X.oXX@#*X.        .$ #O $. ..  O > OO   $ oO O$O .  O  $O O   > OO ..     O",
"  O O  $$  O . O .$ O .O.$O     O$. O$. .O     O.O >$ O  ..>      O O  $$  O . O .$ O .O.$O     O$. O$. .O     O.O >$ O  ..>    X$ $$ O.=.O  X.OO. OX.XXX.XoXX.X;49:op44o=X..o=.++++=+.o @X-X#.X  O O  $$  O . O .$ O .O.$O     O$. O$. .O     O.O >$ O  ..>    ",
" O  OOO>O.OO .O  OOO  O>O$  O  O$  O.O O.O .O.$ O O   O. . O.O   O  OOO>O.OO .O  OOO  O>O$  O  O$  O.O O.O .O.$ O O   O. . O.O  $  XXXX.+O XOOO$X..X..XXXX#@@@&*t60:+94oo;X+.Xo ++oo.o+XoX,XX.X$ O  OOO>O.OO .O  OOO  O>O$  O  O$  O.O O.O .O.$ O O   O. . O.O  ",
"$  O$O.O O   O    O  $ OOO   O.. .O .O$ .   O O O..     .  O $  $  O$O.O O   O    O  $ OOO   O.. .O .O$ .   O O O..     .  O $  XOOXXO o+XXOOXX$XXXXX.XX:;;;,54d69sXog<+:X X-@9<-+o +o+ooo4X&XO $  O$O.O O   O    O  $ OOO   O.. .O .O$ .   O O O..     .  O $  ",
"O    O   O O  .O $   O.O. O   O  .> . OOO  OO   O O  O       O.OO    O   O O  .O $   O.O. O   O  .> . OOO  OO   O O  O       O.O XXXO  X=OXXXO$OXXX..X;,,,w<:-;-  #+XfX+oo.X@:@@:X@ooX.+X=0#XX#XO    O   O O  .O $   O.O. O   O  .> . OOO  OO   O O  O       O.O",
" OO   O $$ O  O O   >      O O. O  $O      .OO. O.     O. OO ..  OO   O $$ O  O O   >      O O. O  $O      .OO. O.     O. OO ..  O O OX%+OOOX OOX#X.X-X..  o...XXX ..s.+oo..#@;,;*. @X*+.=y-#XOX OO   O $$ O  O O   >      O O. O  $O      .OO. O.     O. OO .. ",
" O   $O OOO$ O>OO  $ . O O  >  O>  $O ..   OO  .$. O $     O O.  O   $O OOO$ O>OO  $ . O O  >  O>  $O ..   OO  .$. O $     O O. XOXXXXOX+OXX $OOXXX..XXXXo.oo. XXXX.X0 oo.oooo&&XXo@@.@@o+,##.X. O   $O OOO$ O>OO  $ . O O  >  O>  $O ..   OO  .$. O $     O O. ",
" $$ OOO O .$.$$ $  $ O  OOO $$.OOO.O  $  O   .    O   >O $    O. $$ OOO O .$.$$ $  $ O  OOO $$.OOO.O  $  O   .    O   >O $    O.XXOXX   +$$X$$>OXXX.o++oo++o++++ooo o4X+o+++++o.+o,X#X3y+o@&-.#X $$ OOO O .$.$$ $  $ O  OOO $$.OOO.O  $  O   .    O   >O $    O.",
".$O  O  .    $.OO  O   O  >O  $     O O  O .      >        $ OOO.$O  O  .    $.OO  O   O  >O  $     O O  O .      >        $ OOO XO  XX.+OOOX OXXXXO.oX.oooo++++++<Xo*@oooooo+++XX;&XXe =.&#-.XX.$O  O  .    $.OO  O   O  >O  $     O O  O .      >        $ OOO",
"  O O   . O >O  .      O .>O  OO .  OO.    O$$  . >$      .  O O  O O   . O >O  .      O .>O  OO .  OO.    O$$  . >$      .  O O.X XX  X+XO.XOXX.XX#X.........oo++*..o*Xo.X.X+++o7@**;@++XXX*XOO  O O   . O >O  .      O .>O  OO .  OO.    O$$  . >$      .  O O",
"   $.  O O  $  Oo . O..O O    O           OO.$O . OO. O.   OOOO    $.  O O  $  Oo . O..O O    O           OO.$O . OO. O.   OOOO XXXOXX.X+ XO.X$OXXX&X..X.  X.X X+o-.o+XXo@.X o=+=@:*5-++Xo&$*XX    $.  O O  $  Oo . O..O O    O           OO.$O . OO. O.   OOOO ",
"  O  O.OOO$ > O.   O    O  OO O         .       .O.$  OO      O   O  O.OOO$ > O.   O    O  OO O         .       .O.$  OO      O $XO X. <+OO .O O#XXXX.XXo XX.XXX.oo+o++oooX@,;XXXXXX.+o.o.X@-*XX  O  O.OOO$ > O.   O    O  OO O         .       .O.$  OO      O ",
"OO$O   O> $    O$ O       $8O.O   O $     >.>.  O   O      $  . OO$O   O> $    O$ O       $8O.O   O $     >.>.  O   O      $  .  XOXXXXooO$O. XOXXXXX X. X. @X.X o+++o++oo+oXXX.Xo+++@*oo@.#-@$XOO$O   O> $    O$ O       $8O.O   O $     >.>.  O   O      $  . ",
"O  OO  OO $ $$O$  $  OO  OO     >   .O  $O   O      $ $$ . $..  O  OO  OO $ $$O$  $  OO  OO     >   .O  $O   O      $ $$ . $..  .XXO.X.Xo  OO X$.XXX.X@XXX.XXXXX.o.oooo.+ooo+o+++o.@*XooX.X$XXOXO  OO  OO $ $$O$  $  OO  OO     >   .O  $O   O      $ $$ . $..  ",
"O $>.$ OO.8.8 .>. OO .$  $ O$  OO $.    O O. $ .  .   8 ..   o  O $>.$ OO.8.8 .>. OO .$  $ O$  OO $.    O O. $ .  .   8 ..   o   X$.  X =X$> O OXOX#XXX. X--#*...X-.ooo++..oo++o,;#X&..oX;XXX#OXO $>.$ OO.8.8 .>. OO .$  $ O$  OO $.    O O. $ .  .   8 ..   o  ",
"  O   .O OO.> . . .   O  O O $>    .  $    ..  O .O O $O . #O.O   O   .O OO.> . . .   O  O O $>    .  $    ..  O .O O $O . #O.O  XXX X oo O X..$XXXXX@*XXX@XX@. .X@. ..+= oooo+o. oo..XXX#XX#XO.  O   .O OO.> . . .   O  O O $>    .  $    ..  O .O O $O . #O.O ",
"O.$$ . OO.$.> . .OO..O        O        %..    .O. O O.h..  1 .O.O.$$ . OO.$.> . .OO..O        O        %..    .O. O O.h..  1 .O. .O%  OXo.$$X .XX.&#XX:2X.X#X .XX.*oXXXX+ooo+++o.. .oXX@;;@@@XX O.$$ . OO.$.> . .OO..O        O        %..    .O. O O.h..  1 .O.",
" .$>     O  OO . O O.O..O  O.OO           . .    .   OO X .# O   .$>     O  OO . O O.O..O  O.OO           . .    .   OO X .# O   .X% O .=.$$XX$OX.X1X-*#XX* X@#@X&@X* *<+oo+++oo.XXX.X;,;#&-#.XX .$>     O  OO . O O.O..O  O.OO           . .    .   OO X .# O  ",
"  O  &O $   OO.  $O   . oO OO O .      %o   ..  . OO.O     # o    O  &O $   OO.  $O   . oO OO O .      %o   ..  . OO.O     # o  .. .X%X.+ OOX >XXXX#X%@#XX@&X*@@-#XXXX.oo.oooo...XXXXX&X-X*-#XXX  O  &O $   OO.  $O   . oO OO O .      %o   ..  . OO.O     # o  ",
"  O $1 o8$  >   .O .  % ..  .> .   . .$ .   .o>.. .%  $   OOO ..  O $1 o8$  >   .O .  % ..  .> .   . .$ .   .o>.. .%  $   OOO ..X.O.X# o+ O OX .X.XXX-###X@XX;X.@*@XoX*XoX..X#XXXX@#7#X@@X:@@XOO  O $1 o8$  >   .O .  % ..  .> .   . .$ .   .o>.. .%  $   OOO ..",
"O O O# >>. OO   .  ...  o O  O  .       .. $ . .      $  .$.    O O O# >>. OO   .  ...  o O  O  .       .. $ . .      $  .$.    $.$  %XX=OO.OXX$X XXX%X@XX@XX@@##X*<.#< =XX#XXX@@*@#*X@#*@&#--OOO O O# >>. OO   .  ...  o O  O  .       .. $ . .      $  .$.    ",
"   O # O . O O         .   .>. O .  . OO  OOo O .     O   O.o$.    O # O . O O         .   .>. O .  . OO  OOo O .     O   O.o$.  XX  $ %+ XO O.>XXXXX###@#@@#@X*@.#@X*Xoo#Xo.X@2&#;3t.X@X#;##$ $   O # O . O O         .   .>. O .  . OO  OOo O .     O   O.o$. ",
"    O. $ . OO    X  O   . . O   ..     . %.O OO.   O  O$   . O..    O. $ . OO    X  O   . . O   ..     . %.O OO.   O  O$   . O..X X  X X+   O.X$XXXXXX#@###X@@X*#X#@X.@XoXoXXX#@X@X**##@X2;X#XX     O. $ . OO    X  O   . . O   ..     . %.O OO.   O  O$   . O..",
"     . O.O  $O..o   ..O  .O.O .$   O       O.   .    .    o O  O     . O.O  $O..o   ..O  .O.O .$   O       O.   .    .    o O  O.. X    +X    XOXXXXXXX:-XXXXX@&@@XXXXX.=XXXXX@@X@@@-::*@,;###X      . O.O  $O..o   ..O  .O.O .$   O       O.   .    .    o O  O",
"     % $oO  O .  O    O  .O.$  $        .O   .  .  O .O.. .  ..      % $oO  O .  O    O  .O.$  $        .O   .  .  O .O.. .  .. .XX  X .+X O. .$XXXXXX#@XX#&@#X&X&X#X. .+XX.XXXX#*X@@#*&Xi2&*#XX     % $oO  O .  O    O  .O.$  $        .O   .  .  O .O.. .  .. ",
".O   1        O  % O  X   .  O  . . . X%o  .  %       O  O.O . ..O   1        O  % O  X   .  O  . . . X%o  .  %       O  O.O . .OO ..% X+OX  O O#&X#X%XXX&@X#@XXXXX@X#@o+X o.XXX-X.@;:2@#;:-X.XX.O   1        O  % O  X   .  O  . . . X%o  .  %       O  O.O . .",
" OO .   .  OO   .OO  .  O    O .  .   .#. .   .O ..   O O. O  o. OO .   .  OO   .OO  .  O    O .  .   .#. .   .O ..   O O. O  o.XX.XXX.X+OO .oX$XXXXXXX.XX&X@#@*X@@@XX*X=X.XX.@.XXX@:@X2*:X&@X.. OO .   .  OO   .OO  .  O    O .  .   .#. .   .O ..   O O. O  o.",
"   O.    O.  O . OO .    .O  .O  .    o$ .  O..$O   O . .o   . O   O.    O.  O . OO .    .O  .O  .    o$ .  O..$O   O . .o   . O.   . XX+XXOo.X XXXX.XXXXXX&X@@#X-.X.X@%+;oo.XX@&.&#2@@;:3,-X;.    O.    O.  O . OO .    .O  .O  .    o$ .  O..$O   O . .o   . O",
"  OO $OO  O. O  O$    . o  ..$. ..    . o .. .  .OO. .$.o. O ..   OO $OO  O. O  O$    . o  ..$. ..    . o .. .  .OO. .$.o. O .. . X..X X+ OO.OO#.XXX.XXXXX&&X@@*##XX.XXX+-o.%.X#.X#@X&:,,7,1@#.   OO $OO  O. O  O$    . o  ..$. ..    . o .. .  .OO. .$.o. O .. ",
"oO$   .$ %O          .. ..O..  .. ...  %o.  . .O   ..      . ...oO$   .$ %O          .. ..O..  .. ...  %o.  . .O   ..      . ...X.X#  .X=#$ . .OXXX&XX.XX-*X@#@@##X#.X. +#....@@@-@2*@2;-;-@##X oO$   .$ %O          .. ..O..  .. ...  %o.  . .O   ..      . ...",
".  .  ..o O O   .  .O O .. .. $ o .    ..     .... .O. .   .o  ..  .  ..o O O   .  .O O .. .. $ o .    ..     .... .O. .   .o  ..X X  XX=X . X.X#X#XXXXXXXXX#@@XX#&X&XX.+XX.XXXXX@@:@#,*;;;*XXXX.  .  ..o O O   .  .O O .. .. $ o .    ..     .... .O. .   .o  .",
" O .  ...         O  $  . O.O.O . . o.  o   ....     .O... ..  O O .  ...         O  $  . O.O.O . . o.  o   ....     .O... ..  O X   .X.+$   X .X#OO#XXXX&X##@#@@XX@X.XX+#X.XXX@X@;*@:*73**i1@.X O .  ...         O  $  . O.O.O . . o.  o   ....     .O... ..  O",
"      .O   .   O O   >. .O  .% .   .  .%.O      .o>o. O   .    .      .O   .   O O   >. .O  .% .   .  .%.O      .o>o. O   .    . X. . ..+XXX XXOX##XXX.XXX@@#@@@@X&XXXXX+XXXXXX*X*@X#*@7:*&1O#O       .O   .   O O   >. .O  .% .   .  .%.O      .o>o. O   .    .",
" .  . %  .      O. O .O . ...OO . .  Oo o   .O.. o  .    .O..... .  . %  .      O. O .O . ...OO . .  Oo o   .O.. o  .    .O.......XXX %X+.X . XOX##XXX%X&.X#@#@-XXXXXXXX+.X.#X&@@;@@#@&@<@@@#-.O .  . %  .      O. O .O . ...OO . .  Oo o   .O.. o  .    .O.....",
"  . .  .  . O ..  $ . O .O.   O.. .O....oO.Oo. ...   >  .  . . .  . .  .  . O ..  $ . O .O.   O.. .O....oO.Oo. ...   >  .  . . . .. .  X+X.O..  XXXXXXXXXXX@XX###XX@&XXX+X ..&&@*;***#X:-X@#$XXX  . .  .  . O ..  $ . O .O.   O.. .O....oO.Oo. ...   >  .  . . .",
" OO.o$   . . .o$.O . .O . .O  .o ..    .    ..O..  o>8...  . ..# OO.o$   . . .o$.O . .O . .O  .o ..    .    ..O..  o>8...  . ..# .  . ..+OO..X $XXXX.X@XX&&@@@#*X@XXX..X=X..XX&**22@@;..XX:#XXXX OO.o$   . . .o$.O . .O . .O  .o ..    .    ..O..  o>8...  . ..#",
".OO.  OoO.OO    o    o.O. O  O O       .   O .$.O.o.#       .   .OO.  OoO.OO    o    o.O. O  O O       .   O .$.O.o.#       .   . X..  o=OO.XXX.XXX..X##X&&@@@@@&@&&..XX=.X.XXX@22*@X@X@&X@###X..OO.  OoO.OO    o    o.O. O  O O       .   O .$.O.o.#       .   ",
" O   O   .    ....     O. .O $   .    .%   .. . O...O.O o.O o .  O   O   .    ....     O. .O $   .    .%   .. . O...O.O o.O o . ..X  X o+OX   $XX.XXXX#XX&XX##*@XXXXXXX.+X. XXX@*@@@#XX:X.@@XX.. O   O   .    ....     O. .O $   .    .%   .. . O...O.O o.O o . ",
" .O .  O. O#.  .   ... Oo .O.$   .     O . O... o. .    o O . .$ .O .  O. O#.  .   ... Oo .O.$   .     O . O... o. .    o O . .$..X.    +.OX..$$..X.XXXXX@&XXX*&X#X&.XX.+X.XXXX*@@@@@&@@X@*#XXXX .O .  O. O#.  .   ... Oo .O.$   .     O . O... o. .    o O . .$",
".#O .   .O        .. . O       $   .  .  O.o  ... .O .O.... .. ..#O .   .O        .. . O       $   .  .  O.o  ... .O .O.... .. ...X... o+OOX.X X.XX.....X&XXXXXXX&&-X.XX+XXXX.X*XXXXXX@XXX&1X1XO.#O .   .O        .. . O       $   .  .  O.o  ... .O .O.... .. .",
"    . . %     ..O .O O. . .$  O$.    .. .   .. ..O Oo.O  oO .O      . . %     ..O .O O. . .$  O$.    .. .   .. ..O Oo.O  oO .O  ..XX. Xo= X . XO.XXX.X.X-XX.X*X&XX&#Xo.X+XX#XX.&XXXXX.XXX@&XXOOX    . . %     ..O .O O. . .$  O$.    .. .   .. ..O Oo.O  oO .O  ",
".   .# . $ O . .#.O  O .O.O OO   ... .%  .o ..OO O. .O  . @. O  .   .# . $ O . .#.O  O .O.O OO   ... .%  .o ..OO O. .O  . @. O  .. X.OXo=XXX.X O..XX.&XXXXXX.@#XX&.XX.o.+.&XXXXX&X&XX&XXXX&X#.XX.   .# . $ O . .#.O  O .O.O OO   ... .%  .o ..OO O. .O  . @. O  ",
" OO.   . $ O.O. .8 O.  O O . .      . $ O ..o O  ..     oo O Oo. OO.   . $ O.O. .8 O.  O O . .      . $ O ..o O  ..     oo O Oo.. .X.XX.+OO.X X ...X.X@XXXXXXXXXX&XX..oo=XXXXXX&X@X.X.XX@&&#.XX  OO.   . $ O.O. .8 O.  O O . .      . $ O ..o O  ..     oo O Oo.",
"   o   .. $ O.   OO ..   O       O .  %. O  .O    o .O   o.O   .   o   .. $ O.   OO ..   O       O .  %. O  .O    o .O   o.O   .XX ..  .+  .XXX XXX..X#X...@*XXXXXX.X..o+.XXXXXXX-XXXXX.XXX#X#X.   o   .. $ O.   OO ..   O       O .  %. O  .O    o .O   o.O   .",
" OO r . .. $ .  O.OO   o    O  O  .. .#.   o..O .O.  O . o  .  o OO r . .. $ .  O.OO   o    O  O  .. .#.   o..O .O.  O . o  .  o   X.X.o=OOX. .O..XX.X@XXXo@2#.XX.XX... +oXXX&X@@X.XXXXXXX.XX#X. OO r . .. $ .  O.OO   o    O  O  .. .#.   o..O .O.  O . o  .  o",
"O ..     .OO ..   O . O.O... . O .    %o ... . oOO. ..  . . ..  O ..     .OO ..   O . O.O... . O .    %o ... . oOO. ..  . . ..    .  O o+.... .X.X.XXXX.XX..@#.XX.  ..oo+oX..XXX&...XXXXXXX#X#X O ..     .OO ..   O . O.O... . O .    %o ... . oOO. ..  . . ..  ",
"o  .O    .     .. .. .  . .. o   o    .  . .  ..O  . .. o  . .  o  .O    .     .. .. .  . .. o   o    .  . .  ..O  . .. o  . .    ..  X +    .XOXX..XXXXoXXXXXXXX..Xo.oo=..XX.XX.XX..XXXX.&XOX. o  .O    .     .. .. .  . .. o   o    .  . .  ..O  . .. o  . .  ",
"  ..X  $ ..    .o  .O  ..  .  Oo  ... .o   .. ..   .   O O.  .    ..X  $ ..    .o  .O  ..  .  Oo  ... .o   .. ..   .   O O.  .     ..XXo+ . O.XOXXX..XXXXX.XXXXXXX.ooXXo=o.XXX*XXXXX-XX.XXXXX#..  ..X  $ ..    .o  .O  ..  .  Oo  ... .o   .. ..   .   O O.  .  ",
"O. o..   . . Oo  .Oo  ..  $.%   . ..    o  . O Oo    .      .o$ O. o..   . . Oo  .Oo  ..  $.%   . ..    o  . O Oo    .      .o$ .X o oOo=.X ..X%.X..XooXX.XXX.X%....oo..+..X9k9*3@;32&XX.&XXXXX O. o..   . . Oo  .Oo  ..  $.%   . ..    o  . O Oo    .      .o$ ",
"o..  . .O   . o.  .... . oO..  .   .  ...  oOO. o.   O  o . . . o..  . .O   . o.  .... . oO..  .   .  ...  oOO. o.   O  o . . . ... X. o= .X . ....XX....X.XX.X. X.*@..oo;66<.o++=o.X@X.XXXo.X. o..  . .O   . o.  .... . oO..  .   .  ...  oOO. o.   O  o . . . ",
"   o  ..O    Oo.       . . O...  . ..  o . o O ..o .O   ..     .   o  ..O    Oo.       . . O...  . ..  o . o O ..o .O   ..     ...X.  ..+    X....X.XX..XXXXXX....X;;@@.5uX++oX+w.++=oXooXXX..X    o  ..O    Oo.       . . O...  . ..  o . o O ..o .O   ..     .",
"$. o.  o$ ..  o   ....   .  o o. . .   o   ..  ..o. $.  + O . ..$. o.  o$ ..  o   ....   .  o o. . .   o   ..  ..o. $.  + O . ..   . ..X+. .. X.....X...X.....XX.X.@@.X1uX+o X.+*a=+=+=.+.<XXXX.$. o.  o$ ..  o   ....   .  o o. . .   o   ..  ..o. $.  + O . ..",
"$. .. . .. O.  .O o... oO. .       .  O. .. .$  .o  .  . o$. .o.$. .. . .. O.  .O o... oO. .       .  O. .. .$  .o  .  . o$. .o. .X   .X+.X ...O.......o..XX...X.aX-o+*e*+o.ooo=X.+=+ +oo+2X.XO.$. .. . .. O.  .O o... oO. .       .  O. .. .$  .o  .  . o$. .o.",
" OO.. .O. O ...o. .  . oOO .> .O .  .. .  . o. .o.O o  .+..  ..  OO.. .O. O ...o. .  . oOO .> .O .  .. .  . o. .o.O o  .+..  .. . .X   X=OO .XX>.o.....oo&X..XX#@:.Xo.55+.Xo.oX.,oo=oo.+.o+X.%O  OO.. .O. O ...o. .  . oOO .> .O .  .. .  . o. .o.O o  .+..  .. ",
"  . . . ..$   ..  . O. .. .O  ...O .    o$ o.. .o.  .   o oO .    . . . ..$   ..  . O. .. .O  ...O .    o$ o.. .o.  .   o oO .  o... .XX=..X+  Ooo..o.X.X..X+X#@;#-#=#,.+.o@@X3.&X.++o3. .+. OXX  . . . ..$   ..  . O. .. .O  ...O .    o$ o.. .o.  .   o oO .  ",
"   o .  +.  . Oo.   O  . . O.O.O      X .......O..  o..       .    o .  +.  . Oo.   O  . . O.O.O      X .......O..  o..       . X .. . .+  .X.XX.....@X#XX..o.X.o.XX=@<o+ooXX7oo*;-+oX.XXX+X.XX    o .  +.  . Oo.   O  . . O.O.O      X .......O..  o..       . ",
"   .O . . . .   o.   .  %..  ..   . X.  .  O.o .    .. .o .. .     .O . . . .   o.   .  %..  ..   . X.  .  O.o .    .. .o .. .  o .X.  .+  .O .X...o..+oX..o....... =#@+=oooX<o;X#oo...%XX=XXXOX   .O . . . .   o.   .  %..  ..   . X.  .  O.o .    .. .o .. .  ",
" ...Oo.. ..  O......     .. rO.O    . O... .  Oo    O..O..O. .O  ...Oo.. ..  O......     .. rO.O    . O... .  Oo    O..O..O. .O X. X ..X+...$...o...XoooX....o......+:.ooooooo.6..=....XXo+.X..X ...Oo.. ..  O......     .. rO.O    . O... .  Oo    O..O..O. .O ",
" . .   .. o  ... ...      .  .. . %. ... Oo%oO   .O. OO.r O  .   . .   .. o  ... ...      .  .. . %. ... Oo%oO   .O. OO.r O  .   .   . X+. XO Xoo....oo+oo+o+++==+=.oj.@o.=+o+=o++o:..X&@=+XXo.. . .   .. o  ... ...      .  .. . %. ... Oo%oO   .O. OO.r O  .  ",
" .. ...o     .q    o.  .O  .  ... .%   .   q.  .Oo O.O  rO. .  . .. ...o     .q    o.  .O  .  ... .%   .   q.  .Oo O.O  rO. .  ..    ...+..XX .o.....ooo....ooo=++.5o=.XX#oo+o++oX.lXX.3o+o.oX.. .. ...o     .q    o.  .O  .  ... .%   .   q.  .Oo O.O  rO. .  .",
".  o... . O   . . O.  ..# O..%  .  X.  .   . .   o OO . . o . oo.  o... . O   . . O.  ..# O..%  .  X.  .   . .   o OO . . o . oo.  ....o= X. .. ..ooooooo..oooo+ooX@++oo.*,.@.==oXo53%:%+=X...X..  o... . O   . . O.  ..# O..%  .  X.  .   . .   o OO . . o . oo",
"..  .. ....  ....  o. ...o O.   . .O.. . o.O. O.  .  .. ..  .  o..  .. ....  ....  o. ...o O.   . .O.. . o.O. O.  .  .. ..  .  oX.X.X..o+o. o.X o.o.ooooooooooooqoXX+==+=7437zo==.o&:X.+=o..o..o..  .. ....  ....  o. ...o O.   . .O.. . o.O. O.  .  .. ..  .  o",
". oo. ..  .O % ... . . .%   .  o  %%  O.  %O.  ...     %Oo.... .. oo. ..  .O % ... . . .%   .  o  %%  O.  %O.  ...     %Oo.... .X...... +Xo%. ..oooooooooooooooooo@.+=+===.Xx<-2<;%:X++= .o.X.X+. oo. ..  .O % ... . . .%   .  o  %%  O.  %O.  ...     %Oo.... .",
".oo.%o.. .    q.O   oo  .  .O%  . o   .o .O..  oOo  ..  %.O . o..oo.%o.. .    q.O   oo  .  .O%  . o   .o .O..  oOo  ..  %.O . o..o.X..+o+..X..O.oo.ooo+oooooooooo.o+++p=+=+=+oo.o+++++o..oo.X.o..oo.%o.. .    q.O   oo  .  .O%  . o   .o .O..  oOo  ..  %.O . o.",
"Oo..OO. O.. . . ...  .      O $  .% ....O  . .o .   . .  . .. ..Oo..OO. O.. . . ...  .      O $  .% ....O  . .o .   . .  . .. .. +.... o= . OO.Xooooooooooooooo.oo=+===+++++++++=+qoo.ooooo....+Oo..OO. O.. . . ...  .      O $  .% ....O  . .o .   . .  . .. ..",
"  . .$. . & %.    .. o O# O    O11 %     #       o  . %.  . o ..  . .$. . & %.    .. o O# O    O11 %     #       o  . %.  . o .... ....o=X%.XO.Oo.ooooooo.oooooooooo=o+o++oo+o+++.&X.ooo ooo...   . .$. . & %.    .. o O# O    O11 %     #       o  . %.  . o .."
};
