/* XPM */
static char *COMPOHSO[] = {
/* columns rows colors chars-per-pixel */
"128 128 24 1 ",
"  c #332B13",
". c #272727",
"X c #232323",
"o c #533F2F",
"O c #2B230F",
"+ c #3F2F17",
"@ c #4B371B",
"# c #000017",
"$ c #000023",
"% c #000047",
"& c #00003B",
"* c #000053",
"= c #00000B",
"- c #43331B",
"; c #00002F",
": c #373F27",
"> c #533F1F",
", c #00006B",
"< c #4F3B23",
"1 c #1F170B",
"2 c #5B472B",
"3 c #000083",
"4 c #3F472B",
"5 c #5F4323",
/* pixels */
"+- ++O+- + -+ - + +O@O****O  O  O      O     O****OO@O  @+ - O@@+-+   +  +O-  +  O+O@O****O  O  O      O     O****OO+O  ++ - O- ",
">- -  +  --  -  ++O+ O****O+  + +O+ O++O+ O  O****O      @ >- @ --+-  -  --+ - -+ O+ O****O+  +  O+  ++O+ O  O****O      + -- - ",
"@+O@+    + @+@ @ <> +O****O > @ O @+O+++   @ O****OO+ + ++O@-   - O-+    + -+- + <> +O****O - - O -+O ++   - O****OO  +   O--   ",
"++O++++@O+:@ O++  O  O%%%*O+@ @ + @+ + +O+ @+O%%%%O +O+ O O-O++@++O++++@O+:@ O++  O  O****O+@ @ + @+ + +O+ @+O****O +O+ O O-O++@",
"OOOOOOOOOOOOOOOOOOOOOO&&&%OOOOOOOOOOOOOOOOOOOO&&&&OOOOOOOOOOOOOOOOOOOOOOOOOOOOOOOOOOOO****O  @ O+ +@+ O  +  @O****OOOOOOOOOOOOOO",
"&&&&&&&;;$$$$&$$,$$$*$$$$*$$%$,$$$%$%$$$$*$;$*$%$$;#;$$;;&&&&&&&%%%%%%%%%%%%%%%%%%%%%%****O     +@O +@O O+   O****%%%%%%%%%%%%%%",
"******%&;$$;$%$$,$$$*$$$$*$$%$,$$$%$%$$$$*$;$*$%$$;#;$$;&%********************************O +  +@  +O+ +O+ O+O******************",
"******%&;&&&&%;;;;;;*;;;;*;;%;,;;;%;;;;;;*;&;*;;&&&&&&&;&%********************************O  +OO O+ O+@ O   +O******************",
"******%&;#$;;&=$,$$$*$$$=*$;%$,$*$%$%$$;#*$;;*$%$$;#;$#;&%********************************O   +  O> O +++  ++O******************",
"+++++ + @#$;$%=$,$$$*%%%%*$;%$,$*$%$*$$;#*$;;*$%$$;#;$#O+++++++++++++++++++++++++++++++++++O +O +  @+      O++++++++++++++++++++",
"+ +O @+ O&&%&%;&,$$$*$$$=*$;%$,$*$%$*$$;#*$;;*$%&&%;%&&O   + -   -  -@+ +++@ +>++  @ O + +  >  +>  @+ OO   ++  O@O + @   -  -@+ ",
"   +O++ O#$;$;=$;;;;*;;;;*;;%$,$*$%$*%%%&,%%%,$%$$;#;$#O @   @@  --   +   O- -+ +  -    + + --O-++O+  -  +   O    +   -+ -+  ++ ",
"@ ++-+  O&&&&&$&,&&&*&&&$*&&%&,&*&%&*&&&;*&&&*&%&&&;&&&O   @O@- O-+ ++ +O    -O++  +   +  @ + -+    + +  + O      -     O-+ +   ",
"  + -   O$$;$;=$,$$$*$$$=*$;%$,$*$%$*$$;#*$;;*$%$$;#;$#O  O   -   + O-  O + -+  O-    ++ O-+  ++ O   + -    --- O --      + O   ",
"++++   +O#%%%%%%%%%%%%%%%%%%%%%%%%%%%%%%%%%%%%%%%%%%%%%O   +   @   -   + +  -  +O   +OO+ +    +        +   +O-  O  +O +O   -    ",
"   + +O+O#$;$;=$,$$$*$$$$*$$%#,$*$%$*$$;#*$;$*$%$$;#;$#O      -   +  +O++++ - +O   +    +  ++ +        +O      + +O-   +  +   O+",
"@  O   +O&&&&&$&,&&&*&&&&*&&%;,&*&%&*&&&;*&&&*&%&&&;&&&O   @--@--+--++ +- -    +-++       -@      + -     -O-O      + + ++--+  +",
"@OO    +O#$;;;;;;;;;*;;;;*;;%;,;%%%%%%%%%%%%%%%%%%%%%%%O O @-  -- ++O  -+-- --+-  -       +     -   O+ -+    +      + --+  +O   ",
"<+O+ @ +O%%%%%%%%%%%%%%%%%%%%%%%*$%$*$%;#*$;**$%$$;#;$$OOO  - @-- -+O-   O>O> O-O +  O-  +  + ++  +O      +O - O  O   @ + -+O-  ",
"OOOOOOOOO##$#$=#%&&&&&&&&&&&&&%&&#&#&##$#&#$&&#&##$#$##1OOOOOOOOOOOOOOOOOOOOOOOOOOOOOOOOOOOOOOOOOOOOOOOOOOOOOOOOOOOOOOOOOOOOOOOO",
"%%%%%%%;$#$;%;=$,$$**$$$**$$*#,$*$%$*$$;#*$;**$%$$;#;$#$$%%%%%%%%%%%%%%%%%%%%%%%%%%%%%%%%%%%%%%%%%%%%%%%%%%%%%%%%%%%%%%%%%%%%%%%",
"******%&$#$;%;=$%%%%%%%%%%%%%%,$*$%$*$$;#*$;**$%$$;$;$#$;%**********************************************************************",
"******%&$#$;%;=$,$$**$%$**$$*#,$*$%$*$*;***;***%$$;#;$#$;%**********************************************************************",
"******%&$#$;%;;;;;;;*;%;;*;;%;,;*$%$%$3;#*$;**$%$$;#;*&*************************************************************************",
"****&&&;$;&&%&$&,&&**&%&**&&%;,&&,%&%&&&&*&&&*&&&&&&&&;&&%**********************************************************************",
"****&&&;$#$;%;=$,$$**$%$**$$%#,$*$%$*$$;#*$;**$%$$;$;$#$;&**********************************************************************",
"+++++O @ &%%%%%%%%%%%%%%%%%%%%%%*$%$*$$;#*$;**$%$$;#;$#+++++++++++++++++++++++++++++++++++++++++++++++++++++++++++++++++++++++++",
" +  -O +O#$;$;=$,$$**$%$**$$%#,$%%%%%%%%%%%%%%%%%%%%%%&O  O          O +O+  @+OOO   OO+  O+O+ O@   +       +O   O    O       O +",
"  OO : @O##$#$=#%##&&#&#&&##&#%=&=&=&#*$#&#$&&#&##$#$##OO O          : @O+  + O  +    +  O+O@  @        O+   O  O  + O+O     - -",
"+ O O4  O#$;$;=$,$$**$%$**$$%#,$*$%$%;;;;*;;**;;$$;#;$#O +O+O-  O-  O4        +  : +  -   O  +  O O O -:O  O  :       + O-  O:  ",
"+  OO   O#$*;;;;;;;;;;%;;;;;;;;;;;%;&;;;;*;;;*;;;;;;;$#O+O + --  -- O   O  ++   O++  O  +    + O  O   O<O O   O+ OO   +  ++ O   ",
"  O -   O#$*$;=$,$==*=%==*===#,$*$%$*$$;$*$;**$%$$;#;$#OOO     -   -     +O  + O ++ O    O+  O+  O    O@ O  +OO@+   + O    +    ",
"+ OO @++O#$*$;=$,$$$*$%$**$$$#,$*$%$%$$;$*$;**$%$=;#;$#OOO +  --  -- @++  +O +  +@    O O  OO@O OO    O O OO O  O++O O@O  +- + +",
"O OOO O@O#$*$;=$,;;;*;%;;*%%%%,%%%*%*%%%%,%%,%%%%%%%%$#O   OO-@ O-@   O@ :+          OO OO+OO  OO OOO  :OO  O O+   OO   O+-   O+",
"OO  O OOO#$*$;=$,$$$*$%$**$$$#,$*$%$*$$;$*$;**$%$,;#;$#O   OO  OO  O  OOO + +   O  O+ + OO OO @ O O    OO     OOOO O+O OO  O  OO",
"OO  - OOO#$*$;=$,###*#%#**####,#*#%#*$$;$*$$**$%$*;#;$#OOO O - O - OO OOO         +  @  O +O+O+ O O OO  O   OOOO     O+O - OO OO",
"OOOOOOOOO#$*%;=$,$$$*$%$**$$$$,$*$%$%$*;******$%$*;#;$#OOOOOOOOOOOOOOOOO   O   + +   >O O+  O: O   O  O:O+      OO>OO + OOOOOOOO",
"&&&&&&&;###&#$=#%#$$&$&$$&$$$$%$$$&$;$$$$&$$$&$$$&$$$$##;&&&&&&&%%%%%%%% O      +O + O+ O OOO++ O O  +O O   O+OO O  O   %%%%%%%%",
"******%&$#$*$;=$,$$$*$%$**$$$$,$*$%$%$$;$*$$**$%$*;#;$$$&%**************  O + OO  @ O + O+O   +OO O+OOOOO+O+OO OOO      ********",
"******%&$#$*$;=$,%%%*%%%%*%%%%,%%%%%%%%;%*%=%*%%%%;%;%%$&%************** O O OO@O+ O O+ O O+  OO OO    O    OO+OO  O  OO********",
"******%&$##;;#=#%###;#;##;####%##=;#%####;#=#;;##&###$$$&%**************+O++    O    OO+O +  + +       O   + O@O+OOO    ********",
"+++++++++;#;##=#%###;#;##;####%##=;#&####;#=#;;##;####&+++++++++++++++++ O    OOOO     +O O+ @   O    O:   OO O +OOO+O+ ++++++++",
" O O@  +O;;;;;;;;;;;;;;;;;;;;;;;;;;;;;;;;;;;;;;;;;;;;;;OO +  O-  O- O  +O +<O  O   OOO +O O+O@   O     + O +OOO OO O     O- O  +",
" OO O   O##;##=#%###;####;####%###;#$####;#=*;;**;####$OOOO O-- O-- O   O+        OO O +       @   O  O  +OO  OOO O+ O+OO-- O   ",
" O+   O O$=#====;===#=#==#====;===#=;====#===##==$====#O O+         O O :     OO+ O+ +O O O@  +@O    OO O   OO OO+ +OO+     O O ",
"O +  < OO##$##=#;###;#;##;####;##=$#;##;;;;=#;;##;#####OO 2OO   O    < O @ + O O<O+  + O+O+ ++   OOO O:  OO OO++ +O O+  O    < O",
"+ +OO  OO##;#;=#;###;#;##;####;##=$#;####;#=#;;##%####;OOO + --O --O   O @ +O+O O5 +O  + + O O      O @ + OOO +  OO      --O   O",
"+   O  OO;;#;;;;;;#;$;;;;$;;;;;;;;$;;;;#;$;;;$;=;;#;#;;O OO+   O   OO  OO @ +O   ++ OO   +       + O  :O +  O+    O O+     OO  O",
" O  O O O#####=#####$####$=###;#$#$#;####$##=$#=#######1 O   --  --   O OO @ O  +O++   O    +  +  OO O<O   OOO+ O+O  + O --   O ",
" OO     O#####$$$$$$$####$=###$#$###;####$##=$#=#######OO O - OO- OO-    O++ OO   + O +O+OOO O + O    :O OOO O O++O OO  - OO-   ",
"O O     O#====$=====#####$====$=#===$====$===$=========OO  OO  OO  OO    O     OO OO O  O OO O   O    O  O O  OO+  O OO O  OO   ",
"OOOOOOOOO#====$=====#====#====#=====#====#===#========#1OOOOOOOOOOOOOOOOOOOOOOOOOOOOOOOOOOOOOOOOOOOOOOOOOOOOOOOOOOOOOOOOOOOOOOOO",
"&&&&&&&;======$=====#====#====#=====#=================#=;&&&&&&&%%%%%%%%%%%%%%%%%%%%%%%%%%%%%%%%%%%%%%%%%%%%%%%%%%%%%%%%%%%%%%%%",
"******%&======$=====#====############===================&%**********************************************************************",
"******%&#=====$=====#====#====#=====#===================&%**********************************************************************",
"******%&======$=====#====#====#=====#====#===#==========&%**********************************************************************",
"+++++++++++++++++++++O;;;;++++++++++++++++++++;;;;+++++++++++++++++++++++++++++++++++O****++++++++++++++++++++****++++++++++++++",
"  OO  O+O + OOOOO O  O&&&&OO> O+ O  OO O  O OO&&&&O O  O1OO  --O  OO  O+O + OOOOO O  O****OOO O+ O  OO O  O OO****O O  O1OO  --O",
"  O   O OO@   OO  O +O&&&&O+  OOO+ O    O@ OOO&&&&O O   O O+  O   O   O OO@   OO  O +O****O+  OOO+ O    O@ OOO****O O   O O+  O ",
"   O O  1O  O +OO   +O&&&&O+O+O+      - OOOOOO%%%%O OOO        O   O O  1O  O +OO   +O****O+O+O+      - OOOOOO****O OOO        O",
"  O   O O O O   OO   O%%%%O  OO   O -O  O  +OO%%%%O OO OO OO   O  O   O O O O   OO   O****O  OO   O -O  O  +OO****O OO OO OO   O",
"  O+ OOO OO  +OOOOOO O%%%%O .+O+    O +OOO O O****O +OO+OO+O OOO  O+ OOO OO  +OOOOOO O****O .+O+    O +OOO O O****O +OO+OO+O OOO",
"  O    OO O  OOO OOO O****O  OO OOOO OOO +OOOO****OO ++O. +  O O  O    OO O  OOO OOO O****O  OO O OO OOO +OOOO****OO ++O. +  O O",
" O  OOOO     OX    OOO****OO  OOO OO   O   XOO****O+O+  .+O  OO  O  OOOO     OX    OOO****OO  OOO OO   O   XOO****O+O+  .+O  OO ",
"OO OOOO O +   O O +O O****OOOO  O  -O  O   O O****O++ O O O O  OOO OOOO O +   O O +O O****OOOO  O  -O  O   O O****O++ O O O O  O",
"OO  OO OOOO  OOOO  OOO****O+O   O O+OO O OO+OO****O  OO OO  OO  OO  OO OOOO  OOOO  OOO****O+O   O O+OO O OO+OO****O  OO OO  OO  ",
"OOO O OO  O+ O OOO O O****O O  O  OO  +O  O+OO****O    O+OOOO OOOOO O OO  O+ OOOOO O O****O O  O  OO  +O  O+OO****O    O+OOOO OO",
"OO OOOOO O    XO+   OO****OO+O  O O   OO O+OOO****O OO  OO+ OOOOOO OOOOO O    XO+   OO****OO+O  O O   OO O+OOO****O OO  OO+ OOOO",
"+O OO+O +OO O O OOO  O****O + @  OO OOOO+  O O****O O O  O O-OOO+O OO+O +OO O O OOO  O****O + O  OO OOOO+  O O****O O O  O O-OOO",
" O OO@O O o OO    OO O****O    +OO O     <   O****O O OO  O   O  O OO@O O O OO    OO O****O    +OO O     O   O****O O OO  O   O ",
"+O O    +  - O   +   O****OO   OOOO-++O- - + O****O+   OOO+O-   +O O    +  - O   +   O****OO   OOOO-++O- - + O****O+   OOO+O-   ",
"+O  +   -O+- -   O-+ O****OO O O -  O+ O     O****O   O  O  - + +O  +   -O+- -   O-+ O****OO O O -  O+ O     O****O   O  O  - + ",
"+-+   +  +O-  +  O+O@O****O  O  O      O     O****OO+O  ++ - O- +-+   +  +O-  +  O+O@O****O  O  O      O     O****OO+O  ++ - O- ",
"--+-  -  --+ - -+ O+ O****O+  +  O+  ++O+ O  O****O      + -- - --+-  -  --+ - -+ O+ O****O+  +  O+  ++O+ O  O****O      + -- - ",
"- O-+    + -+- + <> +O****O - - O -+O ++   - O****OO  +   O--   - O-+    + -+- + <> +O****O - - O -+O ++   - O****OO  +   O--   ",
"++O++++@O+:@ O++  O  O****O+@ @ + @+ + +O+ @+O****O +O+ O O-O++@++O++++@O+:@ O++  O  O****O+@ @ + @+ + +O+ @+O****O +O+ O O-O++@",
"OOOOOOOOOOOOOOOOOOOOOO****O+OOOOOOOOOOOOOOOOOO****OOOOOOOOOOOOOOOOOOOOOOOOOOOOOOOOOOOO****O  @ O+ +@+ O  +  @O****OOOOOOOOOOOOOO",
"%%%%%%%%%%%%%%%%%%%%%%****O +%%%%%%%%%%%%%%%%%****&&&&&&&&&&&&&&%%%%%%%%%%%%%%%%%%%%%%****O     +@O +@O O+   O****%%%%%%%%%%%%%%",
"**************************O ++%***********************************************************O +  +@  +O+ +O+ O+O******************",
"**************************O  ++%**********************************************************O  +OO O+ O+@ O   +O******************",
"**************************O   ++%*********************************************************O   +  O> O +++  ++O******************",
"+++++++++++++++++++++O****O+ +O +++++++++++++++++++++++++++++++++++++++++++++++++++++++++++O +O +  @+      O++++++++++++++++++++",
" -  -@+ ++ - +-++  @ O****O >  +@  -+ OO   ++  O@O + -     + +O  -  -@+ +++@ +>++  @ O + +  >  +>  @+ OO   ++  O@O + @   -  -@+ ",
" @@  ++ +  -O-- -  @ O****O @@O+++ +  -  +   O    +   -- -    +O --   +   O- -+ +  -    + + --O-++O+  -  +   O    +   -+ -+  ++ ",
"O@- -+       - -+  + O****O+  @       +  + O      @        @ ++-O-+ ++ +O    -O++  +   +  @ + -+    + +  + O      -     O-+ +   ",
"  - O   O + -+       O****O+  ++    ++     +@@  O --      O  + -  + O-  O + -+  O-    ++ O-+  ++ O   + -    --- O --      + O   ",
"   @     +  -  +  O +O****O   +      +    ++O@+ O ++O +    ++++    -   + +  -  +O   +OO+ +    +        +   +O-  O  +O +O   -    ",
"  -  +O++ - - +    + O****O++ +         O       O+O-  ++      +   +  +O++++ - +O   +    +  ++ +        +O      + +O-   +  +   O+",
"--@--  +@ -     - +  O****O5+O+   + +     >O>O  +   +      @  O -+--++ +- -    +-++       -@      + -     -O-O      + + ++--+  +",
"-  -O  ++ - -- -  @  O****O     -   O+  @+   +      - -- O @OO  - ++O  -+-- --+-  -       +     -   O+ -+    +      + --+  +O   ",
"- @-O@ ++O@O@ O-  ++ O****O+@  ++ @O  @    OO  + O+ + @+ O <+O+ - -+O-   O>O> O-O +  O-  +  + ++  +O      +O - O  O   @ + -+O-  ",
"OOOOOOOOOOOOOOOOOOOOOO****O+ @>    O   :OOOOOOOOOOOOOOOOOOOOOOOOOOOOOOOOOOOOOOOOOOOOOOOOOOOOOOOOOOOOOOOOOOOOOOOOOOOOOOOOOOOOOOOO",
"%%%%%%%%%%%%%%%%%%%%%%****O   +         %%%%%%%%%%%%%%%%%%%%%%%%%%%%%%%%%%%%%%%%%%%%%%%%%%%%%%%%%%%%%%%%%%%%%%%%%%%%%%%%%%%%%%%%",
"**************************O+O++        :****************************************************************************************",
"**************************O++ + O    O@ ****************************************************************************************",
"**************************O O> O   O O@ ****************************************************************************************",
"**************************O  +  O       ****************************************************************************************",
"**************************OO>O + O  O ++****************************************************************************************",
"++++ O @ O ++    -  +   O O +   OO     O***** ++++++++++++++++++++++++++++++++++++++++++++++++++++++++++++++++++++++++++++++++++",
"     O +O+  @+OOO   OO+  O+O+ O@   +    *****   O    O    O +  -     O +O+  @+OOO   OO+  O+O+ O@   +       +O   O    O       O +",
"     : @O+  + O  +    +  O+O@  @        *****O  O  + O+OO O  OO      : @O+  + O  +    +  O+O@  @        O+   O  O  + O+O     - -",
"O-  O4        +  : +  -   O  +  O O O -:***** :       +  +O+ O OO-  O4        +  : +  -   O  +  O O O -:O  O  :       + O-  O:  ",
" -- O   O  ++   O++  O  +    + O  O   O<***** O+ OO   + +O +  OO -- O   O  ++   O++  O  +    + O  O   O<O O   O+ OO   +  ++ O   ",
"   -     +O  + O ++ O    O+  O+  O    O@*****OO@+   + O OO   O -   -     +O  + O ++ O    O+  O+  O    O@ O  +OO@+   + O    +    ",
"  -- @++  +O +  +@    O O  OO@O OO    O *****O  O++O O@OOO + OO   -- @++  +O +  +@    O O  OO@O OO    O O OO O  O++O O@O  +- + +",
"O-@   O@ :+          OO OO+OO  OO OOO  :***** O+   OO      O OOOO-@   O@ :+          OO OO+OO  OO OOO  :OO  O O+   OO   O+-   O+",
"O  O  OOO + +   O  O+ + OO OO @ O O    O***** OOOO O+O O   OO  OO  O  OOO + +   O  O+ + OO OO @ O O    OO     OOOO O+O OO  O  OO",
" - OO OOO         +  @  O +O+O+ O O OO  *****OOO     O+OOO OO  - - OO OOO         +  @  O +O+O+ O O OO  O   OOOO     O+O - OO OO",
"OOOOOOOOOOOOOOOOOOOOOOOOOOOOOOOOOOOOOOOO***** OOOOOOOOOOOOOOOOOOOOOOOOOO   O   + +   >O O+  O: O   O  O:O+      OO>OO + OOOOOOOO",
"%%%%%%%%%%%%%%%%%%%%%%%%%%%%%%%%%%%%%%%%*****%%%%%%%%%%%%%%%%%%%%%%%%%%% O      +O + O+ O OOO++ O O  +O O   O+OO O  O   %%%%%%%%",
"************************************************************************  O + OO  @ O + O+O   +OO O+OOOOO+O+OO OOO      ********",
"************************************************************************ O O OO@O+ O O+ O O+  OO OO    O    OO+OO  O  OO********",
"************************************************************************+O++    O    OO+O +  + +       O   + O@O+OOO    ********",
"++++++++++++++++++++++++++++****++++++++++++++++++++++++++++++++++++++++ O    OOOO     +O O+ @   O    O:   OO O +OOO+O+ ++++++++",
" O- O  +O +<O  O   OOO +O O+**** O     + O +OOO OO O    O + O O@ O- O  +O +<O  O   OOO +O O+O@   O     + O +OOO OO O     O- O  +",
"O-- O   O+        OO O +    ****   O  O  +OO  OOO O+ O+OOOO OO OO-- O   O+        OO O +       @   O  O  +OO  OOO O+ O+OO-- O   ",
"    O O :     OO+ O+ +O O O@****O    OO O   OO OO+ +OO+  O+ O+      O O :     OO+ O+ +O O O@  +@O    OO O   OO OO+ +OO+     O O ",
"O    < O @ + O O<O+  + O+O+ **** OOO O   OO OO++ +O O+  O 2O +  O    < O @ + O O<O+  + O+O+ ++   OOO O:  OO OO++ +O O+  O    < O",
" --O   O @ +O+O O5 +O  + + O****    O @ + OOO +  OO     OO + +OO --O   O @ +O+O O5 +O  + + O O      O @ + OOO +  OO      --O   O",
"   OO  OO @ +O   ++ OO   +  **** + O   O +  O+    O O+   OO+   O   OO  OO @ +O   ++ OO   +       + O  :O +  O+    O O+     OO  O",
" --   O OO @ O  +O++   O    ****  OO O O   OOO+ O+O  + O O  O  O --   O OO @ O  +O++   O    +  +  OO O<O   OOO+ O+O  + O --   O ",
"- OO-    O++ OO   + O +O+OOO**** O     O OOO O O++O OO  O O OO  - OO-    O++ OO   + O +O+OOO O + O    :O OOO O O++O OO  - OO-   ",
"O  OO    O     OO OO O  O OO**** O    O  O O  OO+  O OO O  O O  O  OO    O     OO OO O  O OO O   O    O  O O  OO+  O OO O  OO   ",
"OOOOOOOOOOOOOOOOOOOOOOOOOOOO****OOOOOOOOOOOOOOOOOOOOOOOOOOOOOOOOOOOOOOOOOOOOOOOOOOOOOOOOOOOOOOOOOOOOOOOOOOOOOOOOOOOOOOOOOOOOOOOO",
"%%%%%%%%%%%%%%%%%%%%%%%%%%%%%***%%%%%%%%%%%%%%%%%%%%%%%%%%%%%%%%%%%%%%%%%%%%%%%%%%%%%%%%%%%%%%%%%%%%%%%%%%%%%%%%%%%%%%%%%%%%%%%%",
"********************************************************************************************************************************",
"********************************************************************************************************************************",
"********************************************************************************************************************************"
};
