/* XPM */
static char *COMPUTE2[] = {
/* columns rows colors chars-per-pixel */
"256 56 63 1 ",
"  c #232323",
". c #2F2F2F",
"X c #272727",
"o c #1B1B1B",
"O c #131313",
"+ c black",
"@ c #170F07",
"# c #373737",
"$ c #1F170B",
"% c #2B230F",
"& c gray31",
"* c #434343",
"= c #332B13",
"- c #3F2F17",
"; c gray28",
": c gray39",
"> c #1F4317",
", c #43331B",
"< c gray34",
"1 c gray23",
"2 c #13230B",
"3 c #0B1707",
"4 c #3F472B",
"5 c #533F1F",
"6 c #27531B",
"7 c #0B0B0B",
"8 c #070707",
"9 c gray42",
"0 c #17330F",
"q c #53573B",
"w c #4B371B",
"e c #000053",
"r c #4F3B23",
"t c #37732B",
"y c #2F6323",
"u c #9B5B13",
"i c #6B4727",
"p c #00002F",
"a c #373F27",
"s c #4B4B4B",
"d c #00006B",
"f c #9B633B",
"g c #533F2F",
"h c #5B5B5B",
"j c #774F2B",
"k c #AB6F43",
"l c #5B6347",
"z c #874307",
"x c #B37347",
"c c #A36B3F",
"v c #777777",
"b c #000047",
"n c #732B00",
"m c #6F6F6F",
"M c #AF7B1F",
"N c gray50",
"B c #4F0000",
"V c #875733",
"C c #6F7357",
"Z c #5F4323",
"A c #67533F",
"S c #775F4B",
"D c #474F33",
/* pixels */
"................................................................................................................................................................................................................................................................",
"2222 22 X222222222                              222222222222 22 2222222X2222X22222222222222222222222222222222222222222222222222 222222222X222 2222222222222222222222222222222222222222222222222222 2222                                             2222 2 2   2",
"2222222 X222 222 OO@@O#OOOOOOO@++++@O8@OOOOO O@@@O2222222222222 222222 X2222X 2 2O&;###############1;&;1########&O22 22222222222222222222X 2222 2OO@@OOOOOOOOO@++++@O8@OOOOO O@@@O 222222  222222222oooooooooo   OO@@O#OOOOOOO@++++@O8@OOOOO O@@@O 2 22 22  2222",
"22222 2 X2 22 22 o@@@7&OOOOOOO@++++OO++$+O7+=8+O+o 22oooooooooo   2222 X 22 X  2 o;eeppbbeeppbbeeppee;++%-%%-%++1o 2222  22222   2222 2  X 222 2 +@@@7OOOOOOOO@++++OO++$+O7+=8+O++22 oooooooooo22 2 o+%-%%-%+o   +@@@7&OOOOOOO@++++OO++$+O7+=8+O++   oooooooooo2",
" 2 2 22 X        o2OO+:7OO2O7O@@@++@+++O+O8+O++O+o   o        o   2222 X    X    o#edppeeddbbeeddbbde1++rurru,++ao2 2 2222 2222   22222  X 2  22 +2OO+O7OO2O7O@@+++@+++O+O8+O++O++ 22oXXXXXXXXo     o+rurru,+o   +2OO+:7OO2O7O@@@++@+++O+O8+O++O++   oXXXXXXXXo ",
" 222 2  X        o2OO+9#.#X.XX X O+O@8+O+O@+=++O+o   oXXXXXXXXo        X    X    o.ppddbbppeebbppeepp.++%w%%w%++ao 22 22 2 2             X       +2OO+OOOOOOOOO++++O@8+O+O@+=++O+@   oXXXXXXXXo     o+%w%%w%+o   +2OO+9#.#X.XX X O+O@8+O+O@+=++O+@   oXXXXXXXXo ",
"    222 X        o$OO7#O8OOOOOOO7++++++$+2@+ ++$+o   o4 q* *4=o        X    X    oXppddbbppeebbppeepp#++++++++++ao                       X       +$OO7OO8OOOOOO++++++++$+2@+ ++$+O   o4 q* *4=o     o+%%%%%%+o   +$OO7#O8OOOOOOO7++++++$+2@+ ++$+O   o4 q* *4=o ",
"        X        O+@OOO8++++++++++++++++++++O++++o   X........X        X    X    o                 .###.XXXX.#114o                       X       O+@OOO8++++++++++++++++++++O++++O   oooooooooo     X........X   O+@OOO8++++++++++++++++++++O++++O   oooooooooo ",
"XXXXXXXX.XXXXXXXXX...............................X              XXXXXXX.XXXX.XXXXOOOOOOOOOOOOOOOOOOOOOOOOOOOOOOOOoXXXXXXXXXXX.XXXXXXXXXXXXXXXXXX X...............................X XXXXXXXXXXXXXXXX              X...............................X              ",
"                                                                                                                             X                 X                                          X       X                                                             ",
"+OOOOOOOOOOOOOOOO@@88@88@@@@@@@@@@@O@OO@@@@@@@@@@@@@@O@OO@O@@@@@@@@@@@@@@@@@@@@@@@@@@@@@@@@@@@@@@@@@@@@@@@@@@@@@@@@@@@OO@O@@@@@@@@@@@@@@@@@@@@@@@@@@@@@@@@@@@@@@@@@@@@@@@@@@@@@@@@@@@@@@@@@@@@@@@@@@@@@@@@@@@@@@@@@@@@@@@@@@@@@@@@@@@@@@@@@@@@@@@@@@@@@@@@O@@@@@",
"................................................................................................................................................................................................................................................................",
"   ooooooooooooo                                  X                    X                                               %  %  X                                                            X  X    X                                                             ",
"   o#*.**.*##**o  ooooooooooooooooooooooooooooooooooooooooo%           X         OOOOOOOOOOOOOOOOOOOOOOOOOOOO@@OOO  %%  %%%%%X      ooooooo  oooooooooooooooooooooooooooooooooooooooooo   X  X    X oooooooooooooooooooooooooooooooooooooooooooooooooooooooooo  ",
"   o#*.#&####*&o  o@@@@@3@%#.XX$ @+X++++@.$X$.@X@.$@@ X @ o%           XXXXXXXXXXo+++@++= O $.+++++O  O+++O$X$+++o %%X.====X X      o.$X$.o  o...........X6600>>660066000066.++%-%%-%+o   X  X    X o0022006>22>622226>X>622006>22>622226>X>>2200>>22>>2222>>o  ",
"   o*&#*<#*#..*o  o@3;##X-X@+$ @$@%-%+++$X%-% %-%X@++++++@o%      =.4#=.444=<q= Xo+++OO+++++++++O+++++O+++O$ O+++o % OOOOOOo%X      oX%-% o  o#k-x-k-f-f. 6y0066yy>>tt00>>t6X++rurru,+o   X  X    X o>y0066yy>>tt00>>t6 6y0066yy>>tt00>>t6 6y0066yy>>tt00>>t6o  ",
"   o&:&&N*&<#*&o  o@+:#5X,-@+$ @$$ru,%%%%-wuw-wMwX$@+++++@o%%     #qAlq ===$==$ Xo8++.O+OO++ +=+.++ ++=+++O$ O+++o %=X.====X%X      o-wuw-o  o#w5w5w5w5w. 00tt>>006600yy6600.++%w%%w%+o   X  X    X o00tt>>006600yy6600 66tt>>006600yy6600 00tt>>006600yy6600o  ",
"   o&&*&&#&##*&o  o3+955--;%%$ @$$%w%%%%%-%w%-%w%X$$$$$$$$o=%     $===#+OOO$$=O Xo@@+ O*2O 2.+O+ ++ ++ +++O$ O+++o %%oOOOOOo X      o-%w%-o  o#xikicifif. 00tt>>006600yy6600#+++++++++oXXX.  X    X o00tt>>006600yy6600 66tt>>006600yy6600 00tt>>006600yy6600o  ",
"   o&9&&9*&<#**o  o @&&&,5Z-@$ @  $%$$$$=a=%XX$%$X$$$$$$$% .%     OOOOO@OO@@O$$ Xo@$$4$+ O++#++O=++=2O.+++O$ O+++o%%=X.====X%X      oa=%XXo  o#w5w5w5w5w.                 .###.XXXX.#1o   X  X    XXo                   XXXXXXXXXXXXXXXXXX                   o  ",
"   o&&*&&#&*..#o  o @<&:#<j-   @  XXXXXX XX;XX ;XX$@,z+,z%.#=%                  Xo8++$@+O@++X+++ ++ ++ +++O$ O+++o%%%oOOOOOo X      oXX;XXo  o#kicififij. 660000660066>>0066#+++++++++oXXXX  X    X o>60000660066>>0066 660000660066>>0066 660000660066>>006>o  ",
"   o&9&&N*&:#**o  o-$&5j-55 3$ @ @++++++$  $ X  XX$$+++++$#1=%                  Xo+++=@++@++O+++.++O++=8++O$ O+++o %%X.====X%X      o  $ Xo  o#w5w5w5w5w. 6t>>00tt>>yy6600y6.++%-%%-%+o  XX  X    X o>t>>00tt>>yy6600y6 6t>>00tt>>yy6600y6 6t>>00tt>>yy6600y>o  ",
"   o#*#*&.####*o  o333-,%#X3+$ @ $,znunz$. . . . . $$$$$$$*1=%                  Xo+++++ ++OO++ +++++++++++O$ O+++o%%%oOOOOOo%X      o. . .o  o.ciVififcx. 0066yy006600>>tt00.++rurru,+o  XX  X    X o0066yy006600>>tt00 0066yy006600>>tt00 0066yy006600>>tt00o  ",
"   o<999N*:h.#*o  X..............................##111*****#=%    =**.*qll.*4*= Xo++O$+++++++ ++++++OO++++O$ O+++o %%X.==.=X%X      o#XXX#o  o...........X0066yy006600>>tt00#++%w%%w%+o  XX  X    X o0066yy006600>>tt00X0066yy006600>>tt00X0066yy006600>>tt00o  ",
"   o*&&&&#**X.#o   oOOOOOOo X X        X XXXXXXXXXX.,-.#11##=%    =.==....==    XX...............................X%%%oOOOOOo%X      X.....X  X........................................X  X.XX.    X o.................X X................X X................X   ",
"   X...........X   O&o&o&oO X X        X X=0=.    X   ======%%    .+O$.=$=# O.O X   X    X           X  %   XX    %%%%%%%%%% X      X            X  X      X                             XX  X    X X                      X X                 X            X   ",
"                   ooOoOoOo X XXXXXXXXXX X==X     X    %%%%%%%    .O X==O=.XO.O XXXXX    X      %%% %X%%  % XX%  %%%%  %%%%% X      .XXXXXXXXXXXX.  X      .XXXXXXXXXXXXXXXXXXXXXXXXXXXXXXX  X    XXXXXXXXXXXXXXXXXXXXXXXXX. .XXXXXXXXXXXXXXXXXXXXXXXXXXXXXXX   ",
"                   X######X X X        X          X       X 2                   X   X    X         %%X    %%XX  %         %  X      X            X  X                                     X  X    X X                      X X                 X            X   ",
"+++@@8@88@@O@@@@@+@88@O@OOOOOOOOOOOOOOOOOOOOO@@@@@@@@@@O@@@@@@@@@@@@@@@@@@@@@@@@@@@@@@@@@@@@@@@@@@@@@@@@@@@@@@@@@@@@@@@@@@@@@@@@@@@@@@@@@@@@@@@@@@@@@@@@@@@@@@@@@@@@@@@@@@@@@@@@@@@@@@@@@@@@@@@@@@@@@@@@@@@@@@@@@@@@@@@@@@@@@@@@@@@@@@@@@@@@@@@@@@@@@@@@@@@@@@@@",
".................................................................................................$..............................................................................................................................................................",
"   Ooooooooooooo            X X        X                  X        X                X    X      X$X  X      XX               X    X              X  X                                     X        ooooooooooooo           X X                              X   ",
"   o#*.**.*##**o            X X        X                  X        X                X    X      X$X  X      XX               X    XXXXXXXXXXXXXXX.  XXXXX.XXXXXXXXXXXXXXXXXXXXXXXXXXXXXXXX.        o#*.**.*##**o           X X                              X   ",
"   o#*.#&####*&o  oooooooo  .XX ooooooooooooooooooooooooo X        XXXXXXXXXXXXXXXXX.XXXX.XXXXXXX$XXX.XXXXXX.XXXXXXXXXXXXXXXX.    X*Cq ##4#.     X  X    X                                X        o#*.#&####*&o  oooooooo X X  oooooooooooooooooooooooooXXX.   ",
"   o*&#*<#*#..*o  o #.X2$o  X X ogg,.      ++++rM,+ XX +o X        X                        X   XOX                          X    X*$=$XXXXX   o$OOOOOOOOOOOOO ..1  OOO$s1. OO@@OOOo Ooooooooo     o*&#*<#*#..*o  o #.X2$o X X  ogg,.1;;<;1++++rM,+*;;1+o   X   ",
"   o&:&&N*&<#*&o  o1mh&X-o  X X org%3++++++++++%w%++++++o X        X O++++++++++++++++++++++OOOOO+OOOOOOOOOOO++++++$OO@@@@+O X    X            oOOOO+++++++@OOO Oo$O $OOsss#O $O# Oo OX$X$OOXO     o&:&&N*&<#*&o  o1mh&X-o X X  org%3++++++++++%w%++++++o   X   ",
"   o&&*&&#&##*&o  o.:&;X,o  X X o,5%+++B3%03+++303+303+Xo X        X O.X +++@++OOOO ++<& +o7*#**1O#;&<9:::v;OOOOOO+=O$+++++O X    X            oO+++++  O  .= ..OO  $4 #XXX ;$.4 OOo ==.== ===     o&&*&&#&##*&o  o.:&;X,oX.X.XXo,5%++++3%03+++303+303+Xo   X   ",
"XXXo&9&&9*&<#**oXXo.;;5--oXXXX.Xo,.@.&+++ru,+++rM,+wMw+#o .X.XXXXXX. OX ++++ ++OX XX7+::mo:Xv<:<v#.O$ X;<&:.O##.X.+O+++++++O X    X=..         oO+OOOOOO+@+2$ $  X*$OOOOOO$$@ OO 8Oo OOOO$$$OO     o&9&&9*&<#**o  o.;;5--o X X  o,.@.&+++ru,+++rM,+wMw+#o   X   ",
"   o&&*&&#&*..#o  o.&&&,5o  X X o#-@X++B+%w%+ +%w%+%w%+.o X X      X O OO8++@+++++++++&*&O;O<1s#:X.O$ X&*;h.o o.::X77O+++++OX.XXXXX<lS$        o$+$$ .oOOO O =  .=*$O  = X$X X =$OOo      XXXXXXXXXo&&*&&#&*..#o  o.&&&,5o X X  o#-@X++++%w%+ +%w%+%w%+.oXXX.XXX",
"   o&9&&N*&:#**o  o.<&:#<o  X X o; @#++++;+3@$+++++X+-+%o X X      X O+++++++++++++OOOOXXOoOX XX#OOOOOOOOOOOOOOO Xo++++++++O XX    4=g$        oOO= Dq.  XaX aXXXX*$O.  $XO   O$$OOo      X  X     o&9&&N*&:#**o  o.<&:#<o X X  o; @#++++;+3@$+++++X+-+%o   X   ",
"   o#*#*&.####*o  o-&5j-5o  X X o<@3:@+...++<-#++++. # <o X X      X        X         %      X  XOX  %% % %%%%  %%%  %% %    XX    4.#*.**..   oOO= aXX  $.o2X$$$ .O@+++++OO+@+@8OOo      X  X     o#*#*&.####*o  o-&5j-5o X X  o<@3:@+...++<-#++++. # <o   X   ",
"   o<999N*:h.#*o  o%5-,%#o  X X o,@3%++++++++++++++ +++#o X X      XXXXXXXXX.XXXXXXXXXXXXXXXXXXXXOX % %%% %%% %% %% %% %%%%% XX    XXXXXXXXX%%  X.................................XXXXXXXX.  X     o<999N*:h.#*o  o%5-,%#o X X  o,@3%++++++++++++++ +++#o   X   ",
"   o*&&&&#**X.#o  .......X  X X X..###################..X X X      X        X      %%%       X  XOX % % %%%%% %% %%% %   % % XX         %% %%%% %     %%  %        %   %                  X  X     o*&&&&#**X.#o  X......X X X  X........................XXX.   ",
"   X...........X            X X        X                  X X      X   %%%%%X%%%%%%%%%%%%%%  X  XOX %%%%%%  %%%% %%%% %%%%%%%XX      % %%%%    %% %% % %%%%%%%%%% % %%%%%%                X  X     X...........X           X X                              X   ",
"oooooooooooooooooooooooooooooooooooooooooooooooooooooooooooooooooooooooooooooooooooooooooooooooooOoooooooooooooooooooooooooooooooooooooooooooooooooooooooooooooooooooooooooooooooooooooooooooooooooooooooooooooooooooooooooooooooooooooooooooooooooooooooooooooo",
"OOOOOOOOOOOOOOOOOOOOOOOOOOOOOOOOOOOOOOOOOOOOOOOOOOOOOOOOOOOOOOOOOOOOOOOOOOOOOOOOOOOOOOOOOOOOOOOOOOOOOOOOOOOOOOOOOOOOOOOOOOOOOOOOOOOOOOOOOOOOOOOOOOOOOOOOOOOOOOOOOOOOOOOOOOOOOOOOOOOOOOOOOOOOOOOOOOOOOOOOOOOOOOOOOOOOOOOOOOOOOOOOOOOOOOOOOOOOOOOOOOOOOOOOOOOOOOOO",
"....................o#....................o#...................o....................o.....................o#...................o....................o.....................o....................o....................o.....................o....................o",
"X                  Xo.                   Xo.                  XoX                  XoX   %     %    %    Xo.    %%            XoX                  XoX         %         XoX         %%  %    XoX                  Xo.X                 XXo.X                 Xo",
"X .  222 2 2%%2  . XoX oX    222       . XoX .              . XoX .              # XoX .  %%%   %%  %  # XoX .   %   %%     # XoX .   % %%       . XoX .%     %%   %   1 XoX oX       %  %  . XoX .       %      X XoX X               . XoX X         %    . Xo",
"X o 2 222222%%%2 o XoX X    2222222    o XoX o              o XoX o              o XoX o  %   %% %%%%%%o XoX o%%  %%%%%%%   o XoX o %% %% %%%%%  o XoX o % %%% %%%% %  o XoX XX     %%% %%  o XoX o  %%%%%%%%%   o XoX o   %%          o XoX o  %       %   o Xo",
"X     X1*--.X=%2   XoX      X.....X    % XoX %   X.====X    % XoX   %%X..--.X%     XoX   %% X..---X%%%   XoX   %%X.--..X%     XoX   % X---..X%%    XoX    %%X..---X%%    XoX    %X.--..X%%%   XoX   %%X..--.X%     XoX    % X--...X%%    XoX  %%%X..---X%     Xo",
"X  2  oOOOo ==%%%% XoX      OOOOOOo      XoX     OOOOOOo%     XoX   % OOOOOOo2     XoX  %%%%OOOOOOo%%    XoX   %%OOOOOOo%%    XoX   %%OOOOOOo%%%   XoX%%%%%%OOOOOOo%% %  XoX   %%OOOOOOo%     XoX   %2OOOOOOo%     XoX     %OOOOOOo%%    XoX  %% OOOOOOo%%    Xo",
"X   % X.#-..=0=%2% XoX     %X.....X%%    XoX  %%2X..==.X2%    XoX  %%2X..-..X2%    XoX  %%% X...-.X%%%%%%XoX  % %X.-...X%%%%  XoX  %%%X.-...X%%%%  XoX %% %%X...-.X%%% %%XoX   %%X.-...X%%    XoX  %%2X...--X%%%   XoX    %%X--...X%%    XoX   %%X..--.X%%    Xo",
"X  %% oOOOo =,=%   XoX    %%oOOOOOo %    XoX % %2oOOOOOo2%    XoX    2oOOOOOo%%    XoX %  %%oOOOOOo%% %  XoX  %%%oOOOOOo%%    XoX %%%%oOOOOOo%%    XoX    %%oOOOOOo%%%%% XoX%%%%%oOOOOOo%%    XoX  % %oOOOOOo %    XoX   %% oOOOOOo%     XoX    %oOOOOOo% %   Xo",
"X   %%X.#-*1=#=%   XoX    %%X.....X%%    XoX  %%2X..==.X%%    XoX   %2X..-..X%     XoX  %%%%X...-.X%% %  XoX   %%X.-...X%%    XoX  %%%X.-...X%%    XoX   %%%X...-.X%%%%% XoX  %%%X.-...X%%%%% XoX    %X...--X%%    XoX     %X--.-.X %    XoX   % X...-.X%%%   Xo",
"X   % oOOo%=-10%   XoX    %%oOOOOOo%%    XoX  % %oOOOOOo %    XoX   % oOOOOOo%%    XoX   % %oOOOOOo%%%%  XoX   %%oOOOOOo%%    XoX   %%oOOOOOo%%%   XoX    %%oOOOOOo%%  % XoX   %%oOOOOOo %    XoX    %oOOOOOo%%    XoX    %%oOOOOOo %    XoX    %oOOOOOo%     Xo",
"X . %% XX.,111,X . XoX .    %=000=% %  . XoX .% %%%%%%%%%   . XoX .  % %      %  . XoX # % %%%% %%%% % . XoX .  % %%% % %%  . XoX .    %  %%%%%  . XoX .  %%%%%%%%%%%% X XoX .   %          X XoX .  %  % %%%%   . XoX .   %           X XoX .          %   . Xo",
"X o              o XoX o               o XoX o      %%      o XoX o        %  %  o XoX o   %% %%%%%%%% o XoX o   %%  %%%    o XoX o   %  %%%%    o XoX o  %  %%  %%  % o XoX o  %           o XoX o              o XoX o               o XoX o              o Xo"
};
