/* XPM */
static char *COMPUTE3[] = {
/* columns rows colors chars-per-pixel */
"128 128 60 1 ",
"  c #232323",
". c #6B4727",
"X c #7F532F",
"o c #875733",
"O c #9B633B",
"+ c #B37347",
"@ c #8F5F37",
"# c #A36B3F",
"$ c #AB6F43",
"% c #5B472B",
"& c #BF7B4B",
"* c #2F2F2F",
"= c #272727",
"- c #131313",
"; c #2B230F",
": c #170F07",
"> c #373737",
", c #1B1B1B",
"< c black",
"1 c #332B13",
"2 c #1F170B",
"3 c gray31",
"4 c #434343",
"5 c #13230B",
"6 c #3F2F17",
"7 c gray23",
"8 c gray39",
"9 c gray28",
"0 c #43331B",
"q c gray34",
"w c #0B1707",
"e c #0B0B0B",
"r c gray42",
"t c #533F1F",
"y c #3F472B",
"u c #070707",
"i c #4B371B",
"p c #000053",
"a c #17330F",
"s c #4F3B23",
"d c #9B5B13",
"f c #53573B",
"g c #00002F",
"h c #00006B",
"j c #874307",
"k c #5B5B5B",
"l c #5B6347",
"z c #533F2F",
"x c #777777",
"c c #6F6F6F",
"v c #373F27",
"b c gray50",
"n c #000047",
"m c #AF7B1F",
"M c #732B00",
"N c #774F2B",
"B c #4F0000",
"V c #5F4323",
"C c #4B4B4B",
"Z c #67533F",
/* pixels */
"********************************************************************************************************************************",
"5555 55 =555555555                              555555555555 55 5555555=5555=55555555555555555555555555555555555555555555555555 ",
"5555555 =555 555 --::->-------:<<<<:-u:----- -:::-5555555555555 555555 =5555= 5 5-39>>>>>>>>>>>>>>>79397>>>>>>>>3-55 55555555555",
"55555 5 =5 55 55 ,:::e3-------:<<<<--<<2<-e<1u<-<, 55,,,,,,,,,,   5555 = 55 =  5 ,9ppggnnppggnnppggpp9<<;6;;6;<<7, 5555  55555  ",
" 5 5 55 =        ,5--<8e--5-e-:::<<:<<<-<-u<-<<-<,   ,        ,   5555 =    =    ,>phggpphhnnpphhnnhp7<<sdssd0<<v,5 5 5555 5555 ",
" 555 5  =        ,5--<r>*>=*== = -<-:u<-<-:<1<<-<,   ,========,        =    =    ,*gghhnnggppnnggppgg*<<;i;;i;<<v, 55 55 5 5    ",
"    555 =        ,2--e>-u-------e<<<<<<2<5:< <<2<,   ,y f4 4y1,        =    =    ,=gghhnnggppnnggppgg><<<<<<<<<<v,              ",
"        =        -<:---u<<<<<<<<<<<<<<<<<<<<-<<<<,   =********=        =    =    ,                 *>>>*====*>77y,              ",
"========*=========*******************************=              =======*====*====--------------------------------,===========*==",
"                                                                                                                             =  ",
"<----------------::uu:uu:::::::::::-:--::::::::::::::-:--:-:::::::::::::::::::::::::::::::::::::::::::::::::::::::::::--:-::::::",
"********************************************************************************************************************************",
"   ,,,,,,,,,,,,,                                  =                    =                                               ;  ;  =  ",
"   ,>4*44*4>>44,  ,,,,,,,,,,,,,,,,,,,,,,,,,,,,,,,,,,,,,,,,,;           =         ----------------------------::---  ;;  ;;;;;=  ",
"   ,>4*>3>>>>43,  ,:::::w:;>*==2 :<=<<<<:*2=2*:=:*2:: = : ,;           ==========,<<<:<<1 - 2*<<<<<-  -<<<-2=2<<<, ;;=*1111= =  ",
"   ,43>4q>4>**4,  ,:w9>>=6=:<2 :2:;6;<<<2=;6; ;6;=:<<<<<<:,;      1*y>1*yyy1qf1 =,<<<--<<<<<<<<<-<<<<<-<<<-2 -<<<, ; ------,;=  ",
"   ,3833b43q>43,  ,:<8>t=06:<2 :22sd0;;;;6idi6imi=2:<<<<<:,;;     >fZlf 1112112 =,u<<*-<--<< <1<*<< <<1<<<-2 -<<<, ;1=*1111=;=  ",
"   ,33433>3>>43,  ,w<rtt669;;2 :22;i;;;;;6;i;6;i;=22222222,1;     2111><---221- =,::< -45- 5*<-< << << <<<-2 -<<<, ;;,-----, =  ",
"   ,3r33r43q>44,  , :3330tV6:2 :  2;22221v1;==2;2=2222222; *;     -----:--::-22 =,:22y2< -<<><<-1<<15-*<<<-2 -<<<,;;1=*1111=;=  ",
"   ,33433>34**>,  , :q38>qN6   :  ====== ==9== 9==2:0j<0j;*>1;                  =,u<<2:<-:<<=<<< << << <<<-2 -<<<,;;;,-----, =  ",
"   ,3r33b438>44,  ,623tN6tt w2 : :<<<<<<2  2 =  ==22<<<<<2>71;                  =,<<<1:<<:<<-<<<*<<-<<1u<<-2 -<<<, ;;=*1111=;=  ",
"   ,>4>43*>>>>4,  ,www60;>=w<2 : 20jMdMj2* * * * * 2222222471;                  =,<<<<< <<--<< <<<<<<<<<<<-2 -<<<,;;;,-----,;=  ",
"   ,qrrrb48k*>4,  =******************************>>77744444>1;    144*4fll*4y41 =,<<-2<<<<<<< <<<<<<--<<<<-2 -<<<, ;;=*11*1=;=  ",
"   ,43333>44=*>,   ,------, = =        = ==========*06*>77>>1;    1*11****11    ==*******************************=;;;,-----,;=  ",
"   =***********=   -3,3,3,- = =        = =1a1*    =   111111;;    *<-2*121> -*- =   =    =           =  ;   ==    ;;;;;;;;;; =  ",
"                   ,,-,-,-, = ========== =11=     =    ;;;;;;;    *- =11-1*=-*- =====    =      ;;; ;=;;  ; ==;  ;;;;  ;;;;; =  ",
"                   =>>>>>>= = =        =          =       = 5                   =   =    =         ;;=    ;;==  ;         ;  =  ",
"<<<::u:uu::-:::::<:uu:-:---------------------::::::::::-::::::::::::::::::::::::::::::::::::::::::::::::::::::::::::::::::::::::",
"*************************************************************************************************2******************************",
"   -,,,,,,,,,,,,            = =        =                  =        =                =    =      =2=  =      ==               =  ",
"   ,>4*44*4>>44,            = =        =                  =        =                =    =      =2=  =      ==               =  ",
"   ,>4*>3>>>>43,  ,,,,,,,,  *== ,,,,,,,,,,,,,,,,,,,,,,,,, =        =================*====*=======2===*======*================*  ",
"   ,43>4q>4>**4,  , >*=52,  = = ,zz0*      <<<<sm0< == <, =        =                        =   =-=                          =  ",
"   ,3833b43q>43,  ,7ck3=6,  = = ,sz;w<<<<<<<<<<;i;<<<<<<, =        = -<<<<<<<<<<<<<<<<<<<<<<-----<-----------<<<<<<2--::::<- =  ",
"   ,33433>3>>43,  ,*839=0,  = = ,0t;<<<Bw;aw<<<waw<waw<=, =        = -*= <<<:<<---- <<q3 <,e4>447->93qr888x9------<1-2<<<<<- =  ",
"===,3r33r43q>44,==,*99t66,====*=,0*:*3<<<sd0<<<sm0<imi<>, *=*======* -= <<<< <<-= ==e<88c,8=xq8qx>*-2 =9q38*->>*=*<-<<<<<<<- =  ",
"   ,33433>34**>,  ,*3330t,  = = ,>6:=<<B<;i;< <;i;<;i;<*, = =      = - --u<<:<<<<<<<<<343-9-q7C>8=*-2 =349k*, ,*88=ee-<<<<<-=*==",
"   ,3r33b438>44,  ,*q38>q,  = = ,9 :><<<<9<w:2<<<<<=<6<;, = =      = -<<<<<<<<<<<<<----==-,-= ==>--------------- =,<<<<<<<<- == ",
"   ,>4>43*>>>>4,  ,63tN6t,  = = ,q:w8:<***<<q6><<<<* > q, = =      =        =         ;      =  =-=  ;; ; ;;;;  ;;;  ;; ;    == ",
"   ,qrrrb48k*>4,  ,;t60;>,  = = ,0:w;<<<<<<<<<<<<<< <<<>, = =      =========*====================-= ; ;;; ;;; ;; ;; ;; ;;;;; == ",
"   ,43333>44=*>,  *******=  = = =**>>>>>>>>>>>>>>>>>>>**= = =      =        =      ;;;       =  =-= ; ; ;;;;; ;; ;;; ;   ; ; == ",
"   =***********=            = =        =                  = =      =   ;;;;;=;;;;;;;;;;;;;;  =  =-= ;;;;;;  ;;;; ;;;; ;;;;;;;== ",
",,,,,,,,,,,,,,,,,,,,,,,,,,,,,,,,,,,,,,,,,,,,,,,,,,,,,,,,,,,,,,,,,,,,,,,,,,,,,,,,,,,,,,,,,,,,,,,,,-,,,,,,,,,,,,,,,,,,,,,,,,,,,,,,",
"--------------------------------------------------------------------------------------------------------------------------------",
"********************,>********************,>*******************,********************,*********************,>*******************,",
"=                  =,*                   =,*                  =,=                  =,=   ;     ;    ;    =,*    ;;            =,",
"= *  555 5 5;;5  * =,= ,=    555       * =,= *              * =,= *              > =,= *  ;;;   ;;  ;  > =,= *   ;   ;;     > =,",
"= , 5 555555;;;5 , =,= =    5555555    , =,= ,              , =,= ,              , =,= ,  ;   ;; ;;;;;;, =,= ,;;  ;;;;;;;   , =,",
"=     =7466*=1;5   =,=      =*****=    ; =,= ;   =*1111=    ; =,=   ;;=**66*=;     =,=   ;; =**666=;;;   =,=   ;;=*66**=;     =,",
"=  5  ,---, 11;;;; =,=      ------,      =,=     ------,;     =,=   ; ------,5     =,=  ;;;;------,;;    =,=   ;;------,;;    =,",
"=   ; =*>6**1a1;5; =,=     ;=*****=;;    =,=  ;;5=**11*=5;    =,=  ;;5=**6**=5;    =,=  ;;; =***6*=;;;;;;=,=  ; ;=*6***=;;;;  =,",
"=  ;; ,---, 101;   =,=    ;;,-----, ;    =,= ; ;5,-----,5;    =,=    5,-----,;;    =,= ;  ;;,-----,;; ;  =,=  ;;;,-----,;;    =,",
"=   ;;=*>6471>1;   =,=    ;;=*****=;;    =,=  ;;5=**11*=;;    =,=   ;5=**6**=;     =,=  ;;;;=***6*=;; ;  =,=   ;;=*6***=;;    =,",
"=   ; ,--,;167a;   =,=    ;;,-----,;;    =,=  ; ;,-----, ;    =,=   ; ,-----,;;    =,=   ; ;,-----,;;;;  =,=   ;;,-----,;;    =,",
"= * ;; ==*07770= * =,= *    ;1aaa1; ;  * =,= *; ;;;;;;;;;   * =,= *  ; ;      ;  * =,= > ; ;;;; ;;;; ; * =,= *  ; ;;; ; ;;  * =,",
"= ,              , =,= ,               , =,= ,      ;;      , =,= ,        ;  ;  , =,= ,   ;; ;;;;;;;; , =,= ,   ;;  ;;;    , =,",
">>>>>>>>>>>>>>>>>>>>>>>>>>>>>>>>>>>>>>>>>>>>>>>>>>>>>>>>>>>>>>>>>>>>>>>>>>>>>>>>>>>>>>>>>>>>>>>>>>>>>>>>>>>>>>>>>>>>>>>>>>>>>>>>",
"********************************************************************************************************************************",
";166661;;166661;;166661; ;16661;;166661;;166661;;166661; ;16661;;166661;;166661;;166661; ;16661;;166661;;166661;;166661; ;16661;",
";0sV..%s;0sV..%s;0sV..%s;s%..Vs6;0sV..%s;0sV..%s;0sV..%s;s%..Vs6;0sV..%s;0sV..%s;0sV..%s;s%..Vs6;0sV..%s;0sV..%s;0sV..%s;s%..Vs6",
";iit%%%s;iit%%%s;iit%%%s;s%%%ts6;iit%%%s;iit%%%s;iit%%%s;s%%%ts6;iit%%%s;iit%%%s;iit%%%s;s%%%ts6;iit%%%s;iit%%%s;iit%%%s;s%%%ts6",
";60isss0;60isss0;60isss0;0sssii6;60isss0;60isss0;60isss0;0sssii6;60isss0;60isss0;60isss0;0sssii6;60isss0;60isss0;60isss0;0sssii6",
";1166661;1166661;1166661;1666611;1166661;1166661;1166661;1666611;1166661;1166661;1166661;1666611;1166661;1166661;1166661;1666611",
";;;;;;;;;;;;;;;;;;;;;;;;;;;;;;;;;;;;;;;;;;;;;;;;;;;;;;;;;;;;;;;;;;;;;;;;;;;;;;;;;;;;;;;;;;;;;;;;;;;;;;;;;;;;;;;;;;;;;;;;;;;;;;;;",
".NoO#$++++++$$++$$+$#$#$$$O@oNVV.NoO#++++++$$$++++$+$#$+$#OOoN...NoO#$++++++$$++$$+$#$#$$$O@oNVV.NoO#++++++$$$++++$+$#$+$#OOoN..",
".N@#+++&+&++&&+&++&+++++++$OooVV.N@#+$$$$$++++$$$$++++++++$#oo...N@#+++&+&++&&+&++&+++++++$OooVV.N@#+$$$$$++++$$$$++++++++$#oo..",
"..o#OOO####OO#OOOO#O#####OO#@oVVV.@$O@OO@O@@OOOOO@@O@@OO@O#$Oo....o#OOO####OO#OOOO#O#####OO#@oVVV.@$O@OO@O@@OOOOO@@O@@OO@O#$Oo..",
"V.Nooo@O@Ooo@Oooo@O@@@@@@oo@@NVVVVoOoXooXoXXoooooXXoXXXoXXoOON..V.Nooo@O@Ooo@Oooo@O@@@@@@oo@@NVVVVoOoXooXoXXoooooXXoXXXoXXoOON..",
"V..Noo@O@Ooo@Ooooo@o@o@@oooNN.VVVVNNoXooXoXXooooXXXoXNXoXXoXN.V.V..Noo@O@Ooo@Ooooo@o@o@@oooNN.VVVVNNoXooXoXXooooXXXoXNXoXXoXN.V.",
"V......N.N..NN.N..NN..NNN.NN.ViVVV.....N.N..NNNN...N..NN...N..iVV......N.N..NN.N..NN..NNN.NN.ViVVV.....N.N..NNNN...N..NN...N..iV",
"VViiiiiVV.ViV.iViiiViiVViiiViiiVViiiiiiViiiitVVtiiiiiitVtitVtiiVVViiiiiVV.ViV.iViiiViiVViiiViiiVViiiiiiViiiitVVtiiiiiitVtitVtiiV",
"ViiiiiiiiiiiiiiiiiiiiiiiiiiiiiiVViiiiiiiii66iiiiiiiiiiiiiiiiiiiVViiiiiiiiiiiiiiiiiiiiiiiiiiiiiiVViiiiiiiii66iiiiiiiiiiiiiiiiiiiV",
".iiiiiiiiiiiiiiiiiiiiiiiiiiiiiiV.iiii6iiii66iiii66iii6ii666iiiiV.iiiiiiiiiiiiiiiiiiiiiiiiiiiiiiV.iiii6iiii66iiii66iii6ii666iiiiV",
".ViiiiiiiViiiViiiiiiiiiiiiiiiVVV.ViiiVViVVViiiiiiiiiiiiVVVVViiVi.ViiiiiiiViiiViiiiiiiiiiiiiiiVVV.ViiiVViVVViiiiiiiiiiiiVVVVViiVi",
".........N...N........V..VV..V.V.VVVVN.V.NN....VVV......NNNNVV.V.........N...N........V..VV..V.V.VVVVN.V.NN....VVV......NNNNVV.V",
"..NoOOOOO#OOO#OOO@@o@@OOOOOoN..VVVNo@OO@@oo@O@O@oo@oooo@o@@oN..V..NoOOOOO#OOO#OOO@@o@@OOOOOoN..VVVNo@OO@@oo@O@O@oo@oooo@o@@oN..V",
".NoO#++++&++&&+++++++++++#OOoN.VVNoO#$$+++++++++$$#$#Oo@O#OOoN.i.NoO#++++&++&&+++++++++++#OOoN.VVNoO#$$+++++++++$$#$#Oo@O#OOoN.i",
".NO#++++&&&+&&&+++++&&&+&+$Ooo.VVN@#++++$$$$$$+$++$$#OOO$+$O@oVi.NO#++++&&&+&&&+++++&&&+&+$Ooo.VVN@#++++$$$$$$+$++$$#OOO$+$O@oVi",
"VNO$OOO###OO##OOOOOO###O#OO$OoVVVNO#OO#OO####OOOOOO@@oo@@OO#OoViVNO$OOO###OO##OOOOOO###O#OO$OoVVVNO#OO#OO####OOOOOO@@oo@@OO#OoVi",
"VNOOooo@O@o@O@oooooo@O@o@ooOONVi.NoOo@O@@OOO@ooooooooNooooo@ONViVNOOooo@O@o@O@oooooo@O@o@ooOONVi.NoOo@O@@OOO@ooooooooNooooo@ONVi",
"VNooooXooooo@oXXXoooo@oooooooNVi.NooooOoo@O@ooooooooXNNNXXoooNViVNooooXooooo@oXXXoooo@oooooooNVi.NooooOoo@O@ooooooooXNNNXXoooNVi",
"V.NXooXoooooooXoXXXoo@ooooNXN.Vi..NXoo@ooo@ooXXoXXXXN.NNNXNXX.ViV.NXooXoooooooXoXXXoo@ooooNXN.Vi..NXoo@ooo@ooXXoXXXXN.NNNXNXX.Vi",
"V.NXooXoooooooXooXXXoooooXNXN.Vi..NXoooooo@ooXXoXXXXN.NNNXNXN.ViV.NXooXoooooooXooXXXoooooXNXN.Vi..NXoooooo@ooXXoXXXXN.NNNXNXN.Vi",
"V.NXXoXoooooooXooXNXoooooXNXN.Vi..NXoo@ooo@ooXXoNXXNN.NNNXNXN.ViV.NXXoXoooooooXooXNXoooooXNXN.Vi..NXoo@ooo@ooXXoNXXNN.NNNXNXN.Vi",
"V.NXXoXoooooooXXoXNXoooooNNXN.Vi..NNXo@ooooXoXXoNXXNN.NNNXNXN.ViV.NXXoXoooooooXXoXNXoooooNNXN.Vi..NNXo@ooooXoXXoNXXNN.NNNXNXN.Vi",
"V.NXXoXoooooooXXoXNXoooooXNXN.Vi..NNXo@ooooXoXXoNXXNN.NNNNNXN.ViV.NXXoXoooooooXXoXNXoooooXNXN.Vi..NNXo@ooooXoXXoNXXNN.NNNNNXN.Vi",
"V.NXXoXoooooooXoXNNXoooXoXNNN.Vi..NNXoooXooXoXXoNNXNN.NNXNNXN.ViV.NXXoXoooooooXoXNNXoooXoXNNN.Vi..NNXoooXooXoXXoNNXNN.NNXNNXN.Vi",
"V.NXNoXoooooooXXoNNXooXXoNNXN.Vi..NNXoooXooXoXNXNNXNN.NNNNNXN.ViV.NXNoXoooooooXXoNNXooXXoNNXN.Vi..NNXoooXooXoXNXNNXNN.NNNNNXN.Vi",
"V.NXNoXoooooooXNoNNXooXXXNNXN.Vi..NNXoooXooXoXNXNNXNN..NNNNXN.iiV.NXNoXoooooooXNoNNXooXXXNNXN.Vi..NNXoooXooXoXNXNNXNN..NNNNXN.ii",
"V.NNNoXoooooooXNXNNXooXXXNNNN.iiV.NNXoooXooXoXNoNNNNN.NNN.NXN.ViV.NNNoXoooooooXNXNNXooXXXNNNN.iiV.NNXoooXooXoXNoNNNNN.NNN.NXN.Vi",
"..NNNXXoooooooXNoNNXooXXXNNNN.iiV.NNXoooXooXoXNoNNNNN.NNNNNNN.Vi..NNNXXoooooooXNoNNXooXXXNNNN.iiV.NNXoooXooXoXNoNNNNN.NNNNNNN.Vi",
"..NXNXXoooooooXNXNNXooXXXNNNN.iiV.NNXoooXooXoXNoNNXNN..NNNNXN.ii..NXNXXoooooooXNXNNXooXXXNNNN.iiV.NNXoooXooXoXNoNNXNN..NNNNXN.ii",
"V.NXNXXoooooooXNXNNXXoXXXNNNN.iiV.NNXooXXooXoXNXNNNNN..NN.NNN.iiV.NXNXXoooooooXNXNNXXoXXXNNNN.iiV.NNXooXXooXoXNXNNNNN..NN.NNN.ii",
"V.NNNXXooXooooXNXNNNXoXNXNNNN.ViV.NNXooXXooXoXNXNNNNN..NN.NNN.ViV.NNNXXooXooooXNXNNNXoXNXNNNN.ViV.NNXooXXooXoXNXNNNNN..NN.NNN.Vi",
"V.NNNNXooooooXXNoNNNXoXNXNNNN.ViV.NNXoXXXooXoXNXNNNNN.NNNNNNN.ViV.NNNNXooooooXXNoNNNXoXNXNNNN.ViV.NNXoXXXooXoXNXNNNNN.NNNNNNN.Vi",
"V.NXNNXooXoooXXNXNNNXoXXXNNNN.ViV.NNXoXXXoXXoXNNNNNNN..NN.NNN.iiV.NXNNXooXoooXXNXNNNXoXXXNNNN.ViV.NNXoXXXoXXoXNNNNNNN..NN.NNN.ii",
"V.NNNNXooooooXNNXNNNXoXNXNNNN.ViV.NNXoXNXoXXXXNNNNNNN..NN.NNN.ViV.NNNNXooooooXNNXNNNXoXNXNNNN.ViV.NNXoXNXoXXXXNNNNNNN..NN.NNN.Vi",
"V.NNNNXooXoooXNNXNNNXXXNXNNNN.ViV.NNXoXNXoXXoXNNNNNNN..NN.NNN.ViV.NNNNXooXoooXNNXNNNXXXNXNNNN.ViV.NNXoXNXoXXoXNNNNNNN..NN.NNN.Vi",
"V.NNNNXooXoXoXXNXNNXXXXNXNNNN.ViV.NNXoXNXoXXoXNNNNNNN..NN.NNN.ViV.NNNNXooXoXoXXNXNNXXXXNXNNNN.ViV.NNXoXNXoXXoXNNNNNNN..NN.NNN.Vi",
"V.NNNNXooXoXoXXNNNNNXXXNXNNNN.ViV.NNXooNXoXXoXNNNNNNN.VNN.NNN.ViV.NNNNXooXoXoXXNNNNNXXXNXNNNN.ViV.NNXooNXoXXoXNNNNNNN.VNN.NNN.Vi",
"V.NNNNXooXoXoXNNNNNXXXXNXNNNN.ViV.NNXooNXXXNXXNNNNNNN...N.NNN.ViV.NNNNXooXoXoXNNNNNXXXXNXNNNN.ViV.NNXooNXXXNXXNNNNNNN...N.NNN.Vi",
"V.NNNNXooXoXoXNNXNNNXoXNXNNNN.VVi.NNXooNNXoXoNNNNNNNN.V.N.NNN.ViV.NNNNXooXoXoXNNXNNNXoXNXNNNN.VVi.NNXooNNXoXoNNNNNNNN.V.N.NNN.Vi",
"V.NNNNXooXoXoXNNXNNNXXXNXNNNN.VVi.NNXooNNXoNXNNNNNNNN.V...NNN.iiV.NNNNXooXoXoXNNXNNNXXXNXNNNN.VVi.NNXooNNXoNXNNNNNNNN.V...NNN.ii",
"V.NNNNXooXoXoXNNNNNNXXXXXNNNN.Vii.NNXooNNXXNXNNNNNNNN.V..VNNN.iiV.NNNNXooXoXoXNNNNNNXXXXXNNNN.Vii.NNXooNNXXNXNNNNNNNN.V..VNNN.ii",
"V.NNNNXoXXXXoXXNNNNNXXXXXNNNN.Vii.NNXoXNNoXNNNNNNNNNN.V...NNN.iiV.NNNNXoXXXXoXXNNNNNXXXXXNNNN.Vii.NNXoXNNoXNNNNNNNNNN.V...NNN.ii",
"i.NNNNXoXNXXoXXNNNNNXXXNXNNNN.Vii.NNNXXNNoXNNNNNNNNNN.V..VNNN.Vii.NNNNXoXNXXoXXNNNNNXXXNXNNNN.Vii.NNNXXNNoXNNNNNNNNNN.V..VNNN.Vi",
"i.NNNNNoXNXXoXXNNNNNXoXNXNNNN.Vii.NNNXoXNXXNNNNNNNNNN.VV.VNNN.iii.NNNNNoXNXXoXXNNNNNXoXNXNNNN.Vii.NNNXoXNXXNNNNNNNNNN.VV.VNNN.ii",
"i.NNNNNoXNXXoXXNNNNNXoXNXNNNN.Vii.NNNXoXNoXNNNNNNNNNN.VV.VNNN.iii.NNNNNoXNXXoXXNNNNNXoXNXNNNN.Vii.NNNXoXNoXNNNNNNNNNN.VV.VNNN.ii",
"i.NNNNNXXNXXoXNNNNNNXoXNoXNNN.iii.NNNXXNNXXNNNNNNN.NN.VV.VNNN.iii.NNNNNXXNXXoXNNNNNNXoXNoXNNN.iii.NNNXXNNXXNNNNNNN.NN.VV.VNNN.ii",
"i.NNNNNXXNXXoXNNNNNNXoXNoXNNN.iii.NNNoXNNXNNNNNNNNNNN.VV.VNNN.iii.NNNNNXXNXXoXNNNNNNXoXNoXNNN.iii.NNNoXNNXNNNNNNNNNNN.VV.VNNN.ii",
"i..NNNNXXNXXoXNNNNNNXoXNoXNNN.iiiV.NNXXNNNNNNNNNNN.NN.VV.VNNN.iii..NNNNXXNXXoXNNNNNNXoXNoXNNN.iiiV.NNXXNNNNNNNNNNN.NN.VV.VNNN.ii",
"i..NNNNNNNXXXXNNNNNNNNNNNNNN..iiiV.NNXXNNN..NNNNNN.N..VV.V.N.Viii..NNNNNNNXXXXNNNNNNNNNNNNNN..iiiV.NNXXNNN..NNNNNN.N..VV.V.N.Vii",
"iii...NN..NNN.N.N.V..........iiiiiiV...VVVVVV.......V.VVVV..Viiiiii...NN..NNN.N.N.V..........iiiiiiV...VVVVVV.......V.VVVV..Viii",
"iiiiiiiViiVVViiiViViiVViViiiii6iiiiiiiiiiiiiiiiiiiiiiiiiiiiiiii6iiiiiiiViiVVViiiViViiVViViiiii6iiiiiiiiiiiiiiiiiiiiiiiiiiiiiiii6",
"16iiiiiiiiiiiiiiiiiiiiiiiiiii66i16ii666666666i6iiii6i666666iii6616iiiiiiiiiiiiiiiiiiiiiiiiiii66i16ii666666666i6iiii6i666666iii66",
"611116666111166666111666661116i611111111111116666666111111111166611116666111166666111666661116i611111111111116666666111111111166",
"ii661166111111666116616611666i6i66666611166611666666666666666666ii661166111111666116616611666i6i66666611166611666666666666666666",
"iiiiiiiiiiiiiiiiiiiiiiiiiiiiiii6i666iiiiiiiiiiiiiiiiiiiiiiiiiiiiiiiiiiiiiiiiiiiiiiiiiiiiiiiiiii6i666iiiiiiiiiiiiiiiiiiiiiiiiiiii",
"iiiiiiiiiiVVViiiiiiiiiiiiiiiiiiiiiiiiiiiiiiiiiiiiiiiiiiiiiiiiiiiiiiiiiiiiiVVViiiiiiiiiiiiiiiiiiiiiiiiiiiiiiiiiiiiiiiiiiiiiiiiiii",
"...............................VVV.............................................................VVV..............................",
"NXXXNNNXXXXXXNNNNNXXXXXXXXNNXXXNNNNNNNNNNNNNNNNNNNNNN.....NNNNNXNXXXNNNXXXXXXNNNNNXXXXXXXXNNXXXNNNNNNNNNNNNNNNNNNNNNN.....NNNNNX",
"XXNXXXXXXooooXXXXXXXoooXoXXXXNNN.NNNXXXXXXXXXXXXNNNNNN...NNNNNNNXXNXXXXXXooooXXXXXXXoooXoXXXXNNN.NNNXXXXXXXXXXXXNNNNNN...NNNNNNN",
"NNNNNNNNNNXoXNNNNNXNXooXoNNNNNNN.NNNNNNNooXNNNNNNNN....VV..NNNNNNNNNNNNNNNXoXNNNNNXNXooXoNNNNNNN.NNNNNNNooXNNNNNNNN....VV..NNNNN",
"N...NNN.NNXoXNN.NNXXXXXXXNN.NNN..NNN.NNNXoNNNNNNNN..V.VVV......NN...NNN.NNXoXNN.NNXXXXXXXNN.NNN..NNN.NNNXoNNNNNNNN..V.VVV......N",
"....NNNNNNXoXN...NXNXXoXXNNNNN...NN..N.NXXNNNNNN.N....VVV.V.........NNNNNNXoXN...NXNXXoXXNNNNN...NN..N.NXXNNNNNN.N....VVV.V.....",
".....NNN.NNXXN....XXNXoXXNN.NN...N..NNNNXNNNN.N..N.V.VViVV...........NNN.NNXXN....XXNXoXXNN.NN...N..NNNNXNNNN.N..N.V.VViVV......",
"..N..NNN.NXXXNN.N.NXNXoNXNNNNNN..N..NN.NXXNNN.N..N...iViVV.V......N..NNN.NXXXNN.N.NXNXoNXNNNNNN..N..NN.NXXNNN.N..N...iViVV.V....",
"..N.NN.N.NNXXNN.N.NNXXoNXNNNNNN...N..N.NNXNNN.N.....VViiiiV..V....N.NN.N.NNXXNN.N.NNXXoNXNNNNNN...N..N.NNXNNN.N.....VViiiiV..V.."
};
