/* XPM */
static char *COMPSTA1[] = {
/* columns rows colors chars-per-pixel */
"128 128 76 1 ",
"  c #131313",
". c #777777",
"X c #6F6F6F",
"o c gray50",
"O c #838383",
"+ c #8B8B8B",
"@ c #939393",
"# c #979797",
"$ c #732B00",
"% c #874307",
"& c #00003B",
"* c #7F0000",
"= c #9B5B13",
"- c red",
"; c #B30000",
": c #9B0000",
"> c #D70000",
", c #00002F",
"< c #9F9F9F",
"1 c #000047",
"2 c #AF7B1F",
"3 c #C39B2F",
"4 c #430000",
"5 c #000023",
"6 c #D7BB43",
"7 c #4F0000",
"8 c #FFFF73",
"9 c #8B0000",
"0 c black",
"q c #4B4B4B",
"w c gray34",
"e c #27531B",
"r c #17330F",
"t c gray23",
"y c #2F6323",
"u c #1F4317",
"i c gray28",
"p c gray31",
"a c #434343",
"s c #1B1B1B",
"d c #37732B",
"f c #5B5B5B",
"g c gray39",
"h c #373737",
"j c #2F2F2F",
"k c #439337",
"l c #13230B",
"z c #4B9F3F",
"x c #272727",
"c c #5FCF57",
"v c #232323",
"b c #000053",
"n c #000083",
"m c #00006B",
"M c #53AF47",
"N c #2B230F",
"B c #EBDB57",
"V c #670000",
"C c #8F5F37",
"Z c #3F832F",
"A c gray42",
"S c #730000",
"D c #875733",
"F c #7F532F",
"G c #533F1F",
"H c #0B1707",
"J c #774F2B",
"K c #5F4323",
"L c #0B0B0B",
"P c #4B371B",
"I c #332B13",
"U c #6B4727",
"Y c #3F2F17",
"T c #6FEF67",
"R c #5BBF4F",
"E c #5B0000",
/* pixels */
"jjxxxjjhttatitjxxjhtiithjjxxxjjhttatitjxxxjjhttattatitjxxjhtiithjjxxxjjhttattatitjxtiithttattatittatitjxxxjjhttattatitjxxxjjhtta",
"jjxxxjjhtttatatthjhtiithjjxxxjjhttatatthjxjjhttattatitjxxjhtiithjjxxxjjhttattatatthtiithttattatattatatthjxjjhttattatatthjxjjhtta",
"hjjxjjhhtaaiaiathhhaqqahhjjxjjhhtaiaiathhjjhhtaitaiaqahjxjhaqqahhjjxjjhhtaitaiaiathaqqahtaitaiaitaiaiathhjjhhtaitaiaiathhjjhhtai",
"hhjjjhhtaaaiaiaathtaqqathhjjjhhtaaiaiaathjhhtaaiaaiaqahjjhtaqqathhjjjhhtaaiaaiaiaataqqataaiaaiaiaaiaiaathjhhtaaiaaiaiaathjhhtaai",
"thjjj                                                itj00000000000000000000000000000000aiqai0000000000000000000000000000000taiq",
"thhjh Agfwpiathjxvs                                  ith0Aggfwpiathjxvsssssssssssssssss0iiqii0piathjxvs000000000000000000000aiiq",
"tthhh gfwpiathjxvs                                   qth0gCCDFJathjxyddddedzdkkzeeececs0iqpiq0idtdjreslrl0er00rrrrrrrrrrrrr0aiqp",
"attht fwpiathjxvs    bmnnnmb   bmmmmmb               qat0fCDFJUthjxvkuMzyeureuukdczcTcs0qqpqq0athjxls000l00000rHHHHHHHHHHHr0iqqp",
"aatht wpiathjxvs   bmnnnnnnnm mmmmmmmmmb             pat0wDFJUKhjxvsyyzdkuyzdueyMzedyes0qpwqp0tdjull0ee0rluer0rHHHHHHHHHHHr0iqpw",
"iattt piathjxvs    mnnnnnnnnnmbmmmmmmmmm             pit0ppiathjxvs kkykykyedduddedeyes0ppwpp0hjxvsl00000l0000rHHHrueurHHHr0qppw",
"iaata iathjxvs    bnnnmHHHbmnnbmmmmmmmmmb            wia0iJUKGPxvs 0kykkuyZuykuczeyezMs0pwwpw0jevue0l0rlly0r00rHHreeyeerHHr0qpww",
"qiaaa athjxvs     mnnnmHHHHHHbmbmmmmmmmmm            wqa0aUKGPYvs 00ZyddyyyMuukkzyzyrzs0wwfww0xvs0000l00l00000rHHueydyeuHHr0pwwf",
"qqiai thjxvs      nnnnmHHHHHHHHHHbmmmmmmm            fqi0tKGPYIs 000uukdykdkeedRkyzddzs0wffwf0vr0dl0uu0ly0elr0rHHeydZdyeHHr0pwff",
"pqiai hjxvs       nnnnmHHHHHHHHHHHHHbmmmm            fpi0hjxvv  0000sssssssssssssssssss0wfgwf0s00l0l00l0l00000rHHueydyeuHHr0wwfg",
"ppqiq jxvs        nnnnmHHHHHHHHHHbmmmmmmm            fpq0jPYINN00000000000000000000000s0ffgff00r0d0l0lre0y0ue0rHHreeyeerHHr0wffg",
"wpqqq xvs         mnnnmHHHHHHbmbmmmmmmmmm            gwq0xYINNN000V0Es L00000 00000000s0fggfg0000l000000000000rHHHrueurHHHr0ffgg",
"wwpqp vs          bnnnmHHHbmnnbmmmmmmmmmb            gwp0vINNNN00000Vs L00000 sBBs0000s0ggAgg00r0u0ru0er0rr000rHHHHHHHHHHHr0fggA",
"fwppp s            mnnnnnnnnnmbmmmmmmmmm             gfp0s 0000000V0Ss L00000 sBBs0000s0ggAgg00000l00000000000rHHHHHHHHHHHr0fggA",
"ffwpw              bmnnnnnnnmbmmmmmmmmmb             Afw0sNNNNN00000Ss L00000 s66s0000s0gAXgA00r0due0r00000000rrrrrrrrrrrrr0ggAX",
"ffwww                bmnnnmb   bmmmmmb               Afw0sNNNNN000V0Ss L00000 s66s0000s0AAXAA0000000000000000000000000000000gAAX",
"gffwf                                                Xgf0sNNNNN00000Ss L00000 s33s33s0s0AXXAX0000000000000000000000000000000gAXX",
"ggfff         m&m bmb bmm     mmb bmb mmb mmm        Xgf0s 0000000E0Ss L00000 s33s33s0s0XX.XX.X.XX.X.XXAgfggAXX.XX.X.XXAgfggAXX.",
"ggfff         m&m mmm m&&     mmm mmm bmm mb&        Xgf0s-----00000Ss L000 0 s22s22s220XX.XX.X.XX.X.XXAgfggAXX.XX.X.XXAgfggAXX.",
"Aggfg         bmb m&m bmm     mmb m&m mmm mmm        .Ag0s-----000E0Ss 000000 s22s22s220X..X....X.....XXAggAXX..X.....XXAggAXX..",
"AAggg                                                .Ag0s-----00000Ss  s==s  s==s==s==0..o..o.o..o.o..XAgAAX..o..o.o..XAgAAX..o",
"AAggg                                                .Ag0s 000000070Ss  s==ssss==s==s==0..o..o.o..o.o..XAgAAX..o..o.o..XAgAAX..o",
"XXAgA      ydy ydd ydy     ydy ddd dye eye eye       oXA0s>>>>>00000Ss  s%%s%%s%%s%%s%%0.oO.oOoO.oOoOo..XAXX..oO.oOoOo..XAXX..oO",
"XXAAA       d  de   d       d  de  d d yld ddd       oXA0s>>>>>00040Ss  s%%s%%s%%s%%s%%0ooOoo0000000000000000000000000000000.ooO",
".XAAA       y  ydd ydy      y  ddd y y eyd y y       o.A0s>>>>>00000Ss$$s$$s$$s$$s$$s$$0ooOoo0piathjxv0000000000000000000000.ooO",
"..XXX                                                O.X0s 000000040Ss$$s$$s$$s$$s$$s$$0OO+OO0iaadMMMMMdMrlHkkZuZkZkkZuZkZ00oOO+",
"..XXX      mmm edd ede ede     mmm ede ddd ddd       O.X0s;;;;;00000*ssssssssssssssssss0OO+OO0azdMdueuyMdMrHZZuZkkZkuZkuZ000oOO+",
"o..X.      mmm d   dld ddd     mmm dld de  de        +o.0s;;;;;000409*SSSSSSSSSSSSSSSVE0O++O+0adMdMe8eMyMduH0000000000000000oO++",
"oo...      mmm edd ede d d     mmm ede d   d         +o.0s;;;;;00000000000000000000000L0++@++0dMdMyueruMyMdlkkkZkkkkuZZk0000O++@",
"oo...                                                +o.0s 000000040404040407070E0E0V0V0++@++0MdyyzMMzZyuyMrZkZuZuZuZuZk0000O++@",
"Ooo.o      mmm dd  dde ede     mmm ede ydd eyd       @Oo0s:::::00000000000000000000000L0+@@+@0MkkkzMMMMkkkMr0000000000000000++@@",
"OOooo      mmm  dd dld  d      mmm ddd dd  y         @Oo0s:::::00000000000000000000000L0@@#@@0MeeezMMMzyeyMrr0der0rr0r000000+@@#",
"OOooo      mmm ddd dde yde     mmm d d ydd eyd       @Oo0s:::::0000mmm0bbb01110&&&0,,,L0@@#@@0MdMMzMMzZMyeMr0000000000000000+@@#",
"Ooo.o                                                @Oo0s 00000000mmm0bbb01110&&&0,,,L0+@@+@0MydedzzZMZMyMrr0dedrue00000000++@@",
"oo...      mmm dd  dd  edd     mmm d   ede dde       +o.0s*****00000000000000000000000L0++@++0dMeyMyZMMMZMdl0000000000000000O++@",
"oo...      mmm  dd dld dd      mmm d   ddd ddd       +o.0s*****0000bbb01110&&&0,,,0555L0++@++0edMeyddZMdMduHr0edru0r00000000O++@",
"o..X.      mmm ddd dd  edd     mmm ddd d d ddd       +o.0s*****0000bbb01110&&&0,,,0555L0O++O+0MedMdMMdZMdurH0000000000000000oO++",
"..XXX                                                O.X0s L00000000000000000000000000L0OO+OO0rMeeMMMMMdurlHr0ddeududere0000oOO+",
"..XXX                                                O.X0                               OO+OO0HlrueyyyeurlHH0000000000000000oOO+",
".XAAA                                                o.A00000000000000000000000000000000ooOoo0000000000000000000000000000000.ooO",
"XXAAAXX.oooOoOoo.X.o++o.XXAAAXX.ooOoOoo.XAXX.ooOooOo+oXAAX.o++o.XXAAAXX.ooOooOoOoo.o++o.ooOooOoOooOoOoo.XAXX.ooOooOoOoo.XAXX.ooO",
"XXAgAXX..ooOoOo..X.oOOo.XXAgAXX..oOoOo..XAXX..oO.oOoOoXAgX.oOOo.XXAgAXX..oO.oOoOo..oOOo..oO.oOoO.oOoOo..XAXX..oO.oOoOo..XAXX..oO",
"AAgggAAX...o.o..XAX.OO.XAAgggAAX..o.o..XAgAAX..o..o.O.AggAX.OO.XAAgggAAX..o..o.o..X.OO.X..o..o.o..o.o..XAgAAX..o..o.o..XAgAAX..o",
"AAgggAAX...o.o..XAX.OO.XAAgggAAX..o.o..XAgAAX..o..o.O.AggAX.OO.XAAgggAAX..o..o.o..X.OO.X..o..o.o..o.o..XAgAAX..o..o.o..XAgAAX..o",
"AggfggAXX......XXAX.oo.XAggfggAXX.....XXAggAXX..X...o.AgfgX.oo.XAggfggAXX..X.....XX.oo.XX..X....X.....XXAggAXX..X.....XXAggAXX..",
"ggfffggAXXX.X.XXAgAXooXAggfffggAXX.X.XXAgfggAXX.XX.XoXgffgAXooXAggfffggAXX.XX.X.XXAXooXAXX.XX.X.XX.X.XXAgfggAXX.XX.X.XXAgfggAXX.",
"ggfffggAXXX.X.XXAgAX..XAggfffggAXX.X.XXAgfggAXX.XX.X.XgffgAX..XAggfffggAXX.XX.X.XXAX..XAXX.XX.X.XX.X.XXAgfggAXX.XX.X.XXAgfggAXX.",
"gffwffggAXXXXXXAgggX..XggffwffggAXXXXXAggffggAXXAXXX.XgfwfgX..XggffwffggAXXAXXXXXAgX..XgAXXAXXXXAXXXXXAggffggAXXAXXXXXAggffggAXX",
"ffwwwffgAAAXAXAAgfgA..AgffwwwffgAAXAXAAgfwffgAAXAAXA.AfwwfgA..AgffwwwffgAAXAAXAXAAgA..AgAAXAAXAXAAXAXAAgfwffgAAXAAXAXAAgfwffgAAX",
"ffwpwffggAAXAXAggfgAXXAgffwpwffggAXAXAggfwffggAXgAXAXAfwpfgAXXAgffwpwffggAXgAXAXAggAXXAggAXgAXAXgAXAXAggfwffggAXgAXAXAggfwffggAX",
"fwpppwffgggAgAggfffgXXgffwpppwffggAgAggffpwffggAggAgXgfppwfgXXgffwpppwffggAggAgAggfgXXgfggAggAgAggAgAggffpwffggAggAgAggffpwffggA",
"wwpqpwwfgggAgAggfwfgAAgfwwpqpwwfggAgAggfwpwwfggAggAgAgwpqwfgAAgfwwpqpwwfggAggAgAggfgAAgfggAggAgAggAgAggfwpwwfggAggAgAggfwpwwfggA",
"wpqqqpwffggggggffwfgAAgfwpqqqpwffgggggffwqpwffggfgggAgwqqpfgAAgfwpqqqpwffggfgggggffgAAgffggfggggfgggggffwqpwffggfgggggffwqpwffgg",
"ppqiqppwfffgfgffwpwfAAfwppqiqppwffgfgffwpqppwffgffgfAfpqipwfAAfwppqiqppwffgffgfgffwfAAfwffgffgfgffgfgffwpqppwffgffgfgffwpqppwffg",
"pqiaiqpwwffgfgfwwpwfggfwpqiaiqpwwfgfgfwwpiqpwwfgwfgfgfpiaqwfggfwpqiaiqpwwfgwfgfgfwwfggfwwfgwfgfgwfgfgfwwpiqpwwfgwfgfgfwwpiqpwwfg",
"qqiaiqqpwffffffwpqpfggfpqqiaiqqpwfffffwpqiqqpwffwfffgfqiaqpfggfpqqiaiqqpwffwfffffwpfggfpwffwffffwfffffwpqiqqpwffwfffffwpqiqqpwff",
"qiaaaiqpwwwfwfwwpqpwggwpqiaaaiqpwwfwfwwpqaiqpwwfwwfwgwqaaipwggwpqiaaaiqpwwfwwfwfwwpwggwpwwfwwfwfwwfwfwwpqaiqpwwfwwfwfwwpqaiqpwwf",
"iaataaiqpwwwwwwpqiqwffwqiaataaiqpwwwwwpqiaaiqpwwpwwwfwiataqwffwqiaataaiqpwwpwwwwwpqwffwqpwwpwwwwpwwwwwpqiaaiqpwwpwwwwwpqiaaiqpww",
"iatttaiqpppwpwppqiqpffpqiatttaiqppwpwppqitaiqppwppwpfpittaqpffpqiatttaiqppwppwpwppqpffpqppwppwpwppwpwppqitaiqppwppwpwppqitaiqppw",
"aathtaaiqppwpwpqiaipffpiaathtaaiqpwpwpqiataaiqpwqpwpfpathaipffpiaathtaaiqpwqpwpwpqipffpiqpwqpwpwqpwpwpqiataaiqpwqpwpwpqiataaiqpw",
"atthttaiqqqpqpqqiaiqwwqiatthttaiqqpqpqqiattaiqqpqqpqwqathtiqwwqiatthttaiqqpqqpqpqqiqwwqiqqpqqpqpqqpqpqqiattaiqqpqqpqpqqiattaiqqp",
"tthhhttaiqqpqpqiataqwwqatthhhttaiqpqpqiathttaiqpiqpqwqthhtaqwwqatthhhttaiqpiqpqpqiaqwwqaiqpiqpqpiqpqpqiathttaiqpiqpqpqiathttaiqp",
"thhjhhtaiiiqiqiiataippiathhjhhtaiiqiqiiathhtaiiqiiqipithjhaippiathhjhhtaiiqiiqiqiiaippiaiiqiiqiqiiqiqiiathhtaiiqiiqiqiiathhtaiiq",
"thjjjhttaiiqiqiatttippitthjjjhttaiqiqiattjhttaiqaiqipitjjhtippitthjjjhttaiqaiqiqiatippitaiqaiqiqaiqiqiattjhttaiqaiqiqiattjhttaiq",
"hhjjjhhtaaaiaiaathtaqqathhjjjhhtaaiaiaathjhhtaaiaaiaqahjjhtaqqathhjjjhhtaaiaaiaiaataqqataaiaaiaiaaiaiaathjhhtaaiaaiaiaathjhhtaai",
"hjjxjjhhtaaiaiathhhaqqahhjjxjjhhtaiaiathhjjhhtaitaiaqahjxjhaqqahhjjxjjhhtaitaiaiathaqqahtaitaiaitaiaiathhjjhhtaitaiaiathhjjhhtai",
"jjxxxjjhtttatatthjhtiithjjxxxjjhttatatthjxjjhttattatitjxxjhtiithjjxxxjjhttattatatthtiithttattatattatatthjxjjhttattatatthjxjjhtta",
"jjxxxjjhtttatatthjhtiithjjxxxjjhttatatthjxjjhttattatitjxxjhtiithjjxxxjjhttattatatthtiithttattatattatatthjxjjhttattatatthjxjjhtta",
"jjxxxjjhttattatitjxtiithttattatittatitjxxxjjhttattatititattatthhjjxxxjjhttattatitjxtiithttattatittatitjxxxjjhttattatititattatthh",
"jjxxxjjhttattatatthtiithttattatattatatthjxjjhttattatitatattatthhjjxxxjjhttattatatthtiithttattatattatatthjxjjhttattatitatattatthh",
"hjjxjjhhtaitaiaiathaqqahtaitaiaitaiaiathhjjhhtaitaiaqaiaiatiathhhjjxjjhhtaitaiaiathaqqahtaitaiaitaiaiathhjjhhtaitaiaqaiaiatiathh",
"hhjjjhhtaaiaaiaiaataqqataaiaaiaiaaiaiaathjhhtaaiaaiaqaiaiaaiaatthhjjjhhtaaiaaiaiaataqqataaiaaiaiaaiaiaathjhhtaaiaaiaqaiaiaaiaatt",
"thjjjhttaiqaiqiqiatippitaiqaiqiqaiqiqiattjhttaiqaiqipiqiqiaqiattthjjjhttaiqaiqiqiatippitaiqaiqiqaiqiqiattjhttaiqaiqipiqiqiaqiatt",
"thhjhhtaiiqiiqiqiiaippiaiiqiiqiqiiqiqiiathhtaiiqiiqipiqiqiiqiiaathhjhhtaiiqiiqiqiiaippiaiiqiiqiqiiqiqiiathhtaiiqiiqipiqiqiiqiiaa",
"tthhhttaiqpiqpqpqiaqwwqaiqpiqpqpiqpqpqiathttaiqpiqpqwqpqpqipqiaatthhhttaiqpiqpqpqiaqwwqaiqpiqpqpiqpqpqiathttaiqpiqpqwqpqpqipqiaa",
"atthttaiqqpqqpqpqqiqwwqiqqpqqpqpqqpqpqqiattaiqqpqqpqwqpqpqqpqqiiatthttaiqqpqqpqpqqiqwwqiqqpqqpqpqqpqpqqiattaiqqpqqpqwqpqpqqpqqii",
"aathtaaiqpwqpwpwpqipffpiqpwqpwpwqpwpwpqiataaiqpwqpwpfpwpwpqwpqiiaathtaaiqpwqpwpwpqipffpiqpwqpwpwqpwpwpqiataaiqpwqpwpfpwpwpqwpqii",
"iatttaiqppwppwpwppqpffpqppwppwpwppwpwppqitaiqppwppwpfpwpwppwppqqiatttaiqppwppwpwppqpffpqppwppwpwppwpwppqitaiqppwppwpfpwpwppwppqq",
"iaataaiqpwwpwwwwwpqwffwqpwwpwwwwpwwwwwpqiaaiqpwwpwwwfwwwwwpwwpqqiaataaiqpwwpwwwwwpqwffwqpwwpwwwwpwwwwwpqiaaiqpwwpwwwfwwwwwpwwpqq",
"qiaaaiqpwwfwwfwfwwpwggwpwwfwwfwfwwfwfwwpqaiqpwwfwwfwgwfwfwwfwwppqiaaaiqpwwfwwfwfwwpwggwpwwfwwfwfwwfwfwwpqaiqpwwfwwfwgwfwfwwfwwpp",
"qqiaiqqpwffwfffffwpfggfpwffwffffwfffffwpqiqqpwffwfffgfffffwffwppqqiaiqqpwffwfffffwpfggfpwffwffffwfffffwpqiqqpwffwfffgfffffwffwpp",
"pqiaiqpwwfgwfgfgfwwfggfwwfgwfgfgwfgfgfwwpiqpwwfgwfgfgfgfgfwgfwwwpqiaiqpwwfgwfgfgfwwfggfwwfgwfgfgwfgfgfwwpiqpwwfgwfgfgfgfgfwgfwww",
"ppqiqppwffgffgfgffwfAAfwffgffgfgffgfgffwpqppwffgffgfAfgfgffgffwwppqiqppwffgffgfgffwfAAfwffgffgfgffgfgffwpqppwffgffgfAfgfgffgffww",
"wpqqqpwffggfgggggffgAAgffggfggggfgggggffwqpwffggfgggAgggggfggfffwpqqqpwffggfgggggffgAAgffggfggggfgggggffwqpwffggfgggAgggggfggfff",
"wwpqpwwfggAggAgAggfgAAgfggAggAgAggAgAggfwpwwfggAggAgAgAgAggAggffwwpqpwwfggAggAgAggfgAAgfggAggAgAggAgAggfwpwwfggAggAgAgAgAggAggff",
"fwpppwffggAggAgAggfgXXgfggAggAgAggAgAggffpwffggAggAgXgAgAggAggfffwpppwffggAggAgAggfgXXgfggAggAgAggAgAggffpwffggAggAgXgAgAggAggff",
"ffwpwffggAXgAXAXAggAXXAggAXgAXAXgAXAXAggfwffggAXgAXAXAXAXAgXAgggffwpwffggAXgAXAXAggAXXAggAXgAXAXgAXAXAggfwffggAXgAXAXAXAXAgXAggg",
"ffwwwffgAAXAAXAXAAgA..AgAAXAAXAXAAXAXAAgfwffgAAXAAXA.AXAXAAXAAggffwwwffgAAXAAXAXAAgA..AgAAXAAXAXAAXAXAAgfwffgAAXAAXA.AXAXAAXAAgg",
"gffwffggAXXAXXXXXAgX..XgAXXAXXXXAXXXXXAggffggAXXAXXX.XXXXXAXXAgggffwffggAXXAXXXXXAgX..XgAXXAXXXXAXXXXXAggffggAXXAXXX.XXXXXAXXAgg",
"ggfffggAXX.XX.X.XXAX..XAXX.XX.X.XX.X.XXAgfggAXX.XX.X.X.X.XX.XXAAggfffggAXX.XX.X.XXAX..XAXX.XX.X.XX.X.XXAgfggAXX.XX.X.X.X.XX.XXAA",
"ggfffggAXX.XX.X.XXAXooXAXX.XX.X.XX.X.XXAgfggAXX.XX.XoX.X.XX.XXAAggfffggAXX.XX.X.XXAXooXAXX.XX.X.XX.X.XXAgfggAXX.XX.XoX.X.XX.XXAA",
"AggfggAXX..X.....XX.oo.XX..X....X.....XXAggAXX..X...o.....X..XXXAggfggAXX..X.....XX.oo.XX..X....X.....XXAggAXX..X...o.....X..XXX",
"AAgggAAX..o..o.o..X.OO.X..o..o.o..o.o..XAgAAX..o..o.O.o.o..o..XXAAgggAAX..o..o.o..X.OO.X..o..o.o..o.o..XAgAAX..o..o.O.o.o..o..XX",
"AAgggAAX..o..o.o..X.OO.X..o..o.o..o.o..XAgAAX..o..o.O.o.o..o..XXAAgggAAX..o..o.o..X.OO.X..o..o.o..o.o..XAgAAX..o..o.O.o.o..o..XX",
"XXAgAXX..oO.oOoOo..oOOo..oO.oOoO.oOoOo..XAXX..oO.oOoOoOoOo.Oo...XXAgAXX..oO.oOoOo..oOOo..oO.oOoO.oOoOo..XAXX..oO.oOoOoOoOo.Oo...",
"XXAAAXX.ooOooOoOoo.o++o.ooOooOoOooOoOoo.XAXX.ooOooOo+oOoOooOoo..XXAAAXX.ooOooOoOoo.o++o.ooOooOoOooOoOoo.XAXX.ooOooOo+oOoOooOoo..",
".XAAAX..ooOooOoOoo.o++o.ooOooOoOooOoOoo..AX..ooOooOo+oOoOooOoo...XAAAX..ooOooOoOoo.o++o.ooOooOoOooOoOoo..AX..ooOooOo+oOoOooOoo..",
"..XXX..oOO+OO+O+OOoO++OoOO+OO+O+OO+O+OOo.X..oOO+OO+O+O+O+OO+OOoo..XXX..oOO+OO+O+OOoO++OoOO+OO+O+OO+O+OOo.X..oOO+OO+O+O+O+OO+OOoo",
"..XXX..oOO+OO+O+OOoO@@OoOO+OO+O+OO+O+OOo.X..oOO+OO+O@O+O+OO+OOoo..XXX..oOO+OO+O+OOoO@@OoOO+OO+O+OO+O+OOo.X..oOO+OO+O@O+O+OO+OOoo",
"o..X..ooO++O+++++Oo+@@+oO++O++++O+++++Ooo..ooO++O+++@+++++O++Oooo..X..ooO++O+++++Oo+@@+oO++O++++O+++++Ooo..ooO++O+++@+++++O++Ooo",
"oo...ooO++@++@+@++O+##+O++@++@+@++@+@++Oo.ooO++@++@+#+@+@++@++OOoo...ooO++@++@+@++O+##+O++@++@+@++@+@++Oo.ooO++@++@+#+@+@++@++OO",
"oo...ooO++@++@+@++O+##+O++@++@+@++@+@++Oo.ooO++@++@+#+@+@++@++OOoo...ooO++@++@+@++O+##+O++@++@+@++@+@++Oo.ooO++@++@+#+@+@++@++OO",
"Ooo.ooO++@@+@@@@@++@##@++@@+@@@@+@@@@@++OooO++@@+@@@#@@@@@+@@+++Ooo.ooO++@@+@@@@@++@##@++@@+@@@@+@@@@@++OooO++@@+@@@#@@@@@+@@+++",
"OOoooOO+@@#@@#@#@@+@<<@+@@#@@#@#@@#@#@@+OoOO+@@#@@#@<@#@#@@#@@++OOoooOO+@@#@@#@#@@+@<<@+@@#@@#@#@@#@#@@+OoOO+@@#@@#@<@#@#@@#@@++",
"OOoooOO+@@#@@#@#@@+@<<@+@@#@@#@#@@#@#@@+OoOO+@@#@@#@<@#@#@@#@@++OOoooOO+@@#@@#@#@@+@<<@+@@#@@#@#@@#@#@@+OoOO+@@#@@#@<@#@#@@#@@++",
"Ooo.ooO++@@+@@@@@++@##@++@@+@@@@+@@@@@++OooO++@@+@@@#@@@@@+@@+++Ooo.ooO++@@+@@@@@++@##@++@@+@@@@+@@@@@++OooO++@@+@@@#@@@@@+@@+++",
"oo...ooO++@++@+@++O+##+O++@++@+@++@+@++Oo.ooO++@++@+#+@+@++@++OOoo...ooO++@++@+@++O+##+O++@++@+@++@+@++Oo.ooO++@++@+#+@+@++@++OO",
"oo...ooO++@++@+@++O+##+O++@++@+@++@+@++Oo.ooO++@++@+#+@+@++@++OOoo...ooO++@++@+@++O+##+O++@++@+@++@+@++Oo.ooO++@++@+#+@+@++@++OO",
"o..X..ooO++O+++++Oo+@@+oO++O++++O+++++Ooo..ooO++O+++@+++++O++Oooo..X..ooO++O+++++Oo+@@+oO++O++++O+++++Ooo..ooO++O+++@+++++O++Ooo",
"..XXX..oOO+OO+O+OOoO@@OoOO+OO+O+OO+O+OOo.X..oOO+OO+O@O+O+OO+OOoo..XXX..oOO+OO+O+OOoO@@OoOO+OO+O+OO+O+OOo.X..oOO+OO+O@O+O+OO+OOoo",
"..XXX..oOO+OO+O+OOoO++OoOO+OO+O+OO+O+OOo.X..oOO+OO+O+O+O+OO+OOoo..XXX..oOO+OO+O+OOoO++OoOO+OO+O+OO+O+OOo.X..oOO+OO+O+O+O+OO+OOoo",
".XAAAX..ooOooOoOoo.o++o.ooOooOoOooOoOoo..AX..ooOooOo+oOoOooOoo...XAAAX..ooOooOoOoo.o++o.ooOooOoOooOoOoo..AX..ooOooOo+oOoOooOoo..",
"XXAAAXX.ooOooOoOoo.o++o.ooOooOoOooOoOoo.XAXX.ooOooOo+oOoOooOoo..XXAAAXX.ooOooOoOoo.o++o.ooOooOoOooOoOoo.XAXX.ooOooOo+oOoOooOoo..",
"XXAgAXX..oO.oOoOo..oOOo..oO.oOoO.oOoOo..XAXX..oO.oOoOoOoOo.Oo...XXAgAXX..oO.oOoOo..oOOo..oO.oOoO.oOoOo..XAXX..oO.oOoOoOoOo.Oo...",
"AAgggAAX..o..o.o..X.OO.X..o..o.o..o.o..XAgAAX..o..o.O.o.o..o..XXAAgggAAX..o..o.o..X.OO.X..o..o.o..o.o..XAgAAX..o..o.O.o.o..o..XX",
"AAgggAAX..o..o.o..X.OO.X..o..o.o..o.o..XAgAAX..o..o.O.o.o..o..XXAAgggAAX..o..o.o..X.OO.X..o..o.o..o.o..XAgAAX..o..o.O.o.o..o..XX",
"AggfggAXX..X.....XX.oo.XX..X....X.....XXAggAXX..X...o.....X..XXXAggfggAXX..X.....XX.oo.XX..X....X.....XXAggAXX..X...o.....X..XXX",
"ggfffggAXX.XX.X.XXAXooXAXX.XX.X.XX.X.XXAgfggAXX.XX.XoX.X.XX.XXAAggfffggAXX.XX.X.XXAXooXAXX.XX.X.XX.X.XXAgfggAXX.XX.XoX.X.XX.XXAA",
"ggfffggAXX.XX.X.XXAX..XAXX.XX.X.XX.X.XXAgfggAXX.XX.X.X.X.XX.XXAAggfffggAXX.XX.X.XXAX..XAXX.XX.X.XX.X.XXAgfggAXX.XX.X.X.X.XX.XXAA",
"gffwffggAXXAXXXXXAgX..XgAXXAXXXXAXXXXXAggffggAXXAXXX.XXXXXAXXAgggffwffggAXXAXXXXXAgX..XgAXXAXXXXAXXXXXAggffggAXXAXXX.XXXXXAXXAgg",
"ffwwwffgAAXAAXAXAAgA..AgAAXAAXAXAAXAXAAgfwffgAAXAAXA.AXAXAAXAAggffwwwffgAAXAAXAXAAgA..AgAAXAAXAXAAXAXAAgfwffgAAXAAXA.AXAXAAXAAgg",
"ffwpwffggAXgAXAXAggAXXAggAXgAXAXgAXAXAggfwffggAXgAXAXAXAXAgXAgggffwpwffggAXgAXAXAggAXXAggAXgAXAXgAXAXAggfwffggAXgAXAXAXAXAgXAggg",
"fwpppwffggAggAgAggfAXXAfggAggAgAggAgAggffpwffggAggAgXgAgAggAggfffwpppwffggAggAgAggfAXXAfggAggAgAggAgAggffpwffggAggAgXgAgAggAggff",
"wwpqpwwfggAggAgAggfgXXgfggAggAgAggAgAggfwpwwfggAggAgAgAgAggAggffwwpqpwwfggAggAgAggfgXXgfggAggAgAggAgAggfwpwwfggAggAgAgAgAggAggff"
};
