/* XPM */
static char *COMPSTA2[] = {
/* columns rows colors chars-per-pixel */
"128 128 52 1 ",
"  c black",
". c #9F9F9F",
"X c #2F6323",
"o c #27531B",
"O c #37732B",
"+ c #17330F",
"@ c gray23",
"# c gray34",
"$ c gray28",
"% c gray31",
"& c #4B4B4B",
"* c #777777",
"= c #4B9F3F",
"- c #13230B",
"; c #0B1707",
": c gray39",
"> c #1F4317",
", c #439337",
"< c gray42",
"1 c #5B5B5B",
"2 c #3F832F",
"3 c #434343",
"4 c #232323",
"5 c #373737",
"6 c #6F6F6F",
"7 c #2F2F2F",
"8 c gray50",
"9 c #939393",
"0 c #00003B",
"q c #838383",
"w c #8B8B8B",
"e c #272727",
"r c #474F33",
"t c #131313",
"y c #000053",
"u c #373F27",
"i c #000047",
"p c #D7BB43",
"a c #53AF47",
"s c #00002F",
"d c #5BBF4F",
"f c #1B1B1B",
"g c #3F472B",
"h c #0B0B0B",
"j c #000083",
"k c #67DF5F",
"l c #53573B",
"z c #6FEF67",
"x c #00009B",
"c c #77FF6F",
"v c #00006B",
"b c #979797",
/* pixels */
"77eee775@@3@$@7ee75@$$@577eee775@@3@$@7eee775@@3@@3@$@7ee75@$$@577eee775@@3@@3@$@7e@$$@5@@3@@3@$@@3@$@7eee775@@3@@3@$@7eee775@@3",
"77eee775@@@3@3@@575@$$@577eee775@@3@3@@57e775@@3@@3@$@7ee75@$$@577eee775@@3@@3@3@@5@$$@5@@3@@3@3@@3@3@@57e775@@3@@3@3@@57e775@@3",
"577e7755@33$3$3@5553&&35577e7755@3$3$3@557755@3$@3$3&357e753&&35577e7755@3$@3$3$3@53&&35@3$@3$3$@3$3$3@557755@3$@3$3$3@557755@3$",
"5577755@333$3$33@5@3&&3@5577755@33$3$33@5755@33$33$3&35775@3&&3@5577755@33$33$3$33@3&&3@33$33$3$33$3$33@5755@33$33$3$33@5755@33$",
"@5777;;;;;;;;;;;;;;;;;;;;;;;;;;;;;;;;;;;;;;;;;;;;;;;;$@7                                3$&                                 @3$&",
"@5575;<:1#%$3@57e4ft                                ;$@5 <:1#%$3@57e4tt                 $$& %$3@57e4ft                      3$$&",
"@@555;:1#%$3@57e4ft               -o2o              ;&@5 :1#%$3@5xjvyt ssss   + -XX+XO  $&% $rrrrrgu++++++++++++++++++++++  3$&%",
"3@@5@;1#%$3@57e4ft               -o,=,o             ;&3@ 1#%$3@57jvyi  ssss             &&% 3r57e4ut    +      +         +  $&&%",
"33@5@;#%$3lrgu4ft               -o,===,o            ;%3@ #%$3@57evyish ssss   + +-X--   &%# @r7e4f+     +      +         +  $&%#",
"$3@@@;%$3lrguuut o,===========,++,=====,o           ;%$@ %$3@57e4ft h                   %%# 5re4ft+     +      +         +  &%%#",
"$33@3;$3@rguuuu o,X----------+X,+o,=====,o          ;#$3 $3@57e4fii0s  ssss   + -XX+XO  %## 7r4ft+X+   +o+     +   +oOo+ +  &%##",
"&$333;3@5guuuuoo,XX+----------+X,+o,=====,o         ;#&3 3@57e4fti0ss  ssss             ##1 egft+2a2+ +2=2+   -+-  o=d=o +  %##1",
"&&$3$;@57euuuoO,X======ppp=====,X,+o,===,o-         ;1&$ @57e4ft 0sss  ssss   + +-X--   #11 4ut XazaX +=k=+   >k>  OdcdO +  %#11",
"%&$3$;57e4ft O,O=====,,ppp=======X,OO,,,o-          ;1%$ 57e4ft h                       #1: f+  +2a2+ +2=2+   -+-  o=d=o +  ##1:",
"%%&$&;7e4ft o,O=====X>----+>X,====O,Oo2o-           ;1%& 7e4fth               + -ooX--  11: t+   +X+   +o+     +   +oOo+ +  #11:",
"#%&&&;e4ft o,X=====O>----+>X,======O,+o-            ;:#& e4fth                          1::  +    +     +      +         +  11::",
"##%&%;4ft o,X=====OOO>----+>O,======X,+             ;:#% 4fu+++++++++>>>>>>>>>>>>>>>>   ::<  +    +     +      +         +  1::<",
"1#%%%;ft  ,X>X===X>O,,,,,,,,OO,====X>+,             ;:1% ft+    +0   >----+----+---->   ::<  +    +     +      +         +  1::<",
"11#%#;t   =-->X=X>-,========O>X,==X>+-=             ;<1# t +0   +    >--2-+----+---->   :<6  +    +     +      +         +  ::<6",
"11###;    ==================O->X,X>+--=  + -XX+XO   ;<1#   +    +    >----+-->-+---->   <<6  +++++++++++++++++++++++++++++  :<<6",
":11#1;    =--------=========O->>X>+---=             ;6:1   +    +    >----+----+-X-->   <66                                 :<66",
"::111;    =-X====,O====================  + +-X--    ;6:1   ++++++++++>++++++++++++++>   66*                                 <66*",
"::111;    =-======O2=======Oo=XXX,X>+-=             ;6:1   +    +    >----+----+---->   66*66*6*66*6*66<:1::<66*66*6*66<:1::<66*",
"<::1:;    =-======+>2=====Oo===X,=,X>+=  + -ooX--   ;*<:   +  y + 0  >->--+----+---->   6**6****6*****66<::<66**6*****66<::<66**",
"<<:::;    =-=====,+->2,,,OO===O,===,X>=             ;*<:   +    +    >----+-X--+--->>   **8**8*8**8*8**6<:<<6**8**8*8**6<:<<6**8",
"<<:::;    =-,===,OX-->O->o===X,=====,X=  + oX-+     ;*<:   +    +    >----+----+---->   **8**8*8**8*8**6<:<<6**8**8*8**6<:<<6**8",
"66<:<;    =-O,=,XO=X>O=>o===X,X====,X>=             ;86<   ++++++++++>>>>>>>>>>>>>>>>   *8q*8q8q*8q8q8**6<66**8q*8q8q8**6<66**8q",
"66<<<;    =-++++X===X===Oo=O,=,X==,X>+=  + o-XXo    ;86<   +    +    +    +    +    +   88q                                 *88q",
"*6<<<;    =---+X=====X=O>+o,===,X,X>+-=             ;8*<   +    +    + y  +  0 +    +   88q %$3@57e4444444                  *88q",
"**666;    ,X-+X=======X>--,=====,X=+-o,  + ooooo    ;q*6   +    + y  +    +    + 0  +   qqw $3@3$33$@@3$@4 oOo OOo OO2 oOo  8qqw",
"**666;    >,X-+X=======222=======,X>o,>             ;q*6   +    +    +    +    +    +   qqw 33@$333$@@3$@4 OOO OOO OX  OXO  8qqw",
"8**6*;     X,X-OO=====O>2oX======,Xo,>-  > oo+X     ;w8*   ++++++++++++++++++++++++++   qww @3@$333$@@3$@4 X X 2 X OO2 O O  8qww",
"88***;    X,==OO>X===X>X2X>X====,Xo,>-              ;w8*   +    +    +    +    +    +   ww9 53#<::::::<#@4                  qww9",
"88***;   X,====X->X=X>o2=2o>X==,Xo,>-    > +Xooo    ;w8*   +    +  y +    + 0  +    +   ww9 7#<#%%%%%%#<#4 O2O 2 2          qww9",
"q88*8;  X,======X->X>o2===2o>X,Xo,>-                ;9q8   +    +    +    +    +    +   w99 e<#$333333$#<4  oX OOO          ww99",
"qq888;   X,======X->o2=====2o>oo,>-      > oXoXo    ;9q8   +    +    +    +    +    +   99b 4<$@7eeee7@$<4 O2O   X          w99b",
"qq888;    X,===,X,Xo2=======2oo,>-                  ;9q8   ++++++++++++++++++++++++++   99b 41@77777777@14                  w99b",
"q88*8;     X,=,X >,===========,>-        > oXooXX   ;9q8   +    +    +    +    +    +   w99 45555555555554                  ww99",
"88***;      X,X                                     ;w8*   +    +    +    +    +    +   ww9 4@@@@@@@@@@@@4 + -XX+XO         qww9",
"88***;       X                           > oXX      ;w8*   +    +    +0   +y   +    +   ww9 43333333333334                  qww9",
"8**6*;                                              ;w8*   +j   +    +    +    + 0  +   qww 4$$$$$$$$$$$$4 + +-X--          8qww",
"**666;                                              ;q*6   ++++++++++++++++++++++++++   qqw 4%%%%%%%%%%%%4                  8qqw",
"**666;                                              ;q*6                                qqw 44444444444444 + -XX+XO         8qqw",
"*6<<<;;;;;;;;;;;;;;;;;;;;;;;;;;;;;;;;;;;;;;;;;;;;;;;;8*<                                88q                                 *88q",
"66<<<66*888q8q88*6*8ww8*66<<<66*88q8q88*6<66*88q88q8w86<<6*8ww8*66<<<66*88q88q8q88*8ww8*88q88q8q88q8q88*6<66*88q88q8q88*6<66*88q",
"66<:<66**88q8q8**6*8qq8*66<:<66**8q8q8**6<66**8q*8q8q86<:6*8qq8*66<:<66**8q*8q8q8**8qq8**8q*8q8q*8q8q8**6<66**8q*8q8q8**6<66**8q",
"<<:::<<6***8*8**6<6*qq*6<<:::<<6**8*8**6<:<<6**8**8*q*<::<6*qq*6<<:::<<6**8**8*8**6*qq*6**8**8*8**8*8**6<:<<6**8**8*8**6<:<<6**8",
"<<:::<<6***8*8**6<6*qq*6<<:::<<6**8*8**6<:<<6**8**8*q*<::<6*qq*6<<:::<<6**8**8*8**6*qq*6**8**8*8**8*8**6<:<<6**8**8*8**6<:<<6**8",
"<::1::<66******66<6*88*6<::1::<66*****66<::<66**6***8*<:1:6*88*6<::1::<66**6*****66*88*66**6****6*****66<::<66**6*****66<::<66**",
"::111::<666*6*66<:<6886<::111::<66*6*66<:1::<66*66*686:11:<6886<::111::<66*66*6*66<6886<66*66*6*66*6*66<:1::<66*66*6*66<:1::<66*",
"::111::<666*6*66<:<6**6<::111::<66*6*66<:1::<66*66*6*6:11:<6**6<::111::<66*66*6*66<6**6<66*66*6*66*6*66<:1::<66*66*6*66<:1::<66*",
":11#11::<666666<:::6**6::11#11::<66666<::11::<66<666*6:1#1:6**6::11#11::<66<66666<:6**6:<66<6666<66666<::11::<66<66666<::11::<66",
"11###11:<<<6<6<<:1:<**<:11###11:<<6<6<<:1#11:<<6<<6<*<1##1:<**<:11###11:<<6<<6<6<<:<**<:<<6<<6<6<<6<6<<:1#11:<<6<<6<6<<:1#11:<<6",
"11#%#11::<<6<6<::1:<66<:11#%#11::<6<6<::1#11::<6:<6<6<1#%1:<66<:11#%#11::<6:<6<6<::<66<::<6:<6<6:<6<6<::1#11::<6:<6<6<::1#11::<6",
"1#%%%#11:::<:<::111:66:11#%%%#11::<:<::11%#11::<::<:6:1%%#1:66:11#%%%#11::<::<:<::1:66:1::<::<:<::<:<::11%#11::<::<:<::11%#11::<",
"##%&%##1:::<:<::1#1:<<:1##%&%##1::<:<::1#%##1::<::<:<:#%&#1:<<:1##%&%##1::<::<:<::1:<<:1::<::<:<::<:<::1#%##1::<::<:<::1#%##1::<",
"#%&&&%#11::::::11#1:<<:1#%&&&%#11:::::11#&%#11::1:::<:#&&%1:<<:1#%&&&%#11::1:::::11:<<:11::1::::1:::::11#&%#11::1:::::11#&%#11::",
"%%&$&%%#111:1:11#%#1<<1#%%&$&%%#11:1:11#%&%%#11:11:1<1%&$%#1<<1#%%&$&%%#11:11:1:11#1<<1#11:11:1:11:1:11#%&%%#11:11:1:11#%&%%#11:",
"%&$3$&%##11:1:1##%#1::1#%&$3$&%##1:1:1##%$&%##1:#1:1:1%$3&#1::1#%&$3$&%##1:#1:1:1##1::1##1:#1:1:#1:1:1##%$&%##1:#1:1:1##%$&%##1:",
"&&$3$&&%#111111#%&%1::1%&&$3$&&%#11111#%&$&&%#11#111:1&$3&%1::1%&&$3$&&%#11#11111#%1::1%#11#1111#11111#%&$&&%#11#11111#%&$&&%#11",
"&$333$&%###1#1##%&%#::#%&$333$&%##1#1##%&3$&%##1##1#:#&33$%#::#%&$333$&%##1##1#1##%#::#%##1##1#1##1#1##%&3$&%##1##1#1##%&3$&%##1",
"$33@33$&%######%&$&#11#&$33@33$&%#####%&$33$&%##%###1#$3@3&#11#&$33@33$&%##%#####%&#11#&%##%####%#####%&$33$&%##%#####%&$33$&%##",
"$3@@@3$&%%%#%#%%&$&%11%&$3@@@3$&%%#%#%%&$@3$&%%#%%#%1%$@@3&%11%&$3@@@3$&%%#%%#%#%%&%11%&%%#%%#%#%%#%#%%&$@3$&%%#%%#%#%%&$@3$&%%#",
"33@5@33$&%%#%#%&$3$%11%$33@5@33$&%#%#%&$3@33$&%#&%#%1%3@53$%11%$33@5@33$&%#&%#%#%&$%11%$&%#&%#%#&%#%#%&$3@33$&%#&%#%#%&$3@33$&%#",
"3@@5@@3$&&&%&%&&$3$&##&$3@@5@@3$&&%&%&&$3@@3$&&%&&%&#&3@5@$&##&$3@@5@@3$&&%&&%&%&&$&##&$&&%&&%&%&&%&%&&$3@@3$&&%&&%&%&&$3@@3$&&%",
"@@555@@3$&&%&%&$3@3&##&3@@555@@3$&%&%&$3@5@@3$&%$&%&#&@55@3&##&3@@555@@3$&%$&%&%&$3&##&3$&%$&%&%$&%&%&$3@5@@3$&%$&%&%&$3@5@@3$&%",
"@55755@3$$$&$&$$3@3$%%$3@55755@3$$&$&$$3@55@3$$&$$&$%$@5753$%%$3@55755@3$$&$$&$&$$3$%%$3$$&$$&$&$$&$&$$3@55@3$$&$$&$&$$3@55@3$$&",
"@57775@@3$$&$&$3@@@$%%$@@57775@@3$&$&$3@@75@@3$&3$&$%$@775@$%%$@@57775@@3$&3$&$&$3@$%%$@3$&3$&$&3$&$&$3@@75@@3$&3$&$&$3@@75@@3$&",
"5577755@333$3$33@5@3&&3@5577755@33$3$33@5755@33$33$3&35775@3&&3@5577755@33$33$3$33@3&&3@33$33$3$33$3$33@5755@33$33$3$33@5755@33$",
"577e7755@33$3$3@5553&&35577e7755@3$3$3@557755@3$@3$3&357e753&&35577e7755@3$@3$3$3@53&&35@3$@3$3$@3$3$3@557755@3$@3$3$3@557755@3$",
"77eee775@@@3@3@@575@$$@577eee775@@3@3@@57e775@@3@@3@$@7ee75@$$@577eee775@@3@@3@3@@5@$$@5@@3@@3@3@@3@3@@57e775@@3@@3@3@@57e775@@3",
"77eee775@@@3@3@@575@$$@577eee775@@3@3@@57e775@@3@@3@$@7ee75@$$@577eee775@@3@@3@3@@5@$$@5@@3@@3@3@@3@3@@57e775@@3@@3@3@@57e775@@3",
"77eee775@@3@@3@$@7e@$$@5@@3@@3@$@@3@$@7eee775@@3@@3@$@$@3@@3@@5577eee775@@3@@3@$@7e@$$@5@@3@@3@$@@3@$@7eee775@@3@@3@$@$@3@@3@@55",
"77eee775@@3@@3@3@@5@$$@5@@3@@3@3@@3@3@@57e775@@3@@3@$@3@3@@3@@5577eee775@@3@@3@3@@5@$$@5@@3@@3@3@@3@3@@57e775@@3@@3@$@3@3@@3@@55",
"577e7755@3$@3$3$3@53&&35@3$@3$3$@3$3$3@557755@3$@3$3&3$3$3@$3@55577e7755@3$@3$3$3@53&&35@3$@3$3$@3$3$3@557755@3$@3$3&3$3$3@$3@55",
"5577755@33$33$3$33@3&&3@33$33$3$33$3$33@5755@33$33$3&3$3$33$33@@5577755@33$33$3$33@3&&3@33$33$3$33$3$33@5755@33$33$3&3$3$33$33@@",
"@57775@@3$&3$&$&$3@$%%$@3$&3$&$&3$&$&$3@@75@@3$&3$&$%$&$&$3&$3@@@57775@@3$&3$&$&$3@$%%$@3$&3$&$&3$&$&$3@@75@@3$&3$&$%$&$&$3&$3@@",
"@55755@3$$&$$&$&$$3$%%$3$$&$$&$&$$&$&$$3@55@3$$&$$&$%$&$&$$&$$33@55755@3$$&$$&$&$$3$%%$3$$&$$&$&$$&$&$$3@55@3$$&$$&$%$&$&$$&$$33",
"@@555@@3$&%$&%&%&$3&##&3$&%$&%&%$&%&%&$3@5@@3$&%$&%&#&%&%&$%&$33@@555@@3$&%$&%&%&$3&##&3$&%$&%&%$&%&%&$3@5@@3$&%$&%&#&%&%&$%&$33",
"3@@5@@3$&&%&&%&%&&$&##&$&&%&&%&%&&%&%&&$3@@3$&&%&&%&#&%&%&&%&&$$3@@5@@3$&&%&&%&%&&$&##&$&&%&&%&%&&%&%&&$3@@3$&&%&&%&#&%&%&&%&&$$",
"33@5@33$&%#&%#%#%&$%11%$&%#&%#%#&%#%#%&$3@33$&%#&%#%1%#%#%&#%&$$33@5@33$&%#&%#%#%&$%11%$&%#&%#%#&%#%#%&$3@33$&%#&%#%1%#%#%&#%&$$",
"$3@@@3$&%%#%%#%#%%&%11%&%%#%%#%#%%#%#%%&$@3$&%%#%%#%1%#%#%%#%%&&$3@@@3$&%%#%%#%#%%&%11%&%%#%%#%#%%#%#%%&$@3$&%%#%%#%1%#%#%%#%%&&",
"$33@33$&%##%#####%&#11#&%##%####%#####%&$33$&%##%###1#####%##%&&$33@33$&%##%#####%&#11#&%##%####%#####%&$33$&%##%###1#####%##%&&",
"&$333$&%##1##1#1##%#::#%##1##1#1##1#1##%&3$&%##1##1#:#1#1##1##%%&$333$&%##1##1#1##%#::#%##1##1#1##1#1##%&3$&%##1##1#:#1#1##1##%%",
"&&$3$&&%#11#11111#%1::1%#11#1111#11111#%&$&&%#11#111:11111#11#%%&&$3$&&%#11#11111#%1::1%#11#1111#11111#%&$&&%#11#111:11111#11#%%",
"%&$3$&%##1:#1:1:1##1::1##1:#1:1:#1:1:1##%$&%##1:#1:1:1:1:1#:1###%&$3$&%##1:#1:1:1##1::1##1:#1:1:#1:1:1##%$&%##1:#1:1:1:1:1#:1###",
"%%&$&%%#11:11:1:11#1<<1#11:11:1:11:1:11#%&%%#11:11:1<1:1:11:11##%%&$&%%#11:11:1:11#1<<1#11:11:1:11:1:11#%&%%#11:11:1<1:1:11:11##",
"#%&&&%#11::1:::::11:<<:11::1::::1:::::11#&%#11::1:::<:::::1::111#%&&&%#11::1:::::11:<<:11::1::::1:::::11#&%#11::1:::<:::::1::111",
"##%&%##1::<::<:<::1:<<:1::<::<:<::<:<::1#%##1::<::<:<:<:<::<::11##%&%##1::<::<:<::1:<<:1::<::<:<::<:<::1#%##1::<::<:<:<:<::<::11",
"1#%%%#11::<::<:<::1:66:1::<::<:<::<:<::11%#11::<::<:6:<:<::<::111#%%%#11::<::<:<::1:66:1::<::<:<::<:<::11%#11::<::<:6:<:<::<::11",
"11#%#11::<6:<6<6<::<66<::<6:<6<6:<6<6<::1#11::<6:<6<6<6<6<:6<:::11#%#11::<6:<6<6<::<66<::<6:<6<6:<6<6<::1#11::<6:<6<6<6<6<:6<:::",
"11###11:<<6<<6<6<<:<**<:<<6<<6<6<<6<6<<:1#11:<<6<<6<*<6<6<<6<<::11###11:<<6<<6<6<<:<**<:<<6<<6<6<<6<6<<:1#11:<<6<<6<*<6<6<<6<<::",
":11#11::<66<66666<:6**6:<66<6666<66666<::11::<66<666*66666<66<:::11#11::<66<66666<:6**6:<66<6666<66666<::11::<66<666*66666<66<::",
"::111::<66*66*6*66<6**6<66*66*6*66*6*66<:1::<66*66*6*6*6*66*66<<::111::<66*66*6*66<6**6<66*66*6*66*6*66<:1::<66*66*6*6*6*66*66<<",
"::111::<66*66*6*66<6886<66*66*6*66*6*66<:1::<66*66*686*6*66*66<<::111::<66*66*6*66<6886<66*66*6*66*6*66<:1::<66*66*686*6*66*66<<",
"<::1::<66**6*****66*88*66**6****6*****66<::<66**6***8*****6**666<::1::<66**6*****66*88*66**6****6*****66<::<66**6***8*****6**666",
"<<:::<<6**8**8*8**6*qq*6**8**8*8**8*8**6<:<<6**8**8*q*8*8**8**66<<:::<<6**8**8*8**6*qq*6**8**8*8**8*8**6<:<<6**8**8*q*8*8**8**66",
"<<:::<<6**8**8*8**6*qq*6**8**8*8**8*8**6<:<<6**8**8*q*8*8**8**66<<:::<<6**8**8*8**6*qq*6**8**8*8**8*8**6<:<<6**8**8*q*8*8**8**66",
"66<:<66**8q*8q8q8**8qq8**8q*8q8q*8q8q8**6<66**8q*8q8q8q8q8*q8***66<:<66**8q*8q8q8**8qq8**8q*8q8q*8q8q8**6<66**8q*8q8q8q8q8*q8***",
"66<<<66*88q88q8q88*8ww8*88q88q8q88q8q88*6<66*88q88q8w8q8q88q88**66<<<66*88q88q8q88*8ww8*88q88q8q88q8q88*6<66*88q88q8w8q8q88q88**",
"*6<<<6**88q88q8q88*8ww8*88q88q8q88q8q88**<6**88q88q8w8q8q88q88***6<<<6**88q88q8q88*8ww8*88q88q8q88q8q88**<6**88q88q8w8q8q88q88**",
"**666**8qqwqqwqwqq8qwwq8qqwqqwqwqqwqwqq8*6**8qqwqqwqwqwqwqqwqq88**666**8qqwqqwqwqq8qwwq8qqwqqwqwqqwqwqq8*6**8qqwqqwqwqwqwqqwqq88",
"**666**8qqwqqwqwqq8q99q8qqwqqwqwqqwqwqq8*6**8qqwqqwq9qwqwqqwqq88**666**8qqwqqwqwqq8q99q8qqwqqwqwqqwqwqq8*6**8qqwqqwq9qwqwqqwqq88",
"8**6**88qwwqwwwwwq8w99w8qwwqwwwwqwwwwwq88**88qwwqwww9wwwwwqwwq888**6**88qwwqwwwwwq8w99w8qwwqwwwwqwwwwwq88**88qwwqwww9wwwwwqwwq88",
"88***88qww9ww9w9wwqwbbwqww9ww9w9ww9w9wwq8*88qww9ww9wbw9w9ww9wwqq88***88qww9ww9w9wwqwbbwqww9ww9w9ww9w9wwq8*88qww9ww9wbw9w9ww9wwqq",
"88***88qww9ww9w9wwqwbbwqww9ww9w9ww9w9wwq8*88qww9ww9wbw9w9ww9wwqq88***88qww9ww9w9wwqwbbwqww9ww9w9ww9w9wwq8*88qww9ww9wbw9w9ww9wwqq",
"q88*88qww99w99999ww9bb9ww99w9999w99999wwq88qww99w999b99999w99wwwq88*88qww99w99999ww9bb9ww99w9999w99999wwq88qww99w999b99999w99www",
"qq888qqw99b99b9b99w9..9w99b99b9b99b9b99wq8qqw99b99b9.9b9b99b99wwqq888qqw99b99b9b99w9..9w99b99b9b99b9b99wq8qqw99b99b9.9b9b99b99ww",
"qq888qqw99b99b9b99w9..9w99b99b9b99b9b99wq8qqw99b99b9.9b9b99b99wwqq888qqw99b99b9b99w9..9w99b99b9b99b9b99wq8qqw99b99b9.9b9b99b99ww",
"q88*88qww99w99999ww9bb9ww99w9999w99999wwq88qww99w999b99999w99wwwq88*88qww99w99999ww9bb9ww99w9999w99999wwq88qww99w999b99999w99www",
"88***88qww9ww9w9wwqwbbwqww9ww9w9ww9w9wwq8*88qww9ww9wbw9w9ww9wwqq88***88qww9ww9w9wwqwbbwqww9ww9w9ww9w9wwq8*88qww9ww9wbw9w9ww9wwqq",
"88***88qww9ww9w9wwqwbbwqww9ww9w9ww9w9wwq8*88qww9ww9wbw9w9ww9wwqq88***88qww9ww9w9wwqwbbwqww9ww9w9ww9w9wwq8*88qww9ww9wbw9w9ww9wwqq",
"8**6**88qwwqwwwwwq8w99w8qwwqwwwwqwwwwwq88**88qwwqwww9wwwwwqwwq888**6**88qwwqwwwwwq8w99w8qwwqwwwwqwwwwwq88**88qwwqwww9wwwwwqwwq88",
"**666**8qqwqqwqwqq8q99q8qqwqqwqwqqwqwqq8*6**8qqwqqwq9qwqwqqwqq88**666**8qqwqqwqwqq8q99q8qqwqqwqwqqwqwqq8*6**8qqwqqwq9qwqwqqwqq88",
"**666**8qqwqqwqwqq8qwwq8qqwqqwqwqqwqwqq8*6**8qqwqqwqwqwqwqqwqq88**666**8qqwqqwqwqq8qwwq8qqwqqwqwqqwqwqq8*6**8qqwqqwqwqwqwqqwqq88",
"*6<<<6**88q88q8q88*8ww8*88q88q8q88q8q88**<6**88q88q8w8q8q88q88***6<<<6**88q88q8q88*8ww8*88q88q8q88q8q88**<6**88q88q8w8q8q88q88**",
"66<<<66*88q88q8q88*8ww8*88q88q8q88q8q88*6<66*88q88q8w8q8q88q88**66<<<66*88q88q8q88*8ww8*88q88q8q88q8q88*6<66*88q88q8w8q8q88q88**",
"66<:<66**8q*8q8q8**8qq8**8q*8q8q*8q8q8**6<66**8q*8q8q8q8q8*q8***66<:<66**8q*8q8q8**8qq8**8q*8q8q*8q8q8**6<66**8q*8q8q8q8q8*q8***",
"<<:::<<6**8**8*8**6*qq*6**8**8*8**8*8**6<:<<6**8**8*q*8*8**8**66<<:::<<6**8**8*8**6*qq*6**8**8*8**8*8**6<:<<6**8**8*q*8*8**8**66",
"<<:::<<6**8**8*8**6*qq*6**8**8*8**8*8**6<:<<6**8**8*q*8*8**8**66<<:::<<6**8**8*8**6*qq*6**8**8*8**8*8**6<:<<6**8**8*q*8*8**8**66",
"<::1::<66**6*****66*88*66**6****6*****66<::<66**6***8*****6**666<::1::<66**6*****66*88*66**6****6*****66<::<66**6***8*****6**666",
"::111::<66*66*6*66<6886<66*66*6*66*6*66<:1::<66*66*686*6*66*66<<::111::<66*66*6*66<6886<66*66*6*66*6*66<:1::<66*66*686*6*66*66<<",
"::111::<66*66*6*66<6**6<66*66*6*66*6*66<:1::<66*66*6*6*6*66*66<<::111::<66*66*6*66<6**6<66*66*6*66*6*66<:1::<66*66*6*6*6*66*66<<",
":11#11::<66<66666<:6**6:<66<6666<66666<::11::<66<666*66666<66<:::11#11::<66<66666<:6**6:<66<6666<66666<::11::<66<666*66666<66<::",
"11###11:<<6<<6<6<<:<**<:<<6<<6<6<<6<6<<:1#11:<<6<<6<*<6<6<<6<<::11###11:<<6<<6<6<<:<**<:<<6<<6<6<<6<6<<:1#11:<<6<<6<*<6<6<<6<<::",
"11#%#11::<6:<6<6<::<66<::<6:<6<6:<6<6<::1#11::<6:<6<6<6<6<:6<:::11#%#11::<6:<6<6<::<66<::<6:<6<6:<6<6<::1#11::<6:<6<6<6<6<:6<:::",
"1#%%%#11::<::<:<::1<66<1::<::<:<::<:<::11%#11::<::<:6:<:<::<::111#%%%#11::<::<:<::1<66<1::<::<:<::<:<::11%#11::<::<:6:<:<::<::11",
"##%&%##1::<::<:<::1:66:1::<::<:<::<:<::1#%##1::<::<:<:<:<::<::11##%&%##1::<::<:<::1:66:1::<::<:<::<:<::1#%##1::<::<:<:<:<::<::11"
};
