/* XPM */
static char *COMPTILE[] = {
/* columns rows colors chars-per-pixel */
"128 128 15 1 ",
"  c #272727",
". c #00002F",
"X c #000053",
"o c #00006B",
"O c #000047",
"+ c #000023",
"@ c #2F2F2F",
"# c #1B1B1B",
"$ c #000083",
"% c #00003B",
"& c #00009B",
"* c #000017",
"= c #0000B3",
"- c #131313",
"; c #373737",
/* pixels */
"#@@@@@@@@@@@@@@@@@@@@@@@@@@@@@@@..o.X...X...X...XO..X...X...X%..X.o.X...$...X...X...X..XO...X...#@@@@@@@@@@@@@@@@@@@@@@@@@@@@@@@",
"#@                             @..o.X...X...X...XO..X...X...X%..X.o.X...$...X...X...X..XO...X...#@                             @",
"#@                             @..o.X...X...X...XO..X...$ooo$%..X.o.XXXX&XXXoXXXoXXXoXXooXXXo...#@                             @",
"#@                             @..o.oOOOX...oXXXoXX$o...O...X%..O.O.X...$...X...O...X..OO...X...#@                             @",
"#@                             @XX$X$XXXXOXXXO++..+o+*++....X%..X.o.$ooo&++*X+++oXXXoXXooXXXoXoX#@                             @",
"#@                             @..o.o...X+...+..XO.o.+..X...X%..X.o.X...$..+X...oooo$oo$$oooX.X.#@                             @",
"#@                             @..o.o...X+...+..XO.o.+..X...X%..X.O+X+++$..+X...X+++X++XO...X.X.#@                             @",
"#@                             @..o.o...X+...+..XO.o.+..X...X%..X.o.X...$..+X...o...X..XO...X.X.#@                             @",
"#@                             @XX&O$OXXoOXXX.XXoXX.XXOXoOoOXXXOoXoXXo$XoXXOoXXXoXXXoXXoXXXX$XXX#@                             @",
"#@                             @....o+O.X+...+..X..+.O%.X+O+X%.+X.o.+Oo.X..+$.+.o...+..XO...o.X.#@                             @",
"#@                             @....o+O.X+...+..X..+.O%.X+O+X%.+X.o.+Oo.X..+$.+.o...+..XO...o.X.#@                             @",
"#@                             @....o+O.X+...+..X..+.O%.X+O+X%.+X.o.+Oo.X..+$.+.o...+..XO...o.X.#@                             @",
"#@                    ##########XXoXXOXOXOOOXOOOXOOOOOOXX.O.O...O.O..OX.O...O...XOOOXOOXXXXX$XXX##########                     @",
"#@                    #XO...o..X..X.o+O.X+o.o+..X..+.O%oX+O+X%.+X.o.+Oo.X..+o.+.X...O..XO...o..X..X.ooO.X#                     @",
"#@                    #XO...O..X..X.o+O.X+o.o+..X..+.O%oX+O+X%.+X.o.+Oo.X..+o.+.X...O..XO...O..X..X.ooO.X#                     @",
"#@                    #XO...O..X..X.o+O.X+o.o+..X..+.O%oX+O+X%.+X.o.+Oo.X..+o.+.X...O..XO...O..X..X.ooO.X#                     @",
"#@                    #oX.$XoXXXXXoO$OoXoO$X$.XXoXXOXXXXXXXXXXXoXXXXXXoXXXXOXXXXXXXOOXXoX.$XoXXXXXoO$ooXo#                     @",
"#@                    #XO+o.o.....O.o+O.X+o.$+..o..+.+%$X+O+.%.oX.o.+O$.X..+o.+.X..+O..XO+o.o.....O.o+O.X#                     @",
"#@                    #.O+o.o.....O.o+O.X+o.$+..o..+.+%$X*%*+.+o.+O+*%$X.++*O+*+.++*%++.O+o.o.....O.o+O.X#                     @",
"#@                    #XO+o.o.....XOo%XOo%$O$%OOoXXOoOXoXOXOOOOXXoXOoXXXXOoOXOOO$..+O..XO+o.o.....XOo%XOo#                     @",
"#@                    #ooo=.$XoXXXoXo+O.X+o.$+..o..+o+%$X+O+.%.oXoo.oOoXX.$+o.+.X..+O..XO+o.$XoXXXoXo+O.X#                     @",
"#@                     @@@@@@@@@..O.O+O..+o.o+..X+.+o+%$.+O+.%.o.o..oOoX..$+..+....+O....+o.O.X.#@@@@@@@@@                     @",
"#@                             @..O.O+O.X+o.$+..o..+o+%$X+O+.O.oXoo.oOoXX.o.o.+.X..+O..XO+o.O.X.#@                             @",
"#@                             @..O.O+O.X+o.$+..o..+o+%$X+O+.O.oXoo.oOoXX.o.o.+.X..+O..XO+o.O.X.#@                             @",
"#@                             @XX$OoOoXoO$XoOXXXXXOoXXOoXoXOoXooXoX$o$ooX$XoXOXoXXOOXOoX.&X$XoX#@                             @",
"#@                             @..X.O.O.X+o.$+..o..+o+%XX+$+.$.oXoo.oOoXX.o.o.+.X..+O..XO.$.o.X.#@                             @",
"#@                             @..X.O.O.X+o.$+..o..+o+%XX+$+.$.oXoo.oOoXX.o.o.+.X..+O..XO.$.o.X.#@                             @",
"#@                             @..X.O.O.X+o.$+..o..*o*.O.*$*+$+o.oO+o%oXX.o.o.+.X..+O..XO.$.o.X.#@                             @",
"#@                    ##########XXoXoXoXo+o.$+..o..+o+%XX+$+.$.oXoo.oOoXX.o.oXXXoXXX&XXooX&X$XXX-#########                     @",
"#@                    #.o.O.o..X..X.O.O..+o.o+..X+.+o+%OXOXOXXXoXoXXOoooOXoX..+....+$.....O.o..X..X.O.O..#                     @",
"#@                    #X$.O.o..X..X.O.O.X+o.$+..o..+o+%XX+O+oO.oX.o.+$oXo.+.o.+.X..+$..XO.O.o..X..X.O.O.X#                     @",
"#@                    #X$.O.o..X..X.O.O.X+o.$+..o..+o+%XX+O+oO.oX.o.+$oXo.+.o.+.X..+$..XO.O.o..X..X.O.O.X#                     @",
"#@                    #o$XOX$XXXXXoOoXXXoO$.$.XXoOX.$.OooOoOoXO$oXoXO&oooX.XoXOX$XX.$XOoXXOX$XXXXXoOoXXXo#                     @",
"#@                    #X$.O.o.....X.OOO.X+o+o+..o...o+%XX+O+oO.$X.o.+$oXo.+.o.+.o..+$..XO.O.o.....X.OOO.X#                     @",
"#@                    #X$.O.o.....X.OOO.X+o+o+..o...o+%X$OXOoXOoXOXOOooXOOoOo.+.o..+$..XO.O.o.....X.OOO.X#                     @",
"#@                    #X$.O.o.....oXoooXo+o+o+..o...o+%XX+O+oO.$X.o.+$oXo.o.o.+.o..+$..XO.O.o.....oXoooXo#                     @",
"#@                    #X$.O.oXoXXXoXOOO.X+o+o+..o...o+%XX+O+oO.$X.o.+$oXo.o.o.+.o..+$..XO.O.oXoXXXoXOOO.X#                     @",
"#@                     @@@@@@@@@..X.OOO.X.$.o.%%o%%%o.OXX.O.$O%$X%o%.$ooo%$%o%.%o%%.$%%XO.O.o.X.#@@@@@@@@@                     @",
"#@                             @..X.OOO.X+o+o+..o...o+%XX+O+oO.$X.o.+$oXX+o+o.+.o..+$..XO.O.o.X.#@                             @",
"#@                             @..X.OOO.X+o+o+..o...o+%XX+O+oO.$X.o.+$oXo.o.o.+.o..+o..XO.O.o.X.#@                             @",
"#@                             @X$XOoXoOoO&.$.XXoXXXoOXoXXXXOXXXXXXXXXoX.XXXX.$X$XXOoXOoXXOX$XXX#@                             @",
"#@                             @.X..O.O.X.o+o+..o...o+%.$+X..%X.X.o.oO$XoOX.$.o.o..Oo+.XO.O.o...#@                             @",
"#@                             @.X..O.O.X.o+o+..o...o+%.$+X..%X.X.o.oO$XoOX.$.o.o..Oo+.XO.O.o...#@                             @",
"#@                             @.X..O.O.X.o+o+..o...o+%.$+X..%X.X.o.oO$XoXO.$.o.o..Oo+.XO.O.o...#@                             @",
"#@                    ##########XoXooXoXoXo+o+..X.O.$+%O$.XO.OXOX.O.oOoXXXO.o.o.oooo&ooooooo$XXo-#########                     @",
"#@                    #OO.O.o..X...XO.O.O.O+o+..X..+o+..$+X..%X.O.O.oOoXXXO.o.o.o..O++.OO.O.o..X...XO.OoO#                     @",
"#@                    #XO.O.o..X...XO.O.X.o+o+..o...o+%.$+$+.%X.X.o.oO$Xoooo$.o.o..O++.XO.O.o..X...XO.OoX#                     @",
"#@                    #XO.O.o..X...XO.O.X.o+o+..o...o+%.$+$+.%X.X.o.oO$Xo...$.o.o..O++.XO.O.o..X...XO.OoX#                     @",
"#@                    #oXXOXoXXoXXXO$XoOoXo.$OXXoOXO$.OX&O&..XoXoXoX$o$ooXXX$XoXoXXXXOXoXXOXoXXoXXXO$Xo$o#                     @",
"#@                    #XO.O.o..X.X..X.O.X..+o+..o...o+%.$+$+..X.X.o.oO.X&...$.o.X.+....XO.O.o..X.X..X.O&$#                     @",
"#@                    #XO.O.o..X.oXXoXoXX..+o+..o...o+%.$+$+..X.X.o+o%+X$ooo&+o+.+*++++XO.O.o..X.oXXoXoXX#                     @",
"#@                    #XO.O.o..X.X..X.O.X..+o+..o...o+%.$+$+..X.X.o.oO.X&...$.o.X.+....XO.O.o..X.X..X.O.X#                     @",
"#@                    #ooXoX$XXoXoXoo.O.XXXOXXXXoXXXXOXXO.OO.oooo.o.oO.X&ooooX$XoXXXXXXooXoX$XXoXoXooXoX$#                     @",
"#@                    @@@@@@@@@;...XX.O.X..+X+..X....+%.X+%...X.X.O+o%+X$+++o.o.X.+....XO.O.o..X#@@@@@@@@@                     @",
"#@                             @...XX.O.X..+X+..X....+%.X+%...X.X.o.oO.X&...$.o.X.+....XO.O.o..X#@                             @",
"#@                             @...XX.O.X..+X+..X....+%.X+%...X.X.o.oO.X&...$.o.O+*++++OO.O.o..X#@                             @",
"#@                             @XXoO$XXOooX.oOXXoXXOoOXXoXoO.XoXoXoX$XXo=XXX$X$XoX.X$oo$oooo$XXo#@                             @",
"#@                             @..X.X...XX.+X+..XO..X+..X.o...X.X.O++++Xo+++X+++.+++X++.O...X..X#@                             @",
"#@                             @..X.X...XX.+X+..XO..X+..X.o...X.X.o....X$...X...X...X..XO...X..X#@                             @",
"#@                             @..X.X...OX.+X+..OO..X+..O.o...X.O.X++++X$+++X+++O...X..XO...X..X#@                             @",
"#@                             @XXoXoXXXoo+*X+++O.++X+++O+o+++X+O.$XXXXo&XXXoXXXoXXXoXXooXXXoXXo#@                             @",
"#@                             @..X.X....+XXoXXXXXXXoXXXXXoXXXoXXXoXXXXX$XXXoXXXXXXXoXX.O...X...#@                             @",
"#@@@@@@@@@@@@@@@@@@@@@@@@@@@@@@@..XXX...X...X...XO..X...X.o.oXXXoX$Xo...$...X...X...X..XO...X...#@@@@@@@@@@@@@@@@@@@@@@@@@@@@@@@",
"################################....X...X...X...oooooooooo$oooooo.o.oXXX&XXXoXXXoXXXoXXoO...X...################################",
"#@@@@@@@@@@@@@@@@@@@@@@@@@@@@@@@..o.X...X...X...XO..X...X...X%..X.o.X...$...X...X...X..XO...X...#@@@@@@@@@@@@@@@@@@@@@@@@@@@@@@@",
"#@                             @..o.X...X...X...XO..X...X...X%..X.o.X...$...X...X...X..XO...X...#@                             @",
"#@                             @..o.X...X...X...XO..X...$ooo$%..X.o.XXXX&XXXoXXXoXXXoXXooXXXo...#@                             @",
"#@                             @..o.oOOOX...oXXXoXX$o...O...X%..O.O.X...$...X...O...X..OO...X...#@                             @",
"#@                             @XX$X$XXXXOXXXO++..+o+*++....X%..X.o.$ooo&++*X+++oXXXoXXooXXXoXoX#@                             @",
"#@                             @..o.o...X+...+..XO.o.+..X...X%..X.o.X...$..+X...oooo$oo$$oooX.X.#@                             @",
"#@                             @..o.o...X+...+..XO.o.+..X...X%..X.O+X+++$..+X...X+++X++XO...X.X.#@                             @",
"#@                             @..o.o...X+...+..XO.o.+..X...X%..X.o.X...$..+X...o...X..XO...X.X.#@                             @",
"#@                             @XX&O$OXXoOXXX.XXoXX.XXOXoOoOXXXOoXoXXo$XoXXOoXXXoXXXoXXoXXXX$XXX#@                             @",
"#@                             @....o+O.X+...+..X..+.O%.X+O+X%.+X.o.+Oo.X..+$.+.o...+..XO...o.X.#@                             @",
"#@                             @....o+O.X+...+..X..+.O%.X+O+X%.+X.o.+Oo.X..+$.+.o...+..XO...o.X.#@                             @",
"#@                             @....o+O.X+...+..X..+.O%.X+O+X%.+X.o.+Oo.X..+$.+.o...+..XO...o.X.#@                             @",
"#@                    ##########XXoXXOXOXOOOXOOOXOOOOOOXX.O.O...O.O..OX.O...O...XOOOXOOXXXXX$XXX##########                     @",
"#@                    #XO...o..X..X.o+O.X+o.o+..X..+.O%oX+O+X%.+X.o.+Oo.X..+o.+.X...O..XO...o..X..X.ooO.X#                     @",
"#@                    #XO...O..X..X.o+O.X+o.o+..X..+.O%oX+O+X%.+X.o.+Oo.X..+o.+.X...O..XO...O..X..X.ooO.X#                     @",
"#@                    #XO...O..X..X.o+O.X+o.o+..X..+.O%oX+O+X%.+X.o.+Oo.X..+o.+.X...O..XO...O..X..X.ooO.X#                     @",
"#@                    #oX.$XoXXXXXoO$OoXoO$X$.XXoXXOXXXXXXXXXXXoXXXXXXoXXXXOXXXXXXXOOXXoX.$XoXXXXXoO$ooXo#                     @",
"#@                    #XO+o.o.....O.o+O.X+o.$+..o..+.+%$X+O+.%.oX.o.+O$.X..+o.+.X..+O..XO+o.o.....O.o+O.X#                     @",
"#@                    #.O+o.o.....O.o+O.X+o.$+..o..+.+%$X*%*+.+o.+O+*%$X.++*O+*+.++*%++.O+o.o.....O.o+O.X#                     @",
"#@                    #XO+o.o.....XOo%XOo%$O$%OOoXXOoOXoXOXOOOOXXoXOoXXXXOoOXOOO$..+O..XO+o.o.....XOo%XOo#                     @",
"#@                    #ooo=.$XoXXXoXo+O.X+o.$+..o..+o+%$X+O+.%.oXoo.oOoXX.$+o.+.X..+O..XO+o.$XoXXXoXo+O.X#                     @",
"#@                     @@@@@@@@@..O.O+O..+o.o+..X+.+o+%$.+O+.%.o.o..oOoX..$+..+....+O....+o.O.X.#@@@@@@@@@                     @",
"#@                             @..O.O+O.X+o.$+..o..+o+%$X+O+.O.oXoo.oOoXX.o.o.+.X..+O..XO+o.O.X.#@                             @",
"#@                             @..O.O+O.X+o.$+..o..+o+%$X+O+.O.oXoo.oOoXX.o.o.+.X..+O..XO+o.O.X.#@                             @",
"#@                             @XX$OoOoXoO$XoOXXXXXOoXXOoXoXOoXooXoX$o$ooX$XoXOXoXXOOXOoX.&X$XoX#@                             @",
"#@                             @..X.O.O.X+o.$+..o..+o+%XX+$+.$.oXoo.oOoXX.o.o.+.X..+O..XO.$.o.X.#@                             @",
"#@                             @..X.O.O.X+o.$+..o..+o+%XX+$+.$.oXoo.oOoXX.o.o.+.X..+O..XO.$.o.X.#@                             @",
"#@                             @..X.O.O.X+o.$+..o..*o*.O.*$*+$+o.oO+o%oXX.o.o.+.X..+O..XO.$.o.X.#@                             @",
"#@                    ##########XXoXoXoXo+o.$+..o..+o+%XX+$+.$.oXoo.oOoXX.o.oXXXoXXX&XXooX&X$XXX-#########                     @",
"#@                    #.o.O.o..X..X.O.O..+o.o+..X+.+o+%OXOXOXXXoXoXXOoooOXoX..+....+$.....O.o..X..X.O.O..#                     @",
"#@                    #X$.O.o..X..X.O.O.X+o.$+..o..+o+%XX+O+oO.oX.o.+$oXo.+.o.+.X..+$..XO.O.o..X..X.O.O.X#                     @",
"#@                    #X$.O.o..X..X.O.O.X+o.$+..o..+o+%XX+O+oO.oX.o.+$oXo.+.o.+.X..+$..XO.O.o..X..X.O.O.X#                     @",
"#@                    #o$XOX$XXXXXoOoXXXoO$.$.XXoOX.$.OooOoOoXO$oXoXO&oooX.XoXOX$XX.$XOoXXOX$XXXXXoOoXXXo#                     @",
"#@                    #X$.O.o.....X.OOO.X+o+o+..o...o+%XX+O+oO.$X.o.+$oXo.+.o.+.o..+$..XO.O.o.....X.OOO.X#                     @",
"#@                    #X$.O.o.....X.OOO.X+o+o+..o...o+%X$OXOoXOoXOXOOooXOOoOo.+.o..+$..XO.O.o.....X.OOO.X#                     @",
"#@                    #X$.O.o.....oXoooXo+o+o+..o...o+%XX+O+oO.$X.o.+$oXo.o.o.+.o..+$..XO.O.o.....oXoooXo#                     @",
"#@                    #X$.O.oXoXXXoXOOO.X+o+o+..o...o+%XX+O+oO.$X.o.+$oXo.o.o.+.o..+$..XO.O.oXoXXXoXOOO.X#                     @",
"#@                     @@@@@@@@@..X.OOO.X.$.o.%%o%%%o.OXX.O.$O%$X%o%.$ooo%$%o%.%o%%.$%%XO.O.o.X.#@@@@@@@@@                     @",
"#@                             @..X.OOO.X+o+o+..o...o+%XX+O+oO.$X.o.+$oXX+o+o.+.o..+$..XO.O.o.X.#@                             @",
"#@                             @..X.OOO.X+o+o+..o...o+%XX+O+oO.$X.o.+$oXo.o.o.+.o..+o..XO.O.o.X.#@                             @",
"#@                             @X$XOoXoOoO&.$.XXoXXXoOXoXXXXOXXXXXXXXXoX.XXXX.$X$XXOoXOoXXOX$XXX#@                             @",
"#@                             @.X..O.O.X.o+o+..o...o+%.$+X..%X.X.o.oO$XoOX.$.o.o..Oo+.XO.O.o...#@                             @",
"#@                             @.X..O.O.X.o+o+..o...o+%.$+X..%X.X.o.oO$XoOX.$.o.o..Oo+.XO.O.o...#@                             @",
"#@                             @.X..O.O.X.o+o+..o...o+%.$+X..%X.X.o.oO$XoXO.$.o.o..Oo+.XO.O.o...#@                             @",
"#@                    ##########XoXooXoXoXo+o+..X.O.$+%O$.XO.OXOX.O.oOoXXXO.o.o.oooo&ooooooo$XXo-#########                     @",
"#@                    #OO.O.o..X...XO.O.O.O+o+..X..+o+..$+X..%X.O.O.oOoXXXO.o.o.o..O++.OO.O.o..X...XO.OoO#                     @",
"#@                    #XO.O.o..X...XO.O.X.o+o+..o...o+%.$+$+.%X.X.o.oO$Xoooo$.o.o..O++.XO.O.o..X...XO.OoX#                     @",
"#@                    #XO.O.o..X...XO.O.X.o+o+..o...o+%.$+$+.%X.X.o.oO$Xo...$.o.o..O++.XO.O.o..X...XO.OoX#                     @",
"#@                    #oXXOXoXXoXXXO$XoOoXo.$OXXoOXO$.OX&O&..XoXoXoX$o$ooXXX$XoXoXXXXOXoXXOXoXXoXXXO$Xo$o#                     @",
"#@                    #XO.O.o..X.X..X.O.X..+o+..o...o+%.$+$+..X.X.o.oO.X&...$.o.X.+....XO.O.o..X.X..X.O&$#                     @",
"#@                    #XO.O.o..X.oXXoXoXX..+o+..o...o+%.$+$+..X.X.o+o%+X$ooo&+o+.+*++++XO.O.o..X.oXXoXoXX#                     @",
"#@                    #XO.O.o..X.X..X.O.X..+o+..o...o+%.$+$+..X.X.o.oO.X&...$.o.X.+....XO.O.o..X.X..X.O.X#                     @",
"#@                    #ooXoX$XXoXoXoo.O.XXXOXXXXoXXXXOXXO.OO.oooo.o.oO.X&ooooX$XoXXXXXXooXoX$XXoXoXooXoX$#                     @",
"#@                    @@@@@@@@@;...XX.O.X..+X+..X....+%.X+%...X.X.O+o%+X$+++o.o.X.+....XO.O.o..X#@@@@@@@@@                     @",
"#@                             @...XX.O.X..+X+..X....+%.X+%...X.X.o.oO.X&...$.o.X.+....XO.O.o..X#@                             @",
"#@                             @...XX.O.X..+X+..X....+%.X+%...X.X.o.oO.X&...$.o.O+*++++OO.O.o..X#@                             @",
"#@                             @XXoO$XXOooX.oOXXoXXOoOXXoXoO.XoXoXoX$XXo=XXX$X$XoX.X$oo$oooo$XXo#@                             @",
"#@                             @..X.X...XX.+X+..XO..X+..X.o...X.X.O++++Xo+++X+++.+++X++.O...X..X#@                             @",
"#@                             @..X.X...XX.+X+..XO..X+..X.o...X.X.o....X$...X...X...X..XO...X..X#@                             @",
"#@                             @..X.X...OX.+X+..OO..X+..O.o...X.O.X++++X$+++X+++O...X..XO...X..X#@                             @",
"#@                             @XXoXoXXXoo+*X+++O.++X+++O+o+++X+O.$XXXXo&XXXoXXXoXXXoXXooXXXoXXo#@                             @",
"#@                             @..X.X....+XXoXXXXXXXoXXXXXoXXXoXXXoXXXXX$XXXoXXXXXXXoXX.O...X...#@                             @",
"#@@@@@@@@@@@@@@@@@@@@@@@@@@@@@@@..XXX...X...X...XO..X...X.o.oXXXoX$Xo...$...X...X...X..XO...X...#@@@@@@@@@@@@@@@@@@@@@@@@@@@@@@@",
"################################....X...X...X...oooooooooo$oooooo.o.oXXX&XXXoXXXoXXXoXXoO...X...################################"
};
