/* XPM */
static char *DOOR1[] = {
/* columns rows colors chars-per-pixel */
"64 72 31 1 ",
"  c #836B57",
". c #7B634F",
"X c #8B735B",
"o c gray50",
"O c #775F4B",
"+ c #8B8B8B",
"@ c #939393",
"# c #6F6F6F",
"$ c #838383",
"% c #9F9F9F",
"& c #67533F",
"* c #937B63",
"= c #777777",
"- c #6F5743",
"; c #9F876F",
": c #A78F77",
"> c #AF977F",
", c gray42",
"< c #B79F87",
"1 c #5F4B37",
"2 c #979797",
"3 c #A7A7A7",
"4 c gray67",
"5 c #BFA78F",
"6 c #9B7F6B",
"7 c gray39",
"8 c #B7B7B7",
"9 c #5B5B5B",
"0 c gray34",
"q c gray70",
"w c #9F8363",
/* pixels */
"<:><:>><:<<:5:>>;5>:>;:>>::>:>;><><:>><>:>>:>;><;>>:>>:;:>:>:>>:",
"* X* *X** .X *XX * X * * X*X.X* *  .X* X 6 *.*. *X * *  * * X  X",
"X*XX*X .X*X *XX *.X * *XX  * * X * X* X * X XX .X*  * .*   * *  ",
"X .X  X XXXXXXXXX*X*XX*X*X *XXX X XXX XXX XXX  XXXX; X X XX.XX X",
"XXXXXX .X X  X X .  * XXX  X XXX X XX X X X XX .XX    .X   .    ",
"     O&--.X X.X .  X O&-&&&-O&1-&-&-&-&&&&O  XX X   X..-&&OX  X ",
"X  X 1oo=,-.. X .  X O$+oooooooooooooooo++.     X.   &&#==1 X XX",
"XX XX&+++$o,&.  XX   X;++@+@+++$+$$o+o=o$;X .  X  O-&#$+$$- X. X",
"X XX -+++$+$o,-O X  XXX*;++@+@++++$o$o$;*XX  X X.&&#$+$$$$O X  X",
" X  XO+$@+$++$o,-O    X X*;@@@$@+++o$;*XXX   X.&&#$+++$o$$O     ",
"     O$+@+@@$+++#,&     XXX6:><<<<>:6XXX    O-&#$+$o$+$oo$OX  X ",
" X  X.$++$@++++++$o,1.X X. X 6 XX XX X  . O&&#$++o$$$+$o$$O     ",
"XX XX.$++++++++++++$=,-XX  XX X X X X  X &&#$+$+$o$+o++oo$.   X ",
"      $$+++@@+++$++%+$o& XX  X . .   X  -#$+$$$+$$$$o++oo$  X XX",
"X  X  ;><<<5<<<<<<><<<;. *X  XX . .   X  ;<<<5<<<<<55<<<<; .  X ",
". X.  X XXXXXXXX X**XXX X   XX X X   X     . X   X.  X  XX  XX X",
" X  X XX X.X X X  X    X   X X       XX  .        X.X   X       ",
"  X   X*  .   XX X       X*X.X     .XX X   *.*.  X   X  X   X  X",
"X XX  XX X   X*  X. XX  X      X X  X.XX X    X X    X  O   X  X",
" X* X X .*.X  X  X X.X  X  X XX X  X.  X X X. *        X  .     ",
"X  X  X XX X    X. X X  X X XX    X  X *.   .  XX  X X  X . XXXX",
"  X   XX        XX .X  X     X X * X  XX        X  XXX.*        ",
"  X   X X.  X . X X X..XX X. X  X  X   XX       X     X    . XX ",
"  X  X X  X X.  XX   .  X XX X X    XX X      .    XX.X.X   XXXX",
"X  X  O-&11111111111&-      X .X X X    X -1111111111111&.  XX X",
"X  X -#ooooooooooooo=1   X  X   X X  XX.X 1=oooooooooooo#,OX    ",
" XX X&+++$+$@++@++@+@&.X  .X. X      X  X &+$+o$+oo$$$$o+=& .. .",
"X  X -++$++++@+@+@+++-   .      . .  X   X-+o$o$+$$$$$$$$+-     ",
"     -+$+++o@%@@@+@@$O  . .X   . .X X X  XO$o$o++$o$$$$$+$O. X  ",
"     O@$+++$+@++$@@@+.  .X.X  ..X.X   X  X.+o$o$+$oo$o$$$$O. X  ",
"  X  O+++++++@@@++@@@.   X.   X . .     X .+o$$$+$o$$$$$$$..  . ",
" X  X.+++++++$%++@@@+X X            X     X$o$+o++oo$$+$$$O XX X",
" .  .O@@+++$++%+$+@+%w X    X .    .X  .  6%$$$o++oo$$+$$$-XX XX",
". X. .+++++$++@++++%>X X X  .X      X X.   >%o+$$$$o$$+$$$-X    ",
" XX X.+++++$+@@+$@%>X       X. X X   XX.   X:%$$$$$o$$+o$oO XXXX",
"     O+$+++++@@@o%>X   X.X    X. .    X   . X>%$o+$o$$$$$oO .XX.",
"  .  -+++++@@@o+%>XX X     . .  X.X X        X>%$o$$$$$o$$OX.. .",
"     O+++$+@@+$%>X  X    XO-111111111O  X    .X:%o$$+o$o+$O .  .",
"     O+++$++@+%>XX XX   X.&,==#####=#&.   X    X>%$$+$$$+$. .  .",
".  . .+++$+++%>X. XX X  .&#oo$$$$$$+$#&.X     X X>%$+$$$$$OX.. .",
"  X  O+++++$%:X  X .XX .&#o+$$oo$$$oo$#&. X X   . :%+$$$+o.  X  ",
" X  XO+++++%: X.     X.&#o$++$$o+ooo$o$#&.      .. >%$$$$$. .XX.",
"  .  .+++$%:X  ..    O&#o+++o$$$$oo$$oo$#&. XX  .X X:%$$+$O   X ",
"     .+++%>X X      .&#o@+++o$ooooo$oo$$$#&.   . X   >%$$$OXX. X",
".  .  $+%>X. X     O&#o++++$o$oo$oo$$$$$$$#&.X   .   X>%$$ X  X ",
".  .  +%>XX  X    .&#o++$+$$o+ooooo$$+$$++$#&.      XXX>%o .  X ",
". X.  ;>X      X .&#o@@+$$$$o$oo+oo+o$$$$+%$#&OX .X.X.  >; X    ",
"     XXXX    X XO&#o@+++++++$$oo$$$$oo$+++++$#& X X. .  XXXX    ",
"        X  .X  O&#o+%+@++++$$+o$o$oo$o+++$+$$$#&.  .  .   .   X ",
"         X X  .&#o@@@+++++++$$oo$o$$$o+++oo+%=$#&. .  X  X..    ",
"        . X ..&#o@+$+++++@+$o$$$oooo$$$$$+oo$o+$#&.. XX   .X .X ",
"  .    X.XX O&#o++@++@+++++$$$o$o$$o$$$$$$o$$$$$$#&O  .    .    ",
"          X.&#o++@++@++$+$+++$ooooo$o$o$$$o+$$$$o$#&O    .      ",
"X  X  X   .&#o+@+++++++++$+o$$$$$$$o$$$+$$$$o++oo$$#&O  X X X .X",
" .  .    .&#o+@@@+@@+++$+++$$oo$$$ooo$$+$o$+o++oo$$$#&.      .  ",
"  X   .XO&#o@++@@@++@++++$++$$o+ooo$o$$++o$$$+$o$$$$$#&. .      ",
"     ...&#o++$@@@+@@+$+$+++o$$$$oo$$oo$++o$o$+$oo$o$$$#&OX      ",
". ..  .&#o%@@@+@@$@@+@$@+++o$ooooo$oo$$o$o$o++$o$$$$$+$#&.      ",
".  .  XX;><:><>:>::>:>:<:>:>>>>:>:>::>><::::<<>>>::>>:::X     X ",
"X .X .   .X.   ..     X .   ..  X X. X X    X    X    . .. X X. ",
". X.  X    XXXX   XXXX X   XXX  .  XXXX X  XX XXX    XX    .X  X",
"  .    .  X  X. X  X    .XX.X X X X X X   . .   X   X . X       ",
"X .X .   . .X   .X *  X     .   X X. X X    X  X   X  .  . X X. ",
". X.  X X X   XX X*  X  X   XX X X   X     . X   X.  X  XX  XX X",
".OOOOO.O.O.O.OO..O.O.OO..OO.O.O..O.O.OO..OO.O.O..OOO.OO.OOO..O-.",
"8q44333%%22%%432%22%%432%%%22843%22%%432%%%2284343%3%%22%%32%%%%",
"%2++$$$o=##==@o#=##==@o#=o=##+++=##==@o#=o=##++++$o$o=##=o$=====",
",7799999000007900000079009000,790000079009000,799999900009990000",
"o==#,,,,77777#,777777#,77,777o=#77777#,77,777o=##,,,,7777,,,7777",
"o==#,,,,77777,,777777,,77,777o=#77777,,77,777o=##,#,,7777,,,77,7",
"8q44333%%2222%%%%2222%%%2%%228q4%2222%%%2%%228q44333%%22%%432%%%",
"%2@+$$$o=###,oo==###,oo=#o=##+2+=###,oo=#o=##+2++$$$o=##==@o#=o="
};
