/* XPM */
static char *DOORHI[] = {
/* columns rows colors chars-per-pixel */
"64 128 20 1 ",
"  c #836B57",
". c #6F6F6F",
"X c #8B735B",
"o c #7B634F",
"O c #777777",
"+ c #838383",
"@ c gray50",
"# c #8B8B8B",
"$ c #AF977F",
"% c #6F5743",
"& c gray42",
"* c #937B63",
"= c #A78F77",
"- c gray39",
"; c #B79F87",
": c #5F4B37",
"> c #979797",
", c #67533F",
"< c #9F876F",
"1 c #939393",
/* pixels */
"@.O@o;$;$<$=$==$=<$=$==$$==$=$<$;$;=$$;$$==$=$<=$==$=$<$;$;o@.O@",
"@.O@:  * *XoX*X X XX X  Xo  X  X      X X  XoXX XX*XoX* *  :@.O@",
"@.O@, * X * *  X XX    X  X *  X  X XX X  Xo  X X  * * X * ,@.O@",
"@.O@,X X XXX* X*  X X * X  XX  X X XX    X  X *o X *XXX X X,@.O@",
"@.O@,oX X   X   o X  X  X   X X     X X * X  XX    X   X Xo,@.O@",
"@.O@, X X XX   XX X X    XX XoXX Xo X  X  X   XX    XX X X ,@.O@",
"@.O@,     X X   o   X Xo X X    X  X   X  o  o X   X X     ,@.O@",
"@.O@:     XoX*X  XX X X   X     o X   Xo  X  XX  X*XoX     :@.O@",
"@.O@%%%o%%%%%%%%%%%%%%%%%%%%%%%%%%%%%%%%%%%%%%%%%%%%%%%%o%%%@.O@",
"@.O@----&.-&.O.&--&.&&...&--&....OO@@OO....&--&...&&.&--&.--@.O@",
"@.O@&...O@.O@#@O..O@OO++@O..O@+++##>>##+++@O..O@+@OO@O..O@.&@.O@",
"@.O@&...O@.O@#@O..O@OO@+@O..O@+++##>>##+++@O..O@+@OO@O..O@.&@.O@",
"@.O@&...O@.O@#@O..O@O.++@O..O@+++##>>##+++@O..O@+@.O@O..O@.&@.O@",
"@.O@&...O@.O@#@O..O@O.@+@O..O@+++##>>##+++@O..O@+@.O@O..O@..@.O@",
"@.O@&...O@.O@#@O..O@O.@+@O..O@+++##>>##+++@O..O@+@.O@O...@..@.O@",
"@.O@&...O@.O@1@O..O@O.@+@O..O@+++##>>##+++@O..O@+@.O@O...@.O@.O@",
"@.O@o;$;$<$=$==$=<$=$==$$==$=$<$;$;=$$;$$==$=$<=$==$=$<$;$;o@.O@",
"@.O@:  * *XoX*X X XX X  Xo  X  X      X X  XoXX XX*XoX* *  :@.O@",
"@.O@, * X * *  X XX    X  X *  X  X XX X  Xo  X X  * * X * ,@.O@",
"@.O@,X X XXX* X*  X X * X  XX  X X XX    X  X *o X *XXX X X,@.O@",
"@.O@,oX X   X   o X  X  X   X X     X X * X  XX    X   X Xo,@.O@",
"@.O@, X X XX   XX X X    XX XoXX Xo X  X  X   XX    XX X X ,@.O@",
"@.O@,     X X   o   X Xo X X    X  X   X  o  o X   X X     ,@.O@",
"@.O@:     XoX*X  XX X X   X     o X   Xo  X  XX  X*XoX     :@.O@",
"@.O@%%%o%%%%%%%%%%%%%%%%%%%%%%%%%%%%%%%%%%%%%%%%%%%%%%%%o%%%@.O@",
"@.O@----&.-&.O.&--&.&&...&--&....OO@@OO....&--&...&&.&--&.--@.O@",
"@.O@&...O@.O@#@O..O@OO++@O..O@+++##>>##+++@O..O@+@OO@O..O@.&@.O@",
"@.O@&...O@.O@#@O..O@OO@+@O..O@+++##>>##+++@O..O@+@OO@O..O@.&@.O@",
"@.O@&...O@.O@#@O..O@O.++@O..O@+++##>>##+++@O..O@+@.O@O..O@.&@.O@",
"@.O@&...O@.O@#@O..O@O.@+@O..O@+++##>>##+++@O..O@+@.O@O..O@..@.O@",
"@.O@&...O@.O@#@O..O@O.@+@O..O@+++##>>##+++@O..O@+@.O@O...@..@.O@",
"@.O@&...O@.O@1@O..O@O.@+@O..O@+++##>>##+++@O..O@+@.O@O...@.O@.O@",
"@.O@o;$;$<$=$==$=<$=$==$$==$=$<$;$;=$$;$$==$=$<=$==$=$<$;$;o@.O@",
"@.O@:  * *XoX*X X XX X  Xo  X  X      X X  XoXX XX*XoX* *  :@.O@",
"@.O@, * X * *  X XX    X  X *  X  X XX X  Xo  X X  * * X * ,@.O@",
"@.O@,X X XXX* X*  X X * X  XX  X X XX    X  X *o X *XXX X X,@.O@",
"@.O@,oX X   X   o X  X  X   X X     X X * X  XX    X   X Xo,@.O@",
"@.O@, X X XX   XX X X    XX XoXX Xo X  X  X   XX    XX X X ,@.O@",
"@.O@,     X X   o   X Xo X X    X  X   X  o  o X   X X     ,@.O@",
"@.O@:     XoX*X  XX X X   X     o X   Xo  X  XX  X*XoX     :@.O@",
"@.O@%%%o%%%%%%%%%%%%%%%%%%%%%%%%%%%%%%%%%%%%%%%%%%%%%%%%o%%%@.O@",
"@.O@----&.-&.O.&--&.&&...&--&....OO@@OO....&--&...&&.&--&.--@.O@",
"@.O@&...O@.O@#@O..O@OO++@O..O@+++##>>##+++@O..O@+@OO@O..O@.&@.O@",
"@.O@&...O@.O@#@O..O@OO@+@O..O@+++##>>##+++@O..O@+@OO@O..O@.&@.O@",
"@.O@&...O@.O@#@O..O@O.++@O..O@+++##>>##+++@O..O@+@.O@O..O@.&@.O@",
"@.O@&...O@.O@#@O..O@O.@+@O..O@+++##>>##+++@O..O@+@.O@O..O@..@.O@",
"@.O@&...O@.O@#@O..O@O.@+@O..O@+++##>>##+++@O..O@+@.O@O...@..@.O@",
"@.O@&...O@.O@1@O..O@O.@+@O..O@+++##>>##+++@O..O@+@.O@O...@.O@.O@",
"@.O@o;$;$<$=$==$=<$=$==$$==$=$<$;$;=$$;$$==$=$<=$==$=$<$;$;o@.O@",
"@.O@:  * *XoX*X X XX X  Xo  X  X      X X  XoXX XX*XoX* *  :@.O@",
"@.O@, * X * *  X XX    X  X *  X  X XX X  Xo  X X  * * X * ,@.O@",
"@.O@,X X XXX* X*  X X * X  XX  X X XX    X  X *o X *XXX X X,@.O@",
"@.O@,oX X   X   o X  X  X   X X     X X * X  XX    X   X Xo,@.O@",
"@.O@, X X XX   XX X X    XX XoXX Xo X  X  X   XX    XX X X ,@.O@",
"@.O@,     X X   o   X Xo X X    X  X   X  o  o X   X X     ,@.O@",
"@.O@:     XoX*X  XX X X   X     o X   Xo  X  XX  X*XoX     :@.O@",
"@.O@%%%o%%%%%%%%%%%%%%%%%%%%%%%%%%%%%%%%%%%%%%%%%%%%%%%%o%%%@.O@",
"@.O@----&.-&.O.&--&.&&...&--&....OO@@OO....&--&...&&.&--&.--@.O@",
"@.O@&...O@.O@#@O..O@OO++@O..O@+++##>>##+++@O..O@+@OO@O..O@.&@.O@",
"@.O@&...O@.O@#@O..O@OO@+@O..O@+++##>>##+++@O..O@+@OO@O..O@.&@.O@",
"@.O@&...O@.O@#@O..O@O.++@O..O@+++##>>##+++@O..O@+@.O@O..O@.&@.O@",
"@.O@&...O@.O@#@O..O@O.@+@O..O@+++##>>##+++@O..O@+@.O@O..O@..@.O@",
"@.O@&...O@.O@#@O..O@O.@+@O..O@+++##>>##+++@O..O@+@.O@O...@..@.O@",
"@.O@&...O@.O@1@O..O@O.@+@O..O@+++##>>##+++@O..O@+@.O@O...@.O@.O@",
"@.O@o;$;$<$=$==$=<$=$==$$==$=$<$;$;=$$;$$==$=$<=$==$=$<$;$;o@.O@",
"@.O@:  * *XoX*X X XX X  Xo  X  X      X X  XoXX XX*XoX* *  :@.O@",
"@.O@, * X * *  X XX    X  X *  X  X XX X  Xo  X X  * * X * ,@.O@",
"@.O@,X X XXX* X*  X X * X  XX  X X XX    X  X *o X *XXX X X,@.O@",
"@.O@,oX X   X   o X  X  X   X X     X X * X  XX    X   X Xo,@.O@",
"@.O@, X X XX   XX X X    XX XoXX Xo X  X  X   XX    XX X X ,@.O@",
"@.O@,     X X   o   X Xo X X    X  X   X  o  o X   X X     ,@.O@",
"@.O@:     XoX*X  XX X X   X     o X   Xo  X  XX  X*XoX     :@.O@",
"@.O@%%%o%%%%%%%%%%%%%%%%%%%%%%%%%%%%%%%%%%%%%%%%%%%%%%%%o%%%@.O@",
"@.O@----&.-&.O.&--&.&&...&--&....OO@@OO....&--&...&&.&--&.--@.O@",
"@.O@&...O@.O@#@O..O@OO++@O..O@+++##>>##+++@O..O@+@OO@O..O@.&@.O@",
"@.O@&...O@.O@#@O..O@OO@+@O..O@+++##>>##+++@O..O@+@OO@O..O@.&@.O@",
"@.O@&...O@.O@#@O..O@O.++@O..O@+++##>>##+++@O..O@+@.O@O..O@.&@.O@",
"@.O@&...O@.O@#@O..O@O.@+@O..O@+++##>>##+++@O..O@+@.O@O..O@..@.O@",
"@.O@&...O@.O@#@O..O@O.@+@O..O@+++##>>##+++@O..O@+@.O@O...@..@.O@",
"@.O@&...O@.O@1@O..O@O.@+@O..O@+++##>>##+++@O..O@+@.O@O...@.O@.O@",
"@.O@o;$;$<$=$==$=<$=$==$$==$=$<$;$;=$$;$$==$=$<=$==$=$<$;$;o@.O@",
"@.O@:  * *XoX*X X XX X  Xo  X  X      X X  XoXX XX*XoX* *  :@.O@",
"@.O@, * X * *  X XX    X  X *  X  X XX X  Xo  X X  * * X * ,@.O@",
"@.O@,X X XXX* X*  X X * X  XX  X X XX    X  X *o X *XXX X X,@.O@",
"@.O@,oX X   X   o X  X  X   X X     X X * X  XX    X   X Xo,@.O@",
"@.O@, X X XX   XX X X    XX XoXX Xo X  X  X   XX    XX X X ,@.O@",
"@.O@,     X X   o   X Xo X X    X  X   X  o  o X   X X     ,@.O@",
"@.O@:     XoX*X  XX X X   X     o X   Xo  X  XX  X*XoX     :@.O@",
"@.O@%%%o%%%%%%%%%%%%%%%%%%%%%%%%%%%%%%%%%%%%%%%%%%%%%%%%o%%%@.O@",
"@.O@----&.-&.O.&--&.&&...&--&....OO@@OO....&--&...&&.&--&.--@.O@",
"@.O@&...O@.O@#@O..O@OO++@O..O@+++##>>##+++@O..O@+@OO@O..O@.&@.O@",
"@.O@&...O@.O@#@O..O@OO@+@O..O@+++##>>##+++@O..O@+@OO@O..O@.&@.O@",
"@.O@&...O@.O@#@O..O@O.++@O..O@+++##>>##+++@O..O@+@.O@O..O@.&@.O@",
"@.O@&...O@.O@#@O..O@O.@+@O..O@+++##>>##+++@O..O@+@.O@O..O@..@.O@",
"@.O@&...O@.O@#@O..O@O.@+@O..O@+++##>>##+++@O..O@+@.O@O...@..@.O@",
"@.O@&...O@.O@1@O..O@O.@+@O..O@+++##>>##+++@O..O@+@.O@O...@.O@.O@",
"@.O@o;$;$<$=$==$=<$=$==$$==$=$<$;$;=$$;$$==$=$<=$==$=$<$;$;o@.O@",
"@.O@:  * *XoX*X X XX X  Xo  X  X      X X  XoXX XX*XoX* *  :@.O@",
"@.O@, * X * *  X XX    X  X *  X  X XX X  Xo  X X  * * X * ,@.O@",
"@.O@,X X XXX* X*  X X * X  XX  X X XX    X  X *o X *XXX X X,@.O@",
"@.O@,oX X   X   o X  X  X   X X     X X * X  XX    X   X Xo,@.O@",
"@.O@, X X XX   XX X X    XX XoXX Xo X  X  X   XX    XX X X ,@.O@",
"@.O@,     X X   o   X Xo X X    X  X   X  o  o X   X X     ,@.O@",
"@.O@:     XoX*X  XX X X   X     o X   Xo  X  XX  X*XoX     :@.O@",
"@.O@%%%o%%%%%%%%%%%%%%%%%%%%%%%%%%%%%%%%%%%%%%%%%%%%%%%%o%%%@.O@",
"@.O@----&.-&.O.&--&.&&...&--&....OO@@OO....&--&...&&.&--&.--@.O@",
"@.O@&...O@.O@#@O..O@OO++@O..O@+++##>>##+++@O..O@+@OO@O..O@.&@.O@",
"@.O@&...O@.O@#@O..O@OO@+@O..O@+++##>>##+++@O..O@+@OO@O..O@.&@.O@",
"@.O@&...O@.O@#@O..O@O.++@O..O@+++##>>##+++@O..O@+@.O@O..O@.&@.O@",
"@.O@&...O@.O@#@O..O@O.@+@O..O@+++##>>##+++@O..O@+@.O@O..O@..@.O@",
"@.O@&...O@.O@#@O..O@O.@+@O..O@+++##>>##+++@O..O@+@.O@O...@..@.O@",
"@.O@&...O@.O@1@O..O@O.@+@O..O@+++##>>##+++@O..O@+@.O@O...@.O@.O@",
"@.O@o;$;$<$=$==$=<$=$==$$==$=$<$;$;=$$;$$==$=$<=$==$=$<$;$;o@.O@",
"@.O@:  * *XoX*X X XX X  Xo  X  X      X X  XoXX XX*XoX* *  :@.O@",
"@.O@, * X * *  X XX    X  X *  X  X XX X  Xo  X X  * * X * ,@.O@",
"@.O@,X X XXX* X*  X X * X  XX  X X XX    X  X *o X *XXX X X,@.O@",
"@.O@,oX X   X   o X  X  X   X X     X X * X  XX    X   X Xo,@.O@",
"@.O@, X X XX   XX X X    XX XoXX Xo X  X  X   XX    XX X X ,@.O@",
"@.O@,     X X   o   X Xo X X    X  X   X  o  o X   X X     ,@.O@",
"@.O@:     XoX*X  XX X X   X     o X   Xo  X  XX  X*XoX     :@.O@",
"@.O@%%%o%%%%%%%%%%%%%%%%%%%%%%%%%%%%%%%%%%%%%%%%%%%%%%%%o%%%@.O@",
"@.O@----&.-&.O.&--&.&&...&--&....OO@@OO....&--&...&&.&--&.--@.O@",
"@.O@&...O@.O@#@O..O@OO++@O..O@+++##>>##+++@O..O@+@OO@O..O@.&@.O@",
"@.O@&...O@.O@#@O..O@OO@+@O..O@+++##>>##+++@O..O@+@OO@O..O@.&@.O@",
"@.O@&...O@.O@#@O..O@O.++@O..O@+++##>>##+++@O..O@+@.O@O..O@.&@.O@",
"@.O@&...O@.O@#@O..O@O.@+@O..O@+++##>>##+++@O..O@+@.O@O..O@..@.O@",
"@.O@&...O@.O@#@O..O@O.@+@O..O@+++##>>##+++@O..O@+@.O@O...@..@.O@",
"@.O@&...O@.O@1@O..O@O.@+@O..O@+++##>>##+++@O..O@+@.O@O...@.O@.O@"
};
