/* XPM */
static char *DOORYEL2[] = {
/* columns rows colors chars-per-pixel */
"16 128 48 1 ",
"  c #170F07",
". c #872300",
"X c #932F00",
"o c #AF4300",
"O c #A73F00",
"+ c #9F3700",
"@ c #D75F0B",
"# c #6B0F0F",
"$ c #C34F00",
"% c #470000",
"& c #B74700",
"* c #5F0707",
"= c #675333",
"- c #CB5707",
"; c #EB6F0F",
": c #6F5743",
"> c #F37317",
", c #5F4B37",
"< c #4B371B",
"1 c #836B57",
"2 c #533F1F",
"3 c #574333",
"4 c #775F4B",
"5 c #7B634F",
"6 c #FF7F1B",
"7 c #530707",
"8 c #5F4323",
"9 c #430000",
"0 c #533F2F",
"q c #774F2B",
"w c #DF670F",
"e c #432F1B",
"r c #3F2F17",
"t c #67533F",
"y c #7F1B1B",
"u c #6B4727",
"i c #731313",
"p c #4F3B2B",
"a c black",
"s c #5B0707",
"d c #1F170B",
"f c #8B2323",
"g c #8B735B",
"h c #836B4B",
"j c #372313",
"k c #473323",
"l c #FF8F3B",
"z c #775F3F",
/* pixels */
":,:28<888:,:28<8",
"pkprejeeepkpreje",
"   7.+o&$&o+.7  ",
"  7+$@w;;;w@$+7 ",
" 7X@>6lllll6>@X7",
" #o;>>6lll6>>;o#",
" f&w>>>666>>>w&f",
" +-@@w;>>>;w@@-+",
" +O$---@@@---$O+",
" XXo$--$-$--$oXX",
" X.o+++OOO+++o.X",
" ..&oOOXXXOOo&..",
" #.$-@@o+o@@-$.#",
" *.oXXX+X+XXXo.*",
" 7O#9a%...%a9#O7",
" .O#99%X-X%99#O.",
" .&X#*.X%X.*#X&.",
" .$@-oO%%%Oo-@$.",
" .oOyi*%.%*iyOo.",
"  .#s*..X..*s#. ",
"    #XO&O&OX#   ",
"     .XoOoX.    ",
"      *d d*     ",
"1q=uquqqqqq=uquq",
":,:28<888:,:28<8",
"pkprejeeepkpreje",
"   7.+o&$&o+.7  ",
"  7+$@w;;;w@$+7 ",
" 7X@>6lllll6>@X7",
" #o;>>6lll6>>;o#",
" f&w>>>666>>>w&f",
" +-@@w;>>>;w@@-+",
" +O$---@@@---$O+",
" XXo$--$-$--$oXX",
" X.o+++OOO+++o.X",
" ..&oOOXXXOOo&..",
" #.$-@@o+o@@-$.#",
" *.oXXX+X+XXXo.*",
" 7O#9a%...%a9#O7",
" .O#99%X-X%99#O.",
" .&X#*.X%X.*#X&.",
" .$@-oO%%%Oo-@$.",
" .oOyi*%.%*iyOo.",
"  .#s*..X..*s#. ",
"    #XO&O&OX#   ",
"     .XoOoX.    ",
"      *d d*     ",
"1q=uquqqqqq=uquq",
":,:28<888:,:28<8",
"pkprejeeepkpreje",
"   7.+o&$&o+.7  ",
"  7+$@w;;;w@$+7 ",
" 7X@>6lllll6>@X7",
" #o;>>6lll6>>;o#",
" f&w>>>666>>>w&f",
" +-@@w;>>>;w@@-+",
" +O$---@@@---$O+",
" XXo$--$-$--$oXX",
" X.o+++OOO+++o.X",
" ..&oOOXXXOOo&..",
" #.$-@@o+o@@-$.#",
" *.oXXX+X+XXXo.*",
" 7O#9a%...%a9#O7",
" .O#99%X-X%99#O.",
" .&X#*.X%X.*#X&.",
" .$@-oO%%%Oo-@$.",
" .oOyi*%.%*iyOo.",
"  .#s*..X..*s#. ",
"    #XO&O&OX#   ",
"     .XoOoX.    ",
"      *d d*     ",
"1q=uquqqqqq=uquq",
":,:28<888:,:28<8",
"pkprejeeepkpreje",
"   7.+o&$&o+.7  ",
"  7+$@w;;;w@$+7 ",
" 7X@>6lllll6>@X7",
" #o;>>6lll6>>;o#",
" f&w>>>666>>>w&f",
" +-@@w;>>>;w@@-+",
" +O$---@@@---$O+",
" XXo$--$-$--$oXX",
" X.o+++OOO+++o.X",
" ..&oOOXXXOOo&..",
" #.$-@@o+o@@-$.#",
" *.oXXX+X+XXXo.*",
" 7O#9a%...%a9#O7",
" .O#99%X-X%99#O.",
" .&X#*.X%X.*#X&.",
" .$@-oO%%%Oo-@$.",
" .oOyi*%.%*iyOo.",
"  .#s*..X..*s#. ",
"    #XO&O&OX#   ",
"     .XoOoX.    ",
"      *d d*     ",
"1q=uquqqqqq=uquq",
":,:28<888:,:28<8",
"pkprejeeepkpreje",
"   7.+o&$&o+.7  ",
"  7+$@w;;;w@$+7 ",
" 7X@>6lllll6>@X7",
" #o;>>6lll6>>;o#",
" f&w>>>666>>>w&f",
" +-@@w;>>>;w@@-+",
" +O$---@@@---$O+",
" XXo$--$-$--$oXX",
" X.o+++OOO+++o.X",
" ..&oOOXXXOOo&..",
" #.$-@@o+o@@-$.#",
" *.oXXX+X+XXXo.*",
" 7O#9a%...%a9#O7",
" .O#99%X-X%99#O.",
" .&X#*.X%X.*#X&.",
" .$@-oO%%%Oo-@$.",
" .oOyi*%.%*iyOo.",
"  .#s*..X..*s#. ",
"    #XO&O&OX#   ",
"     .XoOoX.    ",
"      *d d*     ",
"1q=uquqqqqq=uquq",
"<<<33=22z=0<<<<0",
"rrrr<222<rrrrrrr",
"000000=,=0000000",
"4445gg5hh1144444",
"t=t511=:4=:,,,,,",
",==511=::=1t3,,,",
",3=515:==:1t33,3",
",3=514:==:5t3,,3"
};
