/* XPM */
static char *DOOR3[] = {
/* columns rows colors chars-per-pixel */
"64 72 21 1 ",
"  c gray39",
". c #777777",
"X c #6F6F6F",
"o c gray50",
"O c gray42",
"+ c gray34",
"@ c #5B5B5B",
"# c #434343",
"$ c gray31",
"% c gray23",
"& c #4B4B4B",
"* c gray28",
"= c #838383",
"- c #373737",
"; c #8B8B8B",
": c #2F2F2F",
"> c #939393",
", c #979797",
"< c #5F4323",
"1 c #43331B",
"2 c #9F9F9F",
/* pixels */
"%#%%-%#%%#%*%-%%#%%#%*%%%#%*%*%#%%#%*%-%%#%%#%*%%%#%*%*%#%%#%%--",
"%#%%-%#%%#%#%-%%#%%#%#%%%#%*%#%#%%#%#%-%%#%%#%#%%%#%*%#%#%%#%%--",
"%*#%-#*%#*#*#-%#*%#*#*#%#*#&#*#*%#*#*#-%#*%#*#*#%#*#&#*#*#%*#%--",
"#*##%#*##*#*#%##*##*#*###*#&#*#*##*#*#%##*##*#*###*#&#*#*##*##%%",
"#&*#%*&#*&*&*%#*&#*&*&*#*&*$*&*&#*&*&*%#*&#*&*&*#*&*$*&*&*#&*#%%",
"*&**#*&**&*&*#**&**&*&***&*$*&*&**&*&*#**&**&*&***&*$*&*&**&**##",
"*$&*#&$*&$&$&#*&$*&$&$&*&$&+&$&$*&$&$&#*&$*&$&$&*&$&+&$&$&*$&*##",
"&$&&*&$&&$&$&*&&$&&$&$&&&$&+&$&$&&$&$&*&&$&&$&$&&&$&+&$&$&&$&&**",
"&+$&*$+&%####%%##%#####%########%#####%%##%#####%#######%$&+$&**",
"$+$$&$+$*+$+$&$$+$$+$+$$$+$@$+$+$$+$+$&$$+$$+$+$$$+$@$+$&$$+$$&&",
"$++$&++$&++++&$++$+++++$+++@++++$+++++&$++$+++++$+++@+++&+$++$&&",
"+@++$+@+&@+@+$++O++@+@++O@+ +@++O+@+@+$+O@++@+@+O+@+ +@+&++@++$$",
"+@@+$@@+&@@@@$+$%+@@@@@$%@@ @@@$%@@@@@$$%@+@@@@$%@@@ @@@&@+@@+$$",
"+ @++@ +& @ @+++*+@ @ @+* @ @ @+*@ @ @++* +@ @ +*@ @ @ @$@+ @+++",
"@ @@+@ @& @ @+@+*@@ @ @+* @O@ @+*@ @ @++* @@ @ +*@ @O@ @$@@ @@++",
"@  @@  @$    @@@$@     @$  O   @$     @@$ @    @$   O   $ @  @@@",
" O  @ O $O O @ @$  O O @$O O O @$ O O @@$O  O O@$ O O O +  O  @@",
" O  @ O $O O @  $  O O  $O X O  $ O O @ $O  O O $ O X O +  O  @@",
" XO  OX +XOXO   + OXOXO +XOXOXO +OXOXO  +X OXOX +OXOXOXO@O XO   ",
"OXOO OXO+XOXO O  OOXOXO  XO.OXO +OXOXO   XOOXOX  OXO.OXO@OOXOO  ",
"OXXO XXO@XXXX O  OXXXXX  XX.XXX +XXXXX   XOXXXX  XXX.XXX@XOXXO  ",
"X.XXOX.X@.X.XOXO XX.X.XO .X.X.X.+X.X.XOO .XX.X.O X.X.X.X XX.XXOO",
"X.XXOX.X@.X.XOXO.XX.X.XXO.XoX.X. X.X.XOXO.XX.X.OXX.XoX.X XX.XXOO",
"X..XX..X ....XXO.X.....XX..o.... .....XX..X.....X...o... .X..XXX",
".o..X.o. o.o.X..o..o.o..Xo.=.o.o .o.o.X..o..o.o...o.=.o. ..o..XX",
".o..X.o. o.o.X..o..o.o...o.=.o.oO.o.o.X..o..o.o...o.=.o. ..o..XX",
".=o..o=. =o=o..o=.o=o=o.o=o=o=o=Oo=o=o..o=.o=o=o.o=o=o=o o.=o...",
"o=oo.o=o =o=o.oo=oo=o=ooo=o;o=o=.o=o=o.oo=oo=o=ooo=o;o=o oo=oo..",
"o=oo.o=o =o=o.oo=oo=o=ooo=o;o=o=.o=o=o.oo=oo=o=ooo=o;o=o oo=oo..",
"=;==o=;= ;=;=o==;==;=;===;=;=;=;==;=;=o==;==;=;===;=;=;=O==;==oo",
"=;==o=;= ;=;=o==;==;=;===;=>=;=;==;=;=o==;==;=;===;=>=;=O==;==oo",
"=;;=o;;=O;;;;o=;;=;;;;;=;;;>;;;;=;;;;;o=;;=;;;;;=;;;>;;;O;=;;=oo",
";>;;=;>;O>;>;=;;>;;>;>;;;>;,;>;>;;>;>;=;;>;;>;Xo;>>>>;;;;;>>;ooo",
";>;;=;>;O>;>;=;;>;;>;>;;;>;,;>;>;;>;>;=;;>;;>;@O..XX.o..o=o.X..o",
";>>;;>>;X>>>>;;>>;>>>>>;>>>,>>>>;>>>>>;;>>;>>>@ ..XX.o..=;o.X..o",
">,>>;>,>X,>,>;>>,>>,>,>>>,>2>,>,>>,>,>;>>,>>,>@ . .O.o..o;o. .Oo",
">,>>;>,>X,>,>;>>,>>,>,>>>,>2>,>,>>,>,>;>>,>>,>@ .@% .o.X=;..@& o",
";>>;;>>;X>>>>;;>>;>>>>>;>>>,>>>>;>>>>>;;>>;>>>@ .+#O.o.Xo>..+#Oo",
";>;;=;>;O>;>;=;;>;;>;>;;;>;,;>;>;;>;>;=;;>;;>;@ X+*X.o.Xo>.X+*.o",
";>;;=;>;O>;>;=;;>;;>;>;;;>;,;>;>;;>;>;=;;>;;>;@ X@$X.o.Xo;XX@$.o",
"=;;=o;;=O;;;;o=;;=;;;;;=;;;>;;;;=;;;;;o=;;=;;;+ X $X.o+@ OXXX$XX",
"=;==o=;= ;=;=o==;==;=;===;=>=;=;==;=;=o==;==;=+ XO+X.o+=O==;= oo",
"=;==o=;= ;=;=o==;==;=;===;=;=;=;==;=;=o==;==;=+ XO X.o+=O==;=Ooo",
"o=oo.o=o =o=o.oo=oo=o=ooo=o;o=o=oo=o=o.oo=oo=o+ @OOX@o+o oo=oX..",
"o=oo.o=o =o=o.oo=oo=o=ooo=o;o=o=oo=o=o.oo=oo=o+ OOOX.o+o oo=oX..",
".=o..o=. =o=o..o=.o=o=o.o=o=o=o=.o=o=o..o=.o=o$$$$@$$$$o o.=o...",
".o..X.o. o.o.X..o..o.o...o.=.o.o..o.o.X..o..o. #$@ @$# . ..o..XX",
".o..X.o. o.o.X..o..o.o...o.=.o.o..o.o.X..o..o.  1@OO1 O. ..o..XX",
"X..XX..X ....XX..X.....X...o....X.....XX..X... O<@OO< O. .X..XXX",
"X.XXOX.X@.X.XOXX.XX.X.XXX.XoX.X.XX.X.XOXX.XX.X O<@OO< OX XX.XXOO",
"X.XXOX.X@.X.XOXX.XX.X.XXX.X.X.X.XX.X.XOXX.XX.X O<@OO< OX XX.XXOO",
"OXXO XXO@XXXX OXXOXXXXXOXXX.XXXXOXXXXX OXXOXXX O<@OO< OX@XOXXO  ",
"OXOO OXO+XOXO OOXOOXOXOOOXO.OXOXOOXOXO OOXOOXO  o.O.o OO@OOXOO  ",
" XO  OX +XOXO  OX OXOXO OXOXOXOX OXOXO  OX OXO +@ @ @+OO@O XO   ",
" O  @ O $O O @  O  O O   O X O O  O O @  O  O  +@@@@@+O +  O  @@",
" O  @ O $O O @  O  O O   O O O O  O O @  O  O  $+@+@++O +  O  @@",
"@  @@  @+oooo..oo.ooooo.ooo=oooo.ooooo..oo.ooo. +++++ .o+ @  @@@",
"@ @@+@ @&    @             O          @             O   +@@ @@++",
"+ @++@ +&$&$&**&$*&$&$&*&$&$&$&$*&$&$&**&$*&$&$&*&$&$&$&#@+ @+++",
"+@@+$@@+&@@@@$+@@+@@@@@+@@@ @@@@+@@@@@$+@@+@@@@@+@@@ @@@&@+@@+$$",
"+@++$+@+&@+@+$++O++@+@++O@+ +@++O+@+@+$+O@++@+@+O+@+ +@+&++@++$$",
"$++$&++$&++++&$#-$+++++#-++@+++#-+++++&#:+$++++#:+++@+++&+$++$&&",
"$+$$&$+$*+$+$&$#-$$+$+$#-+$@$+$#-$+$+$&#-+$$+$+#-$+$@$+$&$$+$$&&",
"&+$&*$+&*+$+$*&##&$+$+$##+$@$+$##$+$+$*##+&$+$+##$+$@$+$&$&+$&**",
"&$&&*&$& OOOO O@@OOOOOO@@OOXOOO@@OOOOO @@OOOOOO@@OOOXOOO &&$&&**",
"*$&*#&$*&$&$&#*-:*&$&$&-:$&+&$&-:&$&$&#-:$*&$&$-:&$&+&$&$&*$&*##",
"*&**#*&**&*&*#*%:**&*&*%:&*$*&*%:*&*&*#%:&**&*&%:*&*$*&*&**&**##",
"#&*#%*&#*&*&*%#%:#*&*&*%:&*$*&*%:*&*&*%%:&#*&*&%:*&*$*&*&*#&*#%%",
"#*##%#*##*#*#%#%-##*#*#%-*#&#*#%-#*#*#%%-*##*#*%-#*#&#*#*##*##%%",
"%*#%-#*%#*#*#-%%-%#*#*#%-*#&#*#%-#*#*#-%-*%#*#*%-#*#&#*#*#%*#%--",
"%#%%-%#%%#%#%-%%#%%#%#%%%#%*%#%#%%#%#%-%%#%%#%#%%%#%*%#%#%%#%%--",
"%#%%-%#%%#%#%-%%#%%#%#%%%#%*%#%#%%#%#%-%%#%%#%#%%%#%*%#%#%%#%%--"
};
