/* XPM */
static char *EXITSIGN[] = {
/* columns rows colors chars-per-pixel */
"64 16 19 1 ",
"  c gray23",
". c black",
"X c #430000",
"o c #9B0000",
"O c #5B0000",
"+ c #730000",
"@ c #670000",
"# c #7F0000",
"$ c #8B0000",
"% c #4F0000",
"& c #A70000",
"* c #BF0000",
"= c #2F2F2F",
"- c #D70000",
"; c #373737",
": c #E30000",
"> c #CB0000",
", c #B30000",
"< c #434343",
/* pixels */
"<<<<<<<<<<<<<<<<<<<<<<<<<<<<<<< <<<<<<< <<<<<<< <<<<<<< <<<<<<< ",
"<                              ;<      =<      =<      =<      =",
"< ............................ ;< ;;;; =< ;;;; =< ;;;; =< ;;;; =",
"< .+#$oooo$o@XXXX+#$$#$$$$$$$# ;< ;  < =< ;  < =< ;  < =< ;  < =",
"< .@>-::--o:o@OO@o:o-o*-::--*o ;< ;  < =< ;  < =< ;  < =< ;  < =",
"< .@>++++++o>$++$*o$>$$$&*&$$# ;< ;  < =< ;  < =< ;  < =< ;  < =",
"< .O,++++@@@@*##,#X#,#XX#*#XXX ;< ;  < =< ;  < =< ;  < =< ;  < =",
"< .O,&&o+O..OO,&#XX#,#XX#&#X.. ;< ;  < =< ;  < =< ;  < =< ;  < =",
"< .%o++++%..%%&&+XX+o+XX+&+X.. ;< ;  < =< ;  < =< ;  < =< ;  < =",
"< .X#@XXXX..X$@@$@X@o@XX@$@X.. ;< ;  < =< ;  < =< ;  < =< ;  < =",
"< .X+O%%%%%X#OXXO#OO$OXXO$OX.. ;< ;  < =< ;  < =< ;  < =< ;  < =",
"< .X++++++%+%X..X%+%+%..%+%X.. ;< ;  < =< ;  < =< ;  < =< ;  < =",
"< .XXXXXXXXXX....XXXXX..XXXX.. ;< ;  < =< ;  < =< ;  < =< ;  < =",
"< ............................ ;< ;<<< =< ;<<< =< ;<<< =< ;<<< =",
"<<<<<<<<<<<<<<<<<<<<<<<<<<<<<< ;<      =<      =<      =<      =",
";=============================== ======= ======= ======= ======="
};
