/* XPM */
static char *FIREMAG2[] = {
/* columns rows colors chars-per-pixel */
"128 128 33 1 ",
"  c #8B0000",
". c #E30000",
"X c #D70000",
"o c #EF0000",
"O c #7F0000",
"+ c #9B0000",
"@ c #272727",
"# c #332B13",
"$ c #3F2F17",
"% c #43331B",
"& c #670B0B",
"* c #2F2F2F",
"= c #530707",
"- c #2B230F",
"; c #6B0F0F",
": c #731313",
"> c #B30000",
", c #A70000",
"< c #BF0000",
"1 c #4B371B",
"2 c #4F3B23",
"3 c #5B0707",
"4 c #232323",
"5 c #13230B",
"6 c #730000",
"7 c #771717",
"8 c #670000",
"9 c #533F1F",
"0 c #574333",
"q c #533F2F",
"w c #373737",
"e c #CB0000",
"r c #5B472B",
/* pixels */
"#%= $=%9$#@@-#@@%%12r%1209121#%$@ 3= $#$%#%& =$$@%$@$##%#$%%#**$##@@-#@@#O##*222q92%122221#2r22O; %#22%$222O 222q922$O22O1#2O +#",
"#@O$O &9$#@@-#O#*%12r$%109121$%$#$ 3O@@%$%$ +O#$#@$@@##$%$$%%@#%@#@@-#@##*##+%2222%$191221$%2%$ +2%#%%$$222%$%2222%2%%12 1$%O 7#",
"#@#%OOO& &@@-@@#%%102#%10%121$%$@$@#%#@%*@$%;O$$@@@%@###$$%%%##%@#@@-@@#5###*% 1+O7$121121$%%#$;;2%#$%#%22%$#%%100%2;>11%1$% $$$",
"#O#$ O8O O @##@#%%122$%1+%121%7 *##@#-*%*@$$#$$$*@@@-###$$%$#$#%##@@##@#-@##*%%: >OO%09121#%$#O  %$#$%#$22%##%%12222 ,19%1$% $%$",
"##@$#;391&O&@#-+= 192$$1r%121 O ##@@##@$*%$$@$@$@ @@$#O#%%$# $@*-#@-@#-@-@##*%%,: :O209121#%$+ ,:;O+ %$%%%$$#$%%20%2 : 9%1$%%$$ ",
"$$#$%OO=1#@ -###%%191%$O= $2%   $$###%#$@#$$@$$1$ #@%++:O$$#@$$%-#@@-###-###**%122$O109121$%$; >O& O 2#$OO$$@*%%2 $2= >:21$%%##O",
"#*%#@OO $#@@##@@0%191%%10 $%%$ O#*%###*$-@%$*$$1#*##$$:  &%#*$%%-#@@##@@@@##w%%101#%12%121$%$; ;O*%#O :: O&$@$%%0 #2= >+21$%%#+ ",
"#@@#@  ,$#@@-#@*%*%21$#10 #%1 6 #@@@#@%$#@%%#$$1#@@# %#; +&$#$%%##@@-#@ ##*#O%%O21$%19% 21%& +;=%%@@ O,,OOO+#$++21$2 ;11%1%%%#@$",
"@@###1%%$-#-@*@O%$=O%$$%0%$21OO:@%@$#$#$#@%$#$$1@@##O%##  O$ $%%-O#-@*@-@*%  %%O92$  9%121$O   #%$%@$OOOO O :OO$%2$2+O11%1$#>;O$",
"#-@##1%%#@*-#*@ @O  &%$$q%%21>: #$@@#@@%@+%$#$$##-#* $#@O, &O$*#-@*-#*@#**@OO%%191;,O92$2%$ O>:=%@@@$;OO >:, O&%%1%%,+2 21$$ O $",
"@-@#-1%%#O@-##@-=++OO; $q$%2%>: @$@###@%#@$##$##@O@*-@##7>7@#$##44@- O@-#@%%*0%>:  :,22$%%$  >OO&O#@$  ;%O$&  %$%%%%O 212% ;  +7",
"#-###%$$#@@@#@@#% >OOO=$1$%2$$%**##@#-*%@#$@#@#  -##@O#@$$#@#+#$@@@@O@@##@*@@%* :+ #10%#%1$    &= @$$>O%%%$$O&*%2%$#O 112%$=  +O",
"*#-##%$$#4@@-#@-%##$%$$$1$$2$#@%##@@#-@$-@%$@#@&=##@#@#-@$%@@#@%@4@@-#@-#%*@*%$ 3%$$%1%$21#OO &=$@$#$ 7%%#*$$$%%%%$@, %121#%   ;",
"####*#$$##@@-#O@%$$$%%@$%$O2$#$#$$###-#$@-@*#@#O###**@#@-$#@#@#%*#@@-#@@#%#@*@$ 1%%$$1%%21$2$#$O@#@O%$%$%%@#$@% %%%@$1%121$2;+  ",
"=#####$$#@O@-#  %$$$%*#%%#O2%$#%#*%##-*$#-+##-#%#@@*#@@#-$#@#-#O*@@@-#@@-@#@@#$O%%%$$1$%2%$%#@$@#%#@%*@O%%#$$#%%%1O$$%$1O1$%#  +",
" #-#@#$$@#@@-#& %$$$$%#$%$#2%$@@#@@@#-%$O&O#@##*#@@@@@@@#4-@@#  @-@@-#@@5@#**%$O$1%#$O$%2$$%**##@#-*%*@$$#$$$%$$$2%#$%#%q O%##OO",
"O###@#$$##@@-#@>&$%$$O$%1$$21OO @%@$#-#$--O-@*@-@-@-@@#--$#@@*O:##@@-#@@#*##*%# &%$$$1$$2$#@%##@@O#O$*%$$@O@$%##%1@$@%$$2O=$%##@",
"##@###$$@#@@-#@  $%$$%$$1$%21$$&>$@##-@%-@*-#*O##-*-O@@-@@*@#*O O#@@-#@##*##w%$&O%%@$%$%2$#$#$$OO#%#$@#$$@&$1%&+%%%@@%$%O1$$@$$#",
"##@#@#$$@#@@-#@##$%%$%$$$$%2%$$#O$@#O-@%44+@###@#*#@@@@44-O@##  >:@@--@#5###*%$$+%*#%%#%2%$#%#*%##O*$-@%$*>O;  O=1*#%%#%1%$#%#*%",
"@#@#@#$$##@@@#@@%$%$$%#$1$%%$$$**##@#-*%@@+@#@@#@*@@@@@4@OO@#@  +OO@@#@#-@##*%$$O$%#$%$#2%$ &O@@@#@%$#@%%#>+   +&9% +  #%% @O#@@",
"#####@#$-#@-@#-@%##%$$$$1$$2$:+ ##@@##@$@-#@-@@-@#@@@@+@@O::@@@#;+O-@#-@-@##*O$% $$$%1$$21  $@%@$#$#$#@%$#O+O   O O>O =$%O3=*@@ ",
"#@=O;O-$-#@@-+@@%$$%$$@$%$%%+++ $$#@@%#$@O@@-#@@#@-O@+& +:++ @@@-#*@-O##-###@O$%$$%$$1$%21 $$#$@@#@@%@@%$ ==&O;   O+&O%%%;++%#3 ",
"@@ +  & -#@@@@@@%$$1$* %%#%%&:#%#*%####$*@@O@@-@O@#@@@=&>@#@-#-@-#@@@#-@O@##*#$%%$%$$$$%O%&O OO@ #O@%#@$ #$##%$*O>  3#%%O$O+@@ >",
"#@    =$##@@-@@-%$$1O%#$%$#%O$@@ O@@@@O$@@@@-O#@@@@O@@@-@#-@@@@@#$@@-#@+O#*#w%$%$$%#$1O%%$=O+ =#@#-*%@#$@#@#@%%$%;O +%O#%$@O@#; ",
"#@ + -$$-##@@@@@%$%1$$$%1%$21#$$@@@###%$##-@@-@#@@O#-@@@@@4@@@@-##@@@#@ O*%#*%O %$$$$1$$2$#@%##@@#-@$-@%$@#@%*%$%   O%$$$O@@@*#O",
"@=++O@%#-#*@@@@+@$%1=O+OO%%2+$$$#-@O*#O%*#@@-@@@-O@*@@-@@#@*@-@@@@@@#@#OO*@#*%=O%$$@O%$%%$#$#$$###-+$@O@*#@#%*$%# ;3$%$$#$$%@###",
"@;<+##$#O#@O@--@#$%% O>$1$ 2 $O#@-@@*-#%##@###@@@@@O@#@@@@@-@##@@# O##@-O@ +w%$$1$ &;%#%%%$#+#*%##-*$#-###-#%*%%@+  %$#$O$#O   #",
"@O  =@##O#@-@-5-%$%$> O$11%%+$$*#-###&OO#-@ #O@#O*@O@*#**@-@@#@*@  ;O@@-# ;=*%$$1$O6>%$#%%O@@#@@@O&%$@#-# ##*@*%&+ >$$#$ $=+;##-",
"=@;6 @ #@#O@@--O%##%>;$$1$O2O#@%*#O;   O:##-@--#-#-@@@@4 @--@@O@##=&O@@-#O&=O%$%1$ O>:%$21#$+@%@&> #$--#-@*@-@*% > ;@$#$%=O+*@##",
" & OO@##*#-#-@O#%$$ %%@$%==%$+O###  O    @@O-@@@#@@@#O-#@@@@-@#-O@@=+%@-@#O=@@$% ; > O=%21$$$ $ :> @%-@*-#O@#**&  ; #$#$% + %#O@",
";   @@##*@# -O-5OO$$%* O+&O +  %#@O#*#O -#@@#@@ O-@ ;O=@@-@@-@@O#-%@O& --#+&3+ :+O ,,:O%2%$$#O:+:;O@%44@-#O@-#=O< = 5$#$$+  ==+@",
"@O O@###@#---O&5O$$$1%O  ;O : O@#@@@@@@@##@@-#@O @#@:>O#O@ @@-##@@-@+@@@5@&O&+  + OO ;1%%$$$*&   #-*%@@@@#@@## +<3@#@ #$$=+ O= @",
"@##@#@#$###-O-  &#$$$#$$%$O%%4@ @-#@-@@ : &=##@@O-@@ + ;=-=# @#-+@##*-@@@O-==%&+O+OO;1$$2$#@%=  +##@$@4@@ #@-#  >@@@*O#$#@ =@#O#",
"##@##,O+&=- =& O+@$1$@@O$OO%%$@%#@#*-# ::,  &5## O O <+O&&+##@*-+@@@@#@@#@@Ow%$$+   ;%$%%$#$#$   &%#$O @@O#@@,  <=@@@O#$@# @@#@#",
"##@##=O >>O;;-   @$ $#$% &&%$$@@##@#@@7+@+ +O-@@+O : <  :,&#@#55@%-@@-$-# &=*@$;< O+O%&OO%$#%#&   =*O;;,@-#+ +O:<; @%O=$=+ @@@@-",
"@#@##@#O+ -  O++ #$ @@%# % %$##@#@@-*@@ @+OO@@#- #+::++ O&@=  O&@-$@@---@ &+;%$O<+ +O%  ,% @@#=O  ;O==& ;=#@7;@#+O<;O  O =#=OO@ ",
"OO###@#= &-@  ;;;$$$#@##%$$%$#@@OO@###@-:  ;@@O  #@@:+ +,=#O + +,O&--#@#- @;    < :O$%$==%$@O@@+ >&#$O6  O @@  O;&+O=  +>3=+O++,",
"#@###*-$&&=--@#@ $$##$#$%$$@$$%O;+-@-## @ OO--@>:@#= < +@#=+>, +< +O##*@-@@&+++::O@@#$%%%%$@O#-  ,@*#+6>@   #;6+&3 ;=OO+   ++  <",
"@@-####$O   -@@@@%$$@#@%$$$% --@*@@#@####@@ #O=OO@#& < ;@@&  +@@:,+O ##  #@ >O+: $#*%#%%%$$@@@-&+;-*@@&+@O@+;+; O , =OO OO-;;O3@",
"#@*##@#=++O&-@@@@$$@@##$O$#%$###%@#$-@####@O@--@@4&  + @@ ;+;@@#@ +O;*&+&-*&+;#$$@@%#%%$+ =#@#-#=O#@-##@@## #-#=&+++###$@##+@@@@",
"# @@#-$;   #--@$@*#####@O@#*$@#-#O@O+;O@@#& -*@##& +@#@#@@@#- @@@+O; OOO3=#@ ;$$O#@#%%$$>O @@*#$##%@@- *-@4 @-@##%==###$@@-#@@@@",
"&O@*#@ +O++@@-@@**@@*#5@$O+  -O@@#=O 6O;+,OO;O ;& O<#@@ ##-###@@ +O-=O OO=O;>:O=####$%$$  O%@#O##** #& @@##O#-#O#%- @  $@###-#@O",
"OO@@##=O @+O+&=@#*#$#@@#$O#;+##@O@@& O3&O   O +   &=*-#O=@@#@%#-;O&#*&+: -=;+ +=$@#@%$$$&+&@@#@#@@##= O =##@#@####-#@=#$@#@#@@*#",
"O+@##@#=&@;<  +@$**$*@#@$ @@ #@O =@=;O5# 6&==;+< ;@@@@@O;=$@-@@@;O=@-*##+3&O++<$$@##$$$#= =###@  O@#&<O+&-#O*##O=###@,#$##-5@@#@",
"  @@O=##O *+;6O#@@*@*@@ $##$@#@#@ -=;,%@,+=@-#>> =-@@-;+ ,:++=-# ;4#@--@*&O+ O,$####@$$#$$##O@-#&,@@&<  8O#@-@=&O =#@+#$%$#O*@##",
"O @-O& ##@-#& &#@#@@#*=O###$##@@# @ OO@-OO@@@@++&=@@#++<O O++&#@&O@-O*@#=O+,  O@$@#*#$##$#-@%+-@=O#@@> +OO-#O# O+OO##+##=+=O=##@",
" +#==@##@*@#&O=#$*@##= =$#O$#@@@-*@  ;=-& 4@ &O:&&O ;;: O@& + &== =#=-## :+ +O $#@@## ###=O#%##@#*-#%; + <+&=#  O==O5$## #O=O## ",
";O >3### @@= &@#@*w*#O&== #$#-#-@#@=&O @=@@@-@; ;  , O=&+:;=;+O ==& ;O%# && + ;=@#@O#$#*$&O&=O#@#---4;  +>,OO: +;#@#@$@@ &O=O@#@",
"$&+<;#@4;:+:+#$-@@-@-#+;;+@@##@OO @@# O&O# @#@;+6  <:=**<<O@# + ;;++O &&&=3;+  &**@@#$ #$+  ;=###--5-OO <O<>+++<@O-+*$###  =@###",
"$=,>6 3;< <+: O#**@**@ O++ #-O#@,:=@=:O@@-& #= O&6 +;=@#   ;O:+O+ >< +O++:O O>,O5##@$$ ;    ;O&O> @@%; O  ,<+,+<&@@@@O#%  O@O#@#",
"$-+ O :Oe<,:#*== @@*## +e  #- #@, O;:+ &@@O&=O==;O  6,;;:O<OO;;  : +<< +< 88    *5#@#$#& O  @=&+<+O#= + &-  +< +--@ &+#@# ,@@@@-",
"##OOO6 +>>  w#O;&@*@@@ +<   @O#@@;O++<>+@@ @ =@=O  O + >6 <O,@=&=#; < ,O+O888&=**@#*#### ;O+; :O:+ @&+<+;*;O++++ @# +<#@@&,; #@*",
"##=;OO  +++6;-,,O=@@$@&+< <+@- *@OO +,+ $@#$-@#O++O &&:+O  O && @* O       O @**#O=##@###= +8 >;*  @ ,++O 6++++++5% + #@=  3 =@-",
"$@& < +O4;+++:  +;@*$-@#$, :## -$+   <  *#--#$&++  ##@;+  O;;   =#=;   ;# + :3*=&O&##-#-$=;O&=#@&  # < +OO++++++ *#= ==  , &&O;+",
"3& +<  +==+>>>+e+ O##-##$<>O#@O@ >+ +,  5#@##*O++,&#5@O++ O=& +,:3& >  O=O>++O  OOO=#= &= + O@@@O , +,+ + +,, e+>= #*$>+e++ O++e",
": ++ : &*=O>+<>> &@@##O#1& ;=-5@ + + &&@@ @-*@=& ;=@=;     =&  + +++> +&=;  O     O& ; +#O+O&=-@&++,  OOOO+e<    =-*##+,+<, +>e>",
"O+++ ;&==& : e<e:-#@=&;#1= # &-##;  @##@@##  #@= 8; ;O> O+&=;+OO ,,<<+ @=;O;6 OO ++8OO ;@& OOO@@=+   + OOO <,:&:+&@#@=+++e+++e<<",
" ,++  : ;+@ +<<,O#@O   &=& #<O -#@: &-# @@@= #@$;+ @ +>6 :3=O OO   +++6 &O3&+OOO O 88 ++;&;Oe =@#O68;&&<++ O+;=;,O #+O++>++++>>e",
" + +++,+6 :+e>>> =@, O +; O;,+O35=OO+ #*=O#@-#@# :  +:&;++:O +O+  O  + ==O8&  :OO83 ;+>>O++ e,;##=  ;-#:++;&  =;  +>e+O&+>>,><>e",
" O+ ,,+,68 , e<+>&= O6 +O O8O ;O;;6O:3#-&O-@*@###3 O 3=;+ O+ OO++ O O ;#-;OOO>::+&-=&6>e+ ++e<O=@@O+O==:++&##3;+++>+ ;=& :>>>+>>",
"O+   ,O+6O6OO+,+,;=& 6  O6O;O 88OO O+&=& +=-O ; &;O+ &= <+,,+;& ++OO  ;==O88 >:O+3@&+;  ++>+,e+:@@O  O:+++#-=O;+OO++>;OO ;+  ++>",
"O++>+>++O : O+ ,+;& O; +O&=&O 6OO O+6OO6> &=;6OOO :   ;Oe,,>>&& ++O>>+; ; 6OO  + :3  &&  ;;:,<+++=@=&>O ++;=+;==&+; ++;O ;++ +,e",
"+O  ee<+O O-+    6   &&+OO&;6 OOOOO 88 OeOO&O 88OO6:O OOe+OOO&3++ O e,OO +O6  ++ :  ;=;+:=#=O++ +&=%=;O+e O;>;@@@-#;O+==> =3 <+>",
"+O6O>< >+O :+O+ +O&8;=;+OO  O;+O++O 88+,+O &=& 6  OOOe, > 86 ;;++ O ,>: +  O O+O  OO;O; O--#O:,++OO & O>++88+;==O#-O ,@=+O-=,e+>",
"++6    + +OOOOO  &=   $O6 + &; O>  +O +e+>O&==   68O+> OO6O + O+++O ,+ OOOOO O  + O O3&OO=-#@; ,eOOO8O eO>6O+OO&;==++>;   @=>e,e",
",O O O6 +,  >>O 6O=-#$#=O O 3#O6O+++ O   e+OO=&  ; OO>O66 O++   +OOO++> 6+OO +O+OO;O;&O;O&=O&=O +,O 6O , ,OO OO O  =;+O  O@=+,++",
",O+O+ 88O >OO OOOO;-##$@=OO &==;O+ e+O6;:+ OO;=#5&;6OO +O OO && +O O+++O6O OO OOOO&;&O&& O&O+3;6O+O,O;O+ +  eOOO &== O O +;O ;O+",
"+ OO+: 8+6O> > > <++#@@@$3O O&& >e+  O6 ;-@3O8+=% +; O O +:OO==;,  Oe+,O 6 +OO8,6>;OOO@#&O8 :3O Oe+ ;&;,+,+ e +O OO&+;O;+ OO =@@",
"< OOO3=&+;:>>+   e+;= #@$O +OO ,>>>,+O  @#-=+6;O&3=;OO+ +O+ O3=&+88 ,++6O;O  O&&;+:=@@@$=;O++3;  >>,O6 ++,, + +>   O O+;+;++O##@",
"O+O 6&=@*3:>,+,+ <+;-#@@$OO ;OO+::; O+O;*@=& O>  &=;+:+,+OOOO; OO8O> ++;&:+ ,O ;O  =#- &= ++;=   >,, e+++ + + >OO+  O + O&+O+=@-",
" OOO O+%* ,++,<>  OO-#@@-& @%@@&+@#@:+O ==   Oe++OO -++>+O+O  e,++,,,++ O ,+>: O6+ &3  +&;+O;&:+++,>,>+,,++>+ >O : > <, +:++e;+=",
"OO  +O #=;+  e+X  + -#@@5=  @#*;>&#*+<  ;&O:+ e,,, 6;   +OO  +e>+ O ++ 66,>>+OO 6OO+6+ ,;8+ 6O6,e+,+<e+  +>  O>88   +,< ++,>,O++",
"  +>> +: :O++>>,OOO =#@O&=@####@+O&&;++O8OO3@:>++ >OOOOO>O +,+>+ +O ;;+66O++ OO 6O+  >++O  6OOO++,, O;;6+>>O6O 83O>O;++:+ ,,,O++",
">>:;: O>>+,>eXO +O O;+@&+ @#*### ;O+6O O6+O--=;:@=& ++ 86O +,>++  O &&;++O+  +O+  +OO+O6++O886O ,,,>;=&O X 6O O; ;O :++O,>++,++ ",
"++;=OO  >X,><<O O+ + =@= +&==&O=-#=&+ ; 6 O-@-+@@-@&,+O6   +e> < OO  ;+  + O+  +O+    86++@O++,,+>O88O:+  O;=#-&&+  ,,,,, :O,>+>",
"+O;; O+ >+X>>OOO++ +:=@=  6O O &=@-=&O&;OO #-#& =@=; +O+++O++X++ O  O6++  +O  ,+>+  O8OO+ :+e>>+> O 8 OO + ;=## O ++<.<++;O>+, >",
"+O+  O  >>XO O  +++<+O&@+OOO O+OO;+3=;&6+OO=@-;+;O :<,+>OOOO + + O  O6 +   O +<O+    6OO+OO+e,,>>++68 OO  +O 3;+ +++XX>   O O+O>",
" O    OO,+X 6O+ ++ +++O;+OOO+;;+6+6O: O+OO &#@;+66+:+X>+ + OO+     O  O+  + ,>+ + >O OOO+;;+X>,>,> O8   ++,O6OO+:& :,>< +&O;   >",
" OO + O +<e     + >   :&OO++ - O6OO  +,+  + ;@ + O+ >+ : OO++ O  OOO  OO +e >>+O+ +O +   && e++  >  O OO +>  +OOO&+;>,>: == +;:>",
"+O+ O+ ++O > +O ,+  ++ :6++> O>> + >>>,>+,+ +::>++ O+ +;3OO + O < +  +OO  + O>< >+++    ;;: ,O,O <<>  O OOO +OO  O :> eO& 3&;++>",
"+   O+++ O +++ O+  +,,,++e  ,,+X>e,>,X+X+OO+ ,+eX,O +,,:3;O++++<,+++   +,O,+ +  +,>< O  O> +++O++,+ O+O>OOO     ,+ <,,,  O +>+>X",
"+O +O  , +  +++ + +++ >>e+ O +  >>>+>X ,O6O +O+,X+O++X,  6+++>+eX ++  +++ +O + O++X>>O8  +>+++O +++  +O+  +OO+++>++<>X,+>  +X+>>",
">  OO O++O++ >+    +O+ ,e>> +< OO >>XX +  +> +   OOO >e+> <   >,X++  +  +  OOO O+ >,O 6O  +OO+   ><+  6,<   O++++>+++>e+> X>>>>>",
" O+  O6O>+>>e+ +  + :&:+>> O:+ >OO >+> +++>+O6;==;+8O<  +    O +<>X+  O < OO O++  + O    + O; O<    ;&; >   O OO :O; >    <+e>><",
" O++ OO>++>+>O+  +O  ;;  <OOO  +  O+O+ O +  OO;-@O; 6OOOOO:  OO+Xe,>+ O+++OO  ++ >O  O   +  &3 >+   8;+@ O + +OO O ; +O:O;: +++X",
" +  + O >+>++O++O> O O6 ++O +O  > O   ; +>+  O =##=OO+OOO+:  ++ >X>>++O     + ++ +    O ++  =@;+>    O;&6  >> OO+6 O >OO++O+   +",
", OO+>>X>++>,OO ++ OO O+O+O +OO > ;O@=@ , +  OO;O==& >X O+OO+ ++.  ><<O +  +,    +     > +  ;@;+.+ >+;5 O >><+OO O OO+++++:O  ;;",
"+>+  <+<  ++   ,+>>+  O+O O+OOO +O;=@@&, O+ + O6 ;;OOX>,>> +  X>+ O+>>+<>+O    , +   + <   <:=;<e>+,+;;+><X+X>  >+++ >> >>>+ O+O",
">>O +   ++ >++ + <+> +::O O  OOO+  &=&O  :   +    <O >>+><+>  X>+   >>+>X>+> +>> + <>>+>+O > O6+>+>>+OO>X>> +>>>>>X:O+> >++>   +",
",> +  + +,O>>, +    ,,++  OO +OO<  O&O ;;5+O    O,++OO+ ++ <  >X  + ++  >.>X.>>> <eX<<><  O    O+ <++,++,><+,+>+><> &O<>>,:++>+>",
">>>>>+> ,, + O + <,+  .>, O O+OO O+OOOOO;O, O OO+O  OOO+,+++ <>.++ +OO, ,< +<,+++>,>,,>++   O,::, ,  +,>><<>    <,>:OO++>+O  X,e",
"++><X+>>.<,+O+ ,,>+OOO>.. O O, O>,+  &&O&: O O6+O;O+O88+,,@O+++<+OO++OO+  O O 6++,OOO,+<>++, >OO++OOO +>>><+, :+>O    O<><;=O, >",
">  +>>+>>.+OOOO <O O+>+>>+ O<> +X++ +&=O; +O 66O;# O+88+++: O >>> O + OOO+66+;&O O OO+ ,>   <<O +O OO  >++>>,:@: ; O+O:,>>; ;  ,",
".+  ,> >>< O    >+ +>> O+  O.>><  O++:;OO +O  O6 ;+O  OO+  ,+O>>X+O ++OO +OO+8&O.<, O+ >> OO< O+OOO O O+,+<  OOO+;+O+  :, ++ O ,",
"<.   ++>>. ,,<O + O>>.O  +: >>+< O+ O,O  O>OOOOO,O++,  O+ OOO+>>+ O++++O ,O+  O <X+ O.>>>+OO, O>O  ,#+O><,>O   O,O> +  O>  +   +",
".>O,XXX,.>+>>>+ +>+<..++,+O <,+>  O++O,   >O O, +   +++O> + +,>,<+O,,+ O+++,  ++.>++>.<>>> +<OO,  +<OOO,>+<  O+++ +,+++ > +++  +",
">+O+X<>,<++>, + .>>>.<  O>O >  +,O +O O++O OOO+  OO + + ><+++ ,+,+O,++OO  >>>  OX<+  OO+ , <<OO,   +O6 <.>>OOO+ +OO +  :,+ +   ,",
">++ ><>>+ +X<,+,<X,>..++ + >.O+OOOOOO, ,++O6;OO+,,,,,>>+<,+<++ ,  ,,O O  ++<> O< +,O + ,+<,.>   O   O+ ..<>OOO, +  + ++:,O ,,>>.",
",ee+>e.> <+,,,  +,,>X.X+ +,X. ,OOOO+O ,O O,O # O+,><+++>,O O ,>>,++ O+ OO+,,,OO ++,  +,,O.,., ,OO    ,>,,><# O> +  ,+++,,O, +<,<",
",<<<.<>,++e>.>++  O<<<.+O+<+.+<+O@OOOO,O O,OOO+OO+><  O,,O OO >>e++ ,  O ,X>,+@5,,++O ,+O<,+,O<,O O++,<,,,<  O,++  +++ ,>O+O   +",
"++<<..<,+ >>>,>+ +O>>>e>OO< X,><:&O,OO+ ,, O O   + + OO+, O+O +,<  +++OO +>> O OO+ ,,O,,  ++> +,OOO O,X<>>< +O + +   OO,>  +O O ",
"+ .X.<<+, +e++.>> <+++<,  ,, ,<>O; OOO,O    OOOO+++,+OO,,+ ++O +> ,+, OO+++,O+,+  ,,+ ,,O ,e, ++O   O+<>,,,++O   , +++Oe< ++ O ,",
" ,<>..<,,+,,+,<<>,,<++<,+++++,+<O@OOOO,O O+ ,+OO*,+<  O,O+OO, ,,<,, +,O +++OO+, + +<, ++++,+ + ,OOO+O,,+ O+,, O  +O+O+ +O,++,+++",
",>e>,..<e,+<+,+,,.>.<+,<,< ,O+O   OOOO,OO ,  +OO ++,O   O+O@  +,< ,+@+,++  +OOO++,+,,O,,>,+, + OO,O O+e+OO>>>+OO OO +++ O,+    +",
",.<<+.<<>X,,,+<<<>,.>>+,,,,,+,,+OOO O+OO+ +O    +  +O++O ,OOO ++,>,e ,,+O O+O +<+,O++++,>,+ +O,+    O++O  <>< OO  O+ ++++>O O+ ,",
"X.+, .<.<>>,,,,,<,+>e, ><<.<,..,O# O+-OO   ,<++O  O,O>+OO+OOO , <> ++>>+  ++ +O +, ,,+O+<<<,O>>,++  +O, + >>.O O+,O+ <+ +>O +++,",
">>,<><<e><.,>>>>><,X>+ >>.<.>.e,O# O O+OO O+<+,@+ +,+ OOO+OO   ,.>++<<>, >.,    ,>,,>  ,+e,+ +,<++ O+ +OO@+>. <O+   +>   +   ,,X",
",+>..<>e,,><,<.<<ee<> +>+.oe<><,OO O O,OO O,, +O O,<,OO O  O+  +<++>X<++ ,<e  + >>>+, >< +>+  +< ,>O>O+#O  <e+< +O      O ,,,>>.",
"e,><,>+<X>,>+<<<..e> O++ e..+<>>OO,  O,+OOO+ + OO,.>>++OOO+O+ O+,++, +O+,,,+O O +,,+,+,<+,,>-,+< +   O+ OO >++,++ + ++ OO+++++,<",
"e,,>+<>><e <,,>>>.<+> ,++<oe<,<>O++O+ ,<OOOO+ >  +.><<>O  >O+ O+>+ + ,  <, < O   +>,<O<<>,>,+ >,O,+O,O+>    +,>+  ,+++  ++  >+ +",
" >++<<<.>> <<.>e.,>,.e>+,,o..,.>    +, <O O#  .+<  >e><O O+  +,  ,O ,,,+,, e,+  ++<+>,,,><.<<,<+   ,++ >++O  ,< ,++e>   ++   ,+,",
" + +>>>..>,><.>><<< <<>+,e...>.e    O, ,      <e++OO >, +>   >  O O  ++.<,+>e<,O+ > ++ +<<<e> +>+    +O++++  +>> +  >  O+,, >+++",
"+++>+>+>,<,,<<.>.<>+.<> +,<>.+> ,+    O > + -+>, OO  OOO>++  >+    +   <,.,>... + , >+   +>,< ++ >    O e>++ >+> ++++  O<++,>>+ ",
"<,,>+,>>+><+<.><.,,.>.  O><<< >  ++,+OOO  +  +,,O>    ,O+ +OOO> +++ O> <>.<,.o>++O+<+, , +,>>O> O+   OO+>>,+ ++, >++  + > ,,,O+O",
",e<><+>,>+.><.X<<>>.<.>O .X<.+<  ++ >    +>  >++++  >> , , ++ ,+>++ >+><<+.,>.X,   <+>> +>,+> >+ + O,++>+><+++>>+++ ++ >+>+++   ",
"+e>.>  ,.>.><.<.>.>.>>< >e<o.><<,  +++   >>O,>>> ++  > + + e>><<+ ,+++<<.<.><<<<@>O>+>< <>,>+>>>> O >X>>+e<,<>>++><+++ ,+> +++ +",
".,<<+ >+<e><<.<.,.e.e<+<>.<e><>X + ++>O ,>+ ++<<,> +-O  +e <>>,X> >>.>>>><>...>>O++>+<<+>>>, +>> +O O, >><><e<++ +++   +>< + ++>",
">,,> +,,<.><<>.e><>,e> ,>.<<+><<+>   +> +,+ >+,>+><,   ++e >>>> >,+<<ee><.<<<><>+>+ >>,++>>> ,>> +++ ,X><>+>.>>>++>+> >>><   +++",
"<>+ ++>+>.X<e><.<><++  <.e<> >><.>++  +  ,+++>>+ +>> ++    +>++++>++>><><.X<<>>< ++ +<e>+><+ >>+> ,+   + >+e<>>> +>,++>+,>+++++>",
">< > >+ ,<,,<e<.e+.  ++<e.,>+<+<e<+ ++  +>  e>>+,+  > ,   +>>+++>+ X><+>>.+e<e>+> >++,,,+,,+>.<++>+++++ +e  >>>> + +<++ +++ +,+<",
">++X >+ +<<><><<<+>>+++<..>>+<<X.<>+> ++ ,,+,<+    ,,+++++<+>++e,  X+e<>><++<,<>  >>, ++>+,+<e.+>++ < ++ +,  >++ > +,+ +++  >,+.",
">+>e+++ .><><+<<<>+,, X<.<>,+<>X.<,>+ >, >>>>+,  +  ><>+ +>++>+<e ++e<<e.+X<.+<> ++<X , >++e<e.>X> >+ +>   +>><> +  > +++,+ >>>.",
"<>>,X<>>oe>+< X>>,,+>+<<o>>>,>++o<e> ,,,,>.,>,+++>,>o., ++X  ,,<e +,oe>+<++ e,e> ,>Xe+>+.>><<oe>o++>+,,+++,+XX>> ,++,, >,e> >o<X",
"e>++<>>e>,+<e,>++,> ,><<<>,,,,+ ee.<>,>+o>X ,+ +++<<>,  >>.  >>>>++>e>+>,  ,<><++,> +,<ee><<e<<+>+,>,+, >+>+>>+>+ >>++ e><.>>eXX",
"o.>>+><e+++ee+>+++e>+<><> >e,>+><<<o> ++.>e,>     ,e>   >><+ +eeX,+<+++,++>e<+>+++,,+>>>+,>...<>+++e  + >+,,>++>>++>+ +++<<e><..",
"Xe,,>>>,++>>> ,,,>>>><<<X,>e,X>X<.>.>+, X>>>   + >>,<   +>e+  ee>,>>,+,>>>Xe> ,+  ,<X>+>>,>X<.<>>>+, +++,>>,+>>> >>,+ +  e<e+>oo",
"o,>,X>e,+,<,+,>,X><,+>>e,>,>,>,>,,<>> +++>>> ,>  > ,,+  ,>>++ ,>e,>+,+>e><<>,++++ >>,>+,,>>>e>>X>>+++   ,,,<<ee,,>+,,,   >>><>ee",
"e .<>>>,>,,,, ++e>e +,<>+>,,,>e>,ee>e+++ >,>,,, ,,,++>++>>e++ ,>> >, ++>>e>,>+  ,+o,+,>e+>>>>+X>>,++,  +>,<ee<<,,>>e+>  ,>>,<<o>"
};
