/* XPM */
static char *FIREMAG1[] = {
/* columns rows colors chars-per-pixel */
"128 128 35 1 ",
"  c #8B0000",
". c #E30000",
"X c #D70000",
"o c #EF0000",
"O c #5F0707",
"+ c #7F0000",
"@ c #43331B",
"# c #530707",
"$ c #6B0F0F",
"% c #670B0B",
"& c #9B0000",
"* c #2F2F2F",
"= c #272727",
"- c #332B13",
"; c #3F2F17",
": c #731313",
"> c #B30000",
", c #A70000",
"< c #2B230F",
"1 c #BF0000",
"2 c #730000",
"3 c #4B371B",
"4 c #4F3B23",
"5 c #5B0707",
"6 c #13230B",
"7 c #533F1F",
"8 c #232323",
"9 c #771717",
"0 c #574333",
"q c #373737",
"w c #CB0000",
"e c #533F2F",
"r c #670000",
"t c #5B472B",
"y c #430000",
/* pixels */
"-@- ;&&% +==<-==@@34t@340734+-@;=&=;+;-;@-@@-*;;=@;=; -@-;@@-# &--# <#==-*--*444e74@344443-4t44-@ 5# 4@;444% #44e744;44443-4t44-",
"-=-;= +++-==<-=-*@34t;@307+43;@;-;==+==@;@;@@=-;&= ==,-;@;;@@ %@=-+=+ %--*--*@+444@;373443;@4@;-@4 5+@;;444 &+4444@4@@3433;@4@;-",
"-=-@-#%+ -==<==-@@304-@3+@343;@;=;=-@-=@*=;@@-;;&==#:>--; @@@--@=-==+++% %--*@@300@;343343;@@-;-;4@-;@-@44@;$+@300@4@433@3;@@;;;",
"-=-;-++93-==--=-@+344;@3+@343+;;*--=-<*@*=;;-;;;+%=%>,--;++;-;+@-+== +r+ + -*@@3444;@073&3-@;-9 @@;-;@-;44@--@@34444@037@3;@@;@;",
"--=;-++73-=<=-<=@ 374;;3t@343,-&--==--=;*@;;=;=+= =+,  -@@;-=;=*<-=<=$5=<%+%*@@&# @3407343-@; + @@;-;@;@@@;;-;@@4 @440+7@3;@ ;;-",
";;-;@@;7+-==<---@@373@;304;4@ : ;;---@-;=-;;=+$+;;-++& %+;;-=;;@<-==<++#<-- **@344;@307+# ;@;   @@@-;4-;3@;;=*@@4 ;4;&&:+3;@@---",
"-*@-=@@7 - =--= %@373@@304;@@# ;-*@---*;<=@;+  +-*--;;-$+;@-*#+ <-==-++ ==--q@@303-@34@34 ;@;- +@*@-;@@@7@-;=;@@0@-4-4:  %;@@--=",
"-==   + 5#==<-=>+*@4 ;- 0@-@3;@;-===-=@;-=@@-+ &-=+-=@-$ :@; $++--==<  ,--*-*@@343;@37@34 @;; 2 @@==;;;@3@-=-;@@43;4 @3$ &%@@-=;",
"==# >$@5+&-+ *=<@;@#+;;@0@;43-@;=@+;-;-;-=@;-  3==--*@-+>> :>+++<<-<=*=<=*@-*@@+74#+37@343;-;++:@;@=;;;@@;-;-;@;@4;4+@33  +- --;",
"-+#  9@ #=*<-*=-=;@ @@;;e@@43&4;-;=+-==@=>@;-:+--<-*&: > > : ++%<=*<-*=-**==q@@ 7+  %74;4@;;;>: @===;@;=;&---;@@@3@@ @43+, %+-=;",
"=<=+  @@-8=<--=<-;@@@@;;e;@4@&@&=;=---=@-&;--+ -= =% &+ ; ;5 ++-88=<--=<-+@@*0@3#&&++$ ;@@;;;>: @--=;-=@@=;;-;@;@+@@-4439>9@@-@;",
"-<--#  ;-===-==-@; ;3@-;3;@4;;@**--=-<*@=-;=- $&-<- +>& #;-=%+-;====-==--=*==@*@4 >+++#-@3;@;;;-@==;;=@@@@;;-;*  @;-;+334@;@@&=;",
"*-<--@;;-8==<-=<@--;@;;;3;;4;-=@--==-<=;<=@;=-=@*--=+%-#=;@==-=@=8==<-=<-@*=*@;@3@;;@3@;43-@;=@=;=;-;@-@@-*;;;@%#@;=@7@343-@@-@-",
"--+-*-+;--==<-==@;;;@@=;@;@4;-;-;;---<-;=<=*-=-+--&**=-+<;-=-=-@*-==<-==-@-=*=+@3@@;;3@@43+4;-;==-==@;@;@@=-;=@+@@@=;3@343;4;-=-",
"------;;-===<-==@;;;@*-@@-@4@;-@-*@--<*;-<---<-@-==*-==-<;-=-<#+#===<-==<=+==-  @@@;;3;@4@+@-=;=-@-=@*=;@@&;;-@@@3@;;@;303;@--=+",
"--<-=-;;+-==<-==@;;;;@-;@;+4@;==-+==-<@;=-<-=+%#%&======-8<==-   <==<-==6=-**@% ;3@-;3;@4;;@**--=-<*@*=;+%+;;@;;;4@-;@-@e3-@--  ",
"=---=-;;--==<-= @;@;;;;@3;+43-;;=@=;-<-;<<-<:   & =<==-<<;-==* ++-==<-==-*--*@->%@;;;+;;4;-=@++ =--=;*@;;=+=;@--@3=;=@;;43;;@-+:",
"+%+---;;= ==<-=-=;@;;@;;3;+43;;;+;=--<=@<=*<+++  %#%+#=<&=*=#+#-=-==<-=--*--q@;  @@=;@;@4;-;-;;%>-@-;=-;;=;;3@+;@@@=+@;@73;;=;+ ",
">  -=-;;=-==<-=-+;@@;@;;;;@4@;;-=;=-@<=@8+&=--%++##+&$++&$&% #=-=-==<<=-6---*@;;;@*-@@-@4@;-@-*@+--*+<=@;*&;3@@-=3*-@@-@3@+-@-  ",
" ++-=-;;--===-==%#@;;@-;3;@@;;;**--=-<*@====-==  %=$%+++%=== ===--===-=-<=--*@;;;;@-;@;-4@;==-===-=@;-=@@-&;3@@=-7@-;@;-@++==-  ",
"-----=-;<-=<=-<=>+-@;;;;3;;4;-=@--=+--=++9-+<==%  % =$  =8=====-=-=<=-<=<=--*@;@;;;;@3;;43-;;:& ;-;-;-=@;-;;3@@=@@-;;@&;@+::*==-",
"-=--+ <;<-==+&== %;@;;=;@;@@; ;-;;-==@-& >==<-== 22&+&-<=-=+-=+=<-#+$+--<---=&;@;;@;;3;@43;;&&& =-==@==@;+;;-@;=;;=+-&% &:&& -<=",
"==<----;<&======@;;3;*-@@-@@@;-@-*@----;*==8==<=% $  +-===-=<-+=<- &  % ==--*-;@@;@;;; @4@;;%:;=---=@-=;--;+-@;*+*-*@-#%>;;===<=",
"-=*--=-+--==<=++@;;3;@-;@;-@+;==-=====@;====+=-=+======<=-<+====-;    #*--*-q@;@;;@-+3;@@;;;+*-- +<*@=+;=-=-=+@;@==+-@@-@;=-=-<-",
"&+==+<;5#--=====@;@3;;;@3@;43-;++==---@;--<=:&%-===-<=+===8====<-- & -===*@-*@--@;;;;3;;4;-=@--==-<=;<=@;=-=@*@;@-+-@@;;;;===*-<",
"=#+### >>5*==== =;@3;@ ;3@@4+;;;-<= *-<@*-==+& =<-=*==<==-=*=<===#&&+=-=**=-*@;&@;;=#+&++;-;&;;---<+;=+=*-=-@*;@-+--;@;;-;;@=---",
"==& + >&1+&>=<<=-;@@;#&;+% 4@; -=<  $<-@--=+$%+======-=====<=--==$1&--=<+=@+q@;;3;*- +>@@@ - -+@--<*;-<---<-@*@@==-+@;-;@;-==---",
"+=+   & >&  $<6<@+ + @-;#++@+;;*-<:   -;-<=;-<=-=*===+-**=<++ +*=+  #==<+**-*@;;3;@-> +-@@;=&-===-<@;%++-=- *+*@+=-+;;-;@;-----<",
"===#&+& + + > <6@$  $;;;3;;4+-=@*&&  -=-=--<=<<-% <====8+=< #$ =#-$2 = <-=+-q@;+3;;;>$@;43+;+=@=;-+$   +:=*=<=*@----=;-; ;--*=+-",
"-==<-$& *#%>$><-# +&@++;@;@#$&%--&&$**=  +==<==+ &%=-<<-+===<= + % ++@=<=-=-==+@3;@ ;3@@4##;;&+=--  +    -*+-**===---+-;@=<=@--=",
"=*-<=#&+*=+ % <6 +  $*## - # ++ -= -*--   ==-== 11$ <+==#<==<=#+$   =-=<<-- *+;@++@;;3 +&%+ &  =-@+=@8+ <--=<-= +== $+#;;---@--+",
"=-=* #&#=+<+%,<6 $ ++$+;@;-4@&+=-====== + ==<-=$& -=#&+-+$ ==<--=+ +*===6=*-*+%@+;@-;3+  $+ : +-=-<*@====-==--=+ -=-:>+;+= -==-=",
"#&-=-=-;- -#+<<<@-;#%  ;@; @@8=+#+%=<==-% -=--==+$==<%== + --= +-=--*<====<-+@  %@;;;3;;4;+=@-@ =--=;=8 : %#<-@*+=== & $#=#6 ---",
"&+=-- ;=<<< <<<# =;3;== :,+#@;=@-   <---= $: %--&+#-* +=  1--+*<=====,+&%#= #% +&@@=;@;+@++;-;;---@-;* ::,  %-@- + + 1&+%%&==-=-",
"--=--#-;=+#+=<++&=; ;-; &+ $#;==-#$+%&=-= ++$ +=&+ -+&-=+1&:+ +6=@<==#+ >>+$$=   @* @@-@ %%-@-*@---*;=9&=& &+<=-&+ : 1  :,%====<",
"=-=, &5;5+%  = +,-;&==@- @>+,%-=-# +*==+$ ::=  <1+&==6==,& +   -=<;==<<+& -  +&& 3@ ;@;- @ ==-===-=@;*- =&++=6=- =&::&& +%-#  +%",
"& &&     &  #=<$ #;+-=--@;% & ==- %- #%++2,:==% & &#; -=> &&+ %+++=<<-=# %==  $$$;-;;@;;@@;=*==-++--;-=-:  $=-+  ---:& &,#-+ & &",
"   &  $+  + <= $,%;--;-;@;;=#;@+=&<=% -&= >&9<= $%+$#=<=%, +%$#=<<==--*=%%#-=@=; ;==-;@@@@;=@-<+$&=*-=- = ++--*>:*-# 1 &=6#&>, &",
"=+&+>  1%-#  #+ &$;;=+ #;;;@;<<=*==-= % -+ >: =-=#  - ====5%# ====<-=--=+   *@=;;;-*@-@@@;;= =<=**<*==-<=<= -+#++--% 1 $=<%  &==",
"- &&&  >#-=<# ##2+;== +$& +@;---@=-;<%%+% $&$<<==8 $=+<==-=&-==-=<=<;*=#&&+%q@-;;==@-@@;+;--=-<----=<--==--+-<---=%  & ;= $&$===",
"#+$ &&$+$+--<<=  *---  =&++5$+#<- =# $ %##$&$#&%-8=+=-=- ==-<==== =<==-$   =**;;;-=-@@;;+;-==*-;-+@+&$+*<=% =<=--% &---;==<-= ==",
"&&#+ $$ +=<+&<==**==*+ $+2r+ $&%#-5 +2 ===:&$$+ -=- -==*--<---==%+=<*= &+&&=**;;----;@;;@+&  -+--*#+ 2+$&,++$+ $% +1=;- =---<-==",
"y #$ # % =<# #*=-*++#=#% >%;-#+  $$&&&--= ,&2++&#=-=*<-<<# &#@-%++=-*=#+ <&+&%#;;=-=@;;;@+-$&-=-+=-% +5%+   + &   %#=;-+#-=-==*-",
"=++ &#-# =;+##,=;*% %=-=&&+=--=%$+ &:&6-$ && $$,#<=== =<# + % %&+&==<*-#%<$1  &;;=--;;;-@ -- -=+ #=#$+=- 2%##$&1 $--=--+$#<6==-=",
"&&1:&$ #+=*+#+&-==+:+==- ,,;=-=#+1&&=@@=&>: %%  #-<==#%&$+:+#=#$  8-+#<=+ *&$2+;----=;; ;;--*=<-= =#$,-<,&#=<=>> #--=;$& ,:&&#--",
" &&&>  --=# # #-=-= %#=--%%;-,==%&+&<==<% ====&+--==-&$ 2 $----$+ =<+% --==-% %=;=-*-;#+;-<=@-<=- - ++<=++<---&&%#---&&1+ +&&%-=",
" & ,&,$##+, ==--;*=-#+%#;$ #%+==#+:+=6@<-&8==<-=<-=&5$-% : -*-<+ &=##<---==-%+#;-==--# #--+-@--=-*<  $#-% -< %+:%%+ $$: +-% & %#",
"=# &+  &1& %=<=++*q*#+ +&&%# &-<=+5#% &5%+%=<=<=<=-$  == + <<--<$+ >5=@- <-# %=-=-=--+%## --=--=-<<#%+ =#=-*-=$ $  , +#%&:$#$&+ ",
";-##-&>,, $+ #;##=<=%+1&+1$#$ %#$+= $  $+- %-#% =-= %%**&& =-*=<=%&1$==<$:&:&=-***==-;&$$&-*=--++ <6< +%+< *=-$&2  1:#--11+6= & ",
" # =6&&1w:&&++#+**=*  &&1&+#$ $$&  $%: =$$ &$++&=*--# =-   : <===#,>2 5$1 1&: +=6--=;; +&& ==+=-,:#=#:+==<% @# +%2 &$#-@   $+:&+",
" # =<  ,w,&++$  ===$& &&w&+$21 +1&& $  $   + ,%#--+*- ==$ &  *=-=<& + :+w1,:*=## 6-=-; &w  == -<, +$:& %-<+%#+##$+  2,$$:+1++$$ ",
"#-==-=&+,&   # #<=  &+  1  &&>&  ,& 2    $+$ %===<<<==- - &+,=<==-+++2 &>>  ==+$%=-*-- &1   <+===$+&&1>&-* < #<#+  + & >2 1+,-#%",
" +#==#   &&  #= <%  &r%:> 1  ,1& 1> + =-;=-;<=-<=-+#==# :  $&====*#$++  &&&2$=,,+#<--=%&1 1&;< =*++ &,& -=-<<6*+&&+ %%:&+  + %% ",
"   + + $$&1& %##%+&  r+%;:+  &1& && +1-=*-<<-;###$ : 5%&&  %=<-==-% 1 &+-$&&&:  &$---<-<;, :== =-&   1  =---<-%&&  @--$&  +$$   ",
"& + ,+  + &&&& &+$&++r&%# &&& &&>&>+ &&+$ &&&:1 & >&&$  ,++#==+ 5% &1  &##&>>>&w& +--=---1>+-=+= >& &,  --==<<+&&,%-*;+&& +#% &,",
"  &&,2&+   , &+ $%$%#$ &$ &+:: &>&++2  &   &, ,++;:& +&    <=+  : && : %6#+>&1>> %=-<<+--% $#=<= & & %%-* ---<#% $#*#$     #%  &",
"&&&+&&&&+% #$ ,>:$ ##$ +++&-+55$++2r+++ ++-1> & ,++++ && &$#%   +&&& $%##% : w1w:;==#%$-=# - %===$  ===<<==  =-# r$ $+> +&%#$&++",
",> & ,$ $ =<    &-=%+ & +&&:&#- 2 + &&+,+$= >&&&>&>  +  >+$$ &&& ,&&  : $&- &11,+;-+   %#% -1+ =-*: %<= @=<# @=-$& - &>2 :5#+ ++",
"w> ,,+##++##>    $= &+  +&&+&%%+++ >>&+  &$2&&   +&&&$++>>& &&+  & &&&,&2 :&w>>> #<, + &$ +$,&+5-#++& -=#+<-<-<= :  &:%$&&:+ &+&",
"w,& &+#++$& $& +,%#&+++&2  +++% +++ +r2&,&++rr2&,&>& $%:w&& %$   +& ,,&,2r , w1&>%# +2 &+ +r+ $+$$2+:5*<%+=----;-5 + 5#$& +& ++&",
",>&&&,$++ %%+&>,w:%$ + +rr    %#%+ +&rr&w1+++r2>&, >>$$ , +$##$++&   ,+&2+2++&,&,$#% 2  +2+$+ rr++ +&%#% &#<+ $ %$+& %# 1&,,&$% ",
"ww&ww&+ &,++&>>ww++ ++& rr&&, :$#+ ++ ++&,+ &+ +&>+   +&w  r+% ++&&>&>&&+ : +& ,&$% +$ &+%#%+ 2++ +&2++2> %#$2+++ :   $+w,,>>%% ",
">>>&w,>&& +%ww>1&&  2+   +& &,&&$%2 &>& w &&>&&+&&>+&w&&w rr++2&&+  ww1&+ +=&    2   %%&++%$2 +++++ rr +w++%+ rr++2:+ ++w&+++%5&",
"w>, w,+ ,%#$,&w , +rr&+& &$r &w&+2+ & &  +&&,& :>>&,,w++&&+++22&&+2+>1 >&+ :&+& &+%r$#$&++  +$&+&&+ rr&,&+ %#% 2  +++w, > r2 $$&",
"ww&,w&+&O++ w>,  +$&2 +&+$#%+& +>+&>&&+& >+ & &+  & &&++ ,  +&+&&&2    & &+++++  %#   =+2 & %$ +>  &+ &w&>+%##   2r+&> ++2+ & +&",
"w&  &,,,% &$1w1 $$$+r +&$#$ +  + >  & &&&1::&+   +,& &++>   ++2&,+ + +2 &,  >>+ 2+#=--<#+ + 5;+2+&&& +   w&++#%  $ ++>+22 +&&   ",
"w, +&&&&+$#%&> $:+$$2++%+%+++$ +&&  ++&++ :$ &&+$: &>   &>++2rr&,+&+& rr+ >++ ++++$*=*--#++ %##$+& w&+2$:& ++$#-=%$2++ &+ ++ %% ",
"ww >,&,&>$&,&>$&&&+ ++5##+r $%: ,, ++++&$ =#+&> %%>&1+&+& ++ %++& ++&: r&2+> > > 1&&<<=-=5+ +%% >w&  +2 $=*5+r&#- &$ + + &:++##$",
"w,&&& ++   1  $+ &+++&$=;$2 &$+&&&&&+  $#-#%& & $$+&,&&+ & > $%+1 +++5#%&$:>>&   w&$# =;=+ &++ ,>>>,&+  <;*#&2$+%5#$++& &+& +5#%",
"&$$&$$+  &>> $ $ & +   =;   ++2++ +& ,&$#= +, &+++ ,,,ww& &+ %r++&+ 2%#=-5:>,&,& 1&$-<-=-++ $++&::$ +&+$-8#% +>  %#$&:&,&++++$ +",
"&%+  +&& +&  ## +>>, %#=$+&++++ &++ &&  $+ &&& :$=&w&wwX1 > &2>  +++ +&-- ,&&,1>  ++=-=--% =--=%&-=<:&+ ##   +w&&++ =&&>&+&+  w,",
"++  : & ++&+++$&+ &,2%#+: & + &&>+2+>1+ +   , 1+++&&,ww>w,& ++, ++  &+ <#$&  w&X  & <;*=<#  <--$>%=-&1  $%+:& w,,, 2$   &++  &w>",
"+  > + + +  +&  ++&  +$ + &+++++&+   &  >& +&+,+++ + &> 1+ +&  &  &>> &: :+&&>>,+++ #=6+%#==<=--&+%%$&&+r++5-:>&& >+++++>+ &,&>&",
" & && +&   & >+&   ++,+&,>+++ ++&&&,+++& >+++&>  +&&+,& +&+ +++>>>:$: +>>&,>wX+ &+ +$&=%& ==-<=@ $+&2+ +2&+==#$:=#% && r2+ &,>&&",
"&&&+     >&&&  >+>  & 2 ,> &       &1&&& + + && &&&&>,+ +  &&& >&&$#++  >X,>11+ +& & #=# &%##%+#-;#%& $ 2 +-=-&---<%,&+2   &w> 1",
"&&   2>   & &+& &&&> +++,,&   &&&++ && ++ , +  w,&>&1X 22  1&&  &+$$ +& >&X>>+++&& &:#-#  2+ + %#--#%+%$++ ---% #<#$ &+&&&+&&X&&",
"& &   &> &>++ &+&,>>&&& > &   >&&2&++++2 + +%%:>,,>&X.  + &&&& &&+&  +  >>X+ +  &&&1&+%<&+++ +&++$&5#$%2&++#-=$&$+ :1,&>++++ & &",
"& &  & & &>    +,1,+ &&&>+& > & &++ + +&2r %##$>>,> ,X>,&++  &   +    ++,&X 2+& && &&&+$&+++&$$&2&2+: +&++ %-<$&22&:&X>& & ++&  ",
"&&& &&   >>     >&> & + &+  & >,&+ &  +& 2 $#% >>,>+&&>,> ++ +   ++ & + &1w     & >   :%++&& = +2++  &,&  & $* & +& >& : ++&& + ",
"X,,  1&&& ,1 & >1 &&&+  &&++&&X>>ww& + &  ++&2 >,&,&> ,>,>& &  &&+& +& &&+ > &+ ,&  && :2&&> +>> & >>>,>&,& &::>&& +& &$5++ & + ",
"1>>1&1>&& ,&  & &&&>    &>  &>,XXw,+ > w & &+&+&1&&w& ,&>>>&>& &&   +&&& + &&& +&  &,,,&&w  ,,&X>w,>,X&X&++& ,&wX,+ &,,:5$+&&&&1",
".&,& &>&>>X   &   &>    &  &1X&&X& + > & +&  +++&  &  &&X&>X>&+ &+ &+  , &  &&& & &&& >>w& + &  >>>&>X ,+2+ &+&,X&+&&X,  2&&&>&w",
".> + 1&&X 1++    +&1+  &>>  +w&& >&+  +   >1+&     ++&>&X&X& + &>  ++ +&&+&& >&    &+& ,w>> &1 ++ >>XX &  &> &   +++ >w&> 1   >,",
">> + &&&>+2&& &&& &     &>     &+ >   +   >> & &  >++&  &&>  + & +&  +2+>&>>w& &  & :%:&>> +:& >++ >&> &&&>&+2$##$&r+1  &    + &",
">&:  &+&&     && >+    &&>+ +++        + & > &   +&>& ++  +&1    +&& ++>&&>&>+&  &+  $$  1+++  &  +&+& + &  ++$;;+$ 2+++++:  ++&",
">>& & + &     &>+>++&&&>>,+&    &+    + +  >     + >&1 +&&+& &&  &  & + >&>&&+&&+> + +2 &&+ &+  > +   $ &>&  + #;;#++&+++&:  && ",
">&  &  &,     & & ++&1>.>. & +++,++ $%:> +&>&+ &  +>&>>  >+  &+ , ++&>>X>&&>,++ && ++ +&+&+ &++ > $+<#- , &  ++$+##% >X +&++& &&",
"&+& &  ,>   +& & &&&>X&.>>>1 ++ &+  %%:X& w >&&& +&>>X&+>w>,  >,&>&  1&1  &&   ,&>>&  +&+ +&+++ &+$#;;%, +& & +2 $$++X>,>> &  X>",
" +      >>&>  && & & > >>>>>>  +w&> + +&  11>>>&  1  >&&>>>> &>>>>+ &   && >&& & 1&> &::+ +  +++&  %#%+  :   &    1+ >>&>1&>  X>",
"+   &+  &>&>1, &+1&&&& >>X>>>1&&X>>>,&&   >&>1>>  >&& >>>>&>,,>X,> &  & &,+>>, &    ,,&&  ++ &++1  +%+ $$=&+    +,&&++& && 1  >X",
"1 ,  +, >>>>& +&+& &  , ,&&>>. &1>>>& $+++,  ,& >+&& ,&&>1&& 1 X>>>>>&> ,, & + & 1,&  .>, + +&++ +&+++++$+, + ++&+  +++&,&&& 1>.",
"&  ,&:&&.1,> , &   &  ,,X&,1>.+ X>> 2-$&++ ++& &++ >&  1>>  &  ,&&>1X&>>.1,&+& ,,>&+++>.. + +, +>,&  %%+%: + +2&+$+&+rr&,,=+&&&1",
"X&   & + w&>X>>&> &   +,> &>.> &.  +& 2++ &++  ,    & &>>>     &>  &>>&>>.&++++ 1+ +&>&>>& +1> &X&& &%#+$ &+ 22+$< +&rr&&&: + >>",
".>>&,>+++&  1&,>.&&&  + >,>,.  >& +     + ,+  +,>&1 &&& &&,> +,,.&  ,> >>1 +    >& &>> +&  +.>>1  +&&:$++ &+  +2 $&+  ++&  ,&+>>",
"1.&,X>&:&,+ &1  >1,, &  >X>,. +> ,,1    &+,+ + &.,. &&& ,     >>1.   &&>>. ,,1+ & +>>.+  &: >>&1 +& +,+  +>+++++,+&&,  +& +++&>>",
".1&1.& +X>>1X>1&>,,,1, ,..,,.  ,& &1& && +& &+&&.X1,1&& >&&&>1>>.>+,XXX,.>&>>>& &>&1..&&,&+ 1,&>  +&&+,   >+ +, &   &&&+> & &,>,",
"..,>1 + .>>1&,>>.& +1 &>>.>>>  >  &>+  && & + & >,> &+&+,&+&>>,&>&+&X1>,1&&>, & .>>>.1  +>+ >  &,+ &+ +&&+ +++&  ++ & & >1&&& ,&",
"&&>  ,&&,& & ,,.>w   .,.,1 >>&,  &&  ,&11&++ ,>&,& , & +&  & & ,>&& >1>>& &X1,&,1X,>..&& & >.+&++++++, ,&&+2$++&,,,,,>>&1,&1&& ,",
"&1w1>>w>,1& ,,&11,&,,XX. , >.&>&  & &&>&&+&+ ,>&w,+&&&&,& & &&&,,ww&>w.> 1&,,,  &,,>X.X& &,X. ,++++&+ ,+ +,+ - +&,>1&&&>,+ + ,>>",
"1>11.1>>,X.>.1>&,&&& ,Xw,11 1&.1&&&&>,1+ +&  +&&,& &&& ,,&1,&&&&,111.1>,&&w>.>&&  +111.&+&1&.&1&+6++++,+ +,+++&++&>1  +,,+ ++ >>",
"&&>>>>>,1>.>1&X& & 1  &.>>> > >.,>>w,&&&  >&&+ , ++ ,&+&>>>1+ + &&11..1,& >>>,>& &+>>>w>++1 X,>1:%+,++& ,, + +   & & ++&, +&+ &,",
" +1,1&>&>&>1,>.,,&w&& &1>>,  +1>,&w&  ,&,&>>> ,,,> &,&&..>>& + && .X.11&, &w&&.>> 1&&&1,  ,, ,1>+$ +++,+    ++++&&&,&++,,& &&+ &",
" ,>,111,>&w&,,1X1>,1 +&>,,,,  ,X,&&&  , &&,,&1&>&.&>,>&1,>&&,&&  ,1>..1,,&,,&,11>,,1&&1,&&&&&,&1+=++++,+ +& ,&++=,&1  +,+&++, ,,",
",&& +X.1&  &++ >>.>.1&>.1,&1&1&&&&&,  , &&>,&1,,,,,>11 &,1>&,1& ,>w>,..1w,&1&,&,,.>.1&,1,1 ,+&+   ++++,++ ,  &++ &&,+   +&+=  &,",
",,&X,.>1 1,,&+,11>>.111., &,,11& &,&&&&&&&,,,,,,w,>1>,  >.,>>1&,,.11&.11>X,,,&111>,.>>&,,,,,&,,&+++ +&++& &+    &  &+&&+ ,+++ &&",
"w.11,1>X,>1&+ ,&1>>1.11w.>,&&..>& +&,  +&&,&1&,,>>,.,.&&>1,1,w,>X.&, .1.1>>,,,,,1,&>w, >11.1,..,+- +&*++   ,1&&+  +,+>&++&+++ , ",
"o1>1>>,,&..,>>1,11>Xo1>w>> ,&.w.&& +&&,&&>&1> w,>>111.,,&>&>>.,1>>,1>11w>1.,>>>>>1,X>& >>.1.>.w,+- + +&++ +&1&,=& &,& +++&++   ,",
".>&&&> ,>1..1..11>>,.>1.&,1>,>w.>>>+&+, &,&w& 1,>>>1,1>1 >>,w,&,,&>..1>w,,>1,1.11ww1> &>&.ow1>1,++ + +,++ +,, &+ +,1,++ +  +&  &",
"X& & >&>w>>1&1,1..,, &,111..&w1.,,,&&+,,&& ,+& &,,1>>>,>&,,>1&&1w,>1,>&1X>,>&111..w> +&& w..&1>>++,  +,&+++& & ++,.>>&&+++&+& +&",
".1&, >  >1,>& >1>.,,w &>>..>,&,1&11,,&&1&&&&&+ &  >>w1>,,,>>1>,>w,,>&1>>1w 1,,>>>.1&> ,&&1ow1,1>+&&+& ,1++++& >  &.>11>+  >+& +&",
",,+>.>+>>  &11>>1,>,>,,>>>111+&&&,>&11>.&&&&& ,+,&,w,&1,1>>>>.&& >&&111.>> 11.>w.,>,.w>&,,o..,.>    &, 1+ +=  .&1  >w>1+ +&  &, ",
"+  ,>&&,>  &1.& &>>>11>1>w>&> ,1 && &w>., &&&&&&>>,&,11>.&  && & & &>>>..>,>1.>>111 11>&,w...>.w    +, ,      1w&&++ >, &>   >  ",
"   ,&&&& , &>>>&1&&&1>>>,,>>.&&& >&,,>,,1>&& >&&,>,&&&&&,  >&,,>&&&>&>&>,1,,11.>.1>&.1> &,1>.&> ,&    + > & =&>, ++  +++>&&  >& ",
">&&>&>>1>&>&w> ,1  , 1&>>,>,>+>,&& ,>,,>1,   &&1>.      >>>,&&1>1,,>&,>>&>1&1.>1.,,.>.  +>111 >  &&,&+++  &  &,,+>    ,+& &+++> ",
" ,&,>&>1w&1 >1>>>& 1&>> >.1&> w>>  &1>>>>1>  1>>>& + > &>.1&  1>,w1>1&>,>&.>1.X11>>.1.>+ .X1.&1  && >    &>  >&&&&  >> , , && ,&",
">&>1> &>o>1 >ww> > 1&,w .w&>111ww& &X1>>>.>&>ww,  ,&&   &w,.,>&&&w>.>  ,.>.>1.1.>.>.>>1 >w1o.>11,  &&&   >>+,>>> &&  > & & w>>11",
".,.w&+,,>1>111&w+w>X1>1&,w,w>1&>,w&>&w ,1.>>>.o>+,111 &&,.,>>>&1.,11& >&1w>11.1.,.w.w1&1>.1w>1>X & &&>+ ,>& &&11,> &=+  &w 1>>,X",
"11.>&&>&>.,1,,>> ,&&>&&>1.Xw1>,& >&>&>&&1>,&11w,& w11& ,>1& >>1>>,,> &,,1.>11>.w>1>,w> ,>.11&>11&>   &> &,& >&,>&>1,   &&w >>>> ",
"Xw1>1>>&,1&1>&&X&&>&&  &>>.w1>>,> &>>>&&&1&,>Xw> >1&&>X>&& &>>,&1>& &&>&>.X1w>1.1>1&&  1.w1> >>1.>&&  &  ,&&&>>& &>> &&    &>&&&",
".w1.1>  &.&w,&,.1&1&&&&>&11X11  &, &11&&&.&&X1w1w1  &,.1&   >& &>1 > >& ,1,,1w1.w&.  &&1w.,>&1&1w1& &&  &>  w>>&,&  > ,   &>>&&&",
"w1>> >&& 1>&, 1.1&>>,&,&,,1111,,X&&,1>,,&1.1>.>1,> ,> >>1&& &  >>&&X >& &11>1>111&>>&&&1..>>&11X.1>&> && ,,&,1&    ,,&&&&&1&>&&w",
"o1>>>>,>>&>,1&.1,,&>> >&..1&&>>&w>&X1>>> ,11.w.1&1>>.   >>>  &,,>&>w&&& .>1>1&111>&,, X1.1>,&1>X.1,>& >, >>>>&,  &  >1>& &>&&>&1",
"o>1>,1>,w>,&o>w>,,,1w&,>o11&&>,&>,>1>w>&>,w>o>,>&w,>ow,>,&> &>&>1>>,X1>>ow>&1 X>>,,&>&11o>>>,>&&o1w> ,,,,>.,>,&&&>,>o., &&X  ,,1",
"X>1 ,,,>,&,wX,>&&,> ww>,>,>> >&&,w.1w11 >,1>>& >& 111www& &&&>>ww>&&1>>w>,&1w,>&&,> ,>111>,,,,& ww.1>,>&o>X ,& &&&11>,  >>.  >>>",
"o..>&&>>,1w1> ,&,&1>11>&&&&, w1Xww1o>>> >&,,>  &>&,>>>,& &>,&,1oo.>>&>1w&&&ww&>&&&w>&1>1> >w,>&>111o> &&.>w,>     ,w>   >>1& &ww",
"w1w,& >>1>o>> ,&&,11.1,,11,>>1wo..,.>>, &&,, &&,&X>,>>,,&>>   ooXw,,>>>,&&>>> ,,,>>>>111X,>w,X>X1.>.>&, X>>>   & >>,1   &>w&  ww",
"o11&1&.>w,>,>>&,w,1111,,&&,1Xw>o,>,>,& &&,,,,,,&&X&,,>,,,>,&  >oo,>,X>w,&,1,&,>,X>1,&>>w,>,>,>,>,,1>> &&&>>> ,>  > ,,&  ,>>&& ,>",
"w,w&&w1ww1>>>& &>,1&,,,, ,,1w>>> >>,,&&,&,,,,&, >,,,&w1>>>>   www .1>>>,>,,,, &&w>w &,1>&>,,,>w>,ww>w&&& >,>,,, ,,,&&>&&>>w&& ,>"
};
