/* XPM */
static char *FIREWALA[] = {
/* columns rows colors chars-per-pixel */
"128 112 27 1 ",
"  c #BF0000",
". c black",
"X c #170F07",
"o c #A70000",
"O c #B30000",
"+ c #CB0000",
"@ c #8B0000",
"# c #9B0000",
"$ c #7F0000",
"% c #EF0000",
"& c #730000",
"* c #D70000",
"= c #E30000",
"- c #5B0000",
"; c #4F0000",
": c red",
"> c #670000",
", c #430000",
"< c #FF1F1F",
"1 c #5B0707",
"2 c #470000",
"3 c #5F0707",
"4 c #7F1B1B",
"5 c #530707",
"6 c #731313",
"7 c #670B0B",
"8 c #FF3F3F",
/* pixels */
" O          OOO+ #@#$11,,,>&&# ooOO      oO#@@#@@&$$$&$$@@@@#o o    #Ooo#@@+ o@>>&$o@@@#oOOo@@@@@#@$$$@###@oo@&>##@oo@&>&$$$@oo#",
"o#  +++++OOOOOO+ O#o$>1,,,>&#+ OOO#+ OOOo#Oo@@@$$->>>&&&&&&>&@o##OOo####@-&#Oo@&$@@ooO444== oo####@$$$$$####@44$####@444>&$$##oo",
" O      ++  OOO+ #@##>1,,,>&+* ooOO      oO#@@#@@&$$$&$$@@@@#o o    #Ooo#@@+ o@>>&$o@@@#oOOo@@@@@#@$$$@###@oo@&$##@oo@&>&$$$@oo#",
"+o++oOooO  O O + o#o#$1,;>$$   ooO*     OoO#@@#@@&@@@@@#oo#@#oOOO **oO oo##++@&$$&&@$&&$@##@$@$$@##@@@@####oo#&$###oo#&>>>$$@oo#",
"OOOO#@@@oO    +++ Oo#$>;;$$#     O   OO Ooo#@###$$@o###ooo#@#oOoO ==  Oo oo Oo&@##@$&&>&$@@@@$$&$oo#$$#oo#ooo#$$##ooo#$>->&$@oo#",
" O o@&&$oOoO +*+++O@@$>1;$#  OO  ooooooOoo####o#$&#ooooooo@@#O OoO++  O  o#OO#$&@@$$&&&&$$$$&&&&$#o#$@#o#oo#@@$$#oo#@@$>>&$@@$##",
"O#O#$&&@##@@# +++ Oo@$>1;>#OoOO OoOoooooo##oooOo>&#ooOooo#@@o + ooO  O++ O#o#$$&&&&&&&&$$$&&&&&&$@#@$@###oo#$$$$#oo#$$$>>&$@@$#O",
"#O#@$&$@@@$&&O   #oo#$>>1,##oo  OoOOO#####o#@$o#$$oOOOoOo#@@o + o#oo O+   o#O#$;>>>>>&$$$$&$ &$>&@@@$$###oO@$$$@#oO@$$$&>&@@$@#O",
"#O#$&&$@$&$@&O+  O#O#>>>1;###o  ooOoo#@####o$&oo@@o  OoOoo@#o   o#o  +O   oo #$--->>>&$@@$&&$$@>>@$7&$@#ooO@&@###oO@&@#@$&@@@##O",
"$#$&&&@@$1@$$o+  OOo#>>&3;@@#o  o##oo####oo#$&@@##o   OOo#@#oO O##Oo O    oooo&>-->>>&@@@$&>&$@&&&&>>$##ooo&&#o##oo&&#o#@>>&@o#o",
"#o#$&&#o$&@$$# +  O##&&$>;>#o  Oo##@#####o##@&$$#oO++++ Oo##o  #@ooooO    Oo#@&>---->&@##@&&$@@$$$>>>$@#oo#@@o ##o#@@o @#>>&#ooo",
"@#@&&&#o$@#@$@ +   @$>$$>;-oO   O##@@####o@@$&$$$o +*++*OoooO O###o###O++  @#@&>---->&@###@@##@@$$5>&&$#o##@@oOo###@@oO##&>&@@@@",
"#O#$>&@#@@#@$@OO + @$>&$&1-@#O *O#@$$@#@oo#$$&&@@o+== + oOOoOOoO@#o##oo**+Oo#@&>--->>&@#oOooOO@$&$>>&$@#o##@#O O###@#O O@$>&$@@>",
"$@$&>&@#####&&#o OO@$&&$$$&#o  * #@$$@@@##@$&&>$$#+=*  +   oOo##@#####o *+o@#$&>>>>>&$@#ooooO+#@@&>>&$@oo###oO+ o###oO++ #$>$$@&",
"$O$&$>oooo##&&$&###@&&&$$$@@#  +O##@@@$$$$#@@$>$$#+=*   +  OO########@# + o##$&&&&>>&$@#o##O *##$>>-&$@oo##@o + o##@o ++ @$&$@$$",
"-&-&$>ooOOo#$&&&$$@@&>&$@$#&@oo O#o#@@@@##@#@$>&$#+==+ ++  o@@@@####@@#O+ #@$$$$$$&&&$@oo##+O o@&31&$$@oo#@@o + o#@@o + Oo$&&@$$",
"-O-->#OOo*+#@&>&$$@@&>&$@@#&@oo ooo@@@@###@@@$>&@#*==++++Oo$$@@$$@@#@##O*+@@$$$@@@$&&$@  Oo= + @@->>$$@###@@o * ##@@o * o @$$$&&",
"-o-;>o O + o@$&>$@@@&>&$@@@@#OoooOO#@@@$@@@#@$&$@#===*+*+Oo&$@@@@@##o#o =+@@#$>###@&>$oOo  *+  o#&--&$$##@$$o+* #@$$o+* o #@&>>&",
">@>-&o+O+   #$-&&@@@&>&@@$@@@Ooo#Oo@@@$$$@###&&$oo==**+*+Oo$@@@@@#oOOoO =*@#o@&oO#@>$$#*   ++  #O@>->$$@#@$$o++ #@$$o+++o% @$->&",
"&$&-&o+ +   o$>$&@#@&>&@@&@ooOoOo##@$$>>$$o #$>$Oo==****+o#$&$@##O +++O ==oo@$#o O&$$@ =    =+ #o@&&>$&@@$&>O++ #$&>O+++o% #$>-&",
"$>$&$O***+  o#>@$@@@$&$@#&@OO  o##@@$$>>&@o+o@-$OO==****+O#&&&$@#O+=+++*=<oo@@#o O&@$@+=* *+=++# o&>>$&@@$>&O + #$>&O ++o=O#@&>$",
"@;@&$ ** ++Oo@&o@@##$&$#o@@ *O+ O##@@$>&$@#* #&@+ *%=*=**O$>&&$$@O *+***<=@ o##O+ $@$@+=*%=+==+o #$>&$&@@$>@O + #$>@O ++o= @$&-@",
"$;$&#**= +*oo@@o$$#o$>&#o@@O +++Oo#@@$&&$@O+=#&# O*%===**O&>>$@$$#OO+**=<=@@o#@O+ $$&#%%*=+ +*o O#&>&&&$@$>#O + #$>#O ++o= o$$&$",
"$>$&#***O*% O##@$@oO$>&#O#$o +**+O#o@$$$@#O*=O$O+#*===*+*o&--$$>&$@o ++*= @$O## = @&$#%%*+ #  o O@&>>>&&@$>@O + #$>@O ++o= O@@$&",
"$&$&#***O*=+OO@@@o O$>$#Oo  ***   Oo@@@@@#++*=@O*oO==+O *o&;;>$>->$#oOO++o$#### = @$$#%**  +##+ +@&>-;--@$$@O + #$$@O ++o+* @@@$",
"$#$&#***+ ** O@@##O+$>&#  +=***    o#@$@#o*  *@**O ++O# +o$>;>&>>&$@#@o O#$@o#o+**o@@#%****+#O+ =#&&-;;-#@$@O + #@$@O ++ +* ##@$",
"$+$&O***=**=+ @++o+ $>&#  ***  +   o#o#$@o*  +@=*  + O@o+o$&;2$&&&$@#@@@#$$@o#o+**o@$#%**  +#O+o=#$&-;2&@$&OO + #$&OO ++  * #o#$",
"$+$&O***==**   *  +O&&&#O **=**    O O&$O ** +#+*  Oo@#o+o#$>5$>$@##@@$$&$$@#ooO== #@O%:*oo+   **#$&-22&@$>OO + #$>OO ++  *O# #@",
"$o$$+***+**+  **+  o&&&#o +=%*+ + OoO+##O +=++*O* ++O+oo+o#$&3$&$@#oo$$&&$$@#ooo+% oO*=:*O +   = #&>-;>>&&&oo +O@&&oo ++  +ooOo@",
"$@$$+***++++*O*+++ #;&&$o+*%=+*** oO++@oO++%*+*+*++  ++O+O##o&#@@@oOo#$&&@&@@#o# %+oO*%=:* ++*o=+#&>>;>>>-@oo  O$-@oo  ** +oO O#",
">$>$**** +=+*   ++ @;&&$ +*%* ==+**O *##Oo %*++* o+ +*++ O@oO@oo@@OOO@@&&@#@#@#o = O@+*=*:+++*o*+O#&>;;->;o o+ O&;o o+ **  o OOO",
"&-&@**=+o+=*+  + O+&;&&$  *==*=%+ *  *O#O  =*O+ +o#o ++* o@@oO o@#oOo@@&>-@O#@@@*=* # +*=%=*+* %++ $>;;;;;O o+*O&;O o+*=*  o OOO",
"&-&$**=+++*** o oo@>;&&$OO+**=%=+ +  *+oOo =+O+%#oOo# oooOo@@O+O##OO@&$>>&>#O@$#=  +oo  =%=*+* +++=@>;;2;;Oo **O&;Oo **=* O OOOO",
"$>$$ *% **===*#o@@$>1&&&o +* +%== ++ **o o#O= +%oO+oO ##O O#@**o#o  @&$&&$&#+@$o=Oo*ooo =%=*+   *+%@>;22;5oo **o&5oo **++ O  OOO",
"$>$$o*=**=*==*  O@$11&&&o***=**%*+*+ +*o #@#=+**+OO + OOO  Oo**oo ++O#@@##$O*o$o=OO*oo ==%%    =*+:@>;;22> o+=*o&> o+=*++o++ OOo",
"$>$$O*====*=**  OO$->>&$@==*==*+**++ *=o ##$#+O%*O *+*++  OoO**o# **+OooO##+=o$#*+ * OO%*%%OO *%==:$;;;22&O@+= #&&O@+= ++o+  O o",
">$>$O**====***+*+ &;1>&$@==+==*+++ ++*=OO#@>3+ %% +*****  o**%= OO**+ Oo oo*= $$=* *+ #*==* o =*%%+>-;5>5$O#== #&$O#== ++ + OO #",
">$>1o*==*==**** o@3>>>>$@===%==*=*+++==oo#@>->O%=O***===* O*===+O ***  O oo+=O# O O+  o*%+O #o =%<#>-5>>5@#o%=*o$@#o%=***  OO  #",
"$@$> =***==***=O@@$@$>>$@+*=====*++++** o#&&;& **O++*= ==+O*=+=*O *=*O  Ooo = $O oO**O+%= o oo+=<*>>>->>>O@+%**O@O@+%***+ O   Oo",
"$@$@ =* =**==+=O@@$##5&@oO%=====**=**+* oo31>@%* O=++**=%= *=*** +==+OOO +##*%>> oO*=O%%%= O O*%+$>>;->&&O@+%++O#O@+%++*+*oo+++#",
"@$@o *+o=====** @&>O@5&@o %==*=%===*++ O+O31>@%*O**O*** %* ***=+  == oO O o#**&&oO+=*O=%== # +%%+>&--->@$#&*%*+ ##&*%*+*+* o+*+o",
"#@## *O*==+==** $>$*@1>## %==*=+*+***+oO+O-;&O%= *O **+o== **=%  +=*OooOOoO *=3&#o **  =*+o o%%%+>->>>>&#@>+=%=+#@>+=%==*   +++o",
"@@@# =*=+**==** @&@ o3>###%%=%* +****=+O*o-;&O%=O++ **+ == +*=%OO*=**O#O OOO**>>@#O+**+** +* =%%O>-->>3$@#> +%%+@#> +%%%+   ++ o",
"o$oo ===*** +=* #@@##&>@##O=%%* *==**+O#+#>->O==    *+*+%+o*=*=  +=*+ #** OO**&3&@O #+ *=**%===<o&->>33$@@## *%+@@## *%*    ++O#",
" $ + == **=**== oo@@#@3>@@#+%%*+ *=*=o#o*@>->O== o*==*=*%+o*=*=*  =** O=%+#O*+$->@o #+* ==*:=*=<o&->13&#@@#oo*=+@@#oo*=* +++++o#",
"*@** = ***=**=%=+O#@oo11$&@*%=*++*=+% #$O@>-&+== o*==*O%<*o*= *= O*=*oO+%*@O*O@>&@oO#O% ** <=%=< >->11&##@#oo==+#@#oo==* O+*  O#",
"*@**+ O+=====*=== oo@$11&$$O==** +*%%O#$$&>-&+***+**=+ ==+*=*OO=++***oo+  o+ Oo&&@#oo+=+:++:==*< >->1;&oo###O==+o###O==++ ++O +o",
"*** *= + *==%=*=*O o@$3&$$$#O**==+*%=+O$&&>&@ * *O**==+O %=*o**+***++o +  O Ooo$$@#Oo+=*%**<= +%+&->>-> Oo#@ ***Oo#@ **=*o+ O  O",
"***o === ==%===% O+ ##&$@&>oO**   **O=*@$@&$@@+*=Oo+= Oo+=+#O%=+  * o#O** o o#$$$@#oo=  =%<=%O %+&->>3& +OO# +**+OO# +**= ++O  #",
"***O@==+O*===*=% +**##$#@&># *++O ==O=%o@@$@@&O== +==* o+=*O*%%+ *=+oo +=+o O@&$@@##O*O *<<+%O =+&->&&&O=Oo# ***=Oo# ***++*++ O#",
"***Oo* +O ***=%%***=#@$@$&&o++** +*=+%*&$#@$@>@= o++*=* +%* *%%+ *%*O + *+#O @$$@####+ O=<=o+# =+&->&$$ *+oO + +*+oO +   ++++++#",
"OOOoO* OOO*%*%==**+ #@@@$&$  +=* +***= &@#@$@&$**@+=****=%o =%==  <*O+O =*@ O@#@####@ + *8=O++ ==&>>&$$+=*   %**=*   %*+*+++++ #",
"oOo#+*++OO=%=%***+OO@#Oooo# **%*+*=*=+O@$@@@#O>#*o+%=**==*o*%%*%+ = O o+%=#O#@O#Oo#@#O++++* o O*%#$&@@$ *** +%***** +%*** +++ +#",
"o*oO**=*  %%*=****  #@*+oO +==%=*=*=*oOo@#### $>Oo+%* *%=*+=%@o=*+ O* #*:*oO##Oo O@$#O+*+++  +O % @@@#>#=*=  %=*=*=  %=**O++   o",
"+++O*==* *%%=+%* ++ #O*+@ +*==*=%+**O#oO@@oo#O#@@@+%*    ==%%@o=%*++  +%%=o#oooO+ $&O+O* o O**O %=#$##&$=*+ #*%*=*+ #*%+* +Oo   ",
"+*+O*==* =%<=+%*+*+ o+*oO *+==*==+++##OO@$@ooO@@o#O== ++o==%=#O=%==    %=+oo O# *O&&O+ = o *=*  =%O@@o$@*** @O=**** @O= =+ O + O",
"++++*=*  *===o*=**++ *+o  %===+<*o*=O#O $$#Ooo@@o@ %%**+ ===+  *===*+ +%%o@*+o@=*@>$o* <**o=o   %<O$@@$#==*O@+**==*O@+*++    + O",
"*+*+**=  +=== *=*++=**+OO %==* =====+#O#@$#Ooo##@@+==*==*=%+ ****%===++%*$@ *O *O&>@o**<**#+** *%< $#o@ ==*O =O ==*O =O  OO+ +*O",
"*+**==* +**== ***+ +***  =+O==***%%=+Oo O#oo#o #$ *=*+%*+%=** *===%* =*=+ *@+%O @&$# ++%=%@o%++**% @o oo=*+o*=#O=*+o*=#O+*+Oo+* ",
"***=**++ ++%=++==+*=+**  + O*=***=%**OO*OO+O#  o$O=%*=%*O+**=O+=+*= #=% *=+@** $&$# + ==%:o#<%O **@@O oO=*O#*= o=*O#*= o*=+Oo**O",
"*O*=*+*   *= %=====+ =**+OO   ==*==++O+* o+Oo+ o$ ==O ==#@ ==++*++ OO* o**Oo+*+$&#O+ +%*%% *::= =o&# oo ==oO **@==oO **@ =O O* o",
"=*==  =# +==+=%=*==o ==*+OO*= *=*==o O==+O*OO +O@ =% # *  +%=* O =* o   =+#@*=*$$  +*%<+:**=:=%=* $# oo*+=oOo+%#+=oOo+%#o% O*+ o",
"*+**  %O***=**%*+**+ *==+oo+= *%=%=O+**%+ =OO+=+# =<%*+==*+== Oo =%=++=%=+@O== @@++*%<*=:* *%=++=*@#+Oo+=% O#*% =% O#*% O% O=   ",
"*O***O%+***%=  # +*=  **+o  =%++== +=  =+*   +%*o+==<**%* O==#O*  *%%**%  O*%%#$# ***O =%*OO*o %+ o@ O# ===O$%%%===O$%%%+%*o O  ",
"+*+** + ==+==oo# ***+**** *O+%==%**%%=O*%==****+o+==+ *:*##:%*==*o*%:*+*+ O*==@$#+==##o%%+#O=Oo*O*O#Ooo+=+%o#%:%=+%o#%:%*==     ",
"+++*==O =+O==#Oo+*==+***+O o ==%===:= @*%%%**  Oo=:=O+=:+o#*:%*:*# =%*= *%=*+ @$#=%= @@%* O*:O  O+## oo=% =@O%%%% =@O%%% +   O +",
"*+*==%@O*+ ==    *%=+*=*O**oo==%=*%== o+=%%*+Oo  =%=***=+O$#:%%%O@ * *%  *+==o$&#=:=+ O*%+*=+$*oO*o@ O+=%=O@O+ %%=O@O+ %O+o OOO ",
"* *===o+O+O=%****+=%===Oo**o@*%=*+*=*OO *%%*+O#  *%= +++=O@#%%== o+*O = + #++#$&#*:%*O=*+**%*@=@ =+@#O*%%%##O+ *%%##O+ *  O #   ",
"**** =oo# +===*=*+=%%==oo=+o#O%%+*:=*+ *%:%=+#@ *=:*    =%+@+%* O%=+  *+*: + @&&#=:%* =  *%=%O O*=% @O*%%=O oo* %=O oo* OO +@ +O",
"=*=* == o+=**:*=*=====*O = O o====:=**=*%::=*@$ %%:%*****%%O+= O %%+ +%O+:%= @$@O::=*+% O+%+=o>* ==+oo++%=++o@O %=++o@O %#+O#++O",
"====O*=+o+=**:=**==%==*=%+o#%*o%==%%+=%%%%:%=@$ =::==*=:%*%+O%=* **==* OO::* @$o*:%**++o +%+  $% O%+O#o*=* ++#O =* ++#O %*+OO* O",
"*=**=** o+%+ %=+*=%:%**%= o#* #%**%%=**%%::%+@$O=:%=+  =:%==%**=*O+%:+ooO:% O#@o=%:%%**++** #+#*oO= oo *+ *++#O++ *++#O+%*+O  O ",
" = *=*O+o+%=+*=O+%:: O*%=# oo&O:++%%=* +%%:+o#&o=%*++++=:*O++#O=%o :=o #+%%o#@#o+%* +*:+*** O*o#O=+## **+++O%#o%+++O%#o%*O   O +",
"+=+*%*O+oO%=+*:+#+=%OO+% #o+O$@=*+%+*+  %% # #$@*%*+%* ** =+O@O+% O%+*=%%% #@@#oOO**=+=+***OO*O *+#oO ***+oO%#%**+oO%#%**O++O# =",
"=*==%==*oO%=+*%=oo==*O :%o + o@==+%*==**=* *# $@+%=*++  %*=+o@OO=**+O O%% o#$@#OO**%%* O***Oo*O*+o##o ***+oO+#%**+oO+#%**** Oo++",
"*%*=O*=*# ==++%=* %=*oo::@ ++o#%=*%  +*++ **#+$$ %=*+++%%%:*+*+* O=+ =*%% oo$@#Oo*% +*OO* %*o* *+O@$## **+o++#***+o++#**%% O@#+O",
"***  *%%= =*+=*=%**=%==::o  =*o%==% %+=++*=+ *#&O%%=+*=*%++OO#*  +==+ =%:*Oo#@OoO ** +O## %*=o#**O#@###**+o+ =+**+o+ =+*** @$ *o",
"***  %===O**+= =%%**oo=:%O++=**+*%%*  +++:%o =#$o=%=**==*=* OOOO +*% O*:%=Oo##O*% :* +o##O=:==o**+ Oo#o:**o==*+***o==*+**=O$@O+O",
"***  *==oO* o=O*%%*+=*=:=O++==% +%%=+% *+::   #$O*=*= +=++%   *OOO%%**%:=+#o#OO*%%* + +O#o#%*%= %+=* @o%*++**%*O*++**%*O*=O$$o *",
"****%=%%o = o=o+=%*%%:=: %O  +=++=%++   O%:%% o#**++= +=+ *%O OOO%<**%::%#oo#OO%**O***+ OOO@ *%==%== $@** ++**%%* ++**%%** O@o*=",
"    %%% :% @O@O=*%%=+%::+=  +== o %%+ %  %* %  + *++:@O+=%=* O O %< %%:%=@#  %*+OOoo++   Oo@  %%=%=: >&o*O* +%%%*O* +%%%**O@o@=:",
" O %%%%  + #$@=%+%%* =:+=%%o ==O$@%%=++=  o=%* = =++Oooo+%*** OO << :::%%$#OO+= o&O:++ OOOO# &%%==* @@>;OO=O#O%%OO=O#O%%=  $+o++",
"   %%%*  O=O@+%*% +  %::==%%::=o;@:%:  o= O*%* =o %+oOo#o%%% OO O<: :::% &+## = o*oo%%OOoo   -%%< + O@#-&o%*O#%%&o%*O#%%=* o O =",
"***%%%O = := + %=: oO=::==%=:%=$,-@:==   + ***   O:+o  $o+o&&O * %  o*%*;O%$@O= &* o*%%Oo OO@$%:< + @@#$,o%=+#*%,o%=+#*%%=*O# O+",
"****:*& o+:   *%==O@#O+==  =:: @@--&:%= =++*****  %:  O@  @$&$ **o$>&o% > =>$#% O% &*%% o O@&O<<+@ O@@O@-o*% @#*-o*% @#*%=*O# O ",
"****%&;>-+::+O*::##@#O+*  * :%=O o$;$:%+=O OO*&OOO :===O O@$&&o*=O@-;&%%- %,>$#$& && *  +O@&&+<<: +o#@### %%*O@o# %%*O@o*** @ +O",
"%*%%%@&o@+%%= :::O +  *=*   %%:::: ;; :=+O* *O&&&& %  +oOO#@$$o=%=O-;@%%& =--$&;-O &O O*=o@@- <<%%: O@##&==O*+OO&==O*+OO ***$$ =",
"%*%% &O $$%%==:%=*:%O@=%% O**=%%:%:@;;O:=+ %% oO += Oo@oO#O#$&$=%: $,$% -+=&$@@@@  oOO   @o@$O<< % + @@#&=:#*+OO&=:#*+OO# ** @O ",
"%%%% O  *%*O *  %%O O%%***%%%*  $o:%,,,=:=O   %% = oOo$$@O#@#$$ :%:@,-+@$o+O#+==::=o$  oO$$@&@<< **O@#O#@=:@& O*@=:@& O*O&$  O  ",
"%%%%%%*O % && %  %%o %%*O*%***%=oo:+$,,, %O$&O OOo>-$OO#$@#O#&$o=%=$--o+  @O : o&oo$>$$&@$&$$O<< % &&###O%:+@&o#O%:+@&o#O@$$@O *",
"%%%%%%%%%% $@@ @o%*  *%*OOO**%*:=o==$$,,-=O@$&o;&o--o  O##OO##@o@o&$@;$+O#@$o@->;>$@o@oOO#@@&+< * &-$$&$+%:    #+%:    ###@$$&O*",
"@&O* ******  o--$$@&O*O****** OO==%:$O&,,$=O@oOo&o+&& +O@=%@$O@@@@o@#&;OO@$$$@oOo$-+%::=o@O@$+%  Oo@$&&$ =% OO## =% OO##@@&&&&##",
"&$&&o******%%+&$Oo&;>$&OO*O     :=:+O&22,,o:Oo$ #$+ $@  $o%%$@##@#=+O#;@ $$@&o%%:+&$ O%O-o%+-o% o*%o$O#@46&&&&4$$6&&&&4O@@&&;>$$",
"O=O@$o& %OO % ;&o  o@$-;>&ooO  :== @,2222,, Ooo$O +OO # O&+:O;#O&@%%+o,;@$@o&$o&&O$;>#O@,&% -&O O %$&$@$;;;;,,>&;;;;,,>&O o$@&$O",
":%:==O@@&&$O  Oo@O+%:%O$--$$@oO+@-,,2-$ :&,;OoO&-=%$$: @ &$ @;@o$@=%*@,,&##O@&--&-;$&@%%&;@o$>&OOO&>-$&O%$$$$$&$$$$$$$&->o==  Oo",
"%%%%%=oo O@-&o==O$$=%%:=o$$&-;;&-,-$$%%O: ,,$OO$,o%o,==$o$;;-;----@$&$&,-#O$$#O+=O&-&$%%%O@$$@o>&o@>@o$- %==::+o %==::+o-;$  :==",
"O O * @o ++O&-@ %@;@%%%%:=+@$&--,,;& %*O  -,,&++-O%*-$ @@&@$$$#O@$@@&oO,,$&&$&-@O O&;& #%%%$;*%@O:+&$@&;& O== =:O O== =:+$;>& **",
";;;>@$;&@$#=+$$#OO+@o=*%%=O@ @@o@;,$%%* O:$;,,+=$O%%O,@o@##@&$=%: := $o-,-$#O#O&;-oO-&o>;$ $;O%O %=&&&-;-;;,,;>O-;;,,;>@+@&&,&$$",
"$O$$@&$O++ += ==##:+-$Oo&&@ooOoo #&$=%**@:+;,,-o@$&*&-%O&@-,,,@O   %%+o@,+++++ o+&&O -o @&&$&&&>&$>---&&&@@$$$$$&@@$$$$$$$$$;;;;",
"O Oo@o+%%+&@O   OoOo$o @-&oO@o$&#@@-$ *O;o@,;@;&%O +&&O -o @,,,,,;>& :+@o =   *@$:o$O; % -&$@@;,;-$o$@ &o:::====::::====+ O@$-,;",
";$Oo @&&$@@$--$@@@o##oo@@+: @$&@@&&&->&&,+@,,#-,&OO=:o$O; % o@&;,,,,,&&@o@,,;,,-@X @$&o $-$oO+#o+OO@-$@--&$&&>>$-&$&&>>$oo  Oo$;",
";;$o$;-;-$oO;,,-&@OOO@$@o::=$@##O#$$-;;$,&@;,@$;->>;$ @$&o $@&&$$$&,,,-X;;;,;X,,,X-$@@-$-,&$+% @o#@-,,,,,,,,,,,,,,,,,,,,,,;&@ +$",
"$;;$@;;,,;-@$;,,;-o @-&&&o*o;&$oO#O@$&;---&-,-$,@@O-,-$@@-$-@-;,,O::o,,;;;;-,&,,,,X,;-;,,,;;&O-;--,.,,,;--&&&@@&--&&&@@&--;,,;$O",
"&-&$$-,,,,;-&-,,,;-@$-,&$$$&--;;-$###$$&@,,,,&&;$O O@&,;-;,,&-,,.,&*O,,$$,;,,;XX;;.--,,,,,$&,,,,;;,,,,,-o ++ =++o ++ =++ O@&;,,;",
";;;,--;;;,;,,,,,,,,&$-;-o@$@O &,.,;$$@O# ,,,,;,,,-@ O@--,,,,,;;,...,,;XX.X$oo#;X...o-,,,,,#OO-,,,,,,,,,,,& OO  OOO OO  O:OOO@@@@",
".,.,;-&&-,;;,,,,,.,;&-,;@o@oooO;,.,-$o#O@,,,,,,,,,,,@&o-,,,,,;;,,,...,,,XX--;>X..XX$&,,,..,#*#..,,,,,,,,,,;&&>,,,,;&&>,,$$&&-@@-",
",;,,,;;,,,;>;,..&.,,;;-$@oo&-@oO&;$@& O ;,,.,,,.,,,..,$&,,,..,,,.,;,...X.>&-;>,...X,;,,,....&,.,,,,,,,,,,,,,,,..,,,,,,..,,,-,,,,",
";,;,,,,,..,,,...O.,,,,---&@@@---,@+@-o @,.,...,,..,..,,;,,,..,,,.,>>,...,......X..,,,,,,,,....,,,,..,,,.,,,,,;&,,,,,,;&,.,,,,,,,",
",.,,..,,,,,.$-.o*O.,..,,,,,-&;,,,oo$$-&o,...,..,,...,,,,,,,,..,,..>$,,..XX.....X.X......,....,,......,,...,,,$>...,,,$>..,,,,,,,",
"...,..,,,X,$@@;;O*O...,.,,,,,,,,-&$$@@;;,....X,..,,,.......,..,...,&.,,....X,..,,.............,.......,,...,.>;....,.>;...,,,,,,",
",;,..,,,,,$,-@$,>*&,,,>.,,.,,,,@&,,;-@$,.,....X,..,,..........,,...#.,,.;...,..,,.......................,....,,.,....,,..,,,.,,,",
">>>,..,,,,>,,-$$&O@;;&>.....,,,$&,,,,-$$.,.;...,..,,...............,.,..;..........X....................,,....,.,,....,...,.,,,."
};
