/* XPM */
static char *GRAYDANG[] = {
/* columns rows colors chars-per-pixel */
"64 128 18 1 ",
"  c #777777",
". c gray50",
"X c #6F6F6F",
"o c gray39",
"O c #838383",
"+ c #1B1B1B",
"@ c #5B5B5B",
"# c gray34",
"$ c #4B4B4B",
"% c gray42",
"& c gray31",
"* c #8B8B8B",
"= c #8B0000",
"- c #730000",
"; c #9B0000",
": c #7F0000",
"> c #A70000",
", c #B30000",
/* pixels */
"&&&&@&&&@&$$&&$&&&&&$&&&&$&&&&&&&&&&&&&@&$$&&$&&&&&$&&&&$&&&&&&&",
"O*OO******..O**OO*O*OOOOO.*OO****OOO*****..O**OO*O*OOOOO.*OO***O",
"X XX X.  XooX XX  X X XXXo XX X  XXXX.  XooX XX  X X XXXo XX X X",
"   X X  .XXooXXX  XXX XXXX XX X   XXX  .XXooXXX  XXX XXXX XX X X",
"  XX XO OXXXoXoXXXXXo  Xo  XXXX  XXXXO OXXXoXoXXXXXo  Xo  XXXX  ",
". .X X   XXXoooXXXXXo X o  o XXX .XXX   XXXoooXXXXXo X o  o XXX ",
"     X    XooXoXX  XoXX o  o XoX   XX    XooXoXX  XoXX o  o Xo  ",
"   X X ..XX#oXoXoX XoXXXo  X.XoX  XXX ..XX#oXoXoX XoXXXoX X.Xo  ",
"   X   ..XXooXXXXoXooXXXo X . XX  XX  ..XXooXXXXoXooXXXoXX . X X",
"X.X  X . XXXXXXXXoooXXXXX X .XXX.X XXX. XXXXXXXXoooXXXXXXX .XX X",
"   . X OXoooo    XX  X  X  X  XO...XXXX    XOXXO   XXXXXXX X # X",
". X. . X oooX    XX .X  X.OX  Xo ..XXXX  XX o X .  XXXXXXX oXo  ",
" XX   .X o XXX    XX XXX OoX  Xo   X XX   XXo  O    . XXo  oXX  ",
".XX  ..X oXXXoX   XX XXX OoXXX X.  X.X    XXo X .   . X o  oX .X",
"  XOX .X  XXXXXXX X #XX  O. XX X   X X      o . XXX . XXo. XX . ",
"XX X  .X  XXXXXXX oX  X. O. XX   XXo     X .oX. XXX .O XX. XX . ",
" XXX  .X   X XXX  oX  X XO   X X XXo     X  oX   XX ... X   X . ",
" XXX  .X   X X X  oX  X.XO    XX  .X XXX    o.XXO   .XXXo  .X . ",
"     ..oXX   XXX  XX  oXoO  XXXX X.X XXX  XXoX X O  .XXXo   X . ",
"X . X..oXX  O.X X X   o XOXX  X XX X  XX   XoX  O XOXX XoX    . ",
"X  XX .XXX  .O    X   o oOXXX X  o X .X    XoX X .  .X XXX    . ",
"  .XX ..o    O . .X   XXoO X  XX   X  X    Xo  . XXO.  Xo   . . ",
"  XXX . o   O. .O.X   XXoOXX  X   XoX     XXX X. XXX. O oX X   X",
"    X . X   ..  O X   XXoOXX XX   XoX     X.oXX.  XX. ..XX     X",
"X  X X. X    .   XXX..X X oXX.X OX XX .    .XoX. .X .  X o      ",
"XXX  X. X#XXX.  X   ..Xoo. XX.XX XXoXX  XX  ooX.  X . OX . OX . ",
"XXX  X. X oXX.  X  .  XoX.XXX XXO XoX   XX XoXX.X   . .X    X . ",
"X XXXX  XXXX  X  X .XXXXX.XXX  XOXo@X  XX XXoo .X   .  X   XoX..",
" XXX    oX X XXX   .   XXOXXX. X.XXo X XXXX#oX..   X.X XX  .XX.o",
" XXo   .oX oX X .  .   XXOXXX.   XXo X.XXX ooX .    .X o X . X.X",
"  X  X  oX X OX  X  XX  XO  X.   X oXX XXoXooX .    . Xoo  . X.X",
"  XXXX  XX oX. X.X      XO  X.   XX@XX XXoXoXX .XXX .XXoX  . X.X",
"  X XX  X#XXX.XXXX      XO  X.  .XX@X  XooXoXX .XXX.. XXoX    .X",
"  XX X XXo X .XX   XXX  XOX  .XXX XXXXXXXXXX X  XXX . XXXX   .. ",
"X XX . X o X .XX X XXX  XOX  .  XXXo.XX XXXX XXO XX . XooX    . ",
"X XXX.  XoOX . XXX  XX  XO   .  XXXo.X XXXXo XX. X .  XXo  XX . ",
"  XXX. XXXOX . XXX X    o.  ..   X o.XXX XXo XX. X . XXXoX XX . ",
"  XX . XXX X . XXX XXX  o.   .XXXXXX.XXX XXo X .   .XXX oX  X O ",
" XXXX  X X XX.. . .XXX XoOXXX.  XXXo  X   Xo X O .X XXXXoX XXX  ",
" XXXXX XooXXX. X   XXX X OXXX.X X  oXXXoXXXo XX.  X XoXXoX XX   ",
"  XXXX Xo#XXX. X  .XXX   OXXo.X  X oXXXooXXo XX. .X Xo Xo  oX  X",
"  XXXX  XoX  .  X .   .  OXXo.X .X oXX XXX .XX . .  X  Xo XoX. X",
"  XXXX  XXX #.X   .      OoXX.X OX.oXXXX X #Xo . .  X.  o XOX.O ",
"X XXXX  XXoXo. . X    .  OoXX.  OX oXXXX oooX ..X.  X   oX X . .",
"X  X X   XoXX.  XXX   .  OooX.   X XXXX  ooXX  .X  .X.  oXoX OO ",
"   X X.  XoXX X.XXX   .  OXoX.     XX X  ooX X..X  .XX  oXoX . .",
"XX   X   oXXXXXXXXX XX   OXo .     XXXX XXoXXXX.X  .X   o X  O X",
"XX  O   XXX XXX  XXXXXX  OXX .X    X X X XXXXX .XXX. .  o X XO X",
" X  ...  oX XXX X  X    .OXX .     X.    XXXXX . XX. O  o  XXO  ",
"     ..  oX Xo XX  o..  .OXX .      . . OXXX XX.  X...  o  XXO .",
"    O . OoX  o XX Xo     OXX .   o X  .OOXX  XX. XX  OXXo oXXO  ",
"    . . Ooo .o XX Xo.   X.X  .X  X X   O XX  XXX XX  .XXo X X.X ",
" .    .  ##X.X   XXo. X  O . .X  X      Xoo ..  XoX  .X @ XX .X ",
" .  O .  #oX.o   X o  XX   .X.   X X X  XXo  .  XoXX .X @ oX OX ",
" .XX  .  ooX o   X o O  XX  X.   XXX    XXoX .  XOXXO.  o oX .XX",
" .XX  .  #XX oOXX  o  .    X . . XXX    o.oX  XX X X .  o.oX .X ",
"X.X . .  #.X oO XXXo.O     X..     X X  o oX   XXX  O.  o X X X ",
"X.X O .  oXX oO XX o  . XX X..   . X X  X oXX  XXX X    o X X XX",
" .    ..XoX .o XXX oX X XX X .. .  X X    oXX  XXX X. XXo X XO X",
" .  XX.  oX..o XXXXoX oXXX X .. O  X . XXXX  OXOXXO  .XX@XoXXO X",
" .   X.  oX .o X XXo  oX   XX.    .XO. XXXX X. X X X .XX@XX XO  ",
" .   X.X oX..o X XXo  oXXX XX.  OXOoO   XXX  .XX  OX . XoX  XO .",
" .    .  XXX o.  XXo XXXXX oX.  OX.XO  .X X  .XX X X   XoX   O  ",
"&@&&&&@&&&&&&$@&@&&&&&&@&&&&&@&&&&@&&&&&&&&&&@&&&@&$&&&&$&&&@@&&",
"&&&&@&&&@&$$&&$&&&&&$&&&&$&&&&&&&&&&&&&@&$$&&$&&&&&$&&&&$&&&&&&&",
"O*OO******..O**OO*O*OOOOO.*OO****OOO*****..O**OO*O*OOOOO.*OO***O",
"X XX X.  XooX XX  X X XXXo XX X  XXXX.  XooX XX  X X XXXo XX X X",
"   X X  .XXooXXX  XXX XXXX XX X   XXX  .XXooXXX  XXX XXXX XX X X",
"  XX XO OXXXoXoXXXXXo  Xo  XXXX  XXXXO OXXXoXoXXXXXo  Xo  XXXX  ",
". .X X   XXXoooXXXXXo X o  o XXX .XXX   XXXoooXXXXXo X o  o XXX ",
"     X    XooXoXX  XoXX o  o XoX   XX    XooXoXX  XoXX o  o Xo  ",
"   X X ..XX#oXoXoX XoXXXo  X.XoX  XXX ..XX#oXoXoX XoXXXoX X.Xo  ",
"   X   ..XXooXXXXoXooXXXo X . XX  XX  ..XXooXXXXoXooXXXoXX . X X",
"X.X  X . XXXXXXXXoooXXXXX X .XXX.X XXX. XXXXXXXXoooXXXXXXX .XX X",
"   . X OXoooo    XX  X++++++++++++++++++++ XOXXO   XXXXXXX X # X",
". X. . X oooX    XX .++++++++++++++++++++++ o X .  XXXXXXX oXo  ",
" XX   .X o XXX    XX+++------------------+++o  O    . XXo  oXX  ",
".XX  ..X oXXXoX   X+++-;;;;;;;;;;;;;;;;;;:+++ X .   . X o  oX .X",
"  XOX .X  XXXXXXX +++-;;;;;;XOOOOOOX;;;;;;:+++. XXX . XXo. XX . ",
"XX X  .X  XXXXXXX+++-;;;;;XOOOOOOOOOOX;;;;;:+++ XXX .O XX. XX . ",
" XXX  .X   X XXX+++-;;>;XOOOO%;;;;%OOOOX;;;;:+++ XX ... X   X . ",
" XXX  .X   X X +++-;;>,OOOO%;;%OOO%;%OOOO;;;;:+++   .XXXo  .X . ",
"     ..oXX   X+++-;;;;OOO%;;;;OOOOO;;;%OOO;;;;:+++  .XXXo   X . ",
"X . X..oXX  O.++-;;;;OOOOO%;;;OOOOO;;;;%OOO;;;;:++XOXX XoX    . ",
"X  XX .XXX  .O++=;;;%OO%OOO%;;OOOOO;;;;;%OO%;;;=++  .X XXX    . ",
"  .XX ..o    O++=;;;OOO;%OOO%;%OOO%;;;;;;OOO;;;=++XO.  Xo   . . ",
"  XXX . o   O.++=;;%OO%;;%OOO%;;O;;;;;;;;%OO%;;=++XX. O oX X   X",
"    X . X   ..++=;;OOO;;;;%OOOOOOOO%;;;;;;OOO;;=++XX. ..XX     X",
"X  X X. X    .++=;;OO%;;;;;%OOOOOOOO;;;;;;%OO;;=++X .  X o      ",
"XXX  X. X#XXX.++=;;OOo;;;;;;%OOOOOOO;;;;;;oOO;;=++X . OX . OX . ",
"XXX  X. X oXX.++=;;OOo;;;;;;;OOOOOOO;;;;;;oOO;;=++  . .X    X . ",
"X XXXX  XXXX  ++=;;OOo;;;;;;;OOOOOOO;;;;;;oOO;;=++  .  X   XoX..",
" XXX    oX X X++=;;OOo;;;;;;;OOOOOOO;;;;;;oOO;;=++ X.X XX  .XX.o",
" XXo   .oX oX ++=;;OO%;;;;;;;OOOOOOO%;;;;;%OO;;=++  .X o X . X.X",
"  X  X  oX X O++=;;OOO;;;;;;;%OOOOOOO%;;;;OOO;;=++  . Xoo  . X.X",
"  XXXX  XX oX.++=;;%OO%;;;;;;;;OOO%OOO%;;%OO%;;=++X .XXoX  . X.X",
"  X XX  X#XXX.++=;;;OOO;;;;;;;;OOO;%OOO%;OOO;;;=++X.. XXoX    .X",
"  XX X XXo X .++=;;;%OO%;;;;;;;OOO;;%OOO%OO%;;;=++X . XXXX   .. ",
"X XX . X o X .++=;;;;OOO%;;;;;;OOO;;;%OOOOO;;;;=++X . XooX    . ",
"X XXX.  XoOX .++=;;;;;OOO%;;;;OOOOO;;;%OOO;;;;;=++ .  XXo  XX . ",
"  XXX. XXXOX .+++=;;;;;OOOO%;OOOOOOO%OOOO;;;;;=+++ . XXXoX XX . ",
"  XX . XXX X . +++=;;;;;XOOOO%;;;;;OOOOX;;;;;=+++  .XXX oX  X O ",
" XXXX  X X XX.. +++=;;;;;;XOOOOOOOOOOX;;;;;;=+++ .X XXXXoX XXX  ",
" XXXXX XooXXX. X +++=;;;;;;;XOOOOOOX;;;;;;;=+++.  X XoXXoX XX   ",
"  XXXX Xo#XXX. X  +++=;;;;;;;;;;;;;;;;;;;;=+++X. .X Xo Xo  oX  X",
"  XXXX  XoX  .  X .+++=;;;;;;;;;;;;;;;;;;=+++X . .  X  Xo XoX. X",
"  XXXX  XXX #.X   . +++==================+++Xo . .  X.  o XOX.O ",
"X XXXX  XXoXo. . X   ++++++++++++++++++++++oX ..X.  X   oX X . .",
"X  X X   XoXX.  XXX   ++++++++++++++++++++oXX  .X  .X.  oXoX OO ",
"   X X.  XoXX X.XXX   .  OXoX.     XX X  ooX X..X  .XX  oXoX . .",
"XX   X   oXXXXXXXXX XX   OXo .     XXXX XXoXXXX.X  .X   o X  O X",
"XX  O   XXX XXX  XXXXXX  OXX .X    X X X XXXXX .XXX. .  o X XO X",
" X  ...  oX XXX X  X    .OXX .     X.    XXXXX . XX. O  o  XXO  ",
"     ..  oX Xo XX  o..  .OXX .      . . OXXX XX.  X...  o  XXO .",
"    O . OoX  o XX Xo     OXX .   o X  .OOXX  XX. XX  OXXo oXXO  ",
"    . . Ooo .o XX Xo.   X.X  .X  X X   O XX  XXX XX  .XXo X X.X ",
" .    .  ##X.X   XXo. X  O . .X  X      Xoo ..  XoX  .X @ XX .X ",
" .  O .  #oX.o   X o  XX   .X.   X X X  XXo  .  XoXX .X @ oX OX ",
" .XX  .  ooX o   X o O  XX  X.   XXX    XXoX .  XOXXO.  o oX .XX",
" .XX  .  #XX oOXX  o  .    X . . XXX    o.oX  XX X X .  o.oX .X ",
"X.X . .  #.X oO XXXo.O     X..     X X  o oX   XXX  O.  o X X X ",
"X.X O .  oXX oO XX o  . XX X..   . X X  X oXX  XXX X    o X X XX",
" .    ..XoX .o XXX oX X XX X .. .  X X    oXX  XXX X. XXo X XO X",
" .  XX.  oX..o XXXXoX oXXX X .. O  X . XXXX  OXOXXO  .XX@XoXXO X",
" .   X.  oX .o X XXo  oX   XX.    .XO. XXXX X. X X X .XX@XX XO  ",
" .   X.X oX..o X XXo  oXXX XX.  OXOoO   XXX  .XX  OX . XoX  XO .",
" .    .  XXX o.  XXo XXXXX oX.  OX.XO  .X X  .XX X X   XoX   O  ",
"&@&&&&@&&&&&&$@&@&&&&&&@&&&&&@&&&&@&&&&&&&&&&@&&&@&$&&&&$&&&@@&&"
};
