/* XPM */
static char *GRAYTALL[] = {
/* columns rows colors chars-per-pixel */
"128 128 36 1 ",
"  c #777777",
". c gray39",
"X c gray50",
"o c #838383",
"O c #6F6F6F",
"+ c gray42",
"@ c gray31",
"# c gray34",
"$ c #5B5B5B",
"% c #5B0707",
"& c #470000",
"* c #8B8B8B",
"= c gray28",
"- c #474F33",
"; c #530707",
": c #4F0000",
"> c #434343",
", c #670000",
"< c #3F472B",
"1 c #430000",
"2 c #4B371B",
"3 c gray23",
"4 c #53573B",
"5 c #5B6347",
"6 c #5B472B",
"7 c #533F1F",
"8 c #373F27",
"9 c #5F4323",
"0 c #373737",
"q c #574333",
"w c #6F7357",
"e c #6F5743",
"r c #533F2F",
"t c #67533F",
"y c #676B4F",
"u c #3F2F17",
/* pixels */
"O$<<34<-3q<<3$  O OOX   X ..OO.OO O .OOO . OO    OOO   X ..OO.OO O .OOO . OO   OO O6&:&:%&&7OO.OO OOX   X ..OO.OO O .OOO . OO   ",
"+534-38---@=45  O OO    X ..O  OO O OOOOO. OO    OOO   X ..O  OO O OOOOO. OO   OO O6%&::::&7O  OO OO    X ..O  OO O OOOOO. OO   ",
"O$=6<83-@t->@#O O OO OX  O..O OO  O O OOO. OO O  OOOOX  O..O OO  O O OOO. OO O OO O6,::&::&2O OOO OO OX  O..O OO  O O OOO. OO O ",
"O.<=<<8@.>$>=.O    O O  XOO..OOO  OOO OOOO OO O   OOO  XOO..OOO  OOO OOOO OO O O   6::,&&:&7.OOO   O O  XOO..OOO  OOO OOOO OO O ",
"+5--833>@5->#.O   OO Oo oOOO.O.OOOOO.  O.  OOOO  OOOOo oOOO.O.OOOOO.  O.  OOOO  * O6&:%::&&7.O.O  OO Oo oOOO.O.OOOOO.  O.  OOOO ",
"+5-5<q3@4$-#=.OOX XO O   OOO...OOOOO. O .  . OOO XOOO   OOO...OOOOO. O .  . OOO X X6&:1:%&&2...OX XO O   OOO...OOOOO. O .  . OOO",
"O.4<<38$e54##..O     O    O..O.OO  O.OO .  . O.O   OO    O..O.OO  O.OO .  . O.     6&%::&:&7.O.O     O    O..O.OO  O.OO .  . O.O",
"++<--00$55-#++.O   O O XXOO#.O.O.O O.OOO.  OXO.O  OOO XXOO#.O.O.O O.OOO.O OXO.     6:%:%:%&2.O.O   O O XXOO#.O.O.O O.OOO.  OXO.O",
"O.44<<<=4$>@ .OO   O   XXOO..OOOO.O..OOO. O X OO  OO  XXOO..OOOO.O..OOO.OO X O O   6:,,:::&7.OOO   O   XXOO..OOOO.O..OOO. O X OO",
"O.4@>3<-#->@ .OOOXO  O X OOOOOOOO...OOOOO O XOOOXO OOOX OOOOOOOO...OOOOOOO XOO OOXO6:%::::&7OOOOOXO  O X OOOOOOOO...OOOOO O XOOO",
"X+y@>3<-@@5#+.Oo   X O oO....    OO  O  O  O  OoXXXOOOO    OoOOo   OOOOOOO O # O   6&::&:&&2.  *   X O oO....    OO  O  O  O  Oo",
"o+@4>><#@4=#=+O.X OX X O ...O    OO XO  OXoO  O. XXOOOO  OO . O X  OOOOOOO .O.  X O6::::::&2O  *X OX X O ...O    OO XO  OXoO  O.",
"o+$4>>05$=r@$.O. OO   XO . OOO    OO OOO o.O  O.   O OO   OO.  o    X OO.  .OO   OO6::%%%:&2OO   OO   XO . OOO    OO OOO o.O  O.",
"Xw.@q>3=$>e@.. OXOO  XXO .OOO.O   OO OOO o.OOO OX  OXO    OO. O X   X O .  .O XOXOO6&::::&&7O.O XOO  XXO .OOO.O   OO OOO o.OOO O",
"O+54-3@4#=-#$. O  OoO XO  OOOOOOO O #OO  oX OO O   O O      . X OOO X OO.X OO X   O6:%::::&7OOOO  OoO XO  OOOOOOO O #OO  oX OO O",
"O+54<<@4#@$@#.  OO O  XO  OOOOOOO .O  OX oX OO   OO.     O X.OX OOO Xo OOX OO X OO 6%::%&&&7OOOOOO O  XO  OOOOOOO .O  OX oX OO  ",
" w$@33@#$#=##+ O OOO  XO   O OOO  .O  O Oo   O O OO.     O  .O   OO XXX O   O X  OO6&::::&&2 OOO OOO  XO   O OOO  .O  O Oo   O O",
" +5=$3=@$$.@..OO OOO  XO   O O O  .O  OXOo    OO  XO OOO    .XOOo   XOOO.  XO X  OO6:%::%:&2 O O OOO  XO   O O O  .O  OXOo    OO",
" +.#.>=@# .$#.OO     XX.OO   OOO  OO  .O.o  OOOO OXO OOO  OO.O O o  XOOO.   O X    6%,:&:&&2 OOO     XX.OO   OOO  OO  .O.o  OOOO",
"Ow.$.>=@#.=@$.O O X OXX.OO  oXO O O   . OoOO  O OO O  OO   O.O  o OoOO O.O    X O X6::::&&&7oXO O X OXX.OO  oXO O O   . OoOO  O ",
" +. .#=@$.$#=.O O  OO XOOO  Xo    O   . .oOOO O  . O XO    O.O O X  XO OOO    X O  6&%:%%:&7Xo  O  OO XOOO  Xo    O   . .oOOO O ",
" ...$@=#$$.3.#OO  XOO XX.    o X XO   OO.o O  OO   O  O    O.  X OOoX  O.   X X   X6::%:::&2*o X  XOO XX.    o X XO   OO.o O  OO",
"o5..$@=##..>=.O   OOO X .   oX XoXO   OO.oOO  O   O.O     OOO OX OOOX o .O O   O *O6:%:&%%&7oX X  OOO X .   oX XoXO   OO.oOO  O ",
"o+5.$@=@$$#>$.O     O X O   XX  o O   OO.oOO OO   O.O     OX.OOX  OOX XXOO     O   6%%:%%&&7XX      O X O   XX  o O   OO.oOO OO ",
" +.+$#>@$.## .O O  O OX O    X   OOOXXO O .OOXO oO OO X    XO.OX XO X  O .      O  6::,:&:&7*X  O  O OX O    X   OOOXXO O .OOXO ",
"O+.+$#>@.$+>+.OOOOO  OX O#OOOX  O   XXO..X OOXOO OO.OO  OO  ..OX  O X oO X oO X OOO6&::%::&7OX  OOO  OX O#OOOX  O   XXO..X OOXOO",
"O+$..#=@$=#@=.OOOOO  OX O .OOX  O  X  O.OXOOO OOo O.O   OO O.OOXO   X XO    O X OOO6&&::%:&7OX  OOO  OX O .OOX  O  X  O.OXOOO OO",
" +$..#@@$#=@+. OO OOOO  OOOO  O  O XOOOOOXOOO  OoO.$O  OO OO.. XO   X  O   O.OXXO O6:%&:::&7  O O OOOO  OOOO  O  O XOOOOOXOOO  O",
" +$..#@@$##@++ O OOO    .O O OOO   X   OOoOOOX OXOO. O OOOO#.OXX   OXO OO  XOOX. OO6::&%&&&7 OOO OOO    .O O OOO   X   OOoOOOX O",
"X+...#@@$+.#.+   OO.   X.O .O O X  X   OOoOOOX   OO. OXOOO ..O X    XO . O X OXO OO6::&::&&9O O  OO.   X.O .O O X  X   OOoOOOX  ",
" +$..#@@$+.#+.    O  O  .O O oO  O  OO  Oo  OX   O .OO OO.O..O X    X O..  X OXO  O6,::,&:&7 oO   O  O  .O O oO  O  OO  Oo  OX  ",
"X+5.+#@@.+....    OOOO  OO .OX OXO      Oo  OX   OO$OO OO.O.OO XOOO XOO.O  X OXO  O6:&%:&%&7OX O  OOOO  OO .OX OXO      Oo  OX  ",
"O++++#@@.++$+$    O OO  O#OOOXOOOO      Oo  OX  XOO$O  O..O.OO XOOOXX OO.O    XO  O6&,:%&:&9OXOO  O OO  O#OOOXOOOO      Oo  OX  ",
" OO+O#@@.OO.X OO  OO O OO. O XOO   OOO  OoO  XOOO OOOOOOOOOO O  OOO X OOOO   XX   O6::%:&&&7 XOO  OO O OO. O XOO   OOO  OoO  XOO",
" O OO#@@. OO    O OO X O . O XOO O OOO  OoO  X  OOO.XOO OOOO OOo OO X O..O    X O O6%&::&:&2 XOOO OO X O . O XOO O OOO  OoO  X  ",
"OO  O#@@.  O    O OOOX  O.oO X OOO  OO  Oo   X  OOO.XO OOOO. OOX O X  OO.  OO X O O6::,:&:&7 X OO OOOX  O.oO X OOO  OO  Oo   X  ",
"OO O #@@$O +XOXO  OOOX OOOoO X OOO O    .X  XX   O .XOOO OO. OOX O X OOO.O OO X   O6&:&&:&&7 X O  OOOX OOOoO X OOO O    .X  XX  ",
"OO OO.@@$O .oOXO  OO X OOO O X OOO OOO  .X   XOOOOOOXOOO OO. O X   XOOO .O  O o   O61::&::&7 X O  OO X OOO O X OOO OOO  .X   XOO",
"X XOO.@@$ O.+OXX OOOO  O O OOXX X XOOO O.oOOOX  OOO.  O   O. O o XO OOOO.O OOO   OO6&&%:1:&2OXX  OOOO  O O OOXX X XOOO O.oOOOX  ",
"   OO.@@+ +.+XXX OOOOO O..OOOX O   OOO O oOOOXO O  .OOO.OOO. OOX  O O.OO.O OO    OO6::&&&&&7OX O OOOOO O..OOOX O   OOO O oOOOXO ",
"  XOO.@@+ +.+OXX  OOOO O.#OOOX O  XOOO   oOO.XO  O .OOO..OO. OOX XO O. O.  .O  O* O6::::%&&7OX O  OOOO O.#OOOX O  XOOO   oOO.XO ",
"O X  .#@+ +++X+o  OOOO  O.O  X  O X   X  oOO.XO XO .OO OOO XOO X X  O  O. O.OX O  O6&:&&:&&7OX    OOOO  O.O  X  O X   X  oOO.XO ",
"  X  .@@+ .++X+o  OOOO  OOO #XO   X      o.OOXO oOX.OOOO O #O. X X  OX  . OoOXo   O6&:1%:&&2#XO   OOOO  OOO #XO   X      o.OOXO ",
" O   .#@+ +++OXXO OOOO  OO.O.X X O    X  o.OOX  oO .OOOO ...O XXOX  O   .O O X XO O6&&&::&&2.X XO OOOO  OO.O.X X O    X  o.OOX  ",
"OOO  .#@+ .++OOoO  O O   O.OOX  OOO   X  o..OX   O OOOO  ..OO  XO  XOX  .O.O oo O  6::&::&&2OX  O  O O   O.OOX  OOO   X  o..OX  ",
"OOO  .@@+ ++OoOX   O OX  O.OO OXOOO   X  oO.OX     OO O  ..O OXXO  XOO  .O.O X X   6&::%%&&2O OX   O OX  O.OO OXOOO   X  oO.OX  ",
"OOO O.#@+ +++XOoOO   O   .OOOOOOOOO OO   oO. X     OOOO OO.OOOOXO  XO   . O  o OOO 6&&:;:&&7OOOOOO   O   .OOOOOOOOO OO   oO. X  ",
" OOOO.@@+ O+OO++OO  o   OOO OOO  OOOOOO  oOO XO    O O O OOOOO XOOOX X  . O Oo OOO 6&&&%&:&7OOO OO  o   OOO OOO  OOOOOO  oOO XO ",
"O  O .#@OXO+OO++ O  XXX  .O OOO O  O    XoOO X     OX    OOOOO X OOX o  .  OOo   O 6:&&&::&7OOO  O  XXX  .O OOO O  O    XoOO X  ",
"O  OX+#@OX++OOOO     XX  .O O. OO  .XX  XoOO X      X X oOOO OOX  OXXX  .  OOo X   6:&&&::&7O. O     XX  .O O. OO  .XX  XoOO X  ",
"O OO O#@+ ++OOOX    o X o.O  . OO O.     oOO X   . O  XooOO  OOX OO  oOO. .OOo     6&::&%:&2 . O    o X o.O  . OO O.     oOO X  ",
"O OOXO#@.O++O++X    X X o.. X. OO O.X   OXO  XO  O O   o OO  OOO OO  XOO. O OXO    6&::&::&2X. O    X X o.. X. OO O.X   OXO  XO ",
" OOOXO@@+ OX+++X X    X  ##OXO   OO.X O  o X XO  O      O.. XX  O.O  XO $ OO XO  X 6&&%&:&&2XO   X    X  ##OXO   OO.X O  o X XO ",
" O O O@@+ OX++OX X  o X  #.OX.   O .  OO   XOX   O O O  OO.  X  O.OO XO $ .O oO  X 6:;%&&&&7X.   X  o X  #.OX.   O .  OO   XOX  ",
" O O +#@OOOOO+Oo XOO  X  ..O .   O . o  OO  OX   OOO    OO.O X  OoOOoX  . .O XOO XO6&&&;::&2 .   XOO  X  ..O .   O . o  OO  OX  ",
"O    .#@  OO+++X XOO  X  #OO .oOO  .  X    O X X OOO    .X.O  OO O O X  .X.O XO  XO6&:;;:&&7 .oO XOO  X  #OO .oOO  .  X    O X X",
"OOO X+#@  OOX+OXOXO X X  #XO .o OOO.Xo     OXX     O O  . .O   OOO  oX  . O O O OXO6:&;:%:&2 .o OXO X X  #XO .o OOO.Xo     OXX  ",
"OO    #@OOO+OXOXOXO o X  .OO .o OO .  X OO OXX   X O O  O .OO  OOO O    . O O OOOXO6:&;&%:&7 .o OXO o X  .OO .o OO .  X OO OXX  ",
"OO  O @@OOO++XX+ X    XXO.O X. OOO .O O OO O XX X  O O    .OO  OOO OX OO. O Oo O X 6%:;;::&2X. O X    XXO.O X. OOO .O O OO O XX ",
"OOO O @@OOO+OOX+ X  OOX  .OXX. OOOO.O .OOO O XX o  O X OOOO  oOoOOo  XOO$O.OOo O X 6:&%:;&&7X. O X  OOX  .OXX. OOOO.O .OOO O XX ",
" OO   @@  O+OO+X X   OX  .O X. O OO.  .O   OOX    XOoX OOOO OX O O O XOO$OO Oo   X 6,&&:;:&7X. O X   OX  .O X. O OO.  .O   OOX  ",
" OO   @#OOO+OOOO X   OXO .OXX. O OO.  .OOO OOX  oOo.o   OOO  XOO  oO X O.O  Oo X X 6:&%&;&&7X. O X   OXO .OXX. O OO.  .OOO OOX  ",
" OO  O@#OOO+O+OO X    X  OOO .X  OO. OOOOO .OX  oOXOo  XO O  XOO O O   O.O   o   X 6::;;::&7 .X  X    X  OOO .X  OO. OOOOO .OX  ",
"o  XO @.OOOOO++O X  O X OOOO .X o  OO OoOO O XOO  XO    O O  oO  X .O   .O  XXO  X 6;;,,::&2 .X  X  O X OOOO .X o  OO OoOO O XOO",
"XX X  @.OOOO+++OOX  O XOO.O  .X XX O  OoOO OOXOO  XO OO   O OoO OX .O   .    oO OX 6&:%:&:&2 .X OX  O XOO.O  .X XX O  OoOO OOXOO",
"*X o o@.  X+++O+OX    XOO.OX OX oX OXoOo  X.OX O   O OO   O O OOOX OO   .XOO  O OX 6&;&,&&&9 OX OX    XOO.OX OX oX OXoOo  X.OX O",
"o  Xoo@.  O+O++OO OO   OO.O  OX o  OooOo   .OXOO   OX O X O   OOOX OOX  OXOO  OOO O6:;;&%&&7 OX O OO   OO.O  OX o  OooOo   .OXOO",
"X   o @.  X+++++  OO    O.. XOX X  .o Oo  X.OXOO o OoOOO  .O  .OOX OOX  .  O  O   O6&:::,&&7XOX   OO    O.. XOX X  .o Oo  X.OXOO",
"* O  O@#  X++X++ OO O  O .O XOX o O.XOOX  XO o.OX  OoOO   .OooO OXOO X  . OOO O  OO6::&:::&7XOX  OO O  O .O XOX o O.XOOX  XO o.O",
" o O  @#  X.+X+OO    OOO . .XOX Xo . XOX  X.OXO  X OX.O  O. XoOO XOO X    OO   OO  6::::::&7XOX O    OOO . .XOX Xo . XOX  X.OXO ",
"  O.O @#OOO+XO++ O  O OO   .o XoX O.OXOXOO .OXOOO  OXOO  O. ooOOXX.$ o X. .O  OO O 6::%:%&&2o Xo O  O OO   .o XoX O.OXOXOO .OXOO",
" *X Oo@.OO+OXOOO O  XoOOX O.oOXXX X.OoOoOOO.OX  O  OoOOX O. oo.    $oo  . OO     O 6::&:::&7oOXX O  XoOOX O.oOXXX X.OoOoOOO.OX  ",
"O OOX @.X ..X.OXO OOX   X ..X.OX XO.. OX . .OX   OOO   X .$OX .O X $OoO $ OO   OO O6::%%1%&7X OXO OOX   X ..X.OX XO.. OX . .OX  ",
"O OO  @.X ..XO XO OO    X ..XO X XO.OOOXO. .OX   OOO   X ..Ooo.O X .OoOO$ OO   OO O6&:&:&:&7Xo XO OO    X ..XO X XO.OOOXO. .OX  ",
"O OO O@. O..X OXO OO OX  O..X OXX O.O OXO. .OXO  OOOOX  O..OoX.  X O oOO. OO   OO O6:%:::&&2XoOXO OO OX  O..X OXX O.O OXO. .OXO ",
"   O O@.XOO. OOX   O O  XOO. OOXX O.O OXO+ .OXO   OOO  XOO..XX.  XOO oOOO OO   O   6::::1:&7 oOX   O O  XOO. OOXX O.O OXO+ .OXO ",
"* OO O@.oOOO O.X  OO Oo oOOO O.X OO..  X.+ .OXO  OOOOo oOO..X .OOXO. oO.  OOO   * O6::;;::&7 o.X  OO Oo oOOO O.X OO..  X.+ .OXO ",
"X XO O@. OOO ..XX XO O   OOO ..X OO.. Oo.+ . XOO XOOO   OO..  .OOXO.   .  . OoO X X6&;::&&&2  .XX XO O   OOO ..X OO.. Oo.+ . XOO",
"     O@.  O. O.X     O    O. O.X   ..OOo.+ . X.O   OO    O..X .O oO.O  .  . Oo     6&;1:;&&2 o.X     O    O. O.X   ..OOo.+ . X.O",
"   O O@OXOO# O.X   O O XXOO# O.XOO ..OOX.+ .XX.O  OOO XXOO#.X ..OoO.O O.O OXOo     6:::;&:&2 o.X   O O XXOO# O.XOO ..OOX.+ .XX.O",
"   O  @OXOO. OOX   O   XXOO. OOX .O$.OOX..O.XXOO  OO  XXOO..XX.O.X..O O.OO X o O   6:;;:&:&7 oOX   O   XXOO. OOX .O$.OOX..O.XXOO",
"OXO  O@O OOOoOOXOXO  O X OOOoOOX ..$OOOXO.O XXOOXO OOOX OOOOXX.O. .OO OOOO XOo OOXO6::::1:&7ooOXOXO  O X OOOoOOX ..$OOOXO.O XXOO",
"   X O@OO...O  *   X O oO...O   oOO. O  O. O XOoXXXOOOO    O X.o o.OO OOOO O o O   6&;%&:&&2Oo *   X O oO...O   oOO. O  O. O XOo",
"X OX X@# ...   *X OX X O ...     OO.XO  O.oO XO. XXOOOO  OO  o. Xo.OO OOOO .O   X O6:;:&&%&7 o *X OX X O ...     OO.XO  O.oO XO.",
" OO   @# . O O o OO   XO . O O o  O. OOO ..O XO.     OO   OO o.o o. XXOO.  .OX   OO6&&;;%&&2 o o OO   XO . O O o  O. OOO ..O XO.",
"XOO  X@# .OO .OoXOO  XXO .OO .Ooo O. OOO ..OOX OX   XO    OO o. Xo. XXO .  .OoXOXOO6::&&:1&2  OoXOO  XXO .OO .Ooo O. OOO ..OOX O",
"  OoO @#  OO OOX  OoO XO  OO OOX  O.#OO  .X OX O     O      XX. OX. X OO.X OOoX   O6&&,1&:&7 oOX  OoO XO  OO OOX  O.#OO  .X OX O",
"OO O  @#  OO OOXOO O  XO  OO OOX  ..  OX .X OX   OOO     O XX . OO. Xo OOX OOoX OO 6:&:&&:&2 oOXOO O  XO  OO OOX  ..  OX .X OX  ",
" OOO  @#     OOX OOO  XO     OOXX ..  O O+   X O OOO     O  O .  O. XXX O   OoX  OO6&&:&&,&2 oOX OOO  XO     OOXX ..  O O+   X O",
" OOO  @#     O O OOO  XO     O OX ..  OXO+   XOO  XX OOO    Oo.Oo . XOOO.  XOoX  OO6&::1;%&2 o O OOO  XO     O OX ..  OXO+   XOO",
"     X@@OO X OOO     XX.OO X OOOX O.  .O.+  OXOO OXX OOO  OOO .O o. XOOO.   OoX    6,&:%;:&7 oOO     XX.OO X OOOX O.  .O.+  OXOO",
"O X OX@@OO XoXO O X OXX.OO XoXO   O.  . O+OO XO OO    OO   OO . o .OOO O.O   oX O X6,&&1:&&2o*O O X OXX.OO XoXO   O.  . O+OO XO ",
"O  OO @#OO XXo  O  OO XOOO XXo  X O.  . . OOOXO  .   XO    OO .O X. XO OOO   oX O  6&&&&&:&2X*  O  OO XOOO XXo  X O.  . . OOOXO ",
"  XOO @O.  X*o X  XOO XX.  X o XXXO.  OO.  O XOO      O    OOX.X O.OX  O.   XoX   X6&:&:1&&2** X  XOO XX.  X o XXXO.  OO.  O XOO",
" *OOO @..  XoX X  OOO X .  XoX XoXO   OO. OO XO   OOO     OO X.X O+OX o .O O o O *O6&:&%1&&7o* X  OOO X .  XoX XoXO   OO. OO XO ",
"    O @.O  XXX      O X O  XXX  o O   OO. OO XO   OOO     OXO +X  +OX XXOO   o O   6::11%:&7X*      O X O  XXX  o O   OO. OO XO ",
"O  O O@.O   *X  O  O OX O    X  XOOOXXO OO.OOXO oO  O X    X O+X X+ X  O .   o  O  6:&&;&1&2**  O  O OX O    X  XOOOXXO OO.OOXO ",
"OOO  O@.O#OOOX  OOO  OX O#OOOX      XXO..O OOXOO OOOOO  OO  OO+X  + X oO X oOoX OOO6::1:&:&7O*  OOO  OX O#OOOX      XXO..O OOXOO",
"OOO  O@.O .OOX  OOO  OX O .OOX     X  O.OOOOO OOo OOO   OO OO +XO + X XO    OoX OOO6;:&&:%&2O*  OOO  OX O .OOX     X  O.OOOOO OO",
"O OOOO@.OOOO  O O OOOO  OOOO  O XO XOOOOOOOOO  OoO..O  OO OOOO+XO + X  O   O.XXXO O6%%&:&&&7  O O OOOO  OOOO  O XO XOOOOOOOOO  O",
" OOO  @..O O OOO OOO    .O O OOOX  X   OO OOOX OXOOO O OOOO#O +X   OXO OO  XOOX. OO6,::%:&&7 oOO OOO    .O O OOOX  X   OO OOOX O",
" OO.  @O.O .O O  OO.   X.O .O O X  X   OO OOOX   OOO OXOOO .. +X    XO . O X OXO OO6:&;;&:&9OoO  OO.   X.O .O O X  X   OO OOOX  ",
"  O  O@..O O oO   O  O  .O O oO XO  OO  O   OX   O OOO OO.O.. +X    X O.   X OXO  O6:&:&::&7 *O   O  O  .O O oO XO  OO  O   OX  ",
"  OOOO@.OO .OX O  OOOO  OO .OX OXO      O   OX   OO.OO OO.O.O OXOOO XOO.X  X OXO  O6&&:::%&2OX O  OOOO  OO .OX OXO      O   OX  ",
"  O OO@.O#OOOXOO  O OO  O#OOOXOO O      O   OX  XOO.O  O..O.OO XOOO X OO O    XO  O6&&&&%:&2OXOO  O OO  O#OOOXOO O      O   OX  ",
"  OO O@#O. O XOO  OO O OO. O XOOX  OOO  O O  XOOO O OOOOOOOO O  OOOOX OOXO   XX   O6:&&&:&&2 XOO  OO O OO. O XOOX  OOO  O O  XOO",
"O OO X@# . O XOOO OO X O . O XOOXO OOO  O O  X  OOOOXOO OOOO OOo OOOX O.OO    X O O6&&%:&&&2 XOOO OO X O . O XOOXO OOO  O O  X  ",
"O OOOX@.O.oO X OO OOOX  O.oO X O O  OO  O    X  OOOOXO OOOO. OOX O    OO   OO X O O61&%:1:&2 X OO OOOX  O.oO X O O  OO  O    X  ",
"  OOOX@#OOoO X O  OOOX OOOoO X O O O    .O  X    O OXOOO OO. OOX O   OOO O OO X   O6&&::&:&2 X O  OOOX OOOoO X O O O    .O  X   ",
"  OO X@#OO O X O  OO X OOO O X O O OOO  .O    OOOOO XOOO OO. O X    OOO OO  O o   O6&&:&&&&7 X O  OO X OOO O X O O OOO  .O    OO",
" OOOO @# O OOXX  OOOO  O O OOXX X XOOO O. OOOO  OOOO  O   O. O o XOOOOOOOO OOO   OO6:::&&&&2OXX  OOOO  O O OOXX X XOOO O. OOOO  ",
" OOOOO@#..OOOX O OOOOO O..OOOX OX  OOO O  OOOOO O  OOOO.OOO. OOX  OOO.OOOO OO    OO6::::;&&9OX O OOOOO O..OOOX OX  OOO O  OOOOO ",
"* OOOO@#.#OOOX O  OOOO O.#OOOX OX XOOO    OO.OO  O OOOO..OO. OOX XOOO. O   .O  O* O6:&%1%:&7OX O  OOOO O.#OOOX OX XOOO    OO.OO ",
"  OOOO@.O.O  X    OOOO  O.O  X  O X   X   OO. O XO OOO OOO XOO X X OO  O  O.OO O  O6,&::%%&7+X    OOOO  O.O  X  O X   X   OO. O ",
"  OOOO@.OOO #XO   OOOO  OOO #XO   X       .OO O oOXOOOOO O #O. X X OOX    OoOOo   O6:::%::&7#XO   OOOO  OOO #XO   X       .OO O ",
"O OOOO@.OO.O.X XO OOOO  OO.O.X X O    X   .OO   oO OOOOO .O.O XXOX OO   OO O O XO O6:::&:&&7.X XO OOOO  OO.O.X X O    X   .OO   ",
"O  O O@. O.OOX  O  O O   O.OOX  OOO   X   ..O    O  OOO  .OOO  XO   OX   O.O  o O  6&&%%&&&2OX  O  O O   O.OOX  OOO   X   ..O   ",
"   O O@. O.OO OX   O OX  O.OO OXOOO   X   O.O       O O  .OO OXXO  XOO   O.O O X   6%&::&:&7O OX   O OX  O.OO OXOOO   X   O.O   ",
"OO   O@. .OOOOOOOO   O   .OOOOOOOOO OO    O.        OOO OOOOOOOXO   OO    O  X OOO 6&%::&:&7OOOOOO   O   .OOOOOOOOO OO    O.    ",
"OO  o @.OOO OOO OO  o   OOO OOO  OOOOOO   OO OO    o O O O OOO XOOO     O O OX OOO 6:::;::&uOOO OO  o   OOO OOO  OOOOOO   OO OO ",
" O  XX@. .O OOO  O  XXX  .O OOO O  O    XXOO       XX    O OOO X OO  o  O  OO    O 6:::%;:&2OOO  O  XXX  .O OOO O  O    XXOO    ",
"    *X@. .O OOOO     XX  .O OOOOO  OXX  XXOO        X X oO O OOX  O X      OO  X   6:::%::;2OOOO     XX  .O OOOOO  OXX  XXOO    ",
"    o @.o.O  OOO    o X o.O  OOOO OO      OO     . o  XooO   OOX OOO oOO  .OO      6::%:%:&7 OOO    o X o.O  OOOO OO      OO    ",
"    X @.o..  OOO    X X o..  OOOO OOX   OOO  OO  O X   o O   OOO OO   OOO O OOO    6:%:%;:&7 OOO    X X o..  OOOO OOX   OOO  OO ",
" X  * @. ##O  O  X    X  ##O  O  OOOX O    X OO  O      O.O XO  O.O   O . OO OO  X 6%::;::&2  O  X    X  ##O  O  OOOX O    X OO ",
" X  o @O #.O OO  X  o X  #.O OO  O O  OO   XOO   O o O  OOO  O  O.OO  O . .O  O  X 6::%;:%&2 OO  X  o X  #.O OO  O O  OO   XOO  ",
" XOO  @O ..OOOO  XOO  X  ..OOOO  O O o  OO  OO   OO     OOOO O  OoOOo   O .O OOO XO6%:;::%&7OOO  XOO  X  ..OOOO  O O o  OO  OO  ",
" XOO  @O #OOOO*O XOO  X  #OOOO OO     X    O   X OO     .XOO  OO O O    OX.O OO  XO6::;:::&7OO+O XOO  X  #OOOO OO     X    O   X"
};
