/* XPM */
static char *GRAYPOIS[] = {
/* columns rows colors chars-per-pixel */
"64 72 18 1 ",
"  c #777777",
". c gray50",
"X c #6F6F6F",
"o c gray39",
"O c #838383",
"+ c #8B8B8B",
"@ c #AF7B1F",
"# c #874307",
"$ c #9B5B13",
"% c #939393",
"& c #732B00",
"* c #D7BB43",
"= c #C39B2F",
"- c #1B1B1B",
"; c gray34",
": c #2F2F2F",
"> c #0B0B0B",
", c #A7A7A7",
/* pixels */
"X XX.   . ooXXoXX X oXXX o XX    XX.   . ooXXoXX X oXXX o XX   X",
"X XX    . ooX  XX X XXXXXo XX    XX    . ooX  XX X XXXXXo XX   X",
"X XX X.  XooX XX  X X XXXo XX X  XX X.  XooX XX  X X XXXo XX X X",
"   X X% .XXooXXX  XXX XXXX XX X   X X% .XXooXXX  XXX XXXX XX X X",
"+ XX XO OXXXoXoXXXXXo  Xo  XXXX  XX XO OXXXoXoXXXXXo  Xo  XXXX  ",
". .X X   XXXoooXXXXXo X o  o XXX .X X   XXXoooXXXXXo X o  o XXX ",
"     X    XooXoXX  XoXX o  o XoX    X    XooXoXX  XoXX o  o Xo  ",
"   X X ..XX;oXoXoX XoXXXoX X.XoX  X X ..XX;oXoXoX XoXXXoX X.Xo  ",
"   X   ..XXooXXXXoXooXXXoXX . XX  X   ..XXooXXXXoXooXXXoXX . X X",
"X.X  X . XXXXXXXXoooXXXXXXX .XXX.X  XX. XXXXXXXXoooXXXXXXX .XX X",
"   . X OXoooo  ++XX  X  Xo X  XO... XXX    XOXXO   XXXXXXX X ; X",
". X. . X oooX  +%XX .X  XoOX  Xo .. XXX  XX o X .  XXXXXXX oXo  ",
" XX   .X o XXX  % XX XXX XoX  Xo     XX   XXo  O    . XXo  oXX  ",
".XX  ..X oXXXoX + XX XXX XoXXX X.   .X    XXo X .   . X o  oX .X",
"  XOX .X  XXXXXXX X ;XX   . XX X     X      o . XXX . XXo. XX . ",
"XX X  .X  XXXXXXX oX  X. X. XX   XXX     X .oX. XXX .O XX. XX . ",
" XXX  .X   X XXX  oX  X XX   X X XXX     X% oX   XX ... X   X . ",
" XXX  .X   X X X  oX  X.XX    XX  .. XXX    o.XXO   .XXXo  .X . ",
"     ..oXX   XXX  XX  oXoX  XXXX X.. XXX  XXoX X O  .XXXo   X . ",
"X ------------------------------------------------------------. ",
"X-------------------------------------------------------------- ",
" -------------------------------------------------------------- ",
" ----&&#$$$$$$$$$$$$$$$$$$$$$$$$$$$$$$$$$$$##$$$$$$$$$$$#&&----X",
" ----&#$@----&@&->-&$----&@--@&---&--------#&---&@----&@$#&----X",
"X----&$@@--=--=--=--$--=--=--=--*--@=--==--#--=--=--=--@$#&---- ",
"XX---:$@@----**---->$--*--=--*-----@*--**--#--*--=--*--=@#:---. ",
"XX----:$@--=--*--=->$--*--=--*--*--@*--**--#--*--=--*--=@:----. ",
"X X----:@--=--*--=->@----$=--*--*--@*--**--#$---$=--*--=:----X..",
" XXX----:=*=*****==*@#=***=********@*******#@****=****=:----XX.o",
" XXo ----:==*****==*@#=***=********@*******#@****=***=:----. X.X",
"  X  X----:=*****==*@$=***=********@*******#@****=**=:---- . X.X",
"  XXXX ----:=****==*@$=***$-#******#-$*****#@****=*=:----  . X.X",
"  X XX  ----:=***==*@$=**----#****#----****$@****==:---- X    .X",
"  XX X XX----:=**==*@$=*$-----#**#-----$***$@****=:----X.X   .. ",
"X XX . X o----:=*==*@$=*------&**&------***$@***=:----XoXX    . ",
"X XXX.  XoO----:===*@$=*------@=*@------***$@**=:---- XX   XX . ",
"  XXX. XXXOX----:==*@$=*-----@$--$@-----***$@*=:---- XXX X XX . ",
"  XX . XXX X ----:=*@$=***=***----*@*******$@=:---- XXX XX  X O ",
"%XXXX  X X XX.----:=@$==*==***$--$*@*******$@:----XXXXXXXX XXX+ ",
"%XXXXX XooXXX. ----:@$=*=*=****=**=@**=*=*=$:---- XXXoXXXX XX + ",
"+ XXXX Xo;XXX. X----:$==*===**$--$*@==*=*=@:---- .XXXo X   oX %X",
"  XXXX  XoX %.  X----:@====*=$----$@*====@:----. . XX  X  XoXX+X",
"  XXXX  XXX ;.X   ----:@====$------$@=@=$:---- . . XX.    XOXXO ",
"X XXXX  XXoXo. . X ----:$@@@--------=@=$:---- ..X. XX   XX X X .",
"X  X X   XoXX.  XXX ----:$@$@$&--&$$@@$:----X  .X   X.   XoX  O ",
"   X X.  XoXX X.XXX  ----:#$$@$@$@$@$$:----X X..X  .XX   XoX X .",
"XX   X   oXXXXXXXXX XX----:#$$$$$$$$#:----XXXXX.X   XX    X  . X",
"XX  O   XXX XXX  XXXXXX----:########:----X XXX .XXX     X X X. X",
" X  ...  oX XXX X  X    ----:&####&:---- X XXX . XX  O  X  XX   ",
"    +..  oX XXXXX  X..  .----:&&&&:---- OX X XX.  X .      XX  .",
"    O . OoX  XXXX XX +    ----:&&:----.OOX   XX. XXX+OXX  oXX   ",
"    . . Ooo  XXXX XX.%  XXX----::----  O X   XXX XX % XXX X XXX ",
" .  + .  ;;X  X  XXX.%X    .--------    XoX .X  XoX % X o XX XX ",
" .  O .  ;oX XX  X X +XX   .X------O X  XXX  X  XoXX+ X o+oX  X ",
" .XX  .  ooXXXX  X X O  XX  XX----X     XXXX X  XOXXO   X+oX XXX",
" .XX  .  ;XXXX+XX     .    X   . XX     o.XX ,XX X X    X.oX XX ",
"X.X . .  ;.XXX+ XXX .O     X.  %+  . X  o%XX , XXX  O   X X XoX ",
"X.X O .  oXXXXO XX    . XX X.  ++. O X  X XXX% XXX X X  X X XoXX",
" .    ..XoX  XXXXX  X X XX X  . .    X    XXX+ XXX X.XXXX X X. X",
" .  XX.  oX. XXXXXX X oXXX X X. O    . XXX    XOXXO   XXoXoXX. X",
" .   X.  oX  XXX XX   oX   XXX  + . O. XXX  XX X X .  XXoXX X   ",
" .   X.X oX. XXX XX   oXXX XXX  OXOXO   XX   XXX  O    XXX  X  .",
" .    .  XXXXX   XX  XXXXX oXX  OX. O  .X    XXX X . X XXX      ",
" .  X . XXXXXX  O  .X X XX X XXX+ ..+   X        . XXX  XX  .XX ",
"X.  X%.XXoX XX  .. .  X XX XX XX% ..+XX     X . X. XXX       XX ",
"X.   %.XXoX.X   +. O OX   .oX  X%   +XX     X% XX   XX   .XX  X ",
"X XX + XXoX X   O  .OOX    oX XX+   . X .    %.XX  .X   ..XX XXX",
"  XX    Xoo     .   O X   .oX XX+O OOXXX+ XX +XXX   X      X XX ",
" XX X  X oX     + X  XoX  .X XoX.% .OXX % XX    XXX       XXXoX ",
"X    XXX o   .   O X   X  .oX X  .  .oX %XX X  X XX     + XX % X",
" X  X XX     +    XoX .XXX oX XXX  ..XX  XX    X.Xo; X+.  oX %XX",
" X  .OXX. XX . X +. XOX XXXXX   X  .OXX. XX . X +. XOX    XX    "
};
