/* XPM */
static char *GRAY2[] = {
/* columns rows colors chars-per-pixel */
"64 72 20 1 ",
"  c #777777",
". c #6F6F6F",
"X c gray50",
"o c gray39",
"O c #838383",
"+ c #8B8B8B",
"@ c #A7A7A7",
"# c #939393",
"$ c gray34",
"% c #5B5B5B",
"& c gray42",
"* c gray28",
"= c gray31",
"- c #4B4B4B",
"; c #979797",
": c #2F2F2F",
"> c #373737",
", c gray67",
"< c #232323",
"1 c #434343",
/* pixels */
"   .   XX..oo....o.oo...o . X ..  ..  XX..oo....o.oo...o.. X . .",
".X.  . X ........ooo..... . X...X. ...X ........ooo....... X.. .",
"   X . O.oooo    ..  .  .  .  .OXXX....    .O..O   ....... . $ .",
"X .X X . ooo.    .. X.  .XO.  .o XX....  .. o . X  ....... o.o  ",
" ..   X. o ...    .. ... Oo.  .o   . ..   ..o  O    X ..o  o..  ",
"X..  XX. o...o.   .. ... Oo... .X  .X.    ..o . X   X . o  o. X.",
"  .O. X.  ....... . $..  OX .. .   . .      o X ... X ..oX .. X ",
".. .  X.  ....... o.  .X OX ..   ..o     . Xo.X ... XO ..X .. X ",
" ...  X.   . ...  o.  . .O   . . ..o     .  o.   .. XXX .   . X ",
" ...  X.   . . .  o.  .X.O    ..  X. ...    oX..O   X...o  X. X ",
"     XXo..   ...  ..  o.oO  .... .X. ...  ..o. . O  X...o   . X ",
". X .XXo..  OX. . .   o .O..  . .. .  ..   .o.  O .O.. .o.    X ",
".  .. X...  XO    .   o oO... .  o . X.    .o. . X  X. ...    X ",
"  X.. XXo    O X X.   ..oO .  ..   .  .    .o  X ..OX  .o   X X ",
"  ... X o   OX XOX.   ..oO..  .   .o.     ... .X ...X O o. .   .",
"    . X .   XX  O .   ..oO.. ..   .o.     .Xo..X  ..X XX..     .",
".  . .X .    X   ...,@@@@@@@@@@@@@@@@@@@@@OX.o.X X. X  . o      ",
"...  .X .$...X  .   @= +;##+O#+##;#++++O+#  oo.X  . X O. X O. X ",
"...  .X . o..X  .  X@%,+;@++,++@+;@+#@+O@+ .o..X.   X X.    . X ",
". ....  ....  .  . X@..O;+O++O++O;+O#+OO+O .oo X.   X  .   .o.XX",
" ...    o. . ...   X@ ++;##+O####;#####O## $o.XX   .X. ..  X..Xo",
" ..o   Xo. o. . X  X@ @+@@@@@@@@@@@@@@#O@+ oo. X    X. o . X .X.",
"  .  .  o. . O.  .  @ .O %<<=*<<<<&%<<.O+O oo. X    X .oo  X .X.",
"  ....  .. o.X .X.  @ ++###OO  O+######O## o.. X... X..o.  X .X.",
"  . ..  .$...X....  @ @+@@@@@@@@@@@@@@#O,+ o.. X...XX ..o.    X.",
"  .. . ..o . X..   .@ .O%:::=*::::&%::.O+O . .  ... X ....   XX ",
". .. X . o . X.. . .@ ++###OOOOO+######O## . ..O .. X .oo.    X ",
". ...X  .oO. X ...  @ @+@@@@@@@@@@@@@@#O@+ o ..X . X  ..o  .. X ",
"  ...X ...O. X ... .@ .O%>>>=*>>>>&%>>.O+O o ..X . X ...o. .. X ",
"  .. X ... . X ... .@ ++###+OOOO+######+## o . X   X... o.  . O ",
" ....  . . ..XX X X.@ ,+@@@@@@@@@@@@@@#+@+ o . O X. ....o. ...  ",
" ..... .oo...X .   .@ .O.***=*****&%**.++O o ..X  . .o..o. ..   ",
"  .... .o$...X .  X.@O++###++++++######+##.o ..X X. .o .o  o.  .",
"  ....  .o.  X  . X @O@+@@@@@@@@@@@@@@#+@+.X.. X X  .  .o .o.X .",
"  ....  ... $X.   X @O.O%***=*****&%**.++O.$.o X X  .X  o .O.XO ",
". ....  ..o.oX X .  @O++###############+##.o. XX.X  .   o. . X X",
".  . .   .o..X  ... @O@+@@@@@@@@@@@@@@#+@+...  X.  X.X  o.o. OO ",
"   . .X  .o.. .X... @O.O%=========&%==.++O&. .XX.  X..  o.o. X X",
"..   .   o......... @O#################+##&....X.  X.   o .  O .",
"..  O   ... ...  ...@O@+@@@@@@@@@@@@@@#+@+&... X...X X  o . .O .",
" .  XXX  o. ... .  .@+.O %%%%%%%%%&%%%.++O&... X ..X O  o  ..O  ",
"     XX  o. .o ..  o@+#+OOOOOOOOOOOOOOO+##&. ..X  .XXX  o  ..O X",
"    O X Oo.  o .. .o@+@+;+#+#+O#+;++#+++@+&  ..X ..  O..o o..O  ",
"    X X Ooo Xo .. .o@+.OO&O##+O#+;#####++O&  ... ..  X..o . .X. ",
" X    X  $$.X.   ..o@### *%##+O#+;########& XX  .o.  X. % .. X. ",
" X  O X  $o.Xo   . o@#@+O +#@+O,+;@+#@++@+&  X  .o.. X. % o. O. ",
" X..  X  oo. o   . o@#+O#+O#+OO+O;+O#+O++O&. X  .O..OX  o o. X..",
" X..  X  $.. oO..  oO   ...&&&&&&&&&&&&&&&&.  .. . . X  oXo. X. ",
".X. X X  $X. oO ...oXO     .XX     . .  o o.   ...  OX  o . . . ",
".X. O X  o.. oO .. o  X .. .XX   X . .  . o..  ... .    o . . ..",
" X    XX.o. Xo ... o. . .. . XX X  . .    o..  ... .X ..o . .O .",
" X  ..X  o.XXo ....o. o... . XX O  . X ....  O.O..O  X..%.o..O .",
" X   .X  o. Xo . ..o  o.   ..X    X.OX .... .X . . . X..%.. .O  ",
" X   .X. o.XXo . ..o  o... ..X  O.OoO   ...  X..  O. X .o.  .O X",
" X    X  ... oX  ..o ..... o.X  O.X.O  X. .  X.. . .   .o.   O  ",
"=%====%======-%=%======%=====%====%==========%===%=-====-===%%==",
"$$$$$$$$-1$$$%$$$$%$$$$$$%$$-%$$$$$-$$$--$$-$$$%$%$$$-$$-$$-$$$$",
"$##############################################################%",
"$X....  ... $X.   X      Oo..X. O.Xo.... . $.o X X  .X  o .O.XO%",
"$X....  ..o.oX X .    X  Oo..X  O. o.... ooo. XX.X  .   o. . X o",
"$X . .   .o..X  ...   X  Ooo.X   . ....  oo..  X.  X.X  o.o. OO%",
"$X . .X  .o.. .X...   X  O.o.X     .. .  oo. .XX.  X..  o.o. X o",
"$    .   o......... ..   O.o X     .... ..o....X.  X.   o .  O $",
"$   O   ... ...  ......  O.. X.    . . . ..... X...X X  o . .O $",
"$   XXX  o. ... .  .    XO.. X     .X    ..... X ..X O  o  ..O %",
"$X   XX  o. .o ..  oXX  XO.. X      X X O... ..X  .XXX  o  ..O o",
"$X  O X Oo.  o .. .o     O.. X   o .  XOO..  ..X ..  O..o o..O %",
"$X  X X Ooo Xo .. .oX   .X.  X.  . .   O ..  ... ..  X..o . .X.%",
"$X    X  $$.X.   ..oX .  O X X.  .      .oo XX  .o.  X. % .. X.%",
"$X  O X  $o.Xo   . o  ..   X.X   . . .  ..o  X  .o.. X. % o. O.%",
"$X..  X  oo. o   . o O  ..  .X   ...    ..o. X  .O..OX  o o. X.$",
"$X..  X  $.. oO..  o  X    . X X ...    oXo.  .. . . X  oXo. X.%"
};
