/* XPM */
static char *GSTFONT2[] = {
/* columns rows colors chars-per-pixel */
"64 128 89 1 ",
"  c #5B6347",
". c #6B0F0F",
"X c #5B0707",
"o c #670B0B",
"O c #5F0707",
"+ c #675333",
"@ c #3F472B",
"# c #53573B",
"$ c #474F33",
"% c #676B4F",
"& c #2F2F2F",
"* c #332B13",
"= c #373F27",
"- c #1F170B",
"; c #6F7357",
": c #0B0B0B",
"> c #232323",
", c #1B1B1B",
"< c #131313",
"1 c #170F07",
"2 c #7B7F63",
"3 c #272727",
"4 c #533F2F",
"5 c gray28",
"6 c #43331B",
"7 c #434343",
"8 c #2B230F",
"9 c gray23",
"0 c #070707",
"q c gray31",
"w c #4B4B4B",
"e c #8B0000",
"r c #9B0000",
"t c #373737",
"y c #B30000",
"u c #836B57",
"i c #17330F",
"p c #5B5B5B",
"a c gray34",
"s c black",
"d c #13230B",
"f c #4B371B",
"g c #3F2F17",
"h c #574333",
"j c #A70000",
"k c #BF0000",
"l c #972F2F",
"z c #8B2323",
"x c #4F3B23",
"c c #67533F",
"v c #6F5743",
"b c gray39",
"n c #CB0000",
"m c #8F2B2B",
"M c #8B735B",
"N c #430000",
"B c #D70000",
"V c #731313",
"C c #5F4B37",
"Z c #9B3333",
"A c #872300",
"S c #9F876F",
"D c #831F1F",
"F c #5B0000",
"G c gray42",
"H c #EF0000",
"J c #E30000",
"K c #7F1B1B",
"L c #838383",
"P c #4F0000",
"I c #5F4323",
"U c #8B8B8B",
"Y c #0B1707",
"T c #7B634F",
"R c #6F6F6F",
"E c #1F4317",
"W c #937B63",
"Q c #7F0000",
"! c #530707",
"~ c #470000",
"^ c #771717",
"/ c #730000",
"( c #670000",
") c #9B7F6B",
"_ c #777777",
"` c #932F00",
"' c #6B4727",
"] c #533F1F",
"[ c #732B00",
/* pixels */
",,,,,,,,,,,,,,,,,,,,,,,,,,,,,,,,,,,,,,,,,,,,,,,,,,,,,,,,,,,,,,,,",
"sssp%p_%$*<-&555,,-;&$;%5w&@uLu;Tu% %222W;2;;;;;;;;UL;L;a ; &=,s",
"sssq%p%%I-1,**$q866&&#%$#%@@%2222%#2$$$$##2%%%$wb%q%% # @u;;*-9s",
"sssq%%pIf:-8*=@@@@6,:=q %%q#  %2%%#2#$$##%% ;%vb%#q; =5 uU#;@<,<",
"sssq%%%f*<,8*8*ww@96d0& ;%$$#  %%#%;%%###;;%%;;;%%%b%%# #;% #q-:",
"s01=%Mp@*&,,*$$$@=@6,0*$%%#$@    %%%;%##%;;;;%;%%;u%2 ##%  % %&s",
"ss1q%u%9*&&-,= $t$ #6<@$@%%@@#$  % %;;#$#;;;;;;%%;;2%%##w  #$@-<",
":<<hp;%w8@59@8$ #@8=6*@@@  @$$  %% %;2 @#;;;R;;%%%%%;%### #$##1:",
"<&*#pp##$@w@&=$##@8=$@qw#$$$@@ $  2%; ###2;;;;%%%%#;; %####$pq<:",
"1*#%pq ;%@*==$@##@=#$$ w5$=$@@#$# %;% ## %%2;;%%%% %#  ####$ @>s",
"1@@%%%%%#$,@ $@$$$$$$$$@$ $#$@##$#%;%%##% %%;2% #%##$### #%##=-:",
"<@*%; q%%@=@$ $7$$$$$$ @=$$$$@$ #%%%#    %%%;%;  % #w$$$   #=9<:",
">#@%bp%pq$=@&$==@@$57q$$$$@$$$@$$#T%$ %% %;% %%;%###7==@ #@@*-,s",
"<@*%%;%$7#$t&t=@@@=$ ###5t #@@@ @$  #@;;%%;;; ;;%# 4===7q===<-1s",
":-7#vb#=@#% ==#@@==$$$$##$ $#@@$$#  =@;2%;%%;;%R%$%%#@=@q>*3>*1s",
"s>3qqq#$9#$ 59$@&=$## $  $$ $@@@$ $&@#22;2%%%22%#@#;;#$#*&>&<@,:",
":-& #%$$@@$##@$@t=#  $$  $$   @###9@$ %2;%%%%%2%@&%2% @*&*-&&@=:",
"1##% %w&*@##=@$@@$ %%h# #$$$  $# #@t8$%%;%#%;%##  %%#$$@q&757@=:",
">@ qqq#@=@99=7$@$@###%% %%  ###$  #$8=;;;b%%;;% ##  7#b#a=*# ==:",
">$@###$##@@$=&@ #$###   ;%##$$$$# %#t=%;;;%p%;%%#C  h#; ; ### =<",
"<@-%vw$##@7@==&@$ q###@# #  $$$ w % @$%;%%%#%;%% $  =w%#;   5 9:",
",7@%%5@$@$@7t=$@$  #$#$$ ###$$## % $ %%%%%% %%;% %% =@h %  #  =<",
"3@@;;#@$5@9@&=#@@$###ww##w###9  ;v# # %%;%%%;;%;%%%#$$# #  # #=<",
"> @;;###$#w@,8$9$$$$77# #$###$ ;%$$  ##%% %;;%%;%%;#9w # ; #  =<",
">  ;% #wqq$$@$$@4  #@x# #q###$b;#:,$;#  %%%;%%%%%#q#$# @ # ## =<",
"   @*#aa&*#-@-><*t;q@@@# @*@7&&#7#7@>@@@# Ei## &##7@  ####a##@=<",
"===&-->=>,-1-&>,>:==&=,>>&-,-<>,>=-=&-t&=&=*==&=,>&>=&====>>=-=<",
",>3,1:<><:1<<<11,>3,1:<><:1<<<111<>>>>><,<<<:<:>,1,1<1><,>,>>><:",
"#2%%;%;$%$%% %>,=%%%M%;M%%MuM;%;;%2;$w@%#%%##;#%W;2%%222;;;#;@2;",
"   ;;%  %  %  ><9###; # ;;%u # %;;;;;  ;  %%%%  ;%;u q  #7@#q %;",
"; ;;;       ##1<9  #@#   ;;  ## ;;%# % ## ;##  ;    #####$@#@#%;",
"  ;;; %%#% #  ::&$$$$### 2#@  #  ;%# ; #   @@  2    $# #$=@$$###",
";%  # % %%%#%#1:&@#@#    #### #   ##  #@ % $@#;;$@  ####@@#@w$#$",
"   ## %%%# # #:<=##*@#   @###   ; $#####   ##  #@@  ####@# @##v2",
"## # # % %##  1:8@#5$#@# ### ;; ######### %## #@###$# #$@#$@4$ 2",
"### ## %%### #>1=@$@##@####$%u $### #  #  ;#4###  #$# #$@$ *#$$2",
" ##t  % % #%% =1>@#@@####$# %;#@ ##  #    ; $$#    ####$$@$@#$$#",
"5@@4;  %%%%% #=:>$#@&####$##  ## ##%;  #     #$# ;###@# $@@#$wh ",
"# #%$  #%%  %#>1=##@@# ####@#   $   ;; ##   #### ;#$$@# $@@ $# #",
"#  ;  ###%%#% =:=55###  ##a4@#  ###  ;%##  ;##  #  #@$  @@@#$#  ",
"##  ; %##    %6<9@@$# #@## #4 #$     ; # ;;      @  $# #@@##$   ",
"# %;# ;  # % %=<4##$# $@## $@## #  ##;  %;;% $# ## ;#$  @@# # %;",
" #  %#%% %%%  =<4#@@@#@@# #@@@#  #      ;%%% ####$ ; @$ @@#   % ",
"%#  % %   %   =<=#$#$@@#######    ;;;     %;% ###   ; ##$@ ; %% ",
"; ;   ;   ;   =<=@@#@@###$### ; #%;;      ;   #@#   ##  @$ ; %; ",
"%   ; ;     ; =:=**@@$####### %  %%%%         #$#   ## $# #%  % ",
"     ;    #; #=1=*-@$##$# ## ;;  ;;;;  %       #  %   ##   #%#% ",
"@             =:=$##$@##%##  %  %%  % ;% % %%% %  % % $$4$#   % ",
" #      #     6:=$$###  %  %     %   # #     % ;;  %;@$#6x@# %  ",
"###  #  #     =:=$$$$##        #   ## @   %   %;  % =@   6=@@##5",
"====9===t===6=>s=>=====6====9=====>================4==&=t=======",
"=>><>>,>8>>>%#% ## %;;$>8>>>3>8-*>>>>3<>$;;%%## %#%>>>>>>>->>-<:",
"3399333fg3==&@$$;2$ ;2 $#%;%#$@#%w$#55#$ 2; $2;$$@&=%%%%$$%%G;=,",
"1--**>*g**&@,%$ $;2$$ 2 $=  ## ;;%# %=$ 2 $$2;$ $%,@&#% 2@%;;;=,",
"s--f&*gtg---&,&@$ ;2@$ 2%#=  # %;%# =#%2 $@2; $@&,&---  ;;%; ;=<",
"s---*gg>&,----# =& 22 @  @@@#     #@@@  @ 22 &= #----,&;2u2;%#=<",
"s8---***-&-,&&@0&=;2 2;;;#$@%;222;%#@#;;;2 2;=&0@&&,-&-##  ; *t<",
"s-8--f*-0-&&-&,$2 &$$222 @@ ;2 # 2; @@ 222$$& 2$,&-&&-0-@  %-a>:",
"0<*--8f,000&--&&&&,& %;2; @ 2%%;%%2 @ ;2;% &,&&&&--&000,5####3,:",
"<-*8-8@00000-,&&,=$# ;22;%@ ;;@&@;; $%;22; #$=,&&,-00000@## #--<",
"<gf*->-00000,---@$#  2%;2;$ ; ### ; $;2;%2  #$@---,00000- #@#&><",
"1****-0000000--&&==$ $  ;; #; %;% ;# ;;  $ $==&&--0000000# #7*=<",
"1****-03-0-,,,,3,0=@ #&&= ;$;     ;$; =&&# @=0,3,,,,-0-30-$ #7=<",
"<*f*>0000,--10300,&&%;#@=;%@ ;$ $; @%;=@#;%&&,00301--,0000####=<",
"<@g&*000000100-00-,$%22;2%$=@$=i=$@=$%2;22%$,-00-001000000 ###=,",
"1g**>0000--00,,00-, ;;;;; $=i##-##i=$ ;;;;  ,-00,,00--0000# ##&<",
"<@*>>0000--10,000,&&0,&$ %$=i =,= i=$% $&,0&&,000,01--0000## @&<",
"<t*&*,000---10000di==3,,,-d&@&,3,&@&d-,,,3==id00001---000,@@55>:",
"<g5**,-110-&&-00d=@ $&&,000dd0i=i0dd000,&&$ @=100-&&-011-,#@@@=<",
",@g**00000----00i $&00#@&00000$ $00000&@#00&$ i00----00000#7@&>:",
">*t*600000000000=;=00-$==,0000@#@0000,==$-00=;=00000000000  #@>:",
"<*-*6-0000000000@==&0=-0000000#;#0000000-=0&==@00000000000   #&:",
"<><-6<0000000000-@ ; $&1,0000@;2;@0000,1&$ ; @i0000000000>  ##=<",
"<*>-*>000000001,- $ ; =-,0,=@ ;2; @=,0,-= ; $ d,>00000000>   #=<",
",&-3&&00000000:0&$ $@@#####   ;2;   ####@@$$ $&0,00000000= #  =<",
",@***@,0000000-:&@&i@#;22;    ;2;    ;22;#@=@@&>=0000000, #a; =<",
"<@@@*@-00000003:=-1i#  ;; $&$%;2;%$&$ ;;  #idd=>#0000000>  #t =<",
">@# ##,0000000@<1-,,@  #&,,-;%222%;-,,&#  @d,-3= 0000000-$#3# ><",
">**  #&,000000@><30,&$@&-,,@-Yi=iY-@,,-&@$&,033@#000000>=#q@#;=<",
"<3-==t=<00000031::,1-@&-0,@#=-000-=#@,0-&@-1,<>==000000<==3=3=>:",
":<>>>,><00000:1,>0000&-006===d000d===600-&000<>,1000000:><:1,3>,",
";2@;#;;;***33*;W%=300&,,006=d00000d=600,,&003@%=,:3333>  ;%;%%2#",
" %6q#@7#=>3>*@%;  300,-,000000!(F000000,-,00>##9<<>>3>=%  %;;   ",
" %6@#@$##====   ; =>10-,,-10ryJJBJr01-,,-01,=  9<1====   % ;;; ;",
"# 6$$@=@# #$    2  ,,0--,dN~ernByreN8d,--0,-$$$&::    % %% ;;;  ",
"$#$w@#######  @$;;#3-0,-&@8Neennyre8@@&-,0>=@#@&:1#%  %% %    %;",
" v##@ #4####  @@#  #>00&$#f8eekyyyAf$#$&00>@*##=<:# #  %%%  #   ",
"  $4@$##$# #$###@# #=30-$$hfryJBnyj]  $-0,=$5#@8:1####% % # # # ",
" $$#*  ### #$#  ###4#3>03=@yrkBHBky[#$=0>,##@$@=1># ###%% #####@",
"#$$#@#  #####    #$$ @>>03@geHknyHry=30>>=#@@#@>1= %%    %p ### ",
" hw$###  #@###; #$#   =>>008ykkrkre8-0->=##&@#$>:=# %%  %    ###",
"# #$ #@# #@$$#; ####   =>>30VeHryey08>>=# #@@##=1>#%  % #   %###",
"  #$#@@@  $@#  #  ##;  #=3y>VekereV,y3=#  ###55=:= %#%%###  ;###",
"   $##@@# #$  @      ;; #=@>^eyerey-==##@# #$@@9<6%    ##% ;  ##",
";% #  45  $#; ## #$ %;;%  ;=DjjereA3$ ##@$ #$##4<=% %  p ; #;% #",
" %    ## $@ ; $#### %%%;    lyyrreD@@# #@@#@@@#4<=  %%% %%#%  # ",
" %% ; # ## ;   ### %;%     ;Zjyrrrz######@@$#$#=<=   %   % %  #%",
" ;% ;  #  ##   #@#   ;      Zjyrkj`###$###@@#@@=<=   ;   ;   ; ;",
" %  %   # ##   #$#         %Zjyrnjl#######$@@**=:= ;     ; ;   %",
" %#%;        %  #       %  ;Zjrrrjl ## #$##$@-*=1=# ;#    ;     ",
" %         % %  % %%% % %; %ljyryjl  ##%##@$##$=:=             @",
"  %         %  ;; %         ljyryjl %  %  ###$$=:6     #      # ",
"5###########################zryryrz      ##$$$$=:=     #  #  ###",
"=======t=&==4===============AeyrreA9============s>=6===t===9====",
"s->3>>>8>,>><>>=:<->>->>>NPFrryr/rrFPN>>><3>>>>*-8>3>>>8>,>><>>=",
"G  p#q;;;;;;;;M4,=;G%%$$%% @zryrrez#$####     #   ;2; ;S;22%%@, ",
"66=**<E@$ %%;;;$,=;;;%@2 %;2ljyrrrZ2S2222222222;;;;; 22;;222@>@$",
"6x=*>>@$c#%%;;;h<=; ;%;;  $%ljyrQrz ; ;;##;;;; ;;;; ;  ;;;;#&@; ",
"x==>-&&$ #%%# uh<=#%;2u2;#q ZjyrQez#2  ;;%;2;;;;  # ;#$;; #@4 ;;",
"-@=*57@##  % #u$<t* ;  ###%;ZjyrQem   ;;2uu22222  ;%;;   #@###;;",
"@$@&*@#%%   c;;h:>a-%  @@#%2ZjrrQel;;;; ;222222;# 2;;u22 #$@# ; ",
"7@&@@7 %%% c;2;=:,3####5q#%2mjrrQeZ;;;;;;222222 @ 22u;u);#4@4;;@",
"*@@*5 @%%;2#@;;=<--# ####;;;merrQeZ;;  ;;222222 @;S2;;2246#@=  =",
"5*7@##@  %; -#u$<>&#@#  # 2;merrQem22 ;;;;22u2u%;;22;;; @#@*@@@#",
"#*@@#@&;%  ;* ;$<=*7# #  ;;2meyrQrz ; ;;;;22u;;;;; ;2 @## @*#*@a",
"#@#*@@*     #;;h<=7# $#  ; 2leyrQez$  ; %;222; $;2;;2;$@##*@ ###",
"##@*@@a#  ; # 2$<=##### ; %2leyreeD## ;  ;;2;;; ;;   ; ##@@  @@*",
"$@@>@c# %;   ##=,=##### ;#%;zVyreeK@$# ;;;;%;2;;;#### $@@@@  @@@",
"##@x####C %#; #t<=$# ## # 9 zDrrrel6x4 ;22 # 2; cC#x  @= a@@ #&7",
"=4@@4$#  C V #$=<=@hh$## 'h=Kerrrez6f4ccvv  c%% cCh$##4f$#$$#$@6",
"g@.fx4C#cCCC4xfg<*6hh$xh C'hlerryezVx4C''''''%% C4xx4hxxxx44xfff",
"!XX^^xII'^CC4..!<-g^$Xf^CcC'jjrryej.fIC^''VVK'c+'^fVffffff4..fX.",
"~X(@X.V^DIK^.((F<N!f^X.V^^^^jerryrro.^^'DV.QV^''^.X!!.XXfXVFFXFF",
"(((o(...V^I.(/(PsN~fVX(.V^'nrryrrrrn(.I^D(//OV^^.(N1P~FXFFXPFF/(",
"((((((((...K((/PsNF!F(((Kn.JrrkrryrF((.n./Q/OKVVQ(NNPF~FPFF~FF//",
"(^(m^(D^((m(///PsNF!^((/((n^jynryyr!J((F~(Q/Om^^//~NFFFFFF~~F(((",
"(VK//ooKK.Xo./^(1(!(XX!n^JreHnJrJkJJFrn^r^F^(//(//(!!FFFF!!!XX!(",
"~~N~~~~~NNN~!NF(snoVV.enQJnyJHJJyJHJJneeejkVekQk~~1N~~~N1N~P~~1s"
};
