/* XPM */
static char *GSTGARG[] = {
/* columns rows colors chars-per-pixel */
"64 128 53 1 ",
"  c #5B6347",
". c #53573B",
"X c #3F472B",
"o c #6F7357",
"O c #676B4F",
"+ c #474F33",
"@ c #373F27",
"# c #1F170B",
"$ c #2F2F2F",
"% c #332B13",
"& c #7B7F63",
"* c #272727",
"= c #232323",
"- c #131313",
"; c gray28",
": c #1B1B1B",
"> c black",
", c #533F2F",
"< c #775F4B",
"1 c #67533F",
"2 c #836B57",
"3 c #0B0B0B",
"4 c #434343",
"5 c #43331B",
"6 c #170F07",
"7 c #AF977F",
"8 c #9F876F",
"9 c #A78F77",
"0 c #937B63",
"q c #373737",
"w c gray34",
"e c #2B230F",
"r c gray23",
"t c #4B4B4B",
"y c #8B735B",
"u c gray31",
"i c #3F2F17",
"p c #4B371B",
"a c #777777",
"s c #574333",
"d c #5B5B5B",
"f c #13230B",
"g c #836B4B",
"h c #6F6F6F",
"j c #B79F87",
"k c #9B7F6B",
"l c gray50",
"z c #6F5743",
"x c #4F3B23",
"c c gray42",
"v c #BFA78F",
"b c gray67",
"n c gray39",
/* pixels */
"::::::::::::::::::::::::::::::::::::::::::::::::::::::::::::::::",
":+oOoooo&88&888888lo&&&&88&&888&ooaaoO&8&oOo&oooo&&oo&2y888889+>",
":+o    OOOo  22oo&o  oooo<. oo  .X.X%%.  X#%XX ..XXX%X.X ooo&&+>",
":+o    OOOo <o2o2oo<. o&&  2o <&oX%%%X4..X%+XX..wX%.%X ..X &o +>",
":+oo  2OOooo o22o2o oooo&o ooooo X=X XqX..XXXXX;... X%..X+o&oo+>",
":+&   OOOo&X= &oo22oo..ooooo&O ooX%X..XX..XXX..X%XX  XX.. o   +>",
":so  oO&O2o#6;b& o&&o1 o2222ooo  .$X$X%%XXX4X.XXXXX  XXXX+o ..@>",
":+o  OOoO&o#6&jo.o&o . o&oooo&oXX .$%$%XXX%X....4$. XXw qX   +@>",
":+  .OO o& X.&k2<2&.%%.oooo <o %X o.%$;;X%%XXXX.;X..+. .X. .%X,>",
":+o   OOoOo  o2o222%-.< oo  . .XX...44XX%%X  .X..XX...+X. X%X +>",
":+ooOOOoOOoooooooooX-.&   OO o.X@X...XXXq%.<1XX..XX...XX  ;XX.+>",
":+ooOOOOoOooo2< ooooX.o   ooOo.%*X .%XXXXX o ,  +XXX.... .X*#X+>",
":+oooOO  OOoooOOoOOO.  .       X$X+@$X.+XX.    . o..++....XX#%+>",
":+ooOo OOOOoooOOOoo.$  .     +. +XXX$$X.....  ..Oo..XX.+.X.o$%,>",
":+oooOOO OOoooOOO&O.. OOOO OO..  XXX*$*@X. .  X.   .XX......@X+>",
":+oooOO  OoOooOO& X+ OOOO  OO+X.XXXX*$X@X..+..X. .  .X;  .... +>",
":+oooooOOOOOOoOOO.+. O    Ooo.X.+X$X$$XXXX+++.+  ..  +. o<  . +>",
":+ooooOOOoOooo& +.        X:. X*XX..:#+XXXXXXX.  .+  ..&oX.O  @>",
":+oooooOOoOoooOO.X..@   X#@XXX  X.XXX$#X+........    .o7+>#.& @>",
":,oooOoOOOOoo<OOO.$X&&X=--X. &&& &&  X-- X&&X@....+   &8 >-.&O@>",
":+oooOoO<oOoo OOO #@.O0*O:$+.XX*$X  +*:&*0O @#.. ..  oo&o..h&o@>",
":+ooooOOoOOoooOOO  -@.9$7X$##* O..*:#*X7$9.@-+. .1   ooooooooo+>",
":+ooooooOoooooOOO X-#@XO9O.X.897790 X.&9&X@#-X O 1  ooooooOo2O+>",
":+ooooooooooooOO  >>-#-**X**XXX+.XXX*$X$$-#->>      OoOOoOooOo,>",
":+<ogooOoo<ogoO  X>>>---##*X..&9&&..X*##--->>>X   o OOOOOoo&o @>",
":+ooooooooooooOO ----:##=. O&& XX 0&&..=##:---- .OoooOOooooOo ,>",
":+ooo  oooOOOOO  >#-*@.&.*****.&& **$$*.&.@=-#> .Ooooooooooo<o+>",
":,oooooo <oOoOO X>##**XXX..89X0770X98..XXX**##>X Ooooooooooooo@>",
":,oooo<o <oOOOO #-###* O89787.&88O.7v778&.*##:-# OoOOOoooooooo+>",
":@ oo  oo  OOOOO-:#-$&.+XXX$*#X.XX#*XXXX..O$-#:-.OoO OOooooooo+>",
":,oo  <o<<ooOOOO-#:$+*------>>=.+=>>------*+*:#-.Oo  Ooooooooo+>",
":+oo  oo<oooOO  -$#XX->-:$:->-.9&.->-:$:->-XX#$#.Oo  OOooooooo+>",
":,<oo<ooo<<oOO  ---:-*#*->>--X&77&X-->>-=:*-#---.Oo  Ooooo<o2o+>",
":@<o oo   <oOOO 3#@$*-**#>-## &97& ##->:*$-*$@#3 OooOooooooooo+>",
":+   ooo o  OO  ##+O.X-#$X:>*&097&O*>:X$#-X.O+#*.Ooooooooooooo,>",
":@  o  o    o   @-X070OX#-#XX.0970 XX#-:XO&98X-@.Oo ooo oooooo+>",
":+    o< o      X#X98770&&. ..0970X. .Oo07779X:X+ oooooOoOOo<<+>",
":,    <o <       -#X&&8898&+O087980O.&0988OOX#- +  ooOOooOoo <,>",
":,1.   oo<1.     --#**  O.X>* O&9O $>XOO .$*#-# .OoOO oo   ooo@>",
":@     <o        #--#:*$*:>##-##$#-##>:=$*:#--@ OO    ooo   <o+>",
":@1   <<< 1  .   X##-#--#-->###--###>--#--####X .OO.1 ooo< 1 <,>",
":@       .   ... X#$##:$....$#####:$...+*:#:*#  + o o  o << <<@>",
":@       .     +. 3-*#.&&&o&&&*:*$&&&o&&&.#*-3  .  O< ..... <.@>",
":@..   .  ..  .+. X-*#Xo.+.. ..&......+O&X#$-@ ..1   + .+++...@>",
":@.....1  ......   3#$$X---=$*******=---X$*#> ....++++++++X.X ,>",
":@..1 .   ..1 ..+  X-#**>>>----##---->>>$*#-@ ....++11XXXXX.X *>",
":@..  . 1 ..  ..+   3-$*>>>>-------->>>>=$->......X..XX%%.,iXi@>",
":@.. .. . .. .. .   X3#.>-------------->.#>@...  X@@ .X%%%%%ii*>",
":@   . O  o   .      ->.#----=$*$$=----:.>-...@@X;@@X%=*X%%*%%*>",
":@..     .     O      >#.>##$XX..XX*##>.#>@++@XXX.@%%%=##*%%=%*>",
":@ ...           OO   ->X--:X OOOO.X:--X>-+++@XXXX@%$55##%X$%X=>",
":@ .      .  <    O   X>-*-=X.O&&O.X=-$#>X+XXXXX.4@@$55%##*%XX->",
":+        . o O        X>X-:@ 89&&.@:-X>#XX@$XXX.XX@%@5%%*##%%#>",
":@    ..      OOO  O    >#*-:@o&8&@:-=#3@XX.@XX...X$%5X%#%==X%=>",
":@. .     .oo  OO   O.  X>##--####--##>@XXX.XXX...+555.%-%=#XX*>",
":5  .1.. o  oo OO  OO    X>=*->-->-$=>@X. ..XX...X555X.X#%%#%X#>",
":@  .+..    <o OO         X>###$X##->XXX. ...XX  5XXXX%=@X%#=$:>",
":@   .+. <<  < O .   O .  X@@---#-->X$+.  +X+XX....+XX%=%%%%#%*>",
":@ o .1. o o     .OO      @@@@@@@@XXX... .XXX@X. .++X$%%%%%%%%:>",
":+  ...... oo .    OO   XXX$X@X$$XX.O .....XXX...++XX$%%%X%=$X->",
":@ .......  << .1  <ooO.XX%%+.%XX%X+. ...XXXXXX,..XXXX%%X.$%%%:>",
":@ ...+11   oo .  <<   +%@@@XX%XX%X,.....XX;X%X,,.%%XX%XX%%=#%=>",
":@  ..+..     1    ooo+X%XXXX%XX4.4X;X. .X,.XXXXXX#%.XqXX%==#%=>",
":@ ..+X...      .. o&o+%%$XXXX4;;.4XXX++.. ...X@.%f$X$%Xq%$%%%*>",
":@....XX.  .      <o2 X=%XXXX..X,.;X%.....  ;;44X%%XX%%XX;%%X,$>",
":@   .%%,          oo $=%%X4XXXX..+XX..... ...;X;.XXXXXXXX%%XX*>",
":@   .55,. <   <   oo X=%XX..4;;..+X....X  .. X@.+X. .%%%q%X.X*>",
":*   .XX.1 <o      o&oX%X....w........    <  O .....1.X%%#%XXX:>",
":*..1 .X..  <   1  o&oX%XX o....   +.  o O O  O .  ...+X=-#%X.*>",
":@.......   <<o . <oo1XXXX  ..     .. 1. OOOO OO 1   ..X%=#%XX*>",
":*11.1;,..1 ooo .  oo.X.4X  +.  OOOO  . OOOoOOoOO    ...$#*$$$#>",
":*.XX.,+.      1   ooX%... .   <OoooO     Oo2oooOOO  .. X%%%X%:>",
":*XX5X,+.. o   1   2 XX+.   ooO Oo<OO  O OOoooooOOoO ...XXX%X,*>",
":=X5%XX...     .   o XX,..Oo  <OOoOO    OOooooooOOoO ...XXX%X.$>",
":$XX$$$X+X.          XX .1oo OOooo&OO   OOo&oooOOooO ..X .%X.+*>",
":$XX=%X%*@X  .   Oo XX..; O Ooooo&&oOOO< OoooooOOoOOO .. .XX+.@>",
":@4.%%%f#X%. .  . o.%.1%X OOO2oo22ooo<oo OoooOO <OO   ....X..+@>",
":$XXX%=%%=%XX.  . o %Xw.. Ooooooooo2o OOOO<OOO         1..++..@>",
":@%XX%%%$*=XXX+. oo.#%1<. OoOoo&2oooooOOOO     <<    . .+..X. @>",
"::::#-#36--:-#=*@@@*6#@@@@@++++,+++++@@++@@@@@@@@@@@@@@**$$**@=#",
"3-===:=:-=6-6:6:=3-3---:-=====-666---63-=-36:*=:66---63-=-36:*=:",
"o&Xo.ooo&&&OO&o0O.o..OO.OXt+o&OooOoy2yOOyoOyOOO@:=O OO+O+oOoOO&.",
"oO u.X4.  u 2oOo  OOOO  o  oooooO . 2Ooo . o...r-=  O  O  Ooo   ",
"oO.X.X+.....    o  ..o .. O .Ooo ..  oo   .X.  r-6..       ooo o",
"...++X@+. .+    &  XX   . o .Oo  .  X.& ...++++$33  . O.OO ooo  ",
"+.+tX.XX....  X+oo.X+ O X.  ..   . ....    .X.X$36.O.OOO O .  Oo",
"&z..X .X....  XX.  ..   .....+ o   ...X   .X%..@-3. . .OOO ..   ",
"& +,X+.X+. .+...X. ..O ......... oo ... .X.+;.Xe36  ..O O . . ..",
"&++.% +X+. .+.  ...,.o  .  . ...+ 2O+....X..X+X@6=. ...OO .. ...",
".++.X+X++....    .++ o    .  .. X.oO .+....XX.X=6@ OO. O O  q.. ",
" st+.XX+ .X...o .+.     .  oO.. ..  ..+....$X.+=3@. OOOOO  o,XX;",
". .+ XX+ .X++.o ....   .. oo   +   .X.... .XX..@6=.O  OO.  +O. .",
"  .+.XXX  +X.  .  ..o  ..Oo  ...  .X,w..  ...;;@3@ O.OO...  o  .",
"   +..XX. .+  X      oo . o     +. ,. ..X. .+XXr-5O    ..O o  ..",
"oO . .XX  +.o .. .+ OooO  o..  . ..X+ ..X+ .+..,-@O O .  o .oO .",
" O   .XX +X o +.... OOOo      .  .XXX. .XX.XXX.,-@  OOO OO.O  . ",
" OO o X+.. o   ... OoO     ooo    .......XX+.+.@-@   O   O O  .O",
" oO o +X  ..   .X.   o      ooO. o ...+...XX.XX@-@   o   o   o o",
" O  O. .+ ..   .+.         OOOO  O .......+XX%%@3@ o     o o   O",
" O.O.   ..   O  .       O  oooo  oo .. .+..+X#%@6@. o.    o     ",
" O   .+,++ O O  O OOO O Oo O  OO  O  ..O..X+..+@3@             X",
"  O .Xx5.+XoO  oo O     . .   O     O  O  ...++@35     .      . ",
";..XX@5   X@ O  oO   O   X ..   .        ..++++@3@     .  .  ...",
"@@@@@@@q@$@@,@@@@@@@@@@@@@@@@=@@@@@r@@@@5@@@@@=@>=@5@@@q@@@r@@@@",
">#=*===e=:==-==@3-#==#========#===-======-*====%#e=*===e=:==-==@",
"O.. Oo+@XX===#X :@ocOO++OOOOOoo&OXXO+ .O;O;;.+tO.X+.OoOdd@rtO+  ",
"o&. +X@@X.+*:#%.:@oooOX& O.X#Xo  o  ..o .. O .Ooo ..  oo   .X.  ",
".o +X@@@X.$*=--.-@o oOoo  %%4X;  &  XX   . o .OoO .  X.& ...++. ",
" .%X@5@XXX%%%#6.-@.Oo&2&o.;. X%X+oo.X+ O X.o .. OO. ....    .X. ",
" =@#55@X.%%%%=#X-q% o  ...w  X.XX.  ..   ...o.+ oO  ...X   .X%. ",
".%X=X@XX.XX=-=$%3=w#O  XX. . wu..X. ..O ...Oo.... oOO... .X.+;. ",
".X#. .Xq..$##$$%3:*....;u.    .  ...,.o  . O& ...+ oO+....X..X. ",
"XX%.%#X O+#%pX@%-##. ....oo       .++ o    o&o.. X.oO .+....XX .",
". XX%#X  .%%pXX.-=$.X.  . &.Xw.o .+.     . &&o.. ..  ..+....$X +",
"..XX+%X..4X%%%Xo-@%4. .  oo4$$%o ....   .. &&OO +   .X.... .X ..",
";XXXXX..XqX X=X -@4. +.  o..XXX .  ..o  ..O&oO...  .X,w..  . .;;",
"X..XXX..XX..X%Xo-@..... o  .;X X      oo . &o    +. ,. ..X. .+XX",
"XX.X4XXX%%X$X$. :@... ..o. oo. .. .+ OooO  oo.  . ..X+ ..X+ .+..",
"....X%XXX%$%$. X-$.. .  . $Xo..+.... OOOo  O&O .  .XXX. .XX.XX@@",
".XXXX%%X;;$%.o X-$X ...no  *.4q ... OoO    O&oo    .......XX+.@@",
".X.  X%%XX44...X3=;;XX@o OO.w$X .X.   o     O&oO. o ...+...XX.Xp",
".XX O.%qXXX...X@-@XXX..ooo ..X. .+.         O&OO  O .......+XX%%",
"  , o XXXXX%. X*3=$X4.o&o   w..  .       O  oO&o  oo ....+..+@#%",
".    .XX+.X%@+X%3=X.  oo   o u.     O O  Oo  O&oO o  ....+..@@%#",
"..  .....X%%XXX+3$.   oO     .. .  oo    oo  o&o Oo  ...+..+XX%#",
".X  . .X@$%$;XX -@..   o  O        ooOO  o  o&o o  O... .++.X%*#",
".X..+..X@X%$XXX;-@.      O     .oo  o O   oooOoOOo   ..+X.X.@%##",
"6*#*--:#*@q@@#*-3=@*@*@@*@@@@@@@@@***#**eeeeeeeee*:*@@@*#=###e#-"
};
