/* XPM */
static char *GSTLION[] = {
/* columns rows colors chars-per-pixel */
"64 128 67 1 ",
"  c #5B6347",
". c #53573B",
"X c #3F472B",
"o c #6F7357",
"O c #131313",
"+ c #332B13",
"@ c #232323",
"# c #2F2F2F",
"$ c #373F27",
"% c #474F33",
"& c #7B7F63",
"* c black",
"= c #676B4F",
"- c #1F170B",
"; c #775F4B",
": c #272727",
"> c #67533F",
", c #434343",
"< c gray28",
"1 c #836B57",
"2 c #533F2F",
"3 c #1B1B1B",
"4 c #43331B",
"5 c #170F07",
"6 c #0B0B0B",
"7 c #373737",
"8 c gray39",
"9 c gray31",
"0 c gray34",
"q c #13230B",
"w c #9F876F",
"e c #BFA78F",
"r c #9B7F6B",
"t c #070707",
"y c #AF977F",
"u c #A78F77",
"i c #B79F87",
"p c #574333",
"a c gray23",
"s c #8B8B8B",
"d c #777777",
"f c #6F6F6F",
"g c #8B735B",
"h c gray50",
"j c #979797",
"k c #5B5B5B",
"l c LightGray",
"z c #2B230F",
"x c #939393",
"c c #4B4B4B",
"v c #838383",
"b c #3F2F17",
"n c gray70",
"m c gray78",
"M c #937B63",
"N c gray67",
"B c gray75",
"V c #5F4B37",
"C c #A7A7A7",
"Z c #4F3B23",
"A c gray42",
"S c #836B4B",
"D c #9F9F9F",
"F c #4B371B",
"G c #B7B7B7",
"H c #1F4317",
"J c #6F5743",
/* pixels */
"3333333333333333333333333333333333333333333333333333333333333333",
"3%o=oooo&ww&wwwwwwho&&&&ww&&www&ooddo=&w&o=o&oooo&&oo&1gwwwwwu%*",
"3%o    ===o  11oo&o  oooo;. oo  .X.X++.  X-+XX ..XXX+X.X ooo&&%*",
"3%o    ===o ;o1o1oo;. o&&  1o ;&oX+++X,..X+%XX..0X+.+X ..X &o %*",
"3%oo  1==ooo o11o1o oooo&o ooooo X@X X7X..XXXXX<... X+..X%o&oo%*",
"3%&   ===o&X@ &oo11oo..ooooo&= ooX+X..XX..XXX..X+XX  XX.. o   %*",
"3po  o=&=1o-5<N& o&&o> o1111ooo  .#X#X++XXX,X.XXXXX  XXXX%o ..$*",
"3%o  ==o=&o-5&io.o&o . o&oooo&oXX .#+#+XXX+X....,#. XX0 7X   %$*",
"3%  .== o& X.&r1;1&.++.oooo ;o +X o.+#<<X++XXXX.<X..%. .X. .+X2*",
"3%o   ==o=o  o1o111+O.; oo  . .XX...,,XX++X  .X..XX...%X. X+X %*",
"3%oo===o==oooooooooXO.&   == o.X$X...XXX7+.;>XX..XX...XX  <XX.%*",
"3%oo====o=ooo1; ooooX.o   oo=o.+:X .+XXXXX o 2  %XXX.... .X:-X%*",
"3%ooo==  ==ooooo&ooo.> .       X+X%$+X.%XX.    . o..%%....XX-+%*",
"3%oo=o ====oooooo&&.+  .     %. %XXX++X.....  ..oo..XX.%.X.o#+2*",
"3%ooo=== ==oooooo1o.. ;ooo o;..  XX<#+#$X. .  X.   .XX......$X%*",
"3%ooo==  =o=oooo1 X% oooo  oo9,.<XXX#+X$X..%..X.>.  .X<  .... %*",
"3%ooooo======ooo;.2. o>   o&&.X.9X7X++<XXX%%%.%  ..  %. o;  . %*",
"3%oooo===o=ooo1 2.    >>  o,8vjCmywy--2XXXXXXX.  .%  ..&oX.=  $*",
"3%ooooo==o=ooooo.X.   >== 8Dr11O-0i1l8.X%...$4...    .oy%*-.& $*",
"32ooo=o====oo;oo;.> =o#s8<8y&jOOO*8O<rCj80  .X....%   &w *O.&=$*",
"3%ooo=o=;o=oo ooo  =osN+-Od8sXO#:-,8<71s,jo .... ..  oo&o..f&o$*",
"3%oooo==o==ooooo;;;8v80Xo,O*t,#1vhXO-O*h,>7d 2.>.>   ooooooooo%*",
"3%oooooo=ooooooo=V@-Xx3@:@OO@O @*X@@@-5X0@7@V2>;>>  oooooo=o1=%*",
"3%ooooooooooooo=>X@O*98k@O@q$@93O-@X##@O@&98OO-o    =o==o=oo=o2*",
"3%;oSoo=oo;oSoo .#qOOtdOO#@+,@9,@9+8@8XO*5 OOq@#  o =====oo&o $*",
"3%oooooooooooo=>%,qO3On@3@#,. *f9r.f8 ,-OO,*5O-:.=ooo==oooo=o 2*",
"3%ooo  oooooo  .@9:@#,s-+X8oosx&uyyuwo.X+#htOOO+p=oooooooooo;o%*",
"32oooooo ;ooooo@@# 807-@#98wiiinnneeey1 .-&,Oq@@>=oooooooooooo$*",
"32oooo;o ;oooo;@ ..,#:@@, rreeeeyeeiuwo;X:5#9#,#>=o===oooooooo%*",
"3$ oo  oo  oo  @#7-Oq#X#8dryeeeyuiuyuuM X##@@+<,.=o= ==ooooooo%*",
"32oo  ;o;;oo  >a@9,qOO#>eeeeeyrriyriueeBv<,OO@@@.=o  =oooooooo%*",
"3%oo  oo;ooo  >+@qO@@@@--2reu.;;Mr>1uyr;.@+@$O-#.=o  ==ooooooo%*",
"32;oo;ooo;;oo; FO@9@@@O+#@*-#--, ,*<.+5@#O:+Xc#@.=o  =oooo;o1o%*",
"3$;o oo   ;o o XO##OOq@@O:@Ot*fGBl#*OOOtqOO+@O:7>=oo=ooooooooo%*",
"3%   ooo o   o $O@OOqqO.#8,:O@seeB8Oq@<-+-qOOOO+.=oooooooooooo2*",
"3$  o  o    o .$OO@#@@O8o  XojeyeyNx#,9.f+-:@@$O.=o ooo oooooo%*",
"3%    o; o     %q@#O3@O#  sy.5t47+*@rw8  $O+O@#@% ooooo=o==o;;%*",
"32    ;o ;    >XO@O#qqOO5*rwo8h@O9o0r&O-qOO@@5@O%  oo==oo=oo ;2*",
"32>.   oo;>.   p@@O-qOOOOO,+4X +-0#@@#OtOOOO+OOOp=o== oo   ooo$*",
"3$     ;o      ;OO#X#@OOOO0qqO@OO@q-@@@OOOq@@@O#o=    ooo   ;o%*",
"3$>   ;;; >    ;@#<OO@@@O*<OOOOO@OOOO:5OOO-+#,-O.==.> ooo; > ;2*",
"3$       .      O,@#q@OqOO+OOq*t**OOO@OOO-O*@oO@% o o  o ;; ;;$*",
"3$       .    >%O@OO$:O@@O+@*t6tt6t*@@OOO@-,*X+$.  o; ..... ;.$*",
"3$..   .  ..  .%+OO,#@++OO@#***tt***#OOOO#5 #O+X.>   % .%%%...$*",
"3$.....>  ......$t@@OO@#O-@,O*6OO6*O,OO@@OXX@O$...%%%%%%%%X.X 2*",
"3$..> .   ..> ..%O@$q:OO@O* @,O++O,@ qO@q-qOOO$...%%>>XXXXX.X :*",
"3$..  . > ..  ..%$@@+$@:@OOXo0#99#0oXOqOOq:OO6   .X..XX++.2bXb$*",
"3$.. .. . .. ..>.XO-O@Oq@6+8lmerreml8#@@OO@@#:X> X$$ .X+++++bb:*",
"3$   . =  o   . >.X:O@OO@O#:%45**-2 O@@-+@5O@#$$<<$$X+@:X++:++:*",
"3$..     .     o >>7@@qO@3@#O9O*O,#O:#qOOXO3:$XX,.$+++@--:++@+:*",
"3$ ...           =ooOOO#:qO+O@@OO@qt@O#:-OO@$$XXXX$+#44--+X#+X@*",
"3$ .      .  ;    o>7OOOOO+#O@O@O@OO@+<XO@@:+XXX.,$$#44+--:+XXO*",
"3%        . o ;     .$@3#@X:@@O*O+OO-@<Xq#$$+XXX.XX$+$4++:--++-*",
"3$    ..      ooo  o %qO.7.-*-@OOO#@OO@<$$%.$XX...X#+4X+-+@@X+@*",
"3$. .     .oo  o=   o.$+XX-OO,#,O@*O@O-aX. .XX<...%444.+O+@-XX:*",
"34  .>.. o  oo oo  ;o X$OOO*x,+OO.#7:-*7. ..XX...X444X.X-++-+X-*",
"3$  .%..    ;o o;     .X#O*O+*5*O@O-:O7X. ...XX >4XXXX+@$X+-@#3*",
"3$   .%. ;;  ; ; .   o .$+**,#tt@**3:7%.  2X%XX....%XX+@++++-+:*",
"3$ o .>. o o     .oo    X:#+X@O*q*-7X... .XXX$X. .%%X#++++++++3*",
"3%  ...... oo .    oo   XXX+X.X++XX.= .....XXX...%%XX#+++X+@#XO*",
"3$ .......  ;; .>  ;oo=.XX++%.+XX+X%. ...XXXXXX2..XXXX++X.#+++3*",
"3$ ...%>>   oo .  ;;   %+$$$XX+XX+X2.....XX<X+X22.++XX+XX++@-+@*",
"3$  ..%..     >    ooo%X+XXXX+XX,.,X<X. .X2.XXXXXX-+.X7XX+@@-+@*",
"3$ ..%X...      .. o&o%++#XXXX,<<.,XXX%%.. ...X$.+q#X#+X7+#+++:*",
"3$....XX.  .      ;o1 X@+XXXX..X2.<X+.....  <<,,X++XX++XX<++X2#*",
"3$   .++2          oo #@++X,XXXX..%XX..... ...<X<.XXXXXXXX++XX:*",
"3$   .442. ;   ;   oo X@+XX..,<<..%X....X  .. X$.%X. .+++7+X.X:*",
"3:   .XX.> ;o      o&oX+X....0........    ;  = .....>.X++-+XXX3*",
"3:..> .X..  ;   >  o&oX+XX o....   %.  o = =  = .  ...%X@O-+X.:*",
"3$.......   ;;o . ;oo>XXXX  ..     .. >. ==== == >   ..X+@-+XX:*",
"3:>>.><2..> ooo .  oo.X.,X  %.  ====  . ===o==o==    ...#-:###-*",
"3:.XX.2%.      >   ooX+... .   ;=ooo=     =o1ooo===  .. X+++X+3*",
"3:XX4X2%.. o   >   1 XX%.   oo= =o;==  = ==ooooo==o= ...XXX+X2:*",
"3@X4+XX...     .   o XX2..=o  ;==o==    ==oooooo==o= ...XXX+X.#*",
"3#XX###X%X.          XX .>oo ==ooo&==   ==o&ooo==oo= ..X .+X.%:*",
"3#XX@+X+:$X  .   =o XX..< = =oooo&&o===; =ooooo==o=== .. .XX%.$*",
"3$,.+++q-X+. .  . o.+.>+X ===1oo11ooo;oo =ooo== ;==   ....X..%$*",
"3#XXX+@++@+XX.  . o +X0.. =oooooooo1o ====;===         >..%%..$*",
"3$+XX+++#:@XXX%. oo.-+>;. =o=oo&1ooooo====     ;;    . .%..X. $*",
"3333-O-65OO3O-@:$$$:5-$$$$$%%%%2%%%%%$$%%$$$$$$$$$$$$$$::##::$@-",
"6O@@@3@3O@5O5353@6O6OOO3O@@@@@O555OOO56O@O653:@355OOO56O@O653:@3",
"o&Xo.ooo&&&==&oM=.o..==.=Xc%o&=oo=og1g==go=g===$3@=k==   o=o==&.",
" =49.X,.  9 1o=o  ====  o  ooooo= . 1=oo . o...aO@  =  =  =oo   ",
" =4X.X%.....    o  ..o .. = .=oo ..  oo   .X.  aO5..     = ooo o",
". 4%%X$X. .%    &  XX   . o .=o  .  X.& ...%%%%#66    = == ooo  ",
"%.%cX.......  X%oo.X% = X.  ..   . ....    .X.X#65.=  == =    =o",
" J..X .2....  XX.  ..   .....% o   ...X   .X+..$O6. .  ===  .   ",
"  %2X%..%. .%...X. ..= ......... oo ... .X.%<.Xz65....= = . . . ",
" %%.+  ... .%.  ...2.o  .  . ...% 1=%....X..X%X$5@. ...== .....X",
".%%.X.  .....    .%% o    .  .. X.o= .%....XX.X@5$ ==    =k ... ",
" pc%...  .X...o .%.     .  o=.. ..  ..%....#X.%@6$. ==  =    ...",
". .% .X. .X%%.o ....   .. oo   %   .X.... .XX..$5@.=  = .   =...",
"  .%.XXX  %X.  .  ..o  ..=o  ...  .X20..  ...<<$6$ =.==...  o...",
"   %..XX. .%  X      oo . o     %. 2. ..X. .%XXaO4=    ..= o  ..",
"o= .  2<  %.o .. .% =oo=  o..  . ..X% ..X% .%..2O$= =  k o .o= .",
" =    .. %X o %.... ===o      .  .XXX. .XX.XXX.2O$  === ==.=  . ",
" == o . .. o   ... =o=     ooo    .......XX%.%.$O$   =   = =  .=",
" o= o  .  ..   .X.   o      oo=. o ...%...XX.XX$O$   o   o   o o",
" =  =   . ..   .%.         ====  = .......%XX++$6$ o     o o   =",
" =.=o        =  .       =  oooo  oo .. .%..%X-+$5$. o.    o     ",
" =         = =  = === = =o =  ==  =  ..=..X%..%$6$             X",
"  =         =  oo =           =     =  =  ...%%$64     .      . ",
"<............................   .        ..%%%%$6$     .  .  ...",
"$$$$$$$7$#$$2$$$$$$$$$$$$$$$$@$$$$$a$$$$$$$$$$$$*@$4$$$7$$$a$$$$",
"*-@:@@@z@3@@O@@$6O-@@-@@@@@@@@-@@@O@@@@@@O:@@@@+-z@:@@@z@3@@O@@$",
"A  k.9oooooooog23$oA==%%== X.%.:#X#.%....     .   o&o owo&&==X3 ",
"44$++OHX% ==ooo%3$ooo=X& =o&o&w&o&&&w&&&&&&&&&&ooooo &&oo&&&X@X%",
"4Z$+@@X%>.==ooopO$o o=oo  %=.. XX . o oo..oooo oooo o  oooo.#Xo ",
"Z$$@-##% .==. 1pO$.=o&1&o.9 o .XX,+.&  oo=o&oooo  . o.%oo .X2 oo",
"-X$+<,X..  = .1%O7+ o  ...=o& ++XX    oo&11&&&&&  o=oo   .X...oo",
"X%X#+X.==   >oop6@0-=  XX.=&1X-+.X oooo o&&&&&&o. &oo1&& .%X. o ",
",X#XX, === >o&o$63:....<9.=&.-X.+Xooooooo&&&&&& X &&1o1ro.2X2ooX",
"+XX+< X==o&.Xoo$O--. ....ooo.+X.X.ooo  oo&&&&&& Xow&oo&&24.X$  $",
"<+,X..X  =o -.1%O@#.X.  . &o.+$X...&& oooo&&1&1=oo&&ooo X.X+XXX.",
".+XX.X#o=  o+ o%O$+,. .  oo&X+$$X . o oooo&&1ooooo o& X.. X+.+X0",
".X.+XX+     .oopO$,. %.  o & ++44XX%  o =o&&&o %o&oo&o%X..+X ...",
"..X+XX0.  o . &%O$..... o =& :XXX4$.. o  oo&ooo oo   o ..XX  XX+",
"%XX@XX. =o   ..$3$... ..o.=o%-X X++X.  oooo=o&ooo... o%XXXX  XXX",
"..XX. > &  .o .7O#.. .  . a +-X..+++%= o&& . &o  .%   X7 0XX .#,",
" 9XX.   o   oX7%O#X ...8o  =XX$0 +X Xo.o&o  oo&oo=X+. .X. .%..X<",
"o.2>    o=     %6@<<XX$o =oso<+X.. &&XX.oo=oo=o&oo X+X .X%...XX.",
"=...  = o==  =o%O$XXX..oooor&X-. X.owo+$=oooooo&oo.XX<  XX...XX.",
"=;. =o= o== ==o%6@#X,.o&o =&oXX o.. oo.X =o1o o&ooX-:X. ....XXX%",
"==  =o===== =o=%6@X.  oo  =&o=.+%o X. =.Xo&&ooo11o+-XX....%%..o ",
"= ==oo=;   o==o%6#.   o=  =oo= %.& .. = .o&o o1&&=+#o.X.%.XX..oo",
"=;=oo=oo== =ooo%O$..   o  =o= . .o%+ =. o.&o oooooX$......XX.   ",
"= =oo=o=  =ooo %O$.      === ..X+.$+. ===ooo oo oo ....  <X.  . ",
"$$7$4$$$$$$$2$$@6@$:$:$$:$$$$$$$$$:::-::$:::$$$$::3:$$$:-@$%a:-O"
};
