/* XPM */
static char *GSTSATYR[] = {
/* columns rows colors chars-per-pixel */
"64 128 71 1 ",
"  c #5B6347",
". c #3F472B",
"X c #53573B",
"o c #332B13",
"O c #6F7357",
"+ c #373F27",
"@ c #1F170B",
"# c #474F33",
"$ c #232323",
"% c black",
"& c #67533F",
"* c #131313",
"= c #7B7F63",
"- c #170F07",
"; c #272727",
": c #2F2F2F",
"> c #775F4B",
", c #533F2F",
"< c #676B4F",
"1 c #434343",
"2 c #43331B",
"3 c #836B57",
"4 c gray28",
"5 c #373737",
"6 c #9F876F",
"7 c gray34",
"8 c #1B1B1B",
"9 c #937B63",
"0 c #0B0B0B",
"q c #3F2F17",
"w c #836B4B",
"e c #9B7F6B",
"r c #070707",
"t c gray39",
"y c #775F3F",
"u c #13230B",
"i c #AF977F",
"p c #2B230F",
"a c #8F7753",
"s c gray31",
"d c #BFA78F",
"f c #675333",
"g c #574333",
"h c #9F8363",
"j c #8B8B8B",
"k c #5B5B5B",
"l c #6F6F6F",
"z c #8B735B",
"x c #7B634F",
"c c #17330F",
"v c #6F5743",
"b c #A78F77",
"n c gray23",
"m c #4F3B23",
"M c #777777",
"N c #CBCBCB",
"B c gray75",
"V c #838383",
"C c #4B371B",
"Z c #B79F87",
"A c #FFEBDB",
"S c #B7B7B7",
"D c #9F9F9F",
"F c #979797",
"G c #939393",
"H c #533F1F",
"J c #5F4B37",
"K c gray42",
"L c #4B4B4B",
"P c gray50",
"I c #0B1707",
/* pixels */
"8888888888888888888888888888888888888888888888888888888888888888",
"8:tk =OktOO  OOO  <OOt 7  6j666iiiiiiii6iiiiii6==66==V666O<< <#%",
"8+X  Xo@@4Mt:o<#@oo Xoo:o$1 o$X    X OOO66OO=OO XXOO< XX >  O +%",
"8-o.+o.1@.X..O @*oo4#.X.$o7O+oX XXX.#OO=jOo#6OOX.XO==X.X  .,.5+%",
"8%uoo..@oXo-$MO1.:o:X >X;oXX.#   X+#X   = o.3X.X XX   X>.@ot@@#%",
"80.1 souo11$*...XX.@@XXo$o1 7X  <oc#  4X <O=>2. O >O& =&o; i<X+%",
"8*O s  X71X1$**$XO.$5.oo:$.X;  +##@. X@@1 ==OOO   OO OOo@. >..#%",
"88 Xs O6O...o$.XO +oX.$$$o .-.o@.#o.X.rro Ot  X4XXX  X7+*@#OXs#%",
"88:o X =OX#4+o+7OX. X:.XX.:oo.ooXX@$oo*@XO <OX@*o..OOX<=X+XOOOn%",
"8@o.Xoo O  OXo, X.7tO o*o.;@o.oo 4@**ppoXX&&X#+o4+oXX OOO>  O +%",
"80@$o.# O>.oX1oX15   t.%+#g.oo.5:o$*8oo++..##XX#++@  X.O==OO3X+%",
"8-u--@. O X:.o@...1oo 4ng X.+oo++++oo+.X gn4 oo1...@o.:X O =O +%",
"80**o.##O X&.oX,,,,OO, &v &#.#,++++,#.#& v& ,OO,,,,Xo.&X O# O=#%",
"8%*$.o++o2..,,.oX..  && <>&+#.O####O&#+&>< &&  ..Xo.,,..2o+X =+%",
"8-$o.,f+..,,2.+2,o,#&& <<jO&X..X>>X  X&Oj<< &&#,o,2+.2,,..+ O.r%",
"8@X4o& ,..#&X#+2&>X,Jv>O =e XX..  XXXX e= O>vJ,X>&2+#X&#..,XX7:%",
"8+XX. X&XXX &#+2&>X,,,>O =e XX..  XXXX e= O>,,,X>&2+#& XXX&X.X+%",
"8+X  >   &  <&#. > #o&6e& = ..++##++.. = &e6&o# > .#&<  &  X  #%",
"8+X  X& >   x  XX&>&+yh3&  ,oo..++..oo,  &3hy+&>&XX  x   > X X;%",
"8+  &&& O   >>O  #   <yOOXo@o&3=OO=3&o@oXOOy<   #  O>>   O XoX+%",
"8+XX   #O>  OOwO>  &O # #@+#Ob66hh66bO#+@# # O&  >OwOO  >O#XX +%",
"8+.X<<<<9=O>3a66= , O Xo@ O>O==hhhh==O>O @oX O , =66a3>O=9<XXs+%",
"8--X<<<O=99z3=669 +#  oo OO>O=w=99=w=O>OO oo  #+ 966=3z99=OX X+%",
"8;oX <&O==999====&2++2>>>OOOOwO3==3OwOOOO>>>2++2&====999==OX s+%",
"85sX&vxOO3z9eOa9O#ff-&9#> &>3O>O99O>O3>& >#9&-ff#O9aOe9z3OOXX.+%",
"8+XX xxwffO9haO=O  @o6 .O # ==yO==Oy== # O. 6o@  O=Oah9Offw XX+%",
"8+XXyx<<w y9aaOy =,*O=X+#   O=OOwwOO=O   #+X=O*,= yOaa9y w<  Xo%",
"8+X.XxO<wyO3  && 3.@X=or>O OO3=O>>O=3OO O>ro=X@.3 &&  3Oyw<s X:%",
"8+XX ww>w&O3&   3 @.OX-- +X==3ww  ww3==X+ --XO.@ 3   &3O&w>X X+%",
"8+&&  O>O     OO=#@,X=#%-O=OO3Oy  yO3OO=O-%#=X,@#=OO     O>XXX+%",
"8+ &wO< >O>X OOO6&-@oX2%-..o@oOO  OOo@o..-%2Xo@-&6OOO X>O> X.4+%",
"8+   < .&y &>=OOi&-*@o-@5.1O @.=OO=.@ O1.5@-o@*-&iOO=>& y&.X.#;%",
"8+X <<&O# >&&33ed#-o2o-@.e=X.5X    X5.X=e.@-o2o-#de33&&> #OXXX+%",
"8+X<OO+o#  #.>3iip-@@;@%%.Zh2@@o++o@@2hZ.%%@;@@-pii3>.#  #o&X #%",
"8+X O=&##O ,XO3O .X$%-@@r%Xd6+--@@--+6dX%r@@-%$X. O3OX, O##  X;%",
"8+  << XX>X# 99-@BN:-%*778%=B6 #OO# 6B=%877*%-:NB@-99 #X>XX X.+%",
"8+XX   &XX.# 96-%.NX%%*eVX*-6S##==##S6-*XVe*%%XN.%-69 #.XX& oX+%",
"8+.X& & .2.#>9b.%%4 :%%;@p@%$G .  . G$%@p@;%%: 4%%.b9>#.2. &OX+%",
"8--X&&  ,... =3o;o%5l-%%%*r%%$o;;;;o$%%r*%%%-l5%o;o3= ...,  Xs+%",
"8;oX&&X X#.X>eM$.7%$.-@%%@%%%%%@55@%%%%%@%%@-.$%7.$Me>X.#X   s+%",
"8+XXX&  X##X&==>o-%2@%;X.o@-%%%XAAX%%%-@o.X;%@2%-o>==&X##X  XX+%",
"8+X &&&>.X#&XOahf%r,*%5=lt.$%-:7dd7:-%$.tl=5%*,r%fhaOX&#X.>O. #%",
"8+X   &O.&,&  a=Oo%;*%-.OFj&%.e dd e.%&jFO.-%*;%oO=a  &,&.OX X;%",
"8+    O  XoX  3OXo@j#%%@ ==+-o#XiiX#o-+== @%%#j@oXO3  XoX   oX+%",
"8+XX&v&  &.&  OO.*XD@-%%@o#@%p&1ee1&p%@#o@%%-@DX*.OO  &.&   X +%",
"8+.# > & && > > +-. @o%%%%+@-6>.jj.>6-@+%%%%o@ .-+ > > && & Xs+%",
"8-o.&  &XX > >O>.%-o$.*%%@iOoo@1bb1@ooOi@%%*.$o-%.>O> > XX& XX+%",
"8;+.X   X& > > & +*-*to%%.dX$%%c66c%%$Xd.%%ot*-*+ &XXX> &X & s+%",
"85sXX  XXX&    &XX+$%O.%-o2%-@%%@@%%@-%2o-%.O%$+ << XX &XXX&X.+%",
"8+XX&& XX X&    O&=7@1o@;*%%%%$$%%$$%%%%*;@o1@+= <X&X#&X XX XX+%",
"8+XX&&X#X&X&> <<OO= @.o@*%%--%*$%%$*%--%%*@o.@ =<& XX&&X&X#  Xo%",
"8+X.&&&&XXX&   <OOe @.o@@r%@ -%%--%%- @%r@@o.@ e=< X&&&XXX&  X:%",
"8+XX&&&&&X&    <<<=#@2o@@-%-d %%%%%% d-%-@@o2@#=<< X&& &X&&  X+%",
"8+&&&&X&&X  &  <<<3.$oo$***%;3O*%%*O3;%***$oo$.3<< &XX  X&& XX+%",
"8+ & &&XX&   &  <<O.@.o@*$*%-oOX::XOo-%*$*@o.@.O&& &#X  &XXX.4+%",
"8+  &&XX#& &&&X   >o@ ;@*%%%oou@oo@uoo%%%*@; @o> X& &X& &#XX.#;%",
"8#   &XX& &X &&XX&>.;X@@$-%%==-%%%%-==%%-$@@X;.>&   XXX& &XX.o;%",
"8#   &XXX   &&XX#&>Xoo@@**%%t=  XX  =t%%**@@ooX>& X#XX   XXX..;%",
"8#O X&#XX#X &&XX& &.o4$*%%%%oX#....#Xo%%%%*$4o.&.&X.,, X#XXXX1;%",
"8#=O  &,,.X&.&#XX Xo$Xoo-%%%%o;%--%;o%%%%-ooX$oX+.#XXX&X.,,   +%",
"8+OO O XXX#.+&##X##@@$$X-;;%%%%%%%%%%%%;;-X$$@@#&&X#.+.#XXX<  +%",
"8+ O<< X,#..,##&#.,2-%@=-.5%%%%%%%%%%%%5.-=@%-2,.#&&#,..#,X<  +%",
"8: << X#.#,,.,###+.2@%-#-5.**.*%%%%*.**.5-#-@2::@o.qqqo..2.####%",
"8;X  X..+.,,.,...2.ooor%%,:-@X@%%%%@X@-:,%%r2qq.o;@@ooq...X#XXo%",
"8+XXXX#.o++,q.+++oo;;.$%% :%*:$*%%*$:*%: %%$:o.q@o$$o+q1..X..X4%",
"8+XXX#.+ooo+qq+++@@@@o;r-;%*lt@%%%%@tl*%;-r;..qq*o$@.q.XX....#.%",
"8;XXX.++2qoo@qq+@@@@@@$$@%%:=Xou**uoX=:%%@$$.qqq+.o@::qoXX,.#X.%",
"8:..55++22qoqqqo@@$;$@$4X@@X :o@oo@o: X@@X4$q..oooooo.qq. X.XX.%",
"8+1XXo+.+ooo;;@$@@@@*:++++#.+;p@@@@p;+.#++++#qqoooooo:oqqq..44X%",
"8+..77..++o$;::;;oo+X+++..#..+oo@@oo+..#..++...o.X:oo;@o;$q.XX#%",
"8:1XX  X.Xo;+++5++++.....o###X++..++X###o...o..o.oo$o5oo@oq#X..%",
"8;.1XX X4X+o+++1XX1,,#X#..1XX.++..++.XX1..#XoX.5.o$$q5:oo;oqX#X%",
"8;..X  XXX1+++o.so.X&..XX1.11.++++..#,& &.1X..oo.4ooqqqooo$ooo.%",
"8@o:XXX  X.++.11X1.XX.o+...X4.++.:...,g&  XX......oo.q4.:o@.o@.%",
"8;.o.#X  X.:o...1.:.....11XX1..:$$.....XXX XX Xoo5o..q...o$$@o+%",
"8;.o@.XXXX.oo.:::.:o+.1.11X1$o1.:1.:.5.11XXXXXX#$*@oX..X.o.;@;o%",
"8:X.:....41:o5:;o;$+..::.XX1o:X11.oX7444XX4.  XXo$@o..+X..#@@@o%",
"8+14X15......5.o$$o:5::1 X...:oo.o@1.5XX&X5o  XX:@;::oo....@@@o%",
"8+XXXX:o1..1.5:$$;:o$.X14:o.4.o::$o1X1.14XX4O XX...o,.X....@$$o%",
"8p+++++88$;:$8@888888;;::@8:::;@@8++;$;:;$;25$;5++:;;:++++++;;$%",
"0*$$$8$8*$-*-8-8$0*0***8*$$$$$*---***-0*$*0-8;$8--***-0*$*0-8;$8",
"O=X<<333<<<<OOOO3<<z3O< <   #<t 71X#4.#X1#XXkkX88$<k<<   O<O<<=X",
" <2O  XO X < XOO X< O   XX  X.o14o.ooo;@$oooX1.;*$  <  <  <OO   ",
" <2=  .    O XO  X .X XXX####.2..oqqq.o@:::o...;*-XX     < OOO O",
"X 2X <X   XXXX O  XXX   XoXX#X...qoo@@;o.qq..X.;00    < << OOO  ",
"#X#.X X< XXXXXXX O XX X.X4X..X..1q+o$$o@q.o:XXX;0-X<  << <    <O",
" <XXXXXO    X XX# <#XXX.X.#....XX.q.@$o*qq..XXX:*0X X  <<<  X   ",
"  #X#X      O<X XX XXXXXX.X#.,XXoq::@o.+qqq..& ;0-XXXX< < X X X ",
" ##XXX   X OO  #  X.XXX X.XX.X .qq.oooooo..qXXX;-$X XXX<< XXXXX.",
"X##  XO  X<O  XX  .,7X& XX44..qqqo:ooooooqq#X X;-+ <<    <k XXX ",
" gL X#<OO< OXX X<X.# X.# #XX.q$;o@;oo:X.o...XX,;0+X <<  <    XXX",
"X XXXX<<<O    X  X..XX..X..X#qo@oo5o$oo.o..oX,,;-$X<  < X   <XXX",
"  XXX O<<   OO    XXXXX..X#Xqo;oo:5q$$o.5.Xo...;0+ <X<<XXX  OXXX",
"   #X O<<   <<<  <XXXXXX#.ooo$oooqqqoo4.oo..o.1:*2<    XX< O  XX",
"O< X  OO    OO<  O XXX#XX.@o.@o:HCqqoo......X4.:*+< <  k O XO< X",
" <    O<  O   O< O XXXXXX+o@$$o.ggCqqo5ooX X#X+;*+  <<< <<X<  X ",
" <<  <<<    OO<O  XXX X#Xo;@;.o.XgHCo@*$#XXX X .*+   <   < <  X<",
" O<O   <  OO <<<O  XX X#Xo@@c#..Xg..o@$oXX  & O.*+   O   O   O O",
" < O    <<OO <  OOXXXXXX#o@@c....gm.:;@:XX    O.0+ O     O O   <",
" <X  X X < OO       XXX##o$c2...gX.mo$C.XX OO3O.-+X OX    O     ",
" <       O OO OO    # XXX+;2+ XsX#m.o:..XX OO=O.0+             .",
"  <     OO OO OO & X## XXo2+.XXXX...moX XX OOOO.02     X      X ",
"4XX           <    XXX...oo# XXXX..#m:XXX   O> .0+     X  X  XXX",
"$$$+++++++++.++++++:+;@@*@;+.+++;+++::++++++++++%$+2+++5+++n++++",
"%@$;$$$p$8$$*$$+0*@$$@$$$$$$$$@$$$*$$$$$$*;$$$$o@p$;$$$p$8$$*$$+",
"<<k4.+;+4;;;nn;;8::X OOPOzO= >Kzz<<<O9=z93OOOzOOOOOOlOOOOOO tKOk",
" .@o-***-%%%%-*-8:@O&XXXX X .  7O  X OO>O> ..  >>=OOO O X&#X Oo@",
".X.o@**o$r%%-%-%*;o:XXX.# X+#   < <O<XO O=.oXO>O=O<<<<OOOX.XO ;;",
"XX.@$$$u;o-%u-%%*;Xo#@ .X .@ #OX O O=##O= @< OOOO=O<<==O=X.XO.@2",
"XX.1;;:::5--@%*%*@ooo.XX. X.OXXXOO X   OOXoO 3 OO==O>=OO=...Xc2.",
"##XX+ouu@1**$*%%0@@@$$X.XXXXX 5>OOO  O= 6Xo#X  OOOOOOO=O#Xo..s.,",
"@XXXX+ou@..****r08-@.-o..oX X. . OOO  O,O&@so.  O<O=OXXO..X ..X.",
"$  XX.mo.X.o--***-**@u;*:+##X X.  OO   XO.oXo#< O O=O#X .X.X.XX4",
"X X Xoo.41$$*-@**-o**$**.*X.o X2XXXO  <<=O..X=O.OOOO= :. XXX.X.X",
" ,  Xo5 .1+$uo:-*0@*u****-++. X7  XO <O===oX.O=.<OO>=Xo. XXX.X.X",
"XXXXX41.X4X.*:.-*I*@@@**@*o X ..@ #OXX<O=O < #  O=OOO#c.XXX4XX  ",
"X X 4oX.XX.o*o$**-@oXo@$o$1o   oo X .  <=<<  . XOO O=.. X#.X   X",
"XXsX7X.#XX.$@u@*8-$. #.o.Xo*;.XXXs. XX OO .X.XOOO=OOO   >#XXX X#",
"XXXX  ..4X.o.o.-*@o.XXoo X.$o@.1X X....O .11 . <OO=OO Oo@  X X+.",
"XXXX<XX..XX;%1o**+oo1 $oOX#o:$.XXXX.o7X  ,XX XX <OOOO 6o@OXXXX.X",
"XX X #.1.XX1.X.*0+.XX..X  X.5:XXXXOXX. &>XX     <<<O  O XX  XXX ",
"XXXXXX...X.XX5.**+XXXXX.   X.+X X O  .       >  OO<<<< XXX< X ,O",
" X.XX1:5.1...+:80+X X     XX.X  XO> &X  OOOO <OO<<<<O< XX < X  <",
"XXXX11o:..o...:$0+ XX      &XXO  X     <OOO   <<<<OOOO  <<< X <<",
" XXXX.$1X....XX*0+  XXX  O    OX    X   OO>O  <<<<<<<   <O<< <<O",
"  X4X.o.X..XXX **+ X  X       O     X < OOOO O<<OO<<<< <OO<< O<O",
".X ......1..X7 **+        >    O      O OO> >OOO<OO<<  <O< <OO<O",
"-;@;**8@;+5++@;$0$2+++++2++++2+2+++++++++++:++++++#5+,+,,+,+#+++"
};
