/* XPM */
static char *ICKDOOR1[] = {
/* columns rows colors chars-per-pixel */
"64 72 37 1 ",
"  c #777777",
". c #6F6F6F",
"X c gray50",
"o c #7B7F63",
"O c #6F7357",
"+ c #838383",
"@ c #8B8B8B",
"# c #676B4F",
"$ c #5B6347",
"% c gray39",
"& c #5B5B5B",
"* c #53573B",
"= c #939393",
"- c #937B63",
"; c #474F33",
": c #9F9F9F",
"> c gray42",
", c gray34",
"< c #3F472B",
"1 c gray31",
"2 c #979797",
"3 c #37732B",
"4 c #27531B",
"5 c #4B4B4B",
"6 c #373F27",
"7 c #2F6323",
"8 c #9F876F",
"9 c #7B634F",
"0 c gray28",
"q c #836B57",
"w c gray23",
"e c #A7A7A7",
"r c #3F832F",
"t c #1F4317",
"y c #AF977F",
"u c black",
"i c #1B1B1B",
/* pixels */
"&&&,,&&,,,&&*$&&&&,&&&5&5%,,,&,&&5&,&&,&&&&,5,&,&&&&&,&,,,&&&*&&",
"@o-ooX--o OoX.O X-roX O o-XoX.XXX.O#3oXXooooooO. Xo-rOXooooo-o+@",
" O### oO$$*OO*3%+o3O *4&$o.##*# #*$<4O###O####**$###3*OO$#O#OO .",
" OOO# oO#$*OO*3%+O3O *4&$o.##*# #*$<4O###O#o$#;*$###3$Oo##OOOO .",
".OO## O###$O#*7% #3O *4%#O.##$# #*$<4O###OO###;*$OOO3$####O#OO  ",
" OO##.*$*#$O#*7%.O3O *4w6;0<;<60<<66t;<<<*##$#;*$##O3$#*;*#OOOX ",
" O###1ooO$*##*7%.O3O $3.ooXoO$OXO*$*7oOOoo####;*$###3*$#OO;#OO .",
" OOO#&oooO$#**7%XO3O $4@o-@-o#o+o*$*7o#OoO#O$#;*$##***Oooo*OO# .",
".OO#O&oooO#oO*4& ###X$4%=o@-o#o@o$$*7oOo#OOO##**$**#O#Oooo#OOO  ",
".##OO%oo-o$oo$$&&#OO $4,#-+-o#O=o##*7oo###OO$#***$ooo#Oooo$O#O  ",
".##OO%oo-o#-O##.>#*O $4,#o:-=ooey9o#4:####O#$*;*$oooO#Oooo$O#OX ",
".O###%oooO#oo##.@oo#1$4&##.##$#.O$$;4O###O#*;$*$#OooO#Oooo$#$#  ",
" ###O%oooo#oo##.@ooo *;&#O.##$#.O$$<4####**#oo*$$OooO#oooo$O##X%",
" ##$O%oooo#-o##.+oo8@$*1#o.##$#.#$$<4###*#oooO*$$OooO#oooo$OO#X.",
" O#O >o--oo8ooo 2---2#*&#o O#$# #$$<4##.#o----#ooo-8ooo--o##O#X.",
".O##..OO##$##$$& #OO $*%#O O#$# #$$<4##.#$#$##$*$##O#$#$#OOOO# .",
" O#O..OO##$##$$&.#OO $*%#O O#$# #$$#$O#.$$#$##$*$##.O$####OOOO .",
" O## .OO#$$##$$& OO#.$*%#o O#$#..$*6*.#.###O##$*$## #$####OOOO  ",
".O##  O#O#$##$$& ###.$*%#O.O $# .$6i6.# ####O#$*$## #%#$$#OOOO  ",
".OO#. OO##&##$$&.#OO.$*%#O O $# .$6u6.#.######$*$#O # ##$O###O  ",
" O##. O###%##$$&.#O# $*%#O OX$#  $;3;.# ###$##$*$#OX#.#######OX ",
" O##  O###%##$$&.#O#.$*%$O O $#..$<7<.#.O##$O#$*##OX#.#O$#OO#O  ",
" ###. O#O#%.#$$%XOo#.$*&#O.#.$# .$<4; # O #$O#$*### #.##$#O###  ",
" ###..O#$$&.#$$& OO#.$*&OO.#.$# .$*t*.#.#.#$O#$*### #%####O##O  ",
" O##..#*;;51;*;51;*1,;*%OO.#.$#  $$4$.#%#.*;;;;*1*;1;5;;;#O$#O .",
" O##.&#ooO%XO$$%XooX>;*%Oo.#.$# X$$4#.#.#.;>oo##XOoXOXOo#####O .",
" O##.,ooo..+o##.@o-@=;*%OO%#.$#  $$4#.#.O.*@oo#.@Oo+O+Ooo *O## .",
".O##.&ooo  @o##.@-o@@;*%O#%#.$# .$$7#.#.O.&@Xo#.@Oo+O+Ooo+*#O   ",
".OO# &ooo+ Xo9#.=o-=+$*%.O%#.$#. $$7#.# O.%+Xo# @Oo+O+Ooo+$#OX  ",
" OO# %-oo+ +o##.+--=@$*%.o.#.$#. $$7# # O.%@Xo# @OoXOXOoo+$#OX  ",
".#OO %ooo@+@o##.@o-==$*% o.$ $# .$*7#.# #.%@Xo# @Oo+O+Ooo+$#O ..",
".#OOX%@oo@@@o$9.@--=@$*  O.# $#  $$7O.#.O..+Xo# @ooXO+ooo+$O#X .",
" #OO.%=-o@@+o#O.+@-@:$*   .# $#  $O7o #.O.X:+o# @ooXO+@oo+*##   ",
".OO# %@o@@@+o#O.@@o:2$*  X.#.O#  $O7o O.O..=:o#++O+XO+@oo+*##   ",
" OOOX%@o@@@+o#o@+=8@ $*   .# ##  $O$O O.O.. @8#++O+XO+@ooX$.#X  ",
"  OO %@o@@@@ooo=X:-. $* .X.O ##. $O3O # O..  -q+Xo+XO+++oX$ #X..",
"  #O %@o@@@=ooO@:=#. $*    # ##  $O3O # .%%  o9:+O++O++Xo+$.#...",
"  OO %@o@+@=ooO:=.O% $*.  .$1*;11;;;;.# ..%  #O@:O++oX+Xo+$.# ..",
"  .# %@o@+@@oo-= .O. $* ..&# #$>>##O#&. .... OO =-++o+++o+$.# ..",
". .# %@@@+@@o-o.. O. $* .&>XXOO++oooo>&.. %. O#. o:+o+++++$.....",
". .O %@@@@@+oOX ..#%X$*.&>X@+OOX+oooo+>&% .. OO..#@:o+++@X$ . . ",
".X.OX%@@@@@:o$X...O% $*&>X+@@OOX@ooooX+>,.%..OO... =:+++++% . ..",
"  .  %@@@+:@O$ ...O%.$;>X@@@XOO++ooooXX+>&%..OO... .@:++@+% .  .",
"    .%@@@:=X#. ...#%.;&X=@@@XOOXXooooX+++>,. O#...   2:+++%... .",
".  . .+@:@..#. . .#%&*%@@@@+XO#X+oooo+++++>&.oO. . . X=:++. .   ",
".  . .@:=.. #. . .#1>$.@+@++XO#XXoXoo@++@@+>&##.   . X =:X%..   ",
".  .  += ...#%   .,>X#.@++++XO#X@oXoo++++@:+>*#. . . . .@+%     ",
"    . X ....#.  .&>X=#.@@@@@+ OX+o+ooX+@@@@@+#*    %..  ..    . ",
".   .  ..%.. % .&>X@:..@@@@++XO+XoXooX@@@+@++o#&.  %. +=+..   . ",
".      ....X ..&>X===..@@@@@+ OX+o+ooX@@@XX@:Oo>,. .. @8@ ..  . ",
". ..   ..%. ..&>X=@+@..@@=@+X O+XoXoo++++@XX+oo+>&... qwqX.. ...",
"  ..    ... .,>X@@=@@..@@@@+++O+Xo+oo+++++X++oo++>&.. +,+X .  . ",
" .. .  . %..&>X@@=@@=..+@+@@@+OXXoXoo+X+++X@+oo+X+>,. @e@ ... . ",
".    ... %.1>X@=@@@@@..@@+@X++O++o+oo++@++++XooXX++>&  @  ..  ..",
" .  . .. .&>X@===@==@..+@@@++XO++oXoo++@+X+@XooXX+++>%. . %. ...",
" .    ...&>X=@@===@@=..@@+@@++O@XoXoo++@@X+++ooX+++++>&.%...    ",
". .. ...&>X@@+===@==@>.+@@@X++O+Xo+ooX+@@X+X+ooXX+X+++>&& ..   .",
". ..  .&>X:===@==+==@.>=@@@X+XOXXo+oo++X+X+X@@oX+++++@+>1...   .",
". .. .X +=2+22=@2@@@@..:@@@@=2o@=o=oo2=2@++@::o==@@==@@@. ..   .",
"   . .  X..% ..XX .%.%&X.> %.X#  O..#  X..%%XX$  X.. +... ..   .",
"  .. .+ +... .%X ..%%%%X%> %.X#  ...#+ +..%%X $..X.% +.%  ...   ",
"X X. .   ... %%X ..%%%.+%> % X.. X..#   ..%%  $..X.%   %  % .+. ",
"     .    .% .%X   %%..+%> % X%.   ..    .%%X %. +.%.  %  % .+  ",
"&&&,&,&&&,,0&,5&,,&55,,&5,&5&&5,&&,,,&&&,,05&&55,%,5,&,5,&,&,%&&",
"..  +   ... ...  .....1  O$& X.  @8@ . . &&... X...X X  % . .+ .",
" .  XXX  %.  +=+.  .  % XO$& X   qwqX    &&... X ..X +  %  ..+  ",
"     XX  %.  @8@   %XX% X+$& X   +,+X X +&&. ..X  .XXX  %  ..+ X",
"    + X +%.  qwqX .%  %  +$& X   @e@  X++&&  ..X ..  +..% %..+  ",
"    X X +%%  +,+X .%X % .X&% X.   @    + &&  ... ..  X..% . .X. ",
" X    X  ,,. @e@ ..%X .  +%% X.  .      .,, XX  .%.  X. & .. X. ",
" X  + X  ,%.  @  . %  ..  %%.X   . . .  .&,  X  .%.. X. & %. +. ",
" X..  X  %%. %   . % +  ..%%.X   ...    .&,. X  .+..+X  % %. X.."
};
