/* XPM */
static char *ICKWALL1[] = {
/* columns rows colors chars-per-pixel */
"64 128 34 1 ",
"  c #777777",
". c gray39",
"X c #5B5B5B",
"o c #676B4F",
"O c #53573B",
"+ c #5B6347",
"@ c #6F6F6F",
"# c gray31",
"$ c gray42",
"% c gray34",
"& c #474F33",
"* c #6F7357",
"= c #7B7F63",
"- c #4B4B4B",
"; c gray50",
": c #3F472B",
"> c #838383",
", c #8B8B8B",
"< c gray28",
"1 c #434343",
"2 c #373F27",
"3 c #2F6323",
"4 c #836B57",
"5 c #37732B",
"6 c #939393",
"7 c gray23",
"8 c #9F876F",
"9 c #A7A7A7",
"0 c #3F832F",
"q c #775F4B",
"w c #27531B",
"e c #1B1B1B",
"r c #937B63",
"t c black",
/* pixels */
"%XX%X%XX%XXXXXXXX%%%XX%X%X-%%X%X.%X%%XXXXXXO%-%XXX%XXXX%X-XXXXXX",
",=====;; =;=;>;;=;;=**.;=.$ooq$*=;;;==**$@**=*;;;@@;>$.*=>=ro=,>",
"@oo**o*o#o+o@;o ooo=O0&.o&+o+&O+ooo.o*OOOO5O++@*o#Oo;O&+* **O*; ",
"@*oooooo#ooo  o *oo=.5&@o&O2O&O++o+Xo*O+OO3O+O *o%Oo;O&+* *o&o;;",
" ooo**oo#ooo @o@*oo=o5&@o&2e2&+++oo.*o++OO3&++;*o%Oo;O&+o *=+o;.",
" oo+**o*%oo+@>6>=oo=o5&@o&2t2&+++oo.*oo+OO3O++ *o%Oo;O&O*@*=+o;@",
" *o**ooo%ooo ,8,*oo*o5& o&&5&&+++oo.oo++OO3O++ *o%+o;+&O+ *=+o;@",
" *ooooooXoo+@474=oo*o5O o&:3:&+++ooXoo++OO3Oo+ *o#+o;+&Oo *=+o;@",
" *o*ooooXOoo@>%>ooo*o5O o&:w&&+++ooXo*++OO3Oo+ *o#+*;+&++@**+*;@",
" *oo*oooX+oo ,9,*oooo5O o&OO&&+++oo@oo+++&3Oo+ oo#+o;+&+o@**+=; ",
"@*oo*=oo.+oo  , *oooo5O o&OO&&+++oo.=o+++&3Oo+@*o#+o;+&O+@**+*; ",
"@*ooo=ooX+*o ;o@ooo*o5O o&OO&&+++oo.=o+++&OOo+@*o#+* +&++ *o+*; ",
" *ooo=ooXo*o ;o@ooooo5O +&OOO&+++oo.=o+++&OOo+@* #+* +&++@*o+*; ",
" *oo*=ooXooo ;o@oooo.+O +&OO&&+++oo@=o+++-OOo+ * %+*@+&++@**+*> ",
" oooo*oo.ooo@;* =o*o.+O@+&OO&O+++oo.**+++#OOo+ * %+o@+&++@*o+o  ",
" ooooooo%+oo@;o@*ooo.+O@*&OO&O++ooo.oo+O+-OOo+@* %+o@O&++@*o+*  ",
" *oooooo%%+o@;o@*o*o.+O *&OO&O++@oo.oo+OO-OOo+@* %+o@O&++ *++* @",
" *ooooooX.+* ;o oo**o+O *&OO&Oo+ oo.oo+++-O+o+ * %+o@+&++ o+X= @",
" *ooooooX@+*%;o *o**++O *&&OOOo+ o*.oo+++-O&oO * %+o@+#++ o=X=> ",
"@*ooooooX@+o.;o;*oo*.OO *&&OOOo+ oo.oo+++-&Oo+;*@%+o@+#++@*o.= ;",
"@**o*ooo.@+o@;o ooo*.OO *&&&OOo+@oo@oo+++-#Oo. *@%+*@+#++@+o.=> ",
" **@*o*o.@+o@ o;ooo*.OO *&O&OOo+ oo@o*+++-#OoX;*@%+*@+#++@+o.= ;",
"@o* *ooo..+o@@o@ooo*XOO *&O&OOo+ oo@oo++X-#OoX@*@%+*@+#++ o*.= @",
"@o* =*ooX@+*@@o *oooXOO *&OOOOo+ oo@*o++.-#OoX *@#+* +#++ o*X= @",
"#2&-&O:::%:&--:%O::&1:::O::1&&::<::<O&&&#<1&&1%:%-::-&<&OX&&1O-%",
"X&O.+o++#.++..+.+oOO-O&.o&&<&&+&XO+$OOO+%-#OX%.OX#O+.O-O+@OO-oX.",
"XOO.:oO+%.++..+.+o&O#O&.o&&<&&O&.O+1O&++.-#OXX.+.#O+.O#O+@&O#oX.",
"XO&X&o++%X++..+.+o&O#O&.o&&-&&O&.&&#O+o+X-#OX%.+.-O+.O#O+@&O#o..",
".O&XOo++#XO+..+.+o&&#O&.+&&#&&XO.&&XO.++X##OXX.+X-O+.O#O+@&&#o..",
".O&XO+O+#XO+..+.+oO&#O&.+&&#&&XO.&&X+Xo+X##OX#.+X-O+.O#O+@O&#o..",
".&OXOOOO#XO+XX+.+oO&%O&.+&&#&OXOXO&XXXO+X##OX%.+X-O+X&#O+@O&%o..",
"XOO.OOO+%XXOXXO.+oOO%O&.+&O#OO.&.OOXXX++X--O.X.+.-OOX&-O+@OO%oX.",
".&O.OOO+#..O..+.ooOO%O&.+&O#++.O.OOXXX++.--O.X.+X#OO.O#Oo@OO%o..",
".&O.O#.O#..&$$+.ooOO%O&.+OO#++$O@OOX.XOo.#-O$X.+X#O&$O#Oo@OO%o..",
"@&O.+#.O#.X&....+oOO%O&.+&O-O.$+@OO..XOo.--O.XXOX#O&.O%O+@OO%o..",
"@&&.o#.O#.X&$...O+O+%O&.+&O-O..+.OO..XOO.--O.XXOX#O&$O%OX$O.%oX.",
".::XoX.+%XX&$.X.+o+o%O&.+&O#%..OX&&.$$++X<-O.XX+.-O&$O#%.@+$%oX.",
".:&X$#...X.&..XX+++o#X&.+&O-%X.%XX&..$++X<-#.XX+.#+&.O##..+$#o..",
".&&X.#...X.&.@..OX.+XX&.+&&-%..%XX&X.$++X###@X.+.#+&.+%%XX+.#o..",
".:OX.#@XX..&..$....O.X&$.&&-%..%#$&X..OO.-%#.X.+X%.#.OX%..+X%o.$",
".1oX.#@.XXX#$@.....O$X&..OO#%X..#.&X..+OX-%%@$.+X#X#$X%%..+XXo..",
".#OX.#@.XX.#..$.XX.O$X&..OO#%X..X.#XX.+OX-%#...+X#.#.%X%XX+XXo..",
"X#O.$#.XXX.#X.X.XX.O.$#.$OO#.X....#XX.+XX#%#$.XOX#.#X%#%XX+X%$$.",
".#O$$#.XXXX#X.#XXX.O.$#.@OO#.$.XXXX..@O@X#X%.$XOX#X#X%-#XX+X%$$.",
".#O.$#.X.XX#..#X...OX$#..OO#@$.XXXX.X$.X.#%#.$XO.#X#.%-#..+X#$..",
".#O$$#.X.XX#..#XXX.OX$#.@&+-@...XXX..$XX.%X#.$.O.#X#.%-#XX+X#$..",
".XXX.#$..XX#.XXXXX.&X$#.@&O#@..$X.X..$XX.#%#...O.#X#.###XX.##$..",
"XXXX.#$.@..XX.X@XX.X.$-X.OO#....X.X..@X..X%#X...@%.XX%#XXX.X.$XX",
">>;;;;>; @;;;>>;>>>;;;X>>oo. >;>>;> ;;;  .. >;;>>$;>; $. >> ;>>;",
"  @@@@  @.@  ;  @ ;   %  ++X.;@ ;@ .@@ @@X.;@@ ; .  @ .X. @.@; @",
"  @@@@  @@@ %;@   ;   %  +OX@;@ >@;.@@@@ X.%@. ; .  @;... @>@;> ",
"@ @@@@  @@.@.; ; @    %  +OX@;  >@ .@@@@ %%.@ ;;@.  @ . .@ @ ; ;",
"@  @ @   @.@@;  @@@   %  +O%@;   @ @@@@  %%@@  ;@. ;@;. .@.@ >> ",
"   @ @;  @.@@ @;@@@   %  ++%@;     @@ @  %%@ @;;@. ;@@. .@.@ ; ;",
"@@   @   .@@@@@@@@@ @@%  ++% ;   >6>@@@ @X%@@@@;@  ;@   . @  > @",
"@@  >   @@@ @@@  @@@@@#  *+X ;@  ,8, @ @ XX@@@ ;@@@; ;  . @ @> @",
" @  ;;;  .@  >6>@  @  . ;*+X ;   474;    XX@@@ ; @@; >  .  @@>  ",
"     ;;  .@  ,8,   .;;. ;>+X ;   >%>; ; >XX@ @@;  @;;;  .  @@> ;",
"    > ; >.@  474; @.  .  >+X ;   ,9,  ;>>XX  @@; @@  >@@. .@@>  ",
"    ; ; >..  >%>; @.; . @;X. ;@   ,    > XX  @@@ @@  ;@@. @ @;@ ",
" ;    ;  %%@ ,9, @@.; @  >.. ;@  @      @%% ;;  @.@  ;@ X @@ ;@ ",
" ;  > ;  %.@  ,  @ .  @@  ..@;   @ @ @  @X%  ;  @.@@ ;@ X .@ >@ ",
" ;@@  ;  ..@ .   @ . >  @@..@;   @@@    @X%@ ;  @>@@>;  . .@ ;@@",
"XX%%XXXXX<%%X-.%%XX-XXXXXXX#XXXXX%%%XXXX-X-%XX%%X%X%XXXX-X-%XX<X",
"%XX%X%XX%XXXXXXXX%%%XX%X%X-%%X%X.%X%%XXXXXXX%-%XXX%XXXX%X-XXXXXX",
",,,,,,6,,;,,,6,,,,,,66,>>6,,,6,,,,,>,,,,,,,,>>,6,,,,6,6,,6,6,,6,",
"@@@  @; @ .@@;  @  ;  @.@;@@@ @@> @.@   @@ @.@@;@   ; ;@    @ ; ",
"@ @@@@  @@@@  @  @ ;@@@@@;@@@  @>@.X@  @@ @@.. ;@   ;  @   @.@;;",
" @@@    .@ @ @@@   ;   @@>@@@; @;@@. @ @@@@%.@;;   @;@ @@  ;@@;.",
" @@.   ;.@ .@ @ ;  ;   @@>@@@;   @@. @;@@@ ..@ ;    ;@ . @ ; @;@",
"  @  @  .@ @ >@  @  @@  @>  @;   @ .@@ @@.@..@ ;    ; @..  ; @;@",
"  @@@@  @@ .@; @;@      @>  @;   @@X@@ @@.@.@@ ;@@@ ;@@.@  ; @;@",
"  @ @@  @%@@@;@@@@      @>  @;  ;@@X@  @..@.@@ ;@@@;; @@.@    ;@",
"  @@ @ @@. @ ;@@   @@@  @>@  ;@@@ @@@@@@@@@@ @  @@@ ; @@@@   ;; ",
"@ @@ ; @ . @ ;@@ @ @@@  @>@  ;  @@@.;@@ @@@@ @@> @@ ; @..@    ; ",
"@ @@@;  @.>@ ; @@@  @@  @>   ;  @@@.;@ @@@@. @@; @ ;  @@.  @@ ; ",
"  @@@; @@@>@ ; @@@ @    .;  ;;   @ .;@@@ @@. @@; @ ; @@@.@ @@ ; ",
"  @@ ; @@@ @ ; @@@ @@@  .;   ;@@@@@@;@@@ @@. @ ;   ;@@@ .@  @ > ",
" @@@@  @ @ @@;; ; ;@@@ @.>@@@;  @@@.  @   @. @ > ;@ @@@@.@ @@@  ",
" @@@@@ @..@@@; @   @@@ @ >@@@;@ @  .@@@.@@@. @@;  @ @.@@.@ @@   ",
"  @@@@ @.%@@@; @  ;@@@   >@@.;@  @ .@@@..@@. @@; ;@ @. @.  .@  @",
"  @@@@  @.@  ;  @ ;   ;  >@@.;@ ;@ .@@ @@@ ;@@ ; ;  @  @. @.@; @",
"  @@@@  @@@ %;@   ;      >.@@;@ >@;.@@@@ @ %@. ; ;  @;  . @>@;> ",
"@ @@@@  @@.@.; ; @    ;  >.@@;  >@ .@@@@ ...@ ;;@;  @   .@ @ ; ;",
"@  @ @   @.@@;  @@@   ;  >..@;   @ @@@@  ..@@  ;@  ;@;  .@.@ >> ",
"   @ @;  @.@@ @;@@@   ;  >@.@;     @@ @  ..@ @;;@  ;@@  .@.@ ; ;",
"@@   @   .@@@@@@@@@ @@   >@. ;     @@@@ @@.@@@@;@  ;@   . @  > @",
"@@  >   @@@ @@@  @@@@@@  >@@ ;@    @ @ @ @@@@@ ;@@@; ;  . @ @> @",
"#7---%%-%%%---%%%X--<%-%%-%<---<<--<%--%%%-%-<%-%%%---%%%X--<%-%",
"X#X..$..X.$...$..@XX#$X.$X.#XX.XXX.$XX.$.$..X..XX.$...$..@XX#$X.",
"XXX.1$X...$......@#XX$X.@X$#XXXX.X.1X#.$.$..X$....$......@#XX$X.",
"XX#X#$.$.X....$..@#XX$..@X.#XXXX.###X.$$X$..X....X....$..@#XX$..",
".X#XX$..XXX...$..@##X$...X.XXXX..##XX..$X..$X$..XXX...$..@##X$..",
".X#XX.X$XXX...$..@X#X$.....XX.X..##X.X$$X..$XX..XXX...$..@X#X$..",
".#XXXXXXXXX.XX...@X#.$.....XXXX.XX#XXXX$X..$X...XXX.XX...@X#.$..",
"XXX.XXX..XXXXXX..@XX.$X....X.X.X.XXXXX.$XXX$.$...XXXXXX..@XX.$X.",
".#X.XXX.X..X....$@XX.$.....X$....XXXXX.$.XX$.@..X..X....$@XX.$..",
".#X.X#.XX..#$$..$@XX.$......$.$.@XXX.XX$..X$$$..X..#$$..$@XX.$..",
"@#X..#.XX.X#.....@XX.$...#.X..$@@XX..XX$.XX..@XXX.X#.....@XX.$..",
"@##.$#.XX.X#$...X$X..$X..X.X...@.XX..XXX.XX..$XXX.X#$...X$X..$X.",
".11X$X...XX#$.X..@.$.$X..X......X##.$$..X#X..$X..XX#$.X..@.$.$X.",
".1#X$#...X.#..XX...$X$...X.X.X..XX#..$..X#XX.$X..X.#..XX...$X$..",
".##X.#...X.#.@..XX..X$...XXX....XX#X.$..X@XX@$...X.#.@..XX..X$..",
".1XX.#@XX..#..$....X.$.$.XXX....#$#X..XX.X.X.$..X..#..$....X.$.$",
".1$X.#@.XXX#$@.....X$$.....X.X..#.#X...XXX..@$..XXX#$@.....X$$..",
".#XX.#@.XX.#..$.XX.X$$...$.X.X..X.#XX..XXX.X....XX.#..$.XX.X$$..",
"X#X.$#.XXX.#X.X.XX.X.$$.$..X.X....#XX..XXX.X$.XXXX.#X.X.XX.X.$$.",
".#X$$#.XXXX#X.#XXX.X.$$.@..X.$.XXXX..@X@XX@..$XXXXX#X.#XXX.X.$$.",
".#X.$#.X.XX#..#X...XX$....$X@$.XXXX.X$.X.X.X.$XX.XX#..#X...XX$..",
".#X$$#.X.XX#..#XXX.XX$..@X@#@...XXX..$XX..@X.$.X.XX#..#XXX.XX$..",
".XXX.#$..XX#.XXXXX.#X$..@X$X@..$X.X..$XX.X.X...X.XX#.XXXXX.#X$..",
"XXXX.#$.@..XX.X@XX.X.$XX..$X....X.X..@X..$.#X...@..XX.X@XX.X.$XX",
">>;;;;>; @;;;>>;>>>;;;>>>,;; >;>>;> ;;;  ;; >;;>>>;>; >; >> ;>>;",
"  @@@@  @.@  ;  @ ;   ;  >@@.;@ ;@ .@@ @@@ ;@@ ; ;  @  @. @.@; @",
"  @@@@  @@@ %;@   ;      >.@@;@ >@;.@@@@ @ %@. ; ;  @;  . @>@;> ",
"@ @@@@  @@.@.; ; @    ;  >.@@;  >@ .@@@@ ...@ ;;@;  @   .@ @ ; ;",
"@  @ @   @.@@;  @@@   ;  >..@;   @ @@@@  ..@@  ;@  ;@;  .@.@ >> ",
"   @ @;  @.@@ @;@@@   ;  >@.@;     @@ @  ..@ @;;@  ;@@  .@.@ ; ;",
"@@   @   .@@@@@@@@@ @@   >@. ;     @@@@ @@.@@@@;@  ;@   . @  > @",
"@@  >   @@@ @@@  @@@@@@  >@@ ;@    @ @ @ @@@@@ ;@@@; ;  . @ @> @",
" @  ;;;  .@ @@@ @  @    ;>@@ ;     @;    @@@@@ ; @@; >  .  @@>  ",
"     ;;  .@ @. @@  .;;  ;>@@ ;      ; ; >@@@ @@;  @;;;  .  @@> ;",
"    > ; >.@  . @@ @.     >@@ ;   . @  ;>>@@  @@; @@  >@@. .@@>  ",
"    ; ; >.. ;. @@ @.;   @;@  ;@  @ @   > @@  @@@ @@  ;@@. @ @;@ ",
" ;    ;  %%@;@   @@.; @  > ; ;@  @      @.. ;;  @.@  ;@ X @@ ;@ ",
" ;  > ;  %.@;.   @ .  @@   ;@;   @ @ @  @@.  ;  @.@@ ;@ X .@ >@ ",
" ;@@  ;  ..@ .   @ . >  @@  @;   @@@    @@.@ ;  @>@@>;  . .@ ;@@",
"XX%%XXXXX<%%X-.%%XX-XXXXXXX%XXXXX%%%XXXX-X-%XX%%X%X%XXXX-X-%XX<X"
};
