/* XPM */
static char *ICKWALL7[] = {
/* columns rows colors chars-per-pixel */
"64 128 57 1 ",
"  c #777777",
". c gray39",
"X c #6F6F6F",
"o c #676B4F",
"O c #5B6347",
"+ c #53573B",
"@ c gray50",
"# c #5B5B5B",
"$ c #838383",
"% c #6F7357",
"& c #474F33",
"* c gray31",
"= c gray42",
"- c gray34",
"; c gray28",
": c #7B7F63",
"> c #4B4B4B",
", c #8B8B8B",
"< c #3F472B",
"1 c black",
"2 c #2F6323",
"3 c #27531B",
"4 c #373F27",
"5 c #37732B",
"6 c #2F2F2F",
"7 c #2B230F",
"8 c #1B1B1B",
"9 c #373737",
"0 c #434343",
"q c #939393",
"w c #272727",
"e c #3F832F",
"r c #1F170B",
"t c #170F07",
"y c #070707",
"u c gray23",
"i c #836B57",
"p c #131313",
"a c #533F2F",
"s c #3F2F17",
"d c #6F5743",
"f c #439337",
"g c #937B63",
"h c #332B13",
"j c #5F4B37",
"k c #A7A7A7",
"l c #9F876F",
"z c #4B371B",
"x c #BFA78F",
"c c #AF977F",
"v c #53AF47",
"b c #9B7F6B",
"n c #A78F77",
"m c #7B634F",
"M c #EFEFEF",
"N c #5B472B",
"B c #232323",
/* pixels */
"-------->0---#----#------#-->#----->--->>-->*--#-#--->-->-->----",
"-qqq,,,::,,:::%o%::,:::::X:%::%%:%oefov%:::%=:::::::::::::::,:,#",
"-@XXXX %oXX%O%++O%% %%%%%=OOo%OO%+&2e+f+ooo&-O%%%%%%o%%%O%o%X%$#",
"-@XXXX %oX.oO%O+Oo% %%%%%=O.o%OO%+&25+e+oOO+-o%%o%%%o%%%Oo%o % .",
"-@ X X %%X.oo%O++oo %%%%%=O-o%OO%+&32+5+oOOO-o%%o%%%o%%%OoOo %$#",
"-@ X X@%%X.oo%+++oo %%%%%=o-o%OO%O+<2+2+oOOO-o%%o%%%oo%%OoOo % .",
"-    X %%.Xooo+&+oo oo%%%=o-o%OO%O+<3+2+ooOO-oX%o %%X%%%O%o% % -",
"-   $  %oXX oo++OooXooo %=o.o%OO%O+<3+2+oooO-o%%oXo% %%%O%o%X% -",
"-   @@@%%.X oo+++%%X%%% %=o.o%OO%O+<3+3+oooO-o%%%Xo% %%%O%%oX% #",
"-@   @@%%.X oOO&+%%.%@% %=o.o%OO%O+<3+3+oooO-oo%% o%@%%%O%%oX% .",
"-@  $ @%%.X %OO&+%X.% % %=o.o%OO%++<3+&+oooO-oo%%Xo  %ooO%OoX% #",
"-@  @ @%%.. %OO&+%X.% % o=o.o%.O%++<3+&+oooO-ooo%Xo  %ooO%o%X%X#",
"-@    @%%--X%oO+OoX.% o %=o=o%.O%++<3+&+oOOO#%%%o.o  @o%O%oo %X#",
"-@  $ @%%-.X%OO+Oo .% XX%.o=o%.O%++<<+&+ooOO-%%%o.oX @o%O%Oo %X#",
"-@XX  @%%..X%OO+Oo .=$  o.o.o%.O%+&<<+&+ooOO-% %o$oX$@%%O Oo %X-",
"-@XX  @%%-XX%OO&+% #> X %.o.o%OO%+&<&++OO%OO-oXo%X%X @% O@Oo %X#",
"-@X @ @%%-@X%OO++oX#6*= %.o.%%oOoO+<+++OO%OO-o ooX% $@% O o%X%X#",
"-@X $ @%%.XX%.O&+o ;r6>#O=o.%=o#o%++O++Oo%OO-o ooX%X  % O o%X%X-",
"-@    @%o.X %.O&+#;zywh6;#+*o$%.%%+OoO+Oo%OO-o oXX%X@ oXO o%X% -",
"-@  XX@%%.X@%.O&+#r-prts6;+@:@%.%%++4++OoooO-:X%XX%  @oXOXOXX$ -",
"-@   X@%%.X %.O&%;tgaajgw6@Xo@o.%%+484+OoooO-% o X X @oXOXo X$ #",
"-@   X@o%.X@%.O&o;tsNytsr6*Xo@o.%o+414+.oooO-%Xo  $X @%XOX% X$ .",
"-@    @%%XXX%.%+o;-ym7yardu#o=o.%o+&e&+=o%oO-%Xo X X  %XOX%  $ #",
"-@  X @%oXXX%=o&*>Mxdw;;wdw#+@o.%%+<5<+.o%oO.:X% @ .X % OX% @@X#",
"-@  X @oo.X o#O&@*;cijbn;0<;+.o.%%O<2&&.o%oO.:X X@ .X   O %  $X#",
"-@    @oo.X=o=o&$q@;66;;.@%Xo@O-o%O<2O&.o%oO.oXXX@ XX   O@oX  X#",
"-@XX   oo.X  X%+$X=<<+,O##+=o@o.%%o<2O&.%%oO.oXXX@ XX@  o@oX  X-",
"-@XX   %o.. @X%+@  <+:=OX=%.o@o.%%%&2O&.o%OO.o.XX@ XX@  . %X  X#",
"- X X  o%.X @X%+$ =+%OX%  %Xo$O.% %&2O+.o%OO=:X X@XX @  . oXX X#",
"-@   XXo%. .@X%+@$ Oo%X%  %.o@o.%@%&2++.ooOO=:XX @XX$,$   XX   -",
"-   X Xo%  .$ %+@ =OO%X%XXo.o@o.o %&3O+.ooOO=:XX@@.#$q$@. .X  X-",
"-   @$Xo% X.$X%+@XXOO%X%XXO.o@o.o %+3O+=oXOO=:.    #,l, . XX   #",
"-@XX@  %% ..@.o+  XOOoX% .o.o@o %Xo+3O%=o.+o=o.X @ #iui # XX   -",
"-@XX   %@ ..@X%+ @XOOOX%X.o.o@o %Xo+3O%=o.Oo=:.X @ .$-$X# XX   -",
"-@XX X@% X..@ X+@ XOOoX%X.o.o@o %Xo+3O%.o.Oo=%.  @ X,k,X. XX   -",
"-@ X X %@XX. XX+@ XOOoX%X=o.o@o % o+3O%=oXOO=%.  @XXo,oXX XX   -",
"-@XX X$%$XXX X.O XXOOo %.=o.o@o %Xo+3O%=oXOO=o.XX@X..:..  XXX  #",
"#@@X X % XXX ..O XXOOoX%.=o.o@oX%@o+3O%.oXOO.o.XX@X.=:=.  . X$X#",
"-@   X %  X. X.O   OOOX$.=o.o@OX% %O3O%.oXOO=o.X $X.X:X.  . X$ #",
"-@ X X %@XX- X.OXX OOOX@.= .%@OX% oO+O%=oX+O=o..X$X.X:X.X X@X$ #",
"-@ X   %@XX. XXO .X+OOX@..X.%@oX% XOOO%=oXOO=@.X.@..X  .XX @ $ -",
"-@X  X % XXX$XX% ..+XOX@X.X %@oX%X O+.% oXoo=@.X. .XX XXXX @X$ -",
"-@ @ X %X...X  %$XXO O  X. Xo@o$%@@OoXo o oo.@.$ $.XX XXXX X $ -",
"#@X@ @ X ...   % XX.@O  X.$Xo@o.%@@OoXo oXoo $. @$.XX XXXX .X  #",
"- X   @X . X X %  X. OXX ..Xo@o.%  O%Xo o oo $.$ $. @@XX.  .X@ #",
"# X  @@X .XX .X%$ X. OXX ..Xo@oX%  O%X% o oo $. @$. @@X .  .X$@-",
"-@X$X @X  XX XX%  X.-OX  .@ o@oX%  o%X% o oo@@. X@. @ XX.@ XX$@#",
"-  X  @X  XX XX@  .. oX@ .@ o@o %XXo% % oXo%@ . XX. @$ XX@ XX$@#",
"- XX  @X     XX@@ .. oX X=   @oX%XXo% % oXooX .  X. @@@ X   X$@#",
"- XX  @X     X X@ .. oX@X=   @XX  @o%XoXo ooX$.X$ . @XXX.  @X$@#",
"-@   @@.XX @ XXX@ X. o.X.=  X@XX X@o%XoXo ooX .X $. @XXX.   X$@#",
"-@@ X@@.XX @$@X   X. o. X=XX @X XX o% oXo oXX . $ .XXX X.X   $@#",
"-@ XX @XXX @@$  @ X.  . . XXX@X  . o%@o o  XX .X @. @X XXX   $@#",
"-@@XX @@.  @ $ @@@X.  XX.  X @XX   o% o    XX@.@ X.X@  X.   @$@#",
"-@XXX @ .  @$@ @$@X   XX. XX @X   Xoo %   XX @.@ X=X@ $ .X X $ -",
"-@  X @ X  @@@  $ X   XX. XX @X   Xoo %   X@X =@  =X@ @@XX   $ -",
"-@ X X@ X    @  @XXX@@X XX.XX@X $X oo %    @ X=@ @= @  X .   $ #",
"- X  X@ X-XXX@      @@X..X XX@XX XXooX% XX  XX=@  = @ $X @ $X$@#",
"- X  X@ X .XX@     @  X.XXXXX XX$ Xoo   XX XX =@X = @ @X    X$@#",
"-@XXXX  XXXX  X @X @XXXXXXXXX  X$X.oo  XX XXXX=@X = @  X   X.@@.",
"- XX    .X X XXX@  @   XX XXX@ X@XXo%X XXXX-X =@   X@X XX  @XX@>",
"- X.   @.X .X X @  @   XX XXX@   XXo%X@XXX .. =@    @X . X @ X@-",
"-@X  X  .X X $X @X  XX  X   X@   X ooX XX.X.. =@    @ X.   @ X@-",
"-.----##--#>-.#-.-######-###-.###--&O-#-->->-#-.---#.-->.##.#-.-",
"--->----#---->----->------->--->>;>;>;;;>>>>>;>>;;>>>;;>--->;>>>",
"qq,,,,::::,:5e%%,,:,,,%oX,,,,,.$:oX%:=% $: %%%%%@o#% %$%O%:::== ",
"XX XX-oo%o o25Oo@Xo  Xo+.X .XX..+&+Ooo+#.++&5+&&>&&5+&.&OoO+&&&*",
"XX X..oooo@o32Oo Xo .Xo+.X .  ##O&Oo+oO#.O+&2++&>&&2++#++4++&&&*",
"    .XooOo@o33OO Xo .Xo+.X .. .#+&O<8<O#.o+&2++&>&&2++.&484+&&&*",
"  @ .XooOo@o+3Oo Xo . o+.X .. ##O&+414O#.O+&3++&>&&2+&#+414+&+&*",
"    XXooOo o+&Oo XoX.Xo+.X .X ##O&>O5O&+#OO&3+&&*&&2+&#&&5&O&&+*",
" $ XXXooOoXo+&Oo  o XXo+#  .XX##O&>+2+&+#OO&3+&+>&&2++#&<2<o&&+*",
" @@ XXoooo %+&Oo @o XXo+#  . X##+&>+o&++#OOOoO++*&&2++#&<3&+&&+*",
"  @ XXooo% %+&Oo @%$X o+#@ . X##+&>&O&&+#+O+4+++>&&+++#&&&o+&&+#",
" $@$X ooOo oOoOo  %$X o+# X..X##++>&o+&+#OO484+&>&;+&+.+&&O+&&+*",
" @@$.@ooO% o+4+o  o X oO# X.XX-#++*&o&&*#OO454&&>&>+&+.+&&O+&&+*",
"  @ -@ooO%Xo484o  oX.@oO# X#X -#++*&O&&+.+O&2&&4>&>+++.&&&O+&&+-",
" $@ .@ooooXo414o  oX. oO# X#. -#++*+O&&+.+O<2<+&>&>+*+.+&+o+&&+-",
"X @ . oooo o&e&oX  X. oO#$ .. -.++*+O&++#+O<2&&&>&>+*+.++OoO+&+-",
"X @ X :ooo@o+5+oX  .. oO.  .. -.++*OO&&*#+O&2&&&*&>+*&#+O+4+O&+-",
"X@@ @ :oO% o+2Oo   .. oO.$ .XX-.++*OO&&+#OO&3&&&*&>+*&#O+484+&+*",
"X$@ X :ooo@o+2O    X.XoO.  .XX-.O+>+++&+#++&3+&&-&>+*&#+&414&&+*",
"  @XX@ooooXo++O@    .XoO.@X.XX#.O+*O+*&+=++&3+&#-&;+*&#+&&5&&&+*",
" X@ X@ooOo.o++O$   XX oO= X#.X#.O+*O+*&-=+O&3+&*-&;+*&.O&<2<&&+*",
"  @ X@ooOo.o++O @$ XXXoO. X#XX#.O+*OO*+#=++&3+&*-&;+*&.O&&++&&+*",
"  @ X@ooOo.o++O$$$ XX oO=  . X#.O+>++*&#=++&*+&*-&>+*+.O>&+O&&+*",
"  @ X %oOoXo++O$@$ XX oO.  .  ##++*O+*&+.O+&.+&*-&>+*+#+>&++&>+*",
" X@XX %:ooXo++O @  XX oO.X . @-#++>O+*++#++&#+&*-&;+*+#+>&++&>+*",
" X@XX %%ooXo++O @ X XXoo.X .  -#&+>OO*++#++&*+&*-*;+*+#+>&O+&>+;",
"  @XX %:o%Xo++O   @ XXoo.X .X -#&+>OO*++#+O&#++=**>+*+.+>&O+&>+;",
"X  XX %:o:Xo++o  @$@X oo.X XX -#++>Oo*++#++&.++0*>>+*-.+>&OO&>+#",
"X  X.@%%o:Xo++o  $,$. Oo.X .  -#++*Oo*++#++&.&&**->+*-.+>&OO&>O*",
"XX  X@%:O%Xo++O@ $q$.$oo#  .XX-*++*OO*+##+++.&&#*---**.O>&OO&>**",
"  X  @%%ooXo++o  ,l,.@oo#   X #*++*OO.+##O++.&&#-*#-**.O>&OO&>*#",
" XX  $%%OoXo++oX iui.$o%-  .. -*O+*OO.+##+++##&#***-**.O>-.O&-#.",
" @X@X$%@%oXo+OoX $-$.$Oo.$ .X ##O+>OO.+#.+O&.#&#**--**#O*-.O&-#.",
"X@ @.@o OOXo+Oo X,k,#@Oo.XX#X ##O+*OO.+#=OO+.#&#**--**#O*#.O&-.#",
"X  @.@o OoXo+Oo Xo,o.$Oo.XX#X ##O+*OO.O.=OO+X#&#-**.**#O*#.O&-.#",
"X @ .@o@OoXo+Oo X.:..$Oo. X.X ##O+*OO*O#.OO+X#&.-**.**#+*##+&-*#",
"   @X o@OoXo+Oo X=:=.@Oo# XXX #.O+>OO#O#.OO+.#&.-**.*##+-#O%O-#.",
"X $$X O XO O+Oo XX:X.@OoX X XX#=O+>OO#O..OO*#*&.##-.**#+-#O:O-##",
"@   X O XOXO+Oo XX:X. OXX   .X-=++*OO#O#.+O*##&.-#-.**#&-#o&o-*#",
"    X O  OXO+OO  X  .@O XX  .X#.++*OO#+#.OO*##+#-#-.*X#&#.&8&-*#",
"   @X OX OXO+OO XX@X-@OXXXXXXX##O+*oO#+#.O#**=+#--*.*#.&-.314#*#",
"   @X o X.XO+Oo X @X.@O..XXX  ##O+*O..O#.+#**#+#*--###.+#.35&-#.",
"X   X$o .XXo+Oo@ X@XX@O..XXX X##O+*O.=O#.+#*##+#*-####.&-.32<-#.",
"   X.Xo$X  ooOo@@XX   O .XXX  ##O+*O=.O#.+#*.#O#*-####.&#.#+&-#.",
"X   . o X@ o:Oo @XX X O@.XXX X##.+*OX.O#.o#*##O.###X.#X+-.#+<**#",
"X @   o X XoOOX   X X O .@X. X###+*O..O#Xo####O.##*#.#.&-.#+<*#.",
"X @ X o$X XoOo @ @  X O@.@X. X.##+*OX#o*XO..##O.##*#..X&-..+&*..",
"XX@ X X X-Xo%o       @OX.@X. X.*#+*OX#O#XO..##O.###..#.&-..+&*..",
"  @ X X . Xo%o  X    @OX.@ X X.#.+>+..=#.===XX=.##====.&*..O&*..",
"X @   X@. Xooo  X    XO .@@X X.##+>+..=#. @$    =X===..&*..O&-..",
"X @    @. XoooX @ X  XO$.@X. X.*#+*+...#=@,qq,$@ XX =X.+*..O&###",
"  @X  X@X .OooX @ X XXO .@X. X.*#+>+...#=@q,X#9-#.X .X.+*..O&###",
"@X@X $X X .oooXX  X  XO$.X .  .*#+>+.X.#= q#61119-#@X=.+*=.O&-.#",
" X@X @ @X .OooX   X  X. .@ X  .#.O;+=..#=  8111119*@ X#+-=.O&-##",
"@X@.   @X XOooX   X  X. .@ . @.*##>O.=.#==#p7171189= .#+-=.O&-##",
"XX@. $ $X XOooX XX  X . =@$.  #*##>+#..#==7pw141688= .*;-X.o;-*#",
" X@X @ $X XOooX XX  XX= =@@X  #*##*O#..#..7771w111w0 #.;#X..;-##",
"  @X   @X@XoOoX$ X@   = =@    #*##*O.###.=77h19199B4@#.;*X#.0-##",
"X @XXX   @X.ooX XX X X= =@$  X.*##-O.###.=098111.X,@X*.**X##0-##",
"X @X.X    XXooX$XX X X=X=@@  X.*##*O.####= 0111.@..#*#.#-X##>-##",
"XX XX X@ XXXoo $.X XXX=X=@   ..*#=*O..###=@$61.,.*;*####-X##*-##",
"X  .  X@   Xoo @X  XXX=  @ X X.*#=*O.####  %60,#*u;*X.#*-X#*--##",
"X  . XX@   Xoo  X @X .=  @    .*.=*#.=### @@*X.#;;*#X.#*-..*.-*.",
"X  .  X@ X X X   X XX.=  @X   .*.=*#...## $o..-***##X.#**..*.-*.",
"--#-#-#.###-#-##--#------.-.##.;--;;>>;;;>--;;9;->;;;-;;;>;;;;;-"
};
