/* XPM */
static char *ICKWALL5[] = {
/* columns rows colors chars-per-pixel */
"64 128 63 1 ",
"  c #777777",
". c gray39",
"X c #5B5B5B",
"o c #53573B",
"O c #676B4F",
"+ c #5B6347",
"@ c #6F6F6F",
"# c gray31",
"$ c gray34",
"% c #474F33",
"& c #6F7357",
"* c black",
"= c gray42",
"- c gray50",
"; c #7B7F63",
": c #4B4B4B",
"> c #3F472B",
", c #434343",
"< c #838383",
"1 c gray28",
"2 c #1F170B",
"3 c #170F07",
"4 c #373737",
"5 c gray23",
"6 c #272727",
"7 c #070707",
"8 c #373F27",
"9 c #232323",
"0 c #8B8B8B",
"q c #1B1B1B",
"w c #37732B",
"e c #2B230F",
"r c #2F2F2F",
"t c #131313",
"y c #27531B",
"u c #836B57",
"i c #9F876F",
"p c #BFA78F",
"a c #8F7753",
"s c #13230B",
"d c #3F2F17",
"f c #533F2F",
"g c #937B63",
"h c #43331B",
"j c #67533F",
"k c #A78F77",
"l c #836B4B",
"z c #2F6323",
"x c #775F3F",
"c c #6F5743",
"v c #AF977F",
"b c #0B1707",
"n c #B79F87",
"m c #939393",
"M c #A7A7A7",
"N c #3F832F",
"B c #332B13",
"V c #0B0B0B",
"C c #5F4B37",
"Z c #9B7F6B",
"A c #675333",
"S c #B7B7B7",
"D c gray70",
/* pixels */
"$XX$X$XX$XXXXXXXX$$$XX$X$X:$$X$X.$X$$XXXXXXo$:$XXX$XXXX$X:XXXXXX",
"0;;;;;-- ;-;-<--;--;&&.-;.=wOw=&;---;;&&=@&&;&---@@-<=.&;<;gO;0<",
"@OO&&O&O#O+O@-O OOO;oN%.O%+w+yo+OOO.O&oooowo++@&O#oO-o%+& &&o&- ",
"@&OOOOOO#OOO  O &OO;.w%@O%o8oyo++O+XO&o+oozo+o &O$oO-o%+& &O%O--",
" OOO&&OO#OOO @O@&OO;Ow%@O%8q8y+++OO.&O++ooz%++-&O$oO-o%+O &;+O-.",
" OO+&&O&$OO+@<m<;OO;Ow%@O%8*8y+++OO.&OO+oozo++ &O$oO-o%o&@&;+O-@",
" &O&&OOO$OOO 0i0&OO&Ow% O%%w%y+++OO.OO++oozo++ &O$+O-+%o+ &;+O-@",
" &OOOOOOXOO+@u5u;OO&Owo O%>z>y+++OOXOO++oozoO+ &O#+O-+%oO &;+O-@",
" &O&OOOOXoOO@<$<OOO&Owo O%>y%y+++OOXO&++oozoO+ &O#+&-+%++@&&+&-@",
" &OO&OOOX+OO 0M0&OOOOwo O%oy%y+++OO@OO+++%zoO+ OO#+O-+%+O@&&+;- ",
"@&OO&;OO.+OO  0 &OOOOwo O%oy%y+++OO.;O+++%zoO+@&O#+O-+%o+@&&+&- ",
"@&OOO;OOX+&O -O@OOO&Owo O%oy%y+++OO.;O+++%ooO+@&O#+& +%++ &O+&- ",
" &OOO;OOXO&O -O@OOOOOwo +%oyoy+++OO.;O+++%ooO+@& #+& +%++@&O+&- ",
" &OO&;OOXOOO -O@OOOO.+o +%oy%%+++OO@;O+++:ooO+ & $+&@+%++@&&+&< ",
" OOOO&OO.OOO@-& ;O&O.+o@+%oy%o+++OO.&&+++#ooO+ & $+O@+%++@&O+O  ",
" OOOOOOO$+OO@-O@&OOO.+o@&%oy%o++OOO.OO+o+:ooO+@& $+O@o%++@&O+&  ",
" &OOOOOO$$+O@-O@&O&O.+o &%oy%o++@OO.OO+oo:ooO+@& $+O@o%++ &++& @",
" &OOOOOOX.+& -O OO&&O+o &%oy%oO+ OO.OO+++:o+O+ & $+O@+%++ O+X; @",
" &OOOOOOX@+&$-O &O&&++o &%%oooO+ O&.OO+++:o%Oo & $+O@+#++ O;X;< ",
"@&OOOOOOX@+O.-O-&OO&.oo &%%oooO+ OO.OO+++:%oO+-&@$+O@+#++@&O.; -",
"@&&O&OOO.@+O@-O OOO&.oo &%%%ooO+@OO@OO+++:#oO. &@$+&@+#++@+O.;< ",
" &&@&O&O.@+O@ O-OOO&.oo &%o%ooO+ OO@O&+++:#oOX-&@$+&@+#++@+O.; -",
"@O& &OOO..+O@@O@OOO&Xoo &%o%ooO+ OO@OO++X:#oOX@&@$+&@+#++ O&.; @",
"@O& ;&OOX@+&@@O &OOOXoo &%ooooO+ OO@&O++.:#oOX &@#+& +#++ O&X; @",
"#8%:%o>>>$>%::>$o>>%,>>>o>>,%%>>1>>1o%%%#1,%%,$>$:>>:%1%oX%%,o:$",
"X%o.+O++#.++..+.+Ooo:o%.O%%1%%+%Xo+=ooo+$:#oX$.oX#o+.o:o+@oo:OX.",
"Xoo.>Oo+$.++XXX.+O%o#o%.O%%1%%o%.o+,o%++.:#oXX.+.#o+.o#o+@%o#OX.",
"Xo%X%O++#X++..#$+O%o#o%.O%%:%%o%.%%#o+O+X:#oX$.+.:o+.o#o+@%o#O..",
".o%XoO+o1#>664::#O+%#o%.+%%#%%Xo.%%Xo.++X##oXX.+X:o+.o#o+@%%#O..",
".o%Xo+%,,4q**q94.@++#o%.+%%#%%Xo.%%X+XO+X##oX#.+X:o+.o#o+@o%#O..",
".%oXo%5559*3ls**r.@O$o%.+%%#%oXoXo%XXXo+X##oX$.+X:o+X%#o+@o%$O..",
"Xoo.o%84q*g3i67V*>-@+%%.+%o#oo.%.ooXXX++X::o.X.+.:ooX%:o+@oo$OX.",
".%o.o88q*da3Z7O6s6. @%%.+%o#++.o.ooXXX++.::o.X.+X#oo.o#oO@oo$O..",
".%o.%,5*2hl9Xq&bb*8. X%.+oo#++=o@ooX.XoO.#:o=X.+X#o%=o#oO@oo$O..",
"@%o.%#92Bjx3ptxAe*q4$$,.+%o:o.=+@oo..XoO.::o.XXoX#o%.o$o+@oo$O..",
"@%%.##*2 6k*p2d372**,#,.+%o:o..+.oo..Xoo.::o.XXoX#o%=o$oX=o.$OX.",
".>>XO,*ff%n7t66e722*q$4.+%o#$..oX%%.==++X1:o.XX+.:o%=o#$.@+=$OX.",
".>%X=ra2ee2o3.3*$h3*,X,.+%o:$X.$XX%..=++X1:#.XX+.#+%.o##..+=#O..",
".%%X.r29*134#9*ae**5.#,.+%%:$.+$XX%X.=++X###@X.+.#+%.+$$XX+.#O..",
".>oX.4*9r6Ctt@*p*3$-.:5=.%%:$..$#=%X..oo.:$#.X.+X$.#.oX$..+X$O.=",
".,OX:#*3u9m6cjkn7$0.#:%..oo#$X..#.%X..+oX:$$@=.+X#X#=X$$..+XXO..",
".#oX,,@*vrc27S7*$0.$:X%..oo#$X..X.#XX.+oX:$#...+X#.#.$X$XX+XXO..",
"X#o.#4$-*D2*v**$-@X##=#.=oo#.X....#XX.+XX#$#=.XoX#.#X$#$XX+X$==.",
".#o=#14$-*2***$0@X#::=#.@oo#.=.XXXX..@o@X#X$.=XoX#X#X$:#XX+X$==.",
".#o.$154#  .=--=##::X=#..oo#@=.XXXX.X=.X.#$#.=Xo.#X#.$:#..+X#=..",
".#o==#$11#X#.###X::oX=#.@%+:@...XXX..=XX.$X#.=.o.#X#.$:#XX+X#=..",
".XXX.$=..XX#.XX:XX.%X=#.@%o#@..=X.X..=XX.#$#...o.#X#.###XX.##=..",
"XXXX.#=.@..XX.X@XX.X.=:X.oo#....X.X..@X..X$#X...@$.XX$#XXX.X.=XX",
"<<----<- @---<<-<<<---X<<OO. <-<<-< ---  .. <--<<=-<- =. << -<<-",
"  @@@@  @.@  -  @ -   $  ++X.-@ -@ .@@ @@X.-@@ - .  @ .X. @.@- @",
"  @@@@  @@@ $-@   -   $  +oX@-@ <@-.@@@@ X.$@. - .  @-... @<@-< ",
"@ @@@@  @@.@.- - @    $  +oX@-  <@ .@@@@ $$.@ --@.  @ . .@ @ - -",
"@  @ @   @.@@-  @@@   $  +o$@-   @ @@@@  $$@@  -@. -@-. .@.@ << ",
"   @ @-  @.@@ @-@@@   $  ++$@-     @@ @  $$@ @--@. -@@. .@.@ - -",
"@@   @   .@@@@@@@@@ @@$  ++$ -   <m<@@@ @X$@@@@-@  -@   . @  < @",
"@@  <   @@@ @@@  @@@@@#  &+X -@  0i0 @ @ XX@@@ -@@@- -  . @ @< @",
" @  ---  .@  <m<@  @  . -&+X -   u5u-    XX@@@ - @@- <  .  @@<  ",
"     --  .@  0i0   .--. -<+X -   <$<- - <XX@ @@-  @---  .  @@< -",
"    < - <.@  u5u- @.  .  <+X -   0M0  -<<XX  @@- @@  <@@. .@@<  ",
"    - - <..  <$<- @.- . @-X. -@   0    < XX  @@@ @@  -@@. @ @-@ ",
" -    -  $$@ 0M0 @@.- @  <.. -@  @      @$$ --  @.@  -@ X @@ -@ ",
" -  < -  $.@  0  @ .  @@  ..@-   @ @ @  @X$  -  @.@@ -@ X .@ <@ ",
" -@@  -  ..@ .   @ . <  @@..@-   @@@    @X$@ -  @<@@<-  . .@ -@@",
"XX$$XXXXX1$$X:.$$XX:XXXXXXX#XXXXX$$$XXXX:X:$XX$$X$X$XXXX:X:$XX1X",
"$XX$X$XX$XXXXXXXX$$$XX$X$X:$$X$X.$X$$XXXXXXX$:$XXX$XXXX$X:XXXXXX",
"000000m00-000m000000mm0<<m000m00000<00000000<<0m0000m0m00m0m00m0",
"@@@  @- @ .@@-  @  -  @.@-@@@ @@< @.@   @@ @.@@-@   - -@    @ - ",
"@ @@@@  @@@@  @  @ -@@@@@-@@@  @<@.X@  @@ @@.. -@   -  @   @.@--",
" @@@    .@ @ @@@   -   @@<@@@- @-@@. @ @@@@$.@--   @-@ @@  -@@-.",
" @@.   -.@ .@ @ -  -   @@<@@@-   @@. @-@@@ ..@ -    -@ . @ - @-@",
"  @  @  .@ @ <@  @  @@  @<  @-   @ .@@ @@.@..@ -    - @..  - @-@",
"  @@@@  @@ .@- @-@      @<  @-   @@X@@ @@.@.@@ -@@@ -@@.@  - @-@",
"  @ @@  @$@@@-@@@@      @<  @-  -@@X@  @..@.@@ -@@@-- @@.@    -@",
"  @@ @ @@. @ -@@   @@@  @<@  -@@@ @@@@@@@@@@ @  @@@ - @@@@   -- ",
"@ @@ - @ . @ -@@ @ @@@  @<@  -  @@@.-@@ @@@@ @@< @@ - @..@    - ",
"@ @@@-  @.<@ - @@@  @@  @<   -  @@@.-@ @@@@. @@- @ -  @@.  @@ - ",
"  @@@- @@@<@ - @@@ @    .-  --   @ .-@@@ @@. @@- @ - @@@.@ @@ - ",
"  @@ - @@@ @ - @@@ @@@  .-   -@@@@@@-@@@ @@. @ -   -@@@ .@  @ < ",
" @@@@  @ @ @@-- - -@@@ @.<@@@-  @@@.  @   @. @ < -@ @@@@.@ @@@  ",
" @@@@@ @..@@@- @   @@@ @ <@@@-@ @  .@@@.@@@. @@-  @ @.@@.@ @@   ",
"  @@@@ @.$@@@- @  -@@@   <@@.-@  @ .@@@..@@. @@- -@ @. @.  .@  @",
"  @@@@  @.@  -  @ -   -  <@@.-@ -@ .@@ @@@ -@@ - -  @  @. @.@- @",
"  @@@@  @@@ $-@   -      <.@@-@ <@-.@@@@ @ $@. - -  @-  . @<@-< ",
"@ @@@@  @@.@.- - @    -  <.@@-  <@ .@@@@ ...@ --@-  @   .@ @ - -",
"@  @ @   @.@@-  @@@   -  <..@-   @ @@@@  ..@@  -@  -@-  .@.@ << ",
"   @ @-  @.@@ @-@@@   -  <@.@-     @@ @  ..@ @--@  -@@  .@.@ - -",
"@@   @   .@@@@@@@@@ @@   <@. -     @@@@ @@.@@@@-@  -@   . @  < @",
"@@  <   @@@ @@@  @@@@@@  <@@ -@    @ @ @ @@@@@ -@@@- -  . @ @< @",
"#5:::$$:$$$:::$$$X::1$:$$:$1:::11::1$::$$$:$:1$:$$$:::$$$X::1$:$",
"X#X..=..X.=...=..@XX#=X.=X.#XX.XXX.=XX.=.=..X..XX.=...=..@XX#=X.",
"XXX.,=X...=......@#XX=X.@X=#XXXX.X.,X#.=.=..X=....=......@#XX=X.",
"XX#X#=.=.X....=..@#XX=..@X.#XXXX.###X.==X=..X....X....=..@#XX=..",
".X#XX=..XXX...=..@##X=...X.XXXX..##XX..=X..=X=..XXX...=..@##X=..",
".X#XX.X=XXX...=..@X#X=.....XX.X..##X.X==X..=XX..XXX...=..@X#X=..",
".#XXXXXXXXX.XX...@X#.=.....XXXX.XX#XXXX=X..=X...XXX.XX...@X#.=..",
"XXX.XXX..XXXXXX..@XX.=X....X.X.X.XXXXX.=XXX=.=...XXXXXX..@XX.=X.",
".#X.XXX.X..X....=@XX.=.....X=....XXXXX.=.XX=.@..X..X....=@XX.=..",
".#X.X#.XX..#==..=@XX.=......=.=.@XXX.XX=..X===..X..#==..=@XX.=..",
"@#X..#.XX.X#.....@XX.=...#.X..=@@XX..XX=.XX..@XXX.X#.....@XX.=..",
"@##.=#.XX.X#=...X=X..=X..X.X...@.XX..XXX.XX..=XXX.X#=...X=X..=X.",
".,,X=X...XX#=.X..@.=.=X..X......X##.==..X#X..=X..XX#=.X..@.=.=X.",
".,#X=#...X.#..XX...=X=...X.X.X..XX#..=..X#XX.=X..X.#..XX...=X=..",
".##X.#...X.#.@..XX..X=...XXX....XX#X.=..X@XX@=...X.#.@..XX..X=..",
".,XX.#@XX..#..=....X.=.=.XXX....#=#X..XX.X.X.=..X..#..=....X.=.=",
".,=X.#@.XXX#=@.....X==.....X.X..#.#X...XXX..@=..XXX#=@.....X==..",
".#XX.#@.XX.#..=.XX.X==...=.X.X..X.#XX..XXX.X....XX.#..=.XX.X==..",
"X#X.=#.XXX.#X.X.XX.X.==.=..X.X....#XX..XXX.X=.XXXX.#X.X.XX.X.==.",
".#X==#.XXXX#X.#XXX.X.==.@..X.=.XXXX..@X@XX@..=XXXXX#X.#XXX.X.==.",
".#X.=#.X.XX#..#X...XX=....=X@=.XXXX.X=.X.X.X.=XX.XX#..#X...XX=..",
".#X==#.X.XX#..#XXX.XX=..@X@#@...XXX..=XX..@X.=.X.XX#..#XXX.XX=..",
".XXX.#=..XX#.XXXXX.#X=..@X=X@..=X.X..=XX.X.X...X.XX#.XXXXX.#X=..",
"XXXX.#=.@..XX.X@XX.X.=XX..=X....X.X..@X..=.#X...@..XX.X@XX.X.=XX",
"<<----<- @---<<-<<<---<<<0-- <-<<-< ---  -- <--<<<-<- <- << -<<-",
"  @@@@  @.@  -  @ -   -  <@@.-@ -@ .@@ @@@ -@@ - -  @  @. @.@- @",
"  @@@@  @@@ $-@   -      <.@@-@ <@-.@@@@ @ $@. - -  @-  . @<@-< ",
"@ @@@@  @@.@.- - @    -  <.@@-  <@ .@@@@ ...@ --@-  @   .@ @ - -",
"@  @ @   @.@@-  @@@   -  <..@-   @ @@@@  ..@@  -@  -@-  .@.@ << ",
"   @ @-  @.@@ @-@@@   -  <@.@-     @@ @  ..@ @--@  -@@  .@.@ - -",
"@@   @   .@@@@@@@@@ @@   <@. -     @@@@ @@.@@@@-@  -@   . @  < @",
"@@  <   @@@ @@@  @@@@@@  <@@ -@    @ @ @ @@@@@ -@@@- -  . @ @< @",
" @  ---  .@ @@@ @  @    -<@@ -     @-    @@@@@ - @@- <  .  @@<  ",
"     --  .@ @. @@  .--  -<@@ -      - - <@@@ @@-  @---  .  @@< -",
"    < - <.@  . @@ @.     <@@ -   . @  -<<@@  @@- @@  <@@. .@@<  ",
"    - - <.. -. @@ @.-   @-@  -@  @ @   < @@  @@@ @@  -@@. @ @-@ ",
" -    -  $$@-@   @@.- @  < - -@  @      @.. --  @.@  -@ X @@ -@ ",
" -  < -  $.@-.   @ .  @@   -@-   @ @ @  @@.  -  @.@@ -@ X .@ <@ ",
" -@@  -  ..@ .   @ . <  @@  @-   @@@    @@.@ -  @<@@<-  . .@ -@@",
"XX$$XXXXX1$$X:.$$XX:XXXXXXX$XXXXX$$$XXXX:X:$XX$$X$X$XXXX:X:$XX1X"
};
