/* XPM */
static char *ICKWALL2[] = {
/* columns rows colors chars-per-pixel */
"64 128 24 1 ",
"  c gray39",
". c #5B6347",
"X c #676B4F",
"o c #53573B",
"O c #5B5B5B",
"+ c #6F6F6F",
"@ c gray31",
"# c #777777",
"$ c #6F7357",
"% c #474F33",
"& c gray42",
"* c #3F472B",
"= c #8B8B8B",
"- c #7B7F63",
"; c #4B4B4B",
": c #373F27",
"> c gray34",
", c gray50",
"< c gray28",
"1 c #838383",
"2 c #434343",
"3 c #939393",
"4 c #17330F",
"5 c gray23",
/* pixels */
"@@@@O%@@O@;;@@;%@@@@;@@@@;@@@@@@@@@%@@@O@;;@%;%@@@@;@@@@;@@@@@@@",
"===----$-=11-X.X--=---=---=--X..X---=-X..X---X.X-------=1--X.X-=",
"+#+X...o$+  Xo*o$$+XXX+XX.#XX.*:oXXX+X.o*..X$%*o$X$X$XX+ $X.o.X+",
"###X...o$++..%*o$$+XXX+XXX#XX.*:o$XX+X.o*...X%*o$XXX$XX++$X.o.X+",
"##+X...o-++X.%*oXX+X.X#X.$#XX.**oXXX+$.o*.X.X%*oXXX.$$X #$X.o.X#",
",#,X...o$++X.%*oXX+X.X+$.$#.$.**o$XX+X.o*.X..%*oXXX.$X$ #$.Xo.X#",
"###$...o$#+..%*oX$#X.X+$.$#.$.%*o$$X+X.o*...X%*o$$X.XX$ #$.XooX#",
"###X...o$++o.%*o.X#X.X+X.$#X$.%*o$XX+X.o*.o.X%*oX$X.XXX +$X$ooX#",
"###X.$.o$>;**444*:5:::5**:5*::444::*2%**4:**:444*::****;#X$$..X+",
"+,+$.X.o-# ..o*%..&o.oOo.. .%.**o...&.oo*o.X.o*oX...XooO=X$$o.X+",
"###$XX..-+ .oo*%.o&o.oOo..Oo%o%*oX..&.oo*o...o%o.X..XooO3X$X.oX+",
",#+$X$X.-+Oo.o*ooo o..Oo.. o%o%*o.oXO..o*%...o%oX.oXoo.O=X$.ooX#",
"#++$X$X.-+Oooo*o.% o..O... o%o%*oXo.&..o*%...o%o.X..Xo.O=$$.o.X#",
",++$X$X.-+ o.o*%.. o..O... o%.%%oooX&X.o*o..Xo%o.ooXX..O=$$.o.$+",
"##+-X$$X-+Oo.o*o..O%o. ...Ooo.*%oooo&X.o*%.o.ooo.oooX.X =$$Xo.$#",
"++#XX$$X-+Oo.o*o..O%o. ...OX%o*%.ooo&X.o*o...ooo..ooX.X&=$$Xo.$#",
"#++XX$$X- @oo.*oXo oo.&... Xo%2%.oo.&X.o*o...ooo.Xo.X..O=$$$o.$#",
"#++XX$$X-& oo.*;.oO%oo .oo .%%2%.oo.&X.o*o.XOooo..o.X.XO=$$$o.$#",
"###XX$,.-&Ooo.*;X.O%o. .oo o%o2%oo..&X.o*o..Oooo. ..X.XO1$$$o.$#",
"+#,XX$,.-&OoO.%;Xo@*o. oo.Oo%%<%oo..&X.o*o.o@oo.. ..X..O1X$$..$#",
"+##XX$,X-+OoO.%;XoO%.o oooO*%o;%.o.o&..o*o.XOooo. .oXo.O=X$$..$#",
"##,XX$,X-+OoO.%@.oO%.o&ooo %%o<%.o..&..o*%.X ooo. ..&o.@3$$$..$#",
"##+XX$,X-+ .O.%@.o %oo oo%O%%o<%.o..&Xoo*o.X ooo. ..&.o@=X$X..X+",
"###XX$,X-+ .O.%@.oO*oo oo%O%oo<%ooo.&.oo*o.X ooooOo.&oo@=X$$.XX+",
"+##X$X,X-+ .O.%@XoO*o. o%%O%oo<%oooX&Xoo*%.. .oooOoX&.oO=.$$.XX#",
"+++X$X,X-+O. .*;o.OoooOoooOo.o<%ooo.&Xoo*%.. .o.oOo.&.oO=$$-.X$#",
"+++X$X,$-+O. O%@ooO%.oO.ooOo.o2o.oo.&Xoo*%.. ooO.Oo.&.o@=$$$.X$#",
"+#+XXX#$-+ . O%@ooO%.o oooO@.o2o.o.X X.o*o.oOooO.O.X .oO=$$XoX$,",
"#++X$$#$-& .&O%@.o %.oOo.oO@.o2o.o.X ..o*%.oOoo .O.X OoO=$$$.X$ ",
"#++.$$#$-& . O*;ooOo.oOo.oO@.o<o...XO..o*%..Ooo . .XOOo 3+$$XX$+",
"##+X$X#$-+OoOO%@ooO@..O...O@.o<o.Xo.O..o*o.oOoo .&o.OOoO=#$$XX$+",
"##+XXX#$-+OoOO*@o. @ooOoooO@.o2o..o.Oo.o*o.oOoo . o.O@oO=#$$XX$+",
"##+$XX#$-+Oo@O*@.o @ooOooOO@.o2..Xo.OoXo*o.%Ooo .&o.O@.O=+$$$X$+",
"##++$X#X-+Oo@O*@Xo @oo ooO @oo<..X..OX.o%.o%O.o  &..O .O=+$$$$$#",
"+#++$$#X-+@oOO*@Xo&@ooOo.O @O%@..X..OX.o%.oXO.o  &..O&. =+$$$X$#",
"+#++X$#$-+@oOO%>+o @ooOo.@@@O.>.oX. OX.@%o.o .o&O& .O . =##X+X$#",
"##++X$#X-+@%O>%O o OooO..@@OO.@.o..&OX. %o%o .o O  XO&. =+#X+X$#",
"##++#$#X-+O@O>%O   Oo.O..@@O o>.o..&O.. %o%o .o&O  XOO. =+#$+X1#",
"#++++$#X=+O@ ><O   OoOO.oO@OOo;.o. &OX. %.o. .o O  XO . =+#X+X##",
"#++++X#X=+OO >2O   O.O o.OOOOo@.ooO& X. o.o.OO> OOOX &. =+#++X##",
"##+++X#X=+OO ><O   O.  ..OOOOo@..oO& X. o..oOO>  OOX +. =## +X#+",
"##+++X#$=+OO ><O    . &.XOOO o;...O&&.. o..OOO>&  OX&&. =#+ +,#+",
"##+++X#$=+OO >@O @ O. &XXOO  o;..oO  XoOo.%OOO>  OO. +OO=#+1+,1#",
"+#++++#$=&O  O>O O O.  + OO  o;o.oO  .oOo.o OO>  OO  &OO=+#+#,#,",
"+##+#+#$=+ &  >O O  .   O@@ &.@.o%O  .o o.oO O> O@O  &O =+ +#11#",
"###+#+,$=  &O&>O O O.O  OO@  .@.o%OO .O o %O  O O@OO &O =+ +#,#,",
"++###+#$=O  O&>O OOO.   OO@O .@.oXOO+.  . %O  OOO+OO+&  =#+##1#+",
"++##1##$=  O &>O OOO.   @&@O .;o.o O .  .&@O O>  O O &  =#+#+1#+",
"#+##,,,#=  O&&>O   O.O  @ @O .@ooO  +.  . O OO> OO  +&  =##++1##",
"#####,,#=O O&&OO & O.O  O @OO.@ooO O .  . O OO>OOO O    =##++1#,",
"####1#,#=O O &OO&  O.O    @OO.@ooO O&.OO. O OO>OOO O& OO=# ++1##",
"####,#,#=O O &OO+  O.& OOOO  .O.oO+  .OO.O@OO OOOO+  &OO=#+#+,+#",
"#,####,#=  OO&OO  &O.& OOOO O. o.O O .OOOOO O O  O O &OO=#++#,+#",
"#,##1#,#=O OO& O+O+@.   OOO  .Oo. +O . OOO  O O&  +O & O=# +#1+#",
"#,++##,#=O @O& O+O&O.  &O O  .Oo.O O . OOO    O  O O   O=# +#,++",
"#,++##,#=O O & O  &O.   O O  .O..& @O.  OO  &&   & @O   =, +#,+#",
"+,+#,#,#==311,+1111,$31111113$1--1111-11$1,11111111133111#+#+#+#",
"+,+#1#,## ++#  #++# .#,#++#+,X#XX,#+#X##X# ++##+++#+#### #+#+#++",
"#,####,,+ +#, O+++# .#+#++#+#X,X$##+#X##X# ++##+++#+,#++ #+#+1#+",
"#,##++,## +,, O++++ .# +++#+#$,X-##+#$#+X++##1+1++1##,++O+ ++1#+",
"#,###+,## +#, O+#++ X# +###++$#XX#,+1$#+X++#+,#+#+#+#,++O++#+1##",
"#,###+,+# +,, O+#++ X# +++#++$#X-+1 1X##X++##,++##1+#,#+ +##+1#,",
"#,####,##+++# ,##++ X+++++# +,##1+,+1##,X#+##,++#+#+###+ +###1##",
"@O@@@@O@@@@@@;O@O@@@%@@O@@@@@O@@@@O@@@@@@@@@@O@@@O@;@@@@;@@@OO@@",
"@@@@O@@@O@;;@@;@@@@@;@@@@;@@@@@@@@@@@@@O@;;@@;@@@@@;@@@@;@@@@@@@",
"========3=11=============1=============3=11=============1=======",
"+#++#+,##+  +#++##+#+#+++ #++#+##++++,##+  +#++##+#+#+++ #++#+#+",
"###+#+##,++  +++##+++#++++#++#+###+++##,++  +++##+++#++++#++#+#+",
"##++#+1#1+++ + +++++ ##+ ##++++##++++1#1+++ + +++++ ##+ ##++++##",
",#,+#+###+++   +++++ #+# ## #+++#,+++###+++   +++++ #+# ## #+++#",
"#####+####+  + ++##+ ++# ## #+ +###++####+  + ++##+ ++# ## #+ ##",
"###+#+#,,++> + + +#+ +++ ##+,+ +##+++#,,++> + + +#+ +++ +#+,+ ##",
"###+###,#>;;;<;<;<<<;;;;;<;;<<;;;<<;>>>;<;;;<;>;;<<;>>>;#+#,#+#+",
"+,+##+#,=#    OO  &O OOO    @&OO+   &OOO@  &O & +   &OOO=+#,++#+",
"###,#+#13+  OOOO O&O OOO  OO@O O +  &OOO@   O &  +  &OOO3+#+#>#+",
",#+,#,#+=+OO  O OO O  OO   O@O  + O+OO O@O    & + O+OO O=+# + ##",
"#++###,+=+OOO O  @ O &O    O@O O &  &O OOO    &  &  &O O=## ++##",
",++##,,+=+ O  OO   O  O    O@  & OO+&  O@   & &  OO+&  O=## +#,+",
"##+1+#,+=+OO  O   O@O     OOO O& OOO& + @O O   O OOO& + =,#++#,#",
"++#+##,+=+OO OO   O@O     O&@OO&  OO& &&OO     O  OO& &&=,#++#,#",
"#+++##,+= @OO&O +O OO &    &O@O& &O &  O @       &O &  O=###+#,#",
"#+++##,+=& OO&OO OO@OO  OO  @@O&  O & +O & +O &   O & +O=##,+#,#",
"#####,, 1&OOO OO+ O@O   OO O@OO&O   & &O    O & O   & &O1###+#,#",
"+#,#+,, 1&OOO  O+O@<O  OO OO@@ &O   &  O   O@O&&O   &  O1+####,#",
"+##++#,+=+OOO& O&OO@ O OOOO2@O&&   O&O OO  &OO&@   O&O O=+####,#",
"##,++#,,3+OOO&   OO@ O&OOO @@O &    &O @ O & O&O    &O @3###,#,#",
"##+++#,#=+  O&   O @OO OO@O@@O &    & O@@  & O&O    & O@=+#+###+",
"####+#,#=+  O&   OO<OO OO@O@OO &OOO &OO@O  & O&OOOO &OO@=+#####+",
"+##+#+,#=+  O&  &OO<O  O@@O@OO &OOO&& OO@O    &OOOO&& OO= ######",
"+++##+,#=+O  &OOO OOOOOOOOOO O  OOO & OOOO   && OOO & OO=,#1+#,#",
"+++##+,#=+O  &  OOO@&OO OOOO OO+ OO & O@@O    &  OO & O@=###+#,#",
"+#++++##=+   &  OOO@&O OOOO@ OO& O &  OO@  OO &  O &  OO=##+ +,,",
"#+++####=&  &&   O @&OOO OO@ OO& O & OOO@O OO &  O & OOO=##,++, ",
"#++ ###,3&   &OOOOOO&OOO OO@ O &   &OOO @O  O +    &OOO 3+#,#+,+",
"##+##+##=+OOO&  OOO@  O   O@ O + &O OOOO@O OOO   &O OOOO=##,#+,+",
"##++++##=+OOO&O O  @OOO@OOO@ OO&  O O@OO@O OO     O O@OO=##,#+,+",
"##+#++##=+OO@&O  O @OOO@@OO@ OO& &O O@ O@  @O  O &O O@ O=+####,+",
"##++#+#+=+OO@&O &O @OO OOO &OO & &  O  O@ O@O& O &  O  O=+###,,#",
"+#++#,#+=+@OO&O +O&@OOOO O 2O@ & &  O&  @ O+O&+  &  O&  =+####,#",
"+#+++,##=+@OO&  +O @OOOO @@@O &&O&  O   @O O & &O&  O   =##++#,#",
"##+++,#+=+@@O&   O OOOO  @@OO  &O  &O&  @O@O ++ O  &O&  =+#++#,#",
"##++#,#+=+O@O&     OO O  @@O O&&O  &OO  @O@O & &O  &OO  =+##+#1#",
"#++++##+=+O@ &     OOOO OO@OOOO&O  &O   @ O  + OO  &O   =+#+++##",
"#+++++#+=+OO &O    O O O OOOOO &OOO& &  @ O O+ OOOO& &  =+#++###",
"##++++#+=+OO &     O&    OOOOO & OO& +  @  OO+   OO& +  =## +##+",
"##++++##=+OO &      & & +OOO OO&  O&&&  @  OO+ &  O&&&  =#+ +,#+",
"##++++##=+OO &   @ O  &++OO  OO& OO  +OO@ @OO+   OO  +OO=#+1+,1#",
"+#++++##=&O  &O  O O   + OO  OOO OO  &OO@ O O&O  OO  &OO=+#+#,#,",
"+##+#+##=+ & &O  O      O@@ &&  O@O  &O < OO &O O@O  &O =+ +#11#",
"###+#+,#=  &O&   O O O  OO@  &  O@OO &O < @O +O O@OO &O =+ +#,#,",
"++###+##=O  O&   OOO    OO@O &  O+OO+&  @ @O &OOO+OO+&  =#+##1#+",
"++##1###=  O & & OOO    @&@O  OO O O &  @&@O &O  O O &  =#+#+1#+",
"#+##,,,#=  O&&     O O  @ @O   OOO  +&  @ O O O OO  +&  =##++1##",
"#####,,#=O O&&   & O O  O @OO  OOO O    @ O O OOOO O    =##++1#,",
"####1#,#=O O && &  O O    @OO  OOO O& OO@ O O+ OOO O& OO=# ++1##",
"####,#,#=O O && +  O & OOOO  +O+OO+  &OO<O@OO+ OOO+  &OO=#+#+,+#",
"#,####,#=  OO&    &O+& OOOO O& O O O &OO<OO O+   O O &OO=#++#,+#",
"#,##1#,#=O OO&  +O+@+   OOO  &OO  +O & O@O  O+ &  +O & O=# +#1+#",
"#,++##,#=O @O&  +O&O+  &O O  &OO O O   O@O   +   O O   O=# +#,++",
"#,++##,#=O O &OO  &O    O O  +O  & @O   @O  &&O  & @O   =, +#,+#",
"+,+#,#,#==311,31111,33111111331111111111,1,11111111133111#+#+#+#",
"+,+#1#,## ++# 1#++# ##,#++#+,,###,#+#+##+# ++##+++#+#### #+#+#++",
"#,####,,+ +#, #+++# +#+#++#+#,,#,##+#+#### ++##+++#+,#++ #+#+1#+",
"#,##++,## +,, #++++ +# +++#+#,,#1##+#,#++++##1+1++1##,++O+ ++1#+",
"#,###+,## +#, #+#++ ## +###++,####,+1,#++++#+,#+#+#+#,++O++#+1##",
"#,###+,+# +,, #+#++ ## +++#++,##1+1 1###+++##,++##1+#,#+ +##+1#,",
"#,####,##+++# ,##++ #+++++# +,##1+,+1##,+#+##,++#+#+###+ +###1##",
"@O@@@@O@@@@@@;O@O@@@@@@O@@@@@O@@@@O@@@@@@@@@@O@@@O@;@@@@;@@@OO@@"
};
