/* XPM */
static char *LITEMET[] = {
/* columns rows colors chars-per-pixel */
"128 128 37 1 ",
"  c #232323",
". c #2F2F2F",
"X c #272727",
"o c gray23",
"O c #434343",
"+ c #373737",
"@ c gray28",
"# c #13230B",
"$ c gray39",
"% c gray31",
"& c #5B5B5B",
"* c gray34",
"= c #4B4B4B",
"- c gray78",
"; c #777777",
": c gray42",
"> c #838383",
", c #8B8B8B",
"< c gray67",
"1 c #6F6F6F",
"2 c #939393",
"3 c #17330F",
"4 c gray86",
"5 c LightGray",
"6 c #E7E7E7",
"7 c gray50",
"8 c #1F170B",
"9 c #CBCBCB",
"0 c #DFDFDF",
"q c #1B1B1B",
"w c gray75",
"e c gray70",
"r c #B7B7B7",
"t c #9F9F9F",
"y c #A7A7A7",
"u c #979797",
"i c #0B1707",
/* pixels */
"X..+o..o+++oo+...XX##XXX X   X 888888888888888888.X  ###q#qX XX.X..+o..o+++oo+...XX##XXX X   X 888888888888888888.X  ###q#qX XX.",
"XXX+.X.ooo++++.X# #XXX XX XX 88                 8  X #8 ##q   XXXXX+.X.ooo++++.X# #XXX XX XX 88                 8  X #8 ##q   XX",
"X##X.X...+.++3.X X. XXXXXXX 88 .+++oo@@@@@@o++3X 8    ##qq##   XX##X.X...+.++3.X X. XXXXXXX 88 .+++oo@@@@@@o++3X 8    ##qq##   X",
"X##XXX. +++..XX XX..XX XXX 88 .+.+.+oOoO++++..3.X 8  X #qq8#8  XX##XXX. +++..XX XX..XX XXX 88 .+.+.+oOoO++++..3.X 8  X #qq8#8  X",
"  X.XXX.+..XX#X  #X.XX XX 88 .+.3.X+ooooo+.+.....+ 8  X #qq#8 XX  X.XXX.+..XX#X  #X.XX XX 88 .+.3.X+ooooo+.+.....+ 8  X #qq#8 XX",
"X X....+..XXXX X .X.+.XX q8 +...X+++oo@o.X...+3.+.o 8  X### # X X X....+..XXXX X .X.+.XX q8 +...X+++oo@o.X...+3.+.o 8  X### # X ",
"X........X#X#X# X.+o+.X q8 o.X.+++++.oO@o.....+..++o 8  X      XX........X#X#X# X.+o+.X q8 o.X.+++++.oO@o.....+..++o 8  X      X",
"XXX.XX.X ##X# XXX+Ooo..q8 O.XX..+..+ooo+..X.+3++.X..O 8  X      XXX.XX.X ##X# XXX+Ooo..q8 O.XX..+..+ooo+..X.+3++.X..O 8  X      ",
"XX#  # X  X##  X.O@Oo.q8 OXXX..+o..+++++++.+++.+.XX.+O 8  X     XX#  # X  X##  X.O@Oo.q8 OXXX..+o..+++++++.+++.+.XX.+O 8  X     ",
"XX##   X  X# #XX+oOo.q8 oXXX.+++ooo+..o++.++..+....+.+O 8  X    XX##   X  X# #XX+oOo.q8 oXXX.+++ooo+..o++.++..+....+.+O 8  X    ",
"X ### XX   # XX.++o.q8 +XX.+++ooooOooo.o++o++.++.++...+o 8  X  XX ### XX   # XX.++o.q8 +XX.+++ooooOooo.o++o++.++.++...+o 8  X  X",
"X# ## XXXX##XX..++.q8 .X. ++.+o+oooOo@O+o+oooo++ooo+.X.++ 8  X XX# ## XXXX##XX..++.q8 .X. ++.+o+oooOo@O+o+oooo++ooo+.X.++ 8  X X",
" # #   X##XXXX.+.Xq8 .X..+o...+.o+oOoO%OooOooooo+oOooX..++ 8  X  # #   X##XXXX.+.Xq8 .X..+o...+.o+oOoO%OooOooooo+oOooX..++ 8  X ",
" # ###     ##X..Xq8 .X..++XX...+OooOOOoooooooOoo+oOoo. ...+ 8  X # ###     ##X..Xq8 .X..++XX...+OooOOOoooooooOoo+oOoo. ...+ 8  X",
"             XX q8  XX.+.+X.+..+OOoOoooOoOOOoooO++ooo... ..+ 8               XX q8  XX.+.+X.+..+OOoOoooOoOOOoooO++ooo... ..+ 8  ",
"XXXXXXXXXXXXXX q8  X  .++o+X+++.OooOoOO@OO%OO@ooOo+o+.X . ..X 8 XXXXXXXXXXXXXX q8  X  .++o+X+++.OooOoOO@OO%OO@ooOo+o+.X . ..X 8 ",
"88888888888888888 X  ..X+++..X.3.oooooo@@OO@OO@oOoo+. XX...XX  888888888888888888 X  ..X+++..X.3.oooooo@@OO@OO@oOoo+. XX...XX  8",
"                8 . .. X..+.+.X3.OooOoO@@@@%@OOOoOo ...XXXXX 88                 8 . .. X..+.+.X3.OooOoO@@@@%@OOOoOo ...XXXXX 88 ",
"+Oooooooooooooo+ 8 .X.X.....++.X+ooOOoo@@@@@@O@Ooo...X  X XX88 .+Oooooooooooooo+ 8 .X.X.....++.X+ooOOoo@@@@@@O@Ooo...X  X XX88 .",
".Oo@@%@@O@OoOo+oO 8 .XXX..++++oXOOoOOOooo@oOOO@oo.o..XXX.X 88 ...Oo@@%@@O@OoOo+oO 8 .XXX..++++oXOOoOOOooo@oOOO@oo.o..XXX.X 88 ..",
".Oo@@%@%@@OOOoo+oO 8 .XXX..+..+X.OoOOOoO%oOoo%oo.O. .X..  88 ....Oo@@%@%@@OOOoo+oO 8 .XXX..+..+X.OoOOOoO%oOoo%oo.O. .X..  88 ...",
"+oO@@@@@@%@OOOo.+oO 8 .XX .+XXXXooOoOooOOooooOoo...XXXXX 88 ....+oO@@@@@@%@OOOo.+oO 8 .XX .+XXXXooOoOooOOooooOoo...XXXXX 88 ....",
".ooO%@===@O@OooO.+oO 8 .  #.XXXXoOooooOo@ooooo+.X#.X#X .88 ... ..ooO%@===@O@OooO.+oO 8 .  #.XXXXoOooooOo@ooooo+.X#.X#X .88 ... .",
"+OO@OO=@@=@OOO@@o+.+O 8 X  XX.X.+.+oOooo+o.ooo..X#XXX .i8 .X....+OO@OO=@@=@OOO@@o+.+O 8 X  XX.X.+.+oOooo+o.ooo..X#XXX .i8 .X....",
"+OOO@OO@@==o@@Oooo..+O 8XX  XX++..+ooo+o.O...+ X..   .88  XX....+OOO@OO@@==o@@Oooo..+O 8XX  XX++..+ooo+o.O...+ X..   .88  XX....",
"+Ooo@oO@=@oOoO++++o+.+o 8XX  XXX...+o+.oo.X....#.## .88  XXX.X..+Ooo@oO@=@oOoO++++o+.+o 8XX  XXX...+o+.oo.X....#.## .88  XXX.X..",
".+OoOOOOoOOOo+.+.++ooXX+X8XX  .XXX.X.+.+X...X..X## .88 .X XXXX...+OoOOOOoOOOo+.+.++ooXX+X8XX  .XXX.X.+.+X...X..X## .88 .X XXXX..",
".+++OooOOoo+++.+++X.+.XXX 8 X ..XX.....X#.XX#XX#  Xi8 .X  XXX....+++OooOOoo+++.+++X.+.XXX 8 X ..XX.....X#.XX#XX#  Xi8 .X  XXX...",
"..++oooOOoo++.++... ...X X 8 X#  XXXX...... XXX# #i8 .X     XX....++oooOOoo++.++... ...X X 8 X#  XXXX...... XXX# #i8 .X     XX..",
"..+.++ooo+++++o+.X..X..XX X 8 X## ## XX..X  X X# i8 .X X   XX.XX..+.++ooo+++++o+.X..X..XX X 8 X## ## XX..X  X X# i8 .X X   XX.XX",
"..++++oo.+++oo+..XXX#.. XX X 8 X     X          i8 .X  ##   XX X..++++oo.+++oo+..XXX#.. XX X 8 X     X          i8 .X  ##   XX X",
"..++ooo+.X+oo++..#X#XX.X XX X 8 X#XXXXXXXXXXXX#i8 .X   #q#  XX.X..++ooo+.X+oo++..#X#XX.X XX X 8 X#XXXXXXXXXXXX#i8 .X   #q#  XX.X",
"X..+o..o+++oo+....XX#X.X X   X 888888888888888888.X  ###q#qX XX.X..+o..o+++oo+....XX#X.X X   X 888888888888888888.X  ###q#qX XX.",
"XXX+.X.ooo++++.X#..XX..XX XX 88                 8  X #8 ##q   XXXXX+.X.ooo++++.X#..XX..XX XX 88                 8  X #8 ##q   XX",
"X##X.X...+.++3.X..X X  X    X  X X     Xo@@@++3X 8    ##qq##   XX##X.X...+.++3.X. X  X    X  X X     Xo@@@@@++3X 8    ##qq##   X",
"X##XXX. +++..XX X..oOooooo+oOooOoOo+oooOo++++.3.X 8  X #qq8#8  XX##XXX. +++..XX XoOooooo+oOooOoOo+oooOoO+++++.3.X 8  X #qq8#8  X",
"  X.XXX.+..XX#X  ..o@;*oOo.+o.+o+oO+o*;@o+.+++...+ 8  X #qq#8 XX  X.XXX.+..XX#X  o@;*oOo.+o.+o+oO+o*;@ooo+.+++...+ 8  X #qq#8 XX",
"X X....+..XXX. X..XO@oOO@@%%%%%%%%@+OOo@OX++.+3.+.o 8  X### # X X X....+..XXX. X.O@oOO@@%%%%%%%%@+OOo@O++X++.+3.+.o 8  X### # X ",
"X.........#X.X...XXO=OOO=$>222222>$@OOO=O.+++.++.++o 8  X      XX.........#X.X...O=OOO=$>222222>$@OOO=O...+++.++.++o 8  X      X",
"XXX.XX.X .#X# XXXXXO=@O@=><r----r<>=@O@=O.X.+3++....O 8  X      XXX.XX.X .#X# XXXO=@O@=><r----r<>=@O@=O+..X.+3++....O 8  X      ",
"XX#  # X .X##  XX..@%%O@=><-5445-<>=@O%%@+.+++.+....+O 8  X     XX#  # X .X##  XX@%%O@=><-5445-<>=@O%%@+++.+++.+....+O 8  X     ",
"XX## . .  X# #XXX..@%%@==><-0004-<>==@%%@.++..+....+.+O 8  X    XX## . .  X# #XXX@%%@==><-0004-<>==@%%@++.++..+....+.+O 8  X    ",
"X ### XX   # XXX..o%*%%==><-0000-<>==%%*%+o++.++.++...+o 8  X  XX ### XX   # XXX.%*%%==><-0000-<>==%%*%o++o++.++.++...+o 8  X  X",
"X# ## XXXX##XX..++.%*%%%=><-0000-<>=%%%*%+oooo++o+++.X.++ 8  X XX# ## XXXX##XX..+%*%%%=><-0000-<>=%%%*%+o+oooo++o+++.X.++ 8  X X",
" # #   X##XXXX.+.Xq%***%=><-0000-<>=%***%oOooooo+o++.X..++ 8  X  # #   X##XXXX.+.%***%=><-0000-<>=%***%OooOooooo+o++.X..++ 8  X ",
" # ###     ##X..Xq8%&***=,<-0000-<,=***&%OOooooo+oO++. ...+ 8  X # ###     ##X..X%&***=,<-0000-<,=***&%OOOOooooo+oO++. ...+ 8  X",
"             XX q8 *&&&*%,<-0000-<,=*&&&*OOOOOoO++o..... ..+ 8               XX q*&&&*%,<-0000-<,=*&&&*OOOOOOOoO++o..... ..+ 8  ",
"XXXXXXXXXXXXXX q8  *$&&*%,<-0000-<,%*&&$*O@OO@OoOo+...X . ..X 8 XXXXXXXXXXXXXX q8*$&&*%,<-0000-<,%*&&$*@@O@OO@OoOo+...X . ..X 8 ",
"88888888888888888 X*$&&&*2<-0000-<2%&&&$*OO@OOooOoo+. XX...XX  888888888888888888*$&&&*2<-0000-<2%&&&$*OOOO@OOooOoo+. XX...XX  8",
"                8 .*$$$&*2<-0000-<2*&$$$*O@@OOOooOo ...XXXXX 88                 8*$$$&*2<-0000-<2*&$$$*OOO@@OOOooOo ...XXXXX 88 ",
"+Oo@%%%%@@@@ooo+ 8 *:$$$*u<-0000-<u*$$$:*OOOoOoooo...X  X XX88 .+Oo@%%%%@@@@ooo+ *:$$$*u<-0000-<u*$$$:*O@OOOoOoooo...X  X XX88 .",
".Oo@@%@@O@OoOo+oO 8*:$$$*u<-0000-<u*$$$:*Ooooo@oo.o..XXX.X 88 ...Oo@@%@@O@OoOo+oO*:$$$*u<-0000-<u*$$$:*OOOoooo@oo.o..XXX.X 88 ..",
".Oo@@%@%@@OOOoo+oO $1::$*u<-0000-<u*$::1$ooOooo+.O. .X..  88 ....Oo@@%@%@@OOOoo+o$1::$*u<-0000-<u*$::1$oOooOooo+.O. .X..  88 ...",
"+oO@@@@@@%@OOOo.+oO$1:::*u<-0000-<u*:::1$oOooo++...XXXXX 88 ....+oO@@@@@@%@OOOo.+$1:::*u<-0000-<u*:::1$oooOooo++...XXXXX 88 ....",
".ooO%@===@O@OooO.+o$111:&u<-0000-<u*:111$oooo++.X#.X#X .88 ... ..ooO%@===@O@OooO.$111:&u<-0000-<u*:111$OOoooo++.X#.X#X .88 ... .",
"+OO@OO=@@=@OOO@@o+.$;111&u<-0000-<u&111;$o.o....X#XXX .i8 .X....+OO@OO=@@=@OOO@@o$;111&u<-0000-<u&111;$..o.o....X#XXX .i8 .X....",
"+OOO@OO@@==o@@Oooo.$;111&u<-0000-<u&111;$....+ X..   .88  XX....+OOO@OO@@==o@@Ooo$;111&u<-0000-<u&111;$......+ X..   .88  XX....",
"+Ooo@oO@=@oOoO++++o$;;;1&u<-0000-<u&1;;;$..X.X.X.## .88  XXX.X..+Ooo@oO@=@oOoO+++$;;;1&u<-0000-<u&1;;;$+...X.X.X.## .88  XXX.X..",
".+OoOOOOoOOOo+.+.++o$;;;&t<-0000-<t&;;;$XXXXXX X## .88 .X XXXX...+OoOOOOoOOOo+.+.+$;;;&t<-0000-<t&;;;$.XXXXXXX X## .88 .X XXXX..",
".+++OooOOoo+++.+++X.+$;;&y<-0000-<y&;;$X   X# X#  Xi8 .X  XXX....+++OooOOoo+++.+++X$;;&y<-0000-<y&;;$XXX   X# X#  Xi8 .X  XXX...",
"..++oooOOoo++.++... .$7;&<<-0000-<<&;7$X XX X X# #i8 .X     XX....++oooOOoo++.++...$7;&<<-0000-<<&;7$X.X XX X X# #i8 .X     XX..",
"..+.++ooo+++++o+.X..X$77&e<-0000-<e&77$X X  X X# i8 .X X   XX.XX..+.++ooo+++++o+.X.$77&e<-0000-<e&77$X X X  X X# i8 .X X   XX.XX",
"..++++oo.+++oo+..XXX#$77$e<-0000-<e&77$         i8 .X  ##   XX X..++++oo.+++oo+..XX$77$e<-0000-<e&77$X          i8 .X  ##   XX X",
"..++ooo+.X+oo++..#X#X$>>$e<-0000-<e$>>$XXXXXXX#i8 .X   #q#  XX.X..++ooo+.X+oo++..#X$>>$e<-0000-<e$>>$XXXXXXXXX#i8 .X   #q#  XX.X",
"X..+o..o+++oo+...XX##$>>$e<-0000-<e$>>$8888888888.X  ###q#qX XX.X..+o..o+++oo+...XX$>>$e<-0000-<e$>>$888888888888.X  ###q#qX XX.",
"XXX+.X.ooo++++.X# #XX$,>$w<-0000-<w$>,$         8  X #8 ##q   XXXXX+.X.ooo++++.X# #$,>$w<-0000-<w$>,$           8  X #8 ##q   XX",
"X##X.X...+.++3.X X. X$,,$-<-4004-<-$,,$@@@@o++3X 8    ##qq##   XX##X.X...+.++3.X X.$,,$-<-4004-<-$,,$@@@@@@o++3X 8    ##qq##   X",
"X##XXX. +++..XX XX..X$,,$5<-5445-<5$,,$O++++..3.X 8  X #qq8#8  XX##XXX. +++..XX XX.$,,$5<-5445-<5$,,$OoO++++..3.X 8  X #qq8#8  X",
"  X.XXX.+..XX#X  #X.X$2,$4<-9559-<4$,2$oo+.+.....+ 8  X #qq#8 XX  X.XXX.+..XX#X  #X$2,$4<-9559-<4$,2$oooo+.+.....+ 8  X #qq#8 XX",
"X X....+..XXXX X .X.+$22$4<--99--<4$22$o.X...+3.+.o 8  X### # X X X....+..XXXX X .X$22$4<--99--<4$22$o@o.X...+3.+.o 8  X### # X ",
"X........X#X#X# X.+o+$22$6<-9559-<6$22$@o.....+..++o 8  X      XX........X#X#X# X.+$22$6<-9559-<6$22$oO@o.....+..++o 8  X      X",
"XXX.XX.X ##X# XXX+Ooo$2,$6<-5445-<6$,2$+..X.+3++.X..O 8  X      XXX.XX.X ##X# XXX+O$2,$6<-5445-<6$,2$oo+..X.+3++.X..O 8  X      ",
"XX#  # X  X##  X.O@Oo$,,$6<-4004-<6$,,$+++.+++.+.XX.+O 8  X     XX#  # X  X##  X.O@$,,$6<-4004-<6$,,$+++++.+++.+.XX.+O 8  X     ",
"XX##   X  X# #XX+oOo.$,,$-<-0000-<-$,,$++.++..+....+.+O 8  X    XX##   X  X# #XX+oO$,,$-<-0000-<-$,,$.o++.++..+....+.+O 8  X    ",
"X ### XX   # XX.++o.q$,>$w<-0000-<w$>,$o++o++.++.++...+o 8  X  XX ### XX   # XX.++o$,>$w<-0000-<w$>,$o.o++o++.++.++...+o 8  X  X",
"X# ## XXXX##XX..++.q8$>>$e<-0000-<e$>>$+o+oooo++ooo+.X.++ 8  X XX# ## XXXX##XX..++.$>>$e<-0000-<e$>>$@O+o+oooo++ooo+.X.++ 8  X X",
" # #   X##XXXX.+.Xq8 $>>&e<-0000-<e$>>$OooOooooo+oOooX..++ 8  X  # #   X##XXXX.+.Xq$>>&e<-0000-<e$>>$O%OooOooooo+oOooX..++ 8  X ",
" # ###     ##X..Xq8 .$77&e<-0000-<e&77$ooooooOoo+oOoo. ...+ 8  X # ###     ##X..Xq8$77&e<-0000-<e&77$OoooooooOoo+oOoo. ...+ 8  X",
"             XX q8  X$77&e<-0000-<e&77$OoOOOoooO++ooo... ..+ 8               XX q8 $77&e<-0000-<e&77$ooOoOOOoooO++ooo... ..+ 8  ",
"XXXXXXXXXXXXXX q8  X $7;&<<-0000-<<&;7$@OO%OO@ooOo+o+.X . ..X 8 XXXXXXXXXXXXXX q8  $7;&<<-0000-<<&;7$OO@OO%OO@ooOo+o+.X . ..X 8 ",
"88888888888888888 X  $;;&y<-0000-<y&;;$@@OO@OO@oOoo+. XX...XX  888888888888888888 X$;;&y<-0000-<y&;;$oo@@OO@OO@oOoo+. XX...XX  8",
"                8 . $;;;&t<-0000-<t&;;;$@@@%@OOOoOo ...XXXXX 88                 8 $;;;&t<-0000-<t&;;;$O@@@@%@OOOoOo ...XXXXX 88 ",
"+Oooooooooooooo+ 8 $;;;1&u<-0000-<u&1;;;$@@@@O@Ooo...X  X XX88 .+Oooooooooooooo+ $;;;1&u<-0000-<u&1;;;$@@@@@@O@Ooo...X  X XX88 .",
".Oo@@%@@O@OoOo+oO 8$;111&u<-0000-<u&111;$@oOOO@oo.o..XXX.X 88 ...Oo@@%@@O@OoOo+oO$;111&u<-0000-<u&111;$oo@oOOO@oo.o..XXX.X 88 ..",
".Oo@@%@%@@OOOoo+oO $;111*u<-0000-<u&111;$oOoo%oo.O. .X..  88 ....Oo@@%@%@@OOOoo+o$;111*u<-0000-<u&111;$O%oOoo%oo.O. .X..  88 ...",
"+oO@@@@@@%@OOOo.+oO$111:*u<-0000-<u*:111$ooooOoo...XXXXX 88 ....+oO@@@@@@%@OOOo.+$111:*u<-0000-<u*:111$OOooooOoo...XXXXX 88 ....",
".ooO%@===@O@OooO.+o&1:::*u<-0000-<u*:::1&ooooo+.X#.X#X .88 ... ..ooO%@===@O@OooO.&1:::*u<-0000-<u*:::1&o@ooooo+.X#.X#X .88 ... .",
"+OO@OO=@@=@OOO@@o+.&1::$*u<-0000-<u*$::1&o.ooo..X#XXX .i8 .X....+OO@OO=@@=@OOO@@o&1::$*u<-0000-<u*$::1&o+o.ooo..X#XXX .i8 .X....",
"+OOO@OO@@==o@@Oooo.&::::*u<-0000-<u*::::&O...+ X..   .88  XX....+OOO@OO@@==o@@Ooo&::::*u<-0000-<u*::::&o.O...+ X..   .88  XX....",
"+Ooo@oO@=@oOoO++++o*:$$$*u<-0000-<u*$$$:*.X....#.## .88  XXX.X..+Ooo@oO@=@oOoO+++*:$$$*u<-0000-<u*$$$:*oo.X....#.## .88  XXX.X..",
".+OoOOOOoOOOo+.+.++*::::%2<-0000-<2*::::*...X..X## .88 .X XXXX...+OoOOOOoOOOo+.+.*::::%2<-0000-<2*::::*+X...X..X## .88 .X XXXX..",
".+++OooOOoo+++.+++X*$&&&%2<-0000-<2%&&&$*.XX#XX#  Xi8 .X  XXX....+++OooOOoo+++.++*$&&&%2<-0000-<2%&&&$*X#.XX#XX#  Xi8 .X  XXX...",
"..++oooOOoo++.++...%$$$&=,<-0000-<,%&$$$%.. XXX# #i8 .X     XX....++oooOOoo++.++.%$$$&=,<-0000-<,%&$$$%.... XXX# #i8 .X     XX..",
"..+.++ooo+++++o+.X.%&&&*=,<-0000-<,=*&&&%X  X X# i8 .X X   XX.XX..+.++ooo+++++o+.%&&&*=,<-0000-<,=*&&&%..X  X X# i8 .X X   XX.XX",
"..++++oo.+++oo+..XX%$&&&=,<-0000-<,=&&&$%       i8 .X  ##   XX X..++++oo.+++oo+..%$&&&=,<-0000-<,=&&&$%         i8 .X  ##   XX X",
"..++ooo+.X+oo++..#X%***%=><-0000-<>=%***%XXXXX#i8 .X   #q#  XX.X..++ooo+.X+oo++..%***%=><-0000-<>=%***%XXXXXXX#i8 .X   #q#  XX.X",
"X..+o..o+++oo+....X@*%%%=><-0000-<>=%%%*@88888888.X  ###q#qX XX.X..+o..o+++oo+...@*%%%=><-0000-<>=%%%*@8888888888.X  ###q#qX XX.",
"XXX+.X.ooo++++.X#..@*%%==><-0000-<>==%%*@       8  X #8 ##q   XXXXX+.X.ooo++++.X#@*%%==><-0000-<>==%%*@         8  X #8 ##q   XX",
"X##X.X...+.++3.X..X@%====><-4004-<>====%@@@@++3X 8    ##qq##   XX##X.X...+.++3.X.@%====><-4004-<>====%@@@@@@++3X 8    ##qq##   X",
"X##XXX. +++..XX X..O%==@=><-5445-<>=@==%O++++.3.X 8  X #qq8#8  XX##XXX. +++..XX XO%==@=><-5445-<>=@==%OO+++++.3.X 8  X #qq8#8  X",
"  X.XXX.+..XX#X  ..O=@@@@><r----r<>=@@@=O+.+++...+ 8  X #qq#8 XX  X.XXX.+..XX#X  O=@@@@><r----r<>=@@@=Ooo+.+++...+ 8  X #qq#8 XX",
"X X....+..XXX. X..XO=@@Oo1>222222>1@O@@=OX++.+3.+.o 8  X### # X X X....+..XXX. X.O=@@Oo1>222222>1@O@@=O++X++.+3.+.o 8  X### # X ",
"X.........#X.X...XXo@;*Oo*%%%%%%%%*oO*;@o.+++.++.++o 8  X      XX.........#X.X...o@;*Oo*%%%%%%%%*oO*;@o...+++.++.++o 8  X      X",
"XXX.XX.X .#X# XXXXXo@o@ooo.+o.+o+oOoo@o@o.X.+3++....O 8  X      XXX.XX.X .#X# XXXo@o@ooo.+o.+o+oOoo@o@o+..X.+3++....O 8  X      ",
"XX#  # X .X##  XX..oOooooo+oOooOoOo+oooOo+.+++.+....+O 8  X     XX#  # X .X##  XXoOooooo+oOooOoOo+oooOo+++.+++.+....+O 8  X     ",
"XX## . .  X# #XXX..oX       X  X X     Xo.++..+....+.+O 8  X    XX## . .  X# #XXXoX       X  X X     Xo++.++..+....+.+O 8  X    ",
"X ### XX   # XXX..o.q8 +XX.+++oooooooo.o++o++.++.++...+o 8  X  XX ### XX   # XXX..o.q8 +XX.+++oooooooo.o++o++.++.++...+o 8  X  X",
"X# ## XXXX##XX..++.q8 .X. ++.+o+oooooOO+o+oooo++o+++.X.++ 8  X XX# ## XXXX##XX..++.q8 .X. ++.+o+oooooOO+o+oooo++o+++.X.++ 8  X X",
" # #   X##XXXX.+.Xq8 .X...o...+.o+oOoOoOooOooooo+o++.X..++ 8  X  # #   X##XXXX.+.Xq8 .X...o...+.o+oOoOoOooOooooo+o++.X..++ 8  X ",
" # ###     ##X..Xq8 .X....XX...+OooOoooOOOOooooo+oO++. ...+ 8  X # ###     ##X..Xq8 .X....XX...+OooOoooOOOOooooo+oO++. ...+ 8  X",
"             XX q8  XX....X.+..+++oOOOOOOOOOOOoO++o..... ..+ 8               XX q8  XX....X.+..+++oOOOOOOOOOOOoO++o..... ..+ 8  ",
"XXXXXXXXXXXXXX q8  X  ....++++++++oOO@@@@O@OO@OoOo+...X . ..X 8 XXXXXXXXXXXXXX q8  X  ....++++++++oOO@@@@O@OO@OoOo+...X . ..X 8 ",
"88888888888888888 X  ..X+++..X.3+ooO@OOOOOO@OOooOoo+. XX...XX  888888888888888888 X  ..X+++..X.3+ooO@OOOOOO@OOooOoo+. XX...XX  8",
"                8 . .. X..+.+.X3++oOOOOOOO@@OOOooOo ...XXXXX 88                 8 . .. X..+.+.X3++oOOOOOOO@@OOOooOo ...XXXXX 88 ",
"+Oo@%%%%@@@@ooo+ 8 .X.X.....++.X+oooOOOO@OOOoOoooo...X  X XX88 .+Oo@%%%%@@@@ooo+ 8 .X.X.....++.X+oooOOOO@OOOoOoooo...X  X XX88 .",
".Oo@@%@@O@OoOo+oO 8 .XXX..++++oX+o++oO@OOOoooo@oo.o..XXX.X 88 ...Oo@@%@@O@OoOo+oO 8 .XXX..++++oX+o++oO@OOOoooo@oo.o..XXX.X 88 ..",
".Oo@@%@%@@OOOoo+oO 8 .XXX..+..+X++.++oooOooOooo+.O. .X..  88 ....Oo@@%@%@@OOOoo+oO 8 .XXX..+..+X++.++oooOooOooo+.O. .X..  88 ...",
"+oO@@@@@@%@OOOo.+oO 8 .XX .+XXXX..+..+OoooOooo++...XXXXX 88 ....+oO@@@@@@%@OOOo.+oO 8 .XX .+XXXX..+..+OoooOooo++...XXXXX 88 ....",
".ooO%@===@O@OooO.+oO 8 .  #.XXXX.X..++oOOoooo++.X#.X#X .88 ... ..ooO%@===@O@OooO.+oO 8 .  #.XXXX.X..++oOOoooo++.X#.X#X .88 ... .",
"+OO@OO=@@=@OOO@@o+.+O 8 X  XX.X.X..+.+...o.o....X#XXX .i8 .X....+OO@OO=@@=@OOO@@o+.+O 8 X  XX.X.X..+.+...o.o....X#XXX .i8 .X....",
"+OOO@OO@@==o@@Oooo..+O 8XX  XX++XX+oo........+ X..   .88  XX....+OOO@OO@@==o@@Oooo..+O 8XX  XX++XX+oo........+ X..   .88  XX....",
"+Ooo@oO@=@oOoO++++o+.+o 8XX  XXXXX...+++...X.X.X.## .88  XXX.X..+Ooo@oO@=@oOoO++++o+.+o 8XX  XXXXX...+++...X.X.X.## .88  XXX.X..",
".+OoOOOOoOOOo+.+.++ooXX+X8XX  .XXXXX...XXXXXXX X## .88 .X XXXX...+OoOOOOoOOOo+.+.++ooXX+X8XX  .XXXXX...XXXXXXX X## .88 .X XXXX..",
".+++OooOOoo+++.+++X.+.XXX 8 X .. XXXXXXX   X# X#  Xi8 .X  XXX....+++OooOOoo+++.+++X.+.XXX 8 X .. XXXXXXX   X# X#  Xi8 .X  XXX...",
"..++oooOOoo++.++... ...X X 8 X#   X XX.X XX X X# #i8 .X     XX....++oooOOoo++.++... ...X X 8 X#   X XX.X XX X X# #i8 .X     XX..",
"..+.++ooo+++++o+.X..X..XX X 8 X## #  X X X  X X# i8 .X X   XX.XX..+.++ooo+++++o+.X..X..XX X 8 X## #  X X X  X X# i8 .X X   XX.XX",
"..++++oo.+++oo+..XXX#.. XX X 8 X     X          i8 .X  ##   XX X..++++oo.+++oo+..XXX#.. XX X 8 X     X          i8 .X  ##   XX X",
"..++ooo+.X+oo++..#X#XX.X XX X 8 X#XXXXXXXXXXXX#i8 .X   #q#  XX.X..++ooo+.X+oo++..#X#XX.X XX X 8 X#XXXXXXXXXXXX#i8 .X   #q#  XX.X"
};
