/* XPM */
static char *LITEBLU1[] = {
/* columns rows colors chars-per-pixel */
"8 128 33 1 ",
"  c gray39",
". c gray34",
"X c #6F6F6F",
"o c #5B5B5B",
"O c gray31",
"+ c #4B4B4B",
"@ c gray28",
"# c gray42",
"$ c #434343",
"% c gray23",
"& c #777777",
"* c gray50",
"= c #838383",
"- c #8B8B8B",
"; c #939393",
": c #000023",
"> c #00002F",
", c #000083",
"< c #373737",
"1 c #979797",
"2 c #00006B",
"3 c #0000B3",
"4 c #0000E3",
"5 c #00009B",
"6 c #00003B",
"7 c #0000CB",
"8 c #000017",
"9 c #000053",
"0 c #000047",
"q c #3737FF",
"w c #1B1BFF",
"e c #9F9F9F",
"r c #2F2F2F",
/* pixels */
"$%%$%@%%",
"$%%$%$%%",
"@%$@$@$%",
"@$$@$@$$",
"+$@+@+@$",
"+@@+@+@@",
"O@+O+O+@",
"O++O+O++",
".+O.O.O+",
".OO.O.OO",
".rrrrrrO",
"o<8888<.",
"o<8888<.",
" <::::<.",
" %::::%o",
" %>>>>%o",
"#%::::% ",
"#%>>>>% ",
"X%6666% ",
"X$0000$#",
"X$9999$#",
"&@2222@X",
"&@,,,,@X",
"&@5555@X",
"*+3333+&",
"*+7777+&",
"=+4444+&",
"=OwwwwO*",
"=OqqqqO*",
"-OwwwwO=",
"-O4444O=",
"-O7777O=",
";.3333.-",
";.5555.-",
";.,,,,.-",
"1o2222o;",
"1 9999 ;",
"; 0000 -",
"; 6666 -",
"; >>>> -",
"-X::::X=",
"-X>>>>X=",
"-X8888X=",
"=X8888X*",
"=;;1ee-*",
"=&*=*=*&",
"*&&*&*&&",
"*&&*&*&&",
"&X&&&&&X",
"&XX&X&XX",
"&XX&X&XX",
"X#XXXXX#",
"X##X#X##",
"X #X#X# ",
"#  # #  ",
"#  # #  ",
" o     o",
" oo o oo",
" .o o o.",
"o.ooooo.",
"o..o.o..",
".O.....O",
".OO.O.OO",
".+O.O.O+",
".+O.O.O+",
".OO.O.OO",
".O.....O",
"o..o.o..",
"o.ooooo.",
" .o o o.",
" oo o oo",
" o     o",
"#  # #  ",
"#  # #  ",
"X #X#X# ",
"X##X#X##",
"X#XXXXX#",
"&XX&X&XX",
"&XX&X&XX",
"&X&&&&&X",
"*&&*&*&&",
"*&&*&*&&",
"=&*=*=*&",
"=**=*=**",
"=**=*=**",
"- ++++ =",
"- 8888 =",
"- 8888 =",
"; :::: -",
"; :::: -",
";#>>>>#-",
"1#::::#;",
"1#>>>>#;",
";#6666#-",
"; 0000 -",
"; 9999 -",
"- 2222 =",
"- ,,,, =",
"- 5555 =",
"=o3333o*",
"=o7777o*",
"=o4444o&",
"*owwwwo&",
"*oqqqqo&",
"&owwwwoX",
"&.4444.X",
"&.7777.X",
"X.3333.#",
"XO5555O#",
"XO,,,,O ",
"#+2222+ ",
"#+9999+ ",
" +0000+o",
" @6666@o",
" @>>>>@.",
"o@::::@.",
"o@>>>>@.",
".@8888@O",
".$8888$O",
".OooooO+",
"O++O+O++",
"O@+O+O+@",
"+@@+@+@@",
"+$@+@+@$",
"@$$@$@$$",
"@%$@$@$%",
"$%%$%$%%",
"$%%$%$%%"
};
