/* XPM */
static char *LITE2[] = {
/* columns rows colors chars-per-pixel */
"64 128 53 1 ",
"  c #6F5743",
". c #5F4B37",
"X c #775F3F",
"o c #7B634F",
"O c #675333",
"+ c #775F4B",
"@ c #67533F",
"# c #836B4B",
"$ c #574333",
"% c gray39",
"& c #533F2F",
"* c #5B5B5B",
"= c gray31",
"- c #4B371B",
"; c gray28",
": c #434343",
"> c gray34",
", c gray23",
"< c #4B4B4B",
"1 c gray78",
"2 c gray42",
"3 c #836B57",
"4 c #8B735B",
"5 c #8B8B8B",
"6 c #533F1F",
"7 c #777777",
"8 c #838383",
"9 c #3F2F17",
"0 c #939393",
"q c gray67",
"w c gray86",
"e c #6F6F6F",
"r c LightGray",
"t c gray50",
"y c #373737",
"u c #CBCBCB",
"i c #5B472B",
"p c #E7E7E7",
"a c #DFDFDF",
"s c #332B13",
"d c #979797",
"f c #5B6347",
"g c #3F472B",
"h c #A7A7A7",
"j c #9F9F9F",
"k c #232323",
"l c gray70",
"z c gray75",
"x c #B7B7B7",
"c c #272727",
"v c #2F2F2F",
"b c #937B63",
"n c #774F2B",
/* pixels */
" X  @kckkckkkkckkckckkkkkc,XOO@@  @kckkckkkkckkckckkkkkc,66O6ii ",
"  XX ,:,,,,,y,:,,:,:,y,,,:,XOO@@   ,:,,,,,y,:,,:,:,y,,,:,@@ O O ",
"  X +,;7>,:,vy,vy,y,:y,>7;,X@O.O X ,;7>,:,vy,vy,y,:y,>7;,X XO@@@",
" @X#X:;,::;;========;y::,;: @OOOX X:;,::;;========;y::,;: X OOO@",
" @Xo :<:::<%80000008%;:::<:X O@ X X:<:::<%80000008%;:::<: XO@O.@",
" @XXX:<;:;<8qx1111xq8<;:;<:o O@  XX:<;:;<8qx1111xq8<;:;<:XXO@.O.",
" @XoX;==:;<8q1rwwr1q8<;:==;X@OO  XX;==:;<8q1rwwr1q8<;:==;XXO....",
" @o@X;==;<<8q1aaaw1q8<<;==; @O@@+oO;==;<<8q1aaaw1q8<<;==;XX@.$@.",
".@X@X=>==<<8q1aaaa1q8<<==>= OOO@+oO=>==<<8q1aaaa1q8<<==>=oX@$$@.",
".@@@X=>===<8q1aaaa1q8<===>= OO.@+oX=>===<8q1aaaa1q8<===>=#X@$...",
".@  o=>>>=<8q1aaaa1q8<=>>>= OOOO+oX=>>>=<8q1aaaa1q8<=>>>=##@$...",
".O.@@=*>>><5q1aaaa1q5<>>>*= OO..ooo=*>>><5q1aaaa1q5<>>>*=##@$.$.",
".@. O>***>=5q1aaaa1q5<>***>X.@..o33>***>=5q1aaaa1q5<>***>XX@$$&.",
"... O>%**>=5q1aaaa1q5=>**%>XOO.....>%**>=5q1aaaa1q5=>**%>$$$$&&.",
"...@O>%***>0q1aaaa1q0=***%>@O@.g--->%***>0q1aaaa1q0=***%>999-&-.",
"..@OO>%%%*>0q1aaaa1q0>*%%%>XO@.&&-->%%%*>0q1aaaa1q0>*%%%>9s9-gg.",
"..@OO>2%%%>dq1aaaa1qd>%%%2>XO@.&&-->2%%%>dq1aaaa1qd>%%%2>9s9-gg.",
"666-9>2%%%>dq1aaaa1qd>%%%2>66-99999>2%%%>dq1aaaa1qd>%%%2>99999--",
"OXOO.%e22%>dq1aaaa1qd>%22e%.&.@&&-&%e22%>dq1aaaa1qd>%22e%&&&&&&&",
"o3oo3%e222>dq1aaaa1qd>222e%++#@@@@.%e222>dq1aaaa1qd>222e%@@@@++o",
"#X333%eee2*dq1aaaa1qd>2eee%+3oo....%eee2*dq1aaaa1qd>2eee%6.$OOO ",
"XX+o3%7eee*dq1aaaa1qd*eee7%+4o+.6$$%7eee*dq1aaaa1qd*eee7%-$$.OO ",
"OX+oo%7eee*dq1aaaa1qd*eee7%+oo .$$$%7eee*dq1aaaa1qd*eee7%6$$. +O",
"OXooo%777e*dq1aaaa1qd*e777%o+o .$$$%777e*dq1aaaa1qd*e777%&$$$ +O",
"OX ooX%777*jq1aaaa1qj*777%.oo+o.$$$O%777*jq1aaaa1qj*777%.$.$$ o ",
"OXoo+X %77*hq1aaaa1qh*77%@$#o+o.i$$@.%77*hq1aaaa1qh*77% .$.$$ oO",
". oo+X %t7*qq1aaaa1qq*7t%@.oXo+.$$$..%t7*qq1aaaa1qq*7t%@$&.$. +O",
"O ++++ %tt*lq1aaaa1ql*tt%@.o+XX 6$$O.%tt*lq1aaaa1ql*tt%@$$.$. oO",
"O +#+X %tt%lq1aaaa1ql*tt% Xo+XX $$$..%tt%lq1aaaa1ql*tt%O.$.$. oO",
"O +#++ %88%lq1aaaa1ql%88%XXo+Xo .$.@.%88%lq1aaaa1ql%88%@.i$$. oO",
"O o#+o %88%lq1aaaa1ql%88%X+XXoo .$.@.%88%lq1aaaa1ql%88%@.$$$X oO",
"O ++++ %58%zq1aaaa1qz%85%XXoXX+  $.@.%58%zq1aaaa1qz%85% @&.$   O",
"OX o++ %55%1q1waaw1q1%55%oXX++# Oi.@.%55%1q1waaw1q1%55%  $$OX O ",
"O+ o+o %55%rq1rwwr1qr%55%o+#X+#  $.@.%55%rq1rwwr1qr%55%  $$OX   ",
"O  o+#o%05%wq1urru1qw%50%ooX#oo  ..@.%05%wq1urru1qw%50%fX.$OX  X",
"n  o+43%00%wq11uu11qw%00%++X4++  ..@.%00%wq11uu11qw%00%XX..OX XX",
"n +o+o3%00%pq1urru1qp%00%#ooo+oo ..@.%00%pq1urru1qp%00%oX..O+  o",
"O +o o3%05%pq1rwwr1qp%50%o#X#Xoo ..@.%05%pq1rwwr1qp%50%XX@.O  XX",
"f++o o3%55%pq1waaw1qp%55%+##oXo+ ..@@%55%pq1waaw1qp%55%#X@.O+  +",
"f +o+o#%55%1q1aaaa1q1%55%o##oXoo ..@@%55%1q1aaaa1q1%55%oo .O  XX",
"n +++o#%58%zq1aaaa1qz%85%+44o#oo ..@O%58%zq1aaaa1qz%85%XX @OX XX",
"O ++ #o%88%lq1aaaa1ql%88%##bX++# ..@O%88%lq1aaaa1ql%88%XXX@OX++X",
"X ++ o#%88*lq1aaaa1ql%88%+#4XXX# ..@O%88*lq1aaaa1ql%88%XXo@O XXX",
"o X  ##%tt*lq1aaaa1ql*tt%##4+oX# ..@O%tt*lq1aaaa1ql*tt%ooX@O    ",
"@ X  #+%tt*lq1aaaa1ql*tt%+o4o+Xo ..@.%tt*lq1aaaa1ql*tt%#oX@O XXO",
"O ++ #X%t7*qq1aaaa1qq*7t%X#bXXXX ..@.%t7*qq1aaaa1qq*7t%XX+@O XX@",
".  + #X%77*hq1aaaa1qh*77%o34X X  $...%77*hq1aaaa1qh*77%ooX@O oo@",
"O    #%777*jq1aaaa1qj*777%3#o +  ...%777*jq1aaaa1qj*777%#@@O XXO",
"n +++%777e*dq1aaaa1qd*e777%4o#oo ..%777e*dq1aaaa1qd*e777% @OX XX",
"O ++ %7eee*dq1aaaa1qd*eee7%bX++# ..%7eee*dq1aaaa1qd*eee7%X@OX++X",
"X ++ %7eee>dq1aaaa1qd*eee7%4XXX# ..%7eee>dq1aaaa1qd*eee7%o@O XXX",
"o X  %eee2>dq1aaaa1qd>2eee%4+oX# ..%eee2>dq1aaaa1qd>2eee%X@O    ",
"@ X  *e222>dq1aaaa1qd>222e*4o+Xo ..*e222>dq1aaaa1qd>222e*X@O XXO",
"O ++ *e22%>dq1aaaa1qd>%22e*bXXXX ..*e22%>dq1aaaa1qd>%22e*+@O XX@",
".  + *2222>dq1aaaa1qd>2222*4X X  $.*2222>dq1aaaa1qd>2222*X@O oo@",
"O    >2%%%>dq1aaaa1qd>%%%2>#o +  ..>2%%%>dq1aaaa1qd>%%%2>@@O XXO",
"n  + >2222=0q1aaaa1q0>2222>## X  ..>2222=0q1aaaa1q0>2222>X@O XXO",
"n  + >%***=0q1aaaa1q0=***%>##O+X $.>%***=0q1aaaa1q0=***%> @O+XXO",
"n  X =%%%*<5q1aaaa1q5=*%%%=#oOX+ $.=%%%*<5q1aaaa1q5=*%%%=@@O XXO",
"O @  =***><5q1aaaa1q5<>***=4X  o $.=***><5q1aaaa1q5<>***=O.O XX$",
"6 @O+=%***<5q1aaaa1q5<***%=#XO o $.=%***<5q1aaaa1q5<***%=@.XOX@$",
"&O.OX=>>>=<8q1aaaa1q8<=>>>=#XO X@..=>>>=<8q1aaaa1q8<=>>>=X$@@@@O",
"&O..X;>===<8q1aaaa1q8<===>;#X  XO..;>===<8q1aaaa1q8<===>; ..@$OO",
"&6..X;>==<<8q1aaaa1q8<<==>;#+ @XO$.;>==<<8q1aaaa1q8<<==>;O.$O&O.",
"-&$.@;=<<<<8q1waaw1q8<<<<=;XX OX.$.;=<<<<8q1waaw1q8<<<<=;.$&.&&&",
"-6$.O:=<<;<8q1rwwr1q8<;<<=: XOO $&&:=<<;<8q1rwwr1q8<;<<=:..&.$$&",
"--$.O:<;;;;8qx1111xq8<;;;<:@XOOO.&&:<;;;;8qx1111xq8<;;;<:$.&&&&&",
"--$..:<;;:,e80000008e;:;;<:@XOO.$&&:<;;:,e80000008e;:;;<:.$&&-&-",
"-s6$.,;7>:,>========>,:>7;,Oo@@.&&&,;7>:,>========>,:>7;,$$&&-&-",
"--6$&,;,;,,,vy,vy,y,:,,;,;,@X@..&&&,;,;,,,vy,vy,y,:,,;,;,&$&--&9",
"--66-,:,,,,,y,:,,:,:,y,,,:,O &..&&&,:,,,,,y,:,,:,:,y,,,:,&$&&-&s",
"---6&,ckkkkkkkckkckckkkkkc,....$&&&,ckkkkkkkckkckckkkkkc,&&&-&-9",
"..@OO.6----$$O66XO&----&.@@XO@.&&--66@$$$..&6996-&&&.&---9s9-gg.",
"666-99999999-666-9999999-6666-9999999--666-9999999999999999999--",
"OXOO..$&&&&&&&O.O&&9&&&&6&..&.@&&-&&&&...&&9&g--&&&&&&.-&&&&&&&&",
"o3oo33+++++o44o##33++++++++++#@@@@..@@o#o## .....@oooo3@@@@@@++o",
"#X333+ $@O@o33O +O .....$@O+3oo....$. 4o+OO $$$$.OOOOO+6.6.$OOO ",
"XX+o3  $.OOo33O  O3@$...$@O+4o+.6$$O.@+oXOO .$$$.$OO+O+i.-$$.OO ",
"OX+oo  $.$Oo3o OO 3@$$.$.@.+oo .$$$O.@#oX  X.$$$.   + O$.6$$. +O",
"OXooo  $.$Oo3+ OO o@$..$.@$o+o .$$$O.@ooXOOX.$$$$ . + O@.&$$$ +O",
"OX ooX ..$OoooOOO o+.$$$.@.oo+o.$$$O.@oo+OO+.$$$$O.X+X @.$.$$ o ",
"OXoo+X $.$.oooOOO+3+...$.@$#o+o.i$$@.@oo+OOX.$$$.OOXXXX .$.$$ oO",
". oo+X $..O++o OO+3 $.$..@.oXo+.$$$..@+o+OOX@$$$O .+XXX@$&.$. +O",
"O ++++ $$.Oooo OOXo O$..$@.o+XX 6$$O. +oX  + $$$O+.O+XX@$$.$. oO",
"O +#+X $$.O++ooOOooo@.$O$ Xo+XX $$$.. ooo  X .$$O+.O+XXO.$.$. oO",
"O +#++ $$. ++3o O++oO$.O.XXo+Xo .$.@. XoXoXX .$&Oo. XXX@.i$$. oO",
"O o#+o .. ooo3o  o++X.. $X+XXoo .$.@.@XoXoXX .$&@ .@ oo@.$$$X oO",
"O ++++ .. Xoo4o  +o+o..  XXoXX+  $.@.@ o oXX  $.O .@ X  @&.$   O",
"OX o++ .. +oo4o  o3Xo.O XoXX++# Oi.@.@XoXoooX $.O .  XX  $$OX O ",
"O+ o+o @. +oo4o +o3+o.  oo+#X+#  $.@.@ooooooo $.  .@XXX  $$OX   ",
"O  o+#o@. ooo#+ o##o3. OoooX#oo  ..@. XoXo#oX $.  OO XXfX.$OX  X",
"n  o+43+  o##3+ +##+o@  4++X4++  ..@.  oOo#++O$  .   XXXX..OX XX",
"n +o+o3+@ o###o++34oo@ +4#ooo+oo ..@.  o o#o# $O O OXX oX..O+  o",
"O +o o3+@ o##43+o3###@O##o#X#Xoo ..@.  oXo#+# $O  O  XXXX@.O  XX",
"f++o o3+@ o##43oo34o#@XX#+##oXo+ ..@@+OoXo#3oX.O+ OO oX#X@.O+  +",
"f +o+o#+@ #o343o+34X4@ obo##oXoo ..@@+OoXoo3oX.  +  XoXoo .O  XX",
"n +++o#o  oo343++3bXb@++b+44o#oo ..@O+O+Xo3o+X.  +  ooXXX @OX XX",
"O ++ #oo  +#343++34o#@++4##bX++# ..@OX +oo3o#X.  ++ XoXXXX@OX++X",
"X ++ o##  3o343o+34oo o#4+#4XXX# ..@O+XXoo3+o+. +  O#XXXXo@O XXX",
"o X  ###  3o343+X3bo# o####4+oX# ..@O+O+oo3+#X.    O#X ooX@O    ",
"@ X  #+#  3o3b3o +#+4 +##+o4o+Xo ..@.+O+oo3ooo. o   +XX#oX@O XXO",
"O ++ #Xo  3+343o o4X#++##X#bXXXX ..@.+OX+o33Xo  o O Xf#XX+@O XX@",
".  + #Xo+ 3o343o o4X3oo##o34X X  $...XOX#o3o+X  +     #ooX@O oo@",
"O    #XX+ ##o#3+ o3 3X+##33#o +  ....oOXoo3ooXO+  o XXXo#@@O XXO",
"n +++o#o  oo343++3bXb@++b+44o#oo ..@O+O+Xo3o+X.  +  ooXXX @OX XX",
"O ++ #oo  +#343++34o#@++4##bX++# ..@OX +oo3o#X.  ++ XoXXXX@OX++X",
"X ++ o##  3o343o+34oo o#4+#4XXX# ..@O+XXoo3+o+. +  O#XXXXo@O XXX",
"o X  ###  3o343+X3bo# o####4+oX# ..@O+O+oo3+#X.    O#X ooX@O    ",
"@ X  #+#  3o3b3o +#+4 +##+o4o+Xo ..@.+O+oo3ooo. o   +XX#oX@O XXO",
"O ++ #Xo  3+343o o4X#++##X#bXXXX ..@.+OX+o33Xo  o O Xf#XX+@O XX@",
".  + #Xo+ 3o343o o4X3oo##o34X X  $...XOX#o3o+X  +     #ooX@O oo@",
"O    #XX+ ##o#3+ o3 3X+##33#o +  ....oOXoo3ooXO+  o XXXo#@@O XXO",
"n  + ##X+ +###3oOoo ##+4#33## X  ..@.oOX#+o++X   O OOXXXXX@O XXO",
"n  + ##o+ X#+o3+O oO3+o##33##O+X $.@$+O #++++XO oO  OXXX  @O+XXO",
"n  X ##++ o#XoX   XO3Oo+#o3#oOX+ $.@$oO oooXo O  O  OXXXX@@O XXO",
"O @  +#X+ ooX#    o@o@oo#o34X  o $.@$oOOooo+X O    OOX XXO.O XX$",
"6 @O+X#X+  +Xo@  OXOX.oXXXo#XO o $.@$XOOXooOX @O @X@@  @X@.XOX@$",
"&O.OXXXXX  4 O  OOX.o$#XX  #XO X@...$  @oXXX  O@ O X   O X$@@@@O",
"&O..XX@oX Xo OO@OOO.X.XXXXO#X  XO...$ @OXooX$ O@ .@  @ .@ ..@$OO",
"&6..XX oX. XXOOO.O@.@.fOX O#+ @XO$..$@ OXXXOOO..O.OO. OOOO.$O&O.",
"-&$.@X@X@$ @XOO@&@&... OX OXX OX.$..$@O$   @@@$@..O.$@.OO.$&.&&&",
"-6$.O@X@@.@@@@...@..&$@@@@O XOO $&&.&@@$   O..$.&.O....OO..&.$$&",
"--$.O@ .O$.@O@&&.@@.&&@@@O@@XOOO.&&.&@@$.@@@..&.&&$$...$$$.&&&&&",
"--$..@.$.$$.O.&$.@..&&.OO$@@XOO.$&&.&@.$.@@@.$&&&6&.&..$&.$&&-&-",
"-s6$.@&$.$&..&&$@..&&&.OO&OOo@@.&&&&.@.$.@@@.$&&&&&$&..$&$$&&-&-",
"--6$&.$$&&&$&&&$@$$&&&&O@&.@X@..&&&&...$$.@..$&-&-&&&$.$&&$&--&9",
"--66-$&&$&&&&$&$&&&&&&&$..OO &..&&&&$..$$....$&&&-&&&&$&&&$&&-&s",
"---6&&&&$&&&$$&&$&&&&&&&$......$&&&&$$$$$$$$$$&----&&&&&&&&&-&-9"
};
