/* XPM */
static char *LITESTON[] = {
/* columns rows colors chars-per-pixel */
"64 128 34 1 ",
"  c gray23",
". c #434343",
"X c #2F2F2F",
"o c #373737",
"O c gray31",
"+ c #5B5B5B",
"@ c gray28",
"# c gray39",
"$ c gray34",
"% c #232323",
"& c gray42",
"* c gray78",
"= c #6F6F6F",
"- c #777777",
"; c #838383",
": c #4B4B4B",
"> c #8B8B8B",
", c #1B1B1B",
"< c gray67",
"1 c #939393",
"2 c gray50",
"3 c gray86",
"4 c LightGray",
"5 c #E7E7E7",
"6 c #CBCBCB",
"7 c #DFDFDF",
"8 c #272727",
"9 c #979797",
"0 c gray70",
"q c #9F9F9F",
"w c #A7A7A7",
"e c gray75",
"r c #B7B7B7",
"t c #131313",
/* pixels */
"  .     oX%,%X   oXooXoo  o  X .o. oo  ..o%o.o.........   .  .. ",
"  .. .. oX%,%X   oooo X   .. o.... oo  .  O............   .  .. ",
"  .. .. oX%,%X   oo  X o  ..  o... oo  .   o.... ......   .  .. ",
"  .   . oX%,%X   o   %XX  .  oo... oo  .   o.X.........   .  .. ",
"  .  ..ooX%,%X       X    .  oo... oo  .   o...........   .  .. ",
"     ..XoX%,%X       X o  o  oo... oo  .   o ..........   .  .. ",
"  .  ..ooX%,%X  oo   XXo  X  oo... oo  .   o .. ........  .  ...",
" .    . oX%,%Xoooo     o .X   o.o. o.  .   o ...... .... ..   ..",
" ... ..ooX%,%Xoo    o .  .X.  ..o oo.. .   o .. .O...... ... ...",
" . .   ooX%,%Xo  X ooX X .X.  o..  .o      . .  .O...... ...   .",
" ... ..ooX%,%Xo .oXooXXo .o. o..oooo.      . .  .OOO.... ... ...",
" .    .ooX%,%Xo  oXooXXX .o. oXoXXo.o   %ooX  oo.OOO.... ... ...",
"XXXXXXXXXX%,%XoXXXXXXXXXXXXXXXXXXXXXXXXXXXXXXXXXXXXXXXXXXXXXXXXX",
"%%%%%%%%%%%,t%%%%%%%%%%%%%%%%%%%%%%%%%%%%%%%%%%%%XXX%%%%%%%%%%%%",
"%%,,,,,,,,,,,,,,,,,,,,,,,,,,,,,,,,,,,,,,,,,,,,,,,,,,,,,,,,,,,,,,",
",%%%%%%%%%%%%%%%%%%%%%%%%%%%%%%%%%%%%%%%%%%%%%%%%%%%%%%%%%,%%%%X",
"........  .. ... .      .. ... .              .. ... .  X%,%X...",
"  X   ..X%  X  XXoXooXX%  X  XXoXXo.o   ooo.X%o.  oXXoXXX%,%X ..",
"   . ... o .X. X..Xo X o .X. X..oo.oo  .  .o o..  oX..ooX%,%X...",
" ...   .X  ... XX.X  %X  ... XX... o.  o  ooX o.  oXX...X%,%X...",
" .o. . .Xoo Xo.oX.X . XoXoX..oX. o ..  o  o.Xo..  ooX. oX%,%X. .",
" . .  ..XoXX o oX.X  XXo . X oX. o .. o.  o.Xoo.  ooX. oX%,%X. .",
" . . ...Xo  oo oX.XXoXXo...  oX. o o. oo  . Xoo.  ooX. oX%,%X...",
"   .  ..Xo X   oX.  o Xo ... oX. o o. oo  . Xo..  ooX. oX%,%X...",
"       . oo oo   .XXXX o  X.   . o o.     .  o... o  . oX%,%X...",
" .o    .oooXoo   .%X  oo .X.   . ooo. o   . ooo.. o  . oX%,%X. .",
" .  .. .  oXo    .%X X   .O.   . ooo. o.  .   o.  o  . oX%,%X. .",
" .. .. %8%%8%%%%8%%8%8%%%%%8   . ooo.%8%%8%%%%8%%8%8%%%%%8 %X.  ",
"  .  .. .     o .  . . o   .  .. oo.. .     o .  . . o   . %X.. ",
"     .. @-$ . Xo Xo o .o $-@  .. o.o. @-$ . Xo Xo o .o $-@ %X.. ",
"     ...@ ..@@OOOOOOOO@o.. @. .. . ...@ ..@@OOOOOOOO@o.. @.%X.. ",
"     ...:...:#;111111;#@...:. .. Xoo..:...:#;111111;#@...:.%X...",
"     . .:@.@:;<r****r<;:@.@:. .. XXo..:@.@:;<r****r<;:@.@:.%X. .",
"  .  . @OO.@:;<*4334*<;:@.OO@ .......@OO.@:;<*4334*<;:@.OO@%X  .",
"      .@OO@::;<*7773*<;::@OO@ ..oo ..@OO@::;<*7773*<;::@OO@%X ..",
"  .    O$OO::;<*7777*<;::OO$O ...o%o.O$OO::;<*7777*<;::OO$O%X  .",
"     . O$OOO:;<*7777*<;:OOO$Oo.. ..o.O$OOO:;<*7777*<;:OOO$O%X   ",
"  .  . O$$$O:;<*7777*<;:O$$$Oo.. o o.O$$$O:;<*7777*<;:O$$$O%X  .",
"     . O+$$$:><*7777*<>:$$$+Oo.. o o.O+$$$:><*7777*<>:$$$+O%X  .",
"      .$+++$O><*7777*<>:$+++$X.. o ..$+++$O><*7777*<>:$+++$%X...",
"  .  ..$#++$O><*7777*<>O$++#$... o ..$#++$O><*7777*<>O$++#$%X ..",
"o      $#+++$1<*7777*<1O+++#$X.. ooo.$#+++$1<*7777*<1O+++#$%X...",
"       $###+$1<*7777*<1$+###$ .. o o.$###+$1<*7777*<1$+###$%X ..",
"    ooo$&###$9<*7777*<9$###&$ .. ooo.$&###$9<*7777*<9$###&$%Xo..",
"oooooo $&###$9<*7777*<9$###&$o  XXXXX$&###$9<*7777*<9$###&$%XXXX",
"%%%%%%%#=&&#$9<*7777*<9$#&&=#%%%%%%%%#=&&#$9<*7777*<9$#&&=#%%%%%",
",,,,,,,#=&&&$9<*7777*<9$&&&=#,,,,,,,,#=&&&$9<*7777*<9$&&&=#,,,,,",
"%%%%%%%#===&+9<*7777*<9$&===#%%%%%%%%#===&+9<*7777*<9$&===#%%%%%",
".. ....#-===+9<*7777*<9+===-# ..     #-===+9<*7777*<9+===-#.....",
"  o    #-===+9<*7777*<9+===-#   XX%XX#-===+9<*7777*<9+===-#  .. ",
"  o o  #---=+9<*7777*<9+=---#   oXXo #---=+9<*7777*<9+=---#  .. ",
"  o o o #---+q<*7777*<q+---#X o .oo.  #---+q<*7777*<q+---#. o.. ",
"  o  .  o#--+w<*7777*<w+--#o .  o..o   #--+w<*7777*<w+--# .  .. ",
" oo     o#2-+<<*7777*<<+-2#o    oooo   #2-+<<*7777*<<+-2# .  .. ",
" oo o   o#22+0<*7777*<0+22#oX   oooo   #22+0<*7777*<0+22# . o.. ",
"  ooo   o#22#0<*7777*<0+22#oX   .ooo   #22#0<*7777*<0+22# .o .. ",
"ooo ooo o#;;#0<*7777*<0#;;#  X  o  oo  #;;#0<*7777*<0#;;# .  .. ",
"o  o   oo#;;#0<*7777*<0#;;#. o. .  oo  #;;#0<*7777*<0#;;# .. .. ",
" ooXo oXo#>;#e<*7777*<e#;>#.  o o  oo  #>;#e<*7777*<e#;># .  .. ",
"oXo  o oo#>>#*<*3773*<*#>>#  oo XX oo  #>>#*<*3773*<*#>># .  .. ",
"XX  ooo o#>>#4<*4334*<4#>>#  oo XX oo  #>>#4<*4334*<4#>># .  .. ",
"oo oo ooo#1>#3<*6446*<3#>1#  oo .o oo  #1>#3<*6446*<3#>1# .  .. ",
"  oo  Xoo#11#3<**66**<3#11#  oo.O. oo  #11#3<**66**<3#11# .  .. ",
"oooo . oo#11#5<*6446*<5#11#o o ...o o  #11#5<*6446*<5#11# . o.. ",
"  .     o#1>#5<*4334*<5#>1#  X .o. oo  #1>#5<*4334*<5#>1# .  .. ",
"  .. .. o#>>#5<*3773*<5#>>#. o.... oo  #>>#5<*3773*<5#>># .  .. ",
"  .. .. o#>>#*<*7777*<*#>>#.  o... oo  #>>#*<*7777*<*#>># .  .. ",
"  .   . o#>;#e<*7777*<e#;>#  oo... oo  #>;#e<*7777*<e#;># .  .. ",
"  .  ..oo#;;#0<*7777*<0#;;#  oo... oo  #;;#0<*7777*<0#;;# .  .. ",
"     ..Xo#;;+0<*7777*<0#;;#  oo... oo  #;;+0<*7777*<0#;;# .  .. ",
"  .  ..oo#22+0<*7777*<0+22#  oo... oo  #22+0<*7777*<0+22# .  ...",
" .    . o#22+0<*7777*<0+22#   o.o. o.  #22+0<*7777*<0+22#..   ..",
" ... ..oo#2-+<<*7777*<<+-2#.  ..o oo.. #2-+<<*7777*<<+-2#... ...",
" . .   oo#--+w<*7777*<w+--#.  o..  .o  #--+w<*7777*<w+--#...   .",
" ... ..o#---+q<*7777*<q+---# o..oooo. #---+q<*7777*<q+---#.. ...",
" .    .#---=+9<*7777*<9+=---#oXoXXo.o#---=+9<*7777*<9+=---#. ...",
"XXXXXXX#-===+9<*7777*<9+===-#XXXXXXXX#-===+9<*7777*<9+===-#XXXXX",
"%%%%%%%#-===$9<*7777*<9+===-#%%%%%%%%#-===$9<*7777*<9+===-#%%%%%",
"%%,,,,,#===&$9<*7777*<9$&===#,,,,,,,,#===&$9<*7777*<9$&===#,,,,,",
",%%%%%%+=&&&$9<*7777*<9$&&&=+%%%%%%%%+=&&&$9<*7777*<9$&&&=+%%%%X",
".......+=&&#$9<*7777*<9$#&&=+. .     +=&&#$9<*7777*<9$#&&=+%X...",
"  X    +&&&&$9<*7777*<9$&&&&+OXoO@o.o+&&&&$9<*7777*<9$&&&&+%X ..",
"   .X. $&###$9<*7777*<9$###&$O..O@.oo$&###$9<*7777*<9$###&$%X...",
" ..XXX $&&&&O1<*7777*<1$&&&&$OX.O@ o.$&&&&O1<*7777*<1$&&&&$%X...",
" .o8XXX$#+++O1<*7777*<1O+++#$OX.O@ ..$#+++O1<*7777*<1O+++#$%X. .",
" . X XXO###+:><*7777*<>O+###OOX.OO ..O###+:><*7777*<>O+###O%X. .",
" . . ..O+++$:><*7777*<>:$+++OO .OO@@@O+++$:><*7777*<>:$+++O%X...",
"   X  .O#+++:><*7777*<>:+++#OO .O$ @@O#+++:><*7777*<>:+++#O%X...",
"      XO$$$O:;<*7777*<;:O$$$OO .O$ @@O$$$O:;<*7777*<;:O$$$O%X...",
" .o   X@$OOO:;<*7777*<;:OOO$@O .$$@oO@$OOO:;<*7777*<;:OOO$@%X. .",
" .  X.X@$OO::;<*7777*<;::OO$@O..$+OOO@$OO::;<*7777*<;::OO$@%X. .",
" .. XX @O::::;<*3773*<;::::O@O..$+OO+@O::::;<*3773*<;::::O@%X.  ",
"  .  ...O::@:;<*4334*<;:@::O.O .$+@OO.O::@:;<*4334*<;:@::O.%X.. ",
"     ...:@@@@;<r****r<;:@@@:.O@.$+OOO.:@@@@;<r****r<;:@@@:.%X.. ",
"     ...:@@. =;111111;=@.@@:.$@.$#+OO.:@@. =;111111;=@.@@:.%X.. ",
"     .. @-$. $OOOOOOOO$ .$-@ $@.+#++$ @-$. $OOOOOOOO$ .$-@ %X...",
"     .  @ @   Xo Xo o .  @ @ $@.+#+++ @ @   Xo Xo o .  @ @ %X. .",
"  .  .  .     o .  . . o   . $@.+#### .     o .  . . o   . %X  .",
"      . 8%%%%%%%8%%8%8%%%%%8 $@.+#+## 8%%%%%%%8%%8%8%%%%%8 %X ..",
"  .    . ooXo . @. @o..o X.O+$@O####&==&===&&&&$++O@.@.oX%,%X  .",
"     . .o  Xo .o@.X@ .o X..O#$@O&+##&&&=2-=====##+OO.@ .X%,%X   ",
"  .  . .o . oo o@. @o.o  X.O#+@O&&#&&&&===---==&##O$O@ oX%,%X  .",
"     . .o   o  o@@X@o.o  X.@#+@+&##&==&==---==&&&#$O$@ oX%,%X  .",
"      ..o oooo X..X@ .o  X.@#++#&&#&&==-=---==&&&#+O$@ oX%,%X...",
"  .  ...ooXX. ....X@..o XX.O#++#&&$&##=&&=-==&&###$O$@ oX%,%X ..",
"o      .o XXX  X..X@ .o XXO@#++#&&$&##&&#==&#####+OO$@ oX%,%X...",
"        oo X.X  ..X@o.o  X.@#+##&&$&$#&&$#####+++OOO$@ oX%,%X ..",
"    oooooo .XX  ..X@o.o  ..@#+++#&$&O##&O#+++++OOO@@O@ oX%,%Xo..",
"oooooo  XXoXXXoo  %@X.XXoX @  @..X@.@X@@@OO..@.@@@@o  XXX%,%XXXX",
"%%%%%%%%%%%%%%%%%%%%%%%%%%%%%%%%%%%%%%%%%%%%%%%%%%%%%%%%X%,%%%%%",
",,,,,,,,,,,,,,,,,,,,,,,,,,,,,,,,,,,,,,,,,,,,,,,,,,,,,,,,%,,,,,,,",
"%%%%%%%%%%%,%%%%%%%%%%%%%%%%%%%%%%%%%%%%%%%%%%%%%%%%%%%%%%%%%%%%",
".. ..... X%,%o.             . ..                O.$$$$.    .....",
"  o     oX%,%X.ooXXXoooo .oX    XX%XX  ...     .. OOO.    .  .. ",
"  o o   oX%,%XoooXXXXooo XoX    oXXo   ...    oo. OOO.    .  .. ",
"  o o o oX%,%Xoo %XXXo X Xo X o .oo.   ...    oo..O.O.    . o.. ",
"  o  .  oX%,%Xo . XXX .  Xoo .  o..o   ...   . o. O.O o   .  .. ",
" oo     oX%,%X   XXXX  o Xoo    oooo   ... .   o. O.O.    .  .. ",
" oo o   oX%,%Xo  X oXooo XooX   oooo   ...     o. O.O.    . o.. ",
"  ooo   oX%,%XXoo XoXooo XooX   .ooo   ....    .. O.O..   .o .. ",
"ooo ooo oX%,%X   oXooXoo  o  X  o  oo  ..o%o.o....O.O..   .  .. ",
"o  o   ooX%,%Xo  oooo X   .. o. .  oo  . oO.......O....   .. .. ",
" ooXo oXoX%,%XXoooo  X o  ..  o o  oo  . o o......O....   .  .. ",
"oXo  o ooX%,%XXXXo oo%XX  .  oo XX oo  . o o.X....O.O..   .  .. ",
"XX  ooo oX%,%XXoo oXXX    .  oo XX oo  . o o.O....O.O..   .  .. ",
"oo oo oooX%,%XX   XXXX o  o  oo .o oo  . o o .......O..   .  .. ",
"  oo  XooX%,%X ooo  oXXo  X  oo.O. oo  .   o .. ........  .  .. ",
"oooo . ooX%,%Xo . oooooooooo o ...o o  .oo.  ooo.......   . o.. "
};
