/* XPM */
static char *LITEBLU2[] = {
/* columns rows colors chars-per-pixel */
"16 72 33 1 ",
"  c gray23",
". c gray28",
"X c gray31",
"o c #5B5B5B",
"O c #434343",
"+ c gray34",
"@ c gray50",
"# c #4B4B4B",
"$ c gray39",
"% c #777777",
"& c gray42",
"* c #6F6F6F",
"= c #373737",
"- c #2F2F2F",
"; c #939393",
": c #838383",
"> c #8B8B8B",
", c #272727",
"< c #979797",
"1 c #9F9F9F",
"2 c #0000B3",
"3 c #0000CB",
"4 c #000017",
"5 c #000023",
"6 c #000053",
"7 c #00003B",
"8 c #00002F",
"9 c #000047",
"0 c #0000E3",
"q c blue",
"w c #00006B",
"e c #00009B",
"r c #000083",
/* pixels */
",--=  O  -,,-= .",
",--=  O  -,,-= .",
"--== O.OO=-,-=O#",
"-== OO.OO=--= O#",
"-=  O.#.. --= .X",
"== O..#.. =-=O.X",
"=  O.#X## == O#+",
"  O ---------.#+",
" OO 44444444=.Xo",
" O. 55555555=#Xo",
"OO. 88888888=#+o",
"O.# 77777777 X+$",
".## 99999999 Xo$",
".#XO66666666 +o$",
"#XXOwwwwwwww +o&",
"#X+.rrrrrrrr o$&",
"X++.eeeeeeeeOo$&",
"X+o.22222222Oo$*",
"+oo#33333333.$&*",
"+oo#00000000.$&%",
"oo$#qqqqqqqq.$*%",
"o$$X00000000#&*%",
"o$$X33333333#&*@",
"$$&X22222222#*%@",
"$&&XeeeeeeeeX*%:",
"$&&XrrrrrrrrX*%:",
"&**+wwwwwwwwX%@:",
"&**+66666666X%@>",
"&*%+99999999X%@>",
"*%%o77777777+@:>",
"*%%o88888888+@:;",
"%%@o55555555+@>;",
"%@@$44444444o:><",
"%@@@11111;;;@:><",
"@@:>>;;;;:@%@>;<",
"@::>;;<;;:@@:>;1",
"@::>;;<;;:@@:>;1",
"@@:>>;;;;:@%@>;<",
"%@@:>>;>>@%%@:><",
"%@@$++++++++o:><",
"%%@o44444444+@>;",
"*%%o55555555+@:;",
"*%%o88888888+@:>",
"&*%+77777777X%@>",
"&**+99999999X%@>",
"&**+66666666X%@:",
"$&&XwwwwwwwwX*%:",
"$&&XrrrrrrrrX*%:",
"$$&Xeeeeeeee#*%@",
"o$$X22222222#&*@",
"o$$X33333333#&*%",
"oo$#00000000.$*%",
"+oo#qqqqqqqq.$&%",
"+oo#00000000.$&*",
"X+o.33333333Oo$*",
"X++.22222222Oo$&",
"#X+.eeeeeeee o$&",
"#XXOrrrrrrrr +o&",
".#XOwwwwwwww +o$",
".## 66666666 Xo$",
"O.# 99999999 X+$",
"OO. 77777777=#+o",
" O. 88888888=#Xo",
" OO 55555555=.Xo",
"  O 44444444-.#+",
"=  X$$&$$oooXO#+",
"== O..#.. =-=O.X",
"-=  O.#.. --= .X",
"-== OO.OO=--= O#",
"--== O.OO=-,-=O#",
",--=  O  -,,-= .",
",--=  O  -,,-= ."
};
