/* XPM */
static char *LITE96[] = {
/* columns rows colors chars-per-pixel */
"64 128 48 1 ",
"  c #332B13",
". c #DFDFDF",
"X c gray39",
"o c gray78",
"O c gray67",
"+ c #5B5B5B",
"@ c gray31",
"# c #4B4B4B",
"$ c #6F6F6F",
"% c #838383",
"& c gray42",
"* c #8B8B8B",
"= c #979797",
"- c #939393",
"; c gray50",
": c gray86",
"> c gray70",
", c LightGray",
"< c #E7E7E7",
"1 c #CBCBCB",
"2 c #A7A7A7",
"3 c gray75",
"4 c #9F9F9F",
"5 c #B7B7B7",
"6 c #0B1707",
"7 c #4B371B",
"8 c #3F2F17",
"9 c #4F3B23",
"0 c #574333",
"q c #533F1F",
"w c #43331B",
"e c gray23",
"r c #533F2F",
"t c #272727",
"y c #2F2F2F",
"u c #5B472B",
"i c #5F4B37",
"p c #373737",
"a c #2B230F",
"s c #232323",
"d c #13230B",
"f c #67533F",
"g c gray28",
"h c #777777",
"j c #434343",
"k c #5F4323",
"l c gray34",
"z c #373F27",
/* pixels */
"daaaaaaaaaaadddadaddddaaaaaadddddaaaaaaaaaaadddadaddddaaaaaadddd",
"tttsssssadattsatsstat  tttt t8tatttsssssadattsatsstat  tttt t8ta",
"y9yttt8y8t8ty88yyypeyypeey77yy8ty7yttt8y8t8ty88ey77777777997yy8t",
"qqqqqqq7q7777qqq77qqq77q77qqqq7rqqqqqqq7q7777qqq77qqq77q77qqqq7r",
"w9wwwwwwwwwww8w w9w977977907 wwww9www9w7ww7ww8w w7w97wwwww77 www",
"wwwwwwwwwwwwwww wwtw79777797ywwwwwwww9w7977wwww ww8wwww7w7w 8www",
"wwwwww9ww99w9888wwww97977777w8wwwwwwwww7ww999 8wwwwww7w77978w8ww",
"wwwywwwwwww9w888w9ww97797777ywwwwwwe89u79777w78ww0ww7790990w7w8w",
"ww8 8www9wwww8888wq97779ww9w9ww w9wwww9r9rr9rw977w70kr9w7w7w7ww ",
"wwwww999ww99ww88ww9ww79999w89www9wwww9r9999rq7w7ww7wk99w787 7wr ",
"www9w9999990w888w9wqw9r9r9wwwwwwwwwww990009r787ww7wqw0777wqwwww ",
"wwwww9000900w w8wwww999r999wywwwwww9w90900rrw wwwwww9907770w www",
"w9www9uu0909w8w w9w99rrr9007 wwww9www9u00009w8w w7w99q0q700  www",
"wwwww9uu0909www wwtw999900r7ywwwwwwww9u90009www ww8w9q0q70f 8www",
"wwwww9uu00009888wwww000099r7w8wwwwwww9u000009 8wwwwwq0909998w8ww",
"wwwyw90uii00w888w9ww000099r7ywwwwwwe89uiii00w78ww0ww0090990w7w8w",
"wwwww90uii9iq8 8www90i0i00r7wwwwwwww89giii0f07 wwww90i00qq0qw8tw",
"wywww900000iq8 8wwwrii0i00r789wwwyww7900i00i07 www80fi0i000q7  w",
"ewywstsstsssstsststssssster88wwwewww79stsstsssstsststssssste78ww",
"wywzejeeeeepejeejejepeeejerw8wwwwyyw79ejeeeeepejeejejepeeeje8w8w",
"wwwweghlejeypeypepejpelhger 8wwwwwww79eghlejeypeypepejpelhge8wtw",
"wwwwjgejjgg@@@@@@@@gpjjegjr tw9wwwww89jgejjgg@@@@@@@@gpjjegj8w 7",
"wwywj#jjj#X%------%Xgjjj#jr yywwwwey 9j#jjj#X%------%Xgjjj#j8yww",
"weywj#gjg#%O5oooo5O%#gjg#j  twwwwew  wj#gjg#%O5oooo5O%#gjg#j8w8w",
"wwwwg@@jg#%Oo,::,oO%#gj@@ga yw9wwwwtw g@@jg#%Oo,::,oO%#gj@@gywtw",
"wywyg@@g##%Oo...:oO%##g@@ga twwwwyywwag@@g##%Oo...:oO%##g@@gtw8w",
"yywy@l@@##%Oo....oO%##@@l@ yyyywyywyw @l@@##%Oo....oO%##@@l@yyww",
"yyyy@l@@@#%Oo....oO%#@@@l@8wywwwyywwt @l@@@#%Oo....oO%#@@@l@twyw",
"yytt@lll@#%Oo....oO%#@lll@7wywywyywyt @lll@#%Oo....oO%#@lll@ wyw",
"wytt@+lll#*Oo....oO*#lll+@78yyyywywyt @+lll#*Oo....oO*#lll+@8ttw",
"wyyyl+++l@*Oo....oO*#l+++l7w yyywyyy  l+++l@*Oo....oO*#l+++l ttt",
"wyytlX++l@*Oo....oO*@l++Xl tdyawwyt   lX++l@*Oo....oO*@l++Xldy w",
"daaalX+++l-Oo....oO-@+++XlaadddddaaaaalX+++l-Oo....oO-@+++Xldddd",
"yyyslXXX+l-Oo....oO-l+XXXlt twyayyyssslXXX+l-Oo....oO-l+XXXltwya",
"eieyl&XXXl=Oo....oO=lXXX&l00eewye0eyyyl&XXXl=Oo....oO=lXXX&leewy",
"i000l&XXXl=Oo....oO=lXXX&l00009gi00000l&XXXl=Oo....oO=lXXX&l009g",
"99rqX$&&Xl=Oo....oO=lX&&$X9999 999rq99X$&&Xl=Oo....oO=lX&&$X99 9",
"9999X$&&&l=Oo....oO=l&&&$X999w8w9999w9X$&&&l=Oo....oO=l&&&$X9w8w",
"w700X$$$&+=Oo....oO=l&$$$X99w8 ww700w9X$$$&+=Oo....oO=l&$$$Xw8 w",
"w799Xh$$$+=Oo....oO=+$$$hX99w  ww79999Xh$$$+=Oo....oO=+$$$hXw 8w",
"w790Xh$$$+=Oo....oO=+$$$hXww88 8ww90w9Xh$$$+=Oo....oO=+$$$hXw8ww",
"w799Xhhh$+=Oo....oO=+$hhhX7w88tyww9989Xhhh$+=Oo....oO=+$hhhX8w88",
"w707 Xhhh+4Oo....oO4+hhhXwqw 8t8ww0w 9 Xhhh+4Oo....oO4+hhhXw w88",
"w7978wXhh+2Oo....oO2+hhX8w7w t 8ww97898wXhh+2Oo....oO2+hhXww 8  ",
"w7q988X;h+OOo....oOO+h;X8ww8 8 8w8w9898wX;h+OOo....oOO+h;Xw8 w  ",
"w7q7w8X;;+>Oo....oO>+;;X8t8w   8www7ww8wX;;+>Oo....oO>+;;X8ww   ",
"w7q7wwX;;X>Oo....oO>+;;Xtwwt88 8w8wwww 9X;;X>Oo....oO>+;;Xw tw  ",
"yw978 X%%X>Oo....oO>X%%Xwwww88 8yw9w8 80X%%X>Oo....oO>X%%Xww8w  ",
"8w7w88X%%X>Oo....oO>X%%X ww y888wwww8twqX%%X>Oo....oO>X%%Xw y8  ",
"8w7ww8X*%X3Oo....oO3X%*Xw8wwt 8twwwwwt87X*%X3Oo....oO3X%*Xwwt   ",
"8wwww8X**XoOo:..:oOoX**Xt8ww 88 www7w88wX**XoOo:..:oOoX**Xww 8  ",
"8w87w X**X,Oo,::,oO,X**Xt88 888w8889w 8wX**X,Oo,::,oO,X**X8 88  ",
"  8w88X-*X:Oo1,,1oO:X*-Xw88t8t8w  w7t8twX-*X:Oo1,,1oO:X*-X t88  ",
"888wwtX--X:Ooo11ooO:X--X 88t887w88wwwttwX--X:Ooo11ooO:X--X t88  ",
"888wy X--X<Oo1,,1oO<X--Xtw8y887ww t7y wwX--X<Oo1,,1oO<X--X y88  ",
"8888w X-*X<Oo,::,oO<X*-Xtww 887wwt qw 8wX-*X<Oo,::,oO<X*-X  88  ",
"8w8888X**X<Oo:..:oO<X**Xtw8 887wwtww 88wX**X<Oo:..:oO<X**X  88  ",
"8w88w8X**XoOo....oOoX**Xtw8 88 w8t88tt 8X**XoOo....oOoX**X  8y  ",
"8ww8w8X*%X3Oo....oO3X%*Xt8  8  w8y7y yw X*%X3Oo....oO3X%*X  8   ",
"8w88w X%%X>Oo....oO>X%%X 8t t tww8wttw wX%%X>Oo....oO>X%%Xt t t ",
"  w888X%%+>Oo....oO>X%%Xtw8t twyw8w t wwX%%+>Oo....oO>X%%X8t t8 ",
"88w88tX;;+>Oo....oO>+;;Xaty t wy8w    8wX;;+>Oo....oO>+;;Xy t 8 ",
"8878y X;;+>Oo....oO>+;;Xa   a wywwtt tw8X;;+>Oo....oO>+;;X  a 8 ",
"8878w X;h+OOo....oOO+h;X a t  ytyw8t  88X;h+OOo....oOO+h;X t  y ",
"8w7888Xhh+2Oo....oO2+hhXa atytatyw    t8Xhh+2Oo....oO2+hhXatyta ",
"8w78wXhhh+4Oo....oO4+hhhXya yt yyttt   Xhhh+4Oo....oO4+hhhX y   ",
"8ww8Xhhh$+=Oo....oO=+$hhhXa  ta twwtttXhhh$+=Oo....oO=+$hhhX aa ",
"8w88Xh$$$+=Oo....oO=+$$$hXt tt  tyt t Xh$$$+=Oo....oO=+$$$hXtda ",
"  wwXh$$$l=Oo....oO=+$$$hXta ta wyttttXh$$$l=Oo....oO=+$$$hXtta ",
"88wwX$$$&l=Oo....oO=l&$$$Xta tt w ttttX$$$&l=Oo....oO=l&$$$Xtaa ",
"888w+$&&&l=Oo....oO=l&&&$+ta ttat twtt+$&&&l=Oo....oO=l&&&$+ttaa",
"8887+$&&Xl=Oo....oO=lX&&$+ta ttdt yt y+$&&Xl=Oo....oO=lX&&$+ttaa",
" 888+&&&&l=Oo....oO=l&&&&+ta tt y     +&&&&l=Oo....oO=l&&&&+taaa",
"t878l&XXXl=Oo....oO=lXXX&lta t  y  y  l&XXXl=Oo....oO=lXXX&ldtaa",
"t888l&&&&@-Oo....oO-l&&&&ltatt d      l&&&&@-Oo....oO-l&&&&lataa",
" 88tlX+++@-Oo....oO-@+++Xlt  t at  tt lX+++@-Oo....oO-@+++Xlttaa",
"888 @XXX+#*Oo....oO*@+XXX@at atat  wtt@XXX+#*Oo....oO*@+XXX@taaa",
"88  @+++l#*Oo....oO*#l+++@ta   a   wat@+++l#*Oo....oO*#l+++@t aa",
"w88t@X+++#*Oo....oO*#+++X@t  tttt   a @X+++#*Oo....oO*#+++X@ttaa",
"y88t@lll@#%Oo....oO%#@lll@ta ty  y    @lll@#%Oo....oO%#@lll@ttaa",
"yyt gl@@@#%Oo....oO%#@@@lgttd a yy    gl@@@#%Oo....oO%#@@@lgtata",
"ytyygl@@##%Oo....oO%##@@lgttdat yt y  gl@@##%Oo....oO%##@@lgdtda",
" yy g@####%Oo:..:oO%####@gtta td y    g@####%Oo:..:oO%####@gataa",
"tyttj@##g#%Oo,::,oO%#g##@j  tttatyttt j@##g#%Oo,::,oO%#g##@jttta",
"ttt8j#gggg%O5oooo5O%#ggg#jtttatatttwttj#gggg%O5oooo5O%#ggg#jtata",
" ty8j#ggje$%------%$gjgg#jtat  a tywatj#ggje$%------%$gjgg#jt aa",
"tt8 eghljel@@@@@@@@lejlhge   tttttw a eghljel@@@@@@@@lejlhgettaa",
" yt egegeeeypeypepejeegegetaaty  yt   egegeeeypeypepejeegegettaa",
"a ttejeeeeepejeejejepeeejettatt a tttdejeeeeepejeejejepeeejeataa",
" tttetssssssstsststssssstettttaa ttta etssssssstsststssssstettta",
"att     t   atttttt  ttttttt aa att   t8tt8 atttttt       at yya",
"ayt 8      t   t dtttt  tttt attayt d t8 att   t ttt a    at yaa",
"ty 8tt 8 8 t   t a      t t aa aty attt8 ttt   t t t    a  attaa",
"tt t     8    t     d t t ttta  tt t   8att   t  tt        att a",
"tt tt88  8 8a tt     astyt taaa tt     88 t a tt tttta     at aa",
"   t888  8 8  tytttaaa tt   ttt a      88a a     atat     aa aat",
" 888 88  8 w8tytt    w8 attaata y      8 8t  tt ttt t     attaaa",
"t878tt   w w8tw at yt8wt ttaat  y  y   8 8td  tt ty t    aatdaaa",
"t888 y   w 88tttattya wt ttaat d      y8 8taa ttttt  8 a aatataa",
" 88tt    8 8  t a   t 8 ata  t at  tt    8t   tttt  t   aa attaa",
"888 t w  8 8 tty a t t a aataaaat  wtt   8tta ttttt t    a ataaa",
"88       8 88wt    yyt a ata a a   watt8 8t   a tta t  a  aat aa",
"w88t tw  8 8 tt t ty ttaaat  aatt   a t8 8t t tty att a a atttaa",
"y88t  8    8    tattttt  ata tya y    t  8  adtt tyt  a aa attaa",
"y8    t    8  yta tatt a attatatya    t8 8w8  yt  t t a aaaayaaa",
"yttt        atw atya ttaaya aa aataa   8  wtatw  t      a aa aaa",
"t88ttt        w  t ttttsaaaa aaata tttd8t 8   w  t  t a ataaaaaa",
"tyt t         t  t  ttst tt ad  ta  t t8tt8t  tt t  t   at aadaa",
"8ytytt   a   dt    attatat aaaa wy ttty8   t dt     t a  t aataa",
"8ttyyt tt    tt taa ya yaaaaaadaaa tttt8 wt  tt t   ya a aattaaa",
"yyy8tt      tttttaaa  ayt aat 6aat wttw8 t  ttttta   a aa aaatta",
"yyyt y ta     y tyaat  t a8aaaddaaat yt8 tt   y ty  ta a aaaaada",
"yyt          tt ttt att   aadaa aa    t8 tt  tt ttt a a  aa aata",
"ytyy    a  a  tt tydtwttaaaadadaaa y   8t8td  tt ty taaaaaa dtda",
" yy    ta aaa tttttaaatt ataa adaaa   y8attaa ttttt  aa  at ataa",
"tyttt  8  a   tttt aat   a a ataaattt    tt   tttt  t a aaaaaata",
"ttt8tt taaata ttttt ta a aataaaataawtt   atta ttttt aaaaaaaaaata",
" ty8at 8a  a  a tta ttaaaaaataaa aawatt8ttt   a tta t a  aaaaa a",
"tt8 a ataa at tty ata aa ta aaaataa a t8 tt t tty att aa taaaaaa",
" yt    tta  adtt tyt  aa  aaataaaaa   t     adtt tyt  aaaaaaaaa ",
"a tttaa8 aa aa  ttttatattaaaata aaaatd   a  aa  ttttaa a  aaaat ",
" ttta aaa aaa ayt a awaaaaaataaaaataa t  atta ayt t     a aatata",
"att a a8aaa aatatta  taata taaa atta  t8tt8 atttttt  aaa aataaa ",
"ayt aa aaaaaaa t dttaaaaaaataaaaaya a t8 att   t dta a a aataaaa",
"ty 8aa aaaaa aaa a    aatataaaaata attt8 ttt   t aaa  a aa aaaaa",
"ttat  aa8aaa aaa   ad tat taaaaaaaaa aa att   t   a d aaa  aaaaa",
"tt tta8aaaa8aaaaa    asaaa aat  at taaaaaat a tt  a aaaaaa aaaaa",
"   a8a8aaa8a atyattaaa tta ataaaa aaaaaaaaaa     a aaaaaaaaaaaaa"
};
