/* XPM */
static char *LITERED[] = {
/* columns rows colors chars-per-pixel */
"16 128 15 1 ",
"  c #E30000",
". c #670000",
"X c #CB0000",
"o c #730000",
"O c #D70000",
"+ c #9B0000",
"@ c #EF0000",
"# c #FF1F1F",
"$ c #BF0000",
"% c #B30000",
"& c #8B0000",
"* c red",
"= c #A70000",
"- c #7F0000",
"; c #5B0000",
/* pixels */
"o---........&&&&",
"-o--........&&&-",
"----.;;;;;;.&&&&",
"--&-.;-+-.;.+&+&",
"-&&&..+%+-..&+++",
"--&&.o%X%+o.+++&",
"-&&&.oX X%o.++++",
"&-&&.o * Xo.++++",
"&&&&.o # Xo.++++",
"&&+&.o # Xo.++++",
"&+++.o # Xo.++++",
"+&++.o # Xo.%+=+",
"++++.o # Xo.%%==",
"++++.o # Xo.%=%=",
"+++=.o # Xo.%%=%",
"++++.o # Xo.%%%%",
"+++%.o # Xo.%%%$",
"=+%%.o # Xo.$%$$",
"=%%%.o # Xo.$$$$",
"%=$%.o # Xo.X$X$",
"%$$$.o # Xo.XXXX",
"$%$$.o # Xo.XXX$",
"$$$$.o # Xo.XXXX",
"$$X$.o # Xo.OXOX",
"$XXX.o # Xo.XOOO",
"$$XX.o # Xo.OOOO",
"$XXO.o # Xo.O OO",
"X$XX.o # Xo. OOO",
"XXXO.o # Xo.  OO",
"OXOX.o # Xo. O O",
"OOOO.o # Xo.    ",
"OOOO.o # Xo.@ @ ",
"OOO .o # Xo.@@@@",
" O O.o # Xo.@@@ ",
"  O@.o # Xo.@@@@",
"    .o # Xo.@@@@",
"   @.o # Xo.@@@*",
"@ @@.o # Xo.*@**",
"@@@@.o # Xo.****",
"@@#@.o # Xo.#*#*",
"@###.o # Xo.####",
"@@#@.o # Xo.#*#*",
"@@@@.o # Xo.****",
"@ @@.o # Xo.*@**",
"   @.o # Xo.@@@*",
"    .o # Xo.@@@@",
"  O@.o # Xo.@@@@",
" O O.o # Xo.@@@@",
"OOO .o # Xo.@@@@",
"OOOO.o # Xo.@ @ ",
"OOOO.o # Xo.    ",
"OXOX.o # Xo. O O",
"XXXO.o # Xo.  OO",
"X$XX.o # Xo. OOO",
"$XXO.o # Xo.O OO",
"$$XX.o # Xo.OOOO",
"$XXX.o # Xo.XOOO",
"$$X$.o # Xo.OXOX",
"$$$$.o # Xo.XXXX",
"$%$$.o # Xo.XXXX",
"%$$$.o # Xo.XXXX",
"%=$%.o # Xo.X$X$",
"=%%%.o # Xo.$$$$",
"=+%%.o # Xo.$%$$",
"+++%.o * Xo.%%%$",
"++++.oX X%o.%%%%",
"+++=.o%X%+o.%%=%",
"++++..+%+-..%=%=",
"++++.;-+-.;.%%==",
"+&++.;;;;;;.%+=+",
"&+++........++++",
"&&+&........++++",
"+++%.o # Xo.%%%$",
"=+%%.o # Xo.$%$$",
"=%%%.o # Xo.$$$$",
"%=$%.o # Xo.X$X$",
"%$$$.o # Xo.XXXX",
"$%$$.o # Xo.XXX$",
"$$$$.o # Xo.XXXX",
"$$X$.o # Xo.OXOX",
"$XXX.o # Xo.XOOO",
"$$XX.o # Xo.OOOO",
"$XXO.o # Xo.O OO",
"X$XX.o # Xo. OOO",
"XXXO.o # Xo.  OO",
"OXOX.o # Xo. O O",
"OOOO.o # Xo.    ",
"OOOO.o # Xo.@ @ ",
"OOO .o # Xo.@@@@",
" O O.o # Xo.@@@ ",
"  O@.o # Xo.@@@@",
"    .o # Xo.@@@@",
"   @.o # Xo.@@@*",
"@ @@.o # Xo.*@**",
"@@@@.o # Xo.****",
"@@#@.o # Xo.#*#*",
"@###.o # Xo.####",
"@@#@.o # Xo.#*#*",
"@@@@.o # Xo.****",
"@ @@.o # Xo.*@**",
"   @.o # Xo.@@@*",
"    .o # Xo.@@@@",
"  O@.o # Xo.@@@@",
" O O.o # Xo.@@@@",
"OOO .o # Xo.@@@@",
"OOOO.o # Xo.@ @ ",
"OOOO.o # Xo.    ",
"OXOX.o # Xo. O O",
"XXXO.o # Xo.  OO",
"X$XX.o # Xo. OOO",
"$XXO.o # Xo.O OO",
"$$XX.o # Xo.OOOO",
"$XXX.o # Xo.XOOO",
"$$X$.o # Xo.OXOX",
"$$$$.o # Xo.XXXX",
"$%$$.o # Xo.XXXX",
"%$$$.o # Xo.XXXX",
"%=$%.o # Xo.X$X$",
"=%%%.o # Xo.$$$$",
"=+%%.o # Xo.$%$$",
"+++%.o * Xo.%%%$",
"++++.oX X%o.%%%%",
"+++=.o%X%+o.%%=%",
"++++..+%+-..%=%=",
"++++.;-+-.;.%%==",
"+&++.;;;;;;.%+=+",
"&+++........++++",
"&&+&........++++"
};
