/* XPM */
static char *LITE4[] = {
/* columns rows colors chars-per-pixel */
"16 128 30 1 ",
"  c #DFDFDF",
". c gray28",
"X c gray78",
"o c #838383",
"O c gray31",
"+ c gray23",
"@ c gray34",
"# c gray39",
"$ c #434343",
"% c #5B5B5B",
"& c #4B4B4B",
"* c #8B8B8B",
"= c #939393",
"- c #CBCBCB",
"; c gray67",
": c #9F9F9F",
"> c gray70",
", c gray42",
"< c #6F6F6F",
"1 c #777777",
"2 c gray86",
"3 c LightGray",
"4 c #373737",
"5 c gray50",
"6 c #E7E7E7",
"7 c #979797",
"8 c #A7A7A7",
"9 c #B7B7B7",
"0 c gray75",
"q c #2F2F2F",
/* pixels */
".....OOO@OO.....",
".o:>>>>>>>>>>:o.",
".o>---------->o.",
".o>-66666666->o.",
".o>-66666666->o.",
".o:>-------->:o.",
".,o>>>>>>>>>:o,$",
"++$..OOOOOO.$+++",
".....OOO@OO.....",
".o:>>>>>>>>>>:o.",
".o>---------->o.",
".o>-66666666->o.",
".o>-66666666->o.",
".o:>-------->:o.",
".,o>>>>>>>>>:o,$",
"++$..OOOOOO.$+++",
".....OOO@OO.....",
".o:>>>>>>>>>>:o.",
".o>---------->o.",
".o>-66666666->o.",
".o>-66666666->o.",
".o:>-------->:o.",
".,o>>>>>>>>>:o,$",
"++$..OOOOOO.$+++",
".....OOO@OO.....",
".o:>>>>>>>>>>:o.",
".o>---------->o.",
".o>-66666666->o.",
".o>-66666666->o.",
".o:>-------->:o.",
".,o>>>>>>>>>:o,$",
"++$..OOOOOO.$+++",
".....OOO@OO.....",
".o:>>>>>>>>>>:o.",
".o>---------->o.",
".o>-66666666->o.",
".o>-66666666->o.",
".o:>-------->:o.",
".,o>>>>>>>>>:o,$",
"++$..OOOOOO.$+++",
".....OOO@OO.....",
".o:>>>>>>>>>>:o.",
".o>---------->o.",
".o>-66666666->o.",
".o>-66666666->o.",
".o:>-------->:o.",
".,o>>>>>>>>>:o,$",
"++$..OOOOOO.$+++",
".....OOO@OO.....",
".o:>>>>>>>>>>:o.",
".o>---------->o.",
".o>-66666666->o.",
".o>-66666666->o.",
".o:>-------->:o.",
".,o>>>>>>>>>:o,$",
"++$..OOOOOO.$+++",
"+$++4+$++$+.+4++",
"+$++4+$++$+$+4++",
"+.$+q4+q4+4+$4+$",
"$...OOOOOOOO.4$$",
"$&&@o======o@.$.",
".&&o;9XXXX9;o&..",
".O&o;X3223X;o&.&",
"&O&o;X   2X;o&&&",
"&@&o;X    X;o&&O",
"O@&o;X    X;o&OO",
"O@&o;X    X;o&O@",
"@%&*;X    X;*&@@",
"@%O*;X    X;*&@%",
"@#O*;X    X;*O@%",
"%#@=;X    X;=O%%",
"%#@=;X    X;=@%#",
"#,@7;X    X;7@##",
"#,@7;X    X;7@##",
"#<@7;X    X;7@#,",
",<@7;X    X;7@,,",
",<%7;X    X;7@,<",
"<1%7;X    X;7%<<",
"<1%7;X    X;7%<<",
"<1%7;X    X;7%<1",
"15%:;X    X;:%11",
"15%8;X    X;8%11",
"1o%;;X    X;;%15",
"5o%>;X    X;>%55",
"5o#>;X    X;>%55",
"o*#>;X    X;>#oo",
"o*#>;X    X;>#oo",
"o*#0;X    X;0#o*",
"*=#X;X2  2X;X#**",
"*=#3;X3223X;3#**",
"*=#2;X-33-X;2#*=",
"=7#2;XX--XX;2#==",
"=7#6;X-33-X;6#==",
"*=#6;X3223X;6#*=",
"*=#6;X2  2X;6#**",
"*=#X;X    X;X#**",
"o*#0;X    X;0#o*",
"o*#>;X    X;>#oo",
"o*%>;X    X;>#oo",
"5o%>;X    X;>%55",
"5o%>;X    X;>%55",
"1o%;;X    X;;%15",
"15%8;X    X;8%11",
"15%:;X    X;:%11",
"<1%7;X    X;7%<1",
"<1%7;X    X;7%<<",
"<1@7;X    X;7%<<",
",<@7;X    X;7@,<",
",<@7;X    X;7@,,",
"#<@7;X    X;7@#,",
"#,@7;X    X;7@##",
"#,@7;X    X;7@##",
"%#O=;X    X;=@%#",
"%#O=;X    X;=O%%",
"@#&*;X    X;*O@%",
"@%&*;X    X;*&@%",
"@%&*;X    X;*&@@",
"O@&o;X    X;o&O@",
"O@&o;X    X;o&OO",
"&@&o;X    X;o&&O",
"&O&o;X2  2X;o&&&",
".O&o;X3223X;o&.&",
".&.o;9XXXX9;o&..",
"$&+<o======o<.$.",
"$.+4OOOOOOOO4+$$",
"+.++q4+q4+4+$++$",
"+$++4+$++$+$+4++",
"+$++4+$++$+$+4++"
};
