/* XPM */
static char *LITEBLU3[] = {
/* columns rows colors chars-per-pixel */
"16 128 18 1 ",
"  c #675333",
". c #775F4B",
"X c #0000B3",
"o c #676B4F",
"O c #000083",
"+ c #00009B",
"@ c #00006B",
"# c #53573B",
"$ c #5B6347",
"% c #0000CB",
"& c #4F3B23",
"* c #67533F",
"= c #574333",
"- c #0000E3",
"; c #5F4B37",
": c #000053",
"> c #533F2F",
", c #7B634F",
/* pixels */
"&              &",
"&              &",
"& oo=>>>>>>=oo &",
"& $$;:@OO@:;$$ &",
"& $$*@O++O@*$$ &",
"& $$.O+XX+O.$$ &",
"& $$.+X%%X+.$$ &",
"& $$.X%--%X.$$ &",
"& $$.X%--%X.$$ &",
"& $$.X%--%X.$$ &",
"& ##.X%--%X.## &",
"&   .X%--%X.   &",
"& oo.X%--%X.oo &",
"& $$.X%--%X.$$ &",
"& $$.X%--%X.$$ &",
"& $$.X%--%X.$$ &",
"& $$.X%--%X.$$ &",
"& $$.X%--%X.$$ &",
"& $$.X%--%X.$$ &",
"& $$.X%--%X.$$ &",
"& ##.X%--%X.## &",
"&   .X%--%X.   &",
"& oo.X%--%X.oo &",
"& $$.X%--%X.$$ &",
"& $$.X%--%X.$$ &",
"& $$.X%--%X.$$ &",
"& $$.X%--%X.$$ &",
"& $$.X%--%X.$$ &",
"& $$.X%--%X.$$ &",
"& $$.X%--%X.$$ &",
"& ##.X%--%X.## &",
"&   .X%--%X.   &",
"& oo.X%--%X.oo &",
"& $$.X%--%X.$$ &",
"& $$.X%--%X.$$ &",
"& $$.X%--%X.$$ &",
"& $$.X%--%X.$$ &",
"& $$.X%--%X.$$ &",
"& $$.X%--%X.$$ &",
"& $$.X%--%X.$$ &",
"& ##.X%--%X.## &",
"&   .X%--%X.   &",
"& oo.X%--%X.oo &",
"& $$.X%--%X.$$ &",
"& $$.X%--%X.$$ &",
"& $$.X%--%X.$$ &",
"& $$.X%--%X.$$ &",
"& $$.X%--%X.$$ &",
"& $$.X%--%X.$$ &",
"& $$.X%--%X.$$ &",
"& ##.X%--%X.## &",
"&   .X%--%X.   &",
"& oo.X%--%X.oo &",
"& $$.X%--%X.$$ &",
"& $$.X%--%X.$$ &",
"& $$.X%--%X.$$ &",
"&              &",
"&              &",
"& oo=>>>>>>=oo &",
"& $$;:@OO@:;$$ &",
"& $$*@O++O@*$$ &",
"& $$.O+XX+O.$$ &",
"& $$.+X%%X+.$$ &",
"& $$.X%--%X.$$ &",
"& $$.X%--%X.$$ &",
"& $$.X%--%X.$$ &",
"& ##.X%--%X.## &",
"&   .X%--%X.   &",
"& oo.X%--%X.oo &",
"& $$.X%--%X.$$ &",
"& $$.X%--%X.$$ &",
"& $$.X%--%X.$$ &",
"& $$.X%--%X.$$ &",
"& $$.X%--%X.$$ &",
"& $$.X%--%X.$$ &",
"& $$.X%--%X.$$ &",
"& ##.X%--%X.## &",
"&   .X%--%X.   &",
"& oo.X%--%X.oo &",
"& $$.X%--%X.$$ &",
"& $$.X%--%X.$$ &",
"& $$.X%--%X.$$ &",
"& $$.X%--%X.$$ &",
"& $$.X%--%X.$$ &",
"& $$.X%--%X.$$ &",
"& $$.X%--%X.$$ &",
"& ##.X%--%X.## &",
"&   .X%--%X.   &",
"& oo.X%--%X.oo &",
"& $$.X%--%X.$$ &",
"& $$.X%--%X.$$ &",
"& $$.X%--%X.$$ &",
"& $$.X%--%X.$$ &",
"& $$.X%--%X.$$ &",
"& $$.X%--%X.$$ &",
"& $$.X%--%X.$$ &",
"& ##.X%--%X.## &",
"&   .X%--%X.   &",
"& oo.X%--%X.oo &",
"& $$.X%--%X.$$ &",
"& $$.X%--%X.$$ &",
"& $$.X%--%X.$$ &",
"& $$.X%--%X.$$ &",
"& $$.X%--%X.$$ &",
"& $$.X%--%X.$$ &",
"& $$.X%--%X.$$ &",
"& ##.X%--%X.## &",
"&   .X%--%X.   &",
"& oo.X%--%X.oo &",
"& $$.X%--%X.$$ &",
"& $$.X%--%X.$$ &",
"& $$.X%--%X.$$ &",
"& $$.X%--%X.$$ &",
"& $$.X%--%X.$$ &",
"& $$.X%--%X.$$ &",
"& $$.X%--%X.$$ &",
"& ##.X%--%X.## &",
"&   .X%--%X.   &",
"& oo.X%--%X.oo &",
"& $$.X%--%X.$$ &",
"& $$.X%--%X.$$ &",
"& $$.X%--%X.$$ &",
"& $$.X%--%X.$$ &",
"& $$.X%--%X.$$ &",
"& $$.X%--%X.$$ &",
"& $$..,,,,..$$ &",
"& ##        ## &",
"&              &"
};
