/* XPM */
static char *MIDBRN1[] = {
/* columns rows colors chars-per-pixel */
"64 112 40 1 ",
"  c cyan",
". c #272727",
"X c #332B13",
"o c #2B230F",
"O c #2F2F2F",
"+ c #1B1B1B",
"@ c #1F170B",
"# c #232323",
"$ c #373737",
"% c #131313",
"& c #0B0B0B",
"* c gray23",
"= c #3F2F17",
"- c #43331B",
"; c #434343",
": c black",
"> c #170F07",
", c gray28",
"< c #070707",
"1 c #373F27",
"2 c #13230B",
"3 c #533F2F",
"4 c #5B5B5B",
"5 c #0B1707",
"6 c #4B4B4B",
"7 c #6F6F6F",
"8 c #474F33",
"9 c gray39",
"0 c #4F3B23",
"q c #17330F",
"w c gray31",
"e c #53573B",
"r c #7B634F",
"t c #5B472B",
"y c #775F4B",
"u c gray34",
"i c #5F4B37",
"p c #5B6347",
"a c #3F472B",
"s c #5F4323",
/* pixels */
"&&&&&&&&&&&&&&&&&&&&&&&&&&&&&&&&&&&&&&&&&&&&&&&&&&&&&&&&&&&&&&&&",
"@%++@++++@+@+++@@@@@+@@@@++@@++@+@+@+++@@@+++++@+++@@%@@+@+@+++@",
"%@+#@@#+++@#+#++@##@@@#+#++++#+@++@#+#++@#####++++++@@#+#+@#+#++",
"####oo#oooo#$$##o##o###ooo####ooooo#$$##o#########ooooooooo#$$##",
"-X.#oX..oXo$o#$#oXXX=X+oo###oo#.oXo$o#$#oXXXo###XXooo#=.oXo$o#$#",
"OX.#oX.#oo*ooo.Oo.XX==.#ooo#oX.#oo*ooo.Oo.X.oXoooooXoo.#oo*ooo.O",
"o.OoX.XXX*oX*O.X*XX=.O.XO.XoX-oXX*oX*O.X*XX.2O2.X.O#oOoXX*oX*O.X",
"XX.oXo.X*X-+4*+..*.=.XXoXXoo.#.X*X-+4*+..*......X.O....X*X-+4*+.",
"X-oooXX.+2X:.+:XX+XXXXoX.O.X....+2X:.+:XX+XXo..O..X-X...+2X:.+:X",
"XXoXX..oX&X+::+.@..=XoXX.OXXoXXoX&X+::+.@..o.O.-X..OX..oX&X+::+.",
".X.XXXoX2X&..XO&X...XoXoXoX-X.oX2X&..XO&X..O.OXXX.--..XX2X&..XO&",
".o.XX.o.-oX&X.&XXXo.XX.#oX.2o.O.-oX&X.&XXXoXoo.XX.O.X.X.-oX&X.&X",
".XoXXooXX=oo&&.X.oo.X.X..2XoX.XXX=oo&&.X.ooX...=X-O....XX=oo&&.X",
"O.X.o.oo2oX.X..o.X.XoXoXXX.-oX..2oX.X..o.O.XXoX.X-X.....2oX.X..o",
"OO.=.XX.O.ooooXoOX#X.XXo.XoXX.XXO.ooooXoO..O.X.Xo.X.-..-O.ooooXo",
"+@@@@@@@@@@@@@@@+@@@@@@++@@@@@@@@@@@@@@@+@@@@@@+5+@@@@@@@@@@@@@@",
"<&<#*+<&&&<#*+<&&&<#*+<&<&<#*+<&&&<#*+<&&&<#*+<><&<#*+<&&&<#*+<&",
"  +;;+@   +;;+@   +;;+@   +;;+@   +;;+@   +;;+@   +;;+@   +;;+@ ",
"  OO#=1   OO#=1   OO#=1   OO#=1   OO#=1   OO#=1   ..#=1   OO#=1 ",
"  X%6,@   X%6,@   X%6,@   X%6,@   X%6,@   X%6,@   X%6;@   X%6,@ ",
"  &O9O<   &O9O<   &O9O<   &O9O<   &O9O<   &O9O<   &.9.<   &O9O< ",
"  #**@%   #**@%   #**@%   #**@%   #**@%   #**@%   #**@%   #**@% ",
"  OO%#$   OO%#$   OO%#$   OO%#$   OO%#$   OO%#$   ..%#$   OO%#$ ",
"  X+6eo   X+6eo   X+6eo   X+6eo   X+6eo   X+6eo   X+6eo   X+6eo ",
"  >$4O&   >$4O&   >$4O&   >$4O&   >$4O&   >$4O&   >$4.&   >$4O& ",
"  #;*+@   #;*+@   #;*+@   #;*+@   #;*+@   #;*+@   #;*+@   #;*+@ ",
"  X=@O$   X=@O$   X=@O$   X=@O$   X=@O$   X=@O$   X=@.$   X=@O$ ",
"  X%88=   X%88=   X%88=   X%88=   X%88=   X%88=   X%88=   X%88= ",
"  &$9O&   &$9O&   &$9O&   &$9O&   &$9O&   &$9O&   &$9.&   &$9O& ",
"  #**++   #**++   #**++   #**++   #**++   #**++   #**++   #**++ ",
"  OO+OO   OO+OO   OO+OO   OO+OO   OO+OO   OO+OO   ..+..   OO+OO ",
"  X%;8%   X%;8%   X%;8%   X%;8%   X%;8%   X%;8%   X%;8%   X%;8% ",
"  >XyO&   >XyO&   >XyO&   >XyO&   >XyO&   >XyO&   >Xy.&   >XyO& ",
"  +*0%%   +*0%%   +*0%%   +*0%%   +*0%%   +*0%%   +*0%%   +*0%% ",
"  OO+=$   OO+=$   OO+=$   OO+=$   OO+=$   OO+=$   ..+=$   OO+=$ ",
"  X%w,+   X%w,+   X%w,+   X%w,+   X%w,+   X%w,+   X%6;+   X%w,+ ",
"  >XrO&   >XrO&   >XrO&   >XrO&   >XrO&   >XrO&   >Xr.&   >XrO& ",
"  @$*@o   @$*@o   @$*@o   @$*@o   @$*@o   @$*@o   .$.X-   @$*@o ",
"  XO+O$   XO+O$   XO+O$   OO#=1   XO+O$   XO+O$   X+**o   XO+O$ ",
"  #%i,#   #%i,#   #%i,#   X%6,@   #%i,#   #%i,#   %#4*%   #%i,# ",
"  <O7O<   <O7O<   <O7O<   &O9O<   <O7O<   <O7O<   +$6#&   <O7O< ",
"  o00@o   o00@o   o00@o   #**@%   o00@o   o00@o   .1o+O   o00@o ",
"  #X@-#   #X@-#   #X@-#   OO%#$   #X@-#   #X@-#   X#$3o   #X@-# ",
"  X@t3o   X@t3o   X@t3o   X+6eo   X@t3o   X@t3o   @.p1>   X@t3o ",
"  >XyO&   >XyO&   >XyO&   >$4O&   >XyO&   >XyO&   +*,#>   >XyO& ",
"  +*0%%   +*0%%   +*0%%   #;*+@   +*0%%   +*0%%   o-X#.   +*0%% ",
"  OO+=$   OO+=$   OO+=$   X=@O$   OO+=$   OO+=$   X+1a-   OO+=$ ",
"  X%w,+   X%w,+   X%w,+   X%88=   X%w,+   X%w,+   @.4*%   X%w,+ ",
"  >XrO&   >XrO&   >XrO&   &$9O&   >XrO&   >XrO&   +1,#%   >XrO& ",
"  @$*@o   @$*@o   @$*@o   #**++   @$*@o   @$*@o   .$#..   @$*@o ",
"  XO+O$   XO+O$   XO+O$   OO+OO   XO+O$   XO+O$   X.+.$   XO+O$ ",
"  #%i,#   #%i,#   #%i,#   #%i,#   #%i,#   #%i,#   #%i;#   #%i,# ",
"  <O7O<   <O7O<   <O7O<   <O7O<   <O7O<   <O7O<   <.7.<   <O7O< ",
"  o00@o   o00@o   o00@o   o00@o   o00@o   o00@o   o00@o   o00@o ",
"  #X@-#   #X@-#   #X@-#   #X@-#   #X@-#   #X@-#   #X@=#   #X@-# ",
"  X@t3o   X@t3o   X@t3o   X@t3o   X@t3o   X@t3o   X@t3o   X@t3o ",
";;333;;;;;333;;;;33;-,3*;133*;;3;;333;;;;33;-,3*;133*;;3;;333;;;",
"X..oo..oX..oX.O-o.#.XO.oX..oo..oX..oX.O-o.#.XO.oX..oo..oX..oX.O-",
"X.O..o.XXooX*O.XXXO.OOXOX.O..o.XXooX*O.XXXO.OOXOX.O..o.XXooX*O.X",
"..XX....2X-+4*+..X=X..#...XX....2X-+4*+..X=X..#...XX....2X-+4*+.",
".2Xo#..o.2X:.+:XXXX.-OX#.2Xo#..o.2X:.+:XXXX.-OX#.2Xo#..o.2X:.+:X",
"X..oo..oO.X+::+.X.#.XO.oX..oo..oO.X+::+.X.#.XO.oX..oo..oO.X+::+.",
"O...oX..o...-..-o.X.-oX-O...oX..o...-..-o.X.-oX-O...oX..o...-..-",
"+@++&@++5++++&+@5+@++@+++@++@@++5++++@+@5+@++@+++@++@@++5++++@+@",
">+>o%+#>>>>o%+#>%>>o%+#><@>o%+#>%>>o%+#<>>>o%+#+&%>o%+#>>>>o%+#+",
"  @+,eX   @+,eX   @+,eX   @+,eX   @+,eX   @+,eX   @+,eX   @+,eX ",
"  &$9O&   &$9O&   &$9O&   &$9O&   &$9O&   &$9O&   &$9O&   &$9O& ",
"  +;;+@   +;;+@   +;;+@   +;;+@   +;;+@   +;;+@   +;;+@   +;;+@ ",
"  OO#=1   OO#=1   OO#=1   OO#=1   OO#=1   OO#=1   OO#=1   OO#=1 ",
"  X%6,@   X%6,@   X%6,@   X%6,@   X%6,@   X%6,@   X%6,@   X%6,@ ",
"  &O9O<   &O9O<   &O9O<   &O9O<   &O9O<   &O9O<   &O9O<   &O9O< ",
"  #**@%   #**@%   #**@%   #**@%   #**@%   #**@%   #**@%   #**@% ",
"  OO%#$   OO%#$   OO%#$   OO%#$   OO%#$   OO%#$   OO%#$   OO%#$ ",
"  X+6eo   X+6eo   X+6eo   X+6eo   X+6eo   X+6eo   X+6eo   X+6eo ",
"  >$4O&   >$4O&   >$4O&   >$4O&   >$4O&   >$4O&   >$4O&   >$4O& ",
"  #;*+@   #;*+@   #;*+@   #;*+@   #;*+@   #;*+@   #;*+@   #;*+@ ",
"  X=@O$   X=@O$   X=@O$   X=@O$   X=@O$   X=@O$   X=@O$   X=@O$ ",
"  X%88=   X%88=   X%88=   X%88=   X%88=   X%88=   X%88=   X%88= ",
"  &$9O&   &$9O&   &$9O&   &$9O&   &$9O&   &$9O&   &$9O&   &$9O& ",
"  #**++   #**++   #**++   #**++   #**++   #**++   #**++   #**++ ",
"  OO+OO   OO+OO   OO+OO   OO+OO   OO+OO   OO+OO   OO+OO   OO+OO ",
"  X%;8%   X%;8%   X%;8%   X%;8%   X%;8%   X%;8%   X%;8%   X%;8% ",
"  >XyO&   >XyO&   >XyO&   >XyO&   >XyO&   >XyO&   >XyO&   >XyO& ",
"  +*0%%   +*0%%   +*0%%   +*0%%   +*0%%   +*0%%   +*0%%   +*0%% ",
"  OO+=$   OO+=$   OO+=$   OO+=$   OO+=$   OO+=$   OO+=$   OO+=$ ",
"  X%w,+   X%w,+   X%w,+   X%w,+   X%w,+   X%w,+   X%w,+   X%w,+ ",
"  >XrO&   >XrO&   >XrO&   >XrO&   >XrO&   >XrO&   >XrO&   >XrO& ",
"  @$*@o   @$*@o   @$*@o   @$*@o   @$*@o   +$*+o   @$*@o   @$*@o ",
"  XO+O$   XO+O$   XO+O$   XO+O$   XO+O$   Xo+O$   XO+O$   XO+O$ ",
"  #%i,#   #%i,#   #%i,#   #%i,#   #%i,#   #>s-#   #%i,#   #%i,# ",
"  <O7O<   <O7O<   <O7O<   <O7O<   <O7O<   <q7q<   <O7O<   <O7O< ",
"  o00@o   o00@o   o00@o   o00@o   o00@o   OwX+o   o00@o   o00@o ",
"  #X@-#   #X@-#   #X@-#   #X@-#   #X@-#   @X+;#   #X@-#   #X@-# ",
"  X@t3o   X@t3o   X@t3o   X@t3o   X@t3o   X+4Xo   X@t3o   X@t3o ",
"  &#;O+   &#;O+   &#;O+   &#;O+   &#;O+   &#;o+   &#;O+   &#;O+ ",
"::$$;*+@::$$;*+@>>$$;*+.<@$$;*+>@.$$;*+@@>$$;*+O<@$$;*+>.:$$;*+@",
"1$$1$$$*OOO111111$11$11$1$$$1$1$OOO111111$11$11$1$O111$$OOO11111",
"X+O.XO..Oo.X...XoooXOXXXo..oXO.oOo.X...XoooXOXXX...Xo+oXOo.X...X",
"#oOoXX...XX.Oo.XXOXXXX.O..o.X.Xo.XX.Oo.XXOXXXX.O.o.XXX.O.XX.Oo.X",
"....Xo.XXXo#;u.#o..o...XX.....XXXXo#;u.#o..o...XOOX.XXX.XXo#;u.#",
"-X..oX.XoXo;..4#oXXX-.2Xo#..o..ooXo;..4#oXXX-.2X=Xoo..-ooXo;..4#",
"OX..oX..oo*oo.X*#XXX-X..oo..oX..oo*oo.X*#XXX-X..oooXo.Xooo*oo.X*",
"o.OoX.XXXOoX*O.XOXX=.O.XO.XoX-o.XOoX*O.XOXX=.O.XX.O#oOoXXOoX*O.X",
"XX.oXo..#X-+4*+..#.=.XXoXXoo.#.o#X-+4*+..#.=.XXoX.O....X#X-+4*+.",
"X-oooXX2+2X:.+:XO+XXXXoX.O.X...X+2X:.+:XO+XXXXoX..X-X..o+2X:.+:X",
"XXoXX...:+O+::+O+%.=XoXX.OXXoXXX:+O+::+O+%.=XoXXX..OX..o:+O+::+O",
".X.XXXoX5:+O.XO+:o..XoXoXoX-X.oX5:+O.XO+:o..XoXoX.--..X25:+O.XO+",
".o.XX.o.o5:.X.$:5Xo.XX.#oX.2o.O.o5:.X.$:5Xo.XX.#X.O.X.X.o5:.X.$:",
".XoXXooXXo:OXX$:ooo.X.X..2XoX.XoXo:OXX$:ooo.X.X.X-O....OXo:OXX$:",
"O.X.o.oo2o+OX.$+oX.XoXoXXX.-oX..2o+OX.$+oX.XoXoXX-X.....2o+OX.$+",
"OO.=.XX.Oo+OooO+oX#X.XXo.XoXX.XXOo+OooO+oX#X.XXoo.X.-..-Oo+OooO+",
"+@@o@@@o@@:++++@+@++@@@++@@@+o@@@@:++++@+@++@@@+5+@++@+@@@:++++@"
};
