/* XPM */
static char *NUKE24[] = {
/* columns rows colors chars-per-pixel */
"64 24 29 1 ",
"  c #43331B",
". c #332B13",
"X c #4B371B",
"o c #1F4317",
"O c #3F472B",
"+ c #373F27",
"@ c #4F3B23",
"# c #17330F",
"$ c #474F33",
"% c #27531B",
"& c #3F832F",
"* c #37732B",
"= c #439337",
"- c #3F2F17",
"; c #4B9F3F",
": c #533F1F",
"> c #53573B",
", c #2B230F",
"< c #53AF47",
"1 c #2F6323",
"2 c #5B6347",
"3 c #272727",
"4 c #5BBF4F",
"5 c #2F2F2F",
"6 c #574333",
"7 c #232323",
"8 c #533F2F",
"9 c #6B4727",
"0 c #5FCF57",
/* pixels */
"-XX.---.-:-X.X.-.9-X.--X-X-.-.------.-:-X-..,-X--..-----,,-X-X,.",
"---,---..-:-X.---XX-..---X-------X-.--+.-X--.X----,-.X---,.X---.",
"-  -7 .-3. @X.   .@@  X.X:X :X : X  X 8  X 3..: .X.--X-.-,--.--,",
"X ...-.. . @X .XX   .X+.XX .X XXX  X  O3X...X. ,:X  ..X   .X  XX",
",  .  .  ## X@@  X .X @X X..X X: ,XXXX.XX... @.X: X :  X,XX. .  ",
"-  .-. X ..##@X  X .@ X .X::XX:- X  X  3@@X #@X XOX XXX:XX.XX#X ",
".  ..3.    # o.@@# .### XXX.  X .X..XXXX3#X#X@X:   X  X  XX  #+X",
",.++5.. .O  # 3. @..  @##.@ .X  XX#.@   ##X    X   .  .., .  X#X",
"..    + +   + #  + +  .# +  .+- X++.+@+#@+@+   + . ..# 3 # -.5# ",
".    +.@@+.. +XXX     +    O- O+O#XX.#O+OO@@++X#.+@  3   6.5.@.,",
"o +.++o@OO@O#XXXXX@X O XXX-@O ..+O%###+#O @@@+OX+X #.@   +6,+.,3",
"o$++#o@$O++ooO:XXXX:@::o::Oo+@+XO$o%%##OoOoo+++++OOo@ @ 6X++@++5",
"o$O$+Ooo$OOOO$O::$OOoo$::O+++O+$OO$++$+o+$$o++O$oooo+o@O$OO++$O+",
"$$OOooOoOOoOO$o+O$oOOooOoOOOOO$O>OO$+oo$ooooo>$O$+oo$Oo$ooOOo$$$",
"o%>O%O%oOoo%O$oo$o%%Ooo%ooo%%OOOO%%%oOO%oo%%%1>$%%>$$$o$%%ooo%$o",
"oo%%%oOOo%%%oo%>%%%%OOo%%o1%%1O%%%$O$O$%%oo%1%1%%1%1%>%>%$%o1%>>",
"oo1%>1%o%%%%%%%1%%%%%oo%%1%1%11%%%o%OO$%o1%11%*%>111%%1o%%oo1%>o",
"%%*111%o%>12>%%1*>1%%o%%11%11*%1%*%1%11%%1%11%2*11%%*11%1%1%111%",
"*2*1%11%111*%%1*1211%o%11*1>*&*11221%1*111121*11**1%11*1**%%211%",
"*1*112*%121*11*&*%*11%12**111*&*11&111*1*1*1&&&1&1&1%112**11111>",
"*1*%1****1&&***=*1**1*11**&*1&*11*;********&&*1*&1*&1%*1&1*1*1*1",
"*1*1***1*&&=&&&=*1*;*&&*&&;&*&**1=<&&&&&*1&*1&**&&*=*1*&**&1&1*1",
"&*=1*&&&=&*====;=*=;=*&&=;<&*;&*=<4;=;&**&=&*&*&<==<=**&==&;&*&*",
"&&===&======&;;;;<<;;===;<<;;;;;<044;4<;;=;4&;;<<&<<<=====;;;&&&"
};
