/* XPM */
static char *NUKEPOIS[] = {
/* columns rows colors chars-per-pixel */
"64 128 39 1 ",
"  c #3F2F17",
". c #1B1B1B",
"X c #D7BB43",
"o c #C39B2F",
"O c #2F6323",
"+ c #27531B",
"@ c #37732B",
"# c #1F4317",
"$ c #874307",
"% c #AF7B1F",
"& c #9B5B13",
"* c #3F832F",
"= c #474F33",
"- c #439337",
"; c #17330F",
": c #4B9F3F",
"> c #732B00",
", c #53573B",
"< c #53AF47",
"1 c #272727",
"2 c #5B6347",
"3 c #5BBF4F",
"4 c #2F2F2F",
"5 c #232323",
"6 c #574333",
"7 c #1F170B",
"8 c #5FCF57",
"9 c #332B13",
"0 c #4B371B",
"q c #533F1F",
"w c #5F4323",
"e c #2B230F",
"r c #4F3B23",
"t c #373F27",
"y c #6B4727",
"u c #43331B",
"i c #3F472B",
"p c #533F2F",
"a c #774F2B",
/* pixels */
" 0     0  09   9999w009q q90 9    e0   99eq 9   09 9    0  q09  ",
"0eq0 0ee 0 9 9 9 q  9q 90   9 q9  9   9 0909    090 q 00w9qq w  ",
"0e09q        9  90     e    9   0  9q9  q0  900 0q0009qq 09q00q0",
"q090 0q0   0 00 09q 90q90990 9  q        q  0q0 ww0w  q  wq0 q 0",
" rw 00000w0 w q 9 q09000   q 9  09090 0 00e  q9 q09q0    0 q0q q",
"  e  0900q00q q 0 q0 0 090 q0 90 q  090 9 e   q00090000q90tq 900",
"99  0 w 00   q e0 0q0 9  0  q0 0   w 00 99     0       9q r0 q9 ",
" 9q 0 909q0     0q9 0q9 90     090 wq 0  99w      0 0  qq  0 9 0",
" 000  0w0q  0  0q  090 090 909q 0 0   09 9 090   0  000w0900 90 ",
"  0  q 000   099 90 90q 9   0 0 099     9  0 q  q  0q090 0   0  ",
" q   0909 0   0  9w 9 000  00   0 0  0       0900    0   0 0  90",
"0   w      0 09 0  q0      9009 09     09 00 99  00   0 qq 0    ",
"0  q 9 0 0  w  0w  q0 99   00  9q9 0 q     0 09  0   q0 000q 0 0",
"q  q 0  000 qq900090  q  0   9    0   w0 q    09 qq 000 0 9q90  ",
"0  0   0  w0  q     0 0  0 9      w        q 0009q0  0  9    090",
"9      0 9w0  00 9  009    0qq  9 wq      9  0 0  0 0   9 0 w0  ",
"e 9 0990 0    0           009q0 9 009 09   0000    q9  0 0  q  0",
"   0    0  00 0         9       909q  00      0   0  09000q w 09",
"q 0       qy090   0 q     w9w9  0   0      q  9 00q0   0w q    0",
"  q  00  00     w   90  q0   0      q qq 9 q99  0  00  00 q q 0q",
"9 00 9q  q 0q  00 q9    0 09 q 9  9   y 99   e  0 qw9q 009y9y 9w",
"9 9   0  0 0 qw    9  q    99  0 90 0 q0 9 r090   0   90 009w 9 ",
"900990        0        t99    909 0 09a99  i 90909qq 9 009q9w 9 ",
" 0 090990  0900           9 9    9   00 u 9r 0   9qw     0  00 9",
" q0   9 e0 00 0 9      te   99  9 0090     r e    0  p0 q   009 ",
"90 9  t 99  9w 9   9 9q 9   9ew99 9t  q   000 99  0 qi eyq  w   ",
"9  999  e 0  0  9       99 q 9 9      q  9q9    0 0 0r ww9 00   ",
"       9   9w9 0 9  9 00  00e 0 9     0   09eq9    0 r 0 9 0 0  ",
" u  0   9 9 0   99     9 t90 009   0  0q   9 099    09 q 9 00   ",
"e   990  9090 9q   0       09   9    9    e 0  0     9 090  q099",
" 0    0  909q  q        90   9  9  0 9099 9  99      t qe0  0 9 ",
" t 0  u   9  0  9 9 9 ute  9  t       0  090 9 990   i        0 ",
"900  9  0    0 9  9   9r9 9   90 99   0 09 0  e9 00 9   9  00   ",
" 0     0  09   9999w009q q90 9    e0   99eq 9   09 9    0  q09  ",
"0eq0 0ee 0 9 9 9 q  9q 90   9 q9  9   9 0909    090 q 00w9qq w  ",
"0e09q        9  90     e    9   0  9q9  q0  900 0q0009qq 09q00q0",
"q090 0q0   0 00 09q 90q90990 9  q        q  0q0 ww0w  q  wq0 q 0",
" rw 00000w0 w q 9 q09000   q 9  09090 0 00e  q9 q09q0    0 q0q q",
"  e  0900q00q q 0 q0 0 090 q0 90 q  090 9 e   q00090000q90tq 900",
"99  0 w 00   q e0 0q0 9  0  q0 0   w 00 99     0       9q r0 q9 ",
" 9q 0 909q0     0q9 0q9 90     090 wq 0  99w      0 0  qq  0 9 0",
" 000  0w0q  0  0q  090 090 909q 0 0   09 9 090   0  000w0900 90 ",
"  0  q 000   099 90 90q 9   0 0 099     9  0 q  q  0q090 0   0  ",
" q   0909 0   0  9w 9 000  00   0 0  0       0900    0   0 0  90",
"0   w      0 09 0  q0      9009 09     09 00 99  00   0 qq 0    ",
"0  q 9 0 0  w  0w  q0 99   00  9q9 0 q     0 09  0   q0 000q 0 0",
"q  q 0  000 qq900090  q  0   9    0   w0 q    09 qq 000 0 9q90  ",
"0  0   0  w0  q     0 0  0 9      w        q 0009q0  0  9    090",
"9      0 9w0  00 9  009    0qq  9 wq      9  0 0  0 0   9 0 w0  ",
"e 9 0990 0    0           009q0 9 009 09   0000    q9  0 0  q  0",
"   0    0  00 0         9       909q  00      0   0  09000q w 09",
"q 0       qy090   0 q     w9w9  0   0      q  9 00q0   0w q    0",
"  q  00  00     w   90  q0   0      q qq 9 q99  0  00  00 q q 0q",
"9 00 9q  q 0q  00 q9    0 09 q 9  9   y 99   e  0 qw9q 009y9y 9w",
"9 9   0  0 0 qw    9  q    99  0 90 0 q0 9 r090   0   90 009w 9 ",
"900990        0        t99    909 0 09a99  i 90909qq 9 009q9w 9 ",
" 0 090990  0900           9 9    9   00 u 9r 0   9qw     0  00 9",
" q0   9 e0 00 0 9      te   99  9 0090     r e    0  p0 q   009 ",
"90 9  t 99  9w 9   9 9q 9   9ew99 9t  q   000 99  0 qi eyq  w   ",
"9  999  e 0  0  9       99 q 9 9      q  9q9    0 0 0r ww9 00   ",
"       9   9w9 0 9  9 00  00e 0 9     0   09eq9    0 r 0 9 0 0  ",
" u  0   9 9 0   99     9 t90 009   0  0q   9 099    09 q 9 00   ",
"e   990  9090 9q   0       09   9    9    e 0  0     9 090  q099",
" 0    0  909q  q        90   9  9  0 9099 9  99      t qe0  0 9 ",
" t 0  u   9  0  9 9 9 ute  9  t       0  090 9 990   i        0 ",
"900  9  0    0 9  9   9r9 9   90 99   0 09 0  e9 00 9   9  00   ",
" 00 9    90  90  9    eq 9  099q0   0 9 9e   9 0   09    09  0 9",
"0q    9 e  99q9 99    9 e 99 9  9009 9q9e9 0 99   00 q00  09 0  ",
"............................................................    ",
".............................................................   ",
".............................................................   ",
"...>>$$$$$$$$$$$$$$$$$$$$$$$$$$$$$$$$$$$$$$$$$$$$$$$$$$>>....  0",
"...>&&&&&&&&&&&....>&>...>&..&>...&>...>&....>&&&&&&&&&&>....   ",
"...>&&%%%%%%%%%..%..%..%..%..%..%%%..%..&..%..%%%%%%%%&$>.... 99",
"....$&%oooooooo....&o..o..o..o&..&o..o..&..o..oooooooo%$.... 9eq",
".....&%oXXXXXoX..XXoo..X..X..oXX..X..X..&..X..oXXXXXo%%.....    ",
"9.....%oXXXXXoX..XXoo&...&X..o...&X&...&&..X..oXXXXXo%.....   99",
"  .....oXXXXXoXoXXXooXoXXXXXXoXXXXXXXXXX&oXXXXoXXXXXo.....0r9  9",
"  9.....oXXXXoXoXXXooXoXXXXXXoXXXXXXXXXX&oXXXXoXXXXo.....0      ",
"0 90.....oXXXoXoXXXooXoXXX%......%XXXXXX&oXXXXoXXXo.....t     99",
"r90  .....oXXoXoXXXooXoXX%.>&%%&>.%XXXXX&oXXXXoXXo.....9 q 0 9 9",
"9y 09 .....oXoXoXXXooXoXX.>%oXXo%>.XXXXX&oXXXXoXo..... 9 q 0909 ",
" 00 99 .....ooXoXXXooX$.$.$ooXXoo$.$.$XX%oXXXXoo.....  99 q 09  ",
"0900   e.....oXoXXXooX....&>....>&....XX%oXXXXo.....1 9 99 q 9  ",
"  0 9 090.....ooXXXooX%.$.&..$$..&.$.%XX%oXXXo.....9     900 99 ",
"9 99 9  9 .....oXXXooXXo.$.$%XX%$.$.oXXX%oXXo..... 90    9     9",
"e  90  99  .....oXXooXXXo...$%%$...oXXXXooXo..... 99u  q 99    9",
" 90e  99  q9.....oXooXXXo&........&oXXXXooo.....09 e99   9 9 0e ",
"  9999 9 e099.....oooXXo&.>.$%%$.>.&oXoXoo..... e99  9 90   9 e9",
"       9 9 099.....ooXo..............ooXo..... 9   e  990    0e9",
"  9999   9  e e.....ooo...o%$..$%oo..oXo..... 99q9 e9  eq 99  e ",
"0 e999 e09 9    .....oooooooooooooooooo..... 9e9q9 99 9 99 09  9",
"9 9  9 e00 9w 90 .....o%o%o%%o%ooo%ooo.....  99  0099 909 0 999e",
"  9 09 99 90  9990.....oo%%%%%%%%%%%%.....e0 9    9 9 9 99q   99",
"9   0  9 9 09090   .....&%&%&%%&%&%$.....     9    e 9  79  9 0e",
"e9   9  t99  99   9 .....&&&&&&&&%$.....e 99 9     90 9 9 9 9   ",
"9999     99 1090    9.....$$$$$$$$.....09909 90  9990e99 99  099",
" 999      9  99 9 t9 9.....$$$$>>.....091 0  9   9 9   99 e  999",
"   e9  90  9  999 9t   .....>>>>.....0  109 9  9 99 999e     95 ",
"9 09  99r 099t  9  u9  9.....>>.....0 9 9 e 9 ee9  e999 9 0   9 ",
"9  e9 999e 09   9 9099 9 ..........  99 99  9  e99  99 9999  999",
"99 9 9 9t   9  e  tt  09  ........     t0e9999 99 ee9 99  90 t 9",
"0   ee  9  90t  9 e   9e 90......e  99  t90 9 e99ee9te99 9    59",
"999  9      0 q  9t 99990  9....9   9 9  9 99 990e99009 099 9 9 ",
"  99 e 0r 0    0ii t     r       e  9 t9  9 e 99  9 9q9 9 p t9  ",
"   e   99 q 09   00 99   0       0 9  t9 0  90    e 90   e90   9",
" uu 5u9 19ur09uuu9rruu090q0uq0uqu0uu0upuu0u199qu909  0 9 e  9  e",
"0u999 99u9ur0u900uuu90t900u90u000uu0uui1099909ueq0uu990uuu90uu00",
"euu9uu9uu;;u0rruu0u90ur0u0990u0que0000900999ur90qu0uquu0e009u9uu",
" uu9 9u0u99;;r0uu0u9ru0u90qq00q u0uu0uu1rr0u;r0u0i0u000q00900;0u",
"9uu9919uuuu;u#9rr;u9;;;u0009uu0u909900001;0;0r0quuu0uu0uu00uu;t0",
"e9tt499u9iuu;u19ur99uur;;9ru90uu00;9ruuu;;0uuuu0uuu9uu99eu9uu0;0",
"99uuuututuuutu;uututuu9;utuu9t u0tt9trt;rtrtuuutu9u99;u1u;u 94;u",
"9uuuut9rrt99ut000uuuuutuuuui uiti;009;itiirrtt0;9truu1uuu6949r9e",
"#ut9tt#riiri;00000r0uiu000 riu99ti+;;;t;iurrrti0t0u;9ruuut6et9e1",
"#=tt;#r=itt##iq0000qrqq#qqi#trt0i=#++;;i#i##tttttii#ruru60ttrtt4",
"#=i=ti##=iiii=iqq=ii##=qqitttit=ii=tt=t#t==#tti=####t#ri=iitt=it",
"==ii##i#ii#ii=#ti=#ii##i#iiiii=i,ii=t##=#####,=i=t##=i#=##ii#===",
"#+,i+i+#i##+i=##=#++i##+###++iiii+++#ii+##+++O,=++,===#=++###+=#",
"##+++#ii#+++##+,++++ii#++#O++Oi+++=i=i=++##+O+O++O+O+,+,+=+#O+,,",
"##O+,O+#+++++++O+++++##++O+O+OO+++#+ii=+#O+OO+@+,OOO++O#++##O+,#",
"++@OOO+#+,O2,++O@,O++#++OO+OO@+O+@+O+OO++O+OO+2@OO++@OO+O+O+OOO+",
"@2@O+OO+OOO@++O@O2OO+#+OO@O,@*@OO22O+O@OOOO2O@OO@@O+OO@O@@++2OO+",
"@O@OO2@+O2O@OO@*@+@OO+O2@@OOO@*@OO*OOO@O@O@O***O*O*O+OO2@@OOOOO,",
"@O@+O@@@@O**@@@-@O@@O@OO@@*@O*@OO@:@@@@@@@@**@O@*O@*O+@O*O@O@O@O",
"@O@O@@@O@**-***-@O@:@**@**:*@*@@O-<*****@O*@O*@@**@-@O@*@@*O*O@O",
"*@-O@***-*@----:-@-:-@**-:<*@:*@-<3:-:*@@*-*@*@*<--<-@@*--*:*@*@",
"**---*------*::::<<::---:<<:::::<833:3<::-:3*::<<*<<<-----:::***"
};
