/* XPM */
static char *PLAT1[] = {
/* columns rows colors chars-per-pixel */
"128 128 68 1 ",
"  c gray31",
". c #131313",
"X c #777777",
"o c gray39",
"O c gray42",
"+ c #430000",
"@ c #670B0B",
"# c #AF7B1F",
"$ c #732B00",
"% c #070707",
"& c #0B0B0B",
"* c #CB7F4F",
"= c #FFB383",
"- c #DF9363",
"; c #000083",
": c #8B8B8B",
"> c gray50",
", c #838383",
"< c #FFBB93",
"1 c #9F9F9F",
"2 c #000053",
"3 c #875733",
"4 c #731313",
"5 c #0000CB",
"6 c #2F2F2F",
"7 c #373737",
"8 c #272727",
"9 c #4B4B4B",
"0 c gray23",
"q c gray28",
"w c #1F170B",
"e c #434343",
"r c #232323",
"t c #4B371B",
"y c #4F3B23",
"u c gray34",
"i c #3F2F17",
"p c #1B1B1B",
"a c #774F2B",
"s c #5F4323",
"d c #5B5B5B",
"f c #332B13",
"g c #2B230F",
"h c #B37347",
"j c #8F5F37",
"k c #17330F",
"l c #6F6F6F",
"z c #A36B3F",
"x c #675333",
"c c #874307",
"v c #9B633B",
"b c #5B472B",
"n c #533F1F",
"m c #6F5743",
"M c #6B4727",
"N c #670000",
"B c #574333",
"V c #9B0000",
"C c #43331B",
"Z c #775F3F",
"A c #1F4317",
"S c #4F0000",
"D c #7F532F",
"F c #5F4B37",
"G c #67533F",
"H c #13230B",
"J c #27531B",
"K c #9B5B13",
/* pixels */
"9 dudu 99 uudduu  999  uuududu 99 uudduu  999  uuududu 99 uudduu  999  u  999  uuududu 99 uudduu  999  uuududu 9G9  uuuduududu 9",
"860e0e007670qq076688866700e0e0078670qq0766888667000e0e007670qq076688866766888667000e0e007670qq076688866700e0e0076866700e00e0q068",
"67eqeqe0777e99e7766866770eqeqe07867e99e7766866770eeqeqe0777e99e776686677766866770eeqeqe0777e99e7766866770eqeqe07766770eq0eqe9e76",
"87eqeqee070e99e077666770eeqeqee0670e99e077666770eeeqeqee070e99e07766677077666770eeeqeqee070e99e077666770eeqeqee076770eeqeeqe9e78",
"80q9q9qe000q  q007666700eq9q9qe0670q  q007666700eqq9q9qe000q  q00766670007666700eqq9q9qe000q  q007666700eq9q9qe006700eq9eq9q q08",
"80q9q9qqe0eq  qe0776770eqq9q9qqe67eq  qe0776770eqqq9q9qqe0eq  qe0776770e0776770eqqq9q9qqe0eq  qe0776770eqq9q9qqe0770eqq9qq9q q08",
"809 9 9qe0e9uu9e0077700eq9 9 9qe70e9uu9e0077700eq99 9 9qe0e9uu9e0077700e0077700eq99 9 9qe0e9uu9e0077700eq9 9 9qe0700eq9 q9 9u908",
"r8666666888666688rrrrr8866666668rr8666688rrrrr8866666666888666688rrrrr888rrrrr8866666666888666688rrrrr88666666688rr886666666668r",
"r666pwwgfitysMMMMtsytifgwwp666r8r88888r88rr8r8888p668666666666666666666r666666r66666666666r6666r6666pwwgfitysMMMMtsytifgwwp6666r",
"60006wgfiybxaZZZZbaxbyyCgw60ee70700000700770700006e000ee00e0867677eeeee7677eee7eeeee000e0e7eeee7e0006wgfiybxaZZZZbaxbyyCgw60ee06",
"60qq6wfitsajvzhhhDvjasntfw6q997e0eeeee7ee00e0eeee69qeq99qq9q899997999997997999797mmmmmmm797999979qqq6wfitsajvzhhhDvjasntfw6q9906",
"60q96gfinsajvzhhhDvjasntig6q997e0000077ee00e0eeee69qeq99qHHHHHH9979999979979997yFFFFFFFFFy7999979qq96gfinsajvzhhhDvjasntig6q9906",
"60q96gftnsajvzhhhDvjasntig6q997eeeeeee0ee70e0eeee6e070ee0kJJJJk997999997997999797BBBBBBB797999979qq96gftnsajvzhhhDvjasntig6q9906",
"60q96gftnsajvzhhhDasnntiif6q99776666666666666666669qeq99qAAAAAA997999997997999799999qqq9q97999979qq96gftnsajvzhhhDasnntiif6q9906",
"60q96fitnsajvzhhhzvjasntif6q9999V9V9V9V9V0V9V9V9V99qeq99q999799997999997997999797mmmmmmm797999979qq96fitnsajvzhhhzvjasntif6q9906",
"60996fitnsajvzhhhzvjasntif6q9977N7N7N7N7N6N7N7N7N776667777997999979999979979997yFFFFFFFFFy7999979q996fitnsajvzhhhzvjasntif6q9906",
"60997iiiitttttttttttttiiii7q9979S9S9S9S9S0S9S9S9S99qeq99q799799997999997997999797BBBBBBB797999979q997iiiitttttttttttttiiii7q9906",
"609997iiiiiiiiiiiiiiiiiii79q99799999999990990999999qeq99q799799997KKKKKc997999799999qqq9q97999979q9997iiiiiiiiiiiiiiiiiii79q9906",
"6099997iittnsajvjasnttii799q997997779777967707779776e677q799799997cccccc997999797mmmmmmm797999977q99997iittnsajvjasnttii799q9906",
"6099999iitnsajvvnttsntii999q997997l797l796l707l797l6e6l7q7997999979999979979997yFFFFFFFFFy7999979799999iitnsajvvnttsntii999q9906",
"6099999iitnsajvvnjtsntii999q997777d777d776d777d777d666d77799777777999997777999797BBBBBBB797999977799999iitnsajvvnjtsntii999q9906",
"6099999rrpprrrrrrrrrpprr999q999997d797d796d707d797d6e6d79999999999999999999999799999qqq9q97999979999999rrpprrrrrrrrrpprr999q9906",
"86666666rrpprrrrrrrpprr6666666666p6p6p6p6p6p6p6p6p6p6p6p666666666666666666666666666666666666666666666666rrpprrrrrrrpprr666666668",
"rrrrrrrr8rrpprrrrrpprr8rrrrprrrrrprprprprprprprprprprprprrrrrrrrrrrrrrrrrrrrrrrrrrrrrrrrrrrrrrrrrrrrrrrr8rrpprrrrrpprr8rrrrprrrr",
"8C0q7q7e76860edOdqq6867e7q7qqq7q707qqqeeqeqqqeq0e7eqqqqq708e0eqe7qqqeq9q787eeqeqqqqeqe787eeqqq q7qqq7q7e78r60edOdqq6r87e7q7qqqC8",
"8C0q7q7e7687edoXo q0867e7q7qqq7q707qqqeeqeqqqeq0e7eqqqqq706e0eqe7qqqeq9q78eqeqeqqqqeqqe8eqeqqq q7qqq7q7e78r7edoXo q0r87e7q7qqqC8",
"8Ce97q7e7687edOXO q0867e7q7   7 0qq9  qqq9 q q qqeq     eq0qeq q9   q d 00 906q dd q  q0q q   O 7   7q7e78r7edOXO q0r87e7q7   C8",
"8noluq7e7687edlXlu 0867e7q7   e 0qq9  qqq9 q977777767876777877777e777777e0d 066  odeeee8ee7ee l e   7q7e78r7edlXlu 0r87e7q7olun8",
"8ne eq7e7687qdlXlu 0867e7q0   e 0qq9  qqq9 q9e7777767876777877777e77777eq0dd0666 eoeq  0q q e o e   0q7e78r7qdlXlu 0r87e7q0e en8",
"8n060q7e7687qdlXlu 0867e7qe   e eqq9  qqq9 q9e7000767876777877777e77770qq0 906666e q7q 0q q e o e   eq7e76r7qdlXlu 0r67e7qe060n8",
"8ne0eq7e7680qdlXlu 0867e0qe 9ddddddd9 qqq9 q9e70q0767876777877777e777e0qq0qqe06666 qq7q0q q e o e   eq7e76r0qdlXlu 0r67e7qee0en8",
"8nq9eq7e7680qdlXlu e867eeqe q       q qqq9 q9e00q0qee0eq0qe0qqqeq9qqeq0qq009q766666qqe77q q e o e   eq7e76r0qdlXlu er67e7qe   n8",
"8nq9eq7e7680qdlXld e867eeqe q q   q q qqq9 q9e0q q  q9q 9 9oq  9 q 9qqeqq0qqee6666669q 7q eqe d e   eq7e76r0qdlXld e867e7qe   n8",
"8nq9eq7e7680qdlXld e867eeqe q  070  q qqq9 q9e0q q  99q 9 9oq q9 q 9qqeqq0qqeqe666666q 07 eqe d e   eq7e7680qdlXld er67e7qe   n8",
"8noluq7e7680qdlXld e867eeqe eeeeqeeee qqq9 q9e0q q  99q 9 9dq  9 q 9qqeqq0qqeqe066666690q7eqe d e   eq7e7680qdlXld er67e7qeolun8",
"8ne eq7e7680qdlXld e867eeqe 97eq9qe79 qqq9 q9e0q q  99q 9 9dq q9 q 9qqeqq0qqeq9 06666660q 7ee d e   eq7e76r0qdlXld e867e7qee en8",
"8n060q7e7680qdlXld e867eeqe 998q  89  qqq9 q9e0q q    q 9 9dq  9 q 9qqeqq0qqeq9  066666rq  0e d e   eq7e7680qdlXld e867e7qe060n8",
"8ne0eq7e7680qdlXld e867eeqe 9 0q  09  qqq9 q9e0q q  u q 9 9dq q9 q 9qqeqq0qqeq   q06666r6  07 d e   eq7e7680qdlXld e867e7qee0en8",
"8nq eq7e7680qdlXld e867eeqe 9 0q  09  qqq9 q9e0q q  u q 9 9dq  9 q 9qqeqq0qqeq    q0666r68 e  d e   eq7e7680qdlXld e867e7qe   n8",
"8nq eq7e7680qdlXld e867eeqe 9 0q  09  qqq9 q9e0q q  u q 9 9dqqqqqq 9qqeqq0qqeq      066r687e  d e   eq7e7680qdlXld e867e7qe   n8",
"8nq eq7e7680qdlXld e867eeqe 9 0q  09  qqq9 q9e0q q  u q 9  d   9   9qqeqq0qqeq      q06r6867  d e   eq7e7680qdlXld e867e7qe   n8",
"8noluq7e7680qdlXld e867eeqe 99dd dd9  qqq9 q9e0q q  u q 9  d       9qqeqq0qqeq      9q0r6867q d e   eq7e7680qdlXld e867e7qeolun8",
"8ne eq7e7680qdlXld e867eeqe eeeeqeeee qqq9 q9e0q qeqeqeqeqeqeqeqeqeqe0eq 0qqeq      9 qr680qq d e   eq7e7680qdlXld e867e7qee en8",
"8n060q7e7680qdlXld e867eeqe 97eq9qe79 qqq9 q9e0q e7e7e7e7e7e7e7e6767p7eq 0qqeq      9 q666eqq d e   eq7e7680qdlXld e867e7qe060n8",
"8ne0eq7e7680qdlXld e867eeqe 998q  89  qqq9 q9e0q 9qqq6eqeqeqeqeq77e88eeqq0qqe       9 q6e6eqq   e   eq7e7680qdlXld e867e7qee0en8",
"8n9 eq7e7680qdlXld e867eeqe 9 0q  09  qqq9 q9doooouu96eqqqqqqq q77q66eeqq0qqe9      9 q6q6eqq   e   eq7e7680qdlXld e867e7qe   n8",
"8n9 eq7e7680qdlXld e867eeqe 9 0q  09  qqq9 q9 dllld qeq 9     d 07q06eeqq0qqeq         096eqq   e   eq7e7680qdlXld e867e7qe   n8",
"8n9 eq7e7680qdlXld e867eeqe 9 0q  09  qqq9 q qqqqqqqqqqqqqeq 9     q06eeq0qqeq         096eqq   e   eq7e7680qdlXld e867e7qe   n8",
"8noluq7e7680qdlXld e867eeqe 9 0q  09  qqq9 q q     q    qq  d dd   q06eeq0qqeq         e96eqq   e   eq7e7680qdlXld e867e7qeolun8",
"8ee eq7e7680qdlXld e867eeqe 9uOO OOu  qqq9 q q     q    qdOdOdO q  q06eeqeqqeq         e96eqq   e   eq7e7680qdlXld e867e7qee ee8",
"8e060q7e7680qdlXld e867eeqe 9q oOo q  qqq9 q q     q    qO>ddo qq  q06eeqeqqeq         e96eqq   e   eq7e7680qdlXld e867e7qe060e8",
"8ee0eq7e7680qdlXld e867eeqe 9q     q  qqq9 q q e e q    qq0eqeqqq  q06eeqeqqeq         e96eqq   e   eq7e7680qdlXld e867e7qee0ee8",
"8e9 eq7e7680qdlXld e867eeqe 9e0eeqqq 9qqq9 q q     q    qq0eqeqqq  q06eeqeqqeq         q 6eqq   e   eq7e7680qdlXld e867e7qe   e8",
"8e9 eq7e7680qdlXld e867eeqe 99q9q999  qqq9 9 q 4 5 q    qq0eqeqqq  q06eeqeqqeq         q 6eqq   e   eq7e7680qdlXld e867e7qe   e8",
"8e9 eq7e7680qdlXld e867eeqe   e  99   qqq9 9 07@7;70     qee eqqq  q06eeqeqqeq         q 7eqq   e   eq7e7680qdlXld e867e7qe   e8",
"8eoluq7e7680qdlXld e867eeqe   e  9q999qqq9    9@ ;       qeeqeqqq  q06eeqeqqeq         q 7eqq   e   eq7e7680qdlXld e867e7qeolue8",
"8ee eq7e7680qdlXld e867eeqe   e    9qqqqq9    9@ ;       qee eqqq  q06eeqeqqeq         q 7eqq   e   eq7e7680qdlXld e867e7qee ee8",
"8e060q7e7680qdlXld e867eeqe   e    9qqqqq9    9S 2       qee eqqq  q06eeqeqqeq         q 7eqq   e   eq7e7680qdlXld e867e7qe060e8",
"8ee0eq7e7680qdlXld e867eeqe   e    9q7777770777777777777 qee eqqq  q06eeqeqqeq         q 0eqq   e   eq7e7680qdlXld e867e7qee0ee8",
"8e9 eq7e7680qdlXld e867eeqe   e o  9q79 9qqq9q99qeqq9  7  ee eqqq  q06eeqeqqeq         q90eqq   e   eq7e7680qdlXld e867e7qe   e8",
"8eqq77667680qdlXld e8676677qq e q  9q79e7777070777777e 7  eq eqqq  q06eeqeqqqq         qq0eqq   e qq77667680qdlXld e8676677qqqe8",
"8e  eq767680qdlXld e86767qe q e q  9q79q&&&$$$$p&&p$$q 7  eq eqq dddo  eqeqq dduuuuuuuuuu9eeq   e q eq767680qdlXld e86767qe   e8",
"8eolu7667680qdlXld e8676677qq e q  9q79qpp####pppp#K#q 7  eq eq dOOdXod qeq doooooooooooooueq   e qq77667680qdlXld e8676677olue8",
"8ee eq7e7680qdlXld e867e7qe   e q  9q79qpK###ppppK#K#q 7  eq eqdlllo,oodqeqdollllllllllll,ldq   e   eq7e7680qdlXld e867e7qee ee8",
"8e060q7e7680qdlXld e867e7qe   e q  9qd9qcK##ppppKK#Kpq 7  e9 eq  9 q00q qeq 9 q999  9 99 q99q 9 e   eq7e7680qdlXld e867e7qe060e8",
"8ee0eq7e7680qdlXld e867e7qe   e q  9qq9qcK#pppp#KK#ppq 7  e9 eq  9 q00q qeq 9 q99   9 99 q99q 9 e   eq7e7680qdlXld e867e7qee0ee8",
"8e  eq7e7680qdlXld e867e7qe   e 9  9q79d  ddddOd ddddd 7  e9 eq  9 q00q qeq 9 q99   9 99 q99q 9 e   eq7e7680qdlXld e867e7qe   e8",
"8eqq77667680qdlXld e8676677qq e 9  9q799qq99 ud qq9q9  7  e9 eq777776777qeq07777777777777780q 9 e ee77667680qdlXld e8676677qqqe8",
"8e  eq767680qdlXld e86767qe q e 9  9q799qq99  d qq9q9  7  e9 eqe7777677eqeqq0777777777777770q 9 e e eq767680qdlXld e86767qe   e8",
"8eoluq767680qdlXld e86767qe q e 9  9qd99qq99  d qq9q9  7  q9 eqq0666670q9eqqq07777777777787eq q e e eq767680qdlXld e86767qeolue8",
"8ee eq767680qdlXld e86767qe q e 9  9qq99qq99  d qq9qd +SS q9 eqqeqqqeeeq99qqqq666666666687eqq q e e eq767680qdlXld e86767qee ee8",
"8e060q767680qdlXld e86767qe q e 9  9q799qq 9  d qq9q9 +SS q9 eqqddddddqq99qqqqqqqqqqqqqq77qqq9q9e e eq767680qdlXld e86767qe060e8",
"8ee0eq767680qdlXld e86767qe q e 9  9q799qq 9  d qq9qe  7  e9 eq  9 q00q  9qq ddddddddddddd qq99 e e eq767680qdlXld e86767qee0ee8",
"8e  eq767680qdlXld e86767qe q e 9  9q799qq 9  d 9q9q0 +SS e9 eq  9 q00q  9qddoooooooooooooddq99 e e eq767680qdlXld e86767qe   e8",
"8e  eq767680qdlXld e86767qe q e 9  9qd99q9 9  d 9q9q7 +SS e9 eq  9 q00q   dlOOOOOOOOOOOOOOlld99 e e eq767680qdlXld e86767qe   e8",
"8e  eq767680qdlXld e86767qe q e 9  9qq99q9 9  d 9q9qq  7  q9 eq777776777 uOlllllllllllllllllOu9 e e eq767680qdlXld e86767qe   e8",
"8eoluq767680qdlXld e86767qe q e 9  9q799q9 9  u 9q9q9  7  q9 eqe7777677e quuuuuuuuuuuuuuuuuuu99 e e eq767680qdlXld e86767qeolue8",
"8ee eq767680qdlXld e86767qe q e 9  9q799q9 9  u 9q9q9  7  q9 eqq0666670q qolu  olu  olu qolu 9q e e eq767680qdlXld e86767qee ee8",
"8e060q767680qdlXld e86767qe q e 9  9q79 q9 9  u  q9q9  7  q9 eqqq  qeeeq 9060  060  060 q060 9q9e e eq767680qdlXld e86767qe060e8",
"8ee0eq767680qdlXld e86767qe q e 9  9q79 q9 9  u  q9q9  7  q9 eqq  d  eqq 9e0e  e0e  e0e qq0q 9q9e e eq767680qdlXld e86767qee0ee8",
"8e  eq767680qdlXld e86767qe q e 9  9q79 q9 9  u  q9q9  7  99 qq d ddu qq 9 q    q    q   qq  9q9e e eq767680qdlXld e86767qe   e8",
"8eqq77667680qdlXld e8676677qq e q9qe07877788777777777777  99 quOOdOdo  q 9                   9q9e e eq767680qdlXld e86767qe   e8",
"8e  eq7e7680qdlXld e867eeqe 9 e 9   qq9 q   9  9 9 99     99 ulllddXXddl 9                   9q9e e eq767680qdlXld e86767qe   e8",
"8eoluq7e7680qdlXld e867eeqe 9 olu  olu  olu  olu 9 99     99  dd qd9qeq  9     uq  uq  uq     q9e e eq767680qdlXld e86767qeolue8",
"8ee eq7e7680qdlXld e867eeqe 9 e e  e e  e e  e e 9 99     99  dd qd9qeq  9     e7  e7  78    9q9e ee77667680qdlXld e8676677e ee8",
"8e060q7e7680qdlXld e867eeqe 9 060  060  060  060 9 99     99  ud 9d qeq  9     qe   q  e7     q9e   eq7e7680qdlXld e867e7qe060e8",
"8ee0eq7e7680qdlXld e867eeqe 9 e0e  e0e  e0e  q0q 9 99      9  uu 9d qeq  9     qe   q  e7     q9e   eq7e7680qdlXld e867e7qee0ee8",
"8e  eq7e7680qdlXld e867eeqe 9 e   q 0 9e9e e9q 9 e7777e777777770q 9 qq9q 9q 9 qe777777767qqq  99e   eq7e7680qdlXld e867e7qe   e8",
"8e  eq7e7680qdlXld e867eeqe 9 e     e 9e9e e9q 9 qe776077677670qq 9 qq9q 9q 9 qq77777777qqqq  99e   eq7e7680qdlXld e867e7qe   e8",
"8e  eq7e7680qdlXld e867eeqe 9 eeeeeee 9q9q q9q 9 qe06606667760eqq 9 qq9q 9q 9 qqe777770eqq9q  99e   eq7e7680qdlXld e867e7qe   e8",
"8eoluq7e7680qdlXld e867eeqe 9 e  q    9 99 99q e qe0e60666667qeqq0777677777770qqqe7770qeqq9q  99e   eq7e7680qdlXld e867e7qeolue8",
"8ee eq7e7680qdlXld e867eeqe 9 eeqeqqq 9 99 99q 9 qe0qq9qqeqeeqeq777776777e77670qqqeqeqqeqq9q  99e   eq7e7680qdlXld e867e7qee ee8",
"8e060q7e7680qdlXld e867eeqe 9 e     q 9 99 99q 9 qe0q9 99q9eeqe0666666666g766670qqe9e9qeqq9q  99e   eq7e7680qdlXld e867e7qe060e8",
"8ee0eq7e7680qdlXld e867eeqe 9 eeqeqqq 9 99 99q 9 qe0q d9 q qeq06666666666fg666670qe q qeqq9q   9e   eq7e7680qdlXld e867e7qee0ee8",
"8e  eq7e7680qdlXld e867eeqe 9 e  q    9 99 99q e qe0q d9dqd eqqqeqeqeeqee00qeq7qqqq q qqqq9q   9e   eq7e7680qdlXld e867e7qe   e8",
"8e  eq7e7680qdlXld e867eeqe 9 e  q    9 99 99q 9 qe0q d9 q9 qq99q9q9ee9ee90ee97999q 9 qqqq9q   9e   eq7e7680qdlXld e867e7qe   e8",
"8e  dq7e7687eq d qe7867eeqd 9 e  q  eqe qqq99q 9 qe0q dddqqqqq9   q qq9qe  qe9e9  q 9 qqqq9q   9e   dq7e7687eq d qe7867e7qd   e8",
"8e   O7e067eq ddd qe767eeO  9 e  q  e q q q99q 9 qe0q dudq q q9 dd  qq9qe d9q9e9  q 9 qqqq9q   9e    O7e067eq ddd qe767e7O    e8",
"8e99  Oq07inaDjvjsani77eO   9eeeeqqqe qqq qqeq 9 qe0q d9dq 9iu9 isd qq9q  dfq9e9  q 9 qqqq9q  eeee    Oe06inaDjvjsani67eO  999e8",
"8e99   q07inaDjvjsani77e    e   eu  e q q q 9  9 qeeq d9 q 9Middsq9 qq9qeqite9e9  q 9 qqqq9q  e   e    e06inaDjvjsani67e   999e8",
"8e99   @@+inaDjvjsani+@@   e  e+SSS+0eq q q 9  9 qeeq d9 q 9qMueq 9 qq9qeinqq9q9  9    qqq9q  e    e   @@+inaDjvjsani+@@   999e8",
"8eolu  +++itaDjvjsani+++   e  e+SSS+e9  q q 9  e qeeq d9 q 9qu9uq 9 qq9qe  qq9q9  9 ddOd q9q  e    e   +++itaDjvjsani+++   olue8",
"8ee e  qe7inaDjvjsani7eq   ee   e    9  q q 9  9 qeeq d9 9 9qq9 q 9 qq9qe  qq9q9  ddOOOldd9q  e   ee   qe7inaDjvjsani7eq   e ee8",
"8e060  @@+inaDjvjsnti+@@   e  e+SSS+e9  q q 9  9 qeeq d9 9 9qq9dq 9 qq9qq  9q9q9ddOXXllll 9q  e    e   @@+inaDjvjsnti+@@   060e8",
"8ee0e  +++inaDjvjDani+++   e  e+SSS+e9  q q 9  9 qqeq d9 9 9qq9d9 9 qq9qq  9qq9dOOX:Xllddd9q  e    e   +++inaDjvjDani+++   e0ee8",
"8e99   qe7inaDjvjDani7eq    e   e    9  qqe 9  9 qqeq d9 9 9qq9d9 9 qq99q  q9udddX:old  ed9q  e   e    qe7inaDjvjDani7eq   999e8",
"8e99  7qe7inaDjvjDani7eq7    eeee    9    9 9  9 qqeq d9 9 9qq9d9 9 qq99q99udOdOlood d  dd q  eeee    7qe7inaDjvjDani7eq7  999e8",
"8e   77707edaDO>ODade70777   9 qeeq 99  qqq 9  9 qqe dddoddd ddXddddd9dddddddldOld dd9 dqqd9         77707edaDO>ODade70777    e8",
"8e  77itnaDvh-=<=-hvDasti77  9olu  olu  olu  olu qq dOOdOddoudo:OOdod dOOdddolod ddd90 qqqq9        77itnaDvh-=<=-hvDasti77   e8",
"8e  77itnsaDvzh*hzvDasnti77  9e e  e e  e e  e e q Olllolooldoo1OldOoddlOlddod9  d986e 0qq09        77itnsaDvzh*hzvDasnti77   e8",
"8e  77itnsaDvzh*hzvDasnti77  9060  060  060  060  lllllOlOOloOO1llOlodollldd9 9dde7666eq00q9        77itnsaDvzh*hzvDasnti77   e8",
"8e  OOddddOdddddd d dddOdOO  9e0e  e0e  e0e  q0q       9 99 q99O  9 9q9   999 9 d  qe00qqqq9        OdqdddOdddddd d dddOddd   e8",
"8d9      9       9 99 q99u  9 9q0qqqq9   9qqe0 9 9 99      9       9 99    9qqe00eqqqqqqqqq         9e7eqeqqeeqee7e79   999 9 d8",
"0elOu9 ullllu9o9uoeueO9ul9e0eulOoololllOOoolollllOu9 ullllu9o9uoeueh9ul9e0eulueee9e99llllllllOu9 ullllu9o9uoeueO9ul9e0eulllllle0",
"0ed9e099dddd90 00 7 0ue d 070 dd dd ddddd dd dddd9e099dddd90 00 7 0je d 070 d 976eeeedddddddd9e099dddd90 00 7 0ue d 070 dddddde0",
"80eee0eeeeeee0e00e7009ee0e070e0e7eeeeeeee00e0eeeeee0eeeeeee0e00e700aee0e070e0e7eeeeeeeeeeeeeeee0eeeeeee0e00e7009ee0e070e0e7eee08",
"80eee0e7uee7u0e7 e77 9e7ue07 eeeqeeeeeeee00e0eeeeee0e7uee7u0e7 e77 ae7ue07 eeeqeeeeeeeeeeeeeeee0e7uee7u0e7 e77 9e7ue07 eeeqeee08",
"80eee0e6ree6r0e6re76r9e6re06reeeeeeeeeeee00e0eeeeee0e6ree6r0e6re76r9e6re06reeeeeeeeeeeeeeeeeeee0e6ree6r0e6re76r9e6re06reeeeeee08",
"80eee0e77ee760e07e7769e07e070eeeeeeeeeeee00e0eeeeee0e77ee760e07e7769e07e070eeeeeeeeeeeeeeeeeeee0e77ee760e07e7769e07e070eeeeeee08",
"80eee0e77ee760ee7e776qee0e070eeeeeeeeeeee00e0eeeeee0e77ee760ee7e776qee0e070eeeeeeeeeeeeeeeeeeee0e77ee760ee7e776qee0e070eeeeeee08",
"80ee77776777667767676777777677777eeeeolue0 oueeee77776777667767676777777677777eeeeolue0 oueeee77776777667767676777777677777eee08",
"80e76rrrrrrrprrrrrprprrrrrrprrrr67eeee ee0e eeee76rrrrrrrprrrrrprprrrrrrprrrr67eeee ee0e eeee76rrrrrrrprrrrrprprrrrrrprrrr67ee08",
"8076rpppppppppppppppppppppppppppr67ee0r0e00r0ee76rpppppppppppppppppppppppppppr67ee0r0e00r0ee76rpppppppppppppppppppppppppppr67e08",
"876rppp7uee7u0e7 e77 9e7ue07 6pppr67e070e0700e76rppp7uee7u0e7 e77 3e7ue07 6pppr670070e0700e76rppp7uee7u0e7 e77 9e7ue07 6pppr6778",
"86rpp866ree6r0e6re76r9e6re06r668prr67eeee070e76rpp866ree6r0e6re76r9e6re06r668prr6eeeee070e76rpp866ree6r0e6re76r9e6re06r668prr668",
"8rrp.ppppppppppppppppppppppppppp.prrrrrrrrrrrrrrp.ppppppppppppppppppppppppppp.prrrrrrrrrrrrrrp.ppppppppppppppppppppppppppp.prrr8",
"8...%...........................%................%...........................%................%...........................%....8",
"................................................................................................................................"
};
