/* XPM */
static char *REDWALL1[] = {
/* columns rows colors chars-per-pixel */
"128 128 14 1 ",
"  c #D70000",
". c #EF0000",
"X c #BF0000",
"o c #CB0000",
"O c #E30000",
"+ c #9B0000",
"@ c #B30000",
"# c #A70000",
"$ c #8B0000",
"% c red",
"& c #FF1F1F",
"* c #7F0000",
"= c #730000",
"- c #670000",
/* pixels */
"$$$$********====-====********$$$$$$$*********$$$$$$$*********$$$$$****==-==****$$$*****$$$****==-==****$$$*****$$$*****$$$*****$",
"$$$*$*$****=*=*=*=*=*=****$*$*$$$$$*$*$***$*$*$$$$$*$*$***$*$*$$$$$$*********$$$$$$$*$$$$$$$*********$$$$$$$*$$$$$$$*$$$$$$$*$$$",
"$$$$$$*$*****************$*$$$$$$$$$$$*$*$*$$$$$$$$$$$*$*$*$$$$$$$$***********$$$$$***$$$$$***********$$$$$***$$$$$***$$$$$***$$",
"+$+$+$$*$*$***********$*$*$$+$+$+$+$+$$*$*$$+$+$+$+$+$$*$*$$+$+$+++$$$*****$$$+++++$$$+++++$$$*****$$$+++++$$$+++++$$$+++++$$$++",
"$+++$$$$*$$$****=****$$$*$$$$+++$+++$$$$*$$$$+++$+++$$$$*$$$$+++$+$$*$**=**$*$$+$+$$*$$+$+$$*$**=**$*$$+$+$$*$$+$+$$*$$+$+$$*$$+",
"+++$$$$$$$$***********$$$$$$$$+++++$$$$$$$$$$$+++++$$$$$$$$$$$++++$$$$*****$$$$+++$$$$$+++$$$$*****$$$$+++$$$$$+++$$$$$+++$$$$$+",
"++++$+$$$$$$*$***$*$*$$$$+$+$+++++++$+$$$+$+$+++++++$+$$$+$+$+++++$$$$*****$$$$+++$$$$$+++$$$$*****$$$$+++$$$$$+++$$$$$+++$$$$$+",
"+++++$+$$$$*$*$*$*$*$*$$$$+$+++++++++$+$$$+$+++++++++$+$$$+$++++++++$$$$$$$$$+++++++$+++++++$$$$$$$$$+++++++$+++++++$+++++++$+++",
"++++++$$$$$$$$$$*$$$$$$$$$$+++++++++++$$$$$+++++++++++$$$$$++++++++$$$$$*$$$$$+++++$$$+++++$$$$$*$$$$$+++++$$$+++++$$$+++++$$$++",
"+++++++$+$+$$$$$$$$$$$+$+$+++++++++++++$+$+++++++++++++$+$++++++++++++$$$$$+++++++++++++++++++$$$$$+++++++++++++++++++++++++++++",
"++++++++++++$$$$$$$$$+++++++++++++++++++++++++++++++++++++++++++++++++$$$$$+++++++++++++++++++$$$$$+++++++++++++++++++++++++++++",
"@+#+#+#++++$+$$$$$$$+$++++#+#+#+@+#+#+#+++#+#+#+@+#+#+#+++#+#+#+@###+++$$$+++###@###+###@###+++$$$+++###@###+###@###+###@###+###",
"@@######++++++$$$$$++++++######@@@######+######@@@######+######@@###+++$$$+++###@###+###@###+++$$$+++###@###+###@###+###@###+###",
"@#@###@++++++$+$$$+$++++++@###@#@#@###@+++@###@#@#@###@+++@###@#@@#@++++$++++@#@@@#@+@#@@@#@++++$++++@#@@@#@+@#@@@#@+@#@@@#@+@#@",
"@@#@@@+@##++++$+++$++++##@+@@@#@@@#@@@+@#@+@@@#@@@#@@@+@#@+@@@#@@#@+#++$+$++#+@#@#@+#+@#@#@+#++$+$++#+@#@#@+#+@#@#@+#+@#@#@+#+@#",
"@@@@@@@##+++++++++++++++##@@@@@@@@@@@@@###@@@@@@@@@@@@@###@@@@@@@@@@#+++++++#@@@@@@@#@@@@@@@#+++++++#@@@@@@@#@@@@@@@#@@@@@@@#@@@",
"@@@X@@#@##+@+++#+++#+++@###X@@@X@@@X@@#@###X@@@X@@@X@@#@###X@@@X@@@##+++++++##@@@@@###@@@@@##+++++++##@@@@@###@@@@@###@@@@@###@@",
"X@XXX@X@@+@##+###+###+@@@#XXX@XXX@XXX@X@@#XXX@XXX@XXX@X@@#XXX@XXXXXX@@#####@@XXXXXXX@XXXXXXX@@#####@@XXXXXXX@XXXXXXX@XXXXXXX@XXX",
"XXXXXX@X@@@@#########@@@@X@XXXXXXXXXXX@X@X@XXXXXXXXXXX@X@X@XXXXXXXX@@@#####@@@XXXXX@@@XXXXX@@@#####@@@XXXXX@@@XXXXX@@@XXXXX@@@XX",
"oXoXoXX@X@X#@#@#@#@#@#X@X@XXoXoXoXoXoXX@X@XXoXoXoXoXoXX@X@XXoXoXoooXXX@@@@@XXXoooooXXXoooooXXX@@@@@XXXoooooXXXoooooXXXoooooXXXoo",
"ooooXXXXXXXX@@@@#@@@@XXXXXXXXoooooooXXXXXXXXXoooooooXXXXXXXXXoooooXXXX@@#@@XXXXoooXXXXXoooXXXX@@#@@XXXXoooXXXXXoooXXXXXoooXXXXXo",
"oooXoXoXXXX@X@X@@@X@X@XXXXoXoXoooooXoXoXXXoXoXoooooXoXoXXXoXoXooooooXXXX@XXXXoooooooXoooooooXXXX@XXXXoooooooXoooooooXoooooooXooo",
"ooooooXoXXXXXX@@@@@XXXXXXoXoooooooooooXoXoXoooooooooooXoXoXooooooooXXXX@@@XXXXoooooXXXoooooXXXX@@@XXXXoooooXXXoooooXXXoooooXXXoo",
" o o o XoXoXX@X@X@X@XXoXoX o o o o o o XoX o o o o o o XoX o o o    ooXXXXXoo       o       ooXXXXXoo       o       o       o   ",
"o   o ooXoooXXXX@XXXXoooXoo o   o   o ooXoo o   o   o ooXoo o   o ooXoXX@XXoXoo o ooXoo o ooXoXX@XXoXoo o ooXoo o ooXoo o ooXoo ",
"       ooooXXXXXXXXXXXoooo             ooo             ooo          ooXXXXXoo       o       ooXXXXXoo       o       o       o   ",
" O    o o ooXoXXXXXXXoo o o    O O    o o o    O O    o o o    O   oooXXXXXooo     ooo     oooXXXXXooo     ooo     ooo     ooo  ",
"O      o ooXoXXXXXXXoXoo o      O      o o      O      o o      O    ooXXXoo    O       O    ooXXXoo    O       O       O       ",
"OO        ooooXXXXXoooo        OOO             OOO             OO    ooXXXoo    O       O    ooXXXoo    O       O       O       ",
"O O O O  o o X XoX X o o  O O O O O O O   O O O O O O O   O O O OOOO    o    OOOOOOO OOOOOOO    o    OOOOOOO OOOOOOO OOOOOOO OOO",
"OOOOOO O      ooooo      O OOOOOOOOOOO O O OOOOOOOOOOO O O OOOOOOOO    ooo    OOOOO   OOOOO    ooo    OOOOO   OOOOO   OOOOO   OO",
".O.O.OO O    o o o o    O OO.O.O.O.O.OO O OO.O.O.O.O.OO O OO.O.O...OO       OO.....OOO.....OO       OO.....OOO.....OOO.....OOO..",
"....OOOOOO             OOOOOO.......OOOOOOOOO.......OOOOOOOOO.....OOO       OOO...OOOOO...OOO       OOO...OOOOO...OOOOO...OOOOO.",
"...O.O.OO O O O   O O O OO.O.O.....O.O.OOO.O.O.....O.O.OOO.O.O......OOOO OOOO.......O.......OOOO OOOO.......O.......O.......O...",
"......O.O. OOO     OOO .O.O...........O.O.O...........O.O.O........OO O   O OO.....OOO.....OO O   O OO.....OOO.....OOO.....OOO..",
".........OOOO       OOOO.............................................OO   OO.................OO   OO............................",
"...%...%..O.OO O   .OOO....%...%...%...%...%...%...%...%...%...%.....OO   OO.................OO   OO............................",
"%.%%%.%..O... .OO .O.O....%%%.%%%.%%%.%...%%%.%%%.%%%.%...%%%.%%%%%%....O....%%%%%%%.%%%%%%%....O....%%%%%%%.%%%%%%%.%%%%%%%.%%%",
"%%%%%%.%......OOOOO......%.%%%%%%%%%%%.%.%.%%%%%%%%%%%.%.%.%%%%%%%%....OOO....%%%%%...%%%%%....OOO....%%%%%...%%%%%...%%%%%...%%",
"&%&%&%&.&.&..O.OOO.O..&.&.&%&%&%&%&%&%&.&.&%&%&%&%&%&%&.&.&%&%&%&&&&&&..O..&&&&&&&&&&&&&&&&&&&..O..&&&&&&&&&&&&&&&&&&&&&&&&&&&&&",
"&&&&&&&&&&&&..OOOOO..&&&&&&&&&&&&&&&&&&&&&&&&&&&&&&&&&&&&&&&&&&&&&&&&&.OOO.&&&&&&&&&&&&&&&&&&&.OOO.&&&&&&&&&&&&&&&&&&&&&&&&&&&&&",
"&%&%&%&.&.&..O.OOO.O..&.&.&%&%&%&%&%&%&.&.&%&%&%&%&%&%&.&.&%&%&%&&&&&&..O..&&&&&&&&&&&&&&&&&&&..O..&&&&&&&&&&&&&&&&&&&&&&&&&&&&&",
"%%%%%%.%......OOOOO......%.%%%%%%%%%%%.%.%.%%%%%%%%%%%.%.%.%%%%%%%%....OOO....%%%%%...%%%%%....OOO....%%%%%...%%%%%...%%%%%...%%",
"%.%%%.%..O... OOO OO.O....%%%.%%%.%%%.%...%%%.%%%.%%%.%...%%%.%%%%%%...OOO...%%%%%%%.%%%%%%%...OOO...%%%%%%%.%%%%%%%.%%%%%%%.%%%",
"...%...%..O.OO O   .OOO....%...%...%...%...%...%...%...%...%...%.....OO   OO.................OO   OO............................",
".........OOOO O   O OOOO.............................................OOO OOO.................OOO OOO............................",
"......O.O. OOO     OOO .O.O...........O.O.O...........O.O.O........OO O   O OO.....OOO.....OO O   O OO.....OOO.....OOO.....OOO..",
".....O.OO O O O   O O O OO.O.........O.OOO.O.........O.OOO.O........OOOO OOOO.......O.......OOOO OOOO.......O.......O.......O...",
"....OOOOOO             OOOOOO.......OOOOOOOOO.......OOOOOOOOO.....OOO       OOO...OOOOO...OOO       OOO...OOOOO...OOOOO...OOOOO.",
".O.OOOO O    o o o o    O OOOO.O.O.OOOO O OOOO.O.O.OOOO O OOOO.O..OOO       OOO...OOOOO...OOO       OOO...OOOOO...OOOOO...OOOOO.",
"OOOOOO O      ooooo      O OOOOOOOOOOO O O OOOOOOOOOOO O O OOOOOOOO    ooo    OOOOO   OOOOO    ooo    OOOOO   OOOOO   OOOOO   OO",
"O O O O  o o XoXoXoX o o  O O O O O O O   O O O O O O O   O O O OOOO   ooo   OOOOOOO OOOOOOO   ooo   OOOOOOO OOOOOOO OOOOOOO OOO",
"OO        ooooXXXXXoooo        OOO             OOO             OO    ooXXXoo    O       O    ooXXXoo    O       O       O       ",
"O      o ooXoXoXXXoXoXoo o      O      o o      O      o o      O    oooXooo    O       O    oooXooo    O       O       O       ",
" O    o o ooXoXXXXXXXoo o o    O O    o o o    O O    o o o    O   oooXXXXXooo     ooo     oooXXXXXooo     ooo     ooo     ooo  ",
"       ooooXXXXXXXXXXXoooo             ooo             ooo          ooXXXXXoo       o       ooXXXXXoo       o       o       o   ",
"o   o ooXoooXXXX@XXXXoooXoo o   o   o ooXoo o   o   o ooXoo o   o ooXoXX@XXoXoo o ooXoo o ooXoXX@XXoXoo o ooXoo o ooXoo o ooXoo ",
" o o o XoXoXX@X@X@X@XXoXoX o o o o o o XoX o o o o o o XoX o o o    ooXXXXXoo       o       ooXXXXXoo       o       o       o   ",
"ooooooXoXXXXXX@@@@@XXXXXXoXoooooooooooXoXoXoooooooooooXoXoXooooooooXXXX@@@XXXXoooooXXXoooooXXXX@@@XXXXoooooXXXoooooXXXoooooXXXoo",
"oooooXoXXXX@X@@@@@@@X@XXXXoXoooooooooXoXXXoXoooooooooXoXXXoXooooooooXXX@@@XXXoooooooXoooooooXXX@@@XXXoooooooXoooooooXoooooooXooo",
"ooooXXXXXXXX@@@@#@@@@XXXXXXXXoooooooXXXXXXXXXoooooooXXXXXXXXXoooooXXXX@@#@@XXXXoooXXXXXoooXXXX@@#@@XXXXoooXXXXXoooXXXXXoooXXXXXo",
"oXoXXXX@X@X#@#@#@#@#@#X@X@XXXXoXoXoXXXX@X@XXXXoXoXoXXXX@X@XXXXoXooXXXX@@@@@XXXXoooXXXXXoooXXXX@@@@@XXXXoooXXXXXoooXXXXXoooXXXXXo",
"XXXXXX@X@@@@#########@@@@X@XXXXXXXXXXX@X@X@XXXXXXXXXXX@X@X@XXXXXXXX@@@#####@@@XXXXX@@@XXXXX@@@#####@@@XXXXX@@@XXXXX@@@XXXXX@@@XX",
"X@XXX@X@@+@##+###+###+@@@#XXX@XXX@XXX@X@@#XXX@XXX@XXX@X@@#XXX@XXXXXX@@#####@@XXXXXXX@XXXXXXX@@#####@@XXXXXXX@XXXXXXX@XXXXXXX@XXX",
"@@@X@@#@##+@+++#+++#+++@###X@@@X@@@X@@#@###X@@@X@@@X@@#@###X@@@X@@@##+++++++##@@@@@###@@@@@##+++++++##@@@@@###@@@@@###@@@@@###@@",
"@@@@@@@##+++++++++++++++##@@@@@@@@@@@@@###@@@@@@@@@@@@@###@@@@@@@@@@#+++++++#@@@@@@@#@@@@@@@#+++++++#@@@@@@@#@@@@@@@#@@@@@@@#@@@",
"@@#@@@+@##++++$+++$++++##@+@@@#@@@#@@@+@#@+@@@#@@@#@@@+@#@+@@@#@@#@+#++$+$++#+@#@#@+#+@#@#@+#++$+$++#+@#@#@+#+@#@#@+#+@#@#@+#+@#",
"@#@###@++++++$+$$$+$++++++@###@#@#@###@+++@###@#@#@###@+++@###@#@@#@++++$++++@#@@@#@+@#@@@#@++++$++++@#@@@#@+@#@@@#@+@#@@@#@+@#@",
"@@######++++++$$$$$++++++######@@@######+######@@@######+######@@###+++$$$+++###@###+###@###+++$$$+++###@###+###@###+###@###+###",
"@+#+#+#++++$+$+$$$+$+$++++#+#+#+@+#+#+#+++#+#+#+@+#+#+#+++#+#+#+@###++++$++++###@###+###@###++++$++++###@###+###@###+###@###+###",
"++++++++++++$$$$$$$$$+++++++++++++++++++++++++++++++++++++++++++++++++$$$$$+++++++++++++++++++$$$$$+++++++++++++++++++++++++++++",
"+++++++$+$+$$$$$$$$$$$+$+$+++++++++++++$+$+++++++++++++$+$++++++++++++$$$$$+++++++++++++++++++$$$$$+++++++++++++++++++++++++++++",
"@@@X@@#@##+@+++#+++#+++@###X@@@X@@@X@@#@###X@@@X@@@X@@#@###X@@@X@@@##+++++++##@@@@@###@@@@@##+++++++##@@@@@###@@@@@###@@@@@###@@",
"X@XXX@X@@+@##+###+###+@@@#XXX@XXX@XXX@X@@#XXX@XXX@XXX@X@@#XXX@XXXXXX@@#####@@XXXXXXX@XXXXXXX@@#####@@XXXXXXX@XXXXXXX@XXXXXXX@XXX",
"XXXXXX@X@@@@#########@@@@X@XXXXXXXXXXX@X@X@XXXXXXXXXXX@X@X@XXXXXXXX@@@#####@@@XXXXX@@@XXXXX@@@#####@@@XXXXX@@@XXXXX@@@XXXXX@@@XX",
"oXoXoXX@X@X#@#@#@#@#@#X@X@XXoXoXoXoXoXX@X@XXoXoXoXoXoXX@X@XXoXoXoooXXX@@@@@XXXoooooXXXoooooXXX@@@@@XXXoooooXXXoooooXXXoooooXXXoo",
"ooooXXXXXXXX@@@@#@@@@XXXXXXXXoooooooXXXXXXXXXoooooooXXXXXXXXXoooooXXXX@@#@@XXXXoooXXXXXoooXXXX@@#@@XXXXoooXXXXXoooXXXXXoooXXXXXo",
"oooXoXoXXXX@X@X@@@X@X@XXXXoXoXoooooXoXoXXXoXoXoooooXoXoXXXoXoXooooooXXXX@XXXXoooooooXoooooooXXXX@XXXXoooooooXoooooooXoooooooXooo",
"ooooooXoXXXXXX@@@@@XXXXXXoXoooooooooooXoXoXoooooooooooXoXoXooooooooXXXX@@@XXXXoooooXXXoooooXXXX@@@XXXXoooooXXXoooooXXXoooooXXXoo",
" o o o XoXoXX@X@X@X@XXoXoX o o o o o o XoX o o o o o o XoX o o o    ooXXXXXoo       o       ooXXXXXoo       o       o       o   ",
"o   o ooXoooXXXX@XXXXoooXoo o   o   o ooXoo o   o   o ooXoo o   o ooXoXX@XXoXoo o ooXoo o ooXoXX@XXoXoo o ooXoo o ooXoo o ooXoo ",
"       ooooXXXXXXXXXXXoooo             ooo             ooo          ooXXXXXoo       o       ooXXXXXoo       o       o       o   ",
" O    o o ooXoXXXXXXXoo o o    O O    o o o    O O    o o o    O   oooXXXXXooo     ooo     oooXXXXXooo     ooo     ooo     ooo  ",
"O      o ooXoXXXXXXXoXoo o      O      o o      O      o o      O    ooXXXoo    O       O    ooXXXoo    O       O       O       ",
"OO        ooooXXXXXoooo        OOO             OOO             OO    ooXXXoo    O       O    ooXXXoo    O       O       O       ",
"O O O O  o o X XoX X o o  O O O O O O O   O O O O O O O   O O O OOOO    o    OOOOOOO OOOOOOO    o    OOOOOOO OOOOOOO OOOOOOO OOO",
"OOOOOO O      ooooo      O OOOOOOOOOOO O O OOOOOOOOOOO O O OOOOOOOO    ooo    OOOOO   OOOOO    ooo    OOOOO   OOOOO   OOOOO   OO",
".O.O.OO O    o o o o    O OO.O.O.O.O.OO O OO.O.O.O.O.OO O OO.O.O...OO       OO.....OOO.....OO       OO.....OOO.....OOO.....OOO..",
"....OOOOOO             OOOOOO.......OOOOOOOOO.......OOOOOOOOO.....OOO       OOO...OOOOO...OOO       OOO...OOOOO...OOOOO...OOOOO.",
"...O.O.OO O O O   O O O OO.O.O.....O.O.OOO.O.O.....O.O.OOO.O.O......OOOO OOOO.......O.......OOOO OOOO.......O.......O.......O...",
"......O.O. OOO     OOO .O.O...........O.O.O...........O.O.O........OO O   O OO.....OOO.....OO O   O OO.....OOO.....OOO.....OOO..",
".........OOOO       OOOO.............................................OO   OO.................OO   OO............................",
"...%...%..O.OO O   .OOO....%...%...%...%...%...%...%...%...%...%.....OO   OO.................OO   OO............................",
"%.%%%.%..O... .OO .O.O....%%%.%%%.%%%.%...%%%.%%%.%%%.%...%%%.%%%%%%....O....%%%%%%%.%%%%%%%....O....%%%%%%%.%%%%%%%.%%%%%%%.%%%",
"%%%%%%.%......OOOOO......%.%%%%%%%%%%%.%.%.%%%%%%%%%%%.%.%.%%%%%%%%....OOO....%%%%%...%%%%%....OOO....%%%%%...%%%%%...%%%%%...%%",
"&%&%&%&.&.&..O.OOO.O..&.&.&%&%&%&%&%&%&.&.&%&%&%&%&%&%&.&.&%&%&%&&&&&&..O..&&&&&&&&&&&&&&&&&&&..O..&&&&&&&&&&&&&&&&&&&&&&&&&&&&&",
"&&&&&&&&&&&&..OOOOO..&&&&&&&&&&&&&&&&&&&&&&&&&&&&&&&&&&&&&&&&&&&&&&&&&.OOO.&&&&&&&&&&&&&&&&&&&.OOO.&&&&&&&&&&&&&&&&&&&&&&&&&&&&&",
"&%&%&%&.&.&..O.OOO.O..&.&.&%&%&%&%&%&%&.&.&%&%&%&%&%&%&.&.&%&%&%&&&&&&..O..&&&&&&&&&&&&&&&&&&&..O..&&&&&&&&&&&&&&&&&&&&&&&&&&&&&",
"%%%%%%.%......OOOOO......%.%%%%%%%%%%%.%.%.%%%%%%%%%%%.%.%.%%%%%%%%....OOO....%%%%%...%%%%%....OOO....%%%%%...%%%%%...%%%%%...%%",
"%.%%%.%..O... OOO OO.O....%%%.%%%.%%%.%...%%%.%%%.%%%.%...%%%.%%%%%%...OOO...%%%%%%%.%%%%%%%...OOO...%%%%%%%.%%%%%%%.%%%%%%%.%%%",
"...%...%..O.OO O   .OOO....%...%...%...%...%...%...%...%...%...%.....OO   OO.................OO   OO............................",
".........OOOO O   O OOOO.............................................OOO OOO.................OOO OOO............................",
"......O.O. OOO     OOO .O.O...........O.O.O...........O.O.O........OO O   O OO.....OOO.....OO O   O OO.....OOO.....OOO.....OOO..",
".....O.OO O O O   O O O OO.O.........O.OOO.O.........O.OOO.O........OOOO OOOO.......O.......OOOO OOOO.......O.......O.......O...",
"....OOOOOO             OOOOOO.......OOOOOOOOO.......OOOOOOOOO.....OOO       OOO...OOOOO...OOO       OOO...OOOOO...OOOOO...OOOOO.",
".O.OOOO O    o o o o    O OOOO.O.O.OOOO O OOOO.O.O.OOOO O OOOO.O..OOO       OOO...OOOOO...OOO       OOO...OOOOO...OOOOO...OOOOO.",
"OOOOOO O      ooooo      O OOOOOOOOOOO O O OOOOOOOOOOO O O OOOOOOOO    ooo    OOOOO   OOOOO    ooo    OOOOO   OOOOO   OOOOO   OO",
"O O O O  o o XoXoXoX o o  O O O O O O O   O O O O O O O   O O O OOOO   ooo   OOOOOOO OOOOOOO   ooo   OOOOOOO OOOOOOO OOOOOOO OOO",
"OO        ooooXXXXXoooo        OOO             OOO             OO    ooXXXoo    O       O    ooXXXoo    O       O       O       ",
"O      o ooXoXoXXXoXoXoo o      O      o o      O      o o      O    oooXooo    O       O    oooXooo    O       O       O       ",
" O    o o ooXoXXXXXXXoo o o    O O    o o o    O O    o o o    O   oooXXXXXooo     ooo     oooXXXXXooo     ooo     ooo     ooo  ",
"       ooooXXXXXXXXXXXoooo             ooo             ooo          ooXXXXXoo       o       ooXXXXXoo       o       o       o   ",
"o   o ooXoooXXXX@XXXXoooXoo o   o   o ooXoo o   o   o ooXoo o   o ooXoXX@XXoXoo o ooXoo o ooXoXX@XXoXoo o ooXoo o ooXoo o ooXoo ",
" o o o XoXoXX@X@X@X@XXoXoX o o o o o o XoX o o o o o o XoX o o o    ooXXXXXoo       o       ooXXXXXoo       o       o       o   ",
"ooooooXoXXXXXX@@@@@XXXXXXoXoooooooooooXoXoXoooooooooooXoXoXooooooooXXXX@@@XXXXoooooXXXoooooXXXX@@@XXXXoooooXXXoooooXXXoooooXXXoo",
"oooooXoXXXX@X@@@@@@@X@XXXXoXoooooooooXoXXXoXoooooooooXoXXXoXooooooooXXX@@@XXXoooooooXoooooooXXX@@@XXXoooooooXoooooooXoooooooXooo",
"ooooXXXXXXXX@@@@#@@@@XXXXXXXXoooooooXXXXXXXXXoooooooXXXXXXXXXoooooXXXX@@#@@XXXXoooXXXXXoooXXXX@@#@@XXXXoooXXXXXoooXXXXXoooXXXXXo",
"oXoXXXX@X@X#@#@#@#@#@#X@X@XXXXoXoXoXXXX@X@XXXXoXoXoXXXX@X@XXXXoXooXXXX@@@@@XXXXoooXXXXXoooXXXX@@@@@XXXXoooXXXXXoooXXXXXoooXXXXXo",
"XXXXXX@X@@@@#########@@@@X@XXXXXXXXXXX@X@X@XXXXXXXXXXX@X@X@XXXXXXXX@@@#####@@@XXXXX@@@XXXXX@@@#####@@@XXXXX@@@XXXXX@@@XXXXX@@@XX",
"X@XXX@X@@+@##+###+###+@@@#XXX@XXX@XXX@X@@#XXX@XXX@XXX@X@@#XXX@XXXXXX@@#####@@XXXXXXX@XXXXXXX@@#####@@XXXXXXX@XXXXXXX@XXXXXXX@XXX",
"@@@X@@#@##+@+++#+++#+++@###X@@@X@@@X@@#@###X@@@X@@@X@@#@###X@@@X@@@##+++++++##@@@@@###@@@@@##+++++++##@@@@@###@@@@@###@@@@@###@@",
"@@@@@@@##+++++++++++++++##@@@@@@@@@@@@@###@@@@@@@@@@@@@###@@@@@@@@@@#+++++++#@@@@@@@#@@@@@@@#+++++++#@@@@@@@#@@@@@@@#@@@@@@@#@@@",
"@@#@@@+@##++++$+++$++++##@+@@@#@@@#@@@+@#@+@@@#@@@#@@@+@#@+@@@#@@#@+#++$+$++#+@#@#@+#+@#@#@+#++$+$++#+@#@#@+#+@#@#@+#+@#@#@+#+@#",
"@#@###@++++++$+$$$+$++++++@###@#@#@###@+++@###@#@#@###@+++@###@#@@#@++++$++++@#@@@#@+@#@@@#@++++$++++@#@@@#@+@#@@@#@+@#@@@#@+@#@",
"@@######++++++$$$$$++++++######@@@######+######@@@######+######@@###+++$$$+++###@###+###@###+++$$$+++###@###+###@###+###@###+###",
"@+#+#+#++++$+$+$$$+$+$++++#+#+#+@+#+#+#+++#+#+#+@+#+#+#+++#+#+#+@###++++$++++###@###+###@###++++$++++###@###+###@###+###@###+###",
"++++++++++++$$$$$$$$$+++++++++++++++++++++++++++++++++++++++++++++++++$$$$$+++++++++++++++++++$$$$$+++++++++++++++++++++++++++++",
"+++++++$+$+$$$$$$$$$$$+$+$+++++++++++++$+$+++++++++++++$+$++++++++++++$$$$$+++++++++++++++++++$$$$$+++++++++++++++++++++++++++++"
};
