/* XPM */
static char *ROCKRED1[] = {
/* columns rows colors chars-per-pixel */
"128 128 18 1 ",
"  c #170F07",
". c #7F0000",
"X c #670000",
"o c #430000",
"O c #9B0000",
"+ c #730000",
"@ c #530707",
"# c #A70000",
"$ c black",
"% c #B30000",
"& c #5B0707",
"* c #BF0000",
"= c #8B0000",
"- c #CB0000",
"; c #D70000",
": c red",
"> c #E30000",
", c #EF0000",
/* pixels */
"XX&Xoo%*$  ooo@XX@XX=.=.  o.&.OXOO. oX+O#*::@     ooO-O=.O%%.+X+..=O#@+o# o #+X.&.XX.o=XO#.+.+X=+XXXXo+.                 o  &@X@",
"X+@o  %%& oooXo@XX&+.=#&$  @XXX@o    o..O%*:@     oX&&....%%OO....==#XX@X .@#.X&.&..XXXX&..@+++X+.&.X&Oo  o             $ &.@o@ ",
"Xo oo ;**$ ooo oXX.X=+%      $     o o&XOO*:@     .@&XX#&.**..#OO.==%XX..$ O%OO@#.O#=OXX+..@.X@+oXXoXoo&$ oo             O+@o o ",
"ooo@X+;%:o oooo++&..OOO$        oo ooo=o.=%:@    .@&@XXXO##%*#*.O.OX.+o=%$$X#O.&.O@OOOO#X++X.+X+oOXooo&o  o.X          $o.Xoo & ",
"ooX##O-*:# oo& o+XX..%           ooOX+.O&o+O@  @ .#...oXO*%.%-%++*& O  #%$  %OO+XOX.O=.O.#OX+.@@Xooo.oo@  ++X+         $X&Xo    ",
"X.##==:**:  XoXXX+..%X$        ooooXX+.;* @.@$o;+ .#.XOX#O*+%*%%+.o o  #.  $;=OX.=X+O=X=.OOO%ooX@oo@Oo o  .X+.O         Xoo     ",
"O%%*o.:%*:#$@@@O.+.=%       ooo oo+X=.@##*  ooX+.@ o &X=.%%%.*--*-;##&o X   %O++OOO.#.OO#O=OO  oo X O o   .+.XXo        ooo    X",
"%%*#$ :*%*:o   $o@X+        @@Xo +.X.XX@@. o= & .o+ $+=.O*#*+.#**%**;->-%.@ *.OX=+*@=.=##O=%Oo @oo@o.o@   X+.X+=o       @     X*",
"#%:& $#;**:#$     $       oo++#@ooXoo@oo oo& @& XoooXOOO*#***&.***%***--*>;;%=OXO=OXOO.=.%+## oooooo.@o   X++XX.=$           X*%",
"**O  $.-**:*$             @o@==X$$ && @ oo Xo XX+%%.-O+#**:-:-&.*##*******%;%=..#....OOOXO+#; @ o&o&@@ o  &.XX..=$o         X***",
"**o o& %-::O$              oo+&# $ >. ooXo&OoXOO*@%X:O+#%-%*:;*&-#*****#***-*+O##++..+OOOO+O-ooo @ooo @X  @XX..=.$         XOOOO",
"*X ooo$o;*:X               oo@O;o$$-.XX#=X%O###*+oO@:%=***:*--:o.-***#O#**%;#.O.X&=OO+..O..#% oo o@o@ o&  oXXXX.=$         X==O=",
"= @o    %*:o .               $#,o$$*XX-*-.OO.%X+  @+-#%**%:**-:*o.%*OO.#%%*;%..=.+XOO.OX%..O-oo&o@@oo  @   ooXo.Oo         X=O==",
"++.Xo o@;*: o%&    oo       $$.:X$o.++#O*O.=.#.##$ **##*%*:***%:X&*-%*XO%***-.O.=.+..=O+O.#O%  oooXoo     oX..+ .@$        XXXXX",
"#*.XooX##-%$.;O    oo       $ OO.@++=#@*#O.%.O.O%@X;*%#%-%**--*%;o.*-%&&****;+.=.O=.X*....O#-o o o. OX.O+=%=O*#$@o$             ",
"%#X&o.O#.**&O#%o    o       $ -*=%O*-- +OO.%=OX-+O%*%*%--*:-;;*%-%o-**XX*;*%:XX#@O%+XO.+o.+O-@   &&+%X.O#O##O#X$o               ",
"*.+& *O+#..#.*-+o   @       $$%O=O#OO;O .#O-#OO>#*#*%%%****-::*-*;.+:**%:%%*%.XO+.#XOOO.@.=O#+ o &@#..%#OOO#O*  o               ",
"#XXo@%O#O..XO%OO    &$o      $@.O%#O-*;=o%-*;%%:##*%%*%*****-;--%*:.%-*=%O*+XO..X@OX=+=...=OO.   @&O.###OO##%X$ o               ",
".Xoo.%.O.OOo.#%O&   o$%@     $$o#O#%..%;@o#-;;*:*O+%%#*%****:-::***###.#oO+&o=.O&X#X=+.+#=+OOX o$oO..#OOO###%   o       o       ",
"X@X#O=O=+..X.O*%+oX  $*       $$O=*;& +#*+O**%*#X+XoooXO#*****-*OOO#*....=%  X...X.+++OOO=O+O+ oo&OX#%O.##%*.$          o       ",
"oX%*+.O=.XX.X.O%O.:  ooo       $&*--;+$o*%O%+#oo. X.oX&+oX+#**%#%.O*#.=+###@#+XX.&OXOX...=X.O+ o %#+=O#O#%*:$   o        ooo    ",
" X##X=%+.X=..O%..*@$   oo      $ ;-%#;# $X& X%%ooo oooXoO#+*+O*o#.O.*.O#..o.O=&.XX%.;.+..O+=.Xo$=%OOOO#O=#*X$   o       ooX     ",
" X=O.%OX&=..O=#X%.$     oo     $X;*#OO%O&ooo-O=OOo     o X++X.# o+#O#..#@.X+o.&O.X+O##.O.O.O#+oo;OOO#O##O*-$            oX.o  o@",
"oXO.O+=+.#.%.%+%+       o#     $-;%#..O+X+&-.=.O%o    oX o@&o.Xo o@++X&&&@.X$$.X+X#.=#......#X .:*.####O+O&$           ooX@o$XO ",
"X..X.+.o+&OO%+X*$        @@ @Xo+,;%.XXOXo@o%oXXoX.X@@.o.o@.oo+@ X$@@Xoo. o&.o$ o&X=O.+=O=.OX%X X*Oo@oo         o       o&..&$X.o",
"...+++.%...XXX%       o  o@ #OX;;;:-XX%. .o+o#+ &.@o@Xoo+&o@.oXo% ooX Xoo @@.  $X%.O..X##+=+%@o &  o  o       X.       &X.O&  Oo",
"*.+*..+.*+#%=X$     $ +o   O+.@>;;;>;O=oo.oo+.XoXX@X@o@&X& +.@o #  Xo &oo oo.& $ #=.=O.+O#.XO.               o.+ooo    X&.=@ oX ",
"*-& %%.##O%*@       $@; $o#.X@o>;;;;:%#oXo+@+&O &@ +@ &&X@o.X+&@.X$oo       &+ $  ..&XO=##+O=+O@X            $X XX     XX.XX. o&",
"   o%%o#O.#@      o $ :o$o#Xo $;:;;;:%= ooX.oo@@oo+Xo@&o+oo+ =o@o.$         o.o$$o ..X.%*.o#X=X+@X@@           oX@o    ...XoXo @",
" $o#**$o oo       = $$;o$O.@oo %:,,;;#O @oOXooOoo @@@oo+ooo.@#oOX@           .O&$   ...%O oXo..O@X++X            @o   $XX.X. o @",
" $+o:#            #  $-+@%oo@  -;,,;;%. +X+o@+@ +o@Xoo@@oXoXX= .o+o         oo.%     .$&X@.o@=+Oo++@X             o    .&oX. @oo",
"oo=X>O            =+ $O.-+$.o o>;,,;-%.o#&oX@ XoXXoX&oXX . +@+ +XOo$         &+#O$   $+X@X+X. .+o+X@ o                $X&o+.$ooo",
"&+.%;.            ## $+%%o   X.;;,,;*%%@*&o=oo@ @oo+& =@X@ XXo+#oOX$        oX.%;.$   .@@.&.X@+.++o  ooo              $@o$O& +@=",
"o..**Oo         @$@..$O;#&o #-#;;,,;*##+Oo.Xo .o+@oo+ +X@#  XXX=X.o$        oX.O#+ $@+&@+O O++X..o     o               @ &O&o+X.",
"o=o*.X%         .$ o#o%;+&.#-OX*:,,;;%O++X+X@ #XX@oo.oX@@*  .o++.OX$        o.&@    %Xo&.+@XX.X..     ooo               o..@=XX.",
"o-$%@ %O@       @$ $%X*-X.%#*OX:;,,;*%%oX.# Oo.o+X@@.oo&@O  X..Xo#X$               #X.o.+o#XX+&.  o   o o               X++&X@..",
"++OO@$X.=X       $o XO%.@#*$+#.;;,,;-O#@o.oX++Xo+oX +o+oX. @o=X.++X$            $o.X..+X+X.o..oX o      o               X.&+o@OX",
".@*@@oo =%&o     $o+$..O*OX$o#.:;,,;-#*.o.+@X+X oX.XXXXo.&o@.=+XX* $           $o.OoX+.+@X+X.+X oo     o o   o        o .OoXXo+X",
"#&#o.X= o.O.       .&$=%*-o$ ..;;,,;;#%X&.+o+o@+@.XXX@X Xoo.XX+.+;o$           $O@o&.o.@+.X+X@Xoo o o   o   $+O        o&O@+.o.o",
"O#o&O&X-o&Xooo      . @;;+o$ .O;;,,;-##+X.&@Xo.=XX.@+&o  X@+&X=@..+$          $O=X@.= @.+@+#&oo o  o   oo   o+++      $X.+ =+o+X",
"+. @O.#*:#oo$o&     o  %-&O $X=;;;,;-*OO..X@=ooX.oo+o. $oo=oo+#o%o=$          $%%.X+O&@..+&O Xo    o  ooo   *X+.X$    $.O XO@.XO",
"..ooO.#*:. o  o       +#*o+ooo.*;;;;-O#.X.oo#o= O@ +oO@$ $   +.&===$          $@%*.OO&=+O.Xo X o   o       X+++&X     o&=$X+oX  ",
"=Xo@.#%*:& &o       $ XO=.&@@+@#*:;;;O%XXXX&+@.o+X&X@X+$      oooOX$           $&%.%=.OX+=X  o  Xoo     o$@.@X XXXo   o       X ",
"+X@.o##:*oo&@o       $o%&*oX Xoo&*:;:*#o.XX&o@++XXX++X+         &Xo$            $==%OO-=.Xo X  oX o     o$X.+Xo+=X@$         $..",
" XX.@%*:=oo&@&     o $ %X.o.@XXX o%--%.o@+X+@XXX++XX&#X $        X $            $o%=OOOO*+  .  @X    o   +@&&XooXXX           o%",
"@+.@.**:o+&ooXo      $o#o+o+Ooo.X$ O**X.o.oXO=++=XXXX.X            $             $@#.OO#O%o X  &o       @@+XoooXo&X@$          .",
"%XX+O%:%&.+@oXoo    o&%.X+O@..@+OXXX%-.@oX&X+O....XX+X.o           $               +OOOOO%= ooo+ o     o+&oXo XooX.X            ",
"%.X=#*:=X&ooo@o&   $O=XO*O*+.;%%%*;*%-+o@@X...O+.X@O@ @X@                           *.#=OO%Xo@o&$.    ooXX&O@ @X&oXXo           ",
"%O.+%*:X&oooooo&   $.=@+#O%*-;*--;;:O;XX .X.+&+&&&o .ooXX oo                      @ ..=.#=*%&@@&$O   o@+o&X.@o X+o=oo           ",
"O*#O%-%+Xo oooo&&  $X%X.+X#+::*-***:O*.ooX+ o @o+ ooo .oX .o         @     $X&$   @o@oO#OO%O%. oX    +@o. o@X@o+=o&           o+",
"*;##*:OXo ooooo@@o $o;.@#o%&:*%-***;-%.o$.&@oo+ X @oX$@oo @&@     oooXX$    ;#$    o o#OO=OO#;o X  o .o Xo@ X+o+@            o..",
"%%%%::.=oo oooo@@oo$o*.XX.O&%-+%*%**:*Xo@XOXooo@  +o   +   @ooo X.++o@&  $oOO#@$     #%+O=%OO%#o& @+ +ooooo@o+o             oX+X",
"##**:*X=oooooooooo& $#= .+%X#%@.***#%-o ++.@oooo ooo o +.o   O  .%=.X+   $o%++#  X  %%%%O&+.+##.X XOo+X@@oo+oo             X@@++",
" #**:OXXoooooo   @&o$O.&+..+%@.=%##.#%.&X.o.@  o    o $=O$  $%.&o XXo  @oX%*.XO+$   -%%O*.X.@&.O&&&XXXX@Xoo                 @X+X",
"$.*-*.X+@oooo oooooo @O&+OX@#XO.#*O%*.%+*% o  o++%##=X.@o    #O..=o   &+.&;#X=X#o  $%%%O%#XX.oX&@.X@.@Xoo                    o+ ",
" #*-*++X&oooooooo@ooo +X.OXX+X=..*O%#O%.%-. $ :;;*O-*%X    $ o.+.=.%@o  o.%XX+&.O  $.%OO##O+.X+o@&.XoX                     o $X@",
"+*%*OX.Xooo@ o ooooooo#=X..X+&..X%%.*%O#*%-+$$.%%%*;:X$    $o O.=+.=O#o$$**&X&o+;X$$o-O#%O%#&O+oo+.o                        $ # ",
".**:XX=ooo @ o oo ooo .=+oO +o.O+%.%.*#+*#%%@$$#;%*:X        $ =##O..*+ $;#X@+oX*%o$ #%##OO-==+X@Xo                       @ $oX$",
"#%:*&+Oooo oo ooo oo o #+@- O.OO.#O%.%..O%O=X@$$#;:+$   +    $%..O.=+O##o;O@@.oX%*%$$.%#%#%%#O.X                          o     ",
"%*:=@&Xooo ooo o oo oo$XO.#oO+.OO@#..#OOX*O%#@ $o-.$   $;    $O-XO+=.=+=%%X@oXoX##-@$X*O#O%*%-#                        o$o      ",
"%::.@X@ooo  oo ooo o   @#XOXO.X*XO.#O&#+O=.%@  $O%$   o$;o   $ *oO.O.- .:OXXo&o+O=%*$ %%##%**;o                 o o oooo .      ",
"*:*&@X&oooooooo  oooo  $#...=OXOOX=O..O.#.+@   @;@     $-o. o $. @O.O* .-+&Xoo@X+O#*$$.%*#OO%%$                 o oo @=%       *",
"::O&@Ooooo ooooo  o o  $+#X=O.XO=..O#==X&@o   o%.Xo    $#oO oooo$X+.O- %%+X&oXXoXO%#$$o%##%%;&$               oo  oo @.OO XXo@X*",
"**XX&.@oo oooo           O...X.O=@O%.O#+@     $.+&*    $%o@ oX . $.+X* **O.&o&&@+O%o $o..%%#-           o     @oo @o XX...==.+O*",
"-#oXXXooooo oo          $o-O&.OX#X+X..@        oXX#&o   -oo&&& Xo o..%oo*#+&&&ooO%%$   oXO%%#$        o   oo ooo @o&o&o###+...**",
":O@Xoooo   ooo    ooo     ==&O.O*X.+          X. #++#   -Xo@& oo@  +XO.$&-=X+@ooO*X$  o   %-O$       ooX  oo ooo&ooX&o.#.O..XO**",
"*@+Xoooo      oo oooo      =.O.+%o o$   $ooo&+@Oo#@+=Xoo%oXo . +o  OXO $$#*+X+oX#%    oo $@*+$       oo=o o  o@ @o@@@X#.O+O.X#**",
"#o+&oo ooooo oo  oooo     $o#XOo        $X@.X.X oO$##Oo . +@ @ @@ $O.X  $ ;O++X+##$    @  $o         o&=    ooXooXXXo......+.#*:",
"*@&Xoo oo oo  oo ooo        OXo$        $ &o.+%    %%.=o+&X  o@XoX$oO    $+%O+XO*o   ooooo         $o&&O   oX&o@ooo+XX+.#..O+#--",
":%&Xo  o  ooo    o         $oo $@X& oo$ $ oXO.%  $o.X@#@Oo. &&oXo.$oO$   $$**++O%$   o o             +X+   ooXX&@@X#X&oOXXOX.#-*",
"*:O&o      o                   $ +*&+X   $ @&+%$ $ Oo=+ o@Xo. o@@+        $o*#O*X &+@oXoooo         o .+   $.Xo&@.OOo+X+.XO=O#%*",
"*-:@oo  ooo        o           $$ OO=%o$ $@+.=X$   OO.# @@oXoo@ X.$       $$O*=% @.o oXXXX         oXoOX    ;X+X.=.+o.X...O...#*",
"**:%oo  @oo      o              $$.#oX$  $Xo+Xo$oXX...##%& ooX@oX#      oo $o#%X .+  oo.@@o     o@X&& o@ oo&;oOOOO=@o.+..XO#XO##",
"#**:+oooo+oo    o*              $$o $    $ o+ &X*%.=..+#O $ XX@o&+  @  $%.$ $@# #+..&o$XoXo X@oXXX&ooo   $+o#&+.+.+Xo+=X#.+OX%OO",
"X;*-:&ooo&oo   &;OO$         o   $          X &#**...%%#Oo$$+%.X    =$ X%.o   oXO%.&     ooo;**+XXoooo@  $.oX+X#O==@@X.OO.=O.*Oo",
"oO**:*ooo  +$ o;%=%                         o  #X%#.*@X#X  $&+X=.  $ooo&O+ $   &..&       $.:-:&&o&oooo $$.OoX+.X.%&+O%XooX.Xoo$",
"oo-**:#oo    $%=OX.#                          o$&X&OXo      $&+O=OX  o@X@X&@   o X         X::*&&o&oooX  $.##&O.#+OXO.oo    oo  ",
"XoO***:X o   =#+=&.O.                       o o   $.oooo    $ &&O#*X $+*#O*>O$ $Xo         .;;%ooo&@& X   O*#XOO.=XO.oooo      o",
"XoX%**--ooo O%==.+..#X$           o           oo  oooX  o.    $&+.O- $+%#O#%%$  :+X       $%-;#ooo@&oo+   OOO.o..=+OO$ooooo&Xoo+",
"@X&O%**:.  .OOX==X=O==o        o   @              +  +  Xooo    &-== $%O%OOOO$ o-..O.o    $**;%@o@@&ooX  $+O.@O&.=.#X$  O+&.&&oX",
"X&X..+&..&X-.O+.OX....%&$      o   @            ooo  @X Xoo@oo  o*.X$###OOOO&$ $XX&%O##=@o :-;+&o&&o@@X$  =O+&o=..O=o$@&#+++XoX&",
"@X&@.+.o$X%=X#..OO..X#OOo$         oo&         o  oo  oo&XXooo@$o= o -O=O.+;@   $o%=X+OOX.o:*-.oo&&@XXo$$oO+o &%..#. @O.=..O=@+o",
"X@.&=oO+ o#.X#.+.OO+X=.O#            o&        o      $..X  oo @+#X$$.O+O.O-$    o-O**+ooXo:*:o@ooo&@o   oX XO*.&&*Xo=&X+=..XoX.",
".XXX.XX+o$oOO%X.O=XO.++=%%O$        o$+       $ oo    $o $$o@XX%.&O $ .#.+O%$ o  +%+-%@$ o@:*:&ooo&o     o&.%*.+X.+.oXX.XX oo $X",
"X+X+XXX.X $ XOX.=+=O+.XOO:;$         o@          X@        ooOX..X+O$$ +O+=X$ oX@+%&%o$ X.#--* ooo     o ++oX.@X X+ooo Xo    o  ",
"o..o+X+XXX$$o=XO.O..=@.O%:%$                $ o $XOX      o$o.+.O+X%   $...@ o @o&X*  .#*o.%-O o.o   X XX@@o.X&XXo+oX $ $       ",
"o+.XX++..X$ $oXX=+O..o+#*:+$                 $X $o       oo$ &X@.X.=@$X  @@     $   X&O@. o%O@ #:o   @$oX.Xo. + XXX             ",
"o.+@XX.XO*o$ $@@+X..X..%-:@$                 @.         o $X$ &o.o.O@$.  o      @  $o#%@o$oO o#*-.     o@o&.+X@+o               ",
"XX+XXX.X.%X$ $$ +X@%@..;-: $                @#+         o $%  ooXo..@o.             o+@oo$oO o.-%&$   $#+oooo&&                o",
"XoX.@XO@.%X$  $$&X&=&.#-:#$                @X%X$        o$$. o&$..#++ o     $X       +o$ $XX$oX%%Oo$    X$ @ @o               oX",
"+.&X&X+.O##o$   $@XXXO-*:@$                +.#&$       o $ &oo+  O@X- o$    $oX&&$@      $&o$+oO%OXoo    $ o Xo               o=",
"+XXX@.++O.Oo$  $ $=XXX**: $                ..O+$      o  $@ooX& @ X%.=o         & oo@     oX..$.#.+&.        @o      oo      ooX",
".&..&&OX=%-@$    $oX+@#*-o$         $      .X#.$      o   @X +. XXO-X#          ooo  X$   $oO+$#O+&X@O               .        oX",
".X+X..+X=%%@$      oOXO%*o$         $ $oo oX.%+$          O o+ooXO%*O+$         oooooX$    o%@$.OXX@&@o@     o+O&$  o.o      oo+",
".&+@.+++O=-O$  $$   &XO.X $        o  $oo oX+OX$         oO Xo XO%*-&        #o$ ooX X     .%o$ +&o@=o&@@X   $X%.$   X        o=",
"..OX+=..+%*.$   $ . ooO=$             $  $oX.OO$         @# Xo =O#O-@       XO $oo Xo@   $ +%$ $+oXX@&@oXo&o $ O%$   oo       oo",
".==+..XOXO&o$  $$$OXo &o$  $        o $ o$oX.O.$         +@ XoX#*#%-&$     $#&   + Xo@o   &%&$  @o+@ X.o&o@@& $#. o   o        =",
"X=X.+.OX @oo$   $$&#.$     $         @ $. oX.=%$         =@o@XO%%O#;@$ .$  $*o$ $.o@@+o  oXX$   @o. @O@ @o@.=       oo  o    ooX",
"X=..OX@$ @o $    $ O@$         o   @ @@$X oX+%*$         =X.XO##OO%; $ =    =    X @  X       $+Xo+X@X  &&#=+&$   o o o o     oX",
"X.+OX   oo &$   $$$      o   $  @ oo o@ XooX.O*$         & X+=##O#O> $ .o$$o%$  $@&oo o $ o   $X@ XO +.@@&OOXX     @  o o o   oo",
"X.&@o   o o.$            @  $$  o  oo o  &X=.**$        o $o=OO#O*O;   o.$$ %     $XO.+@$     $Xoo.OoX.&X+*+@+  X  oo  &o.     o",
"X@ o  o o Xo$   $         & $   @o @o @  .X.O=*           $@=#OOOO#%$ $ .o$$@X   $+O=+O@X@    $oX+.&oX=oX=Oo$X.o&  o   XO&oX ooo",
"  o  o  o o $             o $  $o X& oX$@..+=.-        o   %+#OOOO*@$ $@&@  $OX$$.@#X=X+@X@@  $o..X@$+OXXXX$$oOo    @ooX@Xo  XXo",
"ooo     o Xo$             o $   oo o @X$++XX.X;        o $X%XO#OO#+$   o+o@$$ +$O@@Xo..O@X++X $X#+@ $o#X..$  &.+&  o.Xo+o@ X@ o ",
"o o o     @ $$$           o $ $ @o o o$ =.=.%.X$         oo&.##O#O$   =oo@+$ $$&X@.o@=+Oo++@X  +#o$ o Xo=@  ooX#X o++@@o@&Xoo   ",
"   @oo    oo$  $         $@ $  oo oo $$XXO@   $  o       $ @+%OOO$  &o# oo @$$$X@X+X.@.+o+X@ o %.   o $ o  oXooO=XoX.o@ooXoo    ",
"      o   &$$ $ $       $   $$       $ o+.  $    X@      $ .#*O# $o+X@+oX  O  .@@.&.X@+.++X  ooo    o      @#Ooo+XXo+X&o@       ",
"           $$ $          $   $  o    $o@#@  $+oo $#.     $ +%##o$$o++& .&$=$@+&@+O O++X..X     o o o o   @.@..Ooo+XX@@oo        ",
"      o     $          @o          o $oo*$  $OX$$ %#o     $@%%X$  $&. oO &  %Xo&.+@XX.X..     ooo oo   $@oOXXX+OooXXoo      o  o",
"o    o    $     o o   oo++o$      o* $o.*$  $. $ .%*        ;+$     XooX   #X.o.+o#XX+&.  o   o o      $XX@.o.o&Oo@X           o",
"                & oo @XXX. $     &;OO$+O#   $& $O*#O+     $+#$     X.X@o$o.X..+X+X.o..oX o      o       ooo+.=XXOX            o ",
"  oo  @   o     @o@oo+@Xo $     o;%=%  =%   $  o*%#&o     $&&    o$+%@o$o.OoX+.+@X+X.+X oo     o o  X &o o&XX+X&.%X             ",
"   &  o  oo o  o@ o@@@X $ $    $%=OX.#  O$    $.*.&o o      O.  @@$.*+ $O@o&.o.@+.X+X@ oo o o   o  &oXX  o+XXo+X..O            o",
"  o   @  oo o    &+&oX $    $  =#+=&.O.  $    $.%&o$ o      X@ o  $=. $O=X@.= @.+@+#&   o  o   oo X@X. @  o@@@oX.X.O           o",
"oooo  o    XX@o  o.Xo $    $o O%==.+..#X$     $.%o  o o       +@ $o.  X%%.X+O&@..+&O Xo    o  oooo@&*@  Xoo@&@@&X.+OO$          ",
"Xo oo     o@o& +  X $$       .OOX==X=O=O@    $ %+  o o  o     Xo $o  X.@%*.OO&=+O.Xo X o   o      oX.& ooooX&@oX+.X+Xo       o  ",
"X+o &o   oooX@o++  $       &X-.O+.OX...O%@$  $o.& &$ o  &$     @ $  o+* &%.%=.OX+=X  o  Xoo        o.o ooooo&@++.X+&.Oo       o ",
"Xo oo     o@o& ++oX $$    $X%=X#..OO...OO#o$ $ %+& o o  o     Xo $oX  . $==%OO-=.Xo X  oX o        o.&oooooo@XXX..X+Xoo      o  ",
"oooo  o    XX@oXoo.Xo $    o#.X#.+.OO..=.O#@  $.%+  o o       +@ $o.X    o%=OOOO*+  .  @X    oo$    o@ooXooX&X&+X.+XOo          ",
"  o   *  oo oo&& &+&oX $   $oOO%X.O=XO...=#%@ $.%.o$ o      X@ @@ $=..o   @#.OO#O%o X  &o            oo@ooo@X&XX.X.Oo          o",
"   &  *O oo o&X.=&o@@@X $ $ $ XOX.=+=O+..OO:@ $.*.+o o      O.  @@$.*+X.o$ +OOOOO%= ooo+ o  o        oXooo+XXXX...Oo           o",
"  oo  O*O o oX.==OOoo+@Xo $  $o=XO.O..=..O%:@  o*%#oo     $&&    o$+%@o.#Xo *.#=OO%Xo@o&$. o       o  &o o&XX++..%o             ",
"      **OO  &XX+X=OO @     $  $oXX=+O...O#*:@& $O*#Oo     $+#$     X.X@o#O# &.=.#=*%&@@&$O&o     oo&o   ooo+.=..-X            o ",
"X.##==:**:  X@X+XX+X%X$        $@@+X..X.O%-:@ o;+ .#.     **%*%%+.= o@@#.  $@&O#OO%O%. +X&o    oooX@Oo  # .X+.O.   o            ",
"ooX##O-*:# oX@Xo&XXO=%          $ +X+%+.O;::@  @ @#..    *%.%-%%+*&O= @#%$  &o&OO=OO#;o&+o   oo@X&.+.@o  o++X+.                 ",
"ooo@X+;%:o oo@X X..=+OO         o$&X+=+.#-::@     X%   XO##%*#*...OX.+o=%$ X#&o&==%OO%#o&  oo+X+.OX&X&&o  o.X.         $        ",
"Xo oo ;**$ o@@@XXo+X=+%      $    $@XX+O-*::@     o+.oX#&.**..#OO.==%XXo.$ O%O&ooo===##o oo@.X@++XX=XX.&$ oo.                 o ",
"X+@o  %%& oo+X@XXX&X.=#&$  @XXX@o  $=XXO**::@     oo+%....%%OO....==#XX@o .@#.X&&&& ooo&&..@+.+X+=&.X&O.         oo     $    o@ "
};
