/* XPM */
static char *SHAWN3[] = {
/* columns rows colors chars-per-pixel */
"64 72 21 1 ",
"  c gray39",
". c gray31",
"X c #4B4B4B",
"o c #434343",
"O c gray42",
"+ c #777777",
"@ c gray34",
"# c gray23",
"$ c gray50",
"% c #5B5B5B",
"& c #6F6F6F",
"* c #838383",
"= c gray28",
"- c #373737",
"; c #939393",
": c #8B8B8B",
"> c #2F2F2F",
", c #979797",
"< c #272727",
"1 c #9F9F9F",
"2 c #43331B",
/* pixels */
">><<<>>-##o##o#=#><#==#-##o##o#=##o#=#><2<>>-##o##o#=#><2<>>-##o",
">><<<>>-##o##o#o##-#==#-##o##o#o##o#o##-><>>-##o##o#o##-><>>-##o",
"->o#ooooXX.XX.X.XXoX..XoXX.XX.X.XX.X.XXooooooXX.XX.X.XXooooooXo=",
"--o>>--#oo=oo=o=oo#oXXo#oo=oo=o=oo=o=oo#->--#oo=oo=o=oo#->--#Xo=",
"#-o>>-##o=Xo=X=X=o#=..=-####=X=Xo=X####-#>-##o=Xo=X=X=o##>-##X=X",
"#-o>--#o==X==X=X==o=.o########=X=#######->-#o==X==X=X==o#--#o.=X",
"##o--##o=X.=X.X.X=oXXX####o##o#.##o#o###->-#o=X.=X.X.X=o#-##o.X.",
"o#X-##o=XX.XX.X.XX=#XX####o##o#oX#o#o####--#=XX.XX.X.XX=o##o=.X.",
"ooX-#oo=X.@X.@.@.X=o..o##oX#.XoXXoXoXo###-##=X.@X.@.@.X=o#oo=..@",
"=oX##o=X..@..@.@..#o..o#ooXo.@.@o.XoXoo##-###..@..@.@..X=#o=X..@",
"=oX#oo=X.@@.@@@@@.#X..X#oXXo@@@@.@@@XXo######.@@.@@@@@.X=oo=X.@@",
"X=Xoo=X.@@%@@%@%@@oX@@XoXX.X@%@%@@%@%@@o####o@@%@@%@%@@.Xo=X.%@%",
"XX.o=XX.@%%@%%%%%@o.@@.oX..X%%%%@%%%..Xo####o@%%@%%%%%@.X=XX.%%%",
".X.o=X.@@% @% % %@X.@@.XX.@X% % X%@.@.XXo##oX@% @% % %@@.=X.@%% ",
"...=X..@%% %% % %%@.  .X..@.%@.@%.@.@..Xo#oo@%% %% % %%@.X..@%% ",
"@..XX.@%%  %     %%@  @..@@.@@@@%@@@@@..X#oX%%  %     %%@X.@%%  ",
"@@.X.@@%  O  O O  %   @.@@ @@ @O@@ @ @@.XoX@%  O  O O  %@.@@%  O",
"%@...@%%  O  O O  % & @.@@ @@  O @ @ @@..o@%%  O  O O  %%.@%%  O",
"%%%.@%%  O& O&O&O  O&&O@@  @O&O& O&   @@%@%%  O& O&O&O  %@%%  O&",
"%%%@@%% OO&OO&O&OO O++O OO&OO&O&OO&O&OO %@%% OO&OO&O&OO %@%% OO&",
" %%@%%  O&&O&&&&&O &%%& O@@O&&&&.&&&&&O%Xo.  O&&O&&&&&O  %%  O&&",
"  %%%  O&&+&&+&+&&O@%%&O&@%@&+&%@@+&+&@.XoXXO&&+&&+&+&&O %  OO&+",
"  %%%  O&&+&&+&+&&O@ $&O&&%@&+&%@@&&+O@.X.  O&&+&&+&+&&O %  OO&+",
"O  %  O&&++&+++++&&%  %@@%%@++%%@%%++%@@.  O&&++&+++++&&O  O&O++",
"OO   OO&++$++$+$++&&  %@%% &+O% %% O$O%@.@OO&++$++$+$++&O OO&O+$",
"OO   OO&++$++$+$++&+  %@%% ++ % %% %$+%@.X..&++$++$+$++&O OO&O+$",
"&&O O&&++$*+$*$*$++$*& %%&*+    %    $+O@.@&++$*+$*$*$++&O&&+O$*",
"&&OOO&&+$$*$$*$*$$+$::$+$$*$$*$*$$*$*$$+&O&&+$$*$$*$*$$+&O&&++$*",
"+&OOO&++$$*$$*$*$$+$::$+$$*$$*$*$$*$*$$++O&++$$*$$*$*$$++O&+++$*",
"++OOOOO+++$++$+$++++$$++++$++$+$++$+$+++OOOO+++$++$+$+++OOOO+O*:",
"++&&&++$**:**:*:**$*;;*$**:**:*:**:*:**$+&++$**:**:*:**$+&++$**:",
"$++&++$$*::*:::::*$:;;:$*::*::::*:::::*$$++$$*::*:::::*$$++$$*::",
"$$ OO+++++$++$+$++++$$++++$++$+$++$+$++++O+++++$++$+$++++O+++O:;",
"$$O++$$*::;::;:;::*:,,:*::;::;:;::;:;::*$+$$*::;::;:;::*$+$$*+:;",
"*$++$$*::;;:;;;;;::;,,;::;;:;;;;:;;;;;::*$$*::;;:;;;;;::*$$*:+;;",
"**+$$**:;;,;;,;,;;:;11;:;;,;;,;,;;,;,;;:*$**:;;,;;,;,;;:*$**:$;,",
"**+$$**:;;,;;,;,;;:;11;:;;,;;,;,;;,;,;;:*$**:;;,;;,;,;;:*$**:$;,",
"*$++$$*::;;:;;;;;::;,,;::;;:;;;;:;;;;;::*$$*::;;:;;;;;::*$$*:+;;",
"$$O++$$*::;::;:;::*:,,:*::;::;:;::;:;::*$+$$*::;::;:;::*$+$$*+:;",
"$$O++$$*::;::;:;::*:,,:+$$*$:;:;::;$*$$+$+$$*::;::;:;::*$+$$*+:;",
"$+O&++$$*::*:::::*$:;*$&+$$+$$::*$$$$$+&&O+$$*::*:::::*$$++$$+::",
"++ &&++$**:**:*:**$***+&++$++$+:++$+$++&O O+$**:**:*:**$+&++$+*:",
"++ &&++$**:**:*:**$+$$+&++$++$+$*+$+$++&O OO$**:**:*:**$+&++$+*:",
"+& OO&++$$*$$*$*$$+&$$&O&&+&$+&+$&+&+&&OO  O+$$*$$*$*$$++O&+++$*",
"&& OO&&+$$*$$*$*$$O&$$&O&&+&$*$*&$+&+&&O    O$$*$$*$*$$+&O&&++$*",
"&&  O&&++$*+$*$*$+O&++&OO&+O$*$*+$*$+&OO    O+$*+$*$*$++&O&&+O$*",
"OO%  OO&++$++$+$++ O++O OO&O+$+$++$+$++  @   ++$++$+$++&O OO&O+$",
"OO%  OO&++$++$+$++ O++O OO&O+$+$++$+&OO  @   ++$++$+$++&O OO&O+$",
"O %%  O&&++&+++++& O&&O  OO ++++ +OOOO   @@  &++&+++++&&O  O& ++",
"  %%%  O&&+&&+&+&&O &&    O &O O& O O   @.@@O&&+&&+&+&&O %  O &+",
"  %%%  O&&+&&+&+&&O OO    O  O O& O O   @.@@O&&+&&+&+&&O %  O &+",
" %%@%%  O&&O&&&&&O &OO @       &       @@..  O&&O&&&&&O  %%   &&",
"%%.@@%% OO&OO&O&OO O+O @      O&O      @.X%% OO&OO&O&OO %@%%  O&",
"%%..@%%  O& O&O&O  O&&O@@  @O&O& O&   @@%@%%  O& O&O&O  %@%% %O&",
"%@...@%%  O  O O  % && %  O  O O  O O  %%.@%%  O  O O  %%.@%%% O",
"@@.X.@@%  O  O O  % .. % X.  O OX O O  .o#o@%  O  O O  %@.@@%% O",
"@.XXX.@%%  %     %%X.. %%XXo   Xo.    ooo-#o%%  %     %%@X.@%%  ",
"..X=X..@%% %% % %%@o.O%@%%Xo% %Xoo % .oo##..@%% %% % %%@.X..@%% ",
".XXo=X.@@% @% % %@@oXXooooXo% oXooX% ooo#=X.@@% @% % %@@.=X.@.% ",
"XXXo=XX.@%%@%%%%%@..XXo#ooo.%.ooooo.%=o#-#XX.@%%@%%%%%@.X=XX..%%",
"X=Xoo=X.@@%@@%@%@@.@XXo#ooo@@ooooooo%@o#->--.@@%@@%@%@@.Xo=X..@%",
"=oX#oo=X.@@.@@@@@.X@%.o-#...oooo#oooo@.o->>=X.@@.@@@@@.X=oo=X.@@",
"=oo##o=X..@..@.@..X.%%.X..@..@.@..@.@..X=#o=X..@..@.@..X=#o=X..@",
"ooo-#oo=X.@X.@.@.X=.%%.=X.@X.@.@X.@.@.X=o#oo=X.@X.@.@.X=o#oo=X.@",
"o#o-##o=XX.XX.X.XX=X@@X=XX.XX.X.XX.X.XX=o##o=XX.XX.X.XX=o##o=XX.",
"##o--##o=X.=X.X.X=oX@@Xo=X.=X.X.=X.X.X=o#-##o=X.=X.X.X=o#-##oXX.",
"#-o>--#o==X==X=X==o=..=o==X==X=X==X=X==o#--#o==X==X=X==o#--#oX=X",
"#-#>>-##o=Xo=X=X=o#=..=#o=Xo=X=Xo=X=X=o##>-##o=Xo=X=X=o##>-##X=X",
"--#>>--#oo=oo=o=oo#oXXo#oo=oo=o=oo=o=oo#->--#oo=oo=o=oo#->--#Xo=",
"->o###oooXXoXXXXXooXXXXooXXoXXXXoXXXXXooo##oooXXoXXXXXooo##ooXo=",
">><<<>>-##o##o#o##-#==#-##o##o#o##o#o##-><>>-##o##o#o##-><>>-##o",
">><<<>>-##o##o#o##-#==#-##o##o#o##o#o##-><>>-##o##o#o##-><>>-##o"
};
