/* XPM */
static char *SHAWN1[] = {
/* columns rows colors chars-per-pixel */
"128 128 24 1 ",
"  c gray34",
". c gray70",
"X c gray75",
"o c #A7A7A7",
"O c gray39",
"+ c gray31",
"@ c gray28",
"# c #838383",
"$ c #434343",
"% c gray42",
"& c gray23",
"* c #5B5B5B",
"= c #979797",
"- c #6F6F6F",
"; c #939393",
": c #373737",
"> c #4B4B4B",
", c gray50",
"< c #777777",
"1 c #8B8B8B",
"2 c #2F2F2F",
"3 c #9F9F9F",
"4 c gray67",
"5 c #272727",
/* pixels */
"&$&&:&$&&$&@&:&&$&&$&@&&&$&@&@&$&$&&:&$&&$&@&:&&$&&$&@&&&$&@&@&$&&$&@&:&&$&&$&@&&&$&@&@&$&&$&&:&$&&$&@&&&$&&$&@&&$&@&: O%  &::+$",
"&$&&:&$&&$&$&:&&$&&$&$&&&$&@&$&$&$&&:&$&&$&$&:&&$&&$&$&&&$&@&$&$&&$&$&:&&$&&$&$&&&$&@&$&$&&$&&:&$&&$&$&&&$&&$&$&&$&$&: +%  @2&$@",
"&@$&:$@&$@$@$:&$@&$@$@$&$@$>$@$@&@$&:$@&$@$@$:&$@&$@$@$&$@$>$@$@&$@$@$:&$@&$@$@$&$@$>$@$@$&@$&:$@&$@$@$&$@&$@$@$$@$@$:  %O @2&@@",
"$@$$&$@$$@$@$&$$@$$@$@$$$@$>$@$@$@$$&$@$$@$@$&$$@$$@$@$$$@$>$@$@$$@$@$&$$@$$@$@$$$@$>$@$@$$@$$&$@$$@$@$$$@$$@$@$$@$@$&  %O &2&@@",
"$>@$&@>$@>@>@&$@>$@>@>@$@>@+@>@>$>@$&@>$@>@>@&$@>$@>@>@$@>@+@>@>$@>@>@&$@>$@>@>@$@>@+@>@>@$>@$&@>$@>@>@$@>$@>@>@@>@>@&+ %O%&:&@@",
"@>@@$@>@@>@>@$@@>@@>@>@@@>@+@>@>@>@@$@>@@>@>@$@@>@@>@>@@@>@+@>@>@@>@>@$@@>@@>@>@@@>@+@>@>@@>@@$@>@@>@>@@@>@@>@>@@>@>@$ %% O$&$@@",
"@+>@$>+@>+>+>$@>+@>+>+>@>+> >+>O<;1111;11;1;<*@>+@>+>+>@>+> >+>+@>+>+>$@>O#1;1;111;1;1#O+>@+>@$>+@>+>+>@>+@>+>+>>+>+>$  %  @2&@@",
">+>>@>+>>+>+>@>>+>>+>+>>>+%#1;1;1;1111;11;1;1111#<>+>+>>>+> >+>+>>+>O1111;11;1;111;1;1;1;11,O>@>+>>+>+>>>+>>+>+>>+>+>@    +$5@@@",
"> +>@+ >+ + +@>+ >+ + +O#;;=;;;;1;;11;;1;;;;;11;;1;;# +>+ +*+ + >O;;;;11;;1;;;;;1;;;=;;;;;1;;1,O >+ + +>+ >+ + ++ + +@+++ +$5@@@",
"+ ++>+ ++ + +>++ ++ O#;;;;;=;;;;;;;;1;;;;;;;;1;;;;;;;;#,+ +*+ O,;;;;;;1;;;;;;;;;;;;;=;;;;;;;;;1;;,+ + +++ ++ + ++ + +>O%  +$2@+*",
"+  +>  +     >+  + %;;;;;;;=;;;;;;;;1;;;;;;;;1;;;;;;;;;;;% *  ,;;;;;;;1;;;;;;;;;;;;;=;;;;;;;;;1;;;;%   +  +          >+$ %$@&@@+",
" *  + *  * * +  *%;=;=;;;=;=;=;=;=;;;;=;;=;=;;;;=;;=;=;;;=#O #;=;;=;=;;;;=;;=;=;;;=;=;=;=;;=;;;;=;;=;<   *  * *  * * +O+++$&&$ :",
" ** +** *****+ *#;=====;========;==;;==;=====;;==;=====;====#*#=;=====;;==;=====;=========;==;;==;====, ** **********+%+ $$$&@@@",
" O*  *O *O*O*  #=;=====;========;==;;==;=====;;==;=====;=====#*#;=====;;==;=====;=========;==;;==;=====,*O *O*O**O*O* OO  $2&&@@",
"*O** *O**O*O* #============3========;========;=============3==#O#=====;=============3=========;=========,O**O*O**O*O* O    &&&@@",
"*OO**OO*OOOOO#=============3===============================3===#*#==================3====================,*OOOOOOOOOO*O  +$&$$@ ",
"O%OO*O%OO%O%#===3==3=3===3=3=3=3=3====3==3=3====3==3=3===3=3=3=3#O3=3====3==3=3===3=3=3=3==3====3==3=3===3#O%O%OO%O%O*   $+&$@@:",
"O%OO*O%OO%O#====3==3=3===3=3=3=3=3====3==3=3====%OO%#13==3=3=3=3=O#=3====3==3=3===3=3=3=3==3====3==3=3===3=O%O%OO%O%O*O+++ :$@$@",
"O-%OO%-O%-%33==33=33333=33333333=33==33=33333==3-O%-%-%O%#1=3333=#-333==33=33333=333333333=33==33=33333=33=#-%-%%-%-%O O+$+:&@@$",
"%-%%O%-%%-%33=3333333333333433333333=33333333=33-%%-%-%%%-%<%-%1=3-#33=33333333333334333333333=3333333333333-%-%%-%-%O O%  $&+@@",
"%--%O--%--133=3333333333333433333333=33333333=33-%-----%---<----%---1==33333333333334333333333=3333333333333#--------O+  + $:*@@",
"-<--%-<--<34333343343433343434343433334334343333<--<-<---<-<-<-<--<-<-%--<1=434333434343433433334334343334334-<--<-<-%$O ++:&@@:",
"-<--%-<--<34333343343433343434343433334334343333<--<-<---<-,-<-<--<-<-%--<--<-<333434343433433334334343334334-<--<-<-%$O ++$&$O@",
"-<<--<<-<<44433443444443444444443443344344444334<-<<<<<-<<<,<<<<-<<<<<--<<-<<<<434444444443443344344444344344<<<<<<<<- % + +5$+ ",
"<,<<-<,<<,44434444444444444.44444444344444444344,<<,<,<<<,<#<,<,<<,<,<-<<,1=44444444.444444444344444444444444<,<<,<,<- O + @$@@:",
"<,<<-<,<<,44434444444444444.44444444344444444344,<<,<,<<<,<#<,<,<<,<1=34444444444444.44444444434444444444444;<,<<,<,<-%% + $$@$@",
"<#,<<,#<,#=.4444.44.4.444.4.4.4.4.4444.44.4.4444#<,#,#,<,#,#,#,1=4=,.4444.44.4.444.4.4.4.44.4444.44.4.444.441,#,,#,#,<%% + :&@@$",
",#,,<,#,,#,.4444.44.4.444.4.4.4.4.4444.44.4.4444#,,#,#,,,1=.4.4.44#4.4444.44.4.444.4.4.4.44.4444.44.4.444.44#,#,,#,#,< O%  $&+@@",
",#,,<,#,,#,.4444.44.4.444.4.4.4.4.4444.44.4.4444#,,#1==34.4.4.4.4=#4.4444.44.4.444.4.4.4.44.4444.44.4.444.44#,#,,#,#,<$   O$:*@@",
"#1##,#1##1#=.4......................4........4...................#....4.......................4............11#1##1#1#,+    :&@@:",
"#1##,#1##1#1o4.............X........4........4.............X....=#....4.............X.........4...........3#1#1##1#1#,+O  $$&$O@",
"#11#,11#11111o.............X........4........4.............X...o#.....4.............X.........4...........;1111111111,+%  O@5$+ ",
"1;11#1;11;1;1#o.X..X.X...X.X.X.X.X....X..X.X....X..X.X...X.X.Xo;..X.X....X..X.X...X.X.X.X..X....X..X.X...;11;1;11;1;1#%+OO @&$+O",
"1;11#1;11;1;1#1oX..X.X...X.X.X.X.X....X..X.X....X..X.X...X.X.o1X..X.X....X..X.X...X.X.X.X..X....X..X.X..1;11;1;11;1;1#O+%  $$$+O",
"1;;11;;1;;;;;11;3.XXXXX.XXXXXXXX.XX..XX.XXXXX..XX.XXXXX.XXXXo;XX.XXXXX..XX.XXXXX.XXXXXXXXX.XX..XX.XXXXX1;;1;;;;;;;;;;1+$%+O5$$@ ",
";=;;1;=;;=;=;1;;=3XXXXXXXXXXXXXXXXXX.XXXXXXXX.XXXXXXXXXXXXX3;4XXXXXXXX.XXXXXXXXXXXXXXXXXXXXXXX.XXXXXXo;;;=;;=;=;;=;=;1 +%O :$$@+",
";=;;1;=;;=;=;1;;=;;3XXXXXXXXXXXXXXXX.XXXXXXXX.XXXXXXXXXXX3;3;=4XXXXXXX.XXXXXXXXXXXXXXXXXXXXXXX.XXXXo;=;;;=;;=;=;;=;=;1O+O +$$2@*",
"1;;11;;1;;;;;11;;1;;;4X.XXXXXXXX.XX..XX.XXXXX..XX.XXXXX.;;;=;;;4.XXXXX..XX.XXXXX.XXXXXXXXX.XX..XX.;;;;;1;;1;;;;;;;;;;1O  % $@5$ ",
"1;11#1;11;1;1#11;11;1;1=.X.X.X.X.X....X..X.X....X..Xo;111;1=1;1;114.X....X..X.X...X.X.X.X..X..41;11;1;111;11;1;11;1;1#% OO $@ @+",
"1;11#1;11;1;1#11;11;1;111;3X.X.X.X....X..X.X....Xo=;1;111;1=1;1;11;==44..X..X.X...X.X.X.X..4=1#1;11;1;111;11;1;11;1;1#%$%% $@-@ ",
"#11#,11#11111,#11#11111#111;111=o...4.......o=#11#11111#111;1111#11111,#1=..........X..==1#11#,11#11111#11#1111111111,O O  &@+++",
"#1##,#1##1#1#,##1##1#1###1#;#1#1#1##,#1##1#1#,##1##1#1###1#;#1#1##1#1#,##1##1#1###1#;#1#1##1##,#1##1#1###1##1#1##1#1#,O$%O+&@++@",
"#1##,#1##1#1#,##1##1#1###1#1#1#1#1##,#1##1#1#,##1##1#1###1#1#1#1##1#1#,##1##1#1###1#1#1#1##1##,#1##1#1###1##1#1##1#1#,O %O+@&+++",
",#,,<,#,,#,#,<,,#,,#,#,,,#,1,#,#,#,,<,#,,#,#,<,,#,,#,#,,,#,1,#,#,,#,#,<,,#,,#,#,,,#,1,#,#,,#,,<,#,,#,#,,,#,,#,#,,#,#,<$ % +@$@@+",
",#,,<,#,,#,#,<,,#,,#,#,,,#,1,#,#,#,,<,#,,#,#,<,,,#,1,#,#,#,,<,#,,#,#,<,,##,,#,#,,,#,1,#,#,,#,,<,#,,#,#,,,#,,#,#,,#,#,<+++O$:@++@",
"<#,<<,#<,#4.4444.4,#,#,<,#4.4.4.4.,<<,#<,#,#,<<,,#,#,#,#<;.....3;#,#,<<,##<,#,#,<,#,#,#,#,<;4444.44.4.;<,#<,#,#,,#,#,<O+%+ $@+O+",
"<,<<-<,<<,44434444<,<,<<<,4.444444<<-<,<<,<,<-<<<,<#<,<;....o....3<,<-<<,,<<,<,<<<,<#<,<;3444434444444444;<<,<,<<,<,<-+ %O @@@&O",
"<,<<-<,<<,44434444<,<,<<<,4.444444<<-<,<<,<,<-<<<,<#<,;.....o.....;,<-<<,,<<,<,<<<,<#<,1444444344444444444=<,<,<<,<,<-  %  +OO:+",
"-<<--<<-<<44433443<<<<<-<<44444434<--<<-<<<<<--<<<<,<;..o..oo..o..3,<--<<<-<<<<<-<<<,<;444344334434444434431<<<<<<<<<- O + + OO ",
"-<--%-<--<34333343-<-<---<34343434--%-<--<-<-%---<-,-.o.o.o-%;.oo.o;-%--<<--<-<---<-,-33433433#-<--134333433<-<--<-<-% O %  +:@<",
"-<--%-<--<34333343-<-<---<34343434--%-<--<-<-%---<-<;.o.o.#-%;.oo.o3-%--<<--<-<---<-<14343343#%-<--<-#333433<-<--<-<-%OOO ++ @O<",
"%--%O--%--333=3333-----%--34333333-%O--%-----O%----<oooooo-%O;ooooo3-O%---%-----%---<33333333%O--%-----%--%----------O+O%+$@++++",
"%-%%O%-%%-333=3333%-%-%%%-34333333%%O%-%%-%-%O%%%-%#ooooo#%%O;ooooo3%O%%--%%-%-%%%-%<33333333%O%-%%-%-%%%-%%-%-%%-%-%O+%  $+$ +@",
"O-%OO%-O%-133==33=%-%-%O%-333333=1%OO%-O%-%-%OO%%-%ooooo3-%OO;o3ooo3%OO%--O%-%-%O%-%-33333=33OO%-O%-%-%O%-O%-%-%%-%-%O++%$$@@+++",
"O%OO*O%OO%13====3=O%O%OOO-=3=3=3=#OO*O%OO%O%O*OOO%#o3o3o#%OO*;o33o33O*OO%%OO%O%OOO%O-=3=3==3=O*O%OO%O%OOO%OO%O%OO%O%O*O O$$+@O+@",
"O%OO*O%OO%#3====3=#%O%OOO,=3=3=3=#OO*O%OO%O%O*OOO%3o3o3o3o3333o33o33O*OO%%OO%O%OOO%O%#3=3==3=#*O%OO%O#===3==%O%OO%O%O*+  O$&@$+$",
"*OO**OO*OOO1======1,%OO%,1=3====1OO**OO*OOOOO**OO#3o3333333333333333O**OOO*OOOOO*OOO%O========,OO*O,========OOOOOOOOO O%  &::+$@",
"*O** *O**O*,=;=============3====,O** *O**O*O* ***33o333O*O** ;333333* **OO**O*O***O*%*,=======;============,O*O**O*O* +%  @2&$@@",
" O*  *O *O*O,;;==;=====;=======, O*  *O *O*O*  *#33333;O O*  ;3=3333*  *OO *O*O* *O*O*O1==;==;;==;=====;==1*O*O**O*O*  %O @2&@@@",
" ** +** *****<,==;=====;=====#,* ** +** *****+ *333333-* ** +;3=3333*+ *** ***** ***O***,1;==;;==;=====;1< **********  %O &2&@@@",
" *  + *  * * + <,1;=;=;;;=1,,* * *  + *  * * +  =3=3=3 * *  +;3==3=3 +  **  * *   * O * *  <;;;;=;;=;=<  *  * *  * * + %O%&:&@@@",
"+  +>  +     >+  +     +   *    +  +>  +     >+    *    +  +>  +     >+   +     +   *     +  +>  +     +  +           %% O$&$@@+",
"+ ++>+ ++ + +>++ ++ + +++ +*+ + + ++>+ ++ + +>+++ +*+ + + ++>+ ++ + +>++  ++ + +++ +*+ + ++ ++>+ ++ + +++ ++ + ++ + +  %  @2&@@@",
"> +>@+ >+ + +@>+ >+ + +>+ + + + > +>@+ >+ + +@>++ + + + > +>@+ >+ + +@>+  >+ + +>+ + + + +> +>@+ >+ + +>+ >+ + ++ + +    +$5@@@+",
"> +>@+ >+ + +@>+ >+ + +>+ + + + > +>@+ >+ + +@>++ + + + > +>@+ >+ + +@>+  >+ + +>+ + + + +> +>@+ >+ + +>+ >+ + ++ + ++++ +$5@@@+",
"+ ++>+ ++ + +>++ ++ + +++ +*+ + + ++>+ ++ + +>+++ +*+ + + ++>+ ++ + +>++  ++ + +++ +*+ + ++ ++>+ ++ + +++ ++ + ++ + +O%  +$2@+*$",
"+  +>  +     >+  +     +   *    +  +>  +     >+    *    +  +>  +     >+   +     +   *     +  +>  +     +  +          +$ %$@&@@+@",
" *  + *  * * +  *  * *   * O * * *  + *  * * +   * O * * *  + *  * * +  **  * *   * O * *  *  + *  * *   *  * *  * * O+++$&&$ :@",
" ** +** *****+ ** ***** ***O**** ** +** *****+ ****O**** ** +** *****+ *** ***** ***O***** ** +** ***** ** **********%+ $$$&@@@@",
" O*  *O *O*O*  *O *O*O* *O*O*O*O O*  *O *O*O*  *O *O*O* *O*O*O*O *O*O*  *O *O*O* *O*O*O*O* O*  *O *O*O* *O *O*O**O*O*OO  $2&&@@@",
"*O** *O**O*O* **O**O*O***O*%*O*O*O** *O**O*O* **O**O*O***O*%*O*O**O*O* **O**O*O***O*%*O*O**O** *O**O*O***O**O*O**O*O*O    &&&@@@",
"*OO**OO*OOOOO**OO*OOOOO*OOO%OOOO*OO**OO*OOOOO**OO*OOOOO*OOO%OOOO*OOOOO**OO*OOOOO*OOO%OOOOO*OO**OO*OOOOO*OO*OOOOOOOOOOO  +$&$$@ @",
"O%OO*O%OO%O%O*OO%OO%O%OOO%O%O%O%OO%O%O*OO%OO%O%OOO%O%O%O%OO%OO**O%OO*O%OO%O%O*OO%OO%O%OOO%O%O%O%OO%O%O*OO%OO%O%OOO%O%   $+&$@@: ",
"O%OO*O%OO%O%O*OO%OO%O%OOO%O-O%O%OO%O%O*OO%OO%O%OOO%O-O%O%OO%OO**O%OO*O%OO%O%O*OO%OO%O%OOO%O-O%O%OO%O%O*OO%OO%O%OOO%O-O+++ :$@$@$",
"O-%OO%-O%-%-%OO%-O%-%-%O%-%-%-%-O%-%-%OO%-O%-%-%O%-%-%-%-%O-%OOOO-%OO%-O%-%-%OO%-O%-%-%O%-%-%-%-O%-%-%OO%-O%-%-%O%-%- O+$+:&@@$&",
"%-%%O%-%%-%-%O%%-%%-%-%%%-%<%-%-%%-%-%O%%-%%-%-%%%-%<%-%-%%-%%OO%-%%O%-%%-%-%O%%-%%-%-%%%-%<%-%-%%-%-%O%%-%%-%-%%%-%< O%  $&+@@ ",
"%--%O--%-----O%--%-----%---<----%-----O%--%-----%---<-----%--%OO%--%O--%-----O%--%-----%---<----%-----O%--%-----%---<+  + $:*@@@",
"-<--%-<--<-<-%--<--<-<---<-<-<-<--<-<-%--<--<-<---<-<-<-<--<--%%-<--%-<--<-<-%--<--<-<---<-<-<-<--<-<-%--<--<-<---<-<$O ++:&@@: ",
"-<--%-<--<-<-%--<--<-<---<-,-<-<--<-<-%--<--<-<---<-,-<-<--<--%%-<--%-<--<-<-%--<--<-<---<-,-<-<--<-<-%--<--<-<---<-,$O ++$&$O@@",
"-<<--<<-<<<<<--<<-<<<<<-<<<,<<<<-<<<<<--<<-<<<<<-<<<,<<<<<-<<----<<--<<-<<<<<--<<-<<<<<-<<<,<<<<-<<<<<--<<-<<<<<-<<<, % + +5$+ @",
"<,<<-<,<<,<,<-<<,<<,<,<<<,<#<,<,<<,<,<-<<,<<,<,<<<,<#<,<,<<,<<--<,<<-<,<<,<,<-<<,<<,<,<<<,<#<,<,<<,<,<-<<,<<,<,<<<,<# O + @$@@: ",
"<,<<-<,<<,<,<-<<,<<,<,<<<,<#<,<,<<,<,<-<<,<<,<,<<<,<#<,<,<<,<<--<,<<-<,<<,<,<-<<,<<,<,<<<,<#<,<,<<,<,<-<<,<<,<,<<<,<#%% + $$@$@$",
"<#,<<,#<,#,#,<<,#<,#,#,<,#,#,#,#<,#,#,<<,#<,#,#,<,#,#,#,#,<#,<<<<#,<<,#<,#,#,<<,#<,#,#,<,#,#,#,#<,#,#,<<,#<,#,#,<,#,#%% + :&@@$&",
",#,,<,#,,#,#,<,,#,,#,#,,,#,1,#,#,,#,#,<,,#,,#,#,,,#,1,#,#,,#,,<<,#,,<,#,,#,#,<,,#,,#,#,,,#,1,#,#,,#,#,<,,#,,#,#,,,#,1 O%  $&+@@ ",
",#,,<,#,,#,#,<,,#,,#,#,,,#,1,#,#,,#,#,<,,#,,#,#,,,#,1,#,#,,#,,<<,#,,<,#,,#,#,<,,#,,#,#,,,#,1,#,#,,#,#,<,,#,,#,#,,,#,1$   O$:*@@@",
"#1##,#1##1#1#,##1##1#1###1#1#1#1##1#1#,##1##1#1###1#1#1#1##1##,,#1##,#1##1#1#,##1##1#1###1#1#1#1##1#1#,##1##1#1###1#1+    :&@@: ",
"#1##,#1##1#1#,##1##1#1###1#;#1#1##1#1#,##1##1#1###1#;#1#1##1##,,#1##,#1##1#1#,##1##1#1###1#;#1#1##1#1#,##1##1#1###1#;+O  $$&$O@@",
"#11#,11#11111,#11#11111#111;1111#11111,#11#11111#111;11111#11#,,#11#,11#11111,#11#11111#111;1111#11111,#11#11111#111;+%  O@5$+ @",
"1;11#1;11;1;1#11;11;1;111;1=1;1;11;1;1#11;11;1;111;1=1;1;11;11##1;11#1;11;1;1#11;11;1;111;1=1;1;11;1;1#11;11;1;111;1=%+OO @&$+O+",
"1;11#1;11;1;1#11;11;1;111;1=1;1;11;1;1#11;11;1;111;1=1;1;11;11##1;11#1;11;1;1#11;11;1;111;1=1;1;11;1;1#11;11;1;111;1=O+%  $$$+O ",
"1;;11;;1;;;;;11;;1;;;;;1;;;=;;;;1;;;;;11;;1;;;;;1;;;=;;;;;1;;1111;;11;;1;;;;;11;;1;;;;;1;;;=;;;;1;;;;;11;;1;;;;;1;;;=+$%+O5$$@ +",
";=;;1;=;;=;=;1;;=;;=;=;;;=;3;=;=;;=;=;1;;=;;=;=;;;=;3;=;=;;=;;11;=;;1;=;;=;=;1;;=;;=;=;;;=;3;=;=;;=;=;1;;=;;=;=;;;=;3 +%O :$$@++",
";=;;1;=;;=;=;1;;=;;=;=;;;=;3;=;=;;=;=;1;;=;;=;=;;;=;3;=;=;;=;;11;=;;1;=;;=;=;1;;=;;=;=;;;=;3;=;=;;=;=;1;;=;;=;=;;;=;3O+O +$$2@*+",
"1;;11;;1;;;;;11;;1;;;;;1;;;=;;;;1;;;;;11;;1;;;;;1;;;=;;;;;1;;1111;;11;;1;;;;;11;;1;;;;;1;;;=;;;;1;;;;;11;;1;;;;;1;;;=O  % $@5$ +",
"1;11#1;11;1;1#11;11;1;111;1=1;1;11;1;1#11;11;1;111;1=1;1;11;11##1;11#1;11;1;1#11;11;1;111;1=1;1;11;1;1#11;11;1;111;1=% OO $@ @+O",
"1;11#1;11;1;1#11;11;1;111;1=1;1;11;1;1#11;11;1;111;1=1;1;11;11##1;11#1;11;1;1#11;11;1;111;1=1;1;11;1;1#11;11;1;111;1=%$%% $@-@ O",
"#11#,11#11111,#11#11111#111;1111#11111,#11#11111#111;11111#11#,,#11#,11#11111,#11#11111#111;1111#11111,#11#11111#111;O O  &@+++*",
"#1##,#1##1#1#,##1##1#1###1#;#1#1##1#1#,##1##1#1###1#;#1#1##1##,,#1##,#1##1#1#,##1##1#1###1#;#1#1##1#1#,##1##1#1###1#;O$%O+&@++@O",
"#1##,#1##1#1#,##1##1#1###1#1#1#1##1#1#,##1##1#1###1#1#1#1##1##,,#1##,#1##1#1#,##1##1#1###1#1#1#1##1#1#,##1##1#1###1#1O %O+@&+++ ",
",#,,<,#,,#,#,<,,#,,#,#,,,#,1,#,#,,#,#,<,,#,,#,#,,,#,1,#,#,,#,,<<,#,,<,#,,#,#,<,,#,,#,#,,,#,1,#,#,,#,#,<,,#,,#,#,,,#,1$ % +@$@@+O",
",#,,<,#,,#,#,<,,#,,#,#,,,#,1,#,#,,#,#,<,,#,,#,#,,,#,1,#,#,,#,,<<,#,,<,#,,#,#,<,,#,,#,#,,,#,1,#,#,,#,#,<,,#,,#,#,,,#,1+++O$:@++@*",
"<#,<<,#<,#,#,<<,#<,#,#,<,#,#,#,#<,#,#,<<,#<,#,#,<,#,#,#,#,<#,<<<<#,<<,#<,#,#,<<,#<,#,#,<,#,#,#,#<,#,#,<<,#<,#,#,<,#,#O+%+ $@+O++",
"<,<<-<,<<,<,<-<<,<<,<,<<<,<#<,<,<<,<,<-<<,<<,<,<<<,<#<,<,<<,<<--<,<<-<,<<,<,<-<<,<<,<,<<<,<#<,<,<<,<,<-<<,<<,<,<<<,<#+ %O @@@&O+",
"<,<<-<,<<,<,<-<<,<<,<,<<<,<#<,<,<<,<,<-<<,<<,<,<<<,<#<,<,<<,<<--<,<<-<,<<,<,<-<<,<<,<,<<<,<#<,<,<<,<,<-<<,<<,<,<<<,<#  %  +OO:++",
"-<<--<<-<<<<<--<<-<<<<<-<<<,<<<<-<<<<<--<<-<<<<<-<<<,<<<<<-<<----<<--<<-<<<<<--<<-<<<<<-<<<,<<<<-<<<<<--<<-<<<<<-<<<, O + + OO @",
"-<--%-<--<-<-%--<--<-<---<-,-<-<--<-<-%--<--<-<---<-,-<-<--<--%%-<--%-<--<-<-%--<--<-<---<-,-<-<--<-<-%--<--<-<---<-, O %  +:@<:",
"-<--%-<--<-<-%--<--<-<---<-<-<-<--<-<-%--<--<-<---<-<-<-<--<--%%-<--%-<--<-<-%--<--<-<---<-<-<-<--<-<-%--<--<-<---<-<OOO ++ @O<@",
"%--%O--%-----O%--%-----%---<----%-----O%--%-----%---<-----%--%OO%--%O--%-----O%--%-----%---<----%-----O%--%-----%---<+O%+$@++++ ",
"%-%%O%-%%-%-%O%%-%%-%-%%%-%<%-%-%%-%-%O%%-%%-%-%%%-%<%-%-%%-%%OO%-%%O%-%%-%-%O%%-%%-%-%%%-%<%-%-%%-%-%O%%-%%-%-%%%-%<+%  $+$ +@@",
"O-%OO%-O%-%-%OO%-O%-%-%O%-%-%-%-O%-%-%OO%-O%-%-%O%-%-%-%-%O-%OOOO-%OO%-O%-%-%OO%-O%-%-%O%-%-%-%-O%-%-%OO%-O%-%-%O%-%-++%$$@@++++",
"O%OO*O%OO%O%O*OO%OO%O%OOO%O-O%O%OO%O%O*OO%OO%O%OOO%O-O%O%OO%OO**O%OO*O%OO%O%O*OO%OO%O%OOO%O-O%O%OO%O%O*OO%OO%O%OOO%O-O O$$+@O+@+",
"O%OO*O%OO%O%O*OO%OO%O%OOO%O%O%O%OO%O%O*OO%OO%O%OOO%O%O%O%OO%OO**O%OO*O%OO%O%O*OO%OO%O%OOO%O%O%O%OO%O%O*OO%OO%O%OOO%O%+  O$&@$+$+",
"*OO**OO*OOOOO**OO*OOOOO*OOO%OOOO*OOOOO**OO*OOOOO*OOO%OOOOO*OO****OO**OO*OOOOO**OO*OOOOO*OOO%OOOO*OOOOO**OO*OOOOO*OOO%+ %,222$@@@",
"*O** *O**O*O* **O**O*O***O*%*O*O**O*O* **O**O*O***O*%*O*O**O**  *O** *O**O*O* **O**O*O***O*%*O*O**O*O* **O**O*O***O*%    $:+$@++",
" O*  *O *O*O*  *O *O*O* *O*O*O*O *O*O*  *O *O*O* *O*O*O*O* O*    O*  *O *O*O*  *O *O*O* *O*O*O*O *O*O*  *O *O*O* *O*O  ++$@$+O++",
" ** +** *****+ ** ***** ***O**** *****+ ** ***** ***O***** ** ++ ** +** *****+ ** ***** ***O**** *****+ ** ***** ***O++ ++@$$*++",
" *  + *  * * +  *  * *   * O * *  * * +  *  * *   * O * *  *  ++ *  + *  * * +  *  * *   * O * *  * * +  *  * *   * O    $@@@***",
"+  +>  +     >+  +     +   *    +     >+  +     +   *     +  +>>+  +>  +     >+  +     +   *    +     >+  +     +   *    +$@+@++",
"+ ++>+ ++ + +>++ ++ + +++ +*+ + ++ + +>++ ++ + +++ +*+ + ++ ++>>+ ++>+ ++ + +>++ ++ + +++ +*+ + ++ + +>++ ++ + +++ +*O O +$@@@+@",
"> +>@+ >+ + +@>+ >+ + +>+ +*+ + >+ + +@>+ >+ + +>+ +*+ + +> +>@@> +>@+ >+ + +@>+ >+ + +>+ +*+ + >+ + +@>+ >+ + +>+ +*O OO+@$$@@@",
">+>>@>+>>+>+>@>>+>>+>+>>>+> >+>+>>+>+>@>>+>>+>+>>>+> >+>+>>+>>@@>+>>@>+>>+>+>@>>+>>+>+>>>+> >+>+>>+>+>@>>+>>+>+>>>+> + % +@@@@@+",
"@+>@$>+@>+>+>$@>+@>+>+>@>+> >+>+@>+>+>$@>+@>+>+>@>+> >+>+>@+>@$$@+>@$>+@>+>+>$@>+@>+>+>@>+> >+>+@>+>+>$@>+@>+>+>@>+> + %% @@@@@+",
"@>@@$@>@@>@>@$@@>@@>@>@@@>@+@>@>@@>@>@$@@>@@>@>@@@>@+@>@>@@>@@$$@>@@$@>@@>@>@$@@>@@>@>@@@>@+@>@>@@>@>@$@@>@@>@>@@@>@+O+ O+ +$@+@",
"$>@$&@>$@>@>@&$@>$@>@>@$@>@+@>@>$@>@>@&$@>$@>@>@$@>@+@>@>@$>@$&&$>@$&@>$@>@>@&$@>$@>@>@$@>@+@>@>$@>@>@&$@>$@>@>@$@>@+ +$    $@@@",
"$@$$&$@$$@$@$&$$@$$@$@$$$@$>$@$@$$@$@$&$$@$$@$@$$$@$>$@$@$$@$$&&$@$$&$@$$@$@$&$$@$$@$@$$$@$>$@$@$$@$@$&$$@$$@$@$$$@$>+ $ $ +$@@@",
"&@$&:$@&$@$@$:&$@&$@$@$&$@$>$@$@&$@$@$:&$@&$@$@$&$@$>$@$@$&@$&::&@$&:$@&$@$@$:&$@&$@$@$&$@$>$@$@&$@$@$:&$@&$@$@$&$@$>O $O$$$:@$@",
"&$&&:&$&&$&$&:&&$&&$&$&&&$&@&$&$&&$&$&:&&$&&$&$&&&$&@&$&$&&$&&::&$&&:&$&&$&$&:&&$&&$&$&&&$&@&$&$&&$&$&:&&$&&$&$&&&$&@$+$++$$$$$@",
"&$&&:&$&&$&$&:&&$&&$&$&&&$&@&$&$&&$&$&:&&$&&$&$&&&$&@&$&$&&$&&::&$&&:&$&&$&$&:&&$&&$&$&&&$&@&$&$&&$&$&:&&$&&$&$&&&$&@+ +$$&&&$@+"
};
