/* XPM */
static char *SKSNAKE1[] = {
/* columns rows colors chars-per-pixel */
"64 128 34 1 ",
"  c #774F2B",
". c #8F5F37",
"X c #A36B3F",
"o c #5F4323",
"O c #BF7B4B",
"+ c #CF8353",
"@ c #DF9363",
"# c #9B633B",
"$ c #B37347",
"% c #AB6F43",
"& c #3F2F17",
"* c #875733",
"= c #6B4727",
"- c #E79B6B",
"; c #F7AB7B",
": c #4B371B",
"> c #FFBB93",
", c #EFA373",
"< c #533F1F",
"1 c #7F532F",
"2 c #D78B5B",
"3 c #2B230F",
"4 c #332B13",
"5 c #CB7F4F",
"6 c #FFB383",
"7 c #FFCFB3",
"8 c #FFBF9B",
"9 c #FFD3BB",
"0 c #FFDBC7",
"q c #43331B",
"w c #FFC7A7",
"e c #FFEBDF",
"r c #775F3F",
"t c #FFE3D3",
/* pixels */
"$+>@X*$+X. &433333o. 33X+@@.o.@O.o.OO  *.....XX#####.1. o:::o $#",
"X@,X .OX. &3333333&o o<o.@@ooOw8>+.+@OOO$XOO#$O%O$$XXX... ::o*##",
"+@. ..# o&4&oooo&&ooo:oooX% %@-22>-$$OOO# ..X+O.XX$XX$$$$X. =#*1",
"%o.+oo o&&=.XOOOO. .. :3o*  O,@++,-Xo.>8>;@%#+@$.$OXX#.%+$X.*==1",
"=:*.oo<=..XXXO+X.  .O+X &&o...+@+,+o&@>@+;7, XOX$%OO. .OX.$$.#*=",
"* =<< ..X-@* .OO+OX.XOO.. &o.:4X++O .;-++@>; o #@;@@;O#+O*#$X.%=",
" o <1 +@@>@. XO+OO@O .OOO.=&o#..+O. .X+@2-;O.o&X@@@@@@O%@5* %X.*",
" ==o.$@++@.X..O@O$@OooXOO%# &o*#XOOX. 3&.O%OO  O>@++@+. XOOO+OX.",
". o=.X@,@.%+O  XO++*&*$#XOO.o:o*XX++$$ 3 +O$O$#X@@+@;O ..#$OO o.",
"%1=oo ..o*O+@.:o.XX .@;O..XX  ooo*  #OX..O++OXOO  .O+O. O@;-+5 o",
".X1=X$XX$..#X.*#XOO.X+O+-Oo.O..o:&&3&o $#XXOOXO@$ =%%O@XX@@+O@+ ",
".X1 X*XOX. oo ..OOo&@@XX-@  +X.*o&3333&<=1%XXX%O++O%OOOOX+@OX+@.",
"XX1o =  =o&33 .X$O:&@-$X2O=X+.X1o=43333333<=1.##%%%%O@+ oX@++@O.",
"X$. oooo&333< XO+@X X++++*oO5##==:&43333333333&< .%%O%O+ &X87Oo ",
".X. ::&43&<  .O+O+@+ o.+O .O%.*o 11 =o:o&3333333&o .%%++%= @O.#.",
"X#1 :&4&&=..XXX..O+5 o.X O+X*1##%#%#XXXX$. o&333333: .XO..+;O...",
"OX1 &&q<o*#+O#+@+;;O.XX#OO%1#%+++$$+O+$$+O$X# o&3333: #@X.+@+@@@",
"@.  &<<oo#$..+-@@+@@X XOX1.XX%OOOOXXOOXXO++$OX# o&33&:1$+XX*O>,,",
"@.o.o&<o<.o.##O2+++X.OO && $XXX..X.O+XXO+%%O++O$# o&&&1$@+&o,>2-",
"O=o#<  1= .O. O+OO o..o&o .OOXXXXOO.. &*$$$OO%++O%.=oo.$+O3#>@+;",
"X4o#oo1r= .X  .X oo&4o* o ...XOX..$O+;,. XOO%#O2+%O%##$++#oO>@+;",
"*:*=& 1 =1=XOX.  o33 . & O@2+2+X.X@@5+77O.OOX#XO%#O+O+%+O  @;+,-",
"X* &&=o<qo==oo&&33&*$. X@@2O-@O%.X@+O+;>@.  .   X%O+%O%O....XOOX",
"X <3 q44&:&&&3333 #O#o.@+OO+,;O .O@@O+;@X.XX@;@+X.OOX .%OO#X..XX",
". &:&4&&:&&33333oO;O  .O,+++@+... .%O+@O .#O@OO@2 .XO++-;+X* #X*",
".<:o:4:::o&&33& #OOXOO X;;2.oo.O% =o:oX$X  +2XO@+. O@OOO@8+ XO.*",
" oo====ooo&33o...X$$5O #OX<&o   .. ...XX%X.XO+@@$ .@O%OO@;XX+XX*",
" 1..#.   &33&O@ &@>@$. %%  #  ooo<&o    .XO.o.%O#.X++++@-X*2+X# ",
"..XOO.   &34 O<3+6@>@ .@+ o&4o      o= ...%O & X+O. .%+O o+2$X  ",
"X#XXX.oo&3o#+.&X,+->Xo#5 &&<o.XX%%OO  $X..  .. #..+@X. & X2O..o*",
"XX .X &&4oXO@..;@O>@< X&&o   XXXO2@@X O++OXXo&=#$%OO.X#.X%X. o #",
"$+. oo33o%OOO.#2@-6o4X=4.O+OOOX.O@,@$.O@+%XO.33 $5%.XX.XXX. &<*#",
"@+.=&3&=.. O$o X,w$3: o O+++@,+O@--@+O@@+XXOX3& ........ o<4<=#$",
"+% o&& O*3 ;+XXO,.::& %O+@+O@2+,---@O+@-+XO+..++.o:=ooooo&3&<*XO",
"X. o& O@ &9e;%#X*o oo%O@>@X.XO,@+@@+%X@>-OOXX+OXX.&33333333& X2+",
".Xo&&X72&$7;>O o .o&.O@;8+oo%@>+O@+O$XO@@+O.O@O#OO 3333333& .O2O",
"114=#-,  7,+>+o .oo X@6>-$* X@@X.OOX.%O$+@O X@OXXX.o333333o #5@O",
"1o +>7O.O@@,-...o=X#O@--6>@..OXoo..  #OOXX. .OO%.**o33333& .$@-X",
"o#O+;,#XO+->Oo=ooX+++;-@;;@.o.o3&oooo*$% oX;+XXX.*  &333&& O@@+*",
"o#@OO# X+-6@ oooX@@@@-@@@+$ &o&&<ooo:o  &oO;@O%O &o.:33&o .5@@O ",
"..$OOXo +>+ :* oX@;@@;6@OX &&o  XX. &3o o $+@@@+ o .&33& .%+@@.o",
".$>>>,X .%    .X%@@O@6-O*o&o ..X++X. <&<o.X+@@@OXX+X:3&o #O+++. ",
"O6>6>8;.&.X o +-%X$@;@O :: ..o @@$%..X&3oXX$@@@+XX5Oo4& #XX555+X",
";6,+@>O  .   O>7+ .+-$=&o O+Xo&X+XO% % 3& .O,;@+OX$Xo&< .XX+@+++",
"@@$@-$=*.o #.O>7X&o%.44 %%%,,X*o&.####.&3&o%@-@@+OO.&:o...X+@+OO",
"X$O@ :  :*O+OO++Oo< <4o$%XO@X X <o.@7O#&3: %+@@@++X <&  ..X-;@O.",
"XXO &:ooX-@-@X.+. <4< #XX+,Xo=: X $+@+#<3< .+@,@@+X &:o  .O@@@. ",
"*=o oo.++O@;2O2.Xo&.%++@$,#:<&3=XX$XO$.<&=..O,-2+X <<:   *O++O# ",
".11#OX..+>+O%*%o X+@@;6@OX &&&&o*X.*..1<& $+@@@+.o  &3:o .%+@@.o",
".#12--$..%#**  *%+@O@6-O*o&o :&1X+X. *1<&.X+@-,2X11#:3<o #O+++. ",
"O+X%2-+.*.X o +-%X$@;@O :: ..o:=X$%..X.3&XX$-,,@XX#Oo4  #XX555+X",
"++%.#5%  .   O>7+ .+-$=&o O+Xoo1XXO% % 3& .O,;,2OX$Xo&o .XX+@+++",
"@+. *.**.o #.O>7X&o%.44 %%%,,X*o&.#####&3&o%@,@@+OO.&o=...X+@+OO",
"X$.*o:  :*O+OO++Oo< <4o$%XO@X X <o.@OO#&3: %+@@@++X <&   =X-;@O.",
"XXO &:ooX-@-@X.+. <4< #XX+,Xo=: X $+@+#<3<.X+2,@@+X &o.o&oO@@@. ",
"*=o oo.++O@;2O2.X#$$.$Xo$,#:*o3 +X$XOO#<&=#XO$22+X$<<    *O++OXX",
"1o3o1XX+.XO%. @2++2@X*$+X1&&o **#..$$.&o:o1.1.@O.o.OO  *.....XX#",
".14o.$O.XO%. +-OX@,X .OX.=&3&<  *##* o<:oo.1oOw8>+.+@OOO$XOO#$O%",
"..<o   o %O O-5O+@. ..# o&4&oo     oo:::o:# %@-22>-$$OOO# ..X+O.",
"$  X &o.$+X.+++6%3.+oo o&&..XOOOO. .. :3::  O,@++,-Xo.>8>;@%#+@$",
".=o .  X+O  %2,#3:,.ooo...XXXO+X.  .O+X &&o...+@+,+o&@>@+;7, XOX",
"oo .  O>07Oo.#XOX = ....X-@* .OO+OX.XOO.. &o.:4X++O .;-++@>; o #",
" O5##@+O@>@.%OX. o %X#+@@>@. XO+OO@O .OOO.=&o#..+O. .X+@2-;O.o&X",
"X. .,@$X+O..# &o .. O,@++@.X..O@O$@OooXOO%# &o*#XOOX. 3&.O%OO  O",
"+.o.;+$*o: =o #    XO@@,@.%+O  XO++*&*$#XOO.o:o*XX++$$ 3 +O$O$#X",
";>$o#==&&o  X@;+X..  ...o*O+@.:o.XX .@;O..XX  ooo*  #OX..O++OXOO",
"+$.==&&&oX++O2;@ XXX@,XX$..#X.*#XOO.X+O+-Oo.O..o:&&3&o $#XXOOXO@",
" =&&= oo%@@@@O$ OOX+@%XOX. oo ..OOo&@@XX-@  +X.*o&3333&<=1.XXX#.",
"o===o.%.5;+OX**#$O+O+X..*o&33 .X$O:&@-$X2O=X+.X1o=33333333<=1.  ",
"%== .#X.XO5O X@+X%XX. oo&333< XO+@X X++++*oO5##==:33333:=  .XXX ",
".=%$$o*+++@..+@O...* o&43&<  .O+O+@+ o.+O .O%.*o 11 =o *XO$$O+O$",
"X++@$.O+O++ #OX*** o&&&oo ..XXX..O+5 o.X O+X*%$%%#%#XXXX+%%OO#O.",
"@++2$+%.O+O.*  =o&&:oo X%XO+O#+@+;;O.XX#OO%OO%+++$$+O+$$O$$O%# X",
"++@.%$X$$#  =&&&oo ...XOOO$..+-@@+@@X XOX..XX%OOOOXXOOXX+XOOX @+",
"@+ .OOO% ooo&oo #%O &oX%X.o.##O2+++X.OO && $XXX..X.O+XXO$.O .;O+",
"X.@>5X   o&o ..XXX oX@-;+ .O. O+OO o..o&o .OOXXXXOO.. &* . X@OO@",
"O+;+ ooooo .X##XX %-+O;>5 .X  .X oo&4o* o ...XOX..$O+;,.O.XO@X@.",
"%O+ <oo&o.OOOO+.o.+@@@;-+. XOX.  o33 . & O@2+2+X.X@@5+77@.#+2+%O",
"X  oo oo XOOOOX   X@@+O#= XX. &&33&*$. X@@2O-@O%.X@+O+;>X  XO. o",
"oooo.. O-@@@-OXX  XOX &&oo&&&3333 #O#o.@+OO+,;O .O@@O+;@ X..o&oo",
"&o # X@+O555@;+.X+#o&&ooo&&33333oO;O  .O,+++@+... .%O+@ XX..o&oo",
"o.%# O@+XOO+@$oX@O o:&oooo&&33& #OOXOO X;;2.oo.O% =o:oX$XXO.  oo",
" X#. .O2++++*&o..=&&oooooo&33o...X$$5O #OX<&o   .. ...XX%.. o:&o",
". X+. +@+$ &  oo&&o.#.   &33&O@ &@>@$. %%  #  ooo<&o  oo<<:&&&:X",
"O.XX #OXOXo  o&o  .OO.   &34 O<3+6@>@ .@+ o&4o      o= ooo<<:& X",
"@OX X-+OO.oo   .##XXX.oo&3o#+.&X,+->Xo#5 &&<o.XX%%OO  $X..  && #",
"+;+ #5X.o&< .O+;-X .X &&4oXO@..;@O>@< X&&o   XXXO2@@X O++OXXo&=#",
"+-XoXX o3o#%+>7@@+. oo33o%OOO.#2@-6o4X=4.O+OOOX.O@,@$.O@+%XO.33 ",
".@ :X &&o.%5@;>@@+.=&3&=.. O$o X,w$3: o O+++@,+O@--@+O@@+XXOX3& ",
".o33 && ..O++@-@+% o&& O*3 ;+XXO,.::& %O+@+O@2+,---@O+@-+XO+..++",
"X.&&o&.$..OOOOOOX. o& O@ &9e;%#X*o oo%O@>@X.XO,@+@@+%X@>-OOXX+OX",
"OO o& OOXO+#$@+*.Xo&&X72&$7;>O o .o&.O@;8+oo%@>+O@+O$XO@@+O.O@O#",
"XX.o&X+OO>>X@07O :4=#-,  7,+>+o .oo X@6>-$* X@@X.OOX.%O$+@O X@OX",
".**o&O$.+>;@-87O&& +>7O.O@@,-...o=X#O@--6>@..OXoo..  #OOXX. .OO%",
".*  &.. +>;@>7@oo#O+;,#XO+->Oo=ooX+++;-@;;@.o.o3&oooo*$% oX;+XXX",
" &o.:XX .+-,>,Xoo#@OO# X+-6@ oooX@@@@-@@@+$ &o&&<ooo:o  &oO;@O%O",
" o .&++ o$@+@@OX..$OOXo +>+ :* oX@;@@;6@OX &&o  XX. &3o o $+@@@+",
"XX+X:5+.*O$X->+..$>>>,X .%    .X%@@O@6-O*o&o ..X++X. <&<o.X+@@@O",
"XX$XoXO.+,..77O.O6>6>8;.&.X o +-%X$@;@O :: ..o @@$%..X&3oXX$@@+$",
".* *o*X.@O O8@XO;6,+@>O  .   O>7+ .+-$=&o O+Xo&X+XO% % 3& .O,;+%",
"* o &o..%.oO@X .@@$@-$=*.o #.O>7X&o%.44 %%%,,X*o&.#####&3&o%@-@O",
"## ooo. .# .$X* X$O@ :  :*O+OO++Oo< <4o$%XO@X X <o.@7O &3o %+@@O",
"$X*= oo& .oo.X% :*O &:ooX-@-@X.++ <4< #XX+,Xo=: X $+@+o33 .X+@,@",
"+$X*. oo  o& XX ooo oo.++O@;2O2+Xo&<.$Xo$,O:*o3 +X$XOO&3&.#XO,-2",
"OOX.+X    &:oo  <<   XOO%X@;;-+.&&o .OO ..  o&X;O...OX&&o.#.O@+O",
"#+O OXX%+O.XX  XX.XO@@O. O>>@O.o3 @@  XO. =*$5+O..X.. 3&.%O%XOX.",
"X+Xo. +09@O@+@6@%%+>>;@OO--@Xo33 @6O #X..O@%  +>@X%X &4 %%%OXX. ",
".O%oX.+@+5OO+;8;O%,>--+OOOO.o33 @+X   .O-8-*.@7,++X &&o OO  O2+X",
".#.>+ %@OXXO;79>O$@@@@O...o33&o.+X=o #O->O X2@+OOX=&4 ..XX #@>;O",
"XX@>O%>t6OX5>88>+XO+@+X. o&&o=o .    *$O.  XOOOO.&&o X+%..O@,@@+",
"XO+@+@77>@O+-,6>@ .@@OOXo3&o#%*o.  o.XOX =oo . o&<.XOO#.#X+-@-@O",
"OX@2.+@@@@@@@@@6$o.@@X o4&=#+X*..  XO+@$ ooo ooo .X$5O#$O.+,,;+$",
". $O.X+O+++%O++XooX. o& #O#=X <&o.%5@;>@.o =&3&=.. O$o X+#$55#%#",
"O OOOOOXXOXX... &o  *=X+--X  <& ..O++@-@.  o&& O*3 ;+XXO+.##&.%*",
"* o .#X$# . o ====1..=1.XX Xo&.$..OOOOOOX. o& O@ &9e;%#X*o oo=1#",
"O+OX11=:44&o==111=#O+.*X,OXo& OOXO+#$@+*.Xo&&X72&$7;>O o oo&.O@@",
"@+#.....111*%%OX..=@OX.X@O*&&X+OO>>X@07O o4:#-,  7,+>+o ooo X@6@",
"+OOOOOO$$$$$$XX.XO. .+#*1 o3&O$.+>;@-87Oo&: >7O.O@@,-. oo=X#O@-@",
".*$$$$$$$$22XXO.O#1#55.O% 43o.. +>;@>7@.&:< ;,# O+->  =ooX+++;-@",
"=o#%%$O222%%55.X#1=#55XO+.33 XX .+-,>,Xo&: .O#  ##  X ooX@@@@-@$",
". $O.X+O+++%O++Xoo1$#$$$#O:&=.. .O+X.X.o:o O+O +;O O.o&X+#$55#%#",
"O OOOOOXXOXX. oo&o$5$*$+--o:.1&.@@>+o..o:  X. ;->,o .o O+.##&.%*",
"* o .$$$# . ooo *X.$.$@->O&&.&&@;>7X&X. :.  o.@++;+o o.X*o oo=1#",
"O+O+O.=:44&o*.+,%%#O+..X,o&& & ;->0 3..=:Xoo3 +++;@ .o.o .o&.O@@",
"@+#*==:3&oo*%%OX..%@OX.X@O&&. .@>9>&35O&::4 3X+@@2$..=. .oo X@6@",
"+#*=:33&oo*%5XX.XO. .+#%@%oo.$..O>$oO$#3&&: .o.@@$o   ..o=X#O@-@",
".*o&3&o *O22XXO.O@@#XX.O@X4o.X$.* %O.$=3&:<o$.oX% % = XooX+++;-@",
"=o&3<o *%2%%55.X+>>;O.XO+.3o.XO*+;O O.<&&: . $$ *   < XoX@@@@-@@"
};
