/* XPM */
static char *SKSNAKE2[] = {
/* columns rows colors chars-per-pixel */
"64 128 31 1 ",
"  c #6B0F0F",
". c #7F1B1B",
"X c #8B2323",
"o c #9B3333",
"O c #8F2B2B",
"+ c #A73F3F",
"@ c #B34F4F",
"# c #5F0707",
"$ c #4F0000",
"% c #831F1F",
"& c #C76363",
"* c #BB5757",
"= c #670B0B",
"- c #D37373",
"; c #731313",
": c #5B0707",
"> c #BF5B5B",
", c #771717",
"< c #530707",
"1 c #430000",
"2 c #AF4747",
"3 c #A33B3B",
"4 c #470000",
"5 c #CB6B6B",
"6 c #E78F8F",
"7 c #DB7B7B",
"8 c #F3A3A3",
"9 c #EB9797",
"0 c #DF8787",
"q c #FFB7B7",
"w c #F7ABAB",
/* pixels */
"@++2O+O.o+o.,  =#$$<## XOXo+o%+@+&&o.XX%ooOooO+++OO+o+OOoOOoO% X",
"++@.OOXOO%  =$$$## ...XoooO..+*@@+@@X XoX..XXOooooXXooXX+XooX @+",
"@+ .oooO ###$## %Oo $#XOX.#.%%o2+++X.oo $$ OXXX..X.o+XXoO.o .&o+",
"X.@-3X   #$# ..XXX #X@*&+ .o. o+oo #..#$# .ooXXXXoo.. $, . X@oo@",
"o+&+ ##### .X%%XX O*+o&-3 .X  .X ##$4#, # ...XoX..Oo+&>.o.Xo@X@.",
"Oo+ :##$#.oooo+.#.+@@@&*+. XoX.  #11 . $ o@2+2+X.X@@3+66@.%+2+Oo",
"X  ## ## XooooX   X@@+o%= XX. $$11$,O. X@@2o*@oO.X@+o+&-X  Xo. #",
"####.. o*@@@*oXX  XoX $$##$$$1111 %o%#.@+oo+>&o .o@@o+&@ X..#$##",
"$# % X@+o333@&+.X+%#$$###$$11111#o&o  .o>+++@+... .Oo+@ XX..#$##",
"#.O% o@+Xoo+@O#X@o #<$####$$11$ %ooXoo X&&2.##.oO =#<#XOXXo.  ##",
" X%. .o2++++,$#..=$$######$11#...XOO3o %oX:$#   .. ...XXO.. #<$#",
". X+. +@+O $  ##$$#.%.   $11$o@ $@-@O. OO  %  ###:$#  ##::<$$$<X",
"o.XX %oXoX#  #$#  .oo.   $14 o:1+5@-@ .@+ #$4#      #= ###::<$ X",
"@oX X*+oo.##   .%%XXX.##$1#%+.$X>+*-X#%3 $$:#.XXOOoo  OX..  $$ %",
"+&+ %3X.#$: .o+&*X .X $$4#Xo@..&@o-@: X$$#   XXXo2@@X o++oXX#$=%",
"+*X#XX #1#%O+-6@@+. ##11#Oooo.%2@*5#4X=4.o+oooX.o@>@O.o@+OXo.11 ",
".@ <X $$#.O3@&-@@+.=$1$=.. oO# X>0O1< # o+++@>+o@**@+o@@+XXoX1$ ",
".#11 $$ ..o++@*@+O #$$ o,1 &+XXo>.<<$ Oo+@+o@2+>***@o+@*+Xo+..++",
"X.$$#$.O..ooooooX. #$ o@ $9q&O%X,# ##Oo@-@X.Xo>@+@@+OX@-*ooXX+oX",
"oo #$ ooXo+%O@+,.X#$$X62$O6&-o # .#$.o@&7+##O@-+o@+oOXo@@+o.o@o%",
"XX.#$X+oo--X@86o <4=%*>  6>+-+# .## X@5-*O, X@@X.ooX.OoO+@o X@oX",
".,,#$oO.+-&@*76o$$ +-6o.o@@>*...#=X%o@**5-@..oX##..  %ooXX. .ooO",
".,  $.. +-&@-6@##%o+&>%Xo+*-o#=##X+++&*@&&@.#.#1$####,OO #X&+XXX",
" $#.<XX .+*>->X##%@oo% X+*5@ ###X@@@@*@@@+O $#$$:###<#  $#o&@oOo",
" # .$++ #O@+@@oX..OooX# +-+ <, #X@&@@&5@oX $$#  XX. $1# # O+@@@+",
"XX+X<3+.,oOX*-+..O--->X .O    .XO@@o@5*o,#$# ..X++X. :$:#.X+@@@o",
"XXOX#Xo.+>..66o.o5-5-7&.$.X # +*OXO@&@o << ..# @@OO..X$1#XXO@@+O",
"., ,#,X.@o o7@Xo&5>+@-o  .   o-6+ .+*O=$# o+X#$X+XoO O 1$ .o>&+O",
", # $#..O.#o@X .@@O@*O=,.# %.o-6X$#O.44 OOO>>X,#$.%%%%%$1$#O@*@o",
"%% ###. .% .OX, XOo@ <  <,o+oo++o#: :4#OOXo@X X :#.@6o $1# O+@@o",
"OX,= ##$ .##.XO <,o $<##X*@*@X.++ :4: %XX+>X#=< X O+@+#11 .X+@>@",
"+OX,. ##  #$ XX ### ##.++o@&2o2+X#$:.OX#O>o<,#1 +XOXoo$1$.%Xo>*2",
"ooX.+X    $<##  ::   XooOX@&&*+.$$# .oo ..  #$X&o...oX$$#.%.o@+o",
"%+o oXXO+o.XX  XX.Xo@@o. o--@o.#1 @@  Xo. =,O3+o..X.. 1$.OoOXoX.",
"X+X#. +89@o@+@5@OO+--&@oo**@X#11 @5o %X..o@O  +-@XOX $4 OOOoXX. ",
".oO#X.+@+3oo+&7&oO>-**+oooo.#11 @+X   .o*7*,.@6>++X $$# oo  o2+X",
".%.-+ O@oXXo&69-oO@@@@o...#11$#.+X=# %o*-o X2@+ooX=$4 ..XX %@-&o",
"XX@-oO-w5oX3-77-+Xo+@+X. #$$#=# .    ,Oo.  Xoooo.$$# X+O..o@>@@+",
"Xo+@+@66-@o+*>5-@ .@@ooX#1$#%O,#.  #.XoX =## . #$:.Xoo%.%X+*@*@o",
"oX@2.+@@@@@@@@@5O#.@@X #4$=%+X,..  Xo+@O ### ### .XO3o%Oo.+>>&+O",
". Oo.X+o+++Oo++X##X. #$ %o%=X :$#.O3@&-@.# =$1$=.. oO# X+%O33%O%",
"o oooooXXoXX... $#  ;=X+**X  :$ ..o++@*@.  #$$ o;1 &+XXo+.%%$.O;",
"; # .%XO% . # ====;..=;.XX X#$.O..ooooooX. #$ o@ $9q&O%X;# ##=;%",
"o+oX;;=$44$#==;;;=%o+.;X>oX#$ ooXo+%O@+;.X#$$X62$O6&-o # ##$.o@@",
"@+%.....;;;;OOoX..=@oX.X@o;$$X+oo--X@86o #4$%*>  6>+-+# ### X@5@",
"+ooooooOOOOOOXX.Xo. .+%;; #1$oO.+-&@*76o#$$ -6o.o@@>*. ##=X%o@*@",
".;OOOOOOOO22XXo.o%;%33.oO 41#.. +-&@-6@.$$: &>% o+*-  =##X+++&*@",
"=#%OOOo222OO33.X%;=%33Xo+.11 XX .+*>->X#$$ .o%  %%  X ##X@@@@*@O",
". Oo.X+o+++Oo++X##;O%OOO%o$$=.. .o+X.X.#$# o+o +&o o.#$X+%O33%O%",
"o oooooXXoXX. ##$#O3O;O+**#$.;$.@@-+#..#$  X. &*-># .# o+.%%$.O;",
"; # .OOO% . ### ;X.O.O@*-o$$.$$@&-6X$X. $.  #.@++&+# #.X;# ##=;%",
"o+o+o.=$44$#;.+>OO%o+..X>#$$ $ &*-8 1..=$X##1 +++&@ .#.# .#$.o@@",
"@+%;==$1$##;OOoX..O@oX.X@o$$. .@-9-$13o$$$4 1X+@@2O..=. .## X@5@",
"+%;=$11$##;O3XX.Xo. .+%O@O##.O..o-O#oO%1$$$ .#.@@O#   ..#=X%o@*@",
".;#$1$# ;o22XXo.o@@%XX.o@X4#.XO.; Oo.O=1$$:#O.#XO O = X##X+++&*@",
"=#$1:# ;O2OO33.X+--&o.Xo+.1#.Xo;+&o o.:$$$ . OO ;   : X#X@@@@*@@",
";==;X+oooo%%% #. .O+X#.@X#1#.X,=o-o.. #$.,%,3@@3XX,<:...O+*@22X,",
"==O@o.X.%%,=$#o.OX.X++o.#$#X+X @&@>+.<$;.O %3@3.o,:< X3@+++@+o, ",
"X+@oO@OO  $1$.*7o#.+@@O#1 O+O.o+O+>+ <=.O,# .3%%X <:O3@O%Xoo%, .",
".X.+&>o $$11 68->XXo@+#1 +@o.o@+++O=<<=#,.OX.++X,:< o@@.  .X.,.X",
"o@+&@o 41$$X7&+@@XO+o#1 ooO%OOo+O $$<=# .o*o%XX,:$:.Xoo.#$#%X,.o",
"+22+X $1#.o&>o+-X#XX#14 .o+X.X+X <$<# X3o@&+.X,:$<:$,X.#$=X@@oo@",
"++O #11 oX+@O28+1O*,<<$.@@-+#.5+<41$#X+++@&o ::$<:$$ .  .O+@@@>>",
"@X #11 o3,o->-O1=@.$:$$@&-6X$X-%11###Xo++@&X$$$<:#  .OX..Xo@&&&-",
"X $14#%3+ X@+O+X.X$$ $ &*-8 1.@=1$## .XooooX$11# .o@&&&@oXO@&>&+",
"#11$44+8-++OX+@O.#1$. .@-9-$13o$1$#%o+&-&O.X#1$X+@&-&55*@++@@+X,",
"11==1.-@+*oOOo3O.$1#oO..o-O#o&%11:.o@*&79X +o# o*&5&&->@*@+++O $",
"1#X=X&+o@o.Xooo.<11 +@O., Oo.O.11#.+++>@OO-6oo**&&&*>@2**oOO <41",
"#OX O+@7o1.OXX.#11$ o+oo+&o o>X$$# XO++++@>++>>@>&@++++2ooO <$4:",
"X+ =.@6o1#>+X $111$ X.X&*->##oo :## Xooo@>@++@@@@@@o@>&2o% <$<: ",
"+%..,.OX .2O $$111   #.@++&+##o3X ##...O++++OO@@@oo@*3X. #<<<: X",
"%++@X Xo..X #$$111# #1$+++&@ .+@2XXO.$: XOOo..o+OO+OO% #<<<<< %+",
"O+-@X,O+X. $411111#. 11X+@@.#.@o.#.oo  ,.....XX%%%%%.;. #<<<# O%",
"X@>X .oX. $1111111$# #:#.@@##o07-+.+@oooOXoo%OoOoOOXXX... <<#,%%",
"+@. ..% #$4$####$$###<###XO O@*22-*OOooo% ..X+o.XXOXXOOOOX. =%,;",
"O#.+## #$$=.Xoooo. .. <1#,  o>@++>*X#.-7-&@O%+@O.OoXX%.O+OX.,==;",
"=<,.##:=..XXXo+X.  .o+X $$#...+@+>+#$@-@+&6> XoXOOoo. .oX.OO.%,=",
", =:: ..X*@, .oo+oX.Xoo.. $#.<4X++o .&*++@-& # %@&@@&o%+o,%OX.O=",
" # :; +@@-@. Xo+oo@o .ooo.=$#%..+o. .X+@2*&o.#$X@@@@@@oO@3, OX.,",
" ==#.O@++@.X..o@oO@o##XooO% $#,%XooX. 1$.oOoo  o-@++@+. Xooo+oX.",
". #=.X@>@.O+o  Xo++,$,O%Xoo.#<#,XX++OO 1 +oOoO%X@@+@&o ..%Ooo #.",
"O;=## ..#,o+@.<#.XX .@&o..XX  ###,  %oX..o++oXoo  .o+o. o@&*+3 #",
".X;=XOXXO..%X.,%Xoo.X+o+*o#.o..#<$$1$# O%XXooXo@O =OOo@XX@@+o@+ ",
".X; X,XoX. ## ..oo#$@@XX*@  +X.,#$1111$:=;OXXXOo++oOooooX+@oX+@.",
"XX;# =  =#$11 .XOo<$@*OX2o=X+.X;#=41111111:=;.%%OOOOo@+ #X@++@o.",
"XO. ####$111: Xo+@X X++++,#o3%%==<$41111111111$: .OOoOo+ $X76o# ",
".X. <<$41$:  .o+o+@+ #.+o .oO.,# ;; =#<#$1111111$# .OO++O= @o.%.",
"X%; <$4$$=..XXX..o+3 #.X o+X,;%%O%O%XXXXO. #$111111< .Xo..+&o...",
"oX; $$#:#,%+o%+@+&&o.XX%ooO;%O+++OO+o+OO+oOX% #$1111< %@X.+@+@@@",
"@.  $::##%O..+*@@+@@X XoX;.XXOooooXXooXXo++OoX% #$11$<;O+XX,o->>",
"@.#.#$:#:.#.%%o2+++X.oo $$ OXXX..X.o+XXo+OOo++oO% #$$$;O@+$#>-2*",
"o=#%:  ;= .o. o+oo #..#$# .ooXXXXoo.. $,OOOooO++oO.=##.O+o1%-@+&",
"X4#%##; = .X  .X ##$4#, # ...XoX..Oo+&>. XooO%o2+OoO%%O++%#o-@+&",
",<,=$ ; =;=XoX.  #11 . $ o@2+2+X.X@@3+66o.ooX%XoO%o+o+O+o  @&+>*",
"X, $$=#:##==##$$11$,O. X@@2o*@oO.X@+o+&-@.  .   XOo+OoOo....XooX",
"X :1 #44$<$$$1111 %o%#.@+oo+>&o .o@@o+&@X.XX@&@+X.ooX .Ooo%X..Xo",
". $<$4$$<$$11111#o&o  .o>+++@+... .Oo+@o .%o@oo@2 .Xo++*&+X, %XX",
".:<#<4<<<#$$11$ %ooXoo X&&2.##.oO =#<#XOX  +2Xo@+. o@ooo@7+ Xo.,",
" ##====###$11#...XOO3o %oX:$#   .. ...XXOX.Xo+@@O .@oOoo@&XX+XX,",
" ;..%.   $11$o@ $@-@O. OO  %  ###:$#    .Xo.#.Oo%.X++++@*X,2+X% ",
"..Xoo.   $14 o:1+5@-@ .@+ #$4#      #= ...Oo $ X+o. .O+o #+2OX  ",
"X%XXX.##$1#%+.$X>+*-X#%3 $$:#.XXOOoo  OX..  .. %..+@X. $ X2o..#,",
"XX .X $$4#Xo@..&@o-@: X$$#   XXXo2@@X o++oXX#$=%OOoo.X%.XOX. # %",
"O+. ##11#Oooo.%2@*5#4X=4.o+oooX.o@>@O.o@+OXo.11 O3O.XX.XXX. $:,%",
"@+.=$1$=.. oO# X>0O1< # o+++@>+o@**@+o@@+XXoX1$ ........ #:4:=%O",
"+O #$$ o,1 &+XXo>.<<$ Oo+@+o@2+>***@o+@*+Xo+..++.#<=#####$1$:,Xo",
"X. #$ o@ $9q&O%X,# ##Oo@-@X.Xo>@+@@+OX@-*ooXX+oXX.$11111111$ X2+",
".X#$$X62$O6&-o # .#$.o@&7+##O@-+o@+oOXo@@+o.o@o%oo 1111111$ .o2o",
";;4=%*>  6>+-+# .## X@5-*O, X@@X.ooX.OoO+@o X@oXXX.#111111# %3@o",
";# +-6o.o@@>*...#=X%o@**5-@..oX##..  %ooXX. .ooO.,,#11111$ .O@*X",
"#%o+&>%Xo+*-o#=##X+++&*@&&@.#.#1$####,OO #X&+XXX.,  $111$$ o@@+,",
"#%@oo% X+*5@ ###X@@@@*@@@+O $#$$:###<#  $#o&@oOo $#.<11$# .3@@o ",
"..OooX# +-+ $; #X@&@@&5@oX $$#  XX. $1# # O+@@@+ # .$11$ .O+@@.#",
".O--->X .O    .XO@@o@5*o;#$# ..X++X. :$:#.X+@@@oXX+X$1$# %o+++. ",
"o5-5-7&.$.X # +*OXO@&@o $$ ..# @@OO..X$1#XXO@@@+XX3o#4$ %XX333+X",
"&5>+@-o  .   o-6+ .+*O=$# o+X#$X+XoO O 1$ .o>&@+oXOX#$: .XX+@+++",
"@@O@*O=;.# %.o-6X$#O.44 OOO>>X;#$.%%%%.$1$#O@*@@+oo.$$#...X+@+oo",
"XOo@ $  $;o+oo++o#: :4#OOXo@X X :#.@6o%$1$ O+@@@++X :$  ..X*&@o.",
"XXo $$##X*@*@X.+. :4: %XX+>X#=$ X O+@+%:1: .+@>@@+X $$#  .o@@@. ",
";=# ##.++o@&2o2.X#$.O++@O>%$:$1=XXOXoO.:$=..o>*2+X ::$   ;o++o% ",
".;;%oX..+-+oO;O# X+@@&5@oX $$$$#;X.;..;:$ O+@@@+.#  $1$# .O+@@.#",
".%;2**O..O%;;  ;O+@o@5*o;#$# $$;X+X. ;;:$.X+@*>2X;;%$1:# %o+++. ",
"o+XO2*+.;.X # +*OXO@&@o $$ ..#$=XOO..X.1$XXO*>>@XX%o#4  %XX333+X",
"++O.%3O  .   o-6+ .+*O=$# o+X##;XXoO O 1$ .o>&>2oXOX#$# .XX+@+++",
"@+. ;.;;.# %.o-6X$#O.44 OOO>>X;#$.%%%%%$1$#O@>@@+oo.$#=...X+@+oo",
"XO.;#$  $;o+oo++o#: :4#OOXo@X X :#.@oo%$1$ O+@@@++X :$   =X*&@o.",
"XXo $$##X*@*@X.+. :4: %XX+>X#=$ X O+@+%:1:.X+@>@@+X $#.#$#o@@@. ",
";=# ##.++o@&2o2.X#$:.OX#O>%$;#1 +XOXoo%:$=%Xo>*2+XO::    ;o++oXX"
};
