/* XPM */
static char *SLADRIP3[] = {
/* columns rows colors chars-per-pixel */
"64 128 38 1 ",
"  c #2F2F2F",
". c #37732B",
"X c #2F6323",
"o c #3F832F",
"O c #439337",
"+ c #4B9F3F",
"@ c #53AF47",
"# c #5FCF57",
"$ c #5BBF4F",
"% c #6FEF67",
"& c #67DF5F",
"* c #77FF6F",
"= c #272727",
"- c #373737",
"; c gray23",
": c #13230B",
"> c #332B13",
", c #232323",
"< c #373F27",
"1 c #3F472B",
"2 c #43331B",
"3 c #434343",
"4 c #3F2F17",
"5 c #17330F",
"6 c #4F3B23",
"7 c #0B1707",
"8 c #170F07",
"9 c #4B371B",
"0 c #1F4317",
"q c #533F2F",
"w c #070707",
"e c #27531B",
"r c #474F33",
"t c black",
"y c #1B1B1B",
"u c gray28",
"i c #131313",
"p c #2B230F",
/* pixels */
" ,=:           > 4= >  2  = ,==5 ,,:= ---  =  -> q- > -     ===5",
"=,=, -         >= = >  2  = ,==5=,=,= --- -=   >    >       ===5",
"=,=:  <  - -   =, = > 2   =  , 5=,=:= ---5-=-  =,   4 -     =, 5",
" ,=,  << --    >= = 4- 2  = ,4 5 ,=,= -<-5- -  >    9 -     =, 5",
"===  -<< -<-   >,;= 4;-2-    , 5===== -<-0- -  >,;  9--   -  , 5",
"=,=, <<< <-<   >> = ;;-2--  ,4-5=, ,= <<<0- -  >> - 9;-----  , 5",
"=:=, -<<-<-<  -,> = 1;;22;- ,4 9=: , <<<<<<-  -,>   1;-;;;-  , 9",
"=:=  <<<-<<<   ,> , ;1126<- ,,,5=:   <<1<<<--  ,> , ;11;;;- =,,5",
" ,=: <<--<<;-  >=4= - <22<- ,==5 ,,: q<-<<<;- -> q- - <<<<--===5",
"=,=, <<<<<<;   >= = 6-6226- ,==5=,=, <<<<<<;-  >    6-<616- ===5",
"=,=: <<;;<1<   =, = 6<6996-  , 5=,=: <<;;11<q  =,   6<<616--=, 5",
" ,=, <<11<1<-  >= = ;6<2<1< ,4 5 ,=, <<1<11<-  >    ;6<<1<< =4 5",
"===  <<11<1<-  >,;= q;<6<<<  , 5===  <<1<31<-  >,;  q;<11<<  , 5",
"=,=, <<11<u<   >> = ;;<11;- ,4-5=, , <<1113<-- >> - ;;<11;-  4-5",
"=:=, <<11<u1- -,> = <;<1<<- ,4 9=: , <<11331- -,>   <;<11;-  4 9",
"=:=  <<11<r1-  ,> , ;1<1<<- ,,,5=:   <<113r1-  ,> , <1<111- =,,5",
"=:=,;1<11<r1- 4,=9= <;<1<<< ,4 5=: ,;1<113r1- 4,=9  <;<11;1 =4 5",
"=,=,q1<11<r1- 4>=9= ;;<11<- ,4 9=, ,q11113r1- 4>=9  <;<11;- =4 9",
"=,==;1<11<r1; 4, q= ;1;11<- =4q9=, =;13r13r1; 4, q  <1<11;- =4q9",
"=== ;1<11<r1; 4, 9  <;111<-    4==  ;13r13r1; 4, 9  <;<11;- =  4",
" == ;1<11<r1; 4, 9  <1;11;-    4 =  ;13r1rr1; 4, 9  <1<11;- =  4",
"- = ;u<11<r<; 4= 4  ;;;11<-=   4 ,  ;urr<1r<; 4= 4  <;<1;;- = =4",
" ,= ;<<<<<<<;  = 4  <;111<-=   >-:= ;<<<<<<<;  = 4  <<<111- :  4",
"-:=, ====,== ,  ,- 5      2:-  > ==, ====,== ,  ,- 5      2:,  >",
" ==  :::::::    = >:::::::::4  >=,,  :::::::    = >:::::::::>  >",
"=,== ::::,::-, =: >:::::::,>4==>=,,= ::::,::-, =: >:::::::,>>= >",
"=,, :::::::, , =: >,::::::,,,,,>=:  :::::::, , =: >,::::::,,,,=>",
"=:, :::::::, , =: >,::::::,,,,,>=:  :::::::, , =: >,::::::,,,,,>",
" :, ,,:::::,-: ::,-::::::,>,=,,> := ,,:::::,-: ::,-::::,,,>,,,,>",
" :,,,,,,,::,>:,,:, ,:::::,>,,,,> : ,,,,,,::,>:,,:, ,:::,,,>,=,,>",
" :, ,,:::::=>:,=::>,::::::,=   , :, ,,:::::=>:,=::>,::::::,=   ,",
":77:77777777:::777:777777::::::7:7::77777777:::777:77777777::::7",
" ,=:           > 4= >  2  = ,==5 ,,:= ---  =  -> q- > -     ===5",
"=,=, -         >= = >  2  = ,==5=,=,= --- -=   >    >       ===5",
"=,=:  <  - -   =, = > 2   =  , 5=,=:= ---5-=-  =,   4 -     =, 5",
" ,=,  << --    >= = 4- 2  = ,4 5 ,=,= -<-5- -  >    9 -     =, 5",
"===  -<< -<-   >,;= 4;-2-    , 5===== -<-0- -  >,;  9--   -  , 5",
"=,=, <<< <-<   >> = ;;-2--  ,4-5=, ,= <<<0- -  >> - 9;-----  , 5",
"=:=, -<<-<-<  -,> = 1;;22;- ,4 9=: , <<<<<<-  -,>   1;-;;;-  , 9",
"=:=  <<<-<<<   ,> , ;1126<- ,,,5=:   <<1<<<--  ,> , ;11;;;- =,,5",
" ,=: <<--<<;-  >=4= - <22<- ,==5 ,,: q<-<<<;- -> q- - <<<<--===5",
"=,=, <<<<<<;   >= = 6-6226- ,==5=,=, <<<<<<;-  >    6-<616- ===5",
"=,=: <<;;<1<   =, = 6<6996-  , 5=,=: <<;;11<q  =,   6<<616--=, 5",
" ,=, <<11<1<-  >= = ;6<2<1< ,4 5 ,=, <<1<11<-  >    ;6<<1<< =4 5",
"===  <<11<1<-  >,;= q;<6<<<  , 5===  <<1<31<-  >,;  q;<11<<  , 5",
"=,=, <<11<u<   >> = ;;<11;- ,4-5=, , <<1113<-- >> - ;;<11;-  4-5",
"=:=, <<11<u1- -,> = <;<1<<- ,4 9=: , <<11331- -,>   <;<11;-  4 9",
"=:=  <<11<r1-  ,> , ;1<1<<- ,,,5=:   <<113r1-  ,> , <1<111- =,,5",
"=:=,;1<11<r1- 4,=9= <;<1<<< ,4 5=: ,;1<113r1- 4,=9  <;<11;1 =4 5",
"=,=,q1<11<r1- 4>=9= ;;<11<- ,4 9=, ,q11113r1- 4>=9  <;<11;- =4 9",
"=,==;1<11<r1; 4, q= ;1;11<- =4q9=, =;13r13r1; 4, q  <1<11;- =4q9",
"=== ;1<11<r1; 4, 9  <;111<-    4==  ;13r13r1; 4, 9  <;<11;- =  4",
" == ;1<11<r1; 4, 9  <1;11;-    4 =  ;13r1rr1; 4, 9  <1<11;- =  4",
"- = ;u<11<r<; 4= 4  ;;;11<-=   4 ,  ;urr<1r<; 4= 4  <;<1;;- = =4",
" ,= ;<<<<<<<;  = 4  <;111<-=   >-:= ;<<<<<<<;  = 4  <<<111- :  4",
"-:=, ====,== ,  ,- 5      2:-  > ==, ====,== ,  ,- 5      2:,  >",
" ==  :::::::    = >:::::::::4  >=,,  :::::::    = >:::::::::>  >",
"=,== ::::,::-, =: >:::::::,>4==>=,,= ::::,::-, =: >:::::::,>>= >",
"=,, :::::::, , =: >,::::::,,,,,>=:  :::::::, , =: >,::::::,,,,=>",
"=:, :::::::, , =: >,::::::,,,,,>=:  :::::::, , =: >,::::::,,,,,>",
" :, ,,:::::,-: ::,-::::::,>,=,,> := ,,:::::,-: ::,-::::,,,>,,,,>",
" :,,,,,,,::,>:,,:, ,:::::,>,,,,> : ,,,,,,::,>:,,:, ,:::,,,>,=,,>",
" :, ,,:::::=>:,=::>,::::::,=   , :, ,,:::::=>:,=::>,::::::,=   ,",
":77:77777777:::777:777777::::::7:7::77777777:::777:77777777::::7",
" ,=:           >7ttttttttttttttttttttttttttttttt75- > -     ===5",
"=,=, -         57tttttttiyitttttiyitttttiyittttt75  >       ===5",
"=,=:  <  - -   :7tttttt8= y8ttt8, ,8ttt8,>,8tttt75  4 -     =, 5",
" ,=,  << --    57tttttt8= >8ttt8= y8ttt8, =8tttt75  9 -     =, 5",
"===  -<< -<-   57tttttt8, y8ttt8,;y8ttt8===8tttt70  9--   -  , 5",
"=,=, <<< <-<   57tttttt8,;y8ttt8=3y8ttt8, =8tttt75- 9;-----  , 5",
"=:=, -<<-<-<  -:7tttttt8,;y8ttt8=;>8ttt8,-,8tttt75  1;-;;;-  , 9",
"=:=  <<<-<<<   :7tttttt8,;y8ttt8,;y8ttt8,-,8tttt75, ;11;;;- =,,5",
" ,=: <<--<<;-  57tttttt8=;y8ttt8,;y8ttt8, ,8tttt7e- - <<<<--===5",
"=,=, <<<<<<;   57tttttt8,;y8ttt8,;y8ttt8,-,8tttt75  6-<616- ===5",
"=,=: <<;;<1<   :7tttttt8=3y8ttt8,;y8ttt8,-,8tttt75  6<<616--=, 5",
" ,=, <<11<1<-  57tttttt8=;>8ttt8=;y8ttt8,-=8tttt75  ;6<<1<< =4 5",
"===  <<11<1<-  57tttttt8,;y8ttt8,;y8ttt8= =8tttt70  q;<11<<  , 5",
"=,=, <<11<u<   57tttttt8=;y8ttt8=3y8ttt8, =8tttt75- ;;<11;-  4-5",
"=:=, <<11<u1- -:7tttttt8=;>8ttt8=;>8ttt8> ,8tttt75  <;<11;-  4 9",
"=:=  <<11<r1-  :7tttttt8=3>8ttt8,;y8ttt8>-,8tttt75, <1<111- =,,5",
"=:=,;1<11<r1- 4:7tttttt8,;=8ttt8=;y8ttt8> ,8tttt7e  <;<11;1 =4 5",
"=,=,q1<11<r1- 457wwtwtt8,;=8ttw8=;>8ttw8> ,8twtt7e  <;<11;- =4 9",
"=,==;1<11<r1; 4:7wttttt8,;=8ttt8=3>8ttw8> ,8tttt7e  <1<11;- =4q9",
"=== ;1<11<r1; 4:77777778,;=87778,;=87778> ,877777e  <;<11;- =  4",
" == ;1<11<r1; 4:77777778,;=87:78,;=877:8, ,877777e  <1<11;- =  4",
"- = ;u<11<r<; 4:77::7:78,;=8:7:8,;=8:7:8, ,8:::770  <;<1;;- = =4",
" ,= ;<<<<<<<;  :7:::7:58,;p8:::8,;=8:::t, ,8::::70  <<<111- :  4",
"-:=, ====,== , 57:5:55:8: pt0:08,;=8:e:t, y80:0:75 5      2:,  >",
" ==  :::::::   57:e50558: =t5O58,;,8e0Xt,;,80e5e75>:::::::::>  >",
"=,== ::::,::-, :7e0X0XOt,0ptX5et,;,85..t,;,8+.o:75>:::::::,>>= >",
"=,, :::::::, , :7.@e@o+t:0ptOo5t,;,tOO+t,;,t@#.o75>,::::::,,,,=>",
"=:, :::::::, , :7@eOo&#ty0:t&O0t,;:t&$$t,0,t%+O.75>,::::::,,,,,>",
" :, ,,:::::,-: :7.@.@#&::5::%+.:,0::%&&::0::*%#+7:-::::,,,>,,,,>",
" :,,,,,,,::,>:,,7.O@##%0:0:0%#o0:0,0*%#X:0:0**$+7, ,:::,,,>,=,,>",
" :, ,,:::::=>:,=7O@##@%+XeXo%#OoXeX@*$@oXeXo*%$+7:>,::::::,=   ,",
":77:77777777:::70+$#@o%%@@.O@@oOXO@%&$@oXX.X&&+o77:77777777::::7",
" ,=:           ><O++@.%%#@.O++oOXO@%$+OX1eoX&&Oe5q- > -     ===5",
"=,=, -         ><OOo+.#%#O.oo@.oXo@#+OoX1e.<&$Oe5   >       ===5",
"=,=:  <  - -   =<oOoO.#%@O.o.@.oe..#Oo.e1e.<#+O<:   4 -     =, 5",
" ,=,  << --    ><oOoo.@#@o.oX$.oeXX#o..e<e.<#+Oe5   9 -     =, 5",
"===  -<< -<-   ><.Oo.X@#@o.oX#.oeXX#oXXe<e.<#+O<:;  9--   -  , 5",
"=,=, <<< <-<   ><.O.XXO#+.XoX#.oeX.%oXXe<e.<#oO<5 - 9;-----  , 5",
"=:=, -<<-<-<  -,<.O.XXO@+XXoe$.oeX.#oXXX<<.<#oO<5   1;-;;;-  , 9",
"=:=  <<<-<<<   ,<.O.XXo@oXXo0@XoeX.#oXX.<<.<#oO<5 , ;11;;;- =,,5",
" ,=: <<--<<;-  ><.O.XXo@oeXo0#XoeXX@o<X.<<.<#o+<5q- - <<<<--===5",
"=,=, <<<<<<;   ><.O.X.X@.XXo0#XoeXX@o<Xo<<.<#o@<5   6-<616- ===5",
"=,=: <<;;<1<   =<XO.X.X@.XXoe*.oeXX#o<Xo<<o1#.@<:   6<<616--=, 5",
" ,=, <<11<1<-  ><.O.X.X+.eXo0*.oeXX#o<Xo<1OX#.@<5   ;6<<1<< =4 5",
"===  <<11<1<-  ><.O.X.XOXeXoe*.oeXX$oeXo<r@.#.@<:;  q;<11<<  , 5",
"=,=, <<11<u<   ><.O.X.eOXeXo0*.oeX.@oeXo<1$.#.@<5 - ;;<11;-  4-5",
"=:=, <<11<u1- -,>.O.X.eOXeXo0#.oeX.OoeXo<r$.#e@<5   <;<11;-  4 9",
"=:=  <<11<r1-  ,>.O.X.e.X0Xo0+XoeX.OoeXo<r@.#e+<5 , <1<111- =,,5",
"=:=,;1<11<r1- 4,=.O.X.e.X0X.0+.oeX.+oeX.13+.$eO<:9  <;<11;1 =4 5",
"=,=,q1<11<r1- 4>=.O.X.e.X0X.0+.oeX.@oeX.13O.$eo>:9  <;<11;- =4 9",
"=,==;1<11<r1; 4,=.O.X.r.X0X.0+ooeXX@oeXX13o1$e.,5q  <1<11;- =4q9",
"=== ;1<11<r1; 4,=.O.XX1.X0X.e+..eXX@o1Xe13.1$e.,59  <;<11;- =  4",
" == ;1<11<r1; 4, .O.X.r.X0X.e+..eXX+o1Xe1r.1$e.,59  <1<11;- =  4",
"-5= ;u<11<r<;54= .O.X.r.X0XXe+..eXXOouXe<1.<$e.=54  <;<1;;- = :4",
" := ;<<<<<<<;5 :,.O.X.1.X0XX5+..eXXOo<Xe<<.<$e.=54  <<<111- : 54",
"-:=, ====,== 5 5=.O.e. .X XX0+..eXXOo=Xe=,.<$0.55- 5      2:,555",
" := ,::::::: : 5:.+.e.:.X:XX0+..eXXOo:Xe::.0$0.55 >:::::::::>555",
"=::5,:::::::-: ::.+.0.:.X:X.4+X.eXXOo:Xe:i.0@0.:5 >:::::::y>5:55",
":5:0::::::::505:5.+.0.:.X:X.5+..XXXOo:Xe::.0@0o:55>5::::::::55:5",
"5:005::::::55:e50.@.0.:.X:+X5+.oX..Oo:Xe:+.X@.Oe.e555::5::5:5050",
"e0ee55:::5:50ee0e.@.+.+.X5XX0+e+...@+5Xeee.+@e@.o..05:55:500X0ee",
"eeee05:555:5e0XeX.@++$++X5+X+$.O+o.+.5@e+.+O+@#+#.o.e555550eXeee",
"X.Xe05555550XXXXX.+$+++$$@$$.$&&$@##@@@++@+@@#%#@+O.e550550eXeXX",
"...Xe000000e..OOo+@OOOOO++++OOOOO++++.o++@@@+++OO++++o....ee...."
};
