/* XPM */
static char *SLADRIP1[] = {
/* columns rows colors chars-per-pixel */
"64 128 38 1 ",
"  c #2F2F2F",
". c #2F6323",
"X c #3F832F",
"o c #4B9F3F",
"O c #53AF47",
"+ c #5BBF4F",
"@ c #5FCF57",
"# c #67DF5F",
"$ c #6FEF67",
"% c #77FF6F",
"& c #272727",
"* c #373737",
"= c #373F27",
"- c #232323",
"; c #13230B",
": c gray23",
"> c #17330F",
", c #0B1707",
"< c #332B13",
"1 c #3F2F17",
"2 c #3F472B",
"3 c #43331B",
"4 c #4F3B23",
"5 c #434343",
"6 c #27531B",
"7 c #1F4317",
"8 c #170F07",
"9 c #070707",
"0 c #4B371B",
"q c #533F2F",
"w c #474F33",
"e c #1B1B1B",
"r c black",
"t c #131313",
"y c gray28",
"u c #2B230F",
"i c #37732B",
"p c #439337",
/* pixels */
" -&;           < 1& <  3  & -&&> --;& ***  &  *< q* < *     &&&>",
"&-&- *         <& & <  3  & -&&>&-&-& *** *&   <    <       &&&>",
"&-&;  =  * *   &- & < 3   &  - >&-&;& ***>*&*  &-   1 *     &- >",
" -&-  == **    <& & 1* 3  & -1 > -&-& *=*>* *  <    0 *     &- >",
"&&&  *== *=*   <-:& 1:*3*    - >&&&&& *=*7* *  <-:  0**   *  - >",
"&-&- === =*=   << & ::*3**  -1*>&- -& ===7* *  << * 0:*****  - >",
"&;&- *==*=*=  *-< & 2::33:* -1 0&; - ======*  *-<   2:*:::*  - 0",
"&;&  ===*===   -< - :2234=* --->&;   ==2===**  -< - :22:::* &-->",
" -&; ==**==:*  <&1& * =33=* -&&> --; q=*===:* *< q* * ====**&&&>",
"&-&- ======:   <& & 4*4334* -&&>&-&- ======:*  <    4*=424* &&&>",
"&-&; ==::=2=   &- & 4=4004*  - >&-&; ==::22=q  &-   4==424**&- >",
" -&- ==22=2=*  <& & :4=3=2= -1 > -&- ==2=22=*  <    :4==2== &1 >",
"&&&  ==22=2=*  <-:& q:=4===  - >&&&  ==2=52=*  <-:  q:=22==  - >",
"&-&- ==22=y=   << & ::=22:* -1*>&- - ==2225=** << * ::=22:*  1*>",
"&;&- ==22=y2* *-< & =:=2==* -1 0&; - ==22552* *-<   =:=22:*  1 0",
"&;&  ==22=w2*  -< - :2=2==* --->&;   ==225w2*  -< - =2=222* &-->",
"&;&-:2=22=w2* 1-&0& =:=2=== -1 >&; -:2=225w2* 1-&0  =:=22:2 &1 >",
"&-&-q2=22=w2* 1<&0& ::=22=* -1 0&- -q22225w2* 1<&0  =:=22:* &1 0",
"&-&&:2=22=w2: 1- q& :2:22=* &1q0&- &:25w25w2: 1- q  =2=22:* &1q0",
"&&& :2=22=w2: 1- 0  =:222=*    1&&  :25w25w2: 1- 0  =:=22:* &  1",
" && :2=22=w2: 1- 0  =2:22:*    1 &  :25w2ww2: 1- 0  =2=22:* &  1",
"* & :y=22=w=: 1& 1  :::22=*&   1 -  :yww=2w=: 1& 1  =:=2::* & &1",
" -& :=======:  & 1  =:222=*&   <*;& :=======:  & 1  ===222* ;  1",
"*;&- &&&&-&& -  -* >      3;*  < &&- &&&&-&& -  -* >      3;-  <",
" &&  ;;;;;;;    & <;;;;;;;;;1  <&--  ;;;;;;;    & <;;;;;;;;;<  <",
"&-&& ;;;;-;;*- &; <;;;;;;;-<1&&<&--& ;;;;-;;*- &; <;;;;;;;-<<& <",
"&-- ;;;;;;;- - &; <-;;;;;;-----<&;  ;;;;;;;- - &; <-;;;;;;----&<",
"&;- ;;;;;;;- - &; <-;;;;;;-----<&;  ;;;;;;;- - &; <-;;;;;;-----<",
" ;- --;;;;;-*; ;;-*;;;;;;-<-&--< ;& --;;;;;-*; ;;-*;;;;---<----<",
" ;-------;;-<;--;- -;;;;;-<----< ; ------;;-<;--;- -;;;---<-&--<",
" ;- --;;;;;&<;-&;;<-;;;;;;-&   - ;- --;;;;;&<;-&;;<-;;;;;;-&   -",
";,,;,,,,,,,,;;;,,,;,,,,,,;;;;;;,;,;;,,,,,,,,;;;,,,;,,,,,,,,;;;;,",
" -&;           < 1& <  3  & -&&> --;& ***  &  *< q* < *     &&&>",
"&-&- *         <& & <  3  & -&&>&-&-& *** *&   <    <       &&&>",
"&-&;  =  * *   &- & < 3   &  - >&-&;& ***>*&*  &-   1 *     &- >",
" -&-  == **    <& & 1* 3  & -1 > -&-& *=*>* *  <    0 *     &- >",
"&&&  *== *=*   <-:& 1:*3*    - >&&&&& *=*7* *  <-:  0**   *  - >",
"&-&- === =*=   << & ::*3**  -1*>&- -& ===7* *  << * 0:*****  - >",
"&;&- *==*=*=  *-< & 2::33:* -1 0&; - ======*  *-<   2:*:::*  - 0",
"&;&  ===*===   -< - :2234=* --->&;   ==2===**  -< - :22:::* &-->",
" -&; ==**==:*  <&1& * =33=* -&&> --; q=*===:* *< q* * ====**&&&>",
"&-&- ======:   <& & 4*4334* -&&>&-&- ======:*  <    4*=424* &&&>",
"&-&; ==::=2=   &- & 4=4004*  - >&-&; ==::22=q  &-   4==424**&- >",
" -&- ==22=2=*  <& & :4=3=2= -1 > -&- ==2=22=*  <    :4==2== &1 >",
"&&&  ==22=2=*  <-:& q:=4===  - >&&&  ==2=52=*  <-:  q:=22==  - >",
"&-&- ==22=y=   << & ::=22:* -1*>&- - ==2225=** << * ::=22:*  1*>",
"&;&- ==22=y2* *-< & =:=2==* -1 0&; - ==22552* *-<   =:=22:*  1 0",
"&;&  ==22=w2*  -< - :2=2==* --->&;   ==225w2*  -< - =2=222* &-->",
"&;&-:2=22=w2* 1-&0& =:=2=== -1 >&; -:2=225w2* 1-&0  =:=22:2 &1 >",
"&-&-q2=22=w2* 1<&0& ::=22=* -1 0&- -q22225w2* 1<&0  =:=22:* &1 0",
"&-&&:2=22=w2: 1- q& :2:22=* &1q0&- &:25w25w2: 1- q  =2=22:* &1q0",
"&&& :2=22=w2: 1- 0  =:222=*    1&&  :25w25w2: 1- 0  =:=22:* &  1",
" && :2=22=w2: 1- 0  =2:22:*    1 &  :25w2ww2: 1- 0  =2=22:* &  1",
"* & :y=22=w=: 1& 1  :::22=*&   1 -  :yww=2w=: 1& 1  =:=2::* & &1",
" -& :=======:  & 1  =:222=*&   <*;& :=======:  & 1  ===222* ;  1",
"*;&- &&&&-&& -  -* >      3;*  < &&- &&&&-&& -  -* >      3;-  <",
" &&  ;;;;;;;    & <;;;;;;;;;1  <&--  ;;;;;;;    & <;;;;;;;;;<  <",
"&-&& ;;;;-;;*- &; <;;;;;;;-<1&&<&--& ;;;;-;;*- &; <;;;;;;;-<<& <",
"&-- ;;;;;;;- - &; <-;;;;;;-----<&;  ;;;;;;;- - &; <-;;;;;;----&<",
"&;- ;;;;;;;- - &; <-;;;;;;-----<&;  ;;;;;;;- - &; <-;;;;;;-----<",
" ;- --;;;;;-*; ;;-*;;;;;;-<-&--< ;& --;;;;;-*; ;;-*;;;;---<----<",
" ;-------;;-<;--;- -;;;;;-<----< ; ------;;-<;--;- -;;;---<-&--<",
" ;- --;;;;;&<;-&;;<-;;;;;;-&   - ;- --;;;;;&<;-&;;<-;;;;;;-&   -",
";,,;,,,,,,,,;;;,,,;,,,,,,;;;;;;,;,;;,,,,,,,,;;;,,,;,,,,,,,,;;;;,",
" -&;           >,rrrrrrrrrrrrrrrrrrrrrrrrrrrrrrr,>* < *     &&&>",
"&-&- *         >,rrrrrrrtetrrrrrtetrrrrrtetrrrrr,>  <       &&&>",
"&-&;  =  * *   ;,rrrrrr8& e8rrr8- -8rrr8-<-8rrrr,>  1 *     &- >",
" -&-  == **    >,rrrrrr8& <8rrr8& e8rrr8- &8rrrr,>  0 *     &- >",
"&&&  *== *=*   >,rrrrrr8- e8rrr8-:e8rrr8&&&8rrrr,7  0**   *  - >",
"&-&- === =*=   >,rrrrrr8-:e8rrr8&5e8rrr8- &8rrrr,>* 0:*****  - >",
"&;&- *==*=*=  *;,rrrrrr8-:e8rrr8&:<8rrr8-*-8rrrr,>  2:*:::*  - 0",
"&;&  ===*===   ;,rrrrrr8-:e8rrr8-:e8rrr8-*-8rrrr,>- :22:::* &-->",
" -&; ==**==:*  >,rrrrrr8&:e8rrr8-:e8rrr8- -8rrrr,6* * ====**&&&>",
"&-&- ======:   >,rrrrrr8-:e8rrr8-:e8rrr8-*-8rrrr,>  4*=424* &&&>",
"&-&; ==::=2=   ;,rrrrrr8&5e8rrr8-:e8rrr8-*-8rrrr,>  4==424**&- >",
" -&- ==22=2=*  >,rrrrrr8&:<8rrr8&:e8rrr8-*&8rrrr,>  :4==2== &1 >",
"&&&  ==22=2=*  >,rrrrrr8-:e8rrr8-:e8rrr8& &8rrrr,7  q:=22==  - >",
"&-&- ==22=y=   >,rrrrrr8&:e8rrr8&5e8rrr8- &8rrrr,>* ::=22:*  1*>",
"&;&- ==22=y2* *;,rrrrrr8&:<8rrr8&:<8rrr8< -8rrrr,>  =:=22:*  1 0",
"&;&  ==22=w2*  ;,rrrrrr8&5<8rrr8-:e8rrr8<*-8rrrr,>- =2=222* &-->",
"&;&-:2=22=w2* 1;,rrrrrr8-:&8rrr8&:e8rrr8< -8rrrr,6  =:=22:2 &1 >",
"&-&-q2=22=w2* 1>,99r9rr8-:&8rr98&:<8rr98< -8r9rr,6  =:=22:* &1 0",
"&-&&:2=22=w2: 1;,,rrrr,8-:&8r,r8&5<8rr,8< -8rr,,,6  =2=22:* &1q0",
"&&& :2=22=w2: 1;,,,r,,,8-:&8,;,8-:&8r,;8< -8r,,;,6  =:=22:* &  1",
" && :2=22=w2: 1;,,,r,,,8-:&8,,,8-:&8,,;8- -8,,,,,6  =2=22:* &  1",
"* & :y=22=w=: 1;,;;,>;>8-:&8;>;8-:&8,,;8- -8,>;>,7  =:=2::* & &1",
" -& :=======:  ;,>;>;>;8-:u8>;78-:&87;7r- -8>,7;,7  ===222* ;  1",
"*;&- &&&&-&& - >,>>;7>>8; u8;768-:&8;i>r- e8;p;6,> >      3;-  <",
" &&  ;;;;;;;   >,67.;.>8; &r.6i8-:-86Xir-:-8ipi>,><;;;;;;;;;<  <",
"&-&& ;;;;-;;*- ;,i67.66r-7ur6pXr-:-8X+#r-:-8#.X7,><;;;;;;;-<<& <",
"&-- ;;;;;;;- - ;,o.X6i.r;7uroOor-:-r#+pr-:-rpX#X,><-;;;;;;----&<",
"&;- ;;;;;;;- - ;,oXi.iore7;rOO+r-:;r++#r-7-r#iO.,><-;;;;;;-----<",
" ;- --;;;;;-*; ;,+oXiX#;;>;;@+#;-7;;#+#;;7;;Op+i,;*;;;;---<----<",
" ;-------;;-<;-;,+OoXo#7;7;7#O#7;7-7#O+.;7;.oo+i,- -;;;---<-&--<",
" ;- --;;;;;&<;-&,#+Opp+i.6.i+O@p.6.X+OOOpiXppo+o,;<-;;;;;;-&   -",
";,,;,,,,,,,,;;;,7#+OppOiXi.pOoOOX..++ooOi6ppXXoX,,;,,,,,,,,;;;;,",
" -&;           <7+OoXXoiXX.pooOooXX+pppO.6XXiXo. q* < *     &&&>",
"&-&- *         <=pOpXipiXi.XpoXopXX#XpXO26Xi.io2    <       &&&>",
"&-&;  =  * *   &=pOXiiXiXi.XXoXXXXi#XXXpw.i..io2-   1 *     &- >",
" -&-  == **    <=X+X.iiiXi.XioiXXii#XXip2.i..ip2    0 *     &- >",
"&&&  *== *=*   <=X+X..iiXi.XioiXii.#Xi.p26i.6ip=-:  0**   *  - >",
"&-&- === =*=   <=i+i.i2iXi.X.oiXi..#X..p=6i=6.X=< * 0:*****  - >",
"&;&- *==*=*=  *-=iOi.i2iX..X.oiX...#X..X==i=6.X=<   2:*:::*  - 0",
"&;&  ===*===   -=ioi.i=iX..X.oiX...+X..X==i=7.X=< - :22:::* &-->",
" -&; ==**==:*  <=ipi..6iX6.X.o.X...+X..X=7i=7.i2 q* * ====**&&&>",
"&-&- ======:   <=ipi.i6ii..X.o.X6..+X6.i==i=7.i2    4*=424* &&&>",
"&-&; ==::=2=   &=ipi.i6ii..X7O.X6..+X6.i==i=7.i2-   4==424**&- >",
" -&- ==22=2=*  <=ipi.i6ii6.X6OiX6..pX6.i=2i=6.i2    :4==2== &1 >",
"&&&  ==22=2=*  <=iXi.i6i.6.X7+iX6..pX6..=2i=7.i2-:  q:=22==  - >",
"&-&- ==22=y=   <=iXi.i6i.6.X6+iX6.ipX6..=wi=7.i=< * ::=22:*  1*>",
"&;&- ==22=y2* *-=iXi.i6i.6.X7@iX6.ipX6..22i=7.i=<   =:=22:*  1 0",
"&;&  ==22=w2*  -=iXi.i6i.7.i7@.X6.ipX6..2wi=7.i=< - =2=222* &-->",
"&;&-:2=22=w2* 1-<iXi.i6i.7.i7@iX6.ipX6.62wi=76i=&0  =:=22:2 &1 >",
"&-&-q2=22=w2* 1<<iXi.i6i.7.i7+iX6.ipX6.625i276i=&0  =:=22:* &1 0",
"&-&&:2=22=w2: 1-&iXi.iwi.7.i7+Xi6.ipX6.625i276i= q  =2=22:* &1q0",
"&&& :2=22=w2: 1-&iXi.i2i.7.i6Oii6.ipX6.625i276i= 0  =:=22:* &  1",
" && :2=22=w2: 1-&iXi.iwi.7.i6oii6.ipX2.62wi276X= 0  =2=22:* &  1",
"*>& :y=22=w=:>1&&iXi.iwi.7.i>oii6.ipX2.6=2i=76p= 1  =:=2::* & ;1",
" ;& :=======:> ; iXi.i2i.7.i7oii6.ipXy..==i=76o= 1  ===222* ; >1",
"*;&- &&&&-&& > > iXi6i i. .i7oii6.ioX&.i&-i=76o7>* >      3;->>>",
" ;& -;;;;;;; ; >-iXi6i;i.;.i1oii6.ioX;.i;;i7>7o7> <;;;;;;;;;<>>>",
"&;;>-;;;;;;;*;>;;iXi6i;i.;.i>oii6.iOX;.X;ti7>7o7> <;;;;;;;e<>;>>",
";>;7;;;;;;;;>;6;>iXi6i;ii;.i>oiX.iiOX;.X;;XOi7o77><>;;;;;;;;>>;>",
">;77>;;;;;;>>66>7iXiOiOiX;.i7oiO.iOOX;.@;op6>7o77>>>>;;>;;>;>7>7",
"6766>>;;;>;67.i76@XO6i;Xo>.@6@XpioiOXioX@@Op7XoXO777>;>>;>77.766",
"66667>;>>>;77.6piippOiOpo@.io+ooXoooopi+@@+X@o@oi.X7>>>>>>76.666",
".i.67>>>>>>66..ipiOpOiipOoO+@#@O@OO+@@$$%$@@O@$@Oi.7>>>7>>76.6..",
"iii.67777776iippoopOpppOO++++@+poO@@@Oo+@+popOOppiXii.....66iiii"
};
