/* XPM */
static char *SP_ROCK1[] = {
/* columns rows colors chars-per-pixel */
"128 128 92 1 ",
"  c #131313",
". c #373F27",
"X c #7B7F63",
"o c #272727",
"O c #6F7357",
"+ c #5B6347",
"@ c #676B4F",
"# c #474F33",
"$ c gray50",
"% c #939393",
"& c #838383",
"* c #8B8B8B",
"= c #1B1B1B",
"- c #170F07",
"; c #070707",
": c #232323",
"> c #53573B",
", c #9F9F9F",
"< c gray31",
"1 c #777777",
"2 c #2F2F2F",
"3 c #3F472B",
"4 c #BFA78F",
"5 c #13230B",
"6 c #6F6F6F",
"7 c gray70",
"8 c black",
"9 c gray28",
"0 c gray75",
"q c #B7B7B7",
"w c gray67",
"e c #0B1707",
"r c #2B230F",
"t c #332B13",
"y c #0B0B0B",
"u c #1F170B",
"i c #373737",
"p c #A7A7A7",
"a c gray39",
"s c gray23",
"d c #979797",
"f c #9F876F",
"g c #5B5B5B",
"h c #A78F77",
"j c #AF977F",
"k c #B79F87",
"l c gray34",
"z c gray78",
"x c LightGray",
"c c gray42",
"v c #434343",
"b c #CBCBCB",
"n c #4B4B4B",
"m c #DFDFDF",
"M c gray86",
"N c #FFDBC7",
"B c #8B735B",
"V c #937B63",
"C c #3F2F17",
"Z c #FFE3D3",
"A c #67533F",
"S c #FFEBDB",
"D c #533F2F",
"F c #FFCFB3",
"G c #9B7F6B",
"H c #E7E7E7",
"J c #6F5743",
"K c #1F4317",
"L c #775F4B",
"P c #FFD7BB",
"I c #675333",
"U c #5F4B37",
"Y c #775F3F",
"T c #5B472B",
"R c #4B371B",
"E c #17330F",
"W c #574333",
"Q c #533F1F",
"! c #4F3B23",
"~ c #EFEFEF",
"^ c #7B634F",
"/ c #F7ABAB",
"( c #9F8363",
") c #8F7753",
"_ c #FFEBDF",
"` c #836B4B",
"' c #FFD3BB",
"] c #836B57",
"[ c #FFFFD7",
"{ c #43331B",
"} c #FFC7A7",
"| c #FFC79B",
/* pixels */
"+@g@9.k4;=:...<+6<6a*$*X  .&>$,+%fX5va1%w0FSn=  =5rt%zd*&,77&161$$*,p#O.j=2:w1@X>$6aX3*+,pXOXO6*O+@++3OXuuo  u-=       -5.--lna#",
"aO#.u-q7D-2..+.<66g1&*pg;--#++@#3u-=5s$$,70Sn=  =u.@>>X$&&7q,,XX&&**w++#+:&#w&6g$l&$@+++>$&<OOO@OX>X+>fs- 35-=- u       ;-g&<.#:",
"+3urtox04;o...o.+6X6*17=- -e-;-uuo5i:9l@%,0'n=   :X#>@+j>X40X&w%%&**k@@$&;=%7%%<w$%w*%++OXX<X+#O.@+3+s9>; 99 =  =u      =%1<s i=",
".tt<61xqZ2ur...O1g$$%,f8     55:tt:.99*9$*7Fn=   X#>#@@+fpjk4w0&,Xf+X1t*q;8@w,$>$,<,%d,wcOO+XO+O.%+s99>2 =.$c = =      y.X622=l ",
"t.apw%z4Nh-9rgo.O@6$$7:-    5::oo.3%6OXdgvO,n==<=XpXXX.@f4qXqz7OO4>efo:hqy=:7,,16,@$d*&,$p,+OX#<@s.9&92#u=OO@1o = =    8+>@2o-= ",
"a&wwBBP40No-@.aa+O$$k+;    =o:o.trt@+OXx0=#Xny9M1e&pX@d+wf4Yq4q7O$3et--j$ 5;x*,@X*a1,*6*&,,%q.3@#K9#,2o.u=X@O&d=       e+.9: =  ",
",7q4t^Nq0Zh;###d&1$*7-  = ==r..o..O+*X#jj0==..+OX<u3e>+*XqkqX4zz0zxwpgs a--o7,1O%%%&p&,,w%*,,o5s.o+o%:3-u=&OX@6v = :   -3tt=== A",
"774h;oN0q0N2- -8.#@Ou-   =o:#<+t-OX@X++##X:9*o>eX.Ou8O*X%4h4YXh44q00xbHb7&ne0$%c*10<*X*pwd*q%iu#r.#3$.# u=+O$+O*2  == -u#o=   A4",
"j7/D-8jx04Nh;== --;--   -o..OOp<C.+K3#3tu3E>e#>:+.99+,%,0h400TX444k404zz0HMx7*%a%*,6d%X*&7Opp:.339s.X#9:u=@OO@@$*y===  ===   A47",
"44f-=;Xb00P48=          - <.#**+y;:>>u#ot3e+.5cc17q&b%Oj44FzFzTX4hj4400440qxq*$$p$&&$%%,6dOpx #o.>.>#no3u=>&@+XX*82=   = =  A444",
"44r tl-kb/Pf;= =   =    -e:t.O>p=y=H$ 3.+3>,9+d%0#q@ZfOjqzq0Fx4Tzj44444h444z41dpw11&&1%%,%1,z229o#v..5#cu=#@@XX*&8===  = = Affff",
"4J-23.;ix0N+-=       =   --..#%m2;;b$+6p*@7,pjj4Orf#[q*440}0zbS2Xz444jfh44qxw$,&6g*%%OXX,&$pq=i9o3#.#5.>u=t+@+@X*;  o=     ABBfB",
"Bu#soo=-q0N2-&=  =  =-   --o=8w~iy8066b0z&,,Xk@O-5#Obhq04qF04zF4rXq4ffXhkk4xqXX*&1a%%&%67$X%b2i>t##..u:#u=5tr+3X,v  =o    =ABfBB",
"LOX+to2<x0P-27l  u-2r-    - y8$S68.XOOj%4dX*&pXpp;e04jj4q4F040qZJT4zk0+%k440zX,&*$O$&*%1,$p,7o=92.a..o==:=9+&@35X<;       =AAAAA",
"j4$+tt@wwbq8$m,-= -i.       y %,X<1O*p#4h,&7X,$,qn+x47jqzq04bz0qx2X0zq>>4044xO&*Xd*X@0XXX&%pz2 to.X d6&%1*7*f4+8#3y      ==     ",
"7j@>rXfjX44g,p72 = =i       y:b0*q,0zb O,%$7*,@b1%70k4qzz0Fzxx0qz7rz40@@0x0kZ@6p<%71a,X1&XO,b<=o5QQO7@$%hfhhfh@;2:      ==      ",
"4XO>u4fOhX$wX0z1.-  # =     ;;7,*,p,,m%-Xp%bpd%Hj4j0qqq4000zFF0z0xXYN047Nqq4k&6%O$wc%d%$&&*%w1 2oQRwXXkhVffjf4- 2= =            ",
"j@+.#7fhf$X+f7,do=5e>;9o-   -8#$%7w%b0m*C7z0xq7Sjj4qq4q40400zxzzq4PXqz4)k(4O+,$X@<%6*1*$$&*%%$ oeR>dXjjhffhjqa; i=      ===     ",
"$+3.&7$fX%f.Xhqd>uoe287n-    y8.w%pqXXqx<tjzxx4N4VOkkj4q0044|zFF044hjhXh&VO>r*X%>6w+*1&1p*1,,aor;C,XXhfffjhjq- =i=      .== =   ",
"@#+p%*f*OX&+Xf4kOia=o84o-     ;8%*0xl-Oj0Of0074h@OItt3+fh44400z0fffh4XX&X*k::@XXX+$O11%%,*,1,1 2C>%@hkfXhjk4]; =o-     oi== :=  ",
".+74OX%*X++X+&f7,$Z urr3  --   8g0zbm1yr47fkOht.X-+X.@UO{@Yh44kh7$f4hX*Ojwj#p1aa$g%6,6&$&*6&,1 . qhOBfhfhk4/y  5s-     o=r2. =  ",
"5@ph+*kOX@*$&%7$$4#;   t.= -   ; Mb7wxp:;+>u@q7i2.5tiK+3fhO4Of4rw&VX4XfhXX&X,*>&667&m$1&&d1*&c.;*qffffjf)j4Jy== 2     =5t.6o-  =",
"o+*dXk%+>*&X,*h@7X8   -u99- -  y+m0w,,q%>...b%*%%s--u-e.e+OO@Xj-tOhfjXXj&`@O.X>%&@Odpw&,X,&%p12txVVfjfhjf4z;  = o=    ==t+$s  s<",
".6,$fO*O$pXkX7OqO-e    5tj--   ;bxqwX&dO@O>b$*X,72= o=s+5.#>.X+r:r#OO@>Q>#X@;8X+O+w&*wXX&$&&p6 &Z4XhjhhVYV>y  = o    -=..@#.y+,:",
"@X&@XOX.Og,fqO+4y     o:5#<=<621~mdX++d+.#.726+9@$+#<$s$.#&.3O#o@y##+3.Xo.>Xs8e3>6*%XO*%*&dc7@5+4G.!Cru--uu ==o2 =   -5K>$&g8+&v",
"XXXOOOXkXXX@@@qu-   e=2o5t#:p,6xmM_d++k$eX319pO:>&<.#+3EO>.#X.+37 .3@o+3.:##X -;+7X,$&6wwO*1qntuT-ur-uru=:o==:@&o==  -:>a&dg=edv",
"0XO0XXO$4Ohq*@y     yo1teu=,1$nHMMMHdd*3.X..O$@.@@<+#.#l+>5OX<9:puu@35>rr53r&l-8-h*$*%X1%p&a%$o:u == o=5=:== r&1.22  ee+g$*<o.+=",
"4zToqk$hjGq4#u =    ;#M=;2w&cn2HmMMMS7w2@t1<O>%:><>O#>>>@#.X+1>#X+;.to: ==:e>1=8--$$>+,*ww1d*O%<c==5 u = o5 58+5++o  ee6@$6a$ sl",
"o  ikqthGXh#-===-=2 ;oS289w@9oyxZmmmNq*o3.+&..##3.O@>#>9O.KO>*3#>Xy::5u    utX9;8t-$$+&70&Op6*aO<a<<o    oe  - .c<v- e-XXX69+.o#",
"o;2w00;tur.u5   e=*=y;m28,&#..eqZ~~mxwd=<3da..,t9o<<#3>19KtX#h.,+#o      - 5oX%>;  o$$$qdOOOOX$,<+OO#:        - oni== y@@X@X:.o#",
" 8O2_h-:u=:=    -:w=-8zO<7.s#:ezm~~mx7$o1@O9#O#oO.#@.9##.+E++*3X3O.-      -u3.Xq--  -$$>@<$O>*Od9OO<#:=        -5os=:- X>t@X:#2t",
"2s*@Hf-======    :*O=;fXbO8X.:2HM~~mzq&2w>.@#o+.++9@>r@+>Xe1#O@O+%9;      -5u>Ow%;   ;O@<+1@&OXO.O+#o.:=         =:o5e86>tO&y.r3",
"l1&kmX-======     wp:8Oq7tuoo+XmM~~m077#0g2*..<>#93Ol:*#+X @+>Oh.,+;      -=E+Xkx$y -5X<<&>$@>O&OOsour.2=         5o  ;<s;,l O#*",
"2XX40%i===== =  <8#XX;,xwl9opzwxM~~m0pwOd.&6s=X3O<..OoO+#h:#c@+*+&c;       5r@X%h1=y<O>#1%O%OO@&Xso o:5s:             e<e>%gvO@X",
".*s0Xa7o==== = =&8e.w.qx1l&wz,+0Z~~mx7,OOc1a<op@@<39&t6#<0=#&>1OX,c8      eu.X>#e-eok@.>XO>++X@X#=o:oe..s=           = ot&Xn*+6&",
"iz;k# 7d< ====eo#; 87@0b+$7j4,+ZM~~m0kqsaXj>,9X9O+#<X.3l<%=@@XX6>w@8      -5ue-- -oh@$.XO>p@@O>&o i o .=3o           =55+O1g6#XX",
"O1f,#8+X*ao =   oy2 +,k&<j4;OjXMM~~mz,wn9X>+OO+3O>@>O91.+X=+>*+&OOa;       -    y.$+&&O@O+X>XX3#:.o5u:o:ro:  =        5u+&g13#%@",
"$<4##tvo*qli= = 5y2O;$Xd4,68thXZM~~mzj0Xv&O#+O+>>@X+@+@.Xg.+X*O6@0cy           y2&,s@>$O>@O@&Oao.r==ooo2uro -9:       reX,.+6.O@",
"wghtX+*o2&%$=== =- &l;*q4z28o&&mM~~mxpq+gXO.Ov<O#&+a+<+:6.2X6a1XOmcy           y%#9>X>$<OX+O+<@.3=2 to=:2 o ;1,=      :r>,#O$.$.",
"%j.>dgaLv>+.29   e-:$o#xxO2; $%mM~~mzww16$l#6.X*@cX<O>.eo+#Og+*cXX1y          y%*+<X*##X1<1p>.35. =t5:=is-o-.O11      ;+&O=*OsO+",
"1$e<%&w44jrt;9l-   -t==kzl,-;a*xMm~mz4,,&&a<*.*>Xc>O9&=8..*9vOpcqc*8         -87q$a1,g<&XO>,-a9 o :s:erti 5 0@1$c;    yX%:+%<$@%",
"XXi.%&w44X-9u-2-    =eOj4.O.9iX0MMMMzdwX@$93p.*>,c>O3%<;-;:oo1&c***8          8<q0&%,l*O%X+.-@:.o==.o :o: -@O11gco   -3>*8+O9+= ",
"*@3#&wk4j>uWi       ye@%*X>#nO#j0PMMxd7@6@+>O#$cOc>+#+1;-----o3.t,+8          -8l7$q*&,+O*+uo3o:+3r=o=:o2;<X#+s66a2- e.e:-   -6 ",
"O+#&rw44jtr>#r     = 8rq>4r@o69CU4PMN4jtX@@>.<OO+@@OO@O=-   - e5>+.;           -;**7%db*$+t5@:5t+:2:o:=:2ya$1+3O*6n;         ;$&",
"u@@$#q44BtC>!>=    r=; 7@X3$#a6+-tkzz7Xt#O+1<a6+OO@@>w+oy    - e5+o;            8.7*%,,%01e X=-<. :o=i o 1#gg6vs@@a          -.q",
"#1&#&44jLO>.3A.-     ;ip3O.1d99$ay f40+Xs&.+%*OO*@6+@&@ -      -uooy            -8<p&,,p,7s a :>.:=o-o =#<O@.9.@.g6n;      = 5e&",
"k@aOf74jTXO#3A32-  -vl7$6O%#XX<1%+@JkbX#.@>@O,X$&$@+O@Xi        -==y             5 1dd,,%7*=9..O s== =:rOli+9o69.+Xa:      = 5 :",
"7$+*h04BI>.3t!C>-- 8,*a%0%077777zzx4qz1s#<@XX$%O$6#%#o<+#=     -                  e:0$p*,,q62#9>;#:=  .3@@l,<o#@>36as-        o-",
"7,XOk0jJ>rrtr3t>o- 8&*<1wdwwpwwwzxxZfx+6:X+XO>O>>>K5Xr3+@ov2        =            =#:&X*&w*07g##>8.-o .#O9l+$<.o+Os*.9-        u5",
"d0jfkbjYAr:3t.t>D=-867@XO+hO,,,,000Nf0X..+1:9o<.Oe.9.5Xt+ $9o= - =-:o< -   ;    ee#.#.*%,%7%%$=2+o 5oO#.Xs.#@<.O*il       ==  .O",
"4xwj04(J{urt3t.##3-;ixX<wX7>dd%dw04xz7X3yX>#9.O +-#.+y<.r #><o=-  s..aa;  ==      ur5.**%**%%%2u. =2o$3o@.##@OtO<        : :-.&X",
"7qqk44`B3ror.tr##C2;20&+6&,>k$$%4q44N0+.#+%@29.#oeOtoo51e5o#.ii @XOOt<g= yr    ;:o  :p71&&&&&&&2. <1:Os2.9.#.O.=-- = =   =o=E@O6",
"hf44j4IB.rrrttrt..> yp*X&O7+jkX%w40hqz.:OOX#r.tt5r3i:.=O&2ee 69uX7*&+O:5=;9    - @= 77qk&gO$O$$$65@d.O+<<.3O2t    =  = = =:+<<OO",
"uDGGffJI3rrrrro=u#D.8,&g1X$O7X&%wwhXhq&>+X.X#-:i=o::.=y*%;:eyq6>9o+6.: <s+ nnnn ;:::b77d0&+X<>Xdl>>@6++#@3.o           =  e5#+O+",
";DAAL`@O#rttt=r.t3.3 <,>O%6Xp6,%wwfk4XqO0ku.:=9117pw*@X#r =e=p%&&*vo-e>O$>nhIB@n -e;qq7d7w6aX.@>#X@#X<@2. 5=           =  =:5.Oo",
" DDAAYd*O%<crrr..#.tt=1@&%+616*%%0dkhf7XqzX5;:Zxx0,b07@-o==y:6$1&*&7<s--3&qJIL>Xl  8Xq,,pw,1X+O.#>X+3+u ==             =  =2-;+<",
";;WW(Xp6*aO<a<<...3.rrw*a$X@1X&%+qk$47fh4k$$88Xqqq4xN+; oo:;.a%&*1X*d$s;844>A>COcl;;.z,w7d7wl%O.9O&.5====             == eo=y:w=",
";;iiIX@XX$,<+OOa.53tr-X*1XdX1X&,OqXk$0jO4hq$#;;jx70S+- 5oo -=;6*pw%&$01=;xjA#O.@Vci;-pkwwd,b**O@#+.-===               == -# ;i+8",
" oo@<$XX*Od9OO<+:u.tur-j1XbXd$%dXjfq$qX$%k,*6#;yhxZO;==-O -=e;vXXdX*O,wvixV!#$.@kVly8Xqj7wkqw%&+o-    =      ==     5 =o-=i   =-",
"  @<+1@&XXO.O+#o.:torr;6%$pX%1$d%XhX$w%%@4fk6#-8rzX8===8M=   8ivc,O*&*Ovlk@#.+.@hjcn8+0,w,k4qzw  = ==         :=== == o2;9     e",
" X<<&>$@XO&OOsour.ot:ue#w6%@%X+0X,$wfXwO,*X$#o 8%k;-= 28xvo: ;oi<%$%$bOvvvAA3>3OV)Vl;eqqwwk44xs == =          o=2=t=3.225$=    e",
"O>#1%X%OO@&Xso o:5srruuyp$$$*da,,@*d$$%Xh&1#u- #M#- 5 o;b3#.2 ;i=a,&,0O   vvv.#@LVhc88$q4j,,q7; ===           oo9=2.:<*k ==o   <",
"@.>XO<++X@XX=o:oe..sr==81pa*%$6%*&&%h**6>#.- -rqX@9=e=58w3#.9rs28i1&%zO      vv3@fkl;;3khw77xg;==       =   -=.2o:..=#X%%=a6s#ok",
"$.XO.p@@O>&o i o .=3o=u  ,X$$@X,*Xf7$,pO# uo eyXO>0 u= 8q3#>9+oX ;&a+0+    ii  ivfci-y.&Xq7wb= =      =:2  = :#..o#9=++XXX**$Oh@",
"&O@O+X9XX3+:.o5u:o:ro:=58sz%g$%@p**$&X#==  =  e.++j>355 b33>>>-+.:aX$7>r iLV>>i  ii8= u3@%77w;=       so=-29-...o<.>3>3hhj1&X$+&",
"1$O#@O@&Oao.r==ooo2uro5=- **g,Xf0$$O: -    ==:@&:jOOp==ob@3<>>.3#oiO+d38;LfVO#.3i  ; 5.5eo7b,8=     -r.@:-s2u.2.>..@>.$hX%$X&,s@",
".$<OX+O+<@.3=2 to=:2 o 5=-=*$,$Oqio.;   yi2.>O#%.w#O*+ii73@9#>.Oi=e%+,:;8L0V+O3+cso-= 3t 8<01;      -.t*t-.oot#o<.###@jXfOd$#9>X",
"o#X1<1p>.35. =t5:=is-o ===8sw+,.o ---   8@<X@X@ i%;wp,.:X>O<##.<#58fX+- ;:xfOO@Oc98 oo:#o 8s:      - t>*o-55t.699@++3&XX$$%*+<X*",
"g<&XO>,-a9 o :s:erti 5==u - ,@.8      --;5l.XOk==:oqqX*sO>@.#.#+.@;3%o   8O7fLJcai- :.r.i2  oo-    y3>>,  -t+>s<9..1+6O$h$7q$a1,",
"l*O%X+.-@:.o==.o :o: -== o=;.r-8<6l=2iy-ye.+%Xk= y2&+<p#,3X.>>.+#X;2%8   y844OOcg; =:.o.:o=- ==    e O+O-=e.3+@g<#+p+g+%@@dq0&%,",
"&,+O*+uo3o:+3r=o=:o2;uu= o -  -;-O0>O@ --yo#>Oq8 y=,3*Oo.#@3X>.##O-:=-    ;rgjcg9-gO<3+9.9i-        .oXO5  yX69>#X%%v1+OX+,*7$q*",
"db*$+t5@:5t+:2:o:=:2yuu--- --=-y8od%*qt;-y<OX*+8 -5%%XhU##3+9.<>@$;      =y8ivvi-<&3ii++++o     ==o3+.,+ o oM@O+$*&19$+XXXd$**7%",
",,%01e X=-<+ :o=i o e--    --=--;8Xj.+;--;+.O@t;i@..+$fGU>53#+#.+j  :  -ii-8     XOoo33X#<i   oo.#@>>u3< r.>x.%%%%*<9X1$X+fh@7*%",
",,p,7s a :>.:=o-o =- - ---      yy.5;-- -;utO:>+BX+.O%%GRo;e+@#.>1o=<--;7&;-8   hOXX>.8+3@.-+#3++@Q...:o-;O.j>OXO$16sO*@j$O%@kp&",
"d,,%7*=9..O s== =ir; - ---  -2-  y---    -e5@=>Bf%XiX%fRr2y81q$+ =oe*;-+7X2--= +fkX>uuu--..9m0pOIJ3t.r#o-;&E+O@j%**nncX%%X*,$41d",
"$p*,,q62#9>;$:= lx,=------    -== ------ --uto5BBG%i@ORrUoe8g1@*&= ;..K>%Ooy-:->XXWu-    e;XNzpUU3>3t.9=y8&,vaOX+$7g1%kav9@&avr0",
"X*&w*07g##>8,-oix7*7=- --    =-uo5 -----  e5:ur;^^Vi.Rrr ---yg1%*da e.<@#@><=-e.5+o-      -@ZPd>D3>3.t+e-;Xppl%&jO,6%$v2= = r2-&",
"a%p,%7%7$=2+o ;q*%6X$ -   - - ===o= -  --   .o.5 5iiWi2i=o-e;-gg%p06-810w,0H%8 y@.u      5-Xxx*.33>#>u@--ef4w6%,&*@%$vrrro:====v",
"cp,,*,%px2u@  *w1*g$wc; - -  - :=ot  --- --euo.r==29ri==9& -  ;g1X,z:8&qp,w778 :S1a       8,zM$.33#>3tO-e-%%,$&&X*1d,8r2vvvg@9vO",
"<6gd*7d,7p2> %q**&*%**9 -- - - .-=u#u-- ---  55 =:OoeOio@29i:  -gb** ;%,qf,,d;-2b$X%Xso=  8,0xc#.##>3.+--8O%$n%$X*&pa;-:%1g&glv+",
"6l+XXOD]wp$ &,%a*6&&$X7>;- - --.uuu<==         eK.3::#ie6..<32=er0X681pp%,%d$;-8++>kfhh*<2-,zxOW3>>3##@;-e*%1g&*X$,*9;#>wO116icl",
"<al<$O$s;@D+z$,1%%&$@j,d.y-  -  oe r2lo-     --.oer2oot2g++ris<8.* 2o1d*%&1d#   8.kBAOVfAXrp0b^C3>>!@+3yy.%Os&$$X&w&=<%X*$&%*<19",
"@<Xl*3dO-v@7*@w1&%%16*$%<=--   -   ousl     ---2oe:5euyXX+  ..o#Oh+8;X,O%&,b8  =e3zV40OC.+Cp0N9#t.3>#r- e.@>a,4Xlg0cv*g61*&&as+$",
"X+@@X@+O.82p&aa&%*6,XO1*7<-;-  - - =i;O==-    y-.9  -oy.5yy.<@@qX>%=8=$p&O%78 2 uOqOzq<;-r#p0NDC.3>C-==  .>Xk4XO6XO$v6+$@@=2s y+",
"@O@O+++X6:8=%,6&*1*,1$+%fN<;- --   -ot# -- --= eu6<:=oe-  e..d+&X+O%8;oO%1*6;=s+#Oq>7tyo+Xhpb0-C3.u--o=teOO>+$#@o@O9.3o+9 o::r5 ",
"9XX9O6O66+;8i*6%&%$&*$&%kZ78--- -   -: - -  y 3o8@%+--   =.;3XOXfO+7---8XXX# .-#.>+4: $j0tXpp%-rXr-=-+:@@<<.X+>6@.O.+ey yoo  :e5",
"3O$+611$$+; 8266*1,X&$1w0ZO;  - - =    - -   ;@ y.5e-  - i2;5>a#$+$*<8@  ##-5o  y:ee@>f#$us%f<uj[v== <;3@&@.$31>+++55           ",
"3$O<6a$6,4.; 8<<16&&$$&qbS#;- -  - -  -- -  e<X --    -e.:8+; gv$9X%#;&--i   =5:#- ;.hk<.8.f:sj4zX =5o 9#.>$1@<Oio-             ",
"+aO6aa$+&k+; y;o16676$$0bN y--   -          <hO -       .e8q e..69&X<2$eeoe= o   =--.O#..8i%-rXzqgy= 5;jO..33gg5o-            -r",
"@3@$<+%<$7@;  y;ga6*6$,zNj8--     -  - - = <+q+;    -  5.;8&:2g;&XpOO:.e 555;@oo=- :oO.y y@@8.@77%iy  e:+8:<=<9         5oo   sa",
"OX>@l61Xdjh2y  -;<ccc1p0S<; ----- --      =OXwg;    -=:2 y5>92O=e%#ab:9; = =;i@>l;<o55o  ;>3;Otfq,692- eoy-.:+2=          =   s*",
"O+@6#$1O%X%2; -y 8*6c1w0N=y -   -- --== ee:XX,O;     -95-;<..@g <-aq&*.-o      o>o.r#o-  -r+X&y$pXOg&:      =#.=    -22   =  sva",
"XgXXlg,@*kz#; -- 8va16w0zr;  -----=-y =5o-eX+w$;      r---<a-O$=+a,b@w =o-=    -.39=o@8  -;.%18j%Og+<d:=   -e :     =$o-      s@",
"X@16X$16*kq<;-----:s%c%k0v;  - ---o ;-y..:3+XqO;    -- --u% rO..a,70V1; ==   ==-2.33rc8 =-e3q<8&da+#>#9<=   -s1dl;- .X.-     vsO",
"$g1<&O11%*zG8--yy ool@,$@o; ----  :t--;r.53+O,@8  -    =-.% @.ea$q4zgo- ==  ew2;o..co+-- -eX7.8o1gv<*vl<#a= -y@q$8 e5+=     =-s*",
"&$%a1*$&1k4X8---; &:29,*;------  o=o=-;: y3+X,d8      - 5<p5@i-*%p,b<-     e+, ;.3u+9#:- yuOq;-;1.@@nl#.@vg2 ;=%q;=5u.2       v9",
"$**1$Xad@d>v;--y;;%69 gv;--y    e:5o.=;=2;3+&f$8        eO< c9aw4h7bg; : -u;wl--=Oe@s#.- e>7l; -#.O<o+X2g2##>e;w$=2uo i=       *",
"c*a&1Xfa=<92;---y8gp&;=----; - :  o=o#-;X-3+X*78       ee*#9na,qkdpm<y &; -;42y ;Xt##Os -r+c; -=<2$o<%#:#.nX*-u::ou tr=os-   s9a",
"a*$$,6ny:<9 ;----8-%<;   ------r:5:#u##;@=3+O708       - *+Xa%pw,dkm:y=*--  *  =-@:#-:+=e === ;O@.O+<@oollw*Ogy=o=i=s5roio    9a",
"a$1%a5:=t.=l8---yy;   o-o2 --y-e#-.9:r#ea2s+&%0;    - -= locOdpw%p,Ho;=X2yys78  y#>22-t-;-i:- ;+#:+%oO&##>fd6+o::ou#u=ru3:.-  s9",
"6$><2 o5.=iX8------ == =e#o-;y- 2oo.s5io >+*$40y      -:.:8s*,,wd4,x -e3X;y:q = =e;a%$O<; =   8@3s$%i6X>+O4O#1o5+:-9t=->3X5o=  s",
"c<=9==.5i5@.;---y---   =5:l y---#95#ro< =&+Xf*0-     -e::-8<*w%,,dw7; y:X2;8<a= :;1d*O%<c<    y.6O&>t+*.@*,s86X.g -3ouu@,>sa=i22",
"::9:ero=t=s:;-------  =:eo2 ;--y.o+>ei@;<XX1*Xb       =.oe=7Ow,,d%0<; y#><=-8%a;;&<p6*aO<a<<  ;3XXc#8O%@@@6;;9%so  =<t3@#@2oo++i",
"sr. :o==re@3;-------    o 2 ;---..:so#+811+@$+x      -u3 y@k6,w,,p1;  o.Ot<;y=O;d<<@+X$,O+OOa ;+hO# ;.j+X$y  >&O> =tX+3O9#:+<o. ",
"i5ruio  :5# ;yy----  e= =e.o;-y5#.:3ui;:*&*$kX68     - oe.3>Xwpdw%y =o*33#O;-;8>@<$+#*Od@OO<+:oOwsy:9o+.*<  i2+w@ .OO##.#g@.2 =:",
"== #2r=- :928--y-- o  o  y# ;-e2.523 yy@+%<oo=y--9 =   =-yo#Oq,,%; o>.po99=<;;;@<+1@&<XO+O+lo.:7$o-o3=;:s o.+i2%*+.@Xv<..+.2==  ",
"o=5oo-.-=o>;y-y-y--  - -y-: ;y-ooo   ; vO&=:;=o-e+#5:o = y=&w4,w=yi1+#1.+=o,-5X<<&>$@<O&OOlour.2o=ou.  = = #hdi21@@.O+>.#o====  ",
"o:5u:-o=: =y;-;---- o ==-y- -y-5i :  8t#w<o 819i ;wX:o-  ; O7pwvyy.OOlo&>8*y<O>#1%+%OO@&Xl5 o:5s:9-.-i -o#X#X&di9O@a<<.s5===== :",
"==o-::t 5  -;---  o=5::#s=-----=5= t-;3908  8%+yy=qw9-   -;#776;= y>X59,-geok@+>XO<++X@Xlio:oe..s=.3-o ;#.%++@Odi9++v9:  == 2=-9",
"i-oe .=-=:;-- e so. oo.9OO2;---   i0 y3X48  8$oy Xq0o     -=m1; = -=c9.6o-oh@$+XO+&@@O>lo i o .=3o  =o 8++#&O@9gdi<+= :   = o=5t",
"u==   =  o - -=:>o9.:<+++$o;---  lx,%;Ofw-- ;lo8f0hf1=    ;Op;   =-c$@#sy.$+&&O@O+X+XX3i:.o5u:o:ro:   o:t3.OX*@+dco:  ==   : =r5",
"= t. o#=uo2:o-==<.#3.O#+2:;-----ix7*7=-*7-- ;o-t4khg.o    ;>l =  s8Oq#.y2&,s@1$O#@O@&Oio.r==ooo2uro +e>t..>@@Oal&qc = ==  eo  =5",
"uoo>  .o52.=2o-9#o.##<@=;-y--- ;q*%6Xw=-d;   -yX4$gi5. -  - ,&= n<8$01 y%#9>X+$<OX+O+i5.3=2 to=:2 o>3@+...O@@9O@&&,= 5:= =-o = 2",
"oo.oo=<:=.i=.oo-5>O>s@o;----y  *w&*&$%$ -;   -;Xkgiyoi=o- - +#ot  ;*$oy%*+<X*++X1<1&>555. =t5:=is-6#+X...39#<n9+&6&d-=== =s= ==.",
"t2rs:=ro=o=++<ro-iX+3-;--- yr %q*&&1&$wc;     ;Xkio-.5.=-    oO# ;2&ooa7q$a1,g<&XO>iia9 o :s:erti.#>4<..33#>g#<l@$1$d;== == ==o=",
"@r5..oo:=52<3>u1o-a=;y------ &,%&**&*%*dn -  ;=7Oou.5r:=2-  5u+. 82o5@&<q0&%,l*O%X+.-@:.o==.o :o: .+Xg...3>+g<cc1&c169- =   5i =",
"@O2=l2:o .22+#9OOo-;-------D+z$,1&%&&&$%7n;- ;i&> lyot  g;   -e# y:o210 l7$q*&,+O*+uo3o:+3r=o=:o-- .X....3>>g<ac&c1g&19     =:2 ",
"@r5..oo:=52<3>u1O.a=;y----;@7*@w$$%%&$&%dp.y-;=7O>u.5r:=2-  5u+. 82+5o&5;**7%db*$+t5@:5t+:2:o:=== u.Xg.i.3>><+cc&&c1619 =   5i =",
"t2rs:=ro=o=++<r@2iX+3-;----vp&aw$1&%%&&*$dwn- ;Xk1o-.5.=-    oO# ;2&aoooo.7*%,,%01e X=-<+ :o=ii8----.<ii3.#@g+g1@$1669== == ==o=",
"oo.oo=4:=.i=.vgg5>O>s@o;---82%%7&&%*6,X&&*p7n-;Xk$syoi=o- - +#onn ;*$$v   <p&,,p,7s a :>.:=o-o-------.i#3#>>@g+6&6&69=== = = ==.",
"uoo>  4G52.=2g6$*g.##<@=;-y-8=6,6&*1*,1$&%fNn-yX4$1s5. -  - ,&= n<8$01@X9; 1dd,,%7*=9..O s==. ------ .+..#>@@+6&&&$9 5:= =-o = 2",
"= t. of0Go2:v6$**%%3.O#+2:;--8i*6%&%$&*$&%kZno-t4kh9.o    ;>l =  s8Oq#.Xh+s:0$p*,,q62#9>;$:3-----  2ue>t.#>@@O1&&d9 = ==  eo  =5",
"u==   40GG -g66O6*%%:<    o;--8266*1,X&$%w0Znlo8f0hf2=    ;Op;   =-c$@#spfw:>X*&w*07g##>8,>.---  r2>2uu:t3>OX*&&d+o:  ==   : =r5",
"a&wwBBP00No-@#@O+616k+;    =o:o8<<16&&@$%qbSn=9M1e&pX     44q4q7O$Bet##j$ 5;#>%p,%7%7$=O+>.--  ttK+#,2uu3oX@O&d&   2   e---- =  ",
"t.apw%z4Nh-9+<+.g66%*7:-    5::o;o16171&,x'Sn==<=#pXX   =4qXqz77O4>fBo#hqy=:>.>,,*,%px2>O3-  tt<@>XO&#2uu2OO@1& = =     ------= ",
".tt<61xqZ2ur.<6o6XX*1,f      55:t;ga1*1$wbNSn=   o+7===+fpjk4w0&$Xf+X1t*q; @w>.>**7d,7p2>  r.O+OX%+>@>>2 =.$c&= =      y-----=- ",
"+3urtox04;o.#<#66916*17=- -e-;-uuo;<cc1%z0SSn=   :rOX.+j>X40X&w%%&**k@@t&;=%7%>..3***wpt t.<X+#OO@+*++X>; 99&=  =u      =---- i=",
"aO#.u-q7D-2.O+<6+6g6&*pg;--#++@#3u-8*6c%00NSn=  =u.rOkX$&&7q,,XX&&**w++#t:&#w&6g>l>u.33g>$&<OXO@O*>X+>fX- u5-=- urr     ;----.#:"
};
