/* XPM */
static char *STARG2[] = {
/* columns rows colors chars-per-pixel */
"128 128 78 1 ",
"  c #5B6347",
". c #434343",
"X c gray23",
"o c gray28",
"O c #533F2F",
"+ c #373737",
"@ c gray39",
"# c #5B5B5B",
"$ c #1B1B1B",
"% c black",
"& c #6F6F6F",
"* c #675333",
"= c #B34F4F",
"- c #AF4747",
"; c #A73F3F",
": c #838383",
"> c #4B4B4B",
", c #2B230F",
"< c #775F3F",
"1 c #AB6F43",
"2 c #131313",
"3 c #979797",
"4 c #9B633B",
"5 c #A7A7A7",
"6 c #4F3B23",
"7 c #43331B",
"8 c #1F170B",
"9 c #9F9F9F",
"0 c #9B5B13",
"q c #732B00",
"w c #874307",
"e c #BB5757",
"r c #676B4F",
"t c #474F33",
"y c #53573B",
"u c #3F472B",
"i c #6F7357",
"p c #373F27",
"a c #937B63",
"s c #7B7F63",
"d c #17330F",
"f c #775F4B",
"g c #8B735B",
"h c #9F876F",
"j c #6F5743",
"k c #2F2F2F",
"l c #232323",
"z c #272727",
"x c #533F1F",
"c c #5F4323",
"v c #9F8363",
"b c #4B371B",
"n c #0B1707",
"m c #836B57",
"M c #13230B",
"N c #A78F77",
"B c #7B634F",
"V c gray50",
"C c #875733",
"Z c #777777",
"A c gray42",
"S c #67533F",
"D c #3F832F",
"F c #6B4727",
"G c gray31",
"H c #774F2B",
"J c #2F6323",
"K c #AF977F",
"L c #CB6B6B",
"P c #2F371F",
"I c #BF5B5B",
"U c #5F4B37",
"Y c #574333",
"T c #939393",
"R c #1F4317",
"E c #7F532F",
"W c gray34",
"Q c #BFA78F",
/* pixels */
"uuuuuuuuuuuuuuuuuuuuuuuuuuuuuuppuuuuuuuuuuuuuuuuuuuuuuuuuuuuuuuuuuuuuuuuuuuuuuuuuuuuuuuuuuuuuuppuuuuuuuuuuuuuuuuuuuuuuuuuuuuuupp",
"uuuuuuutytuuuuuuuuuuuuuuuuuuuuppuuuuuuuuuuuuuuuuuuuuuuuuuuuuuuuuuuuuuutytuuuuuuuuuuuuuuuuuuuuuppuuuuuuutytuuuuuuuuuuuuuuuuuuuupp",
"ttt y      y    yy  y y     ytuutttty      y    yy  y y     ttttttt y     y      yy  y y   yytuuttt y      y    yy  y y     ytuu",
"yy issssssssssssssssisissssi yytyy isssssssssssssssssisssiis yyyyy isssssssssssssssssisisssi yytyy issssssssssssssssisissssi yyt",
"y isgavvvvvvaavvaavagagaaassi yty isgvvvvvvaaavvvvavagavagssi yyy isgvvvvvvaaavvvaavagagaassi yty isgavvvvvvaavvaavagagaaassi yt",
"y sgvvvNvNvvNNvNvvNvvvvvvvasiiyyy sgvaaaaavvvvaaaavvvvvvvvagiiyyy sgvvNvNvvNNNNvNvvNvvvvvvasiiyyy sgvvvNvNvvNNvNvvNvvvvvvvasiiyy",
"yyigsssggggssgssssgsgggggssgsiyyyysassssssssssssssssssssssgasiyyyyigssggggssggsssssgsggggssgsiyyyyigsssggggssgssssgsgggggssgsiyy",
"yy iiissssiissiiissssssssiiss yyyyisiriirirriiiiirrirrrirriss yyyy iissssiisssiiiisssssssiiss yyyy iiissssiissiiissssssssiiss yy",
"yyy iissssiissiiiisisissiii  ytyty  iriirirriiiirrrir rirrir yyyyyy issssiisssiiiiisisissii  ytyyyy iissssiissiiiisisissiii  yty",
"yyyyyyy y yy  y yy  yy   y  ytuyttyyyyy y yy    yyy yy  yyy yyuyyyyyyy y yy    y yy  yy  y  ytuyyyyyyyy y yy  y yy  yy   y  ytuy",
"ytuuuuutyyyuyyutuuutuuttuuutuupytuuuuuutuuuuuttuuuuuuuutuuutuupyytuuuutyyyuyyytutuuutuuttuutuupyytuuuuutyyyuyyutuuutuuttuuutuupy",
"yupppppuuuuuuupupppuppuupppupppytppuuppupppppuuppppppppppppppppyyuppppuuuuuuuuppupppuppuuppupppyyupppppuuuuuuupupppuppuupppupppy",
"yuupppppppppppppppppppppppppppuyyuppppppppppppppppppppppppppppuyyuupppppppppppppppppppppppppppuyyuupppppppppppppppppppppppppppuy",
"yyuuuuuuutuuutuuuuuuuuuuuuuuuyyyyyuuuttutttuuuupppuuuuutttttuuyuyyuuuuuutuuutuuuuuuuuuuuuuuuuyyyyyuuuuuuutuuutuuuuuuuuuuuuuuuyyy",
"yyyy                      yyyyyyyyyy                        yyyyyyy                        yyyyyyyyy                      yyyyyy",
"yy isssssgsssgsssssisssssssi yyyyy isssssiisssssiisiiiisissi yyyyy issssgsssgsssssssissssssi yyyyy isssssgsssgsssssisssssssi yyy",
"y isgvvvvNvvNNvvvvvvvvvvvgssi yyy isgaavvvvvvvvvaagagsissgssi yuy isgvvvNvvNNvvvvvvvvvvvvgssi yyy isgvvvvNvvNNvvvvvvvvvvvgssi yy",
"y sgvvvvNNNvNNNvvvvvNNNvNvasiiyyy sgvvvvaaaaaavavvaagsssavassiyuy sgvvvNNNvNNNNNvvvvvNNNvvasiiyyy sgvvvvNNNvNNNvvvvvNNNvNvasiiyy",
"y sasssgggssggssssssgggsgssasiyty sgssgssggggssssssssiissssgsiyuy sassgggssggssssssssgggsssasiyty sasssgggssggssssssgggsgssasiyt",
"y ssiiisssisssiiiiiisssisiiss yuy isissssssssiiiiiiii iiiiiss tuy ssiisssisssiiiiiiiisssiiiss yuy ssiiisssisssiiiiiisssisiiss yu",
"y iiiiriiiiisirrriiiisiiiiiii yuy iiiisiisssiiiiiiiir   rriii tuy iiiriiiiisiiirrriiiisiiiiii yuy iiiiriiiiisirrriiiisiiiiiii yu",
"yy riiriiiiiiirirrriisiiii r yyuyy riisiiisiirrirrrr y   r rryyuyy ririiiiiiiiirirrriisiii r yyuyy riiriiiiiiirirrriisiiii r yyu",
"yy riiriiiiiiiriirrriiiiir r yyuyy riiiiiisiirrirrrr y   r r yyuyy ririiiiiiiiiriirrriiiir r yyuyy riiriiiiiiiriirrriiiiir r yyu",
"yy rririiiiiiiriir riiiiir r yyuyy riisiiisiirri rr  y   r r ytuyy rrriiiiiiiiiriir riiiir r yyuyy rririiiiiiiriir riiiiir r yyu",
"yy rririiiiiiirrir riiiii  r yyuyy  risiiiirirri rr  y   r r ytuyy rrriiiiiiiiirrir riiii  r yyuyy rririiiiiiirrir riiiii  r yyu",
"yy r iriiiiiiirri  riirri  r ytuyy  riiiriirir r  r  y     r ytuyy r riiiiiiirirri  riirr  r ytuyy r iriiiiiiirri  riirri  r ytu",
"yy r iriiiiiiir i  riirrr  r ytuyy  riiiriirir rir  ry     y yuuyy r riiiiiiirir i  riirr  r ytuyy r iriiiiiiir i  riirrr  r ytu",
"yy   iriiiiiiir r  riirrr    yupyy  riiiriirir ir    y     y ytuyy   riiiiiiirir r  riirr    yupyy   iriiiiiiir r  riirrr    yup",
"yy r  riiriiirr r   rirrr    yyuty  rirrrirrir  r    y     y yuuyy r riiriiir rr r   rirr    yyuyy r  riiriiirr r   rirrr    yyu",
"yy r  riiriiirr r   rirrr    yyuuy  rii  riri        y     y ytuty   riiririr r  r   rir     yytyy r  riiriiirr r   rirrr    yyu",
"ty    riiririr  r   rir r    yytuy  rii  ri r        y     y yuuty   riiririr    r   rrr     yytty    riiririr  r   rir r    yyt",
"ty    riiririr  r   rrr r    yytuy  rii  rr r   r    y   y y yuuty   riiririr r      rrrr    yyuty    riiririr  r   rrr r    yyt",
"ty    riiririr      rrrrr    yyuuy  rir  ir     r    y     yyyuuty   rirrrrirrir     rrrr    yyuty    riiririr      rrrrr    yyu",
"ty    rirrrrirr     rrrrr    yyuuy   rr  ir          y   y tyytpuy   rir rrirrir     rrr     yyuty    rirrrrirr     rrrrr    yyu",
"uy    rir rrirr     rrr r    yyuuy   rir rr          y y y tyyupuy    ir rrirrrr     rir     ytuuy    rir rrirr     rrr r    yyu",
"uy     ir rrirr     rir r    ytuuy   rir ir          y y y tyyupuy    ir rrirrir     rir     ytuuy     ir rrirr     rir r    ytu",
"uy     ir rrirr     rir r    ytuuy   rr  rr     r    y y yyttyupuy    rr rrir r      rir r   yuuuy     ir rrirr     rir r    ytu",
"uy     rr rrir      rir ir   yuuuy   ir  r     i     y y yuttyupuy    rr rrir        rir r   yuuuy     rr rrir      rir ir   yuu",
"uy     rr rrir      rir ir   yuuuyy  rr       iRi    y y yputyupuyy   rr rshr        rir r   yuuuy     rr rrir      rir ir   yuu",
"uyy    rr rrir      rir ir   yuuuyy  rr        i     y y ypuuyupuyy      sdsr               yyuuuyy    rr rrir      rir ir   yuu",
"puuyyyyyyyyyyyyyyyyyyyyyyyyyyupppuuyyyyyyyyyy  y     yyyyypuptpputtyyyyyy r yyyyyyyyyyyyyyyyyupppuuyyyyyyyyyyyyyyyyyyyyyyyyyyupp",
"ppuuuuuuuuuuuuuuuuuuuuuuuuuuupppppuutsyuuuuuuttpttttttttuuzkkpppppuuuuuuuuuuuuuuuuuuuuuuuuuuupppppuuuuuuuuuuuuuuuuuuuuuuuuuuuppp",
"PpppppppppppppppppppppppppppppppPppp n ppppppppppppppppppplllpppPpppppppppppppppppppppppppppppppPppppppppppppppppppppppppppppppp",
"PPPPPPPPPPPPPpPPPPPPPPPPPPPPpPppppppptpuupppppupuppppppppplllpppPPPPPPPPPPPPpPPPPPPPPPPPPPPPpPppPPPPPPPPPPPPPpPPPPPPPPPPPPPPpPpp",
"ppppppppuupppppupppppppppppppppppppuuuuttuuuuututuuuuuuuuuzzzupppppppppuupppppupupppppppppppppppppppppppuupppppupppppppppppppppp",
"puuuuuupuuuuuuuuuuuuuuuuuuuuuuuuuutttttyyuututytytttutuuuukkktuuuuuuuuuuuupuuuuuuuuuuuuuuuuuuuuuputtttyypptptytytttptppppppttttt",
"tyyyyyytyyyyyyyyyyyyyyyyyyyyyyyy       rr     r     y yyyypppp  yyyyyyyyyytyyyyyyyyyyyyyyyyyyyyy       rr     r     y yyyy      ",
"yyr rrr   rrr  r     rr r rr  rr ytttttuttttty ryyyrr r  uuddurryrr ytty r ytty   ytty   ytty rr ytttttuttttty rrrrrr r  rrrrrrr",
"  rrr r rrrri rrrr   rrrirrirrr ypdddddddddddpyiydamyrt yudnnu y rrypddpyiypddpyrypddpy ypddpyiiypdddddddddddpyiri iyrt yrr yr y",
"yy     y       r   y r  i ri    tppuuutppJutuptr apM  yytpdnnuyty rtppuptrtp upt tppupt tpppptritppuuutppputuptr i r  yyt rytryt",
"yy  y  y  y    r  yyyrr r rr y  txccxbxbbEZccFyr jMpd uyt pddprry  txccFyrtHVCxy txccFy txcFHy rtxccxbxbbbxccFyr iyrt uyt     rr",
"yy yyy y       r  yyyr  r rr   yyppuuupJDZnTD ir pppy yytldnnpyty  yppy iryVMVyi yppuyy yppuu  ryppuuuputtyyy ir i ry yyty yt yt",
"yyyyy yy          y y r r  r    ifjSSjUjfBBBmmsr uMyd utupdnnptuyy ifjmmsrifYfms ifjffr  fjjfirrifjSSjUjfBBBmmsr rtru utuy tu tu",
"yy yy y  y     y  y y   r  r    rssssissiissssir tyyyyttuppplp ry  rssssirri isi ri r yyy  rri rrssssissiissssir  y yyttuy     r",
"utyttyttyttyyyyyyytttyyyyyyyyyyyy yy y      y   yttttuuupttppyy tyyyy           yyttttttttty yyyy yy y      y   yttttuuupttyyyy ",
"uuuuuuuuuuutuutuuuuuuutututtuuutttttttyyytttttyyytttttttttttttttuuuuuuuuuuuuuutuuuutuuuuuutututtttttttyyytttttyyyttttttttttttttt",
"upupuuppppuuupuuupppppppupuuuuuupppppppuuupuuuuuppuppupppppppppppupuuupuuppppuuuppuuuuppppppupuuupupuuppppuuupuuupppppppupuuuuuu",
"uuuuuuuutuuuuttuuuuuuuuuttutuuuuuuuuuuutttuuuuutuutuutuuuuuuuuutu syuuutuuuututtuuuuuuuuututuuuuuuuuuuuutuuuuttuuuuuuuuuttutuuuu",
"yyyt                      yyyttuttuy                     yyytttyyrds y   yy      yy  y y   yyttuyyyt                      yyyttu",
"yy issssssssssssssssisissssi yytyy isssssssssssssssssisssiii yyyyys iiiiiiiiiiiiiiiiiiiiiiii yytyy issssssssssssssssisissssi yyt",
"y isgavvvvvvaavvaavagagaaassi yty isgvvvvvvaaavvvvavagavagssi yyy isgvvvvvvaaavvvaavagagaassi yty isgavvvvvvaavvaavagagaaassi yt",
"y sgvvvNvNvvNNvNvvNvvvvvvvasiiyyy sgvaaaaavvvvaNKQKvvvvvvvagiiyyy sgvvNvNvvNNNNvNvvNvvvvvvasiiyyy sgvvvNvNvvNNvNvvNvvvvvvvasiiyy",
"yyigsssggggssgssssgsgggggssgsiyyyysasssssssssssshthsssssssgasiyyyyigssggggssggsssssgsggggssgsiyyyyigsssggggssgssssgsgggggssgsiyy",
"yy iiissssiissiiissssssssiiss yyyyisiriirirriiiirhiirrrirriss yyyy iissssiisssiiiisssssssiiss yyyy iiissssiissiiissssssssiiss yy",
"yyy iissssiissiiiisisissiii  ytyty  iriirirriiiirrrir rirrir yyyyyy issssiisssiiiiisisissii  ytyyyy iissssiissiiiisisissiii  yty",
"yyyyyyy y yy  y yy  yy   y  ytuyttyyyyy y yy    yyy yy  yyy yyuyyyyyyy y yy    y yy  yy  y  ytuyyyyyyyy y yy  y yy  yy   y  ytuy",
"ytuuuuutyyyuyyutuuutuuttuuutuupytuuuuuutuuuuuttuuuuuuuutuuutuupyytuuuutyyyuyyytutuuutuuttuutuupyytuuuuutyyyuyyutuuutuuttuuutuupy",
"yupppppuuuuuuupupppuppuupppupppytppuuppupppppuuppppppppppppppppyyuppppuuuuuuuuppupppuppuuppupppyyupppppuuuuuuupupppuppuupppupppy",
"yuupppppppppppppppppppppppppppuyyuppppppppppppppppppppppppppppuyyuupppppppppppppppppppppppppppuyyuupppppppppppppppppppppppppppuy",
"yyuuuuuuutuuutuuuuuuuuuuuuuuuyyyyyuuuttutttuuuupppuuuuutttttuuyuyyuuuuuutuuutuuuuuuuuuuuuuuuuyyyyyuuuuuuutuuutuuuuuuuuuuuuuuuyyy",
"yyyy                       yyyyyyyyy                        yyyyyyy                         yyyyyyyy                       yyyyy",
"yy isssssgsssgsssssisssssssi yyyyy isssssiisssssiisiiiisissi yyyyy issssgsssgsssssssissssssi yyyyy isssssgsssgsssssisssssssi yyy",
"y isgvvvvNvvNNvvvvvvvvvvvgssi yyy isgaavvvvvvvvvaagagsissgssi yuy isgvvvNvvNNvvvvvvvvvvvvgssi yyy isgvvvvNvvNNvvvvvvvvvvvgssi yy",
"yrsgvvvvNNNvNNNvvvvvNNNvNvasiiyyy sgvvvvaaaaaavavvaagsssavassiyuy sgvvvNNNvNNNNNvvvvvNNNvvasiiyyy sgvvvvNNNvNNNvvvvvNNNvNvasiiyy",
"yiasssaaassaasssshsssaaasasssiyty sgssgssggggssssssssiissssgsiyuyrsassgggssggssssssssgggsssasiyty sasssgggssggssssssgggsgssasiyt",
"yssssssssssssssshyhsssrytrsss yuy isissssssssiiiiiiii iiiiiss tuyrssiisssisssiiiiiiiisssiiiss yuy ssiiisssisssiiiiiisssisiiss yu",
"yisssisssssssssirarsssLCILssi yuyiiiisiisssiiiiiiiiiir  ririi tuyrsisssssssssAWGGAiiii iiiiri yuy iiiiriiiiisirrriiiisiiiiiii yu",
"y ississsssssssirrrissahhasr yyuy riisiiisiirriiirrrr   iti ryyuyriiisiisssis=CCC=siir   rrr yyuyy riiriiiiiiirirrriisiiii r yyu",
"y isr rr  rrr  rr r y     rr yyuy riiiiiisiirriirrrrr   rir  yyuyrriisiiisiirssiisirr     r  yyuyy riiriiiiiiiriirrriiiiir r yyu",
"y irytXXXXXXXXXXX..XXXXoXG#r yyuy riisiiisiirriir rr     r   ytuy ri                y        yyuyy rririiiiiiiriir riiiiir r yyu",
"y i uXXXXXXXXXXXXXXXXXXXXXo  yyuy  risiiiirirrirr rr      r  ytuy r ytoX+++++XoXXopppppputy  yyuyy rririiiiiiirrir riiiii  r yyu",
"y iypX...XG.X.XXXXXXXGoXGXXy yyuy  risiiiirirriir rr         ytuy ry.+YcXXOYOOOYYOYOOcXXO+.y yyuyy rririiiiiiirrir riiiiir r yyu",
"y i X.o@G.@o.o.....XXo@GZ@Xy ytuy  riiiriirirrirr  r     r   ytuy ry+YSGG;SS<<jjSjSSSGG;SO+y ytuyy rririiiiiiirir  riiirir   ytu",
"y i ...GZ@:@.o.....X.XGZlT.  ytuy  riiiriirir rir  r         ytuy ryYSf@=egg11mBmmBmg@=-BSOy ytuyy r iriiiiiiirri  riirri  r ytu",
"y i G..o@5l:&#G....X.GX:3Woy ytuy  riiiriirir rir  r         yuuy ryYSB-;#fB44BBffjff-;#f*Oy ytuyy r iriiiiiiir i  riirrr  r ytu",
"y ryG..@&35W...X...X.X#&W.oy yupy  riiiriirir ir             ytuy ryO*SCGoSj<jfjfSSSSCGoSYOy yupyy   iriiiiiiir r  riirrr    yup",
"y ryG.G..:@Z..GW....G@&zT@oy yupy  risiriirir ir             ytuy  y+OUoXFYY*SYYYYYYYoXFYO+y yupyy   rriiiiiiir i  riirrr    yup",
"y iyG..o.Aoo@......X.X@9Z.o  yuuy  rs sriirir ir   r         yuuy  y.+OcccOOOOOOOOOOOcXXO+.  yuuyy r rriiiiiiir r  riirrr    yuu",
"y iyG..o@..o.........X&GAWo  yuuy  risrriirir rr             yuuy ry+YSHX.SSSSSSSjjSS.HFSO+  yuuyy r rriiiiiiir r  rrirrr    yuu",
"y ryG..o...o.........G#..#o  ytuy  riirriirir rr          r  ytuy ryYSfW#=BBBmmBmmBmBEC@BSO  ytuyy   rriiriiiir r   rir r    ytu",
"y srG..o.X.o.........GG...Gr ytut  ri rriirir ri         rir ytuy   YSBW-;fBBBBBfffff-@Wf*O  ytuyy    riiiiiirr i   rir r    ytu",
"y siGo.o.+.o.........X...oGi yyut  rirrrirrir  r         iti yuuy i O*SEEGSjSSjSSSSSSoGHSYO  yyuyy r  riiriiirr r   rirrr    yyu",
"t ssyGooX+Xoooooooooo.XooG#s yyut rrir rirrrr  r   r     ri r tut i +OUF.XYYUUYYYYYUY.HFYO+  yyuty    riiiiiir  r   rir r    yyu",
" issryyybbbyyyyyWWWWWGGWW#&s ytutririr rirrir  r  rir     rrirtut siG+OXXFOOOOOOOOOOOcccO+Gi ytuty    riiriiir  r   rrr r    ytu",
"itisahsrUOUissasssassiisasas ytutitiir rirrir  r  iti     yititut isi yyttttyytttttyytty  is ytuty    riiririrr r  rrrr r    ytu",
" irsssasSjSrassssssssssasass ytutrsrii rirrir  r   i   y    i tut isaiirrrrrrrrrrrrirrrriiss ytuty    riiririrr     rrr r    ytu",
"t rrsssrY7Yyirirrrrrsiissssi yyut  rii rrr rr  r              yuty isassssssssssssssssiisssr yyuty    riiririr     rrrr r    yyu",
"t isr r 6l6.irirrirrriiirirr yytu yrii  riri       y   y    y tuty  riiisisssirr rrirrr rrir yytty    riiririr  r   rir r    yyt",
"t irytpuk$l.irrrrirrrirytpyr yytu  rii  ri r           y     yuuty  riiiriri         rry r   yytty    riiririr  r   rrr r    yyt",
"t iypz,,z8$Xirirrrrrriypzzp  yyuu  rii  rr r   r       y  y  yuuty  riiiri r         rry r   yyuty    riiririr      rrrrr    yyu",
"t iykuk,k$$liisirrrrriyty ty yyuu  rir  ir     r       y     yuuty   riiririr r      rrrir   yyuty    rirrrrirr     rrrrr    yyu",
"u i pkX%%$%loisirirrri ytuyy yyuu   rr  ir             y  y  ytpuy   rirrrrirrir     rriyi   yyuuy    rir rrirr     rrr r    yyu",
"u i tk0%%%$zoiiissirrisirrir ytuu   rir rr r           yy y  yupuy   rir rrisrir     rrrir   ytuuy     ir rrirr     rir r    ytu",
"u siytoz22qkoisisysrrissaasr ytuu   rir irrir          yy y  yupuyr   ir rrsysrr     rir r   ytuuy     ir rrirr     rir r    ytu",
"u ssry#w$%$kirirrsrrrisirsir yuuu   rr  rriti  r       yy y  yupuyrir ir rrisrir     rir r   yuuuy     rr rrir      rir ir   yuu",
"u ssitG@kkXGorrrrrrrrisirsir yuuu   ir  r  i           yy y  yupuyrui rr rr r r      rir ir  yuuuy     rr rrir      rir ir   yuu",
"u isassG>>W>irrrr rrrisirsir yuuu   rr                 yy y  yupuy i  rr rrry        rir ir  yuuuyy    rr rrir      rir ir   yuu",
"uyrssaaasasiirrrrrrrrrrrrrrryyuuuyy  rr   yy      y yyyyyyy yyupuy    rr rrir        rir ir yyuuuyy       rrrr              yyuu",
"puuyyy  yy   y y yyyyyyyyyyyyuuppuuyyyyyyyyyyyyyyyyyyyyyyyyyyupppuuyy  yy   yy  y yyyyyyyyyyyuuppuuyyy  yy   y y yyyyyyyyyyyyuup",
"ppuuuuuyuuyytuuututuuyyuyuuuupppppuuuuuuuuuuuuuuuuuuuuuuuuuuupppppuuuuyuuyytuuyuututuuyyuuuuupppppuuuuuyuuyytuuututuuyyuyuuuuppp",
"PpppppppppuuuuppupupuuupuuppppppPpppppppppppppppppppppppppppppppPppppppppuuuuupppupupuuupuppppppPpppppppppuuuuppupupuuupuupppppp",
"pPPPPPPPPPPPPPPPPPPPPPPPPPPPPpppPPPPPPPPPPPPPpPPPPPPPPPPPPPpttpppPPPPPPPPPPPPPPPPPPPPPPPPPPPPppppPPPPPPPPPPPPPPPPPPPPPPPPPPPPppp",
"ppppPPppPPPPPPpppPPppPppPPPPppppppppppptppppPPppppppppppppptM ppppppPppPPPPPPPppppPPppPppPPPppppppppPPppPPPPPPpppPPppPppPPPPpppp",
"ppppppppppuuupppppppuuppuupppppppppppptMtpppppppppppppppppputtpppppppppppuuupppppppppuuppuppppppppppppppppuuupppppppuuppuupppppp",
"uuuupuuuuutttuuuuuuuuuuuuuuuuuuppppuuuutuuppupuuuuupuppppppuuuuuuuuupuuuutttuuuuuuuuuuuuuuuuuuupuuuupuuuuutttuuuuuuuuuuuuuuuuuup",
"yyyyyyyyyyyyyyyyyyyyyyyyyyyyyyytttyyyyyyyyyyyyyyyyyyyyyyyyyyyyyyyyyyyyyyyyyyyyyyyyyyyyyyyyyyyyyyyyyyyyyyyyyyyyyyyyyyyyyyyyyyyyyt",
" rrr   rrrrrr     rrrrrrrr  rrr                      yyyyy     r rrr  rrrrrr r     rrrrrrr  rrri rrr   rrrrrr     rrrrrrrr  rrr ",
"rr rrrrrriiiirrrrrrriiirirrrr   y   rrrrrrrrrrrr      yyy       rr rrrrriiiirrrrrrrrriiirrrrr  rrr rrrrrriiiirrrrrrriiirirrrr   ",
"          rir     r riiri       y       iir        yyyyyyyy              rir r     r riir                 rir     r riiri       ",
" yyy   y  rir  y  rrrrrrr  y   yy   y   ri        yyyyytyyyyyyy  yyy  y  rir r  y  rrrrrr  y   y yyy   y  rir  y  rrrrrrr  y   y",
"yyyy      rir yyy r rrirr     yyy  yy y rr      y yyyyyytyyyyyyyyyyy     rir r yyy r rrir     yyyyyy      rir yyy r rrirr     yy",
"yyyyy   y  rr yyyyrr rirr  y  yyy yy    r    y yy yyyyyutyyyyyyyyyyyy  y  rr r yyyyrr rir  y  yyyyyyy   y  rr yyyyrr rirr  y  yy",
"yy yy   y rrr  y y r ri r      yy yy  y rr   y yy yyyututtyyyyyyyy yy  y rrr    y y r ri       yyy yy   y rrr  y y r ri r      y",
"yy y  y y  rr  y y  rri r      yyy yy y  r   y yyyyyytuuuuyyyyyyyy y y y  rr y  y y  rri       yyy y  y y  rr  y y  rri r      y",
"yy yy yyy r r  yyy  rrr r      yty yy y  r   y yyyyyytuuutuyyyyyyy yyyyy r r    yyy  rrr       yyy yy yyy r r  yyy  rrr r      y",
" y yy y y rr  yy y  r r r  y  yyyyyyyyy rr y y yy yytuuuuuyyy y  y yyy y rr  y yy y  r r   y  yy y yy y y rr  yy y  r r r  y  yy",
"yyyyyyyyyy   yyyyyyy y y yyyyyyyytytyyyyy yyyyyyyyyyttuuuutttyyyyyyyyyyyy   yyyyyyyyy y yyyyyyyyyyyyyyyyyy   yyyyyyy y y yyyyyyy",
"utttuuuuutyyttuuuuuuttttyyytttuuuuuttttyyyytyytttttttuuuuuuuuuututttuuuutyyttttuuuuuuttttyytttuuutttuuuuutyyttuuuuuuttttyyytttuu"
};
