/* XPM */
static char *STEPLAD1[] = {
/* columns rows colors chars-per-pixel */
"64 16 16 1 ",
"  c black",
". c #3F2F17",
"X c #4F3B23",
"o c #332B13",
"O c #533F2F",
"+ c #2F2F2F",
"@ c #43331B",
"# c #574333",
"$ c #373F27",
"% c #4B371B",
"& c #3F472B",
"* c #533F1F",
"= c #2B230F",
"- c #232323",
"; c #5F4B37",
": c #5F4323",
/* pixels */
"%o.o....%..*%o...%.....%..%o...oooo:%%o*.*o%.o....=%...oo=*.o...",
"#&#O#O##;&##O;OO#&##O#&&O#O&O&O&O#OO&#O&#OOO&O#&OO&OOO&O#&#&OOOO",
"O#OOO$##XO$#OO#OO$O$#XXXXXXXX$XX$OXXXXX$XXXX$XXXOXX$#$XX#OXX$OOX",
"##O#XX#XX##OX#XO#O$OXO#OXXXOXOOXO$#X$O#$O$$OX$XX#XXXXXXXX#XXO#OX",
"XX$XX@@@@X@XXX@X@XO@XXXXXOX@O@X@$@XX$XXX@@@X@$@@X$X$X@X@XXo@@X$@",
"..o....@o.$@.o....=...o..@..@.@...@.....o..@..o..@...o..o.=...@.",
"oooooooo@o@.o@oooooo.o%o..ooo@o=.o.@.oooo.oo@.o.ooo%o..oooooooo.",
".%..oooo..o%ooo.o.@oo.oooo.@.o.=o@ooo..o%o.oooooo@o.@o@oooo%o%..",
"*..%X-                                                    -%.*..",
"%...O-                                                    -X.%o%",
".%%.X+                                                    +O.oo.",
"%.%.X+                                                    +O....",
"...%O+                                                    +$.*o.",
"....X++++++++++++++++++++++++++++++++++++++++++++++++++++++$=%oo",
"....O$X#X$XOOXXXXOXXOXXX$X$XOXXX$$XXXXX$X&$OXOO$XXXOXXO#XXX$...%",
".....$.*=%..%.o..%....%..o%o*..*........o%...o..o..%.o%oo.o..oo."
};
