/* XPM */
static char *STEP1[] = {
/* columns rows colors chars-per-pixel */
"32 8 17 1 ",
"  c #3F2F17",
". c #8F5F37",
"X c #9B633B",
"o c #875733",
"O c #2F2F2F",
"+ c #7F532F",
"@ c #AB6F43",
"# c #4F3B23",
"$ c #A36B3F",
"% c #B37347",
"& c #5F4323",
"* c #774F2B",
"= c #43331B",
"- c #BF7B4B",
"; c #6B4727",
": c #272727",
"> c #373737",
/* pixels */
">>>>>>>>>>>>>>>>>>>>>>>>>>>>>>>>",
"::::::::::::::::::::::::::::::::",
"::::::::::OO>>>>>>>>OO::::::::::",
"       =#&;o$@%---%@$o;&#=      ",
"       =#&;oX$@%%%@$Xo;&#=      ",
"       =#&;+.X$@@@$X.+;&#=      ",
"       =#&;*o.XX$XX.o*;&#=      ",
"       =#&;*+o..X..o+*;&#=      "
};
