/* XPM */
static char *STEP2[] = {
/* columns rows colors chars-per-pixel */
"32 8 11 1 ",
"  c #4F3B23",
". c #675333",
"X c #775F3F",
"o c #5F4323",
"O c #6B4727",
"+ c #5B472B",
"@ c #774F2B",
"# c #533F1F",
"$ c #43331B",
"% c #7F532F",
"& c #875733",
/* pixels */
"XXXXXXXXXXXXXXXXXXXXXXXXXXXXXXXX",
"................................",
"                                ",
"+  $$$  +  $$$   + $$$ +   $$$ +",
".+o###o+.+o###o++.o###o.++o###o.",
"@.ooooo.@.ooooo..@ooooo@..ooooo@",
"%@OOOOO@%@OOOOO@%@OOOOO%@@OOOOO@",
"&%O+++O@&%OoooO%&@O+++O&&@O+++O@"
};
