/* XPM */
static char *STEP6[] = {
/* columns rows colors chars-per-pixel */
"32 16 21 1 ",
"  c #6F5743",
". c #5F4B37",
"X c #67533F",
"o c #775F4B",
"O c #7B634F",
"+ c #675333",
"@ c #574333",
"# c #8B735B",
"$ c #533F1F",
"% c #836B57",
"& c #775F3F",
"* c #533F2F",
"= c #4B371B",
"- c #836B4B",
"; c #8F5F37",
": c #8F7753",
"> c #937B63",
", c #3F2F17",
"< c #6F7357",
"1 c #774F2B",
"2 c #875733",
/* pixels */
"===@@+$$&+*====*.XX&+X.**==$$X@@",
",,,,=$$$=,,,,,,,=$$$$=,,,,,,,==$",
"******+.+*******$*..*.X**=****..",
"oooO##O--%%oooooooooo-XXXX..XXO-",
"X+XO%%+ o+ .....@X+o%OO....@. #O",
".++O%%+  +%X@...@X+o#Oo.$@@+.XoO",
".@+O%O ++ %X@@.@.X.oOO .@@@+.X-O",
".@+O%o ++ OX@..@.X@OoO .@@@+.XOO",
"##>>>>#O#O#>>>::####%#<######O%#",
";&OOO  .&.      &&&++X  o    .. ",
"X..XX..X XoOO oO X..   o     ...",
"o  .........@...... o  O Xoo .X ",
"XX..X X     O  X.@X  X  X o  .o ",
"X.X..X  X O    o X.  X.. o   .  ",
".X  X..XX  XXX o;oX...Xooooo .  ",
"XXX oO ...12  Oo;;O .ooOoooO.XX "
};
