/* XPM */
static char *STEP4[] = {
/* columns rows colors chars-per-pixel */
"32 16 11 1 ",
"  c gray39",
". c #6F6F6F",
"X c gray42",
"o c #5B5B5B",
"O c #777777",
"+ c gray34",
"@ c gray50",
"# c gray31",
"$ c #838383",
"% c #8B8B8B",
"& c #4B4B4B",
/* pixels */
"@@OOO@@O@OO.OO@@@$$$%$@O.O@$%%$@",
"XX   XX   ooo  X..O.@. oo X.@@.X",
"..X X.X   ooo  X..O.O. oo X.OO.X",
"..XXX.X  oo+oo  X...O. o+o .OO. ",
"O.XXX.X oo+++oo XX.XOXo++o XOOX ",
"OO...OX oo+#+oo  X.X.Xo+#o X..X ",
"OO...OX o+###+oo  X . o##+o .. o",
"@OO.OOX ++#&#++o  X X +#&+o XX o",
"@@OOO@@O@OO.OO@@@$$$%$@O.O@$%%$@",
"XX   XX   ooo  X..O.@. oo X.@@.X",
"..X X.X   ooo  X..O.O. oo X.OO.X",
"..XXX.X  oo+oo  X...O. o+o .OO. ",
"O.XXX.X oo+++oo XX.XOXo++o XOOX ",
"OO...OX oo+#+oo  X.X.Xo+#o X..X ",
"OO...OX o+###+oo  X . o##+o .. o",
"@OO.OOX ++#&#++o  X X +#&+o XX o"
};
