/* XPM */
static char *STEP5[] = {
/* columns rows colors chars-per-pixel */
"32 16 19 1 ",
"  c #2B230F",
". c #4B371B",
"X c #3F2F17",
"o c #4F3B23",
"O c #6B4727",
"+ c #533F1F",
"@ c #5B472B",
"# c #332B13",
"$ c #774F2B",
"% c #5F4323",
"& c #43331B",
"* c #875733",
"= c #7F532F",
"- c #533F2F",
"; c #8F5F37",
": c #574333",
"> c #373737",
", c #2F2F2F",
"< c #232323",
/* pixels */
">>>>>>>>>>>>>>>>>>>>>>>>>>>>>>>>",
",,,,,,,,,,,,,,,,,,,,,,,,,,,,,,,,",
" #XXXX# < #X.-:. .:-.X#   #XXX# ",
" &o%OO@o &oO$*;$ $;*$OoX o@OO%oX",
" ..+@@@o .+O$=*O O*=$OoX o@@@+oX",
" X&.ooo& X.o%OO+ +OO%%.X &ooo..X",
" ##XXXX# #X..+.X X.+..X# #XXXX##",
"                                ",
">>>>>>>>>>>>>>>>>>>>>>>>>>>>>>>>",
",,,,,,,,,,,,,,,,,,,,,,,,,,,,,,,,",
" #XXXX# < #X.-:. .:-.X#   #XXX# ",
" &o%OO@o &oO$*;$ $;*$OoX o@OO%oX",
" ..+@@@o .+O$=*O O*=$OoX o@@@+oX",
" X&.ooo& X.o%OO+ +OO%%.X &ooo..X",
" ##XXXX# #X..+.X X.+..X# #XXXX##",
"                                "
};
