/* XPM */
static char *STONPOIS[] = {
/* columns rows colors chars-per-pixel */
"64 128 24 1 ",
"  c gray34",
". c gray39",
"X c gray31",
"o c #5B5B5B",
"O c gray42",
"+ c #777777",
"@ c #6F6F6F",
"# c gray28",
"$ c #434343",
"% c gray23",
"& c #373737",
"* c gray50",
"= c #732B00",
"- c #1B1B1B",
"; c #9B5B13",
": c #AF7B1F",
"> c #8B8B8B",
", c #874307",
"< c #939393",
"1 c #838383",
"2 c #272727",
"3 c #2F2F2F",
"4 c #D7BB43",
"5 c #C39B2F",
/* pixels */
" .O  %&&X$#$XXX X  .#$o..&#O  X @ ...OO..@++#X$X#    ..@@o .#X$X",
" XO  #3%$####.XX XX ##X#.#$  X X X XOO@. ..O $XXX   ......  #$XX",
"  O. #3%###### XXo..##.X. #  X XX#  .O@. ..  $.$ X  ..  o # %$.$",
"  O. %3%####X##XXX.o#XXXO+.  X ###... @X@ O  ##&    .. . o#.###&",
"X O.O%&%#### #X&oX..$ ##..X       o@ .O..OO  # # X X .... # ## #",
" OO .$%$##XX%X.#X#XX##.&#..      . o..O$@O.  ###XX    O...#X####",
"  O  #3%### %#o#%2&###+@...     Xo  O.OXO X  XX##XX    ...#XXXX#",
"    X$2###X $#.$# X3$#@ .+.  XO X  .@OOO O#  #.##XX X  . ..  #.#",
"XXX X$2###X.#Xo#.X.22%+o ..  X  X  .OO@. ..  # X% X  . ...XX## X",
".O  X$3#Xo$X#&.XXXO.#X+. ..     X  +.@@o@.   oXXXXX    .o@#oXoXX",
"X$ O$#%##X#X$%#XOOO.X......     X  .@.. ...  X###X     . ... $##",
".XXX$%%$ &### &.@o#.#X... X.  X # #@@..o . .  X#   X   ... Xo#X#",
"OX $$$%#####% X$ OXX##..o%X.  X  X#oO.O.  ..  X#XXX   ..+. #XXX#",
"..  $3%%###$#X#XXoXo##. .X .  XX.X#OOO*o  ..  #$X#X   .oO.#$XX#$",
".    %%%#####oo #o.###.X#.    # .o#+..+o ..  X$X##X  . O@.XX#X$X",
".  X$%$$# #%  oo#X.#$...%#o   # ..#.O. oOO#  #&####  . OOXo$##&#",
"   $X%$##& X# X.#XO &O.o@#.   # X.XOOO.+...  #%X#XXX ..o..oXX#%X",
".XXX &$#$#$ #   XX@#&X*+ ..   # o. ..OoO ..  X%###X  ......XXX%#",
" .X$X&%##$% XX.XX#+$%X+O.o..   #Xo#.OO.+. .. ##%% # X  Oo.. ###%",
" .O  $%X##  XooX.X #$.+ .#.O  X .o .OOoO O . #$##XX   X.X.O  $$#",
"X  X $&o###.#...X.@##O$ ...  X  XXX O+.@  O  $##X #  X ....#####",
"$. XX&%##&  #oo..o#+O#O+@o+O   #X.o..O.+.... ##&% X    o .Xo###&",
"$. XX$%$.##XXX.ooo#+@@+1.o+     X oo.+OO..   ###%      . .# $###",
" O X X2$X #o#XoXXXoOO+1++$O     XXo..@O@...   ##%X#  OX.@ #XX ##",
" . X #$##& X# X.#.Xo.++.OoO   X X.XOOO.+..   #$X%XXX ..o..oXX#$X",
"OO X $$#$#$ #   X ..O@.+@O@ . # o. ..OoO .   X%#%#X X......XXX%#",
"OO X &%##$% XX.XXOoOOO+++@@    #Xo#.OOo. O   ##%% X X  Oo.. ###%",
" .O  $%X##  XooXXoo+ ++O@+OO X# .o .OO.@   . $%##X    X.X.O  $%#",
"$   .$&o###.#...# X  .O@+O@   X XXX O+..     #$#XX   X ....###$#",
"X    &%##&  #oo.X.X %+@ O..  # XX.o..O.O. O  %#$# X  X o .Xo#%#$",
"X.  $$%$.##XXX.o   %@O+.++.     X oo.+O@.    ####      . .# $###",
"XO  .#2$X #o#XoX.X@#OO.OOOX   X XXo..@O+ O    ##%   XO .@ #XX ##",
"OX.. #%$X.X#XXXX# .OO.**..o     ooo.OO@@...  XX##XXX   X. XXXXX#",
".XO  $$$X.  $#XX%#oO@.*@..    X XoOO.O+@.X.  X$###X   XoX#o XX$#",
"X$OX.2$$# X####X$   1O@@OX#    Xo.oO..@+     #X$X#       o   #X$",
" XO. &$$#XXX .XX o.*@@+@OO#      ooo+@O+...  X#####. X  oo  .X##",
".X. X$$3#oX#XXX.XX .*@o OOX    #   .+..O.+   X#%#XX%   Xoo  #X#%",
".  O $#2$ X####XXXo@**.O+.XX    XX @O..+.+ X  ##X#X#  X .   #X##",
"O .. $# #X.X#$# #.X+**  . .X  XXX  ...@+O..X  X$XX # O #..#XX.X$",
"O$OO $#@# .XXXX.X. .+...X.    X ..oO.@OO  . X XX##  X .X.o##XXXX",
". .  %#XXXoo .X...O+. o 2X. X X oo ..+OX.  .X $X#XX   .o@o #Xo$X",
".$O.X%#XX#.o oXOoo#+@@+1..X   X o  ..+.OO.X.  $##X  X .o.   X $#",
". O.X#%XXX oo ooXXoOO+1++$oO   .o ..OOO@O. O   o#XXX   o. X#X  o",
"$ ------------------------------------------------------------#X",
"X--------------------------------------------------------------X",
".--------------------------------------------------------------#",
"X----==,,,,,,,,,,,,,,,,,,,,,,,,,,,,,,,,,,,,,,,,,,,,,,,,,,==----%",
" ----=;;;;;;;;;;;----=;=---=;--;=---;=---=;----=;;;;;;;;;;=----#",
" ----=;;:::::::::--:--:--:--:--:--:::--:--;--:--::::::::;,=----#",
" .----,;:55555555----;5--5--5--5;--;5--5--;--5--55555555:,----X$",
"..-----;:54444454--4455--4--4--544--4--4--;--4--5444445::-----X#",
"X.O-----:54444454--4455;---;4--5---;4;---;;--4--5444445:----- X#",
"XO  -----544444545444554544444454444444444;544445444445-----X. $",
"XXO$$-----54444545444554544444454444444444;54444544445-----... X",
". .$$X-----54445454445545444:------:444444;5444454445-----.Xo.o$",
"X  .$%#-----544545444554544:-=;::;=-:44444;544445445-----o.#ooX$",
"X O*333$-----54545444554544-=:5445:=-44444;54444545-----o@o#oX$X",
"    $&X$#-----5545444554,-,-,554455,-,-,44:5444455----- ...oX X#",
"  XX$#$X.X-----545444554----;=----=;----44:544445-----  ...#.X $",
"XX XX#$$oXX-----55444554:-,-;--,,--;-,-:44:54445-----  .o..XoX#&",
"    $###oooo-----544455445-,-,:44:,-,-5444:5445-----X    .oXo.X&",
"    X$#X#XX#X-----544554445---,::,---544445545----- X. Xooo#ooX$",
". . X$###X#XXX-----54554445;--------;54444555-----# X  .o# o XXX",
". ..X#$$###X##X-----555445;-=-,::,-=-;545455-----## XXXo..@oooXX",
">>>>+++@@@++++++-----5545--------------5545-----1@@O++1+++@@@@@+",
"<<<><<<1+1+*+>**+-----555---5:,--,:55--545-----***@O.@<+++++><>+",
"***+>>>++@@*+**+@+-----555555555555555555-----*.*@O.@@>+@+@@O@@+",
".*@++>+@@@@+++++++@-----5:5:5::5:555:555-----@*O*@..@@++++@@OO@+",
"O*@++>+@@@@++*++@+@.-----55::::::::::::-----+@*.*@..@@++@+O@OO@+",
".*@+++@@@@@++*+@++...-----;:;:;::;:;:,-----@+@*O*OO.@ +@++O@OO@+",
"O*@+@>+@@@@+@*+@+@.@ .-----;;;;;;;;:,----->@+@*@**@.@@+@+@O@OO@@",
"@*@+@>+@@@@+@*++@@.@ .@-----,,,,,,,,-----+>@+@*O@*@.@ ++@@O@OO@O",
" .O  %&&X$#$XXX X  .#$o.-----,,,,==-----.@++#X$X#    ..@@o .#X$X",
" XO  #3%$####.XX XX ##X#.-----====-----. ..O $XXX   ......  #$XX",
"  O. #3%###### XXo..##.X. -----==-----@. ..  $.$ X  ..  o # %$.$",
"  O. %3%####X##XXX.o#XXXO+.---------- @X@ O  ##&    .. . o#.###&",
"X O.O%&%#### #X&oX..$ ##..X -------- .O..OO  # # X X .... # ## #",
" OO .$%$##XX%X.#X#XX##.&#..  ------o..O$@O.  ###XX    O...#X####",
"  O  #3%### %#o#%2&###+@...   ----  O.OXO X  XX##XX    ...#XXXX#",
"    X$2###X $#.$# X3$#@ .+.  XO X  .@OOO O#  #.##XX X  . ..  #.#",
"XXX X$2###X.#Xo#.X.22%+o ..  X  X  .OO@. ..  # X% X  . ...XX## X",
".O  X$3#Xo$X#&.XXXO.#X+. ..     X  +.@@o@.   oXXXXX    .o@#oXoXX",
"X$ O$#%##X#X$%#XOOO.X......     X  .@.. ...  X###X     . ... $##",
".XXX$%%$ &### &.@o#.#X... X.  X # #@@..o . .  X#   X   ... Xo#X#",
"OX $$$%#####% X$ OXX##..o%X.  X  X#oO.O.  ..  X#XXX   ..+. #XXX#",
"..  $3%%###$#X#XXoXo##. .X .  XX.X#OOO*o  ..  #$X#X   .oO.#$XX#$",
".    %%%#####oo #o.###.X#.    # .o#+..+o ..  X$X##X  . O@.XX#X$X",
".  X$%$$# #%  oo#X.#$...%#o   # ..#.O. oOO#  #&####  . OOXo$##&#",
"   $X%$##& X# X.#XO &O.o@#.   # X.XOOO.+...  #%X#XXX ..o..oXX#%X",
".XXX &$#$#$ #   XX@#&X*+ ..   # o. ..OoO ..  X%###X  ......XXX%#",
" .X$X&%##$% XX.XX#+$%X+O.o..   #Xo#.OO.+. .. ##%% # X  Oo.. ###%",
" .O  $%X##  XooX.X #$.+ .#.O  X .o .OOoO O . #$##XX   X.X.O  $$#",
"X  X $&o###.#...X.@##O$ ...  X  XXX O+.@  O  $##X #  X ....#####",
"$. XX&%##&  #oo..o#+O#O+@o+O   #X.o..O.+.... ##&% X    o .Xo###&",
"$. XX$%$.##XXX.ooo#+@@+1.o+     X oo.+OO..   ###%      . .# $###",
" O X X2$X #o#XoXXXoOO+1++$O     XXo..@O@...   ##%X#  OX.@ #XX ##",
" . X #$##& X# X.#.Xo.++.OoO   X X.XOOO.+..   #$X%XXX ..o..oXX#$X",
"OO X $$#$#$ #   X ..O@.+@O@ . # o. ..OoO .   X%#%#X X......XXX%#",
"OO X &%##$% XX.XXOoOOO+++@@    #Xo#.OOo. O   ##%% X X  Oo.. ###%",
" .O  $%X##  XooXXoo+ ++O@+OO X# .o .OO.@   . $%##X    X.X.O  $%#",
"$   .$&o###.#...# X  .O@+O@   X XXX O+..     #$#XX   X ....###$#",
"X    &%##&  #oo.X.X %+@ O..  # XX.o..O.O. O  %#$# X  X o .Xo#%#$",
"X.  $$%$.##XXX.o   %@O+.++.     X oo.+O@.    ####      . .# $###",
"XO  .#2$X #o#XoX.X@#OO.OOOX   X XXo..@O+ O    ##%   XO .@ #XX ##",
"OX.. #%$X.X#XXXX# .OO.**..o     ooo.OO@@...  XX##XXX   X. XXXXX#",
".XO  $$$X.  $#XX%#oO@.*@..    X XoOO.O+@.X.  X$###X   XoX#o XX$#",
"X$OX.2$$# X####X$   1O@@OX#    Xo.oO..@+     #X$X#       o   #X$",
" XO. &$$#XXX .XX o.*@@+@OO#      ooo+@O+...  X#####. X  oo  .X##",
".X. X$$3#oX#XXX.XX .*@o OOX    #   .+..O.+   X#%#XX%   Xoo  #X#%",
".  O $#2$ X####XXXo@**.O+.XX    XX @O..+.+ X  ##X#X#  X .   #X##",
"O .. $# #X.X#$# #.X+**  . .X  XXX  ...@+O..X  X$XX # O #..#XX.X$",
"O$OO $#@# .XXXX.X. .+...X.    X ..oO.@OO  . X XX##  X .X.o##XXXX",
". .  %#XXXoo .X...O+. o 2X. X X oo ..+OX.  .X $X#XX   .o@o #Xo$X",
".$O.X%#XX#.o oXOoo#+@@+1..X   X o  ..+.OO.X.  $##X  X .o.   X $#",
". O.X#%XXX oo ooXXoOO+1++$oO   .o ..OOO@O. O   o#XXX   o. X#X  o",
"$ O X#$##X.#oXoX#.Xo.++.OoO     .X O++OO.   X #X##XX   o.ooXX #X",
"XXX.$&#XX#ooX. .X ..O@.+@O@      XX+@O.O    XXXXX#XX   oo.o$XXXX",
".XOX $#X.XXXXo.XXOoOOO+++@@   X #  @+O ..    o$###X    ..oo$oo$#",
"X O. ###%.X ####Xoo++++O@+O .  #XXXO+@.       #%#X XX  Oo.o$  #%",
"  O  X..&XXX### # X+ .O@+O@  .X X#o.O@..     o$###XXX  oO.o$oo$#",
">>>>+++@@@++++++++@@@@@+@1<<1+++>><>1+1+1<<<1<<<1@@O++1+++@@@@@+",
"<<<><<<1+1+*+>**+++++++++***+++@+@@O@@+@+>>>+*****@O.@<+++++><>+",
"***+>>>++@@*+**+@+@...@+@+*@+++@+@O.O@++++>++@*.*@O.@@>+@+@@O@@+",
".*@++>+@@@@+++++++@...@+@++@+++@+@...O+@++>++@*O*@..@@++++@@OO@+",
"O*@++>+@@@@++*++@+@...@+@++@@++@+@....++@+>++@*.*@..@@++@+O@OO@+",
".*@+++@@@@@++*+@++....@+.++@+++@@@O.O.@+@+>@+@*O*OO.@ +@++O@OO@+",
"O*@+@>+@@@@+@*+@+@.@ .@@.+@O@++@.OO.O.@@++>@+@*@**@.@@+@+@O@OO@@",
"@*@+@>+@@@@+@*++@@.@ .@..+@O+@+@OOO...O@++>@+@*O@*@.@ ++@@O@OO@O"
};
