/* XPM */
static char *SW1BRNGN[] = {
/* columns rows colors chars-per-pixel */
"64 128 38 1 ",
"  c #13230B",
". c #6F6F6F",
"X c gray39",
"o c gray42",
"O c #777777",
"+ c #5B5B5B",
"@ c gray34",
"# c #838383",
"$ c gray50",
"% c #8B8B8B",
"& c #4B4B4B",
"* c #939393",
"= c #979797",
"- c #9F9F9F",
"; c #2F2F2F",
": c #272727",
"> c #232323",
", c #3F2F17",
"< c gray23",
"1 c #373F27",
"2 c #332B13",
"3 c #373737",
"4 c #3F472B",
"5 c #4F3B23",
"6 c #4B371B",
"7 c #533F2F",
"8 c #17330F",
"9 c #5B472B",
"0 c #43331B",
"q c #1B1B1B",
"w c #474F33",
"e c #434343",
"r c gray28",
"t c #131313",
"y c #0B1707",
"u c #2B230F",
"i c #1F4317",
"p c gray31",
/* pixels */
" yy yyyyyyyy yyyyy yyyyyy  y   y y yy yyyyyy   yyy yyyyyy      y",
">> > >  >> >>>>>> >>    >;>;>>>;>> > >  >> >>>>>> >>    >;>;>>>;",
"eepepeeeeeee994950999eeee999550005955eeeeee55549555555eeeeer9500",
"33333333>3>33322223333333333322223333333333333222223033333332222",
":::;:;;;;;:;;;22><:;,;;;:;:;:;;8:::::;;;3;3;3;;2><;;u;;;;;;;>>;8",
":>:>:;;;:;:;;;222;:;;;;:;;:::;38:>:>:;;;;;3;3;;22;3;u;;;;;;;>>;8",
": :>;;;;;;:;;;222;:;;;;;;::;:;;6: :>:;;;;;;3;;3>2;;;2;;;;;;;>>;6",
": :;;;;;;:;;;;;22;>;;;;:;;:;:,>8: :::;;;;;;33;;>2;>;23;<;<;;>>>8",
";>: ;;;;;::;;;22;,:;2;1;;;:;:7:8;>: :;;;;;;:;;32;73;2;333;;;>::8",
":>:>;3;;;;;;;;22:;:;2;1;;;:;:6:8:>:>:;;;;;3:;;;2;;;;233;;;;;>::8",
":>: ;;1;;3;3;;2:>;:;2;11;;:;:6;8:>: :;3;383:3;;:>;;;,;333;;;>>;8",
";>:>;;11333;;;22:;:;,311;1:;:6;8;>:>:;3;383;3;;2;;;;6;333;;;>>;8",
":::;;3113313;;22><:;,<11;1;;:;;8:::::;333i3;3;;2><;;63333;3;>>;8",
":>:>;1133131;;222;:;<<1433;;:;38:>;>:;133i3;3;;22;3;6<33133;>>;8",
": :>;3111331;;222;:;4<14<<3;;;;6: ;>;1111413;;3>2;;;4<331<3;>>;6",
": :;;4111411;;;22;>;<444443;:,>8: ;;;14114433;;>2;>;<44<1<3;>>>8",
": :><44144w43;,2:6:;4<444<1;:,;8: ;><141e4443;,>:6;;4<441<4;>,;8",
":>:>744144w43;,2:6:;<<444<3;:;;6:>;>71e1e4w43;,2:6;;<<441<3;>,;6",
":>::<4r1r4w4<;,2;7:;<44<4<3;:;76:>;:<1e1e4w4<;,>;7;;<4<41<3;:,76",
":::;<4r4r4w4<;,2;6;;4<4<4<3;:>;,::;;<1e1e4w4<;,>;6;;4<441<3;;;;,",
";::;<4r4rww4<;22;6;;444<4<3;::;,;:;;<1e1www4<;,>;6;;4444<<3;;;;,",
"3;:;<rww44w1<;22;,;;<<4<4<3::>;,;>;;<1w444w1<;,:;,;;<<444<3;;;:,",
";>:;<1111111<;22;,;;4<44443: >;23 :;<1111111<;;:;,;;4<44443;;;;,",
"3 :>;::::>::;>22>3;8;;;;;;0 > ;2;::>;::>>>::;>;;>3;8;;;;;;0 3;;2",
";::;;qttttt ;;22u;2 tttttt  2>;2:>>;;qttttt ;;;;:;2 qttttq  ,;;2",
":>::;qqqqqq 3>22u;2 qtqqtqq22>:2:>>:; qqqqq 3>;: ;2 qqqqq >2,:;2",
":>::;    >  3>22u;2       >22>:2:>>:;  > >  3>;: ;2       >2,::2",
": >;       >;>22u;2>      >>>>>2: ;;       >;>;: ;2>      >>>>>2",
"; >;>      >3 22u>3    > >2>>>>2; :;>>     >3 ;  >3      >2>:>>2",
"; >>>  >>  >2u22u>;>   > >2>:>>2; ;>>>>    >2 >> >;>     >2>>>>2",
"; >>>  >>  >2u22u>;>   > >2>:>>2; ;>>>>    >2 >> >;>     >2>>>>2",
"; >;>      :2u22u 2>      >:;>;>; >;>>     :2 >:  2>      >:;;;>",
" yy yyyyyyyy yyyyy yyyyyy  y   y y yy yyyyyy   yyy yyyyyy      y",
">> > >  >> >>>>>> >>    >;>;>>>;>> > >  >> >>>>>> >>    >;>;>>>;",
"005050,,,,,,0549500,,,,,,0049500005050,,,,,,0549500,,,,,,0049500",
"22222228 8 22222222228282222222222222228222222222222282228222222",
"> >  >      >>u2 >>>>>>>> 22,2 >> > > >     > >  >>>>>>>> >;>  >",
" ;>  > >>    >u2 ;>>      >2,2>> ;> > > >    >u  :>>      >;>>>>",
" ;>  >    >>>>u,>;>>>     >u,2>> ;> > >    >>>u>>:>>>     >;:>>>",
">> > >      :>u,>:>>>     >2,2> >> >> >     2:u >:>;>     >>:>> ",
" ; > >      >:u2>: >>    >:2,2 >>> >> >>    >:u >: ;>    >:::  ;",
";>>> >      >:u2 : >>     :2,2  >>>>  >>    >:u >: ;>     ::;   ",
";;>> >     >>:2u : >      :u2u >>>>>> :>   >>::  : ;      ::;  >",
";>>>>>     u>:22   :      >u2u >>>>>>>:>   u>::    :      >:;  ;",
">: > >     u>:22 :        >u22  >: >> >>   u>::  :        >>;   ",
">>> >>>    u>:22 2u>>    >>u22 >>>>  >:>   u>::> :u>>    >:>;  >",
":>> >>      >:2u :u      >>u,u  :>>  >:     >::: :u      >:>;   ",
"::: >>      >:2uu:u:>     >u,2> :::  >;     >::; :u:>     :>;>> ",
" ; > >      >:22>: :>    >:u22 > ; >> :     >:u >3 :>    >:::  ;",
";>>> >      >:2,u: :>     :u2u  ;>>>  >     >:u >; :>     ::;   ",
";;>> >     >u:>2u: :      :u2u >;;>>> :    >>::  : :      ::;  >",
";>>>>;     uu:u2u  :      >u2u >;>>>>>:    u>::    :      >:;  ;",
">: >>;     uu>uu :        >u,u  >: >> :    u>::  :        >>;   ",
">>> >>>    uu>uu 2u>>    >;u,u >>>>  >:>   u>::> :u>>    >;>;  >",
":>> >:      u:uu :u      >;u2u  :>>  >:     >::: :u      >;>;   ",
"::: >;      >:uu :u:>     ;u,u> :::  >;     >::; :u:>     ;>;>> ",
";:  :;      >:uu>:u::     ;u,u> ;:   :;     >::; :u::     ;:;>> ",
";:>>:;      >:uu 2u>:    >>>,u  ;:>> :;     >::: :u>;    >>:;   ",
" :> :3      >:>u>2u :     ; ,u   :>  :;     >::: :u ;     ;:3   ",
"::>>:3   >  >::u::u :     ; 2u>  :>> ::  >  >::: :u ;     ; 3>> ",
";:; :3>  >  >>:>>:u>>    >; 2>>  :;  ::> >  >::: :u>>    >;:;>> ",
"::; :3   >  >>:>u:u>>    >; 2>>  :;  :;  >  >::: :u>>    >;:;>> ",
";:;>;3   >  >:;:u:u >    :; 2::; :;> ;;  >  >::: :u >    :;>;::;",
";:;>>3   >  >:;:u:> >    :;:2>>> :;> >;  >  >>:: :> >    :;:;>>>",
";>;::;>  >  >:;:u:u >    ::::  > >;: :;> >  :>:: :u >    ::::  >",
";:>;:;>  >  >:;:u 2>:    :;::2>> :>; :;> >  >>::  2>;    :;::2>>",
";:>;>;   >  >>;:u>2>     :;:>2u> :>; >:  >  :>:: >2>     :;:>2u>",
";::>:;   >  >>;:u 2> >   :;>:2u> ::> ::  >  >>>:  2> >   :;>:2u>",
"; >;>;       >;>u:2>:>   :;:>2u>  >; >:     >>:: :2>;>   :;>>2u;",
":>>::;   >   >:>u:2::>   :;::2u> >>:>::  >  >>:: :2>:>   :;::2u;",
":>> :;       >:>u>2::    :;>:2u> >> >::     >;:: :2>>    :;::2u;",
";  >:;       ::>u:2::    :::;2u>   > ::     ::;: :2>;    :::;2u>",
";>;::;>  >   :;:u:u :    ::::  > >;: :;> >  :;:: :u >    ::::  >",
";:>;:;>  >   :;:u 2>:    :;::2>> :>; :;> >  >;::  2>;    :;::2>>",
";:>;>;   >   ::>u>2>     :;:>2u> :>; >:  >  :;:: >2>     :;:>2u>",
";::>:;   >   >:>u 2> >   :;>:2u> ::> ::  >  >;::  2> >   :;>:2u>",
"; >;>;       >:>u:2>>>   :;:>2u;  >; >:     >>:: :2>;>   :;>>2u;",
":>>::;   >   >:>u:2;>>   :;::2u; >>:>::  >  >>:: :2;:>   :;::2u;",
":>> :; >>    >>>u:2:>    :;>:2u; >> >::     >;:: :23>    :;::2u;",
";  >:;       >>>u:2:>    :::;2u>   > ::     ::;: :23;    :::;2u>",
">   :;   >   >:>u:2:O*%%%***==-=-=*%**%%%**O ;;: :2:;    :::;2u>",
" >  >>>  >   ::>u:2;roXXXoo.OO$O#OoXooXXXoor ;;: :2;;    :::;2> ",
"  > >; >>>   :;:u:2>r.oXo..OO$#$#$.o..oXo..&>;;: :2>>>   ::>;  ;",
"    >; >>>   :;:u 2>r.ooo..O$$#$%$.o..ooo..&>;;:  2>>    ::::>u;",
">   >3>      ::>u >>&.ooo.OO$$#$%$OoO.ooo.O&>;;:  >>;    >;: uu:",
"    :;       :>>u >>&O...OO$##%#%#O.OO...OOp>;;:  >>>    >; :uu ",
"   >:>>;     >>>uu;>&O...OO$##%#*#O.OO...OOp>;;:  ;> >   :; ::u:",
">   >>>>>:   >:>>u;>pOO.OO$X@@@@@@@@@XO.OO$p>;; >>;>>>    ; ; u;",
";>  >>>  :   >>> u;:pOO.OO$X:8:8:8:8:XO.OO$p>;;  :;:>    >; ;>u;",
":    >   ;   >>> u;:&O...OOX3i3i3i3i3X...OOp ;   :;:>    >; :;u;",
";   >> >>    >>u>u::&O...OOX3i3i3i3i3X...OOp :  >:::>    :;>:;u:",
";   >;>>>    >>u>u;:&.ooo.OX3i3i3i3i3Xooo.O& >  >:;:>    :: ::u:",
";  >>;       >>u>u;:r.ooo..X3i3i3i3i3Xooo..& >>>>:;:> >>>:: ::>:",
">    :       >>uuu>>r.oXo..X3i3i3i3i3XoXo..& ;  :;>>>    ;:>>:::",
">    >>>>    > uuu  roXXXooX3i3i3i3i3XXXXoor>: >:3  >>   :: >>:;",
">    >       >:u>u> roXXXooX3i3i3i3i3XXXXoor> : >;>  >>>>:: >u;>",
"> >          >>uuu>>rXX+XXoX3i3i3i3i3XX+XXor  > :;>> >>>>:: >u;>",
">            > uuu> eX+++XXO#########O+++XXr>> >:;> >>   :>   :>",
"   >         u uuu  eX+++XXo..O.O.X+XX+++XXr>>  :;  >>   :    :>",
"    >        u uuuu e++@++XXo...O.X+X++@++Xe>   >;  >>>>>: > >:>",
"  > >        u u:uu <+@@@++Xoo.oOo+@++@@@++e>   :;  >    ;   >>>",
"  >           uuuuu <+@p@++XXo.o.o+@++@p@++e> >  :  >    :     >",
">>>           u uuuu<@ppp@++XXoX.X+p+@ppp@+<     : >     :    >>",
" >>        >  u u u><<3;3<<<eerere<3<<3;3<<<>     >> >>>>: >   >",
">   :;   >   >:>u:u:>    :::;>u>    >  >     : : :2:;    ::   u>",
" >    >  >   : >u:u;>    :::;2>  >       >   :   :2;;    ::   > ",
"  >      >     :u:u>>>   :::;  ;  >   >>    >:   :2>>>   ::>   ;",
"    >    >     uuuu>>    ::::>u;            >     2>>         u;",
">   >        : >uuu>;    >;: uu:>     >   > >     >>;     ;   u:",
"               >uuu >    >;::uu         >   >: :  >>>         u ",
"   >           >uuu  >   :;>::u:   >        >:::  >> >    ;   u:",
">   >    :   >:>u  > >    ;>; u;            >   > >>>>        u;",
";>  >          >uuu:     >;:;>u; >  y     >>>::    :>     ;   u;",
":              uuuu:>    >; :;u;      y   >> :    >:>     ;   u;",
";   >        >>uuuu      :; :;u:    > y      :    >:>      >  u:",
";   >        >uu>uu       : ::u:       y     >     :>         u:",
";  >         >  >uu   > >::>:;>:   > y        >>   :     ::   >:",
">              u:uu       : >:::                  >>     ;    ::",
">    >        uuuuu  >   :: ;>:;    y  yy   >: >              :;",
">    >       >:uuuu     >::>:u;>      y     > :   >      :  > ;>",
"> >          > uuuu>    > :>>u;>  >           >    >        > ;>",
">            > uuuu     >>>;>;:>   y y yy   >     >           :>",
"   >         u uuuuu >     ;;;:>>  > y   y               :    :>",
"    >        u uuuuu > >>>:>>;:>>y   > yy   >   >          > >:>",
"  > >        u uuuuuu   >  >;>;    y >y   y >   >            >>>",
"  >           uuuuuuu     :>:> y y yyy yy   > > >        :     >",
">>>           u uuuuu   >:>>;;   yyy y yyy       : >     :   >>>",
" >>        >  u  uu        >   > y yyyyy y >> >   >> >>> : >   >"
};
