/* XPM */
static char *SW1BROWN[] = {
/* columns rows colors chars-per-pixel */
"128 128 44 1 ",
"  c #332B13",
". c #777777",
"X c #6F6F6F",
"o c gray50",
"O c gray42",
"+ c gray39",
"@ c #5B5B5B",
"# c #838383",
"$ c #8B8B8B",
"% c gray34",
"& c #939393",
"* c gray31",
"= c #979797",
"- c #4B4B4B",
"; c #676B4F",
": c #1B1B1B",
"> c #9F9F9F",
", c #0B1707",
"< c #43331B",
"1 c #3F2F17",
"2 c #4B371B",
"3 c #272727",
"4 c #574333",
"5 c #4F3B23",
"6 c #2F2F2F",
"7 c #533F2F",
"8 c #533F1F",
"9 c #5F4B37",
"0 c #67533F",
"q c #2B230F",
"w c gray23",
"e c gray28",
"r c #5B472B",
"t c #13230B",
"y c #775F4B",
"u c #5F4323",
"i c #774F2B",
"p c #434343",
"a c #7B634F",
"s c #373737",
"d c #7F532F",
"f c #6B4727",
"g c #373F27",
"h c #232323",
/* pixels */
"ttqqqqqqqqqqqtttqtqttttqqqqqqtttttqqqqqqqqqqqtttqtqttttqqqqqqtttttqqqqqqqqqqqtttqtqttttqqqqqqtttttqqqqqqqqqqqtttqtqttttqqqqqqttt",
"q333hhhhhqtq33hq3hh3q3  3333 313q333hhhhhqtq33hq3hh3q3  3333 313q333hhhhhqtq33hq3hh3q3  3333 313q333hhhhhqtq33hq3hh3q3  3333 313",
"3656333161313611666sw66sww6226613626333161313611w6222222225526613626333161313611w6222222222726613626333161313611w622222222552661",
"78888888282222888228882282288882788888882822228882288822822888827888888828222288822888228228888278888888282222888228882282288882",
"<<5<<<<<<<<<<<1< <5<522522542 <<<<5<<<5<2<<2<<1< <2<52<<<<<22 <<<24<<<222<52<21< <5<5222<22<<<<<<<5<<<<<<<<<<<1< <2<5<<<<2<<< <<",
"<<<<<<<<<<<<<<<< <<3<252222526<<<<<<<<5<2522<<<< <<1<<<<2<2< 1<<<<2<<<522<222<<< <<3<2<<2<<22<<<<<<<<<<<5<<5<<<< <<1<282<22<<<<<",
"<<<<<<<5<<55<5111<<<<52522222<1<<<<<<<<<2<<555 1<<<<<<2<22521<1<<<<<1<5<525225 1<<<<<22225<52<<<<<<<<<55<<5<55 1<<<<<8222555<<1<",
"<<<<6<<<<<<<5<111<5<<522522226<<<<<<w15r25222<21<<4<<2254554<2<1<<156<5r77522< 1<<5<<24245542<<<<<<<w1<555555<21<<4<<2255224<2<1",
" <<1 1<<<5<<<<1111<852225<<5<5<< <5<<<<5757757<522<24u75<2<2<2<< <<<<w44477454<<<7<545755<<5<5<< <5<<<<57577577522<24u75<222<2<<",
" <<<<<555<<55<<11<<5<<25555<15<<<5<<<<575555782<2<<2<u55<212 2<7 <545<57474545<<5<<5<555555515<<<5<<<<575555782<2<<2<u55<512 2<7",
"3<<<5<5555554<111<5<8<57575<<<<<<<<<<<5544457212<<2<8<4222<8<<<< <<55<5544454515<<5<8<444555<<5<<<<<<<5544457212<<2<8<4222<8<<<<",
"<<<<<<5444544< <1<<<<5557555<6<<<<<<5<5454477< <<<<<<5542224< <<<<2<<<54444445 <<<<<<5555<54<<<<<<<<5<5454477< <<<<<<5542224< <<",
"<<5<<<5rr4545<1< <5<557775442 <<<<5<<<5r44445<1< <2<55848244  <<<24<<<5r4444551< <5<555454442<<<<<5<<<5r44445<1< <2<55848244  <<",
"<<<<<<5rr4545<<< <<3<555544726<<<<<<<<5r54445<<< <<1<5848240 1<<<<2<<<5r59445<<< <<3<55454402<<<<<<<<<5r54445<<< <<1<5848240 1<<",
"<<<<<<5rr44445111<<<<44445572<1<<<<<<<5r444445 1<<<<<84545551<1<<<<<1<5r494445 1<<<<<44945552<<<<<<<<<5r444445 1<<<<<84545551<1<",
"<<<<6<54r9944<111<5<<444455726<<<<<<w15r99944<21<<4<<4454554<2<1<<156<5r99944< 1<<5<<44945542<<<<<<<w15r99944<21<<4<<4454554<2<1",
"<<<<<<54r995981 1<<<549494472<<<<<<<<15e9994042 <<<<549448848<13<<1<1<5e999544  <<<<5499944421<<<<<<<15e9994042 <<<<549448848<13",
"<<6<<<544444981 1<<<79949447215<<<6<<2544944942 <<<14094944482  <16<<<544944441 <<<24099944921<<<<6<<2544944942 <<<14094944482  ",
"<w<6<<55r999081 1 <<7994949711<<<w<<<25599990e2 < <180949494821<<w165<5599994e1 < <2u09094902<<<<w<<<25599990e2 < <180949494821<",
"<<6<g154e009051 11<<79949997<1<<<<66<25e09990511<<<1ea99999421<1<<6<g<5e090945 <<<<2ea90999021<<<<66<25e09990511<<<1ea99999421<1",
"<<<<<1540009751  1<<49949997 1<<<<<<<25909997531 <<17i9fd99421<3<<<<5<5909097511 <<24a9090y0231<<<<<<25909997531 <<17i9fd99421<3",
"6<<<<1540009451   <<40949007 3<5<<<<<159099945 <<<<1709yi4u481< 2<<<<<59090945 <<<<240909yy42  1<<<<<159099945 <<<<1709yi4u481< ",
"6<<6< 544444941  31<44444447 66<<<<w6 59999994 1<<1<74444447 16<<<56<<54999994 1<31<4ye000092<11<<<w6 59999994 1<<1<74444447 16<",
"6<w6< <  <<  <3 3 << <    <  3<<<<w<  < <<<  <3<< << <    <  1<1<5w6< < <<<  <3<3 << <    <  1 1<<w<  < <<<  <3<< << <    <  1<1",
"6<<<<  qq  qq   33< qqqqqqqq 6<5<<<<3< q   qq 61  < qqqqqqqq 6<3<55<<< q   qq 6133< qqqqqqqq 31<<<<<3< q   qq 61  < qqqqqqqq 6<3",
"6<6<6 qqqqqttq3  333 qtttttq 3<<<<66<<qqqqqttq3< 133 qtttttq 3<1<<6<6<qqqqqttq3<6333 qtttttq 6<<<<66<<qqqqqttq3< 133 qtttttq 3<1",
"666<6        3 6 3 3     3  6666<66<6< qqqqq 31613 3   333  666<<<6<6<       36663 3     3  6<66<66<6< qqqqq 31613 3   333  666<",
"66666 6<<<<1 < 333 3 1111 11<6<<<66<<3       < 31 < 111   11<3<6<<6663111111<< 333<331111 11<66<<66<<3       < 31 < 111   11<3<6",
"66633 1<<<<1 < 3333  1111122<6<6<66<63       < 3 1  11111111< <6<66666111111<< 3333 31<111<1<666<66<63       < 3 1  11111111< <6",
"6<633 1<<<<1<< 3  33 111112216666<6<63       < 36 13111111111133<<3366111111<< 36 3331<111<1133 6<6<63       < 36 13111111111133",
"6<666  <<<<1<1   3 311111<22< 666<666        1   3 3111<<<11< 333<366  11111<1   3 311<11<<<<3336<666        1   3 3111<<<11< 33",
"<<663 3      33 33       1  3t6q<<63         33 33     111  3t6 <<663 3      33 33       1  3 3q<<63         33 33     111  3t6 ",
"ttqqqqqqqqqqqtttqtqttttqqqqqqtttttqqqqqqqqqqqtttqtqttttqqqqqqtttttqqqqqqqqqqqtttqtqttttqqqqqqtttttqqqqqqqqqqqtttqtqttttqqqqqqttt",
"q666hhhhhqtq33hq3hh3q3  3333 3<6q666hhhhhqtq33hq3hh3q3  3333 3<6q666hhhhhqtq33hq3hh3q3  3333 3<6q666hhhhhqtq33hq3hh3q3  3333 3<6",
"6w9w666<w<6<6w<<swwpewwpeew44ww<6w4w666<w<6<6w<<ew44444444994ww<6w4w666<w<6<6w<<ew44444444404ww<6w4w666<w<6<6w<<ew44444444994ww<",
"e944444r8455254r4554445545544445e944444r8455554r4554445545544445e944444r8455554r4554445545544445e944444r8455554r4554445545544445",
"555785<255552 5r55 <5< 55<15555 5557855155552 5r55 <5<285<15555 55<<<5<155551 5r551<5< 55<1555515557855155552 5r55 <5<285<15555 ",
"<5555<12825521<5<1 <5< <<11555<1<5555<5<<25221<5<1 <5<28221555<1<5 1<<1<2555 1<5<11<5< <<11555<1<5555<5<<25221<5<1 <5<28221555<1",
"<<244<12522521<< 1 15< 1< <55<1 <<244<5<522<21<<11115<2822<55<1 << 1<<<<525<11<<11115< 1< <55<<1<<244<5<522<21<<11115<2822<55<1 ",
"<<25551<48252 <1 < <<1 1< 155<  <<25555<428<21<<1<1<<12822155< 1<< 1<5<<585<13<<1<1<<1 1< 155< <<<25555<428<21<<1<1<<12822155< 1",
"<<254<2548252 <1 1 <<1 1<1<<<11 1<<54<55428<21<<11 <<12822<<<<1<<< 1<<<<582<13<<131<<1 1<1<<<<<11<<54<55428<21<<11 <<12822<<<<1<",
"6<2551<2482521<1 1 <<< 15 12<1136<<55151422521<<   <<<28521<<1<11< 111<<582511<<1 1<<1  5 1<<1<36<<55151422521<<   <<<28521<<1<1",
"<<242 <25<2521<1   <6< 1<<<8< 131<<4< 5 522521<<  3<6<2822<1< <111 11 <<5225 1<<1 1<61  <<<1< 131<<4< 5 522521<<  3<6<2822<1< <1",
"<<2521<28<252<11 3 <<33111<2< 3 1<<52151<22<2<<< 31<< <822<<< 1  1  11<1222< <<<131<< 3 11<<< 311<<52151<22<2<<< 31<< <822<<< 1 ",
"<<2851128<2521 1   <1<3111<<1 1 1<1<5151<22<21 <  1<1<<222<<1 <  1  1111222< 1 <1 <<1 3 11<<1 111<1<5151<22<21 <  1<1<<222<<1 < ",
"<<282<128515<111 1 <3331<131<   1<<<2<<1<525211< 31<1 <222 1<<   1  1<112525<11< 3<<133 <211<1 11<<<2<<1<525211< 31<1 <222 1<<  ",
"4<282<<2551<<111 < <  31 3<<311 1<1<<<< 5525<1<< <1<  1<82<< 3<  1  1<< 2525<1<< <3<  3112<<11111<1<<<< 5525<1<< <1<  1<82<< 3< ",
"<6<521 24< <21<111 <33113<<<<11 16<5<1 14225<1<<131<132<82<<<1<  1  11 14225<1<<131<331 1<<<<1<116<5<1 14225<1<<131<132<82<<<1< ",
"<1<2<11<2<152 <13<3131 1< << 6111<<<<13<8<252 << < 111<<22<< 61  1  113<2225< <<3<3131  < << 6611<<<<13<8<252 << < 111<<22<< 61 ",
"31<2<<112<<52151 133 33<1<1<<3 13<<<<<312<252151 3  13<<211<<3   1  1<332<25<15< 33133  1<1<<3 <3<<<<<312<252151 3  13<<211<<3  ",
" 1<<<<1121<5<1< 313 < 3<631<< 11 <<<2<11<12421<  3  < 1<11<<< 1  1  1<11<124<1<13333<3   1<<<  < <<<2<11<12421<  3  < 1<11<<< 1 ",
"<1<12< 121<511<66  3 q6<6311 111<1115< 1< <72 <  3  1 1121<1 11  1  1< 1< 27<3<663 33q   1<1 1 <<1115< 1< <72 <  3  1 1121<1 11 ",
"<  1<11121151 3<  33  316<113131<  <2313<115211<  3 1 21<11 311  33 1313<125< 3<3 3331   <1 3136<  <2313<115211<  3 1 21<11 311 ",
"<111<<31<1<51 1 11   < 13 113112<11<<<33<1<8211311  1<<1211 311     1<33<12<< 1311  3<1  11 311<<11<<<33<1<8211311  1<<1211 311 ",
"<111<6 << <5<1 < 6<   61q3<16112<< 326 << <2<1 < 6<  3<<2<< 611   3316 << <<13 < 6<  11 q1< 61<<<< 326 << <2<1 < 6<  3<<2<< 611 ",
"<1111< 1<1 5<133 333 3<1 3<< 112<<3 8< 1<1 <<133 333 32<2<<  11   3 1< 1<1<<1333 333 3<   <1 1<<<<3 8< 1<1 <<133 333 32<2<<  11 ",
"<1<1111<21152 113<31 1 1 3<1 112<<3<< 11<11<< 3633    2<2<<  11   31< 11<1<<1 3633   6<   <1 1<<<<3<< 11<11<< 3633    2<2<<  11 ",
"31<11<1121<52111 133 33<33<1 11 <131133 1<<<< 3< q3   2<2<<  16  331333 1<<<133< q3 631 3 <1 16 <131133 1<<<< 3< q3   2<2<<  16 ",
" 1<<1<1111<5<11 313   3< 31  1  <1626 6< <<<11333q33 q2<<<1  1   3616 6< <<<11333q336q3   13 1  <1626 6< <<<11333q33 q2<<<1  1  ",
"<1<11< 121<<11166  3 q6<3 13 3 3<<1<33< << <13 3 q    <12113 3 3   133< <<1<13 3 q   33 3  3 3 1<<1<33< << <13 3 q    <12113 3 3",
"<  <111121151 3<  33 q31q3<13 3<6<1< 3 <<11113336 q   <121<13 31   1 3 <<11<13336 q 3 3 q3<33 3<6<1< 3 <<11113336 q   <121<13 31",
"<11<1131<1<<1 1 11   q 13q36 3 <61<    1<11 11<3     6 1<1 6 3 1       1<11<11<3    663 3q 3 3 <61<    1<11 11<3     6 1<1 6 3 1",
"<11216 << <<<1 < 6<  q61 q   q <6<<33 3<1 1<1 33       111   q 1   33 3<1 1<1 33 3 36 33 q 3 q <6<<33 3<1 1<1 33       111   q 1",
"<1121< 1<1 <<133 333 q<13 q 3  636<13  11 1<1     q3 3 1<1q 3  6 6 13  11 1<1    3q333333 q33  136<13  11 1<1     q3 3 1<1q 3  6",
"<1<2111<2<152 113<31 q 1qq q363q36<    31 1<1  63  3 3 121 q363q 6        1<1  63q 3q33 qq 3363 36<    31 1<1  63  3 3 121 q363q",
"31<21<112<<52111 13  q3<q36q 63 66333   1 1<3q3<  3    1<  q 6   6363  1  1<1q3< q36q 33q363 6  66333   1 1<3q3<  3    1<  q 6  ",
" 1<<1<1121<5<11 313 <q3<hh3q  3q 3<<333t1 11   <  3  3 1< 3q  qq 6<<333t 3111  < 63 3333hh33  3  3<<333t1 11   <  3  3 1< 3q  qq",
"<1<11< 122<<11166  3 q6<3333 33  363 3 31 113  33 3  3 11 33 3tq 666 3 333111  33633333h3333 33  363 3 31 113  33 3  3 11 33 3tq",
"<  <<11121151 3<  33  313h33q 3q <6333361 1 3 t3     3 1< 3 q33q <363336q 111 t3  33333q3h33q333 <6333361 1 3 t3     3 1< 3 q33q",
"<11<<<31<1<<1 1 11   < 16 33q 33 < 333331 13  33 3   6q1< qq33qq <333333  11  33 33q36q33 33q333 < 333331 13  33 3   6q1< qq33qq",
"<111<6 << <<<1 < 6<   616333q 33q3 3<33<1 1  33333q    1<  q333qq633<33<  1  33333333  33333q333q3 3<33<1 1  33333q    1<  q333q",
"<1112< 1<1 5<133 333 3<13 33q 33t3 63 631 13   6 36  3 1< qq333qq3333 63  11 116 33q33q33 33q333t3 63 631 13   6 36  3 1< qq333q",
"< 111 11<11<<13633    <1  33q 33 6     31 13  33.&$$$&&&==>=>=&$$&&=>>=&&&$$$&&. 333333q3q333333 6     31 13  33 333 q11<  q33qq",
"<312133 1<<<<13< q3 631<3 33q 3  6  6   1 13t  3eO+++OO+..X.#.O++OX.##OXO++++OOe3 33q3q33q333tq3 6  6   1 13t  33 36 3< < qq3t3q",
"<3111 6< <<<11333q336q <3 33q33 t      61 13qq 3eXO+OXXO.oXo#oXO+X.o##X.X+O+OXX-333q333q33333q 3t      61 13qq 33333  1 < q33q3q",
"< 1133< <<1<1  3 q   3 1  33  3 q3  33    13   3eXOOOXXOooXo$oXeee.o$$X.X+OOOXX-333333q3qqq33333q3  33    13   3333  3  < q  33q",
"6111 3 <<11<1 336 q 3 3 q 3q3 q3q3  <33   133q 3-XOOOX.OooXo$o3wew3o$$X..+OOOX.-33q3333333q333q3q3  <33   133q 33333 3  < qq33qq",
"611    1<11<11<3    663 q 33q   q   <q331 13   q-.XXX..X##.#$#:6s6:#$$Xo.OXXX..* 3333q3qqqq3q3  q   <q331 13   q 33q 3  < qq33 q",
"6<113 3<111<1 33 3 36 33q 33  3333   q 31 13 3 3-.XXX..X##.#&#:3s3:#&&Xo.OXXX..*36 q333q3q33  3333   q 31 13 3 336 q33  < 3q333q",
"36113  111 <1    3q33333  33q 36  6    3  1  qt3*..X..oX#$.$&$33w33$&&.ooO.X..o*3 363 3 3333qq36  6    3  1  qt33 363   <  q333q",
"3663    11 1  33 333 q33 3 33t q 66    31 33  33*o...ooX$$.$=$w:6:3$==.#oX...oo% 3333q33q 333333 66    31 33  33 333 q111  q33q3",
"36366   11  q  33 36t3<333q33tq3 63 6   1313t  3*o...ooX@@@@OXwh3hwXO@@@@X...oo%3 33q3qqqq333tq3 63 6   1313t  33 36 3< 1 qq3t3t",
"3 66    11  qq 33333q 333 q33q 3t 6    61q33qq 3%oo.oo#.@eeeeeeeppeeeeee@Xo.oo#@333q3q3qq q33q 3t 6    61q33qq 33333  1 1 q33q3q",
"q36333  11     3333  33  3   333q36333    33   3%#ooo##;@e;.O+@%*%@+O.;e@;ooo##@33333qqqq q 3333q36333    33   3333  3  1 q  333",
"q333133 1  13q 33333 33 33q333q3q333<33   q33q 3%#ooo##.@eo&$#o.X.o#$>oe@.ooo##@33q33q3 q3qq33q3q333<33   q33q 33333 3  1 qq33q3",
"q 361q3 1  1   q 33q 33qqq33q3  q 36<q331333   q%oo.oo#$@e&&=&#o.o$&==&e@oo.oo#@ 333qq3qqqqqq3  q 36<q331333   q 33q 3  1 qq33  ",
"3331 q  11 1 3 336 q33 q3     33333< q 31 33 3 3*o...ooX@eX#=$o..o#$=#Xe@X...oo%36 q33qqqq33  33333< q 31 33 3 336 q33  1 3q3333",
"  63    1    qt33 363    3 3qq36  63   3     qt3*o...oo+@e*X=$o..o#$=X*e@+...oo%3 363 q q3q3qq36  63   3     qt33 363   1  q3336",
" q 333t 1  1 qq  3333q3333q33q33 q 333t   q  qq *..X..oXs3e.&$o.X.o$&.e3sX.X..o* 3333qqq33qqqq33 q 333t      qq  3333q  1  qqq33",
"q 333q  1   3q q63 3  <33 33333qq 333q 3  q33q q-.XXX..o##$#&#.XX.o#&&#o..XXX..*63 3  qqqqq3q333q 333q 3   33q q63 3    1  qq333",
" q33     3   q333333  3333333 qq q33   31331 q33-.XXX..o##$#$#.XX.o#$$#o..XXX..*3333 qq33qqq3 66 q33   313 1 q333333    1  q3 66",
"3q63 1      3   3 t3333  3333 q33q63 t 31 q33   -XOOOX.;oo;o$o.OOX.o$$;..;OOOX.-3 t333q  qqqqq633q63 t 31  33   3 t33   1  q3 63",
"q36 133 1 1 3   3 q      3 3 qq q36 q3331 333   eXOOOXX+ooOo$oXOOX.o$$X.X+OOOXX-3 33 q qq3qqqqq q36 q3331  33   3 q     1   q33 ",
" 33 3     1    3     t 3 3 333q  33 3   1q33   3eXO+OXXO.oXo#oXO+X.o##X.X+O+OXX- 33  t qqqqqqqq  33 3  31  33  3     t  1   q33 ",
" 33 3311  1 1q 33     qh363 3qqq 33     11 3 q 3eO+++OO+..X.#.O++OX.##OXO++++OOe3333  qhq63q33q  33 33 31 13 3 33  q q    q q3  ",
"    3111  1 1  36333qqq 33   333 q      11q q   eO+++OO+..X.#.O++OX.##OXO++++OOe33 3qqqq3q qqqq3 q q  3 1  333    q qq    qqq   ",
"< 111 11  1 <13633    <1 q33qq3q 6      1 13  33e++@++O+X.O.o.O+@+X.ooOXO@+@++Oe33  q qq3qqqqq33 6    331 13 333 333 q  1  q33qq",
"<312133   < <13< q3 631<3 33qq3  6  6   1 13t  3p+@@@+++XXOXoX+@@+OXoo+O+@@@@++e3   tqqqqqqqqqq3 6  63  1 13t  33 36 3  1 qq3t3q",
"<3111 6   < 11333q336q <3 33qq3 t      61 13qq 3p+@@@+++XXOX.X+@@+OX..+O+@@@@++e33  q qq3qqqqq 3t    3 61 13qq 33333  q   q33q3q",
"< 1133    1 1  3 q   3 1 q3q  3 q3  33    13   3p@@%@@+@OX+X.X+@%@+X..+++%@%@@+p33 qt qqqqqqqq33q3  33 3  13   3333  3q   q  33q",
"6111 3 <  1 1 336 q 3 3 q qq3qqqq3  <33   133q 3w@%%%@@@OO+O.O@%%@+O..++@%%%%@@p33   qhqq3q33qq3q3  <33   133q 33333 3    qq33qq",
"611       1 11<3    663 q q3q q q   <q331 13   qw@%*%@@@+O+OXO@%*@+OXX++@%%*%@@p 3q qq qqqqqqqq q   <q331 13   q 33q q  < qq33 q",
"6<113 3<  1 1 33 3 36 33qqq3  qq33   q 31 13 3 3w%***%@%++++X+@**%@+XX@@@%***%@w3    t qqqqqqqq333   q 31 13 3 336 q33    3q333q",
"36113  1    1    3q33333  q3q 36q 6    3  1  qt3wws6swwwppepepws6wwpeepwwws6swww3 3   qhqq3q33q6  6    3  1  qt33 363  q   q333q",
"361    3    1  63q 3q33 q q33q3q36q    31 1<1  63  3 3 q qqqq6qqqq 333 3  1<1  6 q qqqqqqq qqqq 36<    31 1<1  63  3 3   1 q363q",
"66333        q3< q36q 33qq6q qq qq3qq   1  <3q3<  3      q qq qqqqq333 3  1<1q3  qqq3 qq3qq3qq  663 3   1  <3q3<  3        q 6 q",
"3311333        <  3 3333hqqqq qqq3q 333t13 1   <  3  3 q q3qqqqqq6333333 3111       q qq3qqqqq3q 3< 333t13 1   <  3  3q qq3q  qq",
" 363 3         3  3  33h3 33 qt  3q  3 313313  33 3  3   q3 qqtqqq33 3 33311    3   t qqqqqqqq3 q36  3 313313  33 3  3    33 3tq",
"3163633   q   t3    q33q3q3 qqqq <6 33361   3 t3     3 q  3 qq3qqqq33336q 11  t3     qhqq3qqqq3q <6 33361   3 t3     3 qq 3 q33q",
"3133663 33    33 3qq 6q 6qqqqqqtqqq 33331 <3  33 3   6q q qq33qqqq3q3333  11  3  3 qqqq3q qqqq33 <3 33331 <3  33 3   qqqqqqq33qq",
"3666133      33333qqq  q63 qq3 ,qq3 <33<1 3  33333q   q qq qqq33qqq3333<  1  33   3  q qqqqqqqqqq33q<33<1 3  33333q    q  qq3333",
"36663 6 3q     6 36qq3  3 q1qqqttqqq3 631 33   6 36  3q q qqqqqtq3q33 33  11         t qqqqqqqqqt3qq3 631 33   6 36 qqqq qqq333t",
"3663          33 333 q33   qqtqq qq    31 33  33 333 q q  qq qq3qqqqq 333  1        q qhqqqqq3q3 66 q  31 33  33 q33 qq qq q33q3",
"36366    q  q  33 36t3<33qqqqtqtqqq 6   1313t  33 36 3qqqqqq t3tq6qq3 3  1        q qqqq3q qqqqq 63 6   1313t  33 q6 3qqq qq3t3t",
"3 66    3q qqq 33333qqq33 q3qq qtqqq   61q33qq 33333  qq  q3 q3qq 3q3 36 q1  q        3qq q3qq 3tqq q qq1q33qq 33333    qqq33q3q",
"q36333  1  q   3333 qq3   q q q3qqq333    33   3333  3 q qqqqqq3qqq33q3   1    3 3q3 qqqq qqqq33qq6q33 q  33   3333  3q qqq  q33",
"q333133 3qqq3q 33333 3q q qq3qqqq3qq<33   q33q 33333 qqqqqqqqqq3qq q3q3 3  1 q 3  qqq 3 q3qqqqqqqq3q<3q   q33q 33q3q 3 q  qqq3q3",
"q 361q3 1q  q  q 33q 33qqqqqq3qqq qq<q331333   q 33q 3 q  qqqqq qq 3qq33q3 1   q  3   3qqqqqqqqqqqqq<qqq1333   q 33q qqqqqqq3qq ",
"3331 q q3qq q3 336 q3q qq 3q qqqq3qq q 31 33 3 336 q33 qq 3qqqqqqq 3qq 33  1 3  3 qqqqqqqqqqqq3q3qq<qq 31 33 3 336 q3qq qq3q3333",
"  63    33q  qt33 363  qq  qqq3qqqqq   3     qt33 363  qqqqqqqqq 3 q   3     qt   3  q  qqqqqq3q  6qq  3     qt33 363qq qq q3336",
" q 333qq1 qq qq  3333q3q33qqqq3q qqqq3t   q  qq  3333qq q  qqqq3 qqq33t 3 q  qq   q3 qqq3qqqqqqq q 3qqt   q  qq  333qqqq qqqqq33",
"q 333q qqq qqq q63 q q<qqqqqq3qqqqq3qq 3  q33q q63 3     q qq3q3q3qqqqq3  q  q q   q  qqqqqqqqqqq 3q3q 3  q33q q6q q   qq  qq333",
" q33 q q1qqq qq3q33q  3qq3q 3qqq q33q  31331 q333333  qqq qq3qqq qq3qq 3   q q     q qqqqqqqqqqq qqqq q31331 q33qq33 qq  qqqq q6",
"3q63 qq qqqqqqq 3 t33qqqqqqq3qqqqq6q q 31 q33   3 t3q q q qq3qqqqq63 t 3qqq     3 tq qqqqqqqqqqqqqqqqtq31 q33   q t3q q q qqq 6q",
"q36 1qq qqqqq qqq q    qq3q3qqqqq3q q3331 333   3 qqq  q qq qqqqqqq q33  qq q q 3 qq q qqqqqqqqqqqqqq3q31 333   q qqqq q qq q33 ",
" 33q3  qq1qqq qqq   qt 3q3 3qqqqqqqqq qq q33   3   q t qqq  qqqqqqq  q   qqqqq    qqqt qqqqqqqqqqqqqq qq q33   3  qq t qqq  q3q ",
" 33 33q1qqqq1qqqqq    qhqqq qq3  q3 3qqqqqq3 q 33  q qqqqqq qqqqqqq q  qq qq q 3 qq q qhqqqqqqqqqq3 3qqqqqq3 q 33q q qqqqqq q3  ",
"    q1q1qqq1q q36q33qqq 33q q3qqqq qqqqqqqqqq     q qqqqqqqqqqqqq q qqqqqq q   qqqqqqqqq3q qqqq3qq qqqqqqqqqq     q qqqqqqqqq   "
};
