/* XPM */
static char *SW1BRN1[] = {
/* columns rows colors chars-per-pixel */
"64 128 46 1 ",
"  c #6F5743",
". c #5F4B37",
"X c #675333",
"o c #7B634F",
"O c #775F4B",
"+ c #67533F",
"@ c #574333",
"# c #836B4B",
"$ c #775F3F",
"% c #777777",
"& c #533F2F",
"* c #533F1F",
"= c #836B57",
"- c #6F6F6F",
"; c gray50",
": c #8B735B",
"> c gray42",
", c gray39",
"< c #4B371B",
"1 c #5B5B5B",
"2 c #838383",
"3 c #8B8B8B",
"4 c #939393",
"5 c gray31",
"6 c gray28",
"7 c #434343",
"8 c gray34",
"9 c #3F2F17",
"0 c #373737",
"q c gray23",
"w c #5B472B",
"e c #272727",
"r c #1B1B1B",
"t c #676B4F",
"y c #9F9F9F",
"u c #937B63",
"i c #5B6347",
"p c #979797",
"a c #4B4B4B",
"s c #2F2F2F",
"d c #232323",
"f c #332B13",
"g c #3F472B",
"h c #5F4323",
"j c #774F2B",
"k c #6B4727",
/* pixels */
" $  ++ +   $$X$$$$$$O$$$X++$XX++  ++X@@www@@@w.X.@*....ww**X*ww ",
"  $$  O+ $$$$+$$ $o$ $$ X++$XX++   $ X+...X++XXX+@@++..X ++ X X ",
"  $ O$O O$$O $$$$$$ X$$ X++$+X.X $   XX...X++++++..X+.@X $ $X+++",
" +$#$$oOO#O$$$$$$ $  OO X + +XXX$ $ $X+..@X+   XX..XX.@.+ $ XXX+",
" +$o $$OOo$  $$O X+ OOO X  $ X+ $ $$+XX..@++   $XX..+.&.+ $X+X.+",
" +$$$$ooO#$X $O$$+$ $$O+X+ o X+  $$ .+ @..X    $X+..X@&.+$$X+.X.",
" +$o$$$=$#oX $$$$++ O$OXX+$$+XX  $$ .+X@.&++   oX+..X&&.O$$X....",
" +o+$$$=O#o+ o  oXX O$OXX+$ +X++OoX .+X...++ XXOXX..X.&.O$$+.@+.",
".+$+$+$#O:OX+$X$OX+$$OOX++  XXX+OoX .+X..@+X$  $.+.@+@&.Oo$+@@+.",
".+++$X$###OX$  $$X.+o#O+++  XX.+Oo$ &.+...X.   o.+.@.&&.O#$+@...",
".+  oX$:o# X+$ $$X. $oO..+$ XXXXOo$ &. .&.X.$$$o.+.@&&&kO##+@...",
".X.++.$#o# XX$ $$X. $#O..+  XX..ooo+&...&.X.$$$o.X.@.&&kO##+@.@.",
".+. X. #o# .XX $o+h $#O..+$$.+..o==+&.@.@.X.ooo$.+.&&&&k+$$+@@&.",
"... X......@.+ ooXh......+i$XX......&.@.@.X.@@@@.+.&@&&k@@@@@&&.",
"...+X.&<99<@.+ $$X&<<<<&.+$+X+.g<<<<&.@@@.X&<99<&*@&.&&<9999<&<.",
"..+XX.*<<<<@@X  $X&<<<<&.++$X+.&&<<**+@@@..&*99*<&&&.&<<<9f9<gg.",
"..+XX.*<<<<@@X**$X&<<<<&.++$X+.&&<<**+@@@..&*99*<&&&.&<<<9f9<gg.",
"***<99999999<***<9999999<****<9999999<<***<9999999999999999999<<",
"X$XX..@&&&&&&&X.X&&9&&&&*&..&.+&&<&&&&...&&9&g<<&&&&&&.<&&&&&&&&",
"o=oo==OOOOOo::o##==OOOOOOOOOO#++++..++o#o## .....+oooo=++++++OOo",
"#$===O @+X+o==X OX .....@+XO=oo....@. :oOXX @@@@.XXXXXO*.*.@XXX ",
"$$Oo=  @.XXo==X  X=+@...@+XO:oO.*@@X.+Oo$XX .@@@.@XXOXOw.<@@.XX ",
"X$Ooo  @.@Xo=o XX =+@@.@.+.Ooo .@@@X.+#o$  $.@@@.   O X@.*@@. OX",
"X$ooo  @.@Xo=O XX o+@..@.+@oOo .@@@X.+oo$XX$.@@@@ . O X+.&@@@ OX",
"X$ oo$ ..@XoooXXX oO.@@@.+.ooOo.@@@X.+ooOXXO.@@@@X.$O$ +.@.@@ o ",
"X$ooO$ @.@.oooXXXO=O...@.+@#oOo.w@@+.+ooOXX$.@@@.XX$$$$ .@.@@ oX",
". ooO$ @..XOOo XXO= @.@..+.o$oO.@@@..+OoOXX$+@@@X .O$$$+@&.@. OX",
"X OOOO @@.Xooo XX$o X@..@+.oO$$ *@@X. Oo$  O @@@XO.XO$$+@@.@. oX",
"X O#O$ @@.XOOooXXooo+.@X@ $oO$$ @@@.. ooo  $ .@@XO.XO$$X.@.@. oX",
"X O#OO @@. OO=o XOOoX@.X.$$oO$o .@.+. $o$o$$ .@&Xo. $$$+.w@@. oX",
"X o#Oo .. ooo=o  oOO$.. @$O$$oo .@.+.+$o$o$$ .@&+ .+ oo+.@@@$ oX",
"X OOOO .. $oo:o  OoOo..  $$o$$O  @.+.+ o o$$  @.X .+ $  +&.@   X",
"X$ oOO .. Ooo:o  o=$o.X $o$$OO# Xw.+.+$o$ooo$ @.X .  $$  @@X$ X ",
"XO oOo +. Ooo:o Oo=Oo.  ooO#$O#  @.+.+ooooooo @.  .+$$$  @@X$   ",
"X  oO#o+. ooo#O o##o=. Xooo$#oo  ..+. $o$o#o$ @.  XX $$i$.@X$  $",
"j  oO:=O  o##=O O##Oo+  :OO$:OO  ..+.  oXo#OOX@  .   $$$$..X$ $$",
"j OoOo=O+ o###oOO=:oo+ O:#oooOoo ..+.  o o#o# @X X X$$ o$..XO  o",
"X Oo o=O+ o##:=Oo=###+X##o#$#$oo ..+.  o$o#O# @X  X  $$$$+.X  $$",
"iOOo o=O+ o##:=oo=:o#+$$#O##o$oO ..++OXo$o#=o$.XO XX o$#$+.XO  O",
"i OoOo#O+ #o=:=oO=:$:+ ouo##o$oo ..++OXo$oo=o$.  O  $o$oo .X  $$",
"j OOOo#o  oo=:=OO=u$u+OOuO::o#oo ..+XOXO$o=oO$.  O  oo$$$ +X$ $$",
"X OO #oo  O#=:=OO=:o#+OO:##u$OO# ..+X$ Ooo=o#$.  OO $o$$$$+X$OO$",
"$ OO o##  =o=:=oO=:oo o#:O#:$$$# ..+XO$$oo=OoO. O  X#$$$$o+X $$$",
"o $  ###  =o=:=O$=uo# o####:Oo$# ..+XOXOoo=O#$.    X#$ oo$+X    ",
"+ $  #O#  =o=u=o O#O: O##Oo:oO$o ..+.OXOoo=ooo. o   O$$#o$+X $$X",
"X OO #$o  =O=:=o o:$#OO##$#u$$$$ ..+.OX$Oo==$o  o X $i#$$O+X $$+",
".  O #$oO =o=:=o o:$=oo##o=:$ $  @...$X$#o=oO$  O     #oo$+X oo+",
"X    #$$O ##o#=O o= =$O##==#o O  ....oX$oo=oo$XO  o $$$o#++X $$X",
"j OOOo#o  oo=:=OO=u$u+OOuO::o#oo ..+XOXO$o=oO$.  O  oo$$$ +X$ $$",
"X OO #oo  O#=:=OO=:o#+OO:##u$OO# ..+X$ Ooo=o#$.  OO $o$$$$+X$OO$",
"$ OO o##  =o=:=oO=:oo o#:O#:$$$# ..+XO$$oo=OoO. O  X#$$$$o+X $$$",
"o $  ###  =o=:=O$=uo# o####:Oo$# ..+XOXOoo=O#$.    X#$ oo$+X    ",
"+ $  #O#  =o=u=o O#O: O##Oo:oO$o ..+.OXOoo=ooo. o   O$$#o$+X $$X",
"X OO #$o  =O=:=o o:$#OO##$#u$$$$ ..+.OX$Oo==$o  o X $i#$$O+X $$+",
".  O #$oO =o=:=o o:$=oo##o=:$ $  @...$X$#o=oO$  O     #oo$+X oo+",
"X    #$$O ##o#=O o= =$O##==#o O  ....oX$oo=oo$XO  o $$$o#++X $$X",
"j  O ##$O O###=oXoo ##O:#==## $  ..+.oX$#OoOO$   X XX$$$$$+X $$X",
"j  O ##oO $#Oo=OX oX=Oo##==##XO$ @.+@OX #OOOO$X oX  X$$$  +XO$$X",
"j  $ ##OO o#$o$   $X=XoO#o=#oX$O @.+@oX ooo$o X  X  X$$$$++X $$X",
"X +  O#$O oo$#    o+o+oo#o=:$  o @.+@oXXoooO$ X    XX$ $$X.X $$@",
"* +XO$#$O  O$o+  X$X$.o$$$o#$X o @.+@$XX$ooX$ +X +$++  +$+.$X$+@",
"&X.X$$$$$  : X  XX$.o@#$$  #$X $+...@  +o$$$  X+ X $   X $@++++X",
"&X..$$+o$ $o XX+XXX.$.$$$$X#$  $X...@ +X$oo$@ X+ .+  + .+ ..+@XX",
"&*..$$ o$. $$XXX.X+.+.iX$ X#O +$X@..@+ X$$$XXX..X.XX. XXXX.@X&X.",
"<&@.+$+$+@ +$XX+&+&... X$ X$$ X$.@..@+X@   +++@+..X.@+.XX.@&.&&&",
"<*@.X+$++.++++...+..&@++++X $XX @&&.&++@   X..@.&.X....XX..&.@@&",
"<<@.X+ .X@.+X+&&.++.&&+++X++$XXX.&&.&++@.+++..&.&&@@...@@@.&&&&&",
"<<@..+.@.@@.X.&@.+..&&.XX@++$XX.@&&.&+.@.+++.@&&&*&.&..@&.@&&<&<",
"<f*@.+&@.@&..&&@+..&&&.XX&XXo++.&&&&.+.@.+++.@&&&&&@&..@&@@&&<&<",
"<<*@&.@@&&&@&&&@+@@&&&&X+&.+$+..&&&&...@@.+..@&<&<&&&@.@&&@&<<&9",
"<<**<@&&@&&&&@&@&&&&&&&@..XX &..&&&&@..@@....@&&&<&&&&@&&&@&&<&f",
"<<<*&&&&@&&&@@&&@&&&&&&&@......@&&&&@@@@@@@@@@&<<<<&&&&&&&&&<&<9",
"..+XX.*<<<<@@X**$X&<<<<&.++$X+.&&<<**+@@@..&*99*<&&&.&<<<9f9<gg.",
"***<99999999<***<9999999<****<9999999<<***<9999999999999999999<<",
"X$XX..@&&&&&&&X.X&&9&&&&*&..&.+&&<&&&&...&&9&g<<&&&&&&.<&&&&&&&&",
"o=oo==OOOOOo::o#%4333444ppypyp43344pyyp44433344%.+oooo=++++++OOo",
"#$===O @+X+o==X 6>,,,>>,%%-%2%>,,>-%22>->,,,,>>6.XXXXXO*.*.@XXX ",
"$$Oo=  @.XXo==X 6->,>-->%;-;2;->,-%;22-%-,>,>--a.@XXOXOw.<@@.XX ",
"X$Ooo  @.@Xo=o X6->>>-->;;-;3;->>-%;33-%-,>>>--a.   O X@.*@@. OX",
"X$ooo  @.@Xo=O Xa->>>-%>;;-;3;%>>-%;33-%%,>>>-%a@ . O X+.&@@@ OX",
"X$ oo$ ..@XoooXXa%---%%-22%232%--%;233-;%>---%%5@X.$O$ +.@.@@ o ",
"X$ooO$ @.@.oooXXa%---%%-22%242%--%;244-;%>---%%5.XX$$$$ .@.@@ oX",
". ooO$ @..XOOo X5%%-%%;-23%343;%-%;344%;;>%-%%;5X .O$$$+@&.@. OX",
"X OOOO @@.Xooo X5;%%%;;-33%3p3;%%;23pp%2;-%%%;;8XO.XO$$+@@.@. oX",
"X O#O$ @@.XOOooX5;%%%;;-33%3p3;%%;23pp%2;-%%%;;8XO.XO$$X.@.@. oX",
"X O#OO @@. OO=o 8;;%;;2t34t4p42;%;34ppt32t;%;;21Xo. $$$+.w@@. oX",
"X o#Oo .. ooo=o 82;;;22;44;4y42;;234yy%32%;;;221+ .+ oo+.@@@$ oX",
"X OOOO .. $oo:o 82;;;22344p4y42;;234yy4322;;;221X .+ $  +&.@   X",
"X$ oOO .. Ooo:o 8;;%;;233444p42;%;34pp432;;%;;21X .  $$  @@X$ X ",
"XO oOo +. Ooo:o 5;%%%;;-0e6%p3;%%;23p%6e0-%%%;;8  .+$$$  @@X$   ",
"X  oO#o+. ooo#O 5;%%%;;,,y5-p3;%%;23p-5y,,%%%;;8  XX $$i$.@X$  $",
"j  oO:=O  o##=O 5%%-%%;-1%1%43;%-%;34%1%1-%-%%;5 .   $$$$..X$ $$",
"j OoOo=O+ o###oOa%---%%;8>3242%--%;2442>8%---%%5 X X$$ o$..XO  o",
"X Oo o=O+ o##:=Oa%---%%;5,3232%--%;2332,5%---%%5  X  $$$$+.X  $$",
"iOOo o=O+ o##:=oa->>>-%t6,t;3;%>>-%;33t16t>>>-%aO XX o$#$+.XO  O",
"i OoOo#O+ #o=:=o6->>>--,711111111111111171>>>--a O  $o$oo .X  $$",
"j OOOo#o  oo=:=O6->,>-->700000sd0ds000007,>,>--a O  oo$$$ +X$ $$",
"X OO #oo  O#=:=O6>,,,>>,%>157qersreq7511>,,,,>>6 OO $o$$$$+X$OO$",
"$ OO o##  =o=:=o6>,,,>>,%%-%2%ee7ee%22>->,,,,>>6O  X#$$$$o+X $$$",
"o $  ###  =o=:=O6,,1,,>,-%>%;%r0-0r%;;>->1,1,,>6   X#$ oo$+X    ",
"+ $  #O#  =o=u=o7,111,,,-->-;-r6;6r-;;,>,1111,,6o   O$$#o$+X $$X",
"X OO #$o  =O=:=o7,111,,,-->-%-edsde-%%,>,1111,,6o X $i#$$O+X $$+",
".  O #$oO =o=:=o711811,1>-,-%-0err0-%%,,,81811,7O     #oo$+X oo+",
"X    #$$O ##o#=Oq1888111>>,>%>67776>%%,,18888117  o $$$o#++X $$X",
"j OOOo#o  oo=:=Oq1858111,>,>->56665>--,,18858117 O  oo$$$ +X$ $$",
"X OO #oo  O#=:=Oq8555818,,,,-,15581,--111855581q OO $o$$$$+X$OO$",
"$ OO o##  =o=:=oqq0s0qqq776767q0sqq7667qqq0s0qqqO  X#$$$$o+X $$$",
"o $  ###  =o=:=O$=uo# o####:Oo$# ..+XOXOoo=O#$.    X#$ oo$+X    ",
"+ $  #O#  =o=u=o O#O: O##Oo:oO$o ..+.OXOoo=ooo. o   O$$#o$+X $$X",
"X OO #$o  =O=:=o o:$#OO##$#u$$$$ ..+.OX$Oo==$o  o X $i#$$O+X $$+",
".  O #$oO =o=:=o o:$=oo##o=:$ $  @...$X$#o=oO$  O     #oo$+X oo+",
"X    #$$O ##o#=O o= =$O##==#o O  ....oX$oo=oo$XO  o $$$o#++X $$X",
"j  O ##$O O###=oXoo ##O:#==## $  ..+.oX$#OoOO$   X XX$$$$$+X $$X",
"j  O ##oO $#Oo=OX oX=Oo##==##XO$ @.+@OX #OOOO$X oX  X$$$  +XO$$X",
"j  $ ##OO o#$o$   $X=XoO#o=#oX$O @.+@oX ooo$o X  X  X$$$$++X $$X",
"X +  O#$O oo$#    o+o+oo#o=:$  o @.+@oXXoooO$ X    XX$ $$X.X $$@",
"* +XO$#$O  O$o+  X$X$.o$$$o#$X o @.+@$XX$ooX$ +X +$++  +$+.$X$+@",
"&X.X$$$$$  : X  XX$.o@#$$  #$X $+...@  +o$$$  X+ X $   X $@++++X",
"&X..$$+o$ $o XX+XXX.$.$$$$X#$  $X...@ +X$oo$@ X+ .+  + .+ ..+@XX",
"&*..$$ o$. $$XXX.X+.+.iX$ X#O +$X@..@+ X$$$XXX..X.XX. XXXX.@X&X.",
"<&@.+$+$+@ +$XX+&+&... X$ X$$ X$.@..@+X@   +++@+..X.@+.XX.@&.&&&",
"<*@.X+$++.++++...+..&@++++X $XX @&&.&++@   X..@.&.X....XX..&.@@&",
"<<@.X+ .X@.+X+&&.++.&&+++X++$XXX.&&.&++@.+++..&.&&@@...@@@.&&&&&",
"<<@..+.@.@@.X.&@.+..&&.XX@++$XX.@&&.&+.@.+++.@&&&*&.&..@&.@&&<&<",
"<f*@.+&@.@&..&&@+..&&&.XX&XXo++.&&&&.+.@.+++.@&&&&&@&..@&@@&&<&<",
"<<*@&.@@&&&@&&&@+@@&&&&X+&.+$+..&&&&...@@.+..@&<&<&&&@.@&&@&<<&9",
"<<**<@&&@&&&&@&@&&&&&&&@..XX &..&&&&@..@@....@&&&<&&&&@&&&@&&<&f",
"<<<*&&&&@&&&@@&&@&&&&&&&@......@&&&&@@@@@@@@@@&<<<<&&&&&&&&&<&<9"
};
