/* XPM */
static char *SW1GSTON[] = {
/* columns rows colors chars-per-pixel */
"64 128 77 1 ",
"  c #5B6347",
". c #3F472B",
"X c #53573B",
"o c #676B4F",
"O c #6F7357",
"+ c #373F27",
"@ c #332B13",
"# c #131313",
"$ c #1F170B",
"% c #474F33",
"& c #7B7F63",
"* c #232323",
"= c #533F2F",
"- c #3F2F17",
"; c #43331B",
": c #170F07",
"> c #272727",
", c #2F2F2F",
"< c #373737",
"1 c #2B230F",
"2 c gray28",
"3 c #0B0B0B",
"4 c #1B1B1B",
"5 c #4B371B",
"6 c gray31",
"7 c #434343",
"8 c #836B57",
"9 c #4B4B4B",
"0 c gray23",
"q c #533F1F",
"w c black",
"e c #67533F",
"r c #5F4323",
"t c gray34",
"y c #774F2B",
"u c #8F5F37",
"i c #5B5B5B",
"p c #4F3B23",
"a c #574333",
"s c #6F5743",
"d c #070707",
"f c gray39",
"g c #775F4B",
"h c #B37347",
"j c #5F4B37",
"k c #D78B5B",
"l c #8F7753",
"z c #7B634F",
"x c #836B4B",
"c c #5B472B",
"v c #6B4727",
"b c #F7AB7B",
"n c #EFA373",
"m c #8B735B",
"M c #DF9363",
"N c #675333",
"B c #7F532F",
"V c #775F3F",
"C c #6F6F6F",
"Z c #E79B6B",
"A c #BF7B4B",
"S c #AB6F43",
"D c #CF8353",
"F c gray42",
"G c #8B8B8B",
"H c #9F876F",
"J c #838383",
"K c #A36B3F",
"L c #FFB383",
"P c #FFBB93",
"I c #875733",
"U c #1F4317",
"Y c #9B7F6B",
"T c #777777",
"R c #937B63",
"E c #17330F",
"W c #13230B",
/* pixels */
"4444444444444444444444444444444444444444444444444444444444444444",
"wwwioiTo%@#$,22244$O,%Oo29,.8J8Oz8o o&&&RO&OOOOOOOOGJOJOt O ,+4w",
"www6oioor$:4@@%61;;,,Xo%Xo..o&&&&oX&%%%%XX&ooo%9fo6oo X .8OO@$0w",
"www6ooir53$1@+....;43+6 oo6X  o&ooX&X%%XXoo OosfoX6O +2 8GXO.#4#",
"www6ooo5@#41@1@99.0;Wd, Oo%%X  ooXoOooXXXOOooOOOooofooX XOo X6$3",
"wd:+omi.@,44@%%%.+.;4d@%ooX%.    oooOoXXoOOOOoOooO8o& XXo  o o,w",
"ww:6o8o0@,,$4+ %<% X;#.%.oo..X%  o oOOX%XOOOOOOooOO&ooXX9  X%.$#",
"3##aiOo91.20.1% X.1+;@...  .%%  oo oO& .XOOOCOOoooooOoXXX X%XX:3",
"#,@XiiXX%.9.,+%XX.1+%.69X%%%.. %  &oO XXX&OOOOooooXOO oXXXX%i6#3",
":@Xoi6 Oo.@++%.XX.+X%% 92%+%..X%X oOo XX oo&OOoooo oX  XXXX% .*w",
":..oooooX%4. %.%%%%%%%%.% %X%.XX%XoOooXXo ooO&o XoXX%XXX XoXX+$3",
"#.@oO 6oo.+.% %7%%%%%% .+%%%%.% XoooX    oooOoO  o X9%%%   X+0#3",
"*X.ofioi6%+.,%++..%276%%%%.%%%.%%Xzo% oo oOo ooOoXXX7++. X..@$4w",
"#.@ooOo%7X%<,<+...+% XXX2< X... .%  X.OOooOOO OOoX =+++76+++#$:w",
"3$7XsfX+.Xo ++X..++%%%%XX% %X..%%X  +.O&oOooOOoCo%ooX.+.6*@>*@:w",
"w*>666X%0X% 20%.,+%XX %  %% %...% %,.X&&O&ooo&&oX.XOOX%X@,*,#.43",
"3$, Xo%%..%XX.%.<+X  %%  %%   .XXX0.% o&Oooooo&o.,o&o .@,@$,,.+3",
":XXo o9,@.XX+.%..% ooaX X%%%  %X X.<1%ooOoXoOoXX  ooX%%.6,727.+3",
"*. 666X.+.00+7%.%.XXXoo oo  XXX%  X%1+OOOfooOOo XX  7XfXt+@X ++3",
"*%.XXX%XX..%+,. X%XXX   OoXX%%%%X oX<+oOOOoioOooXj  aXO O XXX +#",
"#.$os9%XX.7.++,.% 6XXX.X X  %%% 9 o .%oOoooXoOoo %  +9oXO   2 03",
"47.oo2.%.%.7<+%.%  X%X%% XXX%%XX o % oooooo ooOo oo +.a o  X  +#",
">..OOX.%2.0.,+X..%XXX99XX9XXX0  OsX X ooOoooOOoOoooX%%X X  X X+#",
"* .OOXXX%X9.41%0%%%%77X X%XXX% Oo%%  XXoo oOOooOooOX09 X O X  +#",
"*  Oo X966%%.%%.=  X.pX X6XXX%fOX34%OX  oooOoooooX6X%X . X XX +#",
"   .@Xtt,@X$.$*#@<O6...X .@.7,,X7X7.*...X UEXX ,XX7.  XXXXtXX.+#",
"+++,$$*+*4$:$,*4*3++,+4**,$4$#*4*+$+,$<,+,+@++,+4*,*+,++++**+$+#",
"4*>4:3#*#3:###::4*>4:3#*#3:###:::#*****#4###3#3*4:4:#:*#4*4***#3",
"X&ooOoO%o%oo o*4+ooomoOmoom8mOoOOo&O%9.oXooXXOXoRO&oo&&&OOOXO.&O",
"   OOo  o  o  *#0XXXO X OOo8 X oOOOOO  O  oooo  OoO8 6  X7.X6 oO",
"O OOO       XX:#0  X.X   OO  XX OOoX o XX OXX  O    XXXXX%.X.XoO",
"  OOO ooXo X  33,%%%%XXX &X.  X  OoX O X   ..  &    %X X%+.%%XXX",
"Oo  X o oooXoX:3,.X.X    XXXX X   XX  X. o %.XOO%.  XXXX..X.9%X%",
"   XX oooX X X3#+XX@.X   .XXX   O %XXXXX   XX  X..  XXXX.X .XXs&",
"XX X X o oXX  :31.X2%X.X XXX OO XXXXXXXXX oXX X.XXX%X X%.X%.=% &",
"XXX XX ooXXX X*:+.%.XX.XXXX%o8 %XXX X  X  OX=XXX  X%X X%.% @X%%&",
" XX<  o o Xoo +:*.X..XXXX%X oOX. XX  X    O %%X    XXXX%%.%.X%%X",
"2..=O  ooooo X+3*%X.,XXXX%XX  XX XXoO  X     X%X OXXX.X %..X%9a ",
"X Xo%  Xoo  oX*:+XX..X XXXX.X   %   OO XX   XXXX OX%%.X %.. %X X",
"X  O  XXXooXo +3+22XXX  XXt=.X  XXX  OoXX  OXX  X  X.%  ...X%X  ",
"XX  O oXX    o;#0..%X X.XX X= X%     O X OO      .  %X X..XX%   ",
"X oOX O  X o o+#=XX%X %.XX %.XX X  XXO  oOOo %X XX OX%  ..X X oO",
" X  oXoo ooo  +#=X...X..X X...X  X      Oooo XXXX% O .% ..X   o ",
"oX  o o   o   +#+X%X%..XXXXXXX    OOO     oOo XXX   O XX%. O oo ",
"O O   O   O   +#+..X..XXX%XXX O XoOO      O   X.X   XX  .% O oO ",
"o   O O     O +3+@@..%XXXXXXX o  oooo         X%X   XX %X Xo  o ",
"     O    XO X+:+@$.%XX%X XX OO  OOOO  o       X  o   XX   XoXo ",
".             +3+%XX%.XXoXX  o  oo  o Oo o ooo o  o o %%=%X   o ",
" X      X     ;3+%%XXX  o  o     o   X X     o OO  oO.%X;p.X o  ",
"XXX  X  X     +3+%%%%XX        X   XX .   o   oO  o +.   ;+..XX2",
"++++0+++<+++;+*w+*+++++;++++0+++++*++++++++++++++++=++,+<+++++++",
"+**#**4*1***>*$w+**#**4*1***>*1$@****>#******#***$********$**$#3",
">>00>>>5->+.2ioo  %o90+iioOoX%.Xo9%X22o2oX %o..o&OOooooo%%ooFO+4",
":$$@@*@-@@27@  o  X.X   OO  XX OOoX o XX OXX  O  O.$.Xo &.oOOO+4",
"w$$5,@-<-@.q;  o X%%XXX &X.  X oOoX O X   ..  &  2.7@@  OOoO O+#",
"w$$$@--*5-q@.  o X.X    XXXX Xoo XX OX. o %.XOO%.@. X2XO&8&OoX+#",
"w1$$$@@@-5+. X o X@.X   .XXX  oO %XOXXX   XX  X..X.  tXXX  O @<#",
"w$1$$5@+5.+.X%X  X2%X.X XXXooO XXXXOoXXX oXX X.XX6t X X..  o$t*3",
"d#@$$155.5Xq..%X X.XX.XXXX%oO %XXX &o X  OX=XXX  X    X62XXXX>43",
"#$@1$1-@-5++q.=%X ..XXXX%X oOX. XXO&O    O %%X       OOXXXX X$$#",
"#-5@$*,,-55qX=.%% .,XXXX%XX  XX XXO&& X     X%X OXt.X& X  X.X,*#",
":@@@@$@---5.qXq.XX .X XXXX.X   % oo&& XX   XXXX O@,,7OO  X X7@+#",
":@@@@@@,@@-5++.q22X X  XXt=.X  XXXoO&oXX  OXX  X ...XXO  X% X7+#",
"#@5@*,5**@@-@qq7..%X X.XX X= X%    O& X OO      . .2X  O XXXXX+#",
"#.-,@@@>$5@---++XX%X %.XX %.XX X  XOO  oOOo %X XX XOO XOXX XXX+4",
":-@@*$@<@@@$-55+++..X..X X...X  X o&o  Oooo XXXX%XXO., X  X XX,#",
"#.@**$@<,,@@>-@5++X%..XXXXXXX    OO&o    oOo XXX <7X>  OfXXX .,#",
"#<@,@@@--@>,@*--5.X..XXaeXjeX=ee=XejXea  O   X.X .,tXoo O+..22*3",
"#-2@@-=-+2@@@**@@@..%aX-==j=>=22=>=j==-<a    X%X X.XX OOOXX...+#",
"4.-@@-++;+;;@$*.@$+p <<$;5s1<>ff><1s5;$<<2p   X  XXt   O&OX7.,*3",
"*@<@;;+;.;;;@*@*$@ ,<1g>$;=$2>jj>2$=;$>g1<,      X6 O   OO  X.*3",
"#@$@;;;,...;;@@@$ =>-$2;1;>$>><<>>$>;1;2$->=   X XX     oO   X,3",
"#*#$;++..++++;.>X<-j>,>.#=w#w:$$:w#w=#.>,>j-<X       o  O   XX+#",
"#@*$@+..+.X..+@ ,-==@;>=w$w:#w##w#:w$w=>;@==-, OX     o      X+#",
"4,$>,,,@@.++.+*x;>$e:=d#w##d5vuBv5d##w#d=:e$>;x .  X       X  +#",
"4.@@@.@,77++++X>==;;==#d#;uhMMMMMMhu;#d##=;;==>XXo  Xf    XtO +#",
"#...@.=.X...++ >=;1==##-BhMnbLPPLbnMhB-#$g=1;=> X       X  X< +#",
"*.X XX....@,++X<-=#x##5uhMMnbLPPLbnMMku5##x#=-<X   XXX X%%X>X *#",
"*@@  X77.*#*.=e1c1@l$-uSkMMnbLPPLbnMMkSu-$l+>-g#e  X6  XXX6.XO+#",
"#>$++<+>$4##>=X$;=$l$5uhkMMnbLLLLbnMMkhur$l5j$j:=++++++>++>+>+*3",
"3#***4*4#*:#:=;c12$N$quhkkZnbbbbbbnZkkhuq$N-;C2$a:###:3#*#3:4>*4",
"O&.OXOOO&&&oo.;=>-$q$-uuhhDkZnnnnZkDhhuu-$q;IIe#a*oioo   OoOoo&X",
" o;6X.7X  6 8;@<<@:q$@ryuuuSADkkDASuuuyr@$q5lr-<X*  o  o  oOO   ",
" o;.X.%XXXXX .#<=-:y$$-ryuuuKhAAhKuuuyr-$$y5y@=<X:XX     o OOO O",
"X ;%%.+.X X% X#X1;:g$$-qqqrrvyuuuyvrqqq-$$g@1c1e=3    o oo OOO  ",
"%X%9.XXXXXXX =X$;=$g$$$qqqqqqqqqqqqqqqq$$$g$=;$X=:Xo  oo o    oO",
" sXX. X=XXXX =;c12$8$$$qqrrrqq--qqrrrqq$$$8$21c;=3X X  ooo  X   ",
"  %=.%XX%X X%.;=>-$8$$$qrryuyrqqryuyrrq$$$8$->=;.:XXXXo o X X X ",
" %%X@  XXX X%;@<<@:&$$@rq---5q--q5---qr@$$&:@<<@;*X XXXoo XXXXX.",
"X%%X.X  XXXXX.#<=-:O#$--$:w:11$$11:w:$--$#O:-=<#.+ oo    oi XXX ",
" a9%XXX  X.XXX#X1;:g#$@$::ww:@$-@:ww::$@$#g:;1X#X+X oo  o    XXX",
"X X% X.X X.%%p>;$-;e#@-$:::::1@@1:::::$-@#e;-$;>p*Xo  o X   oXXX",
"  X%X...  %.X.><*=5e#-B-$:$1-@$:@-1$:$-B-#e5=*<>.+ oXooXXX  OXXX",
"   %XX..X X% .=$<;cN#@yuKuur5::w:5ruuKuy@#Nc;<$=.;o    XXo O  XX",
"Oo X  =2  %XOp>>=$ss#1---5-@@::::@@-5---1#ss$=>>p+o o  i O XOo X",
" o    XX %. Op<;;dyV#:@-@@1--$1$$--1@@-@:#Vyd;;<p+  ooo ooXo  X ",
" oo O X XX O p<;dt$V#:@11@@rryvyyrr@@11@:#V$td;<p+   o   o o  Xo",
" Oo O  X  XX X>2:j==#:#$:@-rBByrBBr-@:$#:#==j:2>X+   O   O   O O",
" o  o   X XX ;=5-z5e#:###:@-5q-qq5-@:###:#e5z-5=;+ O     O O   o",
" oXoO        .$;-zrg#:####:@$$w:$$@:####:#grz-;$.+X OX    O     ",
" o         o .:-;C2N#:##################:#x==;$X=+             .",
"  o         o-,;IIe-sxs==;;;=;=+;;=-.eslVs-=21c;=;     X      X ",
"2XXXXXXXXXXXX;#5lr-<@X$;=$@<<@=>==p=>=>y@=<=->=;.+     X  X  XXX",
"+++++++<+,++=.#5y@=<@;c12$-=<#1<>pp>=1<1c1e=@<<@;*+;+++<+++0++++",
"w$*>***1*4**#>3$$-$;31@41:333w:,4--4,:w3w3331@*3>1*>***1*4**#**+",
"F  iX6OOOOOOOOm=4+OFoo%%oo .X%X>,.,X%XXXX     X   O&O OHO&&oo.4 ",
";;+@@#U.% ooOOO%4+OOOo.& oO&O&H&O&&&H&&&&&&&&&&OOOOO &&OO&&&.*.%",
";p+@**.%eXooOOOa#+O OoOO  %oXX .. X O OOXXOOOO OOOO O  OOOOX,.O ",
"p++*$,,% XooX 8a#+XoO&8&OX6 O X..7@X&  OOoO&OOOO  X OX%OO X.= OO",
"$.+@27.XX  o X8%#<@ O  XXXoO& @@..    OO&88&&&&&  OoOO   X.XXXOO",
".%.,@.Xoo   eOOa3*t$o  ..Xo&8.$@X. OOOO O&&&&&&OX &OO8&& X%.X O ",
"7.,..7 ooo eO&O+34>XXXX26Xo&X$.X@.OOOOOOO&&&&&& . &&8O8YOX=.=OO.",
"@..@2 .ooO&X.OO+#$$X XXXXOOOX@.X.XOOO  OO&&&&&& .OH&OO&&=;X.+  +",
"2@7.XX.  oO $X8%#*,X.X  X &OX@+.XXX&& OOOO&&8&8oOO&&OOO .X.@...X",
"X@..X.,Oo  O@ O%#+@7X X  OO&.@++. X O OOOO&&8OOOOO O& .XX .@X@.t",
"X.X@..@     XOOa#+7X %X  O & @@;;..%  O oO&&&O %O&OO&O%.XX@. XXX",
"XX.@..tX  O X &%#+XXXXX O o& >...;+XX O  OO&OOO OO   O XX..  ..@",
"%..*..X oO   XX+4+XXX XXOXoO%$. .@@.X  OOOOoO&OOOXXX O%....  ...",
"XX..X e &  XO X<#,XX X  X 0 @$.XX@@@%o O&& X &O  X%   .< t.. X,7",
" 6..X   O   O.<%#,. XXXfO  o..+t @. .OXO&O  OO&OOo.@X X.X X%XX.2",
"OX=e    Oo     %3*22..+O oOGO2@.XX &&..XOOoOOoO&OO .@. X.%XXX..X",
"oXXX  o Ooo  oO%#+...XXOOOOY&.$X .XOHO@+oOOOOOO&OOX..2  ..XXX..X",
"ogX oOo Ooo ooO%3*,.7XO&O o&O.. OXX OOX. oO8O O&OO.$>.X XXXX...%",
"oo  oOooooo oOo%3*.X  OO  o&OoX@%O .X oX.O&&OOO88O@$..XXXX%%XXO ",
"o ooOOog   OooO%3,X   Oo  oOOo %X& XX o XO&O O8&&o@,OX.X%X..XXOO",
"ogoOOoOOoo oOOO%#+XX   O  oOo X XO%@ oX OX&O OOOOO.+XXXXXX..X   ",
"o oOOoOo  oOOO %#+X      ooo XX.@X+@X oooOOO OO OO XXXX  2.X  X ",
"++<+;+++++++=++*3*+>+>++>+++++++++>>>$>>+>>>++++>>4>+++>$*+%0>$#"
};
