/* XPM */
static char *SW1HOT[] = {
/* columns rows colors chars-per-pixel */
"64 128 67 1 ",
"  c #670000",
". c #730000",
"X c #170F07",
"o c #4F0000",
"O c #5B0000",
"+ c black",
"@ c #430000",
"# c #7F0000",
"$ c #1F170B",
"% c #131313",
"& c #533F2F",
"* c #3F2F17",
"= c #43331B",
"- c #272727",
"; c #332B13",
": c #373737",
"> c #2B230F",
", c #8F5F37",
"< c #5F4323",
"1 c #53573B",
"2 c #4B371B",
"3 c #67533F",
"4 c #774F2B",
"5 c #533F1F",
"6 c #3F472B",
"7 c #9B0000",
"8 c gray28",
"9 c #B37347",
"0 c #4F3B23",
"q c #775F4B",
"w c #5F4B37",
"e c #8B0000",
"r c #6F5743",
"t c #070707",
"y c #2F2F2F",
"u c #DF9363",
"i c #0B0B0B",
"p c #D78B5B",
"a c #5B6347",
"s c #7F532F",
"d c #5B472B",
"f c #8F7753",
"g c #574333",
"h c #836B4B",
"j c #6B4727",
"k c #675333",
"l c #BF7B4B",
"z c #CF8353",
"x c #7B634F",
"c c #AB6F43",
"v c #EFA373",
"b c #F7AB7B",
"n c #E79B6B",
"m c #875733",
"M c #FFBB93",
"N c #775F3F",
"B c #A36B3F",
"V c #FFB383",
"C c #232323",
"Z c #1B1B1B",
"A c #373F27",
"S c #7B7F63",
"D c #6F7357",
"F c gray34",
"G c gray39",
"H c #836B57",
"J c #6F6F6F",
/* pixels */
"XXXXXXXXXXXXXXXXXXXXXXXXXXXXXXXXXXXXXXXXXXXXXXXXXXXXXXXXXXXXXXXX",
"+XOO@X+X++X@OO@@@@@@@# @@  @@   @@o  @@@@@OoXXO  ##.##.OO . @@X+",
"++@o@++@@+++@  @@OO  O@XX@. @@ oX@@ O@@@@@@ @@O    O ...@#..@X@+",
"X@@@@@@@@+++X @@XX@@@@@@X@O@@. X+@@@o@O@@@O.@@O OOO@o..##eO.@+X+",
"@@@X@@@@@+++@@@+++@@@@@X@O@+@..@@@@@O  O@@OO@o   O@oO   @. O@@X+",
"@@@@@@@@X@@@+@X+++@@ o@@@@@@+@@@OO@XXOO@@@@ OO   @@o  @O    O @+",
"@@O @@O@@@@@@@+++@. o  OO@O@@++@O.@@@@@@@@@O@  @OoX@ OXX@O oo@X+",
"+@O@ # @o@@@O@@++@ Oo .7.@@@@@@O. @@O@@@@@@@+@@X@O@@O@++OO oo@++",
"@@X@  OO @XXX+@X@@@@ O #.Oo@@@@O.O@ O@@O@+@@@@@@@@X@@@+X@@ o@@++",
"@@@@@@@@@@@@@@@++@@@O@@ .  .O@O O@O @@@+@@+X@@@@@@X++XX@@ o@@@@+",
"@@O O@@@@oO@@@@+++X@@@o . @@O@@O@@ @@@@+X@@+X@@@@@@+@@@@O@ @@@X+",
"@@@OOO@++O.  @+++X@++X@ . O@@@X@@@@@@@@+@@@@+XX+X@@XX@@@ OO@@@++",
"@O@O O@+X@O.#@X+++++@@@@@O O@@@@@X@+@@@+X@++X@@@@@@@@OoX O@@@XX+",
"@@@Oo@@@X@O  O@@+++@@O@@OO  @@O@@X@X@@@@O@+X@OOO@@@@@  @@@@@+X++",
"OOO@oOo@X@@  @@@@X@@@@@@@  . @OoO@@@@@ ##OOO@@OO@@@@OO@@@@@@@@++",
"OOOO@@O @@@  @OO@@O@@@@@@ ...O@OO@@@O O.7 O@@@o@@@OOO@  @@@@+@X+",
"@OO X+@  @+@ O . OOO@@@@O  .. O@O@@@O  .#  O@@@@@OOOOO  @@X@@@@+",
"oo .++@# XX@O #. OO    OO     OOOOO@O    .. @@@@@O O@O @@@@@@@@+",
" OO @@O O@@@ .#.  O    O     Oo   OOOo@ 7#    OO@Oo@@   @@@O @@+",
" OO  OOOO@@o   ..     O@O    Ooo  O O@@.###. ..OOOOO .  . OOO @+",
"  OOOOOOOooOOoo . OO O@@O    oO  OO OOO.#.###.    OOO o .   @ @+",
"  O@O  O@@O O@O OO@Oo@@@O         O  O ...##7#....O@OO@@   O  @+",
"OO OOOoO@@O OOOOOX+O @@@ oo  O   OOOO  .###77#..## OO@O@O  O O@+",
"  OO Oo@@OOOOOOO @@O OO  OOO      OOOoO.##777###### @@ @ . O  @+",
"@  @@ O@@@XX@O@@O. OO@O O@@@O@@@O@@oOoO Oo .###.  @O o @ O OO @+",
"   @@OOO@@OX@X@+@@.o@@@O @@@@@@@@O@@@@@@O O OO @OO@@  OOOOOOO@@+",
"@@@@XX@@@XX+X@@X@+@@@@X@@@XXX+@X@@X@@X@@@@@@@@@@X@@@@@@@@@@@@X@+",
"X@@X+++@++++++++X@@X+++@++++++++++@@@@@+X++++++@X+X+++@+X@X@@@++",
"O#  . .O O  O @X@   e .e  e#e. .. #.oo@ O  OO.O 7.#  #77#..O.@ .",
"   .. o       @+@O@ ... .. #.. ..O. OO@O X@ O@@O .#. ###. #O O .",
". ...        O++@ O.  . .. #....# .. @ @O@@@OO@O@..#o##.  oO@O .",
"  ..          ++@.o  .....@. #. ##.. @@@@@@@@@ @@.OO.###. OO O O",
".            o++@.@ o.... O7 #@O..  @.@@@@@@@Oo @ @ .##...OO @ o",
"             @++@@@. .........+#   O@OO@@O @O@O@ @@.#.## .O@O@ #",
"            Oo++@   ........#.O     @o@O@O   OoOO@X  ###  @O@@  ",
"@  O       O o@+@OO. .........O .  O @@@@  @  @OOO@ ..#.  @O@@ O",
"   oOO    O  O@+@@O......... O   .#@o@@@@ooo O O.    ###. @O@@oO",
"@oO     O  O @@+@  .........OO.O  .O O@OoO@OO  .oX   ###. O@@@O ",
"Oo  O  Oo  O @@+@  .. .. ....    . O OO@O.OO O .. #  #..  OOoO O",
"O O.  OOO  O O@+@... ......... O#.... OO        .  .  .# O oO   ",
"OO  .   oOO O @+@. . .  . #........#     . . . .       .. OoO   ",
"O   O . OO    @+O.  . . ... ...... ... . ........ o . O .  oO ..",
" O   O.    .  @+O     .. .. ......  #. . ..... ... o OoO  Oo  . ",
" O    .       @+@  .     .   ..........  ..... .... oOoo OoO  . ",
". .   .   .   @+@       . ..  ...  .. .....  . .. #..o@@@Oo  .. ",
"    . .     . @+@   . ..   .. .   . . . ...........  .o@Ooo.  . ",
"     .    O. O@+@OO        ..    .. . @.. .. ....  ...O@oOO  O. ",
"@             @+@oOO    .    .       O.    ... .  . .O@@@@      ",
" O      O     @+@ooOOO               O O       ..   .@oO@o      ",
"OOO  O  O     @+@ooooOO        O   OO @        .    @@   @@@OOO@",
"@@@@@@@@@@@@@@@+@@@@@@@@@@@@@@@@@@@@@@@@@@@@@@@@@@@O@@@@@@@@@@@@",
"@@@+@@X@@@@@@@X+@@@+@@X@@@@@@@@X@@@@@@+@@@@@@+@@@X@@@@@@@@X@@X++",
"@@@@@@@@@@@@@O    o o@@OO . Oo@O ooO@@ @ O o @@ #..     oo   .@X",
"++++++++++++@X@ o @X+@X@@O# O@@O O @O@@@@@oX@@@  .@X@O  #@ ...@X",
"+++++++@@++X@@O@@@@X@@+@@@ .OO@O@   +@@@@o@XX@@@O@@@@@  .. . .@+",
"+++@++@@@@@@X@OO+X .@++@+XO O@@@@@X +@@X@X@@@@X@X@@ O@O.###. O@+",
"+++X++@@@@@@@@OO@XO. @++@O@O @@@@@@@X@+@@@@@@ @@@O@  OOOO  . @@+",
"+++@++@X@@@@OOoo@X@.@@@@@@@O  OO@@@O..O@@@@@O@@@@oO O O@@   XO@+",
"+++++@@X@@@OOOOX OXO .OOO@@O . @@@@O.. @@@@OO @X@O    Oo@OOOO@X+",
"++++@@O@@o@OO  @.@@O # O  O   O  OOO .. O@OO@ @+@    ..OOOO OXX+",
"+X++@@@@@@@O O OOO@O  .   @   O    @ ... OOO  @+XOO@O# O  O@O@@+",
"+@@@@@@@ @@O  O O@O @O @O@@      O O.......OOO@X@@@@@..  O O@@@+",
"+@@+@O@O@@@OOOOOO@OOOOOXOO@Oo    OOO ...#.. @O@@O@@@OO.  Oo O@@+",
"+@@+@@OO@O@@ O O@oOOOOOOOO  O     OO........O @@  @@O  . OOOOO@+",
"+X@X@@OOo@OOOoOOOoO OOOoOOo   .    O .#...#..  O  O.. O.OO OOO@X",
"+@@@@@O@@@  OOOOOOO OOOOOOo        O .#..##..  O@OO.@@ O  O OO@+",
"+@@+@OO@@OO OOOOOO  OOg31w31&33&13w13g.##..#. O @@@O@  . OOO @@+",
"+@O@@OO@@@o O OOOOOOg1*&&w&-&88&-&w&&*:g.#... @ .@@OO   .@@@@@@+",
"+@@OO@O@@@OOOOOO@O0a::$=2r>:-GG-:>r2=$::80.#.O ..O@OO ...OO@@@@+",
"X@@@@@@@@@@OO@O @ay:>q-$=&$8-ww-8$&=$-q>:ya..OO. OOO   .#.O@@@@+",
"@@@@@@@@@@@@OOOOa&-*$8=>=-$--::--$-=>=8$*-&a.   OOo .   ..  O@@+",
"+OO@@@@O@@@OOOO1:*w-y-6%&+%+X$$X+%+&%6-y-w*:1#.. OO      .   O@+",
"+ OOO@@O@@@O@Oay*&&;=-&+$+X%+%%+%X+$+&-=;&&*ya...       .   OO@+",
"+ OO@@@@@@@@@ h=-$3X&t%+%%t2j,sj2t%%+%t&X3$-=h.#             O@+",
"X  O@@@@OO@@O1-&&==&&%t%=,9uuuuuu9,=%t%%&==&&-1#   O       O  @+",
"X  OO@@@OO@@@a-&=>&&%%*s9uvbVMMVbvu9s*%$q&>=&-a.    O     OO. @+",
"+O OO@@@@@@@@1:*&%h%%2,9uuvbVMMVbvuup,2%%h%&*:1..       O  O@ @+",
"@@O OO@@@@@@&3>d>;f$*,cpuuvbVMMVbvuupc,*$fA-*q%3   OOO OooO@O @+",
"@@@  O@@@@+@&1$=&$f$2,9puuvbVVVVbvuup9,<$f2w$wX&O  Oo  OOOo@O.@+",
"@@X@@@@@XX++&=d>8$k$5,9ppnvbbbbbbvnpp9,5$k*=J8$g@@@@@@@@@@@@@@@+",
"++@@@X@X+@++6=&-*$5$*,,99zpnvvvvnpz99,,*$5=mm3%g++++++++@+++X@@X",
".#O  ###    =;::;X5$;<4,,,clzppzlc,,,4<;$52f<*:1X@ O     . .  #O",
"  @.  O. O  6%:&*X4$$*<4,,,B9ll9B,,,4<*$$424;&:1+@         ..   ",
"  @#  @    .1%1>=Xq$$*555<<j4,,,4j<555*$$q;>d>3&++OO       ... .",
"O @O  O   OO&1$=&$q$$$5555555555555555$$$q$&=$1&++         ...  ",
"oOo@O O  OOO&=d>8$H$$$55<<<55**55<<<55$$$H$8>d=&++O            .",
"  OOOOO.    6=&-*$H$$$5<<4,4<55<4,4<<5$$$H$*-&=6++O O       O   ",
"  oOoO      =;::;XS$$;<5***25**52***5<;$$SX;::;=++OOOO    O O O ",
" ooOOO   O .6%:&*XD%$**$X+X>>$$>>X+X$**$%DX*&:%6+@O OOO   OOOOO@",
"Ooo  O.  O .1%1>=Xq%$;$XX++X;$*;X++XX$;$%qX=>1%1+@        O OOO ",
" Oo Oo ..  .0-=$*=3%;*$XXXXX>;;>XXXXX$*;%3=*$=-0+@O          OOO",
"O OOOO   .  6-:C&23%*s*$X$>*;$X;*>$X$*s*%32&C:-6+@O     O    OOO",
"  OOO .     6&$:=dk%;4,B,,<2XX+X2<,,B,4;%kd=:$&6+@  O  OOO  .OOO",
"   oO .     0--&$rr%>***2*;;XXXX;;*2***>%rr$&--0+@     OO  .  OO",
".  O  ..    0:==t4N%X;*;;>**$>$$**>;;*;X%N4t==:0+@     O . O.  O",
"      .   . 0:=tF$N%X;>>;;<<4j44<<;;>>;X%N$Ft=:0+@        O   O ",
"            1-8Xw&&%X%$X;*<ss4<ss<*;X$%X%&&wX8-1+@            O ",
" . .      ..=&2*x23%X%%%X;*25*552*;X%%%X%32x*2&=+@   .   .   . .",
"   .      ..6$=*x<q%X%%%%X;$$+X$$;X%%%%X%q<x*=$6+@ .     . .    ",
"  O  O O   .6X*=J8k%X%%%%%%%%%%%%%%%%%%X%h&&=$1&+@O .O    .     ",
"         . .*y=mm3*rhr&&===&=&A==&*63rfNr*&8>d=&+@             @",
"        .. .=%2f<*:;1$=&$;::;&-&&0&-&-4;&:&*-&=6+@     O      O ",
"@OO         6%24;&:;=d>8$*&:%>:-00-&>:>d>3&;::;=+@     O  O  OOO",
"@@@@@@@@@@@@-i$$*$=i>;Z>Xiii+XyZ**ZyX+i+iii>;Ci-+@@@@@@@@@@@@@@@",
"+X@@@@@@@X@@+@@@++X@@X@@@@@@@@X@@@+@@@@@@+@@@@@@X@@@@@@@@X@@+@@@",
"  O@@@@@@@@@@@@@X@@O ..#.e.# . ee   .7#e7#...e...... ......   .O",
" @X@++++++++++++X@X. OOOO O @  O.  O ..... @@  ..#... . O oO .@X",
"@O@@X++@@++++++++@@@OOO@o O@o      . O. .#@@O...#.    ...O@O. @@",
"OO@X@@@@@@++@++++@O@oX @O @X o.O . .#oo.# X  ....#.  ##.#O@O.@X@",
"OO@@@@@@@@++X++++X@@@@OO@ O@.OOO.. O   ..O@. # ..##..#..#@@@O@@@",
"ooOO@@@@X@++@++++XXX@@O@OOOOO @....  .# 7O@oO  .......#.oO@@@o@O",
"XOOOO@@@X@@++++++X+X@+@@@@O O@ @ ...  .O. Xo@@  . .#.OO.@@O @@O@",
"@  OO@o@@O@@++++++++X@@+@@ooO O@  ..   O.@@O@o  . .#.oO @O@O@OO@",
"O O O@@@@@@@++X+++@++@++@+O@@ O@OOO.    #.@@O#.@....# @@ OOO@O@O",
" O  O@@ @@@@@@@+++X+@+++++@@@ OO  O.  .###@O@.#@ ...#O@@ OOO@O@O",
"OOOOO@@@O@O@+@@++++XXX++X+@ O @@X o.OO .#.   o  .#...o@@OOO@OO  ",
"O O @@O@OO@@+@@+++X@O@X@@@@@   @@ O @   #    @ O.. .#@@ Oo@O   O",
"OOoOOO@oOO@@X@X+X+@@ o@@@O@+@@OOOo@ OO .. @O@O...#...   .oOOO Oo",
"OOOO  @@@O@@@@@++X@@OO@@ O@@@X@@O O@@@@. @@@ @  ..#.. .@X  O O@@",
"OOOO OO@@OO@+@@++@@@@ @@.Oo@@@@OOOO@@OO  OOO OO  .... 7@X.OOOO@O",
"OO O o@@@OO@@O@++@@OO@@O  O@@@OOOO.OO@  .OO        .  . OO  OOO ",
"OOOOOO@@@O@OO@@++@OOOOO@   O@@O O .  @       .  ..     OOO  O O.",
" O@OO@@@@@@@@@@X+@O O     OO@O  O..  O  ....  ..    .  OO   O   ",
"OOOO@@@@@@@@@@@@+@ OO       OO.  O      ...       ....      O   ",
" OOOO@@@O@@@@OO++@  OOO  .    .O    O   ....             .     .",
"  O@O@@@O@@OOO ++@ O  O       .     O   .... .  ..      ..   . .",
"@O @@@@@@@@@OO ++@        .    .      . ... .... ..     .   .. .",
"+@X@++XX@@@@@X@@+@@@@@@@@@@@@@@@@@@@@@@@@@@@@@@@@@o@@O@OO@O@o@@@"
};
