/* XPM */
static char *SW1METAL[] = {
/* columns rows colors chars-per-pixel */
"64 128 27 1 ",
"  c #2F2F2F",
". c #272727",
"X c #232323",
"o c #373737",
"O c gray23",
"+ c #434343",
"@ c #13230B",
"# c gray28",
"$ c gray39",
"% c #777777",
"& c gray31",
"* c #4B4B4B",
"= c gray42",
"- c #5B5B5B",
"; c #1F170B",
": c #17330F",
"> c #939393",
", c #1B1B1B",
"< c #6F6F6F",
"1 c #838383",
"2 c #8B8B8B",
"3 c gray34",
"4 c gray50",
"5 c #979797",
"6 c #9F9F9F",
"7 c #1F4317",
"8 c #0B1707",
/* pixels */
".  oO  OoooOOo   ..@@...X.XXX.X;;;;;;;;;;;;;;;;;; .XX@@@,@,.X.. ",
"...o . OOOoooo .@X@...X..X..X;;XXXXXXXXXXXXXXXXX;XX.X@;X@@,XXX..",
".@@. .   o oo: .X. X.......X;;X oooOO######Ooo:.X;XXXX@@,,@@XXX.",
".@@... Xooo  ..X..  ..X...X;;X o o oO+O+oooo  : .X;XX.X@,,;@;XX.",
"XX. ... o  ..@.XX@. ..X..X;;X o : .oOOOOOo o     oX;XX.X@,,@;X..",
".X.    o  ....X.X . o ..X,;Xo   .oooOO#O .   o: o OX;XX.@@@X@X.X",
".        .@.@.@X. oOo .X,;XO . ooooo O+#O     o  ooOX;XX.XXXXXX.",
"... .. .X@@.@X...o+OO  ,;X+ ..  o  oOOOo  . o:oo .  +X;XX.XXXXXX",
"..@XX@X.XX.@@XX. +#+O ,;X+...  oO  ooooooo ooo o .. o+X;XX.XXXXX",
"..@@XXX.XX.@X@..oO+O ,;XO... oooOOOo  Ooo oo  o    o o+X;XX.XXXX",
".X@@@X..XXX@X.. ooO ,;Xo.. oooOOOO+OOO OooOoo oo oo   oOX;XX.XX.",
".@X@@X....@@..  oo ,;X . Xoo oOoOOO+O#+oOoOOOOooOOOo . ooX;XX.X.",
"X@X@XXX.@@.... o .,;X .  oO   o OoO+O+&+OO+OOOOOoO+OO.  ooX;XX.X",
"X@X@@@XXXXX@@.  .,;X .  oo..   o+OO+++OOOOOOO+OOoO+OO X   oX;XX.",
"XXXXXXXXXXXXX..X,;XX.. o o. o  o++O+OOO+O+++OOO+ooOOO   X  oX;XX",
"..............X,;XX.XX ooOo.ooo +OO+O++#++&++#OO+OoOo .X X  .X;X",
";;;;;;;;;;;;;;;;;X.XX  .ooo  . : OOOOOO##++#++#O+OOo X..   ..XX;",
"XXXXXXXXXXXXXXXX;X X  X.  o o .: +OO+O+####&#+++O+OX   .....X;;X",
"o+OOOOOOOOOOOOOoX;X . .     oo .oOO++OO######+#+OO   .XX.X..;;X ",
" +O##&##+#+O+OoO+X;X ...  ooooO.++O+++OOO#O+++#OO O  ... .X;;X  ",
" +O##&#&##+++OOoO+X;X ...  o  o. +O+++O+&O+OO&OO + X .  XX;;X   ",
"oO+######&#+++O oO+X;X ..X o....OO+O+OO++OOOO+OO   .....X;;X    ",
" OO+&#***#+#+OO+ oO+X;X XX@ ....O+OOOO+O#OOOOOo .@ .@.X ;;X   X ",
"o++#++*##*#+++##Oo o+X;X.XX.. . o oO+OOOoO OOO  .@...X 8;X .    ",
"o+++#++##**O##+OOO  o+X;..XX..oo  oOOOoO +   oX.  XXX ;;XX..    ",
"o+OO#O+#*#O+O+ooooOo oOX;..XX...   oOo OO .    @ @@X ;;XX... .  ",
" o+O++++O+++Oo o ooOO..o.;..XX ... . o o.   .  .@@X ;;X .X....  ",
" ooo+OO++OOooo ooo. o ...X;X.X  ..     .@ ..@..@XX.8;X .XX...   ",
"  ooOOO++OOoo oo   X   .X.X;X.@XX....      X...@X@8;X .XXXXX..  ",
"  o ooOOOoooooOo .  .  ..X.X;X.@@X@@X..  .XX.X.@X8;X .X.XXX.. ..",
"  ooooOO oooOOo  ...@  X..X.X;X.XXXXX.XXXXXXXXXX8;X .XX@@XXX..X.",
"  ooOOOo .oOOoo  @.@.. .X..X.X;X.@............@8;X .XXX@,@XX.. .",
".  oO  OoooOOo    ..@. .X.XXX.X;;;;;;;;;;;;;;;;;; .XX@@@,@,.X.. ",
"...o . OOOoooo .@  ..  ..X..X;;XXXXXXXXXXXXXXXXX;XX.X@;X@@,XXX..",
".@@. .   o oo: .  ..  .....X;;X oooO+#######oo:.X;XXXX@@,,@@XXX.",
".@@... Xooo  ..X.   ..X...X;;X o o oO+O+ooooo : .X;XX.X@,,;@;XX.",
"XX. ... o  ..@.XX   ..X..X;;X o : .oOOOOOo ooo   oX;XX.X@,,@;X..",
".X.    o  ... X.  . . ..X,;Xo   .oooOOooo.oo o: o OX;XX.@@@X@X.X",
".         @. .   ..   .X,;XO . ooooo Oo   ooo oo ooOX;XX.XXXXXX.",
"... .. .X @.@X......   ,;X+ ..  o  oOOoo  . o:oo    +X;XX.XXXXXX",
"..@XX@X.X .@@XX..     ,;X+...  oO  ooooooo ooo o    o+X;XX.XXXXX",
"..@@X X XX.@X@...  O ,;XO... oooOOOo  ooo oo  o    o o+X;XX.XXXX",
".X@@@X..XXX@X...  O ,;Xo.. oooOOOOOOOO OooOoo oo oo   oOX;XX.XX.",
".@X@@X....@@..  oo ,;X . Xoo oOoOOOOO++oOoOOOOooOooo . ooX;XX.X.",
"X@X@XXX.@@.... o .,;X .   O   o OoO+O+O+OO+OOOOOoOoo .  ooX;XX.X",
"X@X@@@XXXXX@@.  .,;X .    ..   o+OO+OOO++++OOOOOoO+oo X   oX;XX.",
"XXXXXXXXXXXXX..X,;XX..    . o  oooO+++++++++++O+ooO     X  oX;XX",
"..............X,;XX.XX    ooooooooO++####+#++#+O+Oo   .X X  .X;X",
";;;;;;;;;;;;;;;;;X.XX  .ooo  . :oOO+#++++++#++OO+OOo X..   ..XX;",
"XXXXXXXXXXXXXXXX;X X  X.  o o .:ooO+++++++##+++OO+OX   .....X;;X",
"o+O#&&&&####OOOoX;X . .     oo .oOOO++++#+++O+OOOO   .XX.X..;;X ",
" +O##&##+#+O+OoO+X;X ...  ooooO.oOooO+#+++OOOO#OO O  ... .X;;X  ",
" +O##&#&##+++OOoO+X;X ...  o  o.oo ooOOO+OO+OOOo + X .  XX;;X   ",
"oO+######&#+++O oO+X;X ..X o....  o  o+OOO+OOOoo   .....X;;X    ",
" OO+&#***#+#+OO+ oO+X;X XX@ .... .  ooO++OOOOoo .@ .@.X ;;X   X ",
"o++#++*##*#+++##Oo o+X;X.XX.. . .  o o   O O    .@...X 8;X .    ",
"o+++#++##**O##+OOO  o+X;..XX..oo..oOO        oX.  XXX ;;XX..    ",
"o+OO#O+#*#O+O+ooooOo oOX;..XX.....   ooo   . . . @@X ;;XX... .  ",
" o+O++++O+++Oo o ooOO..o.;..XX .....   .......X.@@X ;;X .X....  ",
" ooo+OO++OOooo ooo. o ...X;X.X  X.......XXX.@X.@XX.8;X .XX...   ",
"  ooOOO++OOoo oo   X   .X.X;X.@XXX.X.. .X..X.X.@X@8;X .XXXXX..  ",
"  o ooOOOoooooOo .  .  ..X.X;X.@@X@XX.X.X.XX.X.@X8;X .X.XXX.. ..",
"  ooooOO oooOOo  ...@  X..X.X;X.XXXXX.XXXXXXXXXX8;X .XX@@XXX..X.",
"  ooOOOo .oOOoo  @.@.. .X..X.X;X.@............@8;X .XXX@,@XX.. .",
".  oO  OoooOOo   ..@@...X.XXX.X;;;;;;;;;;;;;;;;;; .XX@@@,@,.X.. ",
"...o . OOOoooo .@X@...X..X..X;;XXXXXXXXXXXXXXXXX;XX.X@;X@@,XXX..",
".@@. .   o oo: .X. X.......X;;X oooOO######Ooo:.X;XXXX@@,,@@XXX.",
".@@... Xooo  ..X..  ..X...X;;X o o oO+O+oooo  : .X;XX.X@,,;@;XX.",
"XX. ... o  ..@.XX@. %>222>>>556565>2>>222>>%     oX;XX.X@,,@;X..",
".X.    o  ....X.X . #=$$$==<%%4%1%=$==$$$==# o: o OX;XX.@@@X@X.X",
".        .@.@.@X. oO#<=$=<<%%41414<=<<=$=<<*  o  ooOX;XX.XXXXXX.",
"... .. .X@@.@X...o+O#<===<<%441424<=<<===<<*o:oo .  +X;XX.XXXXXX",
"..@XX@X.XX.@@XX. +#+*<===<%%441424%=%<===<%*oo o .. o+X;XX.XXXXX",
"..@@XXX.XX.@X@..oO+O*%<<<%%4112121%<%%<<<%%&  o    o o+X;XX.XXXX",
".X@@@X..XXX@X.. ooO *%<<<%%41121>1%<%%<<<%%&o oo oo   oOX;XX.XX.",
".@X@@X....@@..  oo ,&%%<%%4$333333333$%<%%4&OOooOOOo . ooX;XX.X.",
"X@X@XXX.@@.... o .,;&%%<%%4$.:.:.:.:.$%<%%4&OOOOoO+OO.  ooX;XX.X",
"X@X@@@XXXXX@@.  .,;X*%<<<%%$o7o7o7o7o$<<<%%&O+OOoO+OO X   oX;XX.",
"XXXXXXXXXXXXX..X,;XX*%<<<%%$o7o7o7o7o$<<<%%&OOO+ooOOO   X  oX;XX",
"..............X,;XX.*<===<%$o7o7o7o7o$===<%*+#OO+OoOo .X X  .X;X",
";;;;;;;;;;;;;;;;;X.X#<===<<$o7o7o7o7o$===<<*++#O+OOo X..   ..XX;",
"XXXXXXXXXXXXXXXX;X X#<=$=<<$o7o7o7o7o$=$=<<*#+++O+OX   .....X;;X",
"o+OOOOOOOOOOOOOoX;X #=$$$==$o7o7o7o7o$$$$==##+#+OO   .XX.X..;;X ",
" +O##&##+#+O+OoO+X;X#=$$$==$o7o7o7o7o$$$$==#++#OO O  ... .X;;X  ",
" +O##&#&##+++OOoO+X;#$$-$$=$o7o7o7o7o$$-$$=#O&OO + X .  XX;;X   ",
"oO+######&#+++O oO+X+$---$$%111111111%---$$#O+OO   .....X;;X    ",
" OO+&#***#+#+OO+ oO++$---$$=<<%<%<$-$$---$$#OOo .@ .@.X ;;X   X ",
"o++#++*##*#+++##Oo o+--3--$$=<<<%<$-$--3--$+OO  .@...X 8;X .    ",
"o+++#++##**O##+OOO  O-333--$==<=%=-3--333--+ oX.  XXX ;;XX..    ",
"o+OO#O+#*#O+O+ooooOoO-3&3--$$=<=<=-3--3&3--+   @ @@X ;;XX... .  ",
" o+O++++O+++Oo o ooOO3&&&3--$$=$<$-&-3&&&3-O.  .@@X ;;X .X....  ",
" ooo+OO++OOooo ooo. OOo oOOO++#+#+OoOOo oOOO@..@XX.8;X .XX...   ",
"  ooOOO++OOoo oo   X   .X.X;X.@XX....      X...@X@8;X .XXXXX..  ",
"  o ooOOOoooooOo .  .  ..X.X;X.@@X@@X..  .XX.X.@X8;X .X.XXX.. ..",
"  ooooOO oooOOo  ...@  X..X.X;X.XXXXX.XXXXXXXXXX8;X .XX@@XXX..X.",
"  ooOOOo .oOOoo  @.@.. .X..X.X;X.@............@8;X .XXX@,@XX.. .",
".  oO  OoooOOo    ..@. .X.XXX.X;;;;;;;;;;;;;;;;;; .XX@@@,@,.X.. ",
"...o . OOOoooo .@  ..  ..X..X;;XXXXXXXXXXXXXXXXX;XX.X@;X@@,XXX..",
".@@. .   o oo: .  ..  .....X;;X oooO+#######oo:.X;XXXX@@,,@@XXX.",
".@@... Xooo  ..X.   ..X...X;;X o o oO+O+ooooo : .X;XX.X@,,;@;XX.",
"XX. ... o  ..@.XX   ..X..X;;X o : .oOOOOOo ooo   oX;XX.X@,,@;X..",
".X.    o  ... X.  . . ..X,;Xo   .oooOOooo.oo o: o OX;XX.@@@X@X.X",
".         @. .   ..   .X,;XO . ooooo Oo   ooo oo ooOX;XX.XXXXXX.",
"... .. .X @.@X......   ,;X+ ..  o  oOOoo  . o:oo    +X;XX.XXXXXX",
"..@XX@X.X .@@XX..     ,;X+...  oO  ooooooo ooo o    o+X;XX.XXXXX",
"..@@X X XX.@X@...  O ,;XO... oooOOOo  ooo oo  o    o o+X;XX.XXXX",
".X@@@X..XXX@X...  O ,;Xo.. oooOOOOOOOO OooOoo oo oo   oOX;XX.XX.",
".@X@@X....@@..  oo ,;X . Xoo oOoOOOOO++oOoOOOOooOooo . ooX;XX.X.",
"X@X@XXX.@@.... o .,;X .   O   o OoO+O+O+OO+OOOOOoOoo .  ooX;XX.X",
"X@X@@@XXXXX@@.  .,;X .    ..   o+OO+OOO++++OOOOOoO+oo X   oX;XX.",
"XXXXXXXXXXXXX..X,;XX..    . o  oooO+++++++++++O+ooO     X  oX;XX",
"..............X,;XX.XX    ooooooooO++####+#++#+O+Oo   .X X  .X;X",
";;;;;;;;;;;;;;;;;X.XX  .ooo  . :oOO+#++++++#++OO+OOo X..   ..XX;",
"XXXXXXXXXXXXXXXX;X X  X.  o o .:ooO+++++++##+++OO+OX   .....X;;X",
"o+O#&&&&####OOOoX;X . .     oo .oOOO++++#+++O+OOOO   .XX.X..;;X ",
" +O##&##+#+O+OoO+X;X ...  ooooO.oOooO+#+++OOOO#OO O  ... .X;;X  ",
" +O##&#&##+++OOoO+X;X ...  o  o.oo ooOOO+OO+OOOo + X .  XX;;X   ",
"oO+######&#+++O oO+X;X ..X o....  o  o+OOO+OOOoo   .....X;;X    ",
" OO+&#***#+#+OO+ oO+X;X XX@ .... .  ooO++OOOOoo .@ .@.X ;;X   X ",
"o++#++*##*#+++##Oo o+X;X.XX.. . .  o o   O O    .@...X 8;X .    ",
"o+++#++##**O##+OOO  o+X;..XX..oo..oOO        oX.  XXX ;;XX..    ",
"o+OO#O+#*#O+O+ooooOo oOX;..XX.....   ooo   . . . @@X ;;XX... .  ",
" o+O++++O+++Oo o ooOO..o.;..XX .....   .......X.@@X ;;X .X....  ",
" ooo+OO++OOooo ooo. o ...X;X.X  X.......XXX.@X.@XX.8;X .XX...   ",
"  ooOOO++OOoo oo   X   .X.X;X.@XXX.X.. .X..X.X.@X@8;X .XXXXX..  ",
"  o ooOOOoooooOo .  .  ..X.X;X.@@X@XX.X.X.XX.X.@X8;X .X.XXX.. ..",
"  ooooOO oooOOo  ...@  X..X.X;X.XXXXX.XXXXXXXXXX8;X .XX@@XXX..X.",
"  ooOOOo .oOOoo  @.@.. .X..X.X;X.@............@8;X .XXX@,@XX.. ."
};
