/* XPM */
static char *SW1PIPE[] = {
/* columns rows colors chars-per-pixel */
"128 128 64 1 ",
"  c #4B371B",
". c #533F2F",
"X c #774F2B",
"o c #43331B",
"O c #5F4323",
"+ c #6B4727",
"@ c #574333",
"# c #7F532F",
"$ c #5F4B37",
"% c gray31",
"& c gray28",
"* c #533F1F",
"= c #5B472B",
"- c #4F3B23",
"; c #373737",
": c #332B13",
"> c #67533F",
", c gray34",
"< c #6F5743",
"1 c #3F2F17",
"2 c #8F5F37",
"3 c #434343",
"4 c #675333",
"5 c gray23",
"6 c #875733",
"7 c #2F2F2F",
"8 c #775F3F",
"9 c #53573B",
"0 c #676B4F",
"q c #6F6F6F",
"w c gray42",
"e c #3F472B",
"r c gray39",
"t c #777777",
"y c #5B5B5B",
"u c gray50",
"i c #838383",
"p c #939393",
"a c #775F4B",
"s c #8B8B8B",
"d c #7B634F",
"f c #836B4B",
"g c #9B633B",
"h c #5B6347",
"j c #474F33",
"k c #272727",
"l c #A36B3F",
"z c #8B735B",
"x c #373F27",
"c c #1B1B1B",
"v c #979797",
"b c #9F9F9F",
"n c #B37347",
"m c #4B4B4B",
"M c #BF7B4B",
"N c #232323",
"B c #836B57",
"V c #8F7753",
"C c #6F7357",
"Z c #CB7F4F",
"A c #9F8363",
"S c #D78B5B",
"D c #2B230F",
"F c #7B7F63",
/* pixels */
"=& 5o.X#2#X 1;;5o.X#z#X 1; *o;=o*2d<= *#O 3&+OOOOO OX=&&o*=&++.%X.$.>>=4444<%<@.0>$.@*X#g<@ OO+**X  +1o O##6+o55.@*X#g<@ OO+**X ",
"O& oOX2nnl2X oooOX2nnl2X oo@;.=o-#a$=-*#O &%+X%... .%=&&o-<&O%&>$.$.%>.=O4=<%>@.h9.%@-X#2>@-..+**X *o;o O#66+o55%@-X#2>@-..+**X ",
"O&.o77OOOO  11oo77OOOO  111@;5=o X<$=O@#O %%+O3. O ..=&&*-#%%&&<$.$.>>@   $<#<@->9.X@-X#2<@-.@$**X +ooo +X60O 55X@-X#2<@-.@$**X ",
"O&&7.XX2ll##ooo7OXX22#++7oo@5;@;-X<$=O@#O &%+OO.OO OO=&&*.<%%&&>@-,.h>  O  <%<&.84@%&-X#g<@-.=+**X +.;o.OX2#  35%&-X#g<@-.=+**X ",
"@&@11o +++*o11;11oOOXO*1:1;@;;.o$dzdd$$gg &%+O%. .OOO%&&X@4%2O&>.*2@h> +6+ <,<&@8f@O -O6g<.-X=+O*X + oo.+X28+ 33O -O6g<.-X=+O*X ",
"O$ :OXXl2XOO 75:1.%#2#O*:7.@;;@;O8f84 :#O &&OO%. .O.O,&&X@<%+#&>@*#@h> OXO <0>o@8d@*&-O#g>.-%=+O*X +ooo OX2#+ 35*&-O#g>.-%=+O*X ",
"@&&;oO#2z2#Oooo;7.X#2#O 1o.@o5@5O8f<=11##O&%OO,..%OO,,&&*$8#o%%<@.%$8>o O &%,% 48d*4&-O+24*-%=+O*X +ooo +X2#+ 554&*X#l2@ %=+O*X ",
"@@&7.O#2M2#X 157oOX#2#O o1.@o.@5*8f<=1:###.0%%,,2,22,,,22222222222022XXXXXXXX XX88*4.*+#gX*-.=+=*X +ooo +X6#+ 5e4.-X2l2@-.=+=*X ",
"@..75OX2MlXXo;o7;OX#2#XO1;.@:.= *6d$O1:###DX# #XOOXXXX#XO=OXXOOOO  XO*******O O666*4.*+#g$* X=$@*X +ooo +X6++o5.4.-X2l6@-X=$@*X ",
"O..;oOX2+2XOoo;; OX222X&oo;@o3= *#8XO1:#>O:;o;;ooo11oooo1 ooooooooooooooooooooo+#f*4 -O#2>* O=+=*X +ooo +X#++o5.4 -X2l2@-O=+=*X ",
"=..: 2#MMlg#.:o:11OOXO  o:;@;.=.*68X*1:#XO ooo.;;;;oo o.1 5oo.o. ooo  :-  .;;oo*#8-..-O#6X* &=+=*X +o1o +O##*o5...-X2l2.-&=+=*X ",
"=..7oOO+#OOoo:o7 OX2X#XO : @;.=.*X8$ 1oOO @e;;.$-   ---*oo<.%,%#ox;;o.; O &...1 =4-.  OX6$* .@$@*X +o1o.+O##*o5.. -X2l2.-.@$@*X ",
"&..7oOX22XXOO:.7:o OO  o1:.@; @  ;Oo::o#X @&@@@*.   =-=**.,%  X4-e=- %  O OOO@o *O-.o ++6$* .=+@*X @ 1o.OX#+*o3=.o-X2l2*-.=+@*X ",
"@..;1 *XX+**7:.;:.%%,,%o::.@ .=;o $$-::9X @4@$@O. . =-=**.>>@%8$+.$@@.  $ OOO@o =$-.o-+X6X* .=+O*X *o1o. O##+o3=.o*X6l2*-.=+O*X ",
"O..;1.#,z,#+.1;;1.OX2#Xo11.@ .=5 +a$-o jX @4&XO*. *.=-=**.>>>>@=+@$@=.XO$ OOO@o-$4-.o*#X2X*-%=+O*X *.1o. X##+o3@.o*X6l6* %=+O*X ",
"=..11OX#l2#+oo;1o OX22Oo1o @ .=5  <$*o @X @$&&@O. *.&-=**.$%$  =+@X@$XXO$ OOO@o*$4..o*#X2X*-X=+**X** 1o  X##+o5@.o-X2l2* X=+**X*",
"@..;7 X#2##Oo;o7;OX#2#XO1;.@ .= 1 #$*o 4X @$&%@O. *.&-=**..$>>a$++#@$XXO$ OOO@o*$>e.o*+Xg$* X=$@+Xo*ooo +X6++o5..o-X#l2* X=$@+Xo",
"O@.:o#222z,&.o;; OX222X&oo;@ 3=  O#XOo-4X @$%.@O. *.&-=**...$=$$++#.$%XO$ %OO@ *$9e. -+X2>* O=+=+X *ooo*+266+-5..  X6l2* O=+=+X ",
"=&.71o*O+XO o:o:11OOXO  o:;@ .=. X#XOo-4X @$%&@@. *.&-=**..==  =++#@$XXO$ %OXO -$9x.o-+X6X* &=+=+X *o1o++266+-5..o X6l2* &=+=+X ",
"=$.7oOX2l##O :o7 OX2X#XO : @ .=. Xa$Oo-4X @$%&@@.  .&-=**.=44>>=#+#@$#XO$ #OXOo $9e.&-O#l6O@.@$@+Xo*o1o*+26#+e5..&-X6l2* .@$@+Xo",
"&$.;1o OOO o1:.7:o OO  o1:.@  @  Xa$Oo-4X @$%.@@. *.&==**.O+OO@$#+#@$&XO$ $O%O  99-.&-O+l6O@.=+@*Xo*o1o++26#9x3=.&*X6l6*-.=+@*Xo",
"@$.;1.X#22XO1:.;:.%%,,%o::.@ .=; X<XOo-4X @@%.@@. *.&==**.@<88@$#+#@$.XO$*$%+O e>>...*+#l6O@.=+OOX *o1o++266Xe3=..*#6l6*-.=+OOX ",
"O$.1;.XX22,Oo1;;1.OX2#Xo11.@ .=5 #<$Oo-4X @@X&@@. *.&= **..%.. =#+#.$.XO$**X%O e>0$o.*+#l6O@%=XOOX *o1oX+26gX 3@o.*+Xl6* %=XOOX ",
"=&.7oOXX22,.1o 1o OX22Oo1o @ .=5 #a$*o-4X @@.X@@.  .&4 **e.O%%o+#+#.$#XO$*O%OO e><$1 -O#l6=@X=X*OXO o1o++26g+ 5@1 -+Xl6* X=X*OXO",
"@..7.XX2ll##o; 7X2lZZSnX ;.@ .= -#a$*o-4X @-.&@@. *.%O **.@%,,.+#+#@#0XO$OOoO. e<<@1.-O#l2=@X=X*OXO+ooo++26g+-5.1.-+Xl6* X=X*OXO",
"O@.71o +++*o1o ;77OOOO  1o;@ 3= -,d$-o-4X @- X.** ...O@**.+O2wo+#+#-#,XO>OO@   e<<@1  OXl6=@O@X*OXO.o oO+#68+-5.1 *XXl$* O@X*OXO",
"=&&;OXXl2XOO : :7XlnngX+7:;@ .=.-6d$. -4X @- &.** ...O@**.=O##o+#+2e#%XO>OO-   e<>&1o ++l6O@.=X*OXO.o o++#68+-5.1o-X#l$* .=X*OXO",
"=$$;o OO++Oo:: 71 OX#XOOo: @ .=.-#d$@ -4X @- 35** *..53**.=Xo%.X#+2.#%X@>Ooo o e<>9oo-+Xl6O@.=X*OXO@o o*+#66+.5.oo O#lX* .=X*OXO",
"&$$1..X22XX.:: 7oO#2z2#Oo:.@  @ -#d$@ -4X @@...** .. ****.=X%&&X#+2.##X=>O    :O<9&oo*#Xl6O@.=X*OXO*o o*#X6#+.3=oo O#lX* .=X*OXO",
"@$9 o.X#2XX 1: ;.O#2M2#X :.@ .=;-#d<@ -4X @@.**** ** .***.=X&%%X#+2.##XO<OO. o1O<<-.o*#Xl8=@.=X*OXO@o o #+66O-3=.o-O#l6O@.=X*OXO",
"O$O o.O#z#Oo11;;5OX2MlXXo1.@ .=5-X8$@o-4X @.&3**+*** *.**.=X%%%X#+2.##XO<OO.  oO<<-.o*+X2<@@ @X*OXO*oo1OXX66O-3@.o-O+l6O@ @X*OXO",
"=&O o.X#z#X 1o;1oOX2+2XOoo @ .=5-#8$*o-4X @@&3**+*** .O**.=XX,%X#.2.##XO<OO. .oO<<-. -+X6>@@.@X*OXO oo: #X66O-5@. *+#l6O@.@X*OXO",
"$OO OX2nnl2X o  +2lMMlg#+o   ...-#8<*o-4X : #X**+O**;.****4X<44X#.2+#2XO<4=$ #oO<< .o-+X6<@@%@X*OXO*ooo #+66O-  .o*+#l6O@%@X*OXO",
"+OO 77OOOO  1o  oOO+#OOooo:  :.*-#8>=:*4X - *X**+O*O*****:3X,#>6#.C=X2X@<==$OX O<<*. *XX#>@@X=X*OXO*ooo +X#6+.  . -O#l6=@X=X*OXO",
"+3O.OXX22#++7 o oOX22XXOO .& o$O-#f<= =4X O-.XO*XO*OO***.3@X X#8#.a$#d#=<-=$OX =<<=.o-X#6X*=X=X*OXO*oo: +##6+.  .o-O#l2=@X=X*OXO",
"+XOo1oOOXO*1: . 1 *XX+**7 .. 3$O-#f<$*=8X @  3O*XO**O*O. .@X.,#8#.0$2dX=h.=$OXO=><=   O#2X**#@X*OXOOoooo+#+6+o     OXl6=@#@X*OXO",
"O%Oo1.%#2#O*: . 1.#,z,#+.  .  $O-#f<$=44# @ -O**XO**3XO**.@X#w#<#.2$,6#=hj=>OXO=><@ o .XgX* ,@X*OX+@ooo +X#6+o - o ++l6O@,@X*OX+",
"OX%o7.X#2#O 1...1OX#l2#+o.o.  $O-#f<$=$4# @ -3**XO*O*O***.-X#26##.2=0dX=he=>OXO=<<@oo  Xg4* #=X*OX+*ooo O##6+oo*oo-+Xl6O@#=X*OX+",
"+XOooOX#2#O o:.oo X#26#+o:.  &$O-#f<$$=4# @ -3OOXO*OO*O***.X X68#.2=2dX=he=>OX==<<@ @*X#l2@ X=X*OX+*ooo O#66+oo@ @*#Xl6O@X=X*OX+",
"@#Oo;OX#2#XO1o o7 X#2##Ooo.. &$O-6f<$$=4+ @ *3OOXO*OO****..XX,a<$.2=2BXehe=>OX=@<<@.@-X2l2@-X=X*OX+*ooo +X60O o..@*#Xl8=@X=X*OX+",
"@9O; OX222X&o75oo#222z,&.7o.  4O-2f<=+44+ $ *X*X+O*O*** ...X#,>8$.2=28Xehe=>O>@@0<@.@-X2l6@-%$X*OX*Oooo.OX2#  1*.@*+X2<@@%$X*OX*",
"@+%o11OOXO  oo1o1o*O+XO ooo@ 3$O-#f<==>a+ @ *XOO+OOOO**.*.-XX2a8$.,=2d&ehe=>O>@.0<@ &-X2l2@-%$X*OX+.ooo.+X28+ 1* &-+X6>@@%$X*OX+",
"=++o OX2X#XO 1oooOX2l##O 1o@ 3$O-#f<=@>f+ @ -3OOX*O*O*O.. .X,24<$.0$2f#ehe=>#>@@0a@  -X2l2.-X$X*OX*.ooo OX2#+ 1*  -+X6<@@X$X*OX*",
"=++o:o OO  o11;;1o OOO o11 @ 3$O=#2<4*>f+ @ -O*OX***3XO***@XO##<$.,.,<>ehe=<##$@0a@ &-X2l2.-%$X*+X* ooo +X2#+ 1. &*XX#>@@%$X*+X*",
"=>$o:.%%,,%o:o.o1.X#22XO1oo@  $3=#2<4 .f+ @:.3**X**O*O**3@@X8%B<$.,.<<$ehe=<#>$.0<@ &-X2l2*-%$X*+X*. oo +X2#+ oj &-X#6X*=%$X*+X*",
"=>..1.OX2#Xo1o;o;.XX22,Ooo5@  $ O#f<4 .d+ @@.3OO+**OO*O*O@@X828<$.,.<<$ehe*<#4=@0<.%.*X6l2*-%=X*+X*O oo +X26+o;j%. O#2X**%=X*+X*",
"+>+5o OX22Oo1  ooOXX22,.1 .@ 3>.O#f<X .f+ @.*3OO+**OO***O@@X828<$.&.<<.ehe*<%>@.0<$,.*X6l6* X=X**X*. 1o +X26+o;3,. .XgX* X=X**X*",
"=9$o;OX#2#XO1. oo.XXz2#O1.;@ 3>3=Xf<X -8+ @..3OO+O*OOO**O@@X828<$.&.<<.ehe*<#>*.0<@# -X2l2* %=X*&X*  oo +626*o;3#   Xg4* %=X*&X*",
"@$$; OX222X&o%o. OX2A22  %.@ 3>+=#f<X *#+ @..3OO+**OOO*OO@@X828<$.&.<<.ehe+<#4*.0<.%.-X#l2* %@X**X*  oo.+626*o;3%.*X#g<@ %@X**X*",
"+9&;11OOXO  o155.XX2ll##o1 @ &>&@Xf<4 @#+ @..3OO+*OOOO*OO@@X828<$.&.<<.ehe*4#4*.0<.%  X6l2* %@X**X . 1o.O626*o3&% -X#2>@-%@X**X ",
"@>+; OX2X#XO 7.o1o +++*o17:@ &$&@#f<4-@8+ @..3OO+**OOO*OO@@X828<$.%.<<.ehe 4#4*-0<.#o X6l2* #=X**+ O oo. 626+o3&#o-X#2<@-#=X**+ ",
"=>$.:o OO  o1:.;OXXl2XOO : @ &$%@2f<4 .8+ @..3OO+.*OOO*%O@@X828<$.&.<<.ehe@<#<*-0<@%o-X6l2* #=XO*+ OOoo. 626+o3&%o-X#g<@-#=XO*+ ",
"=>$.:.%%,,%o::.;oO#2z2#Oo:o$ &9&@2f<= .8+ @o.3OOX+*.OO*OO@@X828<$.$.<<.ehe@<,<+*0<@Xo*X6l6*-%$X* +  +1o  62#+o;3Xo-O6g<.-%$X* + ",
"=99 1.OX2#Xo11.;.O#2M2#X 1;@ .$+*6f<= @8+ @&.3O.X+O..O*OO@@X828<$.$.<$.ehe*<%X@@0<@%o*#6l6*-%$X* &  +oo +X26+o;&%o-O#g>.-%$X* & ",
"=>$oo OX22Oo11;.5OX2MlXXo1;@ .$&*#f<= *#+ @,.3O.++O..OO&O@@X828<$.$.<$.ehe*<%<@@0<$%o*+Xl6* %$XO*+*.+oo +X#6+o;@%o-O+24*-%$XO*+*",
"=>>.;OX#2#XO1;o.oOX2+2XOo;;$ &@&*6f$= *8+ @ .3O.++O..O&&O@@X828<$.$.<$.ehe <#<$.0>$% -+Xl6* X=XO*+* +1o +6#6*o;.% *+#gX*-X=XO*+*",
"@9<o OX222X&o;&  2#MMlg#.;;@;&@ *2d<= *#+ @&.OO.++O.OO&&O*=X 28<$.%.<$.ehe*<%<@.0>$#o-+Xl6* O=X=+O* +:oO+266O ;@#o*+#g$* O=X=+O*",
"@+$o11OOXO  o1 ooOO+#OOoo1 @;&@ -#a$=-*<+ &%.X%.++X.%#&&o-<X.X8<$ %.<$.ehe=<%>@.h9.% *XXl$* .O+OO** =1oOX#6#O ;@% -O#2>* .O+OO**",
"=+$; OX2X#XO o..oOX22XXOOo.$;&$@ X<$=O@4+ %%.%3.X+&..%&&*-#XXX,<$ %.<$aehe$<#<@->9.Xo-X#l$* #=+$X++*+ooX+#6#+ ;.Xo-O#6X* #=+$X++",
"@>&;:o OO  o1:.o1 *XX+**7:&@;39@-X<$=O@>+ &%&.O.++&OOX&&*.<6#,2>@-$.h2ajhe4<%<&.84@%  O#lX* X=$=+++*$o1O+###+-33%  OX6$* X=$=+++",
"@$&o:.%%,,%o::&o1.#,z,#+.: @o @@*,d<4* #+ &%&&%.X.OOO%&&X@4aX##>.*$@h,a$h@4<,<&@Vf@O  O#lX* X=+=X++* oo*+266+-;5O  ++6$* X=+=X++",
"=$&o1.OX2#Xo1;&;1OX#l2#+o; @o&@-O#f<4 :8+ &&&&%.+.O.O%&&X@<%%2#>@*$@hwX$h.$<0>o@8d@*&-O#l6O@%$+=++*OOoo++266+-;5*&-+X6X* %$+=++*",
"@$&oo OX22Oo1o.;o X#26#+oo @o&@ O2f<=118+ &%&%,.X%OO&%&&*$8#X#6<@.$$82o<V@&%,% 48d*4&-O+l6O@%$9=+O+. oo*+26#+e334&*#X2X*-%$9=+O+",
"O$&o;.OXz2Oo1ooo7 X#2##Ooo.@;%@o*6f<=1:f> .00%0,,2,002000000000000022**8B%>  #2888*4.*+#l6O@X$+=+O*. oo++26#9x334.*#X2X*-X$+=+O*",
"&$$o;O##z2XOoo5oo#222z,&.o.@o%@x*6d$O1:a#:DX# #XOOXXXX#66XXX66XXX++XO1O=4@ *O O666*4.*+#l6O@%$+O+O* ooo++266Xe;34.*+Xg$* %$+O+O*",
"O$917o OX+O o7.o1o*O+XO o7o@;,@x*#8XO1:8>1:;o;;ooo11oooo1 ooooooooo .o *=-ooooo+#f*4 -O#l6=@%$+O+O*. ooX+26gX ;@4 -+X2>* %$+O+O*",
"&>>;1O##XX+OOo&ooOX2l##O oo@;%@o*6#X*1:8X: ooo.;  1oo o.1 5oo.o. ooo  :-@ .;;oo*#8-4.-O#l2=@%=+O+O*O oo++26g+ 534.-+X6X* %=+O+O*",
"=99;:oO*O  o11.o1o OOO o11o$5&@x*X#$ 1o4*o3e;;.3..*3.&&&oo&.&&&#ox;;o.;  e&...1 =4-4  OXl6=@X=+=***. 1o++26g+-3@4 *XX6$* X=+=***",
"=9$1:;%0,,%.:1&11.X#22XO11.$o&@o --oo o4* 3&O3.3..*3.%%&.e,%%&X4-e=- %&  j%%&@o *-o&o ++l6O@%=+O&+*  ooO+#68+-3&&o-X#6$* %=+O&+*",
"=>$11.X22,X.1;.;;.XX22,Oo;o$;&@;o $$-::XO 33O$.3.O*..%&%..>>%%&$-.$@@.%eej%0%@o =$-%o-+Xl6O@%@+**+*  oo++#68+-33%o O#6X* %@+**+*",
"@$&o7 X#2#X.o; ;oOXX22,.1;o$;3@o +a$-o XO 33OX.3.O*.O%&&..>&2,&=-@$@=.%e.e%,%@o-$4-%o*#Xl6O@%@$**+ . 1o*+#66+.53%o .X2X*-%@$**+ ",
"=$$;o XX2#O.o.o1o.XXz2#O1..@o3@o  <$*oOXO 33O+.3.O*.+&&&..$&#O&=-@X@$X%e9e%,%@o*$4.%o*#Xl8=@#=+**+ O oo*#X6#+.53%o  X2X*-#=+**+ ",
"O$$;ooX22X#o1oo1 OX2A22  oo@o3@:1 #$*oOXO 33O+.3.O*.+%&&...&O%&$-@$@$XX.9e,,X@o*$>e%o*+X2<@@#=+O*+ OOoo #+66O-53%o  #g$* #=+O*+ ",
"O$$7o+2nnl2X ;oo.XX2ll##o;.@:3@: O#XOoOXO 3$O+.3.O*.X%&&...&%&&$-.$.$%%-9e%,X@ *$9e& -+X6>@@%$+* +  +11OXX66O-33& -+X6>@@%$+* + ",
"O$&:77OOOO  1:o;1o +++*o1:o@:&@o X#XOoOXO 3$O+.3.O*.X%&&...&2w&=--$@$XX-9-%%X@ -$9xXo-+X6<@@%$9* &  +o: #X66O-33Xo-+X6<@@%$9* & ",
"O$&;7*X22#++7o5;OXXl2XOO o.@o3@o Xa$OoOXO 3$O+.3.O*.X&%&..=&##&=--$@$#&-9-#%X=o $9e% *XX#>@@%$+O*+*.+oo #+66O-53% *XX#>@@%$+O*+*",
"O$.;7*X22#++7;o7o OO++Oo:;.@;3@o Xa$Oo-X* 33O+.3tpssspppvvbvbvpssppvbbvpppsssppt99-Xo-X#6X*=X=+O*+* +1o +X#6+.;5Xo-X#6X*=X=+O*+*",
"=$ oo.O2z#Oo1o;:..X22XX.:o.@:&=o X<XOo-+* 3@++.3&wrrrwwrttqtitwrrwqtiiwqwrrrrww&>>..  O#2X**O=$=+O* +:: +##6+.35.  O#2X**O=$=+O*",
"=&.;7*O22#++7 ;;o.X#2XX 1 ;@o3=o #<$Oo-X* 3@X+.%&qwrwqqwtuquiuqwrqtuiiqtqrwrwqqm>0$.o .XgX* .O+OO** =1oo+#+6+o55.o .XgX* .O+OO**",
"O& oo.O#2#Oo1.7oo.O#z#Oo1.o@o;=o #a$*o-+* 3@+X &&qwwwqqwuuqusuqwwqtussqtqrwwwqqm><$.o  Xg4* XO+* +* +1o +X#6+o55.o  Xg4* XO+* +*",
"=& 5o.X#2#X 1;;5o.X#z#X 1; *o;=o*2d<= *#  3&+OOOmqwwwqtwuuqusutwwqtussqttrwwwqtm0>$.@*X#g<@ OO+* +* +1o O##6+o55.@*X#g<@ OO+* +*",
"O& oOX2nnl2X oooOX2nnl2X oo@;.=o-#a$=-*<o &%+X%.mtqqqttqiitisitqqtuissqutwqqqtt%h9.%@-X#2>@-..+*O* *o;o O#66+o55%@-X#2>@-..+*O* ",
"O&.o77OOOO  11oo77OOOO  111@;5=o X<$=O@4o %%+O3.mtqqqttqiitipitqqtuippqutwqqqtt%>9.X@-X#2<@-.@$*.* +ooo +X60O 55X@-X#2<@-.@$*.* ",
"O&&7OXX22#++7oo7OXX22#++7oo@5;@;-X<$=O@>%.&%+OO.%ttqttuqistspsutqtuspptuuwtqttu%84@%&-X#g<@-.=+* * +.;o.OX2#  35%&-X#g<@-.=+* * ",
"@&@11oOOXO*1:1;11oOOXO*1:1;@;;.o$dzdd$$## &%+O%.%utttuuqsstsvsuttuisvvtiuqtttuu,Vf@O -O6g<.-X=+OO**+ oo.+X28+ 33O -O6g<.-X=+OO**",
"O$ :1.%#2#O*:75:1.%#2#O*:7.@;;@;O8f84 :8 o&&OO%.%utttuuqsstsvsuttuisvvtiuqtttuu,8d@*&-O#g>.-%=+OX**+ooo OX2#+ 35*&-O#g>.-%=+OX**",
"@&&;7.X#2#O 1oo;7.X#2#O 1o.@o5@5O8f<=118&o&%OO,.,uutuui0sp0pvpiutuspvv0si0utuuiy8d*4&-O+24*-%=+OX* +ooo +X2#+ 554&-O+24*-%=+OX* ",
"@@&7oOX#2#O o157oOX#2#O o1.@o.@5*8f<=1:f>&.0%%0,,iuuuiiuppupbpiuuispbbtsituuuiiy88*4.*+#gX*-.=+=X*o+ooo +X6#+ 5e4.*+#gX*-.=+=X*o",
"@..7;OX#2#XO1;o7;OX#2#XO1;.@:.= *6d$O1:a#:DX# #X,iuuuiisppvpbpiuuispbbpsiiuuuiiy66*4.*+#g$* X=$@+ o+ooo +X6++o5.4.*+#g$* X=$@+ o",
"O..; OX222X&oo;; OX222X&oo;@o3= *#8XO1:8>1:;o;;o,uutuuisspppvpiutuspvvpsiuutuuiy#f*4 -O#2>* O=+=+  +ooo +X#++o5.4 -O#2>* O=+=+  ",
"=..:11OOXO  o:o:11OOXO  o:;@;.=.*68X*1:8X: ooo.;%utttuuq;k&tvsuttuisvt&k;qtttuu,#8-4.-O#6X* &=+=+  +o1o +O##*o5.4.-O#6X* &=+=+  ",
"=..7 OX2X#XO :o7 OX2X#XO : @;.=.*X8$ 1o4 o>e;;.$%utttuurrb%qvsuttuisvq%brrtttuu,=4-4  OX6$* .@$@+*o+o1o.+O##*o5.4  OX6$* .@$@+*o",
"&..7:o OO  o1:.7:o OO  o1:.@; @  -Ooo o4;&4&af>*%ttqttuqytytpsutqtusptytyqtqttu%*-o&o ++6$* .=+@+*o@ 1o.OX#+*o3=&o ++6$* .=+@+*o",
"@..;:      o::.;:.%%,,%o::.@;.=;o $$-::9&@a4w$aOmtqqqttu,wsipitqqtuippiw,tqqqtt%=$-%o-+X6X* .=+O+* *o1o. O##+o3=%o-+X6X* .=+O+* ",
"O..;1 OX2#Xo11;;1.OX2#Xo11.@;.=5 +a$-o j&@44&%O*mtqqqttu%rsisitqqtuissir%tqqqtt%$4-%o*#X2X*-%=+O+* *.1o. X##+o3@%o*#X2X*-%=+O+* ",
"=..1o OX22Oo1o;1o OX22Oo1o @;.=5  <$*o @&$4$&% Omqwwwqt0&r0usutwwqtuss0y&0wwwqtm$4.%o*#X2X*-X=+*+*** 1o  X##+o5@%o*#X2X*-X=+*+**",
"@..7;OX#2#XO1;o7;OX#2#XO1;.@:.= 1 #$*o 4.$4$&%.O&qwwwqqr3yyyyyyyyyyyyyyy3ywwwqqm$>e%o*+Xg$* X=$@+ o*ooo +X6++o5.%o*+Xg$* X=$@+ o",
"O@.; OX222XXOo;; OX222X&oo;@o3=  O#XOo-4&$4$%%.O&qwrwqqw3;;;;;7N;N7;;;;;3rwrwqqm$9e& -+X2>* O=+=+  *ooo +X#++o5.& -+X2>* O=+=+  ",
"=&.:11OOXO  o:o:11OOXO  o:;@;.=. X#XOo-4&@4$%%&O&wrrrwwrtwy%35kc7ck53%yywrrrrww&$9xXo-+X6X* &=+=+  *o1o +O##*o5.Xo-+X6X* &=+=+  ",
"=$.7 OX2X#XO :o7 OX2X#XO : @;.=. Xa$Oo-4&.4$%%. &wrrrwwrttqtitkk3kktiiwqwrrrrww&$9e% *XX6$* .@$@+*o*o1o.+O##*o5.% *XX6$* .@$@+*o",
"&$.7:o OO  o1:.7:o OO  o1:.@; @  Xa$Oo-4.@4$%%.o&rryrrwrqtwtutc;q;ctuuwqwyryrrw&99-Xo-X#6$* .=+@**o* 1o.OX#+*o3=Xo-X#6$* .=+@**o",
"@$.;:      o::.;:.%%,,%o::.@;.=; X<XOo-4..4@%%9o3ryyyrrrqqwquqc&u&cquurwryyyyrr&>>..  O#6X* .=+OO* *o1o. O##+o3=.  O#6X* .=+OO* ",
"O$.;1.OX2#Xo11;;1.OX2#Xo11.@;.=5 #<$Oo-4&.4@$%&93ryyyrrrqqwqtqkN7Nkqttrwryyyyrr&C0$oo .X2X*-%=+OO* *.1o. X##+o3@oo .X2X*-%=+OO* ",
"=&.1o OX22Oo1o;1o OX22Oo1o @;.=5 #a$*o-4%.4@$%$&3yy,yyrywqrqtq;kcc;qttrrr,y,yyr3><$1o  X2X*-X=+*.**  1o  X##+o5@1o  X2X*-X=+*.**",
"@..7;OX#2#XO1;o7;OX#2#XO1;.@:.= -#a$*o-4%.4-$%$&5y,,,yyywwrwtw&333&wttrry,,,,yy30<@1o  #g$* X=$@% o+ooo +X6++o5.1o  #g$* X=$@% o",
"O@.; OX222X&oo;; OX222X&oo;@o3= -,d$-o-4&.4-$%$&5y,%,yyyrwrwqw%&&&%wqqrry,,%,yy30<@1o *X2>* O=+=X  &ooo +X#++o5.1o *X2>* O=+=X  ",
"=&.:11OOXO  o:o:11OOXO  o:;@;.=.-6d$. -4&.4-$%$&5,%%%,y,rrrrqry%%,yrqqyyy,%%%,y5>>&1o OX6X* &=+=X  +o1o +O##*o5.1o OX6X* &=+=X  ",
"=$.7 OX2X#XO :o7 OX2X#XO : @;.=.-#d$@ -4&.>-$%>&55;7;55533&3&35;7553&&3555;7;5559>9oo *#6$* .@$@X*o+o1o.+O##*o5.oo *#6$* .@$@X*o",
"&$&7:o OO  o1:.7:o OO  o1:.@; @ -#d$@ -4&.>@$%>X...*+O@%%.=%%&&@e.$.$%&=O.    :o$9&oo O#6$* .=+@%*o@ 1o.OX#+*o3=oo O#6$* .=+@%*o",
"@$$;:.OOOOOo::.;:.%%,,%o::.@;.=;-#d<@ -4..>@$%>&...*XO@%&.=,&%%@ -$.$%OOO&&..o1o*-o&;-*X6X* .=+OO* *o1o. O##+o3=&;-*X6X* .=+OO* ",
"O$$;1.OX2#Xo11;;1.OX2#Xo11.@;.=5-X8$@o-@&.>.&&>&...*XO@%%.=%%%%@ -$.$O% %O&.  o =@-.o OX2X*-%=+OO* *.1o. X##+o3@.o OX2X*-%=+OO* ",
"=&91o OX22Oo1o;1o OX22Oo1o @;.=5-#2$*o-@ .>@&.>&.. OXO@&%.=,X,%$ -$.$O%%O%O...o $$-.o OX2X*-X=+*.**  1o  X##+o5@.o OX2X*-X=+*.**",
"@&>:;.OX22Oo1o;:;.OXz2Oo1o @; @o O8$* *>o-$@X.>$.&. X@$,&.$& &>@xe$.$O%.%%%%&% ->=- o *X2X*-%=+* *O  1o OX9#+:5@ o *X2X*-%=+* *O",
"@&$;;O##22XOo.;;;O##z2XOo. @;.=o X<$* *>o-=@&&$$.& .X*X,&@$%X2>@xe=.$OO %OO%&% ->$- o  X2+*-%=+*.+O .1oo+O9#+o5@ o  X2+*-%=+*.+O",
"@&$77o OX+O o1;77o OX+O o1.@o.=;-X<$* *> -$&%.>.. ..X*>,X@$  X>@xe$.9%O+#OO+O% -$$-.o  #,=* X=+*O*O .1oo++X#+ 5=.o  #,=* X=+*O*O",
"O$>11O##XX+OO:;11O##XX+OO: $o =o X8$* *> e&%>&>.&..&X+0,..>&X >@o-$j%,&&%%&%%O -$$.&o *X,$- .@O*.+OO.o; .X+#+ 5=&o *X,$- .@O*.+O",
"@$&1:oO*O  o1:o1:oO*O  o1: $o =1 Xd<* -h -.9a>>33555@a>$&.>.%X>@o-+5&%&%&&&O>&;->$.%o *#6=- X@$-.+OO oo .O+#+ 5@%o *#6=- X@$-.+O",
"@&&;:OOOXXO.:: ;:;%0,,%.::&$o.=o*Xd<* -a.-&$>$>>>>>>#2+XX@>.%%>@xe=5&%&%+&&&>%oe9@.%  O#6+- &@+- +O+ooo +O+#&o5@%  O#6+- &@+- +O",
"=&$11.X22XX.1:511.X22,X.1:&$o3@o-#d$* *<+-%$oo1 o OOO +>&$>XX2>$oe=5%%&%O++%#Ooe9@@X   #6+- %.$-o+O+ooo.+O##&o3=X   #6+- %.$-o+O",
"&$$77 X#2#X.o:;77 X#2#X.o:&@o&@o-,d$* -> -%9..o. OO.O @>%$$.o #$o-=5&%&%&++&%%&e9@@X -.X2$* %@$- X+*  o +*##+o3=X -.X2$* %@$- X+",
"&$&:o XX2#O.o:;:o XX2#O.o:.$o&@o*2d$* ->.-%%..o  OO O O>%j$&X#0@x.=e&%&%&&&&O%&.9@*X.*XX,$* %@+* X+*. o +*#++o5$X.*XX,$* %@+* X+",
"&9$1ooX22X#o11o1ooX22X#o11.$o3@o-,d$* -9 -%%..   .OO. $>%j$%%X#$x&+-@%&%%&&&&%%@$@- .*OX,$O-X=+O ++*  o +O#$*o5= .*OX,$O-X=+O ++",
"O$$;o+2nnl2X oo;o+2nnl2X o.$;3@;-#d$*-.h.-&%..   OOO. $>%j$w#,#=x%$.@%&%%&&&&%#@$@-.%-OX24O-X=+* 9+*..1.+O#+ o5=.%-OX24O-X=+* 9+",
"@$&177OOOO  11o177OOOO  11 $;3@ -#d$O-@y&-.%O.  ..OOO.$>%.$XX2>=-.$.&%.%%&&%%,%@$$.%.-OX2XO-%@$@ 9++o 1.++#+*o5=%.-OX2XO-%@$@ 9+",
"@$$;7*X22#++715;7*X22#++71 $55$5*#d$O-&y&@X%OO. OOOOO.+>%j$, Oa$.%$.&%.&%O%O%%%@>$..&-.X24O-%@+@ X+&o o +X#+* 5=.&-.X24O-%@+@ X+",
"=$$17oOXXO  1; 17oO%XXO.1;.$o5$o-Xd$O@9r&@%%OO. OOOOOO+>%j$, Xa4.%+@9%.&#%%&%%%@>$-o&-OX,$@*X=$@.X+&ooo.#X#9  5=o&-OX,$@*X=$@.X+",
"=$$:; X26## 1;.:;%%2F## 1;3$o;$5-,a$O=$0%$%%.3O.OOOXXO+>%j$,X2>$.%+O$..&%%%%%%&@>$- &*XX2>=*X=+@ X+&o o.XX99+ ;@ &*XX2>=*X=+@ X+",
"@&$:.OX#62X 1o :.OX#g2X 1o.$oo.  #6$--=<%+%%&OO OOXOOO+>0e$,22#= %+ OO+&%%%%%0&->$  X OX,$@-%-$- 9++  o ##X9+ ;@ X OX,$@-%-$- 9+"
};
