/* XPM */
static char *SW1STON2[] = {
/* columns rows colors chars-per-pixel */
"64 128 23 1 ",
"  c gray23",
". c #434343",
"X c #373737",
"o c gray28",
"O c gray31",
"+ c #2F2F2F",
"@ c #5B5B5B",
"# c gray39",
"$ c gray34",
"% c #6F6F6F",
"& c #232323",
"* c gray42",
"= c #777777",
"- c #4B4B4B",
"; c #1B1B1B",
": c gray50",
"> c #5B0000",
", c #430000",
"< c #4F0000",
"1 c #838383",
"2 c #131313",
"3 c #17330F",
"4 c #272727",
/* pixels */
"  .     X+&;&+   X+XX+XX  X  + .X. XX  ..X&X.X.........   .  .. ",
"  .. .. X+&;&+   XXXX +   .. X.... XX  .  O............   .  .. ",
"  .. .. X+&;&+   XX  + X  ..  X... XX  .   X.... ......   .  .. ",
"  .   . X+&;&+   X   &++  .  XX... XX  .   X.+.........   .  .. ",
"  .  ..XX+&;&+       +    .  XX... XX  .   X...........   .  .. ",
"     ..+X+&;&+       + X  X  XX... XX  .   X ..........   .  .. ",
"  .  ..XX+&;&+  XX   ++X  +  XX... XX  .   X .. ........  .  ...",
" .    . X+&;&+XXXX     X .+   X.X. X.  .   X ...... .... ..   ..",
" ... ..XX+&;&+XX    X .  .+.  ..X XX.. .   X .. .O...... ... ...",
" . .   XX+&;&+X  + XX+ + .+.  X..  .X      . .  .O...... ...   .",
" ... ..XX+&;&+X .X+XX++X .X. X..XXXX.      . .  .OOO.... ... ...",
" .    .XX+&;&+X  X+XX+++ .X. X+X++X.X   &XX+  XX.OOO.... ... ...",
"++++++++++&;&+X+++++++++++++++++++++++++++++++++++++++++++++++++",
"&&&&&&&&&&&;2&&&&&&&&&&&&&&&&&&&&&&&&&&&&&&&&&&&&+++&&&&&&&&&&&&",
"&&;;;;;;;;;;;;;;;;;;;;;;;;;;;;;;;;;;;;;;;;;;;;;;;;;;;;;;;;;;;;;;",
";&&&&&&&&&&&&&&&&&&&&&&&&&&&&&&&&&&&&&&&&&&&&&&&&&&&&&&&&&;&&&&+",
"........  .. ... .      .. ... .              .. ... .  +&;&+...",
"  +   ..+&  +  ++X+XX++&  +  ++X++X.X   XXX.+&X.  X++X+++&;&+ ..",
"   . ... X .+. +..+X + X .+. +..XX.XX  .  .X X..  X+..XX+&;&+...",
" ...   .+  ... ++.+  &+  ... ++... X.  X  XX+ X.  X++...+&;&+...",
" .X. . .+XX +X.X+.+ . +X+X+..X+. X ..  X  X.+X..  XX+. X+&;&+. .",
" . .  ..+X++ X X+.+  ++X . + X+. X .. X.  X.+XX.  XX+. X+&;&+. .",
" . . ...+X  XX X+.++X++X...  X+. X X. XX  . +XX.  XX+. X+&;&+...",
"   .  ..+X +   X+.  X +X ... X+. X X. XX  . +X..  XX+. X+&;&+...",
"       . XX XX   .++++ X  +.   . X X.     .  X... X  . X+&;&+...",
" .X    .XXX+XX   .&+  XX .+.   . XXX. X   . XXX.. X  . X+&;&+. .",
" .  .. .  X+X    .&+ +   .O.   . XXX. X.  .   X.  X  . X+&;&+. .",
" .. ..  XX +XX   .+ X XX ...   . XXX.  X. . XXX.  X  . X+&;&+.  ",
"  .  .. XX++    .. +X+XX  ..  .. XX..  X. . XXX.  X .. X+&;&+.. ",
"     .. X X     ..++X+X   ..  .. X.X.  X. . X ..  X .. X+&;&+.. ",
"     .. XXX+ X  ..+  +XX  ..  .. . ..  X. . XX..  X .. .+&;&+.. ",
"     ..   XX X  .. +++   ++.  .. +XX.  X. .   X.. X .. ++&;&+...",
"     . .  XX X  ..  X    ..+  .. ++X.  X. .   X.. X .. ++&;&+. .",
"  .  . . X +X   ..  X+ X +++  .......  X. .  X +++  ....+&;&+  .",
"      .. XX+X   .. +XX X +++  ..XX ... X...  X +++  ..XX+&;&+ ..",
"  .    . XX+X   .. +XX X +++  ...X&X.. X...  X +++  ...X+&;&+  .",
"     . .X  +X  X..++ +X +..+ X.. ..X.  X. . X +..+ X.. .+&;&+   ",
"  .  . .X . XX X.. +X+X  ++. X.. X X.  X. . X  ++. X.. X+&;&+  .",
"     . .X   X  X..+XX+X  ++  X.. X X.  X. XXX  ++  X.. X+&;&+  .",
"      ..X XXXX +..+  +X  ++  +.. X ..  X. X.X  ++  +.. X+&;&+...",
"  .  ...XX++. ....+ . XX++. .... X ..  X. X.XX++. .... X+&;&+ ..",
"X      .X +++  +..+X  X +++  +.. XXX.. X. XXX +++  +.. X+&;&+...",
"        XX +.+  ..++XXXX +.+  .. X X.. X... XX +.+  .. X+&;&+ ..",
"    XXXXXX .++  ..++XXXX .++  .. XXX.X X... XX .++  .. X+&;&+X..",
"XXXXXX  ++X+++XX  &&++++X+++XX  ++++++&++++&++X+++XX  +++&;&++++",
"&&&&&&&&&&&&&&&&&&&&&&&&&&&&&&&&&&&&&&&&&&&&&&&&&&&&&&&&+&;&&&&&",
";;;;;;;;;;;;;;;;;;;;;;;;;;;;;;;;;;;;;;;;;;;;;;;;;;;;;;;;&;;;;;;;",
"&&&&&&&&&&&;&&&&&&&&&&&&&&&&&&&&&&&&&&&&&&&&&&&&&&&&&&&&&&&&&&&&",
".. ..... +&;&X.             . ..                O.$$$$.    .....",
"  X     X+&;&+.XX+++XXXX .X+    ++&++  ...     .. OOO.    .  .. ",
"  X X   X+&;&+XXX++++XXX +X+    X++X   ...    XX. OOO.    .  .. ",
"  X X X X+&;&+XX &+++X + +X + X .XX.   ...    XX..O.O.    . X.. ",
"  X  .  X+&;&+X . +++ .  +XX .  X..X   ...   . X. O.O X   .  .. ",
" XX     X+&;&+   ++++  X +XX    XXXX   ... .   X. O.O.    .  .. ",
" XX X   X+&;&+X  + X+XXX +XX+   XXXX   ...     X. O.O.    . X.. ",
"  XXX   X+&;&++XX +X+XXX +XX+   .XXX   ....    .. O.O..   .X .. ",
"XXX XXX X+&;&+   X+XX+XX  X  +  X  XX  ..X&X.X....O.O..   .  .. ",
"X  X   XX+&;&+X  XXXX +   .. X. .  XX  . XO.......O....   .. .. ",
" XX+X X+X+&;&++XXXX  + X  ..  X X  XX  . X X......O....   .  .. ",
"X+X  X XX+&;&++++X XX&++  .  XX ++ XX  . X X.+....O.O..   .  .. ",
"++  XXX X+&;&++XX X+++    .  XX ++ XX  . X X.O....O.O..   .  .. ",
"XX XX XXX+&;&++   ++++ X  X  XX .X XX  . X X .......O..   .  .. ",
"  XX  +XX+&;&+ XXX  X++X  +  XX.O. XX  .   X .. ........  .  .. ",
"XXXX . XX+&;&+X . XXXXXXXXXX X ...X X  .XX.  XXX.......   . X.. ",
"  .     X+&;&+   X+XX+XX  X  + .X. XX  ..X&X.X.........   .  .. ",
"  .. .. X+&;&+   XXXX +   .. X.... XX  .  O............   .  .. ",
"  .. .. X+&;&+   XX  + X  ..  X... XX  .   X.... ......   .  .. ",
"  .   . X+&;&+   X   &++  .  XX... XX  .   X.+.........   .  .. ",
"  .  ..XX+&;&+       +    .  XX... XX  .   X...........   .  .. ",
"     ..+X+&;&+       + X  X  XX... XX  .   X ..........   .  .. ",
"  .  ..XX+&;&+  XX   ++X  +  XX... XX  .   X .. ........  .  ...",
" .    . X+&;&+XXXX     X .+   X.X. X.  .   X ...... .... ..   ..",
" ... ..XX+&;&+XX    X .  .+.  ..X XX.. .   X .. .O...... ... ...",
" . .   XX+&;&+X  + XX+ +$@@@@@@@@@@@@@@@$  . .  .O...... ...   .",
" ... ..XX+&;&+X .X+XX++X.o-Oo-O-O-.oo-O-o  . .  .OOO.... ... ...",
" .    .XX+&;&+X  X+XX+++.--O--O-O-o---O-oXX+  XX.OOO.... ... ...",
"++++++++++&;&+X+++++++++.-O$.       .O$O-+++++++++++++++++++++++",
"&&&&&&&&&&&;2&&&&&&&&&&&.OO$o,,,,,,,oO$O-&&&&&&&&+++&&&&&&&&&&&&",
"&&;;;;;;;;;;;;;;;;;;;;;;.O$$o,,,,,,,o$$$-;;;;;;;;;;;;;;;;;;;;;;;",
";&&&&&&&&&&&&&&&&&&&&&&&o$$@o<<<<<<<o$@$-&&&&&&&&&&&&&&&&&;&&&&+",
"........  .$#@@@@@#@#@Ooo$@@o>>>>>>>o@@@-     .o.oo. .  +&;&+...",
"  +       . OO#%%%#@@Oo&-$@#o<<<<<<<o@#@OXX.+&X. O.++.X++&;&+ ..",
"   .+. .   .OO###@#@OOoX-@@#o>>>>>>>o@#@O .X X.o O.++.XX+&;&+...",
" ..+++ +   .OO@@$@@@ Oo -@##o<<<<<<<o###O XX+ Xo OX++.XX+&;&+...",
" .X4+++..  .OO#$#@##OOo -##*o>>>>>>>o#*#$ X.+X.O OXX+. X+&;&+. .",
" . + ++... ..@#@#O#@OOo.-##*o<<<<<<<o#*#$ X.+XXOoOXX+. X+&;&+. .",
" . . ....  ..O@@#OO@oOo.O#*%o>>>>>>>o*%*@ ..+XXooOXX+. X+&;&+...",
"   +  ...  .OO#@$$O@OOo.O**%o<<<<<<<o*%*@ ..+XoOooXX+. X+&;&+...",
"      +. ..oOO#$$$O$OOo.O*%%o>>>>>>>o%%%@ . .XoOooX  . X+&;&+...",
" .X   +.. .ooO@$@$$OOOo.$%%=o<<<<<<<o%=%#o.oo.XOooX  . X+&;&+. .",
" .  +.+ ..oo.oOO$$OOoOoo$%%=o>>>>>>>o%=%#Ooo .o@oo  3. X+&;&+. .",
" .. ++  +..oo.OOOOOooOo @%==o<<<<<<<o===#$$oo+.. o ++. X+&;&+.  ",
"  .  .. XX++.ooOOO oXOoo@==:$$$$$$$$$=:=#@$OO..@Oo.+.. X+&;&+.. ",
"     .. X X .ooOOoooXOo @==:==:=:=%===:=#@OOoo.@OO.... X+&;&+.. ",
"     .. XXX+.oOoo.oo OoX#=:1=:1:1:===:1:##@ooo.@@@O.+. .+&;&+.. ",
"     ..   X. .ooo. o+oo #@@#@@#@#@@@@@#@#$$$$O@@@O +.o ++&;&+...",
"     . .  XX oooooooXoo  ..oO$o.@#@@@@@*%*@$@@@#@O$ .o ++&;&+. .",
"  .  . . X +X.oo..ooXooX +.o@$o.@#####@##@@#@O##@@o .o..+&;&+  .",
"      .. XX+X .ooo oX..X +.o@$o.@#@#####**#*####@@o.OoXX+&;&+ ..",
"  .    . XX+X . o. oX..X +.O@$oO####*%%*%%%****$@@Oo.o.X+&;&+  .",
"     . .X  +X .Xo.+o .X +..O#$oO*@##***%:=%%%%%##@OO.o .+&;&+   ",
"  .  . .X . XX Xo. oX.X  +.O#@oO**#****%%%===%%*##O$Oo X+&;&+  .",
"     . .X   X  Xoo+oX.X  +.o#@o@*##*%%*%%===%%***#$O$o X+&;&+  .",
"      ..X XXXX +..+o .X  +.o#@@#**#**%%=%===%%***#@O$o X+&;&+...",
"  .  ...XX++. ....+o..X ++.O#@@#**$*##%**%=%%**###$O$o X+&;&+ ..",
"X      .X +++  +..+o .X ++Oo#@@#**$*##**#%%*#####@OO$o X+&;&+...",
"        XX +.+  ..+oX.X  +.o#@##**$*$#**$#####@@@OOO$o X+&;&+ ..",
"    XXXXXX .++  ..+oX.X  ..o#@@@#*$*O##*O#@@@@@OOOooOo X+&;&+X..",
"XXXXXX  ++X+++XX  &o+.++X+ o  o..+o.o+oooOO..o.ooooX  +++&;&++++",
"&&&&&&&&&&&&&&&&&&&&&&&&&&&&&&&&&&&&&&&&&&&&&&&&&&&&&&&&+&;&&&&&",
";;;;;;;;;;;;;;;;;;;;;;;;;;;;;;;;;;;;;;;;;;;;;;;;;;;;;;;;&;;;;;;;",
"&&&&&&&&&&&;&&&&&&&&&&&&&&&&&&&&&&&&&&&&&&&&&&&&&&&&&&&&&&&&&&&&",
".. ..... +&;&X.             . ..                O.$$$$.    .....",
"  X     X+&;&+.XX+++XXXX .X+    ++&++  ...     .. OOO.    .  .. ",
"  X X   X+&;&+XXX++++XXX +X+    X++X   ...    XX. OOO.    .  .. ",
"  X X X X+&;&+XX &+++X + +X + X .XX.   ...    XX..O.O.    . X.. ",
"  X  .  X+&;&+X . +++ .  +XX .  X..X   ...   . X. O.O X   .  .. ",
" XX     X+&;&+   ++++  X +XX    XXXX   ... .   X. O.O.    .  .. ",
" XX X   X+&;&+X  + X+XXX +XX+   XXXX   ...     X. O.O.    . X.. ",
"  XXX   X+&;&++XX +X+XXX +XX+   .XXX   ....    .. O.O..   .X .. ",
"XXX XXX X+&;&+   X+XX+XX  X  +  X  XX  ..X&X.X....O.O..   .  .. ",
"X  X   XX+&;&+X  XXXX +   .. X. .  XX  . XO.......O....   .. .. ",
" XX+X X+X+&;&++XXXX  + X  ..  X X  XX  . X X......O....   .  .. ",
"X+X  X XX+&;&++++X XX&++  .  XX ++ XX  . X X.+....O.O..   .  .. ",
"++  XXX X+&;&++XX X+++    .  XX ++ XX  . X X.O....O.O..   .  .. ",
"XX XX XXX+&;&++   ++++ X  X  XX .X XX  . X X .......O..   .  .. ",
"  XX  +XX+&;&+ XXX  X++X  +  XX.O. XX  .   X .. ........  .  .. ",
"XXXX . XX+&;&+X . XXXXXXXXXX X ...X X  .XX.  XXX.......   . X.. "
};
