/* XPM */
static char *SW2BLUE[] = {
/* columns rows colors chars-per-pixel */
"64 128 62 1 ",
"  c #00002F",
". c #00006B",
"X c #000023",
"o c #000047",
"O c #000083",
"+ c #2B230F",
"@ c #1F170B",
"# c #533F2F",
"$ c #43331B",
"% c #272727",
"& c #000053",
"* c #00003B",
"= c #131313",
"- c #3F2F17",
"; c #332B13",
": c #170F07",
"> c #373737",
", c black",
"< c #4B371B",
"1 c #00009B",
"2 c #53573B",
"3 c #533F1F",
"4 c #5F4323",
"5 c #67533F",
"6 c #000017",
"7 c #3F472B",
"8 c gray28",
"9 c #774F2B",
"0 c #5F4B37",
"q c #6F5743",
"w c #5B6347",
"e c #4F3B23",
"r c #775F4B",
"t c #5B472B",
"y c #6B4727",
"u c #0B0B0B",
"i c #1B1B1B",
"p c #2F2F2F",
"a c #4F0000",
"s c #0000B3",
"d c #070707",
"f c #574333",
"g c #836B4B",
"h c #675333",
"j c #8F7753",
"k c #8B0000",
"l c #775F3F",
"z c #5B0000",
"x c #7B634F",
"c c #B30000",
"v c #232323",
"b c #7F532F",
"n c #875733",
"m c #836B57",
"M c #7B7F63",
"N c #373F27",
"B c #6F7357",
"V c gray39",
"C c #7F0000",
"Z c gray34",
"A c #E30000",
"S c #6F6F6F",
/* pixels */
"  . &   &   &   &o  &   &   &*  & . &   O   &   &   &  &o   &   ",
"  . &   &   &   &o  &   &   &*  & . &   O   &   &   &  &o   &   ",
"  . &   &   &   &o  &   O...O*  & . &&&&1&&&.&&&.&&&.&&..&&&.   ",
"  . .ooo&   .&&&.&&O.   o   &*  o o &   O   &   o   &  oo   &   ",
"&&O&O&&&&o&&&oXX  X.X6XX    &*  & . O...1XX6&XXX.&&&.&&..&&&.&.&",
"  . .   &X   X  &o . X  &   &*  & . &   O  X&   ....O..OO...& & ",
"  . .   &X   X  &o . X  &   &*  & oX&XXXO  X&   &XXX&XX&o   & & ",
"  . .   &X   X  &o . X  &   &*  & . &   O  X&   .   &  &o   & & ",
"&&1oOo&&.o&&& &&.&& &&o&.o.o&&&o.&.&&.O&.&&o.&&&.&&&.&&.&&&&O&&&",
"    .Xo &X   X  &  X o* &XoX&* X& . Xo. &  XO X .   X  &o   . & ",
"    .Xo &X   X  &  X o* &XoX&* X& . Xo. &  XO X .   X  &o   . & ",
"    .Xo &X   X  &  X o* &XoX&* X& . Xo. &  XO X .   X  &o   . & ",
"&&.&&o&o&ooo&ooo&oooooo&& o o   o o  o& o   o   &ooo&oo&&&&&O&&&",
"  & .Xo &X. .X  &  X o*.&XoX&* X& . Xo. &  X. X &   o  &o   .  &",
"  & .Xo &X. .X  &  X o*.&XoX&* X& . Xo. &  X. X &   o  &o   o  &",
"  & .Xo &X. .X  &  X o*.&XoX&* X& . Xo. &  X. X &   o  &o   o  &",
"&&.oOo.&.oO&O &&.&&o&&&&&&&&&&&.&&&&&&.&&&&o&&&&&&&oo&&.& O&.&&&",
"  o .Xo &X. OX  .  X X*O&XoX * .& . XoO &  X. X &  Xo  &oX. .   ",
"  o .Xo &X. OX  .  X X*O&6*6X X. XoX6*O& XX6oX6X XX6*XX oX. .   ",
"  &o.*&o.*OoO*oo.&&o.o&.&o&oooo&&.&o.&&&&o.o&oooO  Xo  &oX. .   ",
"&&.&.Xo &X. OX  .  X.X*O&XoX * .&.. .o.&& OX. X &  Xo  &oX. O&.&",
"  o oXo  X. .X  &X X.X*O XoX * . .  .o.&  OX  X    Xo    X. o & ",
"  o oXo &X. OX  .  X.X*O&XoX o .&.. .o.&& . . X &  Xo  &oX. o & ",
"  o oXo &X. OX  .  X.X*O&XoX o .&.. .o.&& . . X &  Xo  &oX. o & ",
"&&Oo.o.&.oO&.o&&&&&o.&&o.&.&o.&..&.&O.O..&O&.&o&.&&oo&o.& 1&O&.&",
"  & o o &X. OX  .  X.X*&&XOX O .&.. .o.&& . . X &  Xo  &o O . & ",
"  & o o &X. OX  .  X.X*&&XOX O .&.. .o.&& . . X &  Xo  &o O . & ",
"  & o o &X. OX  .  6.6 o 6O6XOX. .oX.*.&& . . X &  Xo  &o O . & ",
"&&.&.&.&.X. OX  .  X.X*&&XOX O .&.. .o.&& . .&&&.&&&1&&..&1&O&&&",
"  & o o  X. .X  &X X.X*o&o&o&&&.&.&&o...o&.&  X    XO     o .  &",
"  & o o &X. OX  .  X.X*&&XoX.o .& . XO.&. X . X &  XO  &o o .  &",
"  & o o &X. OX  .  X.X*&&XoX.o .& . XO.&. X . X &  XO  &o o .  &",
"&&.o.&&&.oO O &&.o& O o..o.o.&oO.&.&o1...& &.&o&O&& O&o.&&o&O&&&",
"  & ooo &X.X.X  .   .X*&&XoX.o O& . XO.&. X . X .  XO  &o o .   ",
"  & ooo &X.X.X  .   .X*&Oo&o.&o.&o&oo..&oo.o. X .  XO  &o o .   ",
"  .&...&.X.X.X  .   .X*&&XoX.o O& . XO.&. . . X .  XO  &o o .   ",
"&&.&ooo &X.X.X  .   .X*&&XoX.o O& . XO.&. . . X .  XO  &o o .&.&",
"  & ooo & O . **.***. o&& o Oo*O&*.* O...*O*.* *.** O**&o o . & ",
"  & ooo &X.X.X  .   .X*&&XoX.o O& . XO.&&X.X. X .  XO  &o o . & ",
"  & ooo &X.X.X  .   .X*&&XoX.o O& . XO.&. . . X .  X.  &o o . & ",
"&O&o.&.o.o1 O &&.&&&.o&.&&&&o&&&&&&&&&.& &&&& O&O&&o.&o.&&o&O&&&",
" &  o o & .X.X  .   .X* OX&  *& & . .oO&.o& O . .  o.X &o o .   ",
" &  o o & .X.X  .   .X* OX&  *& & . .oO&.o& O . .  o.X &o o .   ",
" &  o o & .X.X  .   .X* OX&  *& & . .oO&.&o O . .  o.X &o o .   ",
"&.&..&.&.&.X.X  & o OX*oO &o o&o& o .o.&&&o . . ....1.......O&&.",
"   &o o o oX.X  &  X.X  OX&  *& o o .o.&&&o . . .  oXX oo o .  &",
"   &o o & .X.X  .   .X* OXOX *& & . .oO&....O . .  oXX &o o .  &",
"   &o o & .X.X  .   .X* OXOX *& & . .oO&.   O . .  oXX &o o .  &",
"&&&oO&.o.&. Oo&&.o&oO o&1o1  &.&.&.&O.O..&&&O&.&.&&&&o&.&&o&.&&.",
" &  & o &  X.X  .   .X* OXOX  & & . .o &1   O . & X    &o o .  &",
" .&&.&.&&  X.X  .   .X* OXOX  & & .X.*X&O...1X.X X6XXXX&o o .  &",
" &  & o &  X.X  .   .X* OXOX  & & . .o &1   O . & X    &o o .  &",
"&.&.. o &&&o&&&&.&&&&o&&o oo .... . .o &1....&O&.&&&&&&..&.&O&&.",
"   && o &  X&X  &    X* &X*   & & oX.*X&OXXX. . & X    &o o .  &",
"   && o &  X&X  &    X* &X*   & & . .o &1   O . & X    &o o .  &",
"   && o &  X&X  &    X* &X*   & & . .o &1   O . oX6XXXXoo o .  &",
"&&.oO&&o..& .o&&.&&o.o&&.&.o &.&.&.&O&&.s&&&O&O&.& &O..O....O&&.",
"  & &   && X&X  &o  &X  & .   & & oXXXX&.XXX&XXX XXX&XX o   &  &",
"  & &   && X&X  &o  &X  & .   & & .    &O   &   &   &  &o   &  &",
"  & &   o& X&X  oo  &X  o .   & o &XXXX&OXXX&XXXo   &  &o   &  &",
"&&.&.&&&..X6&XXXo XX&XXXoX.XXX&Xo O&&&&.1&&&.&&&.&&&.&&..&&&.&&.",
"  & &    X&&.&&&&&&&.&&&&&.&&&.&&&.&&&&&O&&&.&&&&&&&.&& o   &   ",
"  &&&   &   &   &o  &   & . .&&&.&O&.   O   &   &   &  &o   &   ",
"    &   &   &   ..........O...... . .&&&1&&&.&&&.&&&.&&.o   &   ",
"  . &   &   &   &o  &   &   &*  & . &   O   &   &   &  &o   &   ",
"  . &   &   &   &o  &   &   &*  & . &   O   &   &   &  &o   &   ",
"  . &   &   &   &o  &   f52052#55#25025f1&&&.&&&.&&&.&&..&&&.   ",
"  . .ooo&   .&&&.&&O. f2-##0#%#88#%#0##->f  &   o   &  oo   &   ",
"&&O&O&&&&o&&&oXX  X.ew>>@$<q+>%VV%>+q<$@>>8e&XXX.&&&.&&..&&&.&.&",
"  . .   &X   X  &o wp>+r%@$#@8%00%8@#$@%r+>pw   ....O..OO...& & ",
"  . .   &X   X  &ow#%-@8$+$%@%%>>%%@%$+$8@-%#w  &XXX&XX&o   & & ",
"  . .   &X   X  &2>-0%p%7=#,=,:@@:,=,#=7%p%0->2 .   &  &o   & & ",
"&&1oOo&&.o&&& &&wp-##;$%#,@,:=,==,=:,@,#%$;##-pwO&&&.&&.&&&&O&&&",
"    .Xo &X   X  g$%@5:#d=,==d,,,,,,,==,=d#:5@%$g.   X  &o   . & ",
"    .Xo &X   X 2%##$$##=,,,,,,,,,,,,,,,,==#$$##%2   X  &o   . & ",
"    .Xo &X   X w%#$+##@=,,,,@@;--;@@,,,,=@r#+$#%w   X  &o   . & ",
"&&.&  &&&&&&&&&2>-#=g,,,,,@;$344443$;@,,,,=g=#->2ooo&oo&O&&&O&&&",
"  & ..o &X  .X#5+t+;j,,,,+-34yy99yy43-+,,,@jN%-r=5  o  &o   .  &",
"  & ..o &X  .X#2@$#@j,,,+;<34y9bb9y43<;+,,@j<0@0:#  o  &o   o  &",
"  & ..o &X  .X#$t+8@h,,@+$<34y9bb9y43<$+@,@h-$S8@f  o  &o   o  &",
"&&.oO..&.&&&.o7$#%-@3,,++-<34yy99yy43<-++,@3$nn5=f&oo&&.& O&.&&&",
"  o .Xo &.  OX$;>>;:3,,++;-<34yyyy43<-;++,@3<j4->2 Xo  &oX. .   ",
"  o .Xo &.  OX7=>#-:9,,@+;-$$<3333<$$-;+@,@9<9;#>2X6*XX oX. .   ",
"  &o.*&o.OooO*2=2+$:r,,@@+;-$$<<<<$$-;+@@,@r;+t+5# Xo  &oX. .   ",
"&&.&.Xo &.  .o#2@$#@r,,:@+++;;----;;+++@:,@r@#$@2#&o&&&...s O&.&",
"  o oXo  .  .X#$t+8@m,,::@+;;;++++;;;+@::,@m@8+t$# Xo   .X. o & ",
"  o oXo &.  OX7$#%-@m,,::@;;<4;++;4<;;@::,@m@-%#$7 Xo  &OX. o & ",
"  o oXo &.  OX$;>>;:M,,:@++++++++++++++@:,@M:;>>;$ Xo  &OX. o & ",
"&&Oo.o.&.sOOs 7=>#-:B,,,@+@aaaz@@zaaa@+@,,=B:-#>=7&oo&o.O 1&O&.&",
"  & o o &X  OX2=2+$:r,,,++akckz++zkcka++,,=r:$+2=2 Xo  &O O . & ",
"  & o o &X  OXe%$@-$5,,,+-kcAC+::+CAck-+,,=5$-@$%e Xo  &O O . & ",
"  & o o &X  OX7%>v#<5,,,+<4y3;:,,:;3y4<+,,=5<#v>%7 Xo  &O O . & ",
"&&.&.&.&.X  OX7#@>$th,,,++++++:ii:++++++,,=ht$>@#7&&1&&.1&1&O&&&",
"  & o o  X  .Xe%%#@qq,,,:@@++;----;++@@:,,=qq@#%%e.XO   . o .  &",
"  & o o &X  OXe>$$d9l,,,,:i@+;-33-;+@i:,,,=l9d$$>e.XO  &O o .  &",
"  & o o &X  OXe>$dZ@l,,,,,:i++++++++i:,,,,=l@Zd$>e.XO  &O o .  &",
"&&.o.&&&.o& O 2%8:0##,,,,,,:i+@::@+i:,,,,,=##0:8%2O O&o.O&o&O&&&",
"  & ooo &X X.X$#<-x<5,,,,,,,,,,,,,,,,,,,,,=5<x-<#$.XO  &O o .   ",
"  & ooo &X X.X7@$-x4r,,,,,,,,,,,,,,,,,,,,,=r4x-$@7.XO  &O o .   ",
"  .&...&.X X.X7:-$S8h=:==================:=g##$@2#.XO  &O o .   ",
"&&.&ooo &X X.X-p$nn5-qgq##$$$#$#N$$#-75qjlq-#8+t$#.XO  &O o .&.&",
"  & ooo & * . $=<j4->;2@$#@;>>;#%##e#%#%9;#>#-%#$7O O**&O o . & ",
"  & ooo &X X.X7=<9;#>;$t+8@-#>=+>%ee%#+>+t+5#;>>;$.XO  &O o . & ",
"  & ooo &X X.X%u@@-@$u+;i+:uuu,:pi--ip:,u,uuu+;vu%.X.  &O o . & ",
"&O&o.&...&.o.o&&.......O...O.O.......O..O.O..&.&..&&.&&..OOOO&&&",
" &  o o.& .X.X  .   .X* &X&. O& & . XoO&O   O X .o o.X &o o .   ",
" &  o o.& .X.X  .   .X* &X&. O& & . XoO&O   O X .  o.X &o o .   ",
" &  o o.& .X.X  .   .X* &X&. O& & . XoO&O   O....  o.X &o o .   ",
"&.&..&.O.&.X.X  & o OX*o& .O O&o& o Xo.&O   . X ....1.......O&&.",
"   &o o.o oX.X  &  X.X  oX&. O& o o Xo.&s...1 X .  oXX oo o .  &",
"   &o o.& .X.X  .   .X* &X&. O& & . XoO&O   O X .  oXX &o o .  &",
"   &o o.& .X.X  .   .X* &X&. O& & . XoO&O   O X .  oXX &o o .  &",
"&&&oO&.O.&. Oo&&.o&oO o&.o.O O.&.&.&o.O.1&&&O& &.&&&&o&.&&o&.&&.",
" &  & o1O...1...1...1.O.O.O...O.O.1..O.Os...s X & X    &o o .  &",
" .&&.&.&&  X.X  .   .X* &X&   & & .XX*X&.XXX.X6X X6XXXX&o o .  &",
" &  & o &  X.X  .   .X* &X&   & & .  o &O   O X & X    &o o .  &",
"&.&..&.&O&&o&&&&o&&&&o&&o o  .... .  o &O   O&&&.&&&&&&..&.&O&&.",
"   && o &  X&X  &    X* &X*   & & oXX*X&OXXX. X & X    &o o .  &",
"   && o &  X&X  &    X* &X*   & & .  o &O   O X & X    &o o .  &",
"   && o &  X&X  &    X* &X*   & & .  o &O   O X oX6XXXXoo o .  &",
"&&.oO&&o..& .o&&.&&o.o&&.&.o &.&.&.&&&&.1&&&O&o&.& &O..O....O&&.",
"  & &   && X&X  &o  &X  & .   & & oXXXX&.XXX&XXX XXX&XX o   &  &",
"  & &   && X&X  &o  &X  & .   & & .    &O   &   &   &  &o   &  &",
"  & &   o& X&X  oo  &X  o .   & o &XXXX&OXXX&XXXo   &  &o   &  &",
"&&.&.&&&..X6&XXXo XX&XXXoX.XXX&Xo O&&&&.1&&&.&&&.&&&.&&..&&&.&&.",
"  & &    X&&.&&&&&&&.&&&&&.&&&.&&&.&&&&&O&&&.&&&&&&&.&& o   &   ",
"  &&&   &   &   &o  &   & . .&&&.&O&.   O   &   &   &  &o   &   ",
"    &   &   &   ..........O...... . .&&&1&&&.&&&.&&&.&&.o   &   "
};
