/* XPM */
static char *SW2CMT[] = {
/* columns rows colors chars-per-pixel */
"64 128 106 2 ",
"   c #BFA78F",
".  c black",
"X  c #EBDB57",
"o  c #FFFF8F",
"O  c #5F4323",
"+  c #0B1707",
"@  c #D7BB43",
"#  c #A36B3F",
"$  c #FFBB93",
"%  c #875733",
"&  c #FFFF73",
"*  c #AF7B1F",
"=  c #6B4727",
"-  c #B37347",
";  c #E79B6B",
":  c #CF8353",
">  c #EFA373",
",  c #DF9363",
"<  c #13230B",
"1  c #C39B2F",
"2  c #9F876F",
"3  c #7B7F63",
"4  c #6F7357",
"5  c #A78F77",
"6  c #AF977F",
"7  c #836B57",
"8  c #8B8B8B",
"9  c #B7B7B7",
"0  c #937B63",
"q  c #5B6347",
"w  c #67533F",
"e  c #332B13",
"r  c #474F33",
"t  c #836B4B",
"y  c #9B7F6B",
"u  c #2F2F2F",
"i  c #775F4B",
"p  c LightGray",
"a  c gray75",
"s  c #B79F87",
"d  c #9F8363",
"f  c #979797",
"g  c gray67",
"h  c #676B4F",
"j  c #CBCBCB",
"k  c #6F6F6F",
"l  c #777777",
"z  c #838383",
"x  c #939393",
"c  c #43331B",
"v  c #2B230F",
"b  c #775F3F",
"n  c #232323",
"m  c #373F27",
"M  c #8F7753",
"N  c #533F2F",
"B  c #675333",
"V  c #1B1B1B",
"C  c #1F170B",
"Z  c #5B5B5B",
"A  c #FFEBDB",
"S  c #53573B",
"D  c #574333",
"F  c gray50",
"G  c #533F1F",
"H  c #FFCFB3",
"J  c #7B634F",
"K  c gray34",
"L  c gray28",
"P  c gray39",
"I  c gray78",
"U  c gray31",
"Y  c #131313",
"T  c #E7E7E7",
"R  c gray42",
"E  c #3F472B",
"W  c #3F2F17",
"Q  c #0B0B0B",
"!  c #272727",
"~  c gray86",
"^  c #6F5743",
"/  c #9F9F9F",
"(  c #373737",
")  c #170F07",
"_  c #5F4B37",
"`  c #434343",
"'  c #4F3B23",
"]  c gray23",
"[  c #FFE3D3",
"{  c #FFDBC7",
"}  c #DFDFDF",
"|  c #8B735B",
" . c gray70",
".. c #4B4B4B",
"X. c #FFFFB3",
"o. c #EFEFEF",
"O. c #070707",
"+. c #FFD7BB",
"@. c #F7ABAB",
"#. c #774F2B",
"$. c #4B371B",
"%. c #8F5F37",
"&. c #A7A7A7",
"*. c #17330F",
"=. c #5B472B",
"-. c #FFC79B",
/* pixels */
"B m e e e e m E L S S e e S S S m n s 5 M 0 0 2 6 8   p z q   p Z Y n E e E C w c r m e m E C C Y m b 3 2 2 2 2 2 2 y 0 2 6 7 c ",
"B m e e e e m E L S S e e S S S m n s 5 M 0 0 2 6 8   p z q   p Z Y v q 3 3 h 4 x   2 3 2 3 4 r v m q 7 2 2 0 y 2 2 3 2 s   7 c ",
"B m e e e e m E L S S e e S S S m n   2 2 a a 9   f a A   2 a [ ^ Q e q 4 q q t 2 5 M h 2 7 m ) V ' b 7 2 2 3 3 2 2 d 2 2   k c ",
"B m e e e e m E L S S e e S S S m n   2 6 9 a a g 6 9 j   6 a j r Y G 4 4 i i 7 y 2 0 t t w $.c v m q 3 6 3 B 4 6 6 y 0 2 6 7 c ",
"m e E q S L E E 4 x 4 m S q S r r u   2 6 9 I a f 2   a   f j I m Y N 4 i q i t 2   6 t i i w m n N i y 2 7 i 0 5 6 y 3 2   l c ",
"e e S q q q q q 8 s q E 4 4 q q r u 9 2 2 9 a 9 f 2   a 6   T p m n W i i b t 0 5   y N w 2 y r v m i 3 5 5 2 2 2 2 y 3 3   z c ",
"v e S q 4 4 4 3 6 M W m 4 3 4 h E u p 6 y   9 9   f 9 9   9 o.} m e v i 7 b c G 2   0 w 7 y y ^ e N i 3 8 5 5 2 2 2 0 t 0 9 5 c ",
"C E S w 4 4 4 3 3 q m r 4 4 4 q m n T g 3 6 9 9 g / 9 p a I T T r O.v 3 5 w O.v 0 6 M M t t 0 7 u N 4 7 y 2 5 5 5 2 0 4 t 9 x c ",
"C E S q 4 4 4 3 4 S r q 4 4 4 4 r n T 9 2 / a 9   9 p p 9 9 T T r O.m 8 7 e v b 2 t r q t 3 0 7 u N i 3 2 2 5 5 2 6 6 t 4   z c ",
"*.E q 4 3 4 4 4 4 q q q 3 4 q 3 K u A a     a a   9 p p  . .~ A i Y W 0 3 m v N b q t 2 d d d w v c q 3 5 2 5 2 2 2 2 0 0 6 l u ",
"e E i 2 3 4 h q b M 4 q q q 4 2 w n p a 9   a a 9 9 p p     p T F Y r 6 0 r c c G q 2   6 d M _ C u B 3 6 6 6 2 2 y 2 5 2   l u ",
"e r y s 2 t w w y 5 4 q q q 3 2 w n ~ a     H a 9 9 p p 9 9 p T F Y 4 6 w E S r r M 2 6 2 t i r V c q 7 7 5     5 2 2 2 0   l e ",
"c w 2 6 y 4 S 4 8 2 4 4 4 4 3 2 r n p     9 p p     p p 9 9 p A l Y q 2 4 q q e c 4 0 0 b =.b w v ' J b ^ 5 a     6 0 4 3   2 e ",
"e q 2 2 4 h h M 2 3 4 4 4 4 3 3 r V X.9 6   p p 9 9 j a   g p A k Q B 6 2 4 w e e r w B b t 0 ^ C ' J y 5 s       6 0 b t   7 e ",
"r 4 d M t t t 3 3 3 4 4 q 4 7 3 r n A 9 6   a a 9   I I    .~ T k Q r 2 y q r S w w i 0 3 4 4 D C c i 2     6 6 6   5 7 3   7 e ",
"q 4 4 4 M 4 q 4 2 3 4 q q i 4 3 w u X.a   9 p p   s a +.9 9 X.A 7 ) q 6 y q w N w i 4 7 t 4 t w v v q 6   6       s 2 t 7   l u ",
"4 4 4 4 4 q q 4 M 3 4 i i i 4 7 D n A a   9 p H   s a a     A T 7 Q q 6 2 7 w v c i 4 B q t 3 w V Q B     6     9 s y 7 7   z u ",
"3 4 7 3 4 q i 4 4 4 4 q q q q q r n A a 6   { p a a a a   9 p A k Q r 2 y 3 w e w 5 y B w t 3 w e O.N     6   9 9 6 2 3 4   F u ",
"q 4 3 3 4 i 4 i q q q S r r r w D e T a 6   p +.9 9 a a a a 9 I l Q S 3 4 4 q N 4 6 0 w q 4 t ^ n Q r     s         0 t 3   z u ",
"q q 3 4 q 4 3 4 q r N r r r r q r u [ a     a a 9     9 a a 9 p z Y S 4 4 4 b B M d M B b d 2 _ C Q w     s s       0 M 0   l u ",
"q 4 4 q 4 2 3 4 4 q N r S S q q r n p a 9     a   6   a 9   9 T z Y r 3 3 M 4 t M M 0 d 2 0 t N C ) i 9 9 6 6       2 M 3   2 e ",
"q q 4 7 3 3 3 3 3 4 q S S S S q r n a a 9 9 j p   2 s   d 2 a T F Y m 4 7 0 t B r t 6 6 6 2 0 _ C v 3 a   6 6       2 3 3   z u ",
"N r 4 3 3 3 3 3 3 4 q q q q r 4 w n a a 9 9 ~ p 6 2 s 2 4 6 A ~ R Q w 3 7 7 t b B 0   s 2 2 2 w C ! 7             6 2 0 0 9 2 c ",
"r r q 3 3 3 3 3 3 q r q 4 q S 3 Z u j a 9 9 p a   s   5 M s j a i Q q 3 t t b B t 6   6 2 0 3 n Y ) w s         9 6 2 0 0   2 W ",
"S r q 4 d 3 M 4 4 q q h 4 q q y Z e a 9   9 p j     a 9 2 6 a 9 w Y 4 2 t b w w 0       6 y 7 v Y m 4 5 s     9   s 2 0 0   x W ",
"E S 4 3 4 4 4 4 h h q 4 3 4 q 3 w u 9 9 9 9 a a 9   a g 2 6 9 a l V 2   3 4 b B b 0 6   6 0 0 D ) c y s s s         5 0 0 a x u ",
"e w 3 4 q 4 3 3 4 q q 4 3 4 q 3 r V 9 a   a a 9 6   a   2 2 6 j x V d   y i w N i y 6   6 2 5 w Q m 2   6 6         6 t t   2 e ",
"c q 4 4 4 4 4 i q q q 4 3 4 q 3 w v 9 9 a a 9   6   9 9 6 2 2 a f e 2 a 5 4 r G b 0 d 6 6 d 0 N ) m 6 9 6 2         6 t t a x e ",
"e q q 4 4 4 q S S w q 2 5 4 q 3 w e a 9 a a 9 s     9   s 2 2 j f n 2 a 2 i N c b 0 t 0 2 t B e Q r   a s 6 6       6 4 b a x u ",
"m q t 4 q r w q r N 4 6 2 t 4 3 w u 9 9 a p   6 s 9     9 6 2 a z e 3   5 3 N e B t d d t G c u Y N   a 9   s 6 6   6 t 7 p x e ",
"c 4 y q E r 3 8 q E q 2 3 7 3 3 w u a a a a   6   9 a a a 6 3 6 k ! i 6 5 y b G r h t b b B W C ) N f a a 9   6 6 6 2 0 2 p z u ",
"N 4 4 w N w 6   7 q 4 4 i 3 5 y D u   j a   a a 9 9 9 9 a 9 6   k u 7 6 2 3 4 4 3 b c m 0 5 t v Q r s a         2 2 2 d 6 p z e ",
"r i q w q i 3 3 7 4 3 4 q 3 6 2 r u   j     j j     9 9 9 9     i v t s 2 i b 2   2 B N t | ^ C Q N 6 a   a I   6 2 d 0 s A 5 e ",
"S q 4 4 4 q r w i 4 y 3 4 2 f 2 r u a a   s a a s   a 9   6 6 6 w V 7 s y 4 3 2 6 6 h 4 5 y ^ v Q m 6 a     I   6 0 0 0   T x v ",
"E 7 2 3 4 q r q 4 q 4 y 2 5 6 2 w u j a 5 5         9       s 6 7 e 7 5 t 3 0 0 6 5 t y       w Y c 5 a     I I   0 t t 6 T x V ",
"E 4 7 4 3 4 q q q 4 3 2 2 5 5 6 K u j   6 5 s             a j a 2 u 7 5 t t 0 y 0 5 s 5 5 6 6 i V w s a a   a a   6 0 b y A x V ",
"S 3 3 4 4 4 4 q q 4 y 3 3 6 s 6 w e j 9 s s   6 2   j a     9 a z u t 6 0 0 6 2 0 6   a 5 B G D v N 5 a a         6 2 t 0 [ 5 C ",
"4 6 3 q b 7 4 w q 7 7 4 2     x r u j 9 6 s     s   9 a a   s a x u 4 6 2 b t 2 s   a   5 d d w V D 6 a a           6 t 0 p z C ",
"3 2 4 B h t 4 q b 4 3 2 6 f 8 8 K c a   5 6       9 9 a p 9   p x u t 5 y 3 t 0 s       s s s i C N 6 a a a         2 b 3 H z n ",
"4 3 4 h 4 4 B B q t 2 6 6 2 y 6 Z (   6 6     6 6   a j a   9 ~ 2 u b 2 2 2 0 0 6     6 2 4 b w C D   a         9   6 4 t   2 e ",
"4 2 2 2 3 q r r r i 6 s 6 y 3 6 7 c   6 6   9     9 a 9     a p 5 u t 2 4 b t 2 6 6 6 0 r m q r ) D s a           6 2 b J a z n ",
"3 f 5 4 q i 4 i w i 3 3 3 3 3   R u 6 6   9     s   a     9 a ~ 8 n 5   7 B b 6 H {   t G t s l C r s a     I   s 2 M b 0 H 7 V ",
"2 s y w r q 4 i q 4 3 7 4 4 8 f Z c s s       9 9 9       a a j 2 e 2   3 W m x p ~ 6 m e M s l v D s a     I I   5 2 M 0   J v ",
"3 2 4 B b 2 5 4 7 8 8 3 4 3 2 6 K u s     a j j a a   a a a a p 2 e 3   2 N v i   H 2 e ) B s 2 v w   a   a p   6 9 9 0 i 2 w V ",
"3 2 3 b 7 s s 7 4 2 6 2 3 3 2 6 w u s s s     j j     j j j j j l v 6   2 b r t 6 6 4 ) 4 B   2 v w   a   I I   6     7 q 2 i v ",
"8 f 4 r q f 9 2 4 2   s 7 i 2   r n   s   9     a a a j a j j a 7 v s p 5 7 i r r 4 d h G G t 7 e w   I I I I   6     t q 2 w v ",
"f   7 r 4   9 8 q 3   f 4 q 3 9 R n a 9       a a   a I a j j a 7 v   [ 6 t i G ) W 2   0 #.t i v _ 9 p I I a   6     0 t y w v ",
"6 3 B q 2     3 q 4     4 S 3 a F u a         a a   a I I j j p 5 u   A 6 q q q m r y   6 2 6 J V w   I               t b 2 w v ",
"4 S m q 2 6 6 3 3   a 2 q q y 9 Z n j j     s 9 9   a a I I I j x e a o.  q q 4 3 2   9   s   7 v i 9 a 9   a   s     y t 0 r V ",
"7 3 4 i 7 2 2 2       3 4 4 2 f r n p a 9       a j a a   a I j 2 e   A   t 4 M d d 2 2 5 s   d e i 9 a 9 a I   6 6 6 y 4 4 N v ",
"y 5 7 N w y 6 6 6     6 2 3 8 f m n ~ a 9 9 9 9 a j a 9 s   I j 2 e 9 { 6 t 0 d 0 2 s s d d   2 e ^ 9 a   a I   6 6 6 0 b t r e ",
"8 5 7 B q y 2 y 2   9 s 3 4 f   u V p j a   a   a a a a     I j x u   H 6 2 0 d d s -.  d d s 7 e ^ 9 a   a I a   5 y | t 0 _ e ",
"2 6 5 3 7 7 t 3   H a 6 4 4 f 9 r n p j a     a a a a a   a j j x e   a y b 0 5 s         5 5 7 e J   a   a p a s 6 6 3 q t w e ",
"2 g g 6 y 4 q 3 9 a a   3 7 f g K u p a a a a a a             j x e   6 t M 2 s     s     2 5 7 e ^   H   a j     2 0 7 4 y ^ e ",
"3   f 2 2 3 4 M 2   p 6 4 3 f / r n a a j a a a 9         s 5   x e 6 5 0 t #.M   6 6       5 7 v i   a   j j   0 2 2 t i 0 w e ",
"3 y 3 3 6 2 0 3 0   9 2 4 2     r n   a j j a 9   s 6 6   s 5   F v     y ^ i 6   d 6       6 J v w       j j   2 0 0 i b 2 7 u ",
"3 3 4 0 6 5 4 i y   / 2 2 2 6   w n 6 a j     9   6 5 6     6 6 J v a p 0 r 4 2 5 5 s       d E C r 6     j p   6 6 d b b 2 7 e ",
"3 3 y 6 6 2 y t 7 6   6 2 5 s g K n     a 9 9 9     6 5 6     6 i e a { 2 q r B M 5 s       5 D C w       j p     6 y i i 5 7 v ",
"3 2 2 2 y 5 5 3 3 s   2 3 f g / r n 9 9 9           6 s         k u j T 5 B B 0 s 5 d s       _ C w   a   j j j   s 5 i w y Z n ",
"2 5 y 7 y 6 6 2 6 s 8 2 6 f   6 r n             9             9 z u p T 6 h d     5 d         D Q ^ 9 a   j j p     5 i w y i e ",
"8 8 7 3 6 6 2 y 6 6 2 5 6 f   8 m e         9   j j           a 2 u H p 2 0 6   6 0 2         _ Y w   a   j j p 9   y q q 0 w u ",
"6 6 3 5 f 2 3 2 6 s 5 5 5 6 g 3 ! n   6 6       j j a         a l e   @.6 5     0 0 s       6 D u w s 9   a j ~ p   2 t q t w e ",
"    6 6 6 2 3 8 s f 5 2 3 6 9 3 n n   5 5 s s     j j           l e s     2 0 2 6             w e D 5     a j ~ ~ 9 2 3 h t w e ",
"6 6 5 2 2 2 2 6 f 6 8 8 3 2 6 6 r u   5 d 6         j           7 e   {   y J 0 6 a +.a       ^ C r 6 a a p ~ ~     s 2 i i w e ",
"8 6 6 6 2 2 8 6 6 8 f 6 3 3 6 6 r u 9 6 6 s s s   j j       9 9 7 u   A   t h 2               w v _ 6   a p p ~       2 i 0 i e ",
"6 6 6 6 5 2 2 8 3 3 8 3 4 2 g 9 i u   6 s s 5 6   j a         9 l u   H 6 | b 0 6 s           7 V _   a   p p p       6 2 6 i v ",
"2 8 2 2 2 3 2 6 2 3 3 y 2 8 6 a 7 u 9 6   s 5   a a a a     s 9 l u   @.6 | t 5   6 d M 5 a   7 e w   I I p p ~       6 2   7 e ",
"2 2 3 4 4 3 2 6 6 2 y 5 2 7 2 9 7 u 9     6 5 6             6 6 7 e 6 9   2 0 5   d W v B     l C w   I I I p p     6 2 6 p 2 u ",
"6 2 7 3 y 2 2 5 2 y 2 2 3 3 6 a k u   6     6 2 5 6 s 9 a   2 q r u 2 +.  s d t t G ) c 6     ^ C 7 a I I I I p     6 d 6 T 2 V ",
"s y 4 3 8 2 2 2 3 3 2 8 3 3 f j k u   s   s 6 6     s   a 5 B M 7 c   A A   B $.i L L 3 2     ^ v 7 I I I a a I I   6 d s A z C ",
"8 3 3 3 3 8 6 8 3 2 8 3 4 3 f j k u 9 9 9   a   s       s d t d l c s o.[ 5 i K N 4   d M     J v 7   I p I I   I   6 2 6 p l C ",
"2 8 8 7 4 3 3 3 8 f 3 3 3 2 6 a 7 u a 9     a a   s   s s s 6 5 7 ( s T A   4 r 2   d W b     w C i   a I   6   I     2 2   7 v ",
"5 y y 2 y 3 7 8 f 8 2 8 8 8 f 9 l x 8 8 8 x x x f f / f / f x 8 8 x x f / / f x x x 8 8 8 x x l e w 6 a I 9 6   I I   d 5   2 e ",
"f 2 7 y 8 8 2 8 8 y 8 5 8 8 f 9 L R P P P R R P l l k l z l R P P R k l z z R k R P P P P R R L c w 6 a 9       9 9   2 5   2 e ",
"f z 4 2 6 8 2 5 2 3 y 5 8 3 8 9 L k R P R k k R l F k F z F k R P k l F z z k l k P R P R k k ..N i     9     9 9     6 6   7 e ",
"    3 3 2 2 2 8 2 3 2 8 3 4 2 9 L k R R R k k R F F k F 8 F k R R k l F 8 8 k l k P R R R k k ..c w 2   9 9 9 9 9 9   6 6   7 e ",
"9 f 3 3 3 8 6 6 8 3 2 2 3 3 2   ..k R R R k l R F F k F 8 F l R R k l F 8 8 k l l P R R R k l ..c i     9 9 9 9 9 9   5 6   7 e ",
"g s 8 8 8 8 6 6 8 6 8 3 3 5 2 8 ..l k k k l l k z z l z 8 z l k k l F z 8 8 k F l R k k k l l U c 7 9 9     9 9 9     2 6   7 n ",
"s   6 2 3 2 8 6 f s 5 y 3 2 2 5 ..l k k k l l k z z l z x z l k k l F z x x k F l R k k k l l U c w 5     a 9 9             J ! ",
"9   2 2 8 2 8 8 f   s 8 3 3 8 f U l l k l l F k z 8 l 8 x 8 F l k l F 8 x x l F F R l k l l F U c w 6       9 9           9 i e ",
"j   5 2 y 5 5 8 f g 5 3 3 8 f 8 U F l l l F F k 8 8 l 8 f 8 F l l F z 8 f f l z F k l l l F F K e i     6   9 9 9     s   9 7 u ",
"9 9 s 2 y 2 2 5 s   f y 8 f f 8 U F l l l F F k 8 8 l 8 f 8 F l l F z 8 f f l z F k l l l F F K D i   9     9 9 9 9   6   9 i u ",
"g   f 8 2 8 8 5 s   f 8 f f f f K F F l F F z h 8 x h x f x z F l F 8 x f f h 8 z h F l F F z Z e ' 0     s s 9 p   s 6 s   i v ",
"f   8 2 5 6 2 2 s   s 5 8 8 s g K z F F F z z F x x F x / x z F F z 8 x / / l 8 z l F F F z z Z c D     6 s s   9 9   6 d   7 e ",
"g 6 6 6 6 y 3 2 g 9   6 8 5 g g K z F F F z z 8 x x f x / x z F F z 8 x / / x 8 z z F F F z z Z N w   a 6 s s   9 9 9 5 2 s i u ",
"9 g 6 6 2 2 2 5   g   6 3 2 9 9 K F F l F F z 8 8 x x x f x z F l F 8 x f f x 8 z F F l F F z Z D w     6 6 6   9   6 6 6   7 e ",
"j g 5 8 5 6 6 5 6     8 3 y  .9 U F l l l F F k ( ! L l f 8 F l l F z 8 f l L ! ( k l l l F F K D w     0 0 5       6 5 6   i e ",
"p s 3 3 2 6 6 6 6     2 4 3   9 U F l l l F F P P / U k f 8 F l l F z 8 f k U / P P l l l F F K N w   a 2 0 d 5     6 6 6   7 e ",
"9 s 3 q q 2 6 6 f     3 q 4 6   U l l k l l F k Z l Z l x 8 F l k l F 8 x l Z l Z k l k l l F U D w     5 M 0 0   6 0 2 6   k u ",
"g   2 4 3 8 5 6 g 9 6 4 q 4 2 f ..l k k k l l F K R 8 z x z l k k l F z x x z R K l k k k l l U D ^     5 t 0 M 6 5 2 d 5   2 c ",
"g f 3 4 3 8 8 5 g   2 4 4 3 3 2 ..l k k k l l F U P 8 z 8 z l k k l F z 8 8 z P U l k k k l l U D _     6 0 2 0 2 6 6 d 2   7 u ",
"f 6 3 7 3 y 2 8 f 6 2 3 3 4 3 8 ..k R R R k l h L P h F 8 F l R R k l F 8 8 h Z L h R R R k l ..N r 6     2 2 2 0 t   6 2   7 e ",
"6 x 2 3 3 3 3 y 5 s f 3 4 4 4 6 L k R R R k k P ` Z Z Z Z Z Z Z Z Z Z Z Z Z Z Z ` Z R R R k k ..N w     s d 2 2 2 0 0 2 5   2 W ",
"8 2 3 3 3 3 3 8 8 6 8 3 4 i 7 5 L k R P R k k R ` ( ( ( ( ( u n ( n u ( ( ( ( ( ` P R P R k k ..D w a   0 t 2 2 4 2 2 d s   l e ",
"8 3 4 7 y y 3 5   f 2 4 q i 3 8 L R P P P R R P l R Z U ` ] ! V u V ! ] ` U Z Z R P P P P R R L N w a   7 3 5 d d d d d 6   i e ",
"3 4 4 3 3 3 8 s f 5 y 4 q i y 6 L R P P P R R P l l k l z l ! ! ` ! ! l z z R k R P P P P R R L c w a   2 6   2 M 0 d 0 3 6 7 u ",
"4 q 4 3 3 y 6   6 8 3 4 4 4 y 6 L P P Z P P R P k l R l F l V ( k ( V l F F R k R Z P Z P P R L c _       6 6 5 d d 5 d h 2 k c ",
"4 4 7 3 4 3 6     2 3 4 4 4 2 6 ` P Z Z Z P P P k k R k F k V L F L V k F F P R P Z Z Z Z P P L c w 9   9 s s 5 d d d M t 2 i W ",
"4 4 7 7 7 2     6 2 7 4 4 3 5 s ` P Z Z Z P P P k k R k l k ! n u n ! k l l P R P Z Z Z Z P P L c r     6 2 5 5 5 5 d M 0 5 ^ u ",
"3 4 4 4 3 6 s s 6 y 7 4 q 4 2 5 ` Z Z K Z Z P Z R k P k l k ( ! V V ( k l l P P P K Z K Z Z P ` c w     6 d 0 0 d 0 M d 0 d w e ",
"y 4 4 3 5 6 s 6 2 y 4 q q 4 3 3 ] Z K K K Z Z Z R R P R l R L ` ` ` L R l l P P Z K K K K Z Z ` e w a p   5 2 0 t t 0 t t 0 w e ",
"/ 3 4 3 2 6 8 2 5 2 3 4 4 4 4 3 ] Z K U K Z Z Z P R P R k R U L L L U R k k P P Z K K U K Z Z ` c ^ a a       2 M h B B b t N e ",
"f 2 4 4 3 3 3 3 2 2 3 4 4 h 4 3 ] K U U U K Z K P P P P k P Z U U K Z P k k Z Z Z K U U U K Z ] c w 5 6         3 G G r B W v ! ",
"  8 3 3 3 3 7 4 3 y 3 4 q q 7 3 ] ] ( u ( ] ] ] ` ` L ` L ` ] ( u ] ] ` L L ` ] ] ] ( u ( ] ] ] c r 2 6           d t t h G v u ",
"g 6 2 2 2 3 t 7 2 8 3 i q q 4 3 r u s 4 4 2 / 6 6 6 6   9 6 2 6 k u [ A ~             a a   s w c w 6       d 5   6 t 0   2 v C ",
"  6 8 8 2 3 3 2 5 5 3 i q q 3 7 r c 6 r 4 6   f 6 2 3 2       9 k u T T p 9 6   ~ ~   a a   6 i D w     9         5 b t     ' v ",
"  f 2 2 2 3 3 3 8 2 3 4 q 4 7 4 r c 3 r 3     6 s 8 3 8   6 5 9 l u A T p       ~ ~   a a   s 7 w w       a       6 0 2 6   w e ",
"  6 3 3 3 2 2 2 2 3 4 4 4 h 4 4 m u 2 q 3 s 6 f s 6 8 f   6 8 s k u p T p a           a a   5 J D w               M d     6 w e ",
"  6 3 3 3 3 x x 3 4 4 3 4 q q q N u 3 4 5 s s   9 9 f 8 f f 8   k u H A p a             a     J N w   9           2 5   s 6 w e ",
"f f 8 2 3 3 x x 3 3 4 3 3 4 q S m u 7 i 6       9 9   g g f 8 9 l u p T p a           s     s _ W w 6 6           0 t 6 s M W v ",
"f f 8 3 3 3 2 8 2 3 3 3 3 3 h E u u y 4 s 9 9     g   9 a f y 6 l c { T p   9     6 d 6   s 2 D e J   6         5 B B 2   d u v ",
"6 2 3 3 3 y y 2 3 3 3 3 3 3 4 r ! e s 2   9 9   9 9 s   a   2   z u X.A H   9     2 5 f j @.  i c i 6 6 6   6 6 2 | b 0 s 6 D u ",
"2 3 4 3 3 y y y 2 3 3 3 3 3 4 S ! u a   9   a p a 9 8 8 9 9   9 5 ( p [ a         6   j } a   k D _ d 6   6 2 d 2 6 0 t 0 M ' e ",
"4 q 4 3 3 3 3 2 3 3 3 3 3 3 4 S n e     [ H a p a 9 g g j j 9 9 k u { {   s   s 6   &.} }   j 2 w m 7 6 6 d t M 2 2 M 0 5 0 c W ",
"E S 4 y y 3 3 3 3 3 3 3 4 3 4 N u ( s 6   a H a a H p a g g   a z u { H   5 5 6   &.j } }   j 2 D C W t 6 2 2 6 6 4 B 0 s 6 w W ",
"q q q 3 2 y 3 3 2 2 3 3 3 3 4 r c c 6 q 6 9 6 6   p p   2 6 9 a z u { [ a s 6   &.&.} } }   j 2 w C c 3 5 5 6 s   d t M 2 6 w W ",
"4 N r 7 2 y 3 3 2 2 3 3 3 3 4 E ! c 6 q 2 s 2 0 2 6     f 6 g a k v p { a   s     j j }     j x Z u w 3 2 6 5 6 6 d M 0 2 d N W ",
"q E e i 3 3 0 y 0 0 3 3 3 3 3 r ! u 9 b 4 6 s 3 4 3 2 / 6 6   9 7 V p a a 9 s     j j }   } j x Z w y 7 2 6 s 6 5 d M 0 2 | c W ",
"q S L q 4 3 3 3 3 3 3 3 3 4 4 w m (   b q 2 6 2 3 3 2 5 y 0 2 6 w v T [ a       a j } } } } j x 2 i 0 b 0       6 M B t 6 5 N u ",
"4 r r m m m r r r r r r r m C n u ! J i w D D w r r w r c c ' N c e f f l 7 7 7 7 J %.7 %.7 | w w N 7 w N w i i J ^ _ D w w ! e ",
"O.O.O.+ c c n O.O.Q Q Q Q Q n D n V Y V V V V V n D c n V V V Y V n n c U N n u ) . . . O.V D v . . V V Y Y O.n D c V + + O.Q Y ",
". O.3 X.-.G . . . . . . v 6 X.: ) . . O.O.. ) M -.@ C . . . . . . . S [ 4 . . . . O.. . r +.-.c . . . . . ) 7 T   E . . . . . . ",
"m -.X % ) . ) ) O.. e %.o @ O O.O.) ) O.) M o & # ) . ) ) ) . ) w   T i . . ) ) ) . m   o M O.. O.O.O.O.#.$ -.- O.. ) ) ) . ) d ",
"-.M . . ) ) ) O.. W X.o % . . O.) ) . .   X.; W . . O.) ) . )   o X = . O.) ) . . 0 X.X O . ) ) ) O.. 6 o X * O.. ) ) ) . S j 9 ",
"r . . O.O.) . . 7 X.> $.O.. ) ) O.. B   -.# ) . O.) Y . . r   @ #.) . O.) O.. Y 6 A 5 e . O.) O.. C 9 X., $.O.O.) O.. . t A s C ",
". O.) O.O.. r X & * ) . ) ) O.. m   X.X e . . ) ) ) . v s X.d O.. ) ) O.. ) M -.$ G . . ) ) O.O.b { $ O O.O.) O.. . r -.X $.. . ",
") Y Y O.. y [   W . ) C Y Y . B X.-.# O.. ) C < ) . O X X = O.O.) ) ) . e -.o 1 ) . ) ) ) . . 5 A -.C . O.) ) . C z p 5 ) . ) ) ",
". . . . . . . . . . . . . . . . . . . . . . . . . . . . . . . . . . . . . . . . . . . . . . . . . . . . . . . . . . . . . . . . "
};
