/* XPM */
static char *SW2COMM[] = {
/* columns rows colors chars-per-pixel */
"64 72 38 1 ",
"  c gray39",
". c #777777",
"X c gray31",
"o c gray28",
"O c #434343",
"+ c #838383",
"@ c #8B8B8B",
"# c gray42",
"$ c gray50",
"% c #4B4B4B",
"& c #5B5B5B",
"* c #6F6F6F",
"= c gray34",
"- c #939393",
"; c gray23",
": c #979797",
"> c #9F9F9F",
", c #373737",
"< c #1F4317",
"1 c #17330F",
"2 c #0B1707",
"3 c #439337",
"4 c #37732B",
"5 c #2F6323",
"6 c #13230B",
"7 c #4B9F3F",
"8 c #53AF47",
"9 c #5F4B37",
"0 c #3F832F",
"q c #27531B",
"w c #836B57",
"e c #937B63",
"r c #9B7F6B",
"t c #AF977F",
"y c #533F2F",
"u c #8B0000",
"i c #2F2F2F",
"p c #730000",
/* pixels */
";O;;,;O;;O;o;,;;O;;O;o;;;O;o;o;O;;O;o;,;;O;;O;o;;;O;o;o;O;;O;;,,",
";O;;,;O;;O;O;,;;O;;O;O;;;O;o;O;O;;O;O;,;;O;;O;O;;;O;o;O;O;;O;;,,",
";oO;,Oo;OoOoO,;Oo;OoOoO;OoO%OoOo;OoOoO,;Oo;OoOoO;OoO%OoOoO;oO;,,",
"OoOO;OoOOoOoO;OOoOOoOoOOOoO%OoOoOOoOoO;OOoOOoOoOOOoO%OoOoOOoOO;;",
"O%oO;o%Oo%o%o;Oo%Oo%o%oOo%oXo%o%Oo%o%o;Oo%Oo%o%oOo%oXo%o%oO%oO;;",
"o%ooOo%oo%o%oOoo%oo%o%ooo%oXo%o%oo%o%oOoo%oo%o%ooo%oXo%o%oo%ooOO",
"oX%oO%Xo%X%X%Oo%Xo%X%X%o%X%=%X%Xo%X%X%Oo%Xo%X%X%o%X%=%X%X%oX%oOO",
"%X%%o%X%%X%X%o%%X%%X%X%%%X%=%X%X%%X%X%o%%X%%X%X%%%X%=%X%X%%X%%oo",
"%=X%oX=%X=X=Xo%X=%X=X=X%X=X&X=X=%X=X=Xo%X=%X=X=X%X=X&X=X=X%=X%oo",
"X=XX%X=XX=X=X%XX=XX=X=XXX=X&X=X=XX=X=X%XX=XX=X=XXX=X&X=X=XX=XX%%",
"X==X%==X=====%X==X=====X===&====X=====%X==X=====X===&=====X==X%%",
"=&==X=&==&=&=X==&==&=&===&= =&=&==&=&=X==&==&=&===&= =&=&==&==XX",
"=&&=X&&=&&&&&X=&&=&&&&&=&&& &&&&=&&&&&X=&&=&&&&&=&&& &&&&&=&&=XX",
"= &==& =& & &==& =& & &=& & & & =& & &==& =& & &=& & & & &= &===",
"& &&=& && & &=&& && & &&& &#& & && & &=&& && & &&& &#& & && &&==",
"&  &&  &     &&  &     &   #    &     &&  &     &   #     &  &&&",
" #  & #  # # &  #  # #   # # # #  # # &  #  # #   # # # #  #  &&",
" #  & #  # # &  #  # #   # * # #  # # &  #  # #   # * # #  #  &&",
" *#  #* #*#*#  .-@@@---::>:>:-@@--:>>:---@@@--.# #*#*#*#*# *#   ",
"#*## #*##*#*# #o#   ##*..$.+.#  #*.++.*##   ##o###*#.#*#*##*##  ",
"#**# **#***** #o*# #**..$+$+$*# *.$++$.**# #**%*#***.*****#**#  ",
"*.**#*.**.*.*#*o*###**.$$+$@$*##*.$@@$.**###**%***.*.*.*.**.**##",
"*.**#*.**.*.*#*%*### &&&&&&&&&& *.$@@$..*###*.%***.*$*.*.**.**##",
"*..**..*.....**%.***#pppppppppp#.$+@@+$..***..X.*...$.....*..***",
".$..*.$..$.$.*.%.***#puuuuuuuup#.$+--+$..***..X...$.+.$.$..$..**",
".$..*.$..$.$.*.X..*.#puuuuuuuup#.$@--oo$..*..$X...$.+.$.$..$..**",
".+$..$+.$+$+$..X$...#puuuuuuuup#$+@::OX$$...$$=$.$+$+$+$+$.+$...",
"$+$$.$+$$+$+$.$X$...#puuuuuuuup#$+@::OX$$...$$=$$$+$@$+$+$$+$$..",
"$+$$.$+$$+$+$.$=$$.$#puuuuuuuup#$@-::OX$$$.$$+&$$$+$@$+$+$$+$$..",
"+@++$+@++@+@+$+=+$$$#puuuuuuuup#+@->>OX++$$$++&+++@+@+@+@++@++$$",
"+@++$+@++@+@+$+=+$$$#puuuuuuuup#+@->>OX++$$$++&+++@+-+@+@++@++$$",
"+@@+$@@+@@@@@$+=$$.$$----------.$@-::OX+$$.$$+&@+@@@-@@@@@+@@+$$",
"@-@@+@-@@-@-@+@X$...$$+@@-@:@$..$+@::OX$$...$$=@@@-@:@-@-@@-@@++",
"@-@@+@-@@-@-@+@X$...$$+@@-@:@$..$+@::OX$$...$$=@@@-@:@-@-@@-@@++",
"@--@@--@-----@@X..*..$$+@@@-@$.*.$@--OX$..*..$X-@---:-----@--@@@",
"-:--@-:--:-:-@-%.***..$++@+-+.**.$+--OX..***..X---:->-:-:--:--@@",
"-:--@-:--:-:-@-%.*** &&&&&&&&&& .$+@@OX..***..X---:->-:-:--:--@@",
"@--@@--@-----@@%*####4037887304#*.$@@OX.*###*.%-@---:-----@--@@@",
"@-@@+@-@@-@-@+@o*####5403773045#*.$@rttr*###**%@@@-@:@-@-@@-@@++",
"@-@@+@-@@-@-@+@o*# ##q54033045q *.$+weew*# #**%@@@-@:@-@-@@-@@++",
"+@@+$@@+@@@@@$+o#   #<q540045q< #*.+9yy9#   ##o@+@@@-@@@@@+@@+$$",
"+@++$+@++@+@+$+o#   #1<q5445q<1 #*.+*OO*#   ##o+++@+-+@+@++@++$$",
"+@++$+@++@+@+$+o  &  61<q55q<16& *.$$OX#  &  #o+++@+@+@+@++@++$$",
"$+$$.$+$$+$+$.$O &&& 261<qq<162& #*$$+@  &&&  o$$$+$@$+$+$$+$$..",
"$+$$.$+$$+$+$.$O &&& 2261<<1222& #*..*#  &&&  o$$$+$@$+$+$$+$$..",
".+$..$+.$+$+$..O&&=&#..........#& *..*  &&=&& O$.$+$+$+$+$.+$...",
".$..*.$..$.$.*.;&===&& ##*#.#&==& #..# &&===&&O...$.+.$.$..$..**",
".$..*.$..$.$.*.;&=X=&&  #*#*#&=X& #**# &&=X=&&O...$.+.$.$..$..**",
"*..**..*.....**;=XXX=&&  # * &XX=& ** &&=XXX=&;.*...$.....*..***",
"*.**#*.**.*.*#*;;,i,;;;OOoOoO;,i;;OooO;;;,i,;;;***.*$*.*.**.**##",
"*.**#*.**.*.*#**.**.*.***.*.*.*.**.*.*#**.**.*.***.*.*.*.**.**##",
"#**# **#***** #**#*****#***.****#***** #**#*****#***.*****#**#  ",
"#*## #*##*#*# ##*##*#*###*#.#*#*##*#*# ##*##*#*###*#.#*#*##*##  ",
" *#  #* #*#*#  #* #*#*# #*#*#*#* #*#*#  #* #*#*# #*#*#*#*# *#   ",
" #  & #  # # &  #  # #   # * # #  # # &  #  # #   # * # #  #  &&",
" #  & #  # # &  #  # #   # # # #  # # &  #  # #   # # # #  #  &&",
"&  &&  &     &&  &     &   #    &     &&  &     &   #     &  &&&",
"& &&=& && & &=&& && & &&& &#& & && & &=&& && & &&& &#& & && &&==",
"= &==& =& & &==& =& & &=& & & & =& & &==& =& & &=& & & & &= &===",
"=&&=X&&=&&&&&X=&&=&&&&&=&&& &&&&=&&&&&X=&&=&&&&&=&&& &&&&&=&&=XX",
"=&==X=&==&=&=X==&==&=&===&= =&=&==&=&=X==&==&=&===&= =&=&==&==XX",
"X==X%==X=====%X==X=====X===&====X=====%X==X=====X===&=====X==X%%",
"X=XX%X=XX=X=X%XX=XX=X=XXX=X&X=X=XX=X=X%XX=XX=X=XXX=X&X=X=XX=XX%%",
"%=X%oX=%X=X=Xo%X=%X=X=X%X=X&X=X=%X=X=Xo%X=%X=X=X%X=X&X=X=X%=X%oo",
"%X%%o%X%%X%X%o%%X%%X%X%%%X%=%X%X%%X%X%o%%X%%X%X%%%X%=%X%X%%X%%oo",
"oX%oO%Xo%X%X%Oo%Xo%X%X%o%X%=%X%Xo%X%X%Oo%Xo%X%X%o%X%=%X%X%oX%oOO",
"o%ooOo%oo%o%oOoo%oo%o%ooo%oXo%o%oo%o%oOoo%oo%o%ooo%oXo%o%oo%ooOO",
"O%oO;o%Oo%o%o;Oo%Oo%o%oOo%oXo%o%Oo%o%o;Oo%Oo%o%oOo%oXo%o%oO%oO;;",
"OoOO;OoOOoOoO;OOoOOoOoOOOoO%OoOoOOoOoO;OOoOOoOoOOOoO%OoOoOOoOO;;",
";oO;,Oo;OoOoO,;Oo;OoOoO;OoO%OoOo;OoOoO,;Oo;OoOoO;OoO%OoOoO;oO;,,",
";O;;,;O;;O;O;,;;O;;O;O;;;O;o;O;O;;O;O;,;;O;;O;O;;;O;o;O;O;;O;;,,",
";O;;,;O;;O;O;,;;O;;O;O;;;O;o;O;O;;O;O;,;;O;;O;O;;;O;o;O;O;;O;;,,"
};
