/* XPM */
static char *SW2DIRT[] = {
/* columns rows colors chars-per-pixel */
"64 128 57 1 ",
"  c #272727",
". c #332B13",
"X c #2F2F2F",
"o c #2B230F",
"O c #43331B",
"+ c #3F2F17",
"@ c #13230B",
"# c gray23",
"$ c #373F27",
"% c #434343",
"& c #5B5B5B",
"* c gray39",
"= c #232323",
"- c #4B371B",
"; c gray42",
": c #777777",
"> c #838383",
", c gray31",
"< c #373737",
"1 c gray28",
"2 c #53573B",
"3 c gray34",
"4 c gray50",
"5 c #8B8B8B",
"6 c #3F472B",
"7 c #939393",
"8 c #6F6F6F",
"9 c #4F3B23",
"0 c #574333",
"q c #979797",
"w c #5B6347",
"e c #533F2F",
"r c #474F33",
"t c #1F4317",
"y c #9F9F9F",
"u c #0B1707",
"i c #676B4F",
"p c #533F1F",
"a c #5F4B37",
"s c #17330F",
"d c #67533F",
"f c #4B4B4B",
"g c #2F6323",
"h c #3F832F",
"j c #27531B",
"k c #439337",
"l c #37732B",
"z c #4B9F3F",
"x c #937B63",
"c c #53AF47",
"v c #9B7F6B",
"b c #AF977F",
"n c #836B57",
"m c #730000",
"M c #8B0000",
"N c #5B472B",
"B c #6F7357",
/* pixels */
". .+ OOp+.  o. .OO-9NO-90p-9-.O+ O + +.+O.OO.X++ O+ +..O.+OO.XX+",
". .O.+Op+.  o  .XO-9N+O-0p-9-+O+.+  .  O+O+OO .+. +  ..+O++OO .O",
". .+.++p-.  .. .OO-09.O-0O-9-+O+ + .O. OX +OO.++   O ...++OOO..O",
".. +.-+p-. o .o OO-99+O-NO-9-O++X.. .oXOX ++.+++X   o...++O+.+.O",
"++.+OO+p-.  o...OO-p9++-NO-9-+.+..  .. +XO++ + + .  +...OO+. + X",
".XO. OOp+.  ..  OO-p-O+-09+9O+++++...O.+ .++ ++-++. O+..+++. ++O",
".  . -Op+.  o. X0O-p-OO-09+OO+++.XO...X+o O+X++-.X..++.o++O.X+OO",
"  ...-OO+o.o X oOXO9-+.-0O.O-+O+.   . O+. OO.++-.  . O..+.O+.+OO",
".o ..-OO. Xo.X .O+O-O++O0O+9-.O+ O +.+.+. O+.++-  ..XO..+.O+.+OO",
" o .o-OO.= o.. o +O-OO++eOO9-+9+.+  .  O  O+.++..o.X +. +.O+.+X.",
".o...O++.   .  ..+OOOO++e+O9O+O. + ... O. +..+.. o Xo ..+.+ .+..",
"X.o..O++.=  o. oO+O+-O.+-+O9++OXX.. .oXO .+ . . .o..  . ++. . .+",
"....X.++..  o.  O..+O+++-++9+. O..  .o +o O+ . OX.. . .o +O  . O",
"......++.   o.  O+++OO +O+O9+.+.++...o.+ o X. .O...XX . o+. . .O",
"..o. .++ .  o.  O+++OX.OO.O9O+.O.XO..oX+.o...o.O.  X.  .o+. .o.O",
" ... .++..  o.  O++++O.+O+.9O+  .   .oO+ .o. ..X.       .+o  ..+",
".. ...++ .  o. .O+O++++O-++9-.++ O +.o.+oo.o X o o o  .oo+.  X .",
".. . .++ .  o. . +O++O++-+O9-+++.+ ..o Oo Xo.X ..oXo.  o  X .X..",
" . . .++..   .  .+OO+O++++O9O++. + .Oo O== o.. o.X.    ===  .. .",
"..... .+o. o .o O+O++O.+-+OO+++XX.. .oXO    .  . X     =    .  .",
". ...Xo+o.  o.  :7555777qqyqyq75577qyyq77755577:..     o =  o   ",
"  o....+o.      1;***;;8::4:>:;**;8:>>:8;;***;;1.  o Xo  .  o   ",
". X.. .+..  o  o18;*;88::4>4>48;*8:4>>4:88;*;88f     ..     o   ",
".   .o++o..     18;;;88:44>4548;;8:4554:88;;;88f.  o  o  .  o   ",
" . X. O.o.X    of8;;;*&&&&&&&&&&*8:4554::8;;;8:f.               ",
"    ..+.=.   oo f:888;mmmmmmmmmm;:4>55>4::888::, .  o o      @o ",
"   .. .. . o o@of:888;mMMMMMMMMm;:4>77>4::888::,   o         o. ",
"    . .. .   oo@,::8:;mMMMMMMMMm;:4577114::8::4,      o   o     ",
".  o. ..X.o.o o.,4:::;mMMMMMMMMm;4>5qq%,44:::443  o       o   o ",
" X.o  ..X .oooo@,4:::;mMMMMMMMMm;4>5qq%,44:::443.    o o  o o ..",
" . X ... .ooooo@344:4;mMMMMMMMMm;457qq%,444:44>& X.o   o o  ..  ",
" .. . .+...ooooo3>444;mMMMMMMMMm;>57yy%,>>444>>& . X . .    oo X",
".. ...+ ooo+ooo@3>444;mMMMMMMMMm;>57yy%,>>444>>& o.    . o   X .",
".. .. .+ .oo o.o344:447777777777:457qq%,>44:44>&.o X .    X .X..",
" . .. .+..oo    ,4:::44>5575q54::4>5qq%,44:::443.X .     =  .. .",
"..... .+o.o   o ,4:::44>5575q54::4>5qq%,44:::443 X     =    .  .",
". ...Xo+oo.oo . ,::8::44>555754:8:4577%,4::8::4,..     o =  o   ",
"  o....+o.ooo   f:888::4>>5>7>:88:4>77%,::888::,.  o Xo.X.  o   ",
". X.. .+.. oo   f:888*&&&&&&&&&&*:4>55%,::888::,     .. X   o   ",
".   .o++  ..oo  f8;;;;lhkzcczkhl;8:455%,:8;;;8:f.  o  o. .  o   ",
" . X. O.  o. o  18;;;;glhkzzkhlg;8:45vbbv8;;;88f+.  ..  .   .o++",
"    ..+.  oo oX 18;*;;jglhkkhlgj*8:4>nxxn8;*;88f+ + @..  . X. O.",
"   .. ... o.. X 1;***;tjglhhlgjt*;8:>aeea;***;;1+o  oo.     ..+.",
"    . ... o  . .1;***;stjgllgjts*;8:>8%%8;***;;1..  ...    .. ..",
".  o. ... o    .1**&**@stjggjts@&*8:44%,;**&**;1..o  o.     . ..",
" X.o  .. X..   .%*&&&*u@stjjts@u&*;844>5**&&&**1+   ...o.  o. ..",
" . X ...  ...   %*&&&*uu@sttsuuu&*;8::8;**&&&**1+.  . .  X.o  ..",
"+.  ..  oo o X o%&&3&;::::::::::;&*8::8**&&3&&*%.....o@  . X ...",
"+ + @.. o .o.X .#&333&&*;;8;:;&33&*;::;*&&333&&%-+.o X ooX.   . ",
"+o  oo. == o.. o#&3,3&&**;8;8;&3,&*;88;*&&3,3&&%O..o.X.ooX    . ",
"..  ...     .  .#3,,,3&&**;*8*&,,3&*88*&&3,,,3&#O. o..oooX      ",
"..o  o.  =  o. o##<X<###%%1%1%#<X##%11%###<X<###+.  . @ooX  . . ",
"+   ...oX.  o.  o   +  .+... o.  .o...... . .  .O. .o  ooO     X",
"+.  . . X   o.  o. X+o .+......o.....@. . .    .O.oo  oooO      ",
".....o@  .  o.     +.o..++... .  .....o= X .   .O..o    oX     O",
".X..... ..  o.  ..X ....-+...o@ X   ooo.  ...   +.oo   @o    .  ",
".X..X... .  o. ..o.   @.-+...oo..X..... ..  o.  +..o  o o    .  ",
"@......X .  o  .o.   o..-+.. o.o.X..X... .  o. .+.oo @ @oX   . .",
"o ..  ....  .< ..o  ....p+...o  @......X .  o  .+.o  o oo.   . X",
"o ..O  .o. o .o  oX .+..p+.. ...o ..  ....  .. .+.o..   o      .",
"o...Oo  o.  o...o X.+  .-++. ...o ..O  .o. o .o +.oo  o o .    .",
"  ...o. o.  ..  .  . .. -++.... o...Oo  o.  o...+.oo  ..o..  o  ",
"..X.... ..  o< X.  .  + -++.+o.   ...o. o.  ..  +. o      .  o. ",
" XO.... o..  . o.... .+ +++++.. ..X.... ..  o. X+..o   X. . ... ",
"XX   ...o.X .. .oo.o .+ +. ..+.  XO.... o..    o+..ooo  .     @.",
". OO   @=. o.. oo Xo.+. ++   ...XX   ...o.X ... ...oo   o  . o. ",
". X . .  .  .o .== o..+ +  +   @. OO   @=. o..o ...o .XX. . ... ",
".OX    X . .oX      .   +. +. . . X . .  . o +.....o .X   X .@. ",
".O.     X.ooX  @ =  o.. +.     X.OX    X . .o+.o.o..o  .o ..o  .",
"o . O  OX .ooX  X.  o.  +O      .O.     X.. o o@oo..o  ..  .....",
"@ .X .X  .o+oo  X   o.  o   O  Oo . O  OX .+ o. ooo.o ...... ..o",
".X..... ...o<@ o .  o.  @  X .X @ .X .X  . +.oo ooooo.......oooo",
".X..X... oooo@ @..  o.  .X .... .X..... ...oo@o ..  o.  .X..... ",
"@......X .o oo o .  o.  .X .X....X..X... oooo@o@ .  o. ..X..X...",
"o ..  ....o...   .  o  .@. ....X@......X .o oo.  .  o  .@......X",
"o ..O  .o.oo    ..  .. .o ..  ..o ..  ....o...  ..  .. .o ..  ..",
"o...Oo  ooooo  .o. o .o o ..O  .o ..O  .o.oo  o o. o .o o ..O  .",
"  ...o. o. ...  o.  o...o...Oo  o...Oo  ooooo ..o.  o...o...Oo  ",
"..X.... ....oo Xo.  ..    ...o.   ...o. o. ...  o.  .. =  ...o. ",
" XO....   oooo  ..  o. X..X.... ..X.... ....oo X..  o. =..X.... ",
"XX . ...  ooo   o..  . o XO....  XO....   oooo  o..  . = X+.... ",
". +.   @  o. .XXo.X ....XX . ...XX . ...  ooo   o.X ..  XXX.X...",
". X.. . . o  .X =. o..oo. O.   @. O.   @  o. .XX=. o.. X. +-X  @",
".OX.   X. . .  . .  .o@.. X.. . . X.. . . o  .X  .  .oX<. $$  . ",
".O .    . .    . . .oo=o.OX.   X.OX.   X. . .  . . .oo==.O$$X  X",
"o  .O  O X .   .X.oo=oo=.O .    .O .    . .    .X.oo#X==.OX$X   ",
"@ X. .X   ...   X .=o .uo  .O  Oo  .O  O X .   .X .XX  =o X$   O",
".XX.... oo.o X o .o+=oo@@ X. .X @ X. .X   ...    .X+oo=@@ X$X.X ",
".X .X...o  o.X ....o=@=o.XX.... .XX.... oo.o X o...oo@ =.XX$ .. ",
"@.X....X =Xo.. o oo==@=@.X .X....X .X...o Xo.X . oooo@ @.XX$X...",
"o X   .+  X .  . .o oo.o@.X....X@.X....X== o.. o .o oo==@.X$ ..X",
"o   O  . =X o. o..o...  o X   ..o X   ..    .  ...o..= =o X#X ..",
"o. XOo = .X o.  o.oo  o o   O  .o   O  . =  o. oo.oo   =o X#   .",
"   O.o.=  X o.  ooooo ..o. XOo  o. XOo  X.  o.  ooooo ..o.O# o  ",
"..X ...X .  o.  o. ...     O.o.    O.o. X   o.  o. ...    O0 o. ",
".o.   @. .  o.  ....oo X..X ... ..X ...  .  o.  ....oo X..O# .. ",
"o.   o.= .  o. .  oooo  .o.   @..       # X X     oooo  .o$#X @.",
".o  ...o O  o  .  ooo   o.   o.  .  o oX<X   @o   ooo   o.##Xo. ",
" oX .@.o.O  .. .  o. .XX.o  ...    oX  <X    o.   o. .XX.o##$.. ",
"o  .o   .$ o .o . o  .X  oX .@.       X X o     . o  .X   ##$@. ",
".  . ...O$O o.... . .  .o X.o     oX      o   o . . .  .oX#6O   ",
".  . o..$69 ..  . .    ..  . ..o.    o o  o o ... .    ..X#6X..o",
".o ooo..$r$ o. X X .   ..  . ooo X.o   o o  ..   X .   ..<#6Xooo",
" X.....X#r#....   ...   .o.ooooo . X . .    oo X  ...   .<6rOooo",
"XX   ..X#6<X....oo.o X o XO....  o.    . o   X .oo.o X o #62$.. ",
". XO   X6$<X...Xo Xo.X .XX   ....o X .    X .X..o Xo.X .X#$,$...",
". X .  X6%<X  ..== o.. o. OO   @.X .        .. .== o.. o.#0d$  @",
".OX   X<6%<XO  .    .  .. X . .  X     =    .  .    .  ..#%,$ . ",
".OX   X<6%#XOo   =  o. o.OX    X..     o    o    =  o. o.$#,$  X",
"o   + X$%%#$.o. X.  o.  .O.     .  o Xo.X.  o   X.  o.  .$6,$   ",
"@  X ..$6r#X... X   o.  o . O  O     .. X   o   X   o.  o<a,6  O",
".X.....$6r$ o.   .  o.  @ .X .X .  o  o. .  o    .  o.X @<a,6.X ",
".X..X..$62# o. ...  o.  .X..... .X... . ..  o.  ..  o.X .#a26.. ",
"@......#rw# o  . .  o. ..X..X....X..X ..    o. . .  o.X..%i26...",
"o ..  O62w#X.. . .  o  .@......X@.... .X    o  . .  o X.@ed26..X",
"o ..+ Or2w#  .o ..  .. .o ..  ..o ..  ...   .. ...  ..X.o%d2$ ..",
"o....o$2ww# o...o. o .o o ..O  .o ..O  .o  o .o o. o .O O%d2$  .",
"  ...o$2iw#X..  o.  o...o...Oo  o...O   o   o...o.  o.$.Oed2$o  ",
"..X...$1iw#Xo. Xo.  ..    ...o.   ... . o   ..  o.  ..X X%d26o. ",
" X ...$1i&#X    ..  o. X..X.... ..X.. . .   o. X..  o.XX$ew26.. ",
"XX . .#1;w%Xo o          XO....  XO.. . .             X X%w26.. ",
".  .  #,i&%<         @o XX . ...XX .  .. .  o o      @O #%;2$...",
". X.  #3;&1<  o      o. . O.   @. O.   @   o         o$ $%w2$  @",
".OX.  %3i*1<      o     . X.. . . X.. .       o   o   X $%32$ . ",
".OX.X 2&B&1< o o  o   o .OX.   X.OX.   X  o       o   O $032#  X",
"o  .X 2i;&1<   o  o o ...O .    .O .    .    o o  o o $.$0326   ",
"@  .X.2*;&1<X. . o  ..  o  .O  Oo  .O  O X.o   o o  ..X O%320  O",
".X .<X2*:&,<X  .    oo X@ X. .X @ X. .X  . X . .    ooXXO%326.X "
};
