/* XPM */
static char *SW2EXIT[] = {
/* columns rows colors chars-per-pixel */
"32 72 36 1 ",
"  c #777777",
". c gray39",
"X c #6F6F6F",
"o c #838383",
"O c #8B8B8B",
"+ c #5B5B5B",
"@ c gray42",
"# c gray50",
"$ c gray34",
"% c #939393",
"& c #730000",
"* c gray31",
"= c #8B0000",
"- c gray28",
"; c #7F0000",
": c gray23",
"> c #4B4B4B",
", c #5B0000",
"< c #670000",
"1 c #9F9F9F",
"2 c #979797",
"3 c #434343",
"4 c #CB0000",
"5 c #B30000",
"6 c #EF0000",
"7 c #BF0000",
"8 c #9B0000",
"9 c #E30000",
"0 c #A70000",
"q c #373737",
"w c #D70000",
"e c #FF1F1F",
"r c #4F0000",
"t c #FF3F3F",
"y c #2F2F2F",
"u c #FF5F5F",
/* pixels */
"$++$+$++$++++++++$$$++$+$+>$$+$+",
"OOOOOO%OO#OOO%OOOOOO%%Ooo%OOO%OO",
"XXX  X# X .XX#  X  #  X.X#XXX XX",
"X XXXX  XXXX  X  X #XXXXX#XXX  X",
" XXX    .X X XXX   #   XXoXXX# X",
" XX.   #.X .X X #  #   XXoXXX#  ",
"  X  X  .X X oX  X  XX  Xo  X#  ",
"  XXXX  XX .X# X#X      Xo  X#  ",
"  X XX  X$XXX#XXXX      Xo  X#  ",
"  XX X XX. X #XX   XXX  XoX  #XX",
"X XX # X . X #XX X XXX  XoX  #  ",
"X XXX#  X.oX # XXX  XX  Xo   #  ",
"  XXX# XXXoX # XXX X    .#  ##  ",
"  XX # XXX X # XXX XXX  .#   #XX",
" XXXX  X X XX## # #XXX X.oXXX#  ",
" XXXXX X..XXX# X   XXX X oXXX#X ",
" %OOO%%%221212%OO%%2112%%%OOO%% ",
"-@...@@X  # o @..@X oo X@@...@@-",
"-X@.@XX  #o#o#X@.X #oo# XX@.@XX>",
"-X@@@XX ##o#O#X@@X #OO# XX@@@XX>",
">X@@@<&;=80574w969w47508=;&@@X >",
"> XXX&;=80574w96e69w47508=;XX  *",
"> XXX;=80574w96ete69w47508=XX  *",
"*  X =80574w96etute69w47508X  #*",
"*#   ;=80574w96et669w47508=  ##$",
"*#   &;=80574w96e69w47508=;  ##$",
"$## #O22222222222222222222O ##o+",
"$o###ooO%%2%1%o##oO%11%Ooo###oo+",
"$o###ooO%%2%1%o##oO%11%Ooo###oo+",
"$## ##oOO%%%2%o# #O%22%Oo## ##o+",
"*#   ##oOO%O2O#  #oO22Oo##   ##$",
"*#   ##oOO%O2O#  #oO22Oo##   ##$",
"*  X  ##oOOO=========%O##  X  #*",
"> XXX  #ooOo=&<,,,<&=%o#  XXX  *",
"> XXX  #ooOo;,,,,,,,;Oo#  XXX  *",
">X@@@X  ##o#&<<<<<<<&O#  X@@@X >",
"-X@@@XX ##o#<&&&&&&&<O# XX@@@XX>",
"-X@.@XX  #o#,&;;;;;&,o# XX@.@XX>",
"-@...@@X  # ,&&;;;&&,o X@@...@@-",
"-@...@@X  # rrrrrrrrro X@@...@@-",
"-..+..@XX   X.$$$$$.X# X@..+..@-",
"3.+++..@XX X#X.++.@X##X@..+++..-",
"3.+++..@XX X X.++.@X  X@..+++..-",
"3++$++..@XXX X.+$+.X  X..++$++.3",
":+$$$++.@@X@ @+$$+.@  @.++$$$++3",
":+$*$++..@X@X@+$*+.@XX@.++$*$++3",
":$***$++..@.X.+**$+.XX.++$***$+:",
"::qyq:::33-3-3:qy::3--3:::qyq:::",
"oo####o# X###oo#ooo###oooO## o#o",
"  XXXX  X.X  #  X #   #  oXX.#X ",
"  XXXX  XXX $#X   #      o.XX#X ",
"X XXXX  XX.X.# # X    #  o.XX#  ",
"X  X X   X.XX#  XXX   #  o..X#  ",
"   X X#  X.XX X#XXX   #  oX.X#  ",
"XX   X   .XXXXXXXXX XX   oX. #  ",
"XX  o   XXX XXX  XXXXXX  oXX #X ",
" X  ###  .X XXX X  X    #oXX #  ",
"     ##  .X X. XX  .##  #oXX #  ",
"    o # o.X  . XX X.     oXX #  ",
"    # # o.. #. XX X.#   X#X  #X ",
" #    #  $$X#X   XX.# X  o # #X ",
" #  o #  $.X#.   X .  XX   #X#  ",
" #XX  #  ..X .   X . o  XX  X#  ",
"++$$+++++-$$+>.$$++>+++++++$++++",
"OOOO   XXX        XXXXX Xo%%o   ",
"%%%O%%%o o # O##         ###   X",
"### OOO  XX# ## X X...X X #X   X",
".#X  O XXXX       X...X X  X   X",
"@#X  O XXXX  #  X X...X X  XX  X",
".#X   XXXXX  # X  ....X .  X   X",
"@#X XO XXXX X# X X.X$.XX. X@X  X",
"X#X XO XXXX X#  XX.X$.X.. X@ X X"
};
