/* XPM */
static char *SW2STARG[] = {
/* columns rows colors chars-per-pixel */
"128 128 42 1 ",
"  c #676B4F",
". c gray39",
"X c #6F6F6F",
"o c #5B5B5B",
"O c #777777",
"+ c #5B6347",
"@ c gray31",
"# c gray50",
"$ c gray42",
"% c #53573B",
"& c #6F7357",
"* c gray34",
"= c gray28",
"- c #434343",
"; c #373F27",
": c #474F33",
"> c #7B7F63",
", c #3F472B",
"< c #939393",
"1 c #838383",
"2 c #8B8B8B",
"3 c gray23",
"4 c gray70",
"5 c #937B63",
"6 c #373737",
"7 c #9F9F9F",
"8 c #A78F77",
"9 c #9F876F",
"0 c #4B4B4B",
"q c #979797",
"w c #272727",
"e c #B79F87",
"r c #A7A7A7",
"t c #BFA78F",
"y c #1B1B1B",
"u c #AF977F",
"i c gray67",
"p c #2F2F2F",
"a c gray75",
"s c #2F371F",
"d c #5B472B",
"f c #232323",
/* pixels */
"=;,,,,,,,,,,,,,,,,,,,,,,,,,,,====--====================000=============000====================--====,,,,,,,,,,,,,,,,,,,,,,,,,,,;",
"@;,,,,,,,,,:,,:,,::,,,,:::,:,0=00--0@@@@@@0@0@@00@@@@0@*o*@@0@00@00@0@@*o*@0@@@@00@@0@0@@@@@@0--00=0,:,:::,,,,::,,:,,:,,,,,,,,,;",
"*;%++ +  +++++++++  ::,:%X& +****@@*oooooo*o*oo**oooo*o.$.oo*o*****o*oo.$.o*oooo**oo*o*oooooo*@@****+ &X%:,::  +++++++++  + ++%;",
".,%+ >>>>>&>&>>>>>XX+++++X>&& X..*o+ >##>>&<#<<>2<<<222<<<<<2#X...X#2<<<<<222<<<2><<#<&>>##> +o*..X &&>X+++++XX>>>>>&>&>>>>> +%,",
".,% &>>99959598998885&&&>8855#1X.*o &><<995r7rtti44ii444444i7<1X.X1<7i444444ii44ittr7r599<<>& o*.X1#5588>&&&58889989595999>>& %,",
".,%&&>98888888u88u8u>>>>>u89992X.oo&&>qq88r4tttttt4aa44a4a44472X.X27444a4a44aa4tttttt4r88qq>&&oo.X29998u>>>>>u8u88u88888889>&&%,",
".,%&>5>>55555>5>>>>>>>& >55X&$2.ooo&>##>#5#77<999<<7<<7777<<<71...17<<<7777<<7<<999<77#5#>##>&ooo.2$&X55> &>>>>>>>5>55555>>5>&%,",
"o,% >>&>>>>>>>>>>>>>&&++&>X.&.#oooo >>##>>#222>>>11<211<2<21##X.o.X##12<2<112<11>>>222#>>##>> oooo#.&.X>&++&&>>>>>>>>>>>>>&>> %,",
"o,%+  &&>>>>>&>&&&&&&&+ &XX. .Xo*o*+  ##>##12#>>###<2#1<2<2##X..o..X##2<2<1#2<###>>#21##>##  +*o*oX. .XX& +&&&&&&&>&>>>>>&&  +%,",
"o;:%+ +++ ++++++++++   ++ +%%@.**o@%+ +++ +..$$..$.XX..X.X......o......X.X..XX.$..$$..+ +++ +%@o**.@%%+ ++   ++++++++++ +++ +%:;",
"o;,::%:::%%::%:::%:%%+%:%+%=:-@=*o-::%:::%%@@*@@@*@.o@o.o*@@@@@*o*@@@@@*o.o@o.@*@@@*@@%%:::%::-o*=@-:=%+%:%+%%:%:::%::%%:::%::,;",
"o;,,,,,,,,,,,,,,,,,,,:,,,::,,,--*o-,,,,,,,,--=---=-@===@@=-----@o@-----=@@===@-=---=--,,,,,,,,-o*--,,,::,,,:,,,,,,,,,,,,,,,,,,,;",
".;:,,,,,,,,,,,,,,,,,,,,,,,,;;;-@.o@,,,,,,,,-------------------@@.@@-------------------,,,,,,,,@o.@-;;;,,,,,,,,,,,,,,,,,,,,,,,,:;",
".;%%:::::::::::::::::%:::%:@@@@o.oo%:::::::@@@@@@@@*@@@*@@@@@@@o.o@@@@@@@*@@@*@@@@@@@@:::::::%oo.o@@@@:%:::%:::::::::::::::::%%;",
".;+%++%%++%+++++++++++++++++++oo.o.%++%%++%........$...$.................$...$........%++%%++%.o.oo+++++++++++++++++++%++%%++%+;",
".;++ &>>>>>>>&>>>>>>>5>>>>>112Xooo.+ &>>>>>22#22<<<7q<q7q<<<<#X...X#<<<<q7q<q7<<<22#22>>>>>& +.oooX211>>>>>5>>>>>>>&>>>>>>>& ++;",
".;+ &>>58888888888888uu88ttt44#Xoo. &>>58eett444444aa44a44447<#X.X#<74444a44aa444444ttee85>>& .ooX#44ttt88uu88888888888885>>& +;",
".;+&&>98u8uuu88888uuuuuuuee4e42Xoo.&&>98u8uttttt44aaa4aaa44447<X.X<74444aaa4aaa44tttttu8u89>&&.ooX24e4eeuuuuuuu88888uuu8u89>&&+;",
"o;%&>9>>5>555>>>>>>>>55>>>77><<Xo*o&>9>>5>577<<<<<<77<<777<<<r<XoX<r<<<777<<77<<<<<<775>5>>9>&o*oX<<>77>>>55>>>>>>>>555>5>>9>&%;",
"o;% >>&&>&>>>&&&&&&&&>>>>><>>#1X.@o >>&X>&><2#>####2<212<2###<<XoX<<###2<212<2####>#2<>&>X&>> o@.X1#>><>>>>>&&&&&&&&>>>&>&&>> %;",
"o;% &&&&>&>>>&&&   &&>>O&>1>>##X.@o &&&X>&>21#>#OOO121#11#O####XoX####O#11#121OOO#>#12>&>X&&& o@.X##>>1>&O>>&&   &&&>>>&>&&&& %;",
"o;%+   &&&>>&&   & &&&>O&>1>>#X..@o+  $XX&>2##>OO#O#1##11#O##OX.o.XO##O#11##1#O#OO>##2>&XX$  +o@..X#>>1>&O>&&& &   &&>>&&&   +%;",
"o;%+    &&&>&   && &$&>>&>1>>#X..@o+  $XX&&1#O>&##O#11#11#O##OX.o.XO##O#11#11#O##&>O#1&&XX$  +o@..X#>>1>&>>&$& &&   &>&&&    +%;",
"o;%+    &&&>&   && &$&>>&>1>>#X..@o+  $XX&&1#O>&##O#11#11#O#OOX.o.XOO#O#11#11#O##&>O#1&&XX$  +o@..X#>>1>&>>&$& &&   &>&&&    +%;",
"o;%+    &&&&&   &  &$&>>&>1>>#X..@o+  X$X&&##O>&#OO#11#11#O#OOX.o.XOO#O#11#11#OO#&>O##&&X$X  +o@..X#>>1>&>>&$&  &   &&&&&    +%;",
"o;%+    &&&&&   &  &$&>O&>1>>#X..=*+  X$XX&##O>&#OO#11####O#XOX.o.XOX#O####11#OO#&>O##&XX$X  +*=..X#>>1>&O>&$&  &   &&&&&    +%;",
"o;%+    & &&&    & &$&>O&>#>>#X..=*+  $$XX&##O&&O#O#1###1#O#XOX.o.XOX#O#1###1#O#O&&O##&XX$$  +*=..X#>>#>&O>&$& &    &&& &    +%;",
"o;%+    &  &&   &  &$&OO&##>>#X.o-@+  $.XX ##O& #OO#1###1#O#XXX.o.XXX#O#1###1#OO# &O## XX.$  +@-o.X#>>##&OO&$&  &   &&  &    +%;",
"o;%+       &&   & $&$&OO&#>>>#X.*@o+  $.$X O#O& #&&O###O##OXXOX.o.XOXXO##O###O&&# &O#O X$.$  +o@*.X#>>>#&OO&$&$ &   &&       +%;",
"*;:+       &&      &$&OO&#>>>#X.@*o+  $.$X O#O& O&OO#O#O##OXXXX.*.XXXXO##O#O#OO&O &O#O X$.$  +o*@.X#>>>#&OO&$&      &&       +:;",
"*;:+      .&&   &  &$&OO&#>>>OX.@*o+  $.$X$O#O& #&OO#O#O##OXXXX.*.XXXXO##O#O#OO&# &O#O$X$.$  +o*@.XO>>>#&OO&$&  &   &&.      +:;",
"*;:+    . .&&  .   &$&OO&>>>>OX.@*o+  ..$X$O#O& O&>O#O#O##OXXXX.*.XXXXO##O#O#O>&O &O#O$X$..  +o*@.XO>>>>&OO&$&   .  &&. .    +:;",
"*;:+    .  &   .   &$&OO&>>>>OX.@@o+  ..$XO#OO& O&>O#O#O##OXXXX.*.XXXXO##O#O#O>&O &OO#OX$..  +o@@.XO>>>>&OO&$&   .   &  .    +:;",
"*;%+    .  &   .   &$&OO&>>>>OX.@=o+  ..$ O#OX  O>>O#OOOO#OXXXX.*.XXXXO#OOOO#O>>O  XO#O $..  +o=@.XO>>>>&OO&$&   .   &  .    +%;",
"@;%+    . .&  ..&  &$ O&&>>>>XX.@=o+  ..$ O#OX  #>>O#OOXO#OXXXX.@.XXXXO#OXOO#O>>#  XO#O $..  +o=@.XX>>>>&&O $&  &..  &. .    +%;",
"@;%+      .&  ..  $ $ O&&>#>>XX.@@*%+  .   O#&  &XX&#OO#&&XXXXX.@.XXXXX&&#OO#&XX&  &#O   .  +%*@@.XX>>#>&&O $ $  ..  &.      +%;",
"@;%+      .&  .   $ $ X&&>#>OXX.@@*:+    & X#&  &XX&OXO#&&XXXXX.@.XXXXX&&#OXO&XX&  &#X &    +:*@@.XXO>#>&&X $ $   .  &.      +%;",
"@;%+      .  ..   $ $ X&&>#>OXX.@@@:+    & X#&  &XX&XXO#&&XXXXX.@.XXXXX&&#OXX&XX&  &#X &    +:@@@.XXO>#>&&X $ $   ..  .      +%;",
"@;%+         .$.   &$ X &>#>OX.o@=@:+    & X#&  &XX&XXO#&&XXXXX.@.XXXXX&&#OXX&XX&  &#X &    +:@=@o.XO>#>& X $&   .$.         +%;",
"@;:+     .    $.  .&$ X &>#>OX.o@=@,%+     XXX  &XXXXX&&&&XXXX..@..XXXX&&&&XXXXX&  XXX     +%,@=@o.XO>#>& X $&.  .$    .     +:;",
"-;,:%%%%%@%%%%*@%%@%*@o%+   oo@@---,:%++++++..++.$.$$..+++...o@@-@@o...+++..$$.$.++..++++++%:,---@@oo   +%o@*%@%%@*%%%%@%%%%%:,;",
"-;;;::,,,:,,::::::::,,,,,,,,,@@--3-;,::::%:%o@%%@*@@o%%%%o===@@---@@===o%%%%o@@*@%%@o%:%::::,;-3--@@,,,,,,,,,::::::::,,:,,,::;;;",
"6;3;;;;;;;;;;;;;;;;;;;;;;;;;3--3633;;,,,,:,:@=::-@---===@=333--363--333=@===---@-::=@:,:,,,,;;3363--3;;;;;;;;;;;;;;;;;;;;;;;;;3;",
"6;3s;ssssssssssssss;sssssssss666633p3pppp66ppp6p666366ppppppp6666666ppppppp663666p6ppp66pppp3p336666sssssssss;ssssssssssssss;s3;",
"-;;;;;;;;;;;;;;;;,;;;;;,,;;;-333-----------------=-----==----333-333----==-----=-----------------333-;;;,,;;;;;,;;;;;;;;;;;;;;;;",
"-;:::::,,,,::,:::%:,:,,d%::::=---@@@@@@=@=@@===@@@@@@@@@@-@@@@@@-@@@@@@-@@@@@@@@@@===@@=@=@@@@@@---=::::%d,,:,:%:::,::,,,,:::::;",
"*+++++++%%+    & &&&&&+++.++....*&&              $$ .....*.....o*o.....*..... $$              &&*....++.+++&&&&& &    +%%+++++++",
".$$ & &&++&&&&        +++$++$$$..&&&&        &&$$XXXOOOXX$OOOXO...OXOOO$XXOOOXXX$$&&        &&&&..$$$++$+++        &&&&++&& & $$",
"$+     &++&      +++++   O  OXX$$$X  +         & $$.#OOOOXOXOOOX$XOOOXOXOOOO#.$$ &         +  X$$$XXO  O   +++++      &++&     +",
".++     ++   ++ ++++++ &&X++XXX$.o.++++++...   & ...XXXXX.XX$$X...X$$XX.XXXXX... &   ...++++++.o.$XXX++X&& ++++++ ++   ++     ++",
".+++    ++   ++ +++++++& X++.$$$.o.o+++.+.$.   & .. XX.$X.$$.$$...$$.$$.X$.XX .. &   .$.+.+++o.o.$$$.++X &+++++++ ++   ++    +++",
".+++    ++  +++ +++++++  X++..$$.o.o+.+.+.$.+    .. XX$$X.$...$...$...$.X$$XX ..    +.$.+.+.+o.o.$$..++X  +++++++ +++  ++    +++",
".+++    ++  ++ ++++++++  $++$..$.o$o+.+.+.$.+ .  .. XX$$$..$.........$..$$$XX ..  . +.$.+.+.+o$o.$..$++$  ++++++++ ++  ++    +++",
".+o+    ++  +  + ++++++ +$++..$..o+o...$+.$..+.  .++$X$.$$.$..$...$..$.$$.$X$++.  .+..$.+$...o+o..$..++$+ ++++++ +  +  ++    +o+",
"@%%%%:,:,,,:%:%%%+%%%%%+%o*%**o*@oooo.oo.ooo***oooooo.**o**o**o*@*o**o**o**.oooooo***ooo.oo.oooo@*o**%*o%+%%%%%+%%%:%:,,,:,:%%%%",
"@:::,,,,,,,::::::%:::::%%*@:@@@@@*@@@**@*@*@@@@@@@*@@*@@@@@@@@@@@@@@@@@@@@@*@@*@@@@@@@*@*@**@@@*@@@@@:@*%%:::::%::::::,,,,,,,:::",
"@;;;;;;;;;;,;;,;;,,,,,;,==-;-----,,,:==:,,=-==--======-=0@-==-=-@-=-==-@0=-======--==-=,,:==:,,,-----;-==,;,,,,,;;,;;,;;;;;;;;;;",
"@:%%%%%%%%%%%%%%0%0@==*@o+%0@@@@=:::%*o%::*@**@@******-=0@@@@@@@@@@@@@@@0=-******@@**@*::%o*%:::=@@@@0%+o@*==@0%0%%%%%%%%%%%%%%:",
"o:%%+++++%+%++++0%0@@=@@o+%o@*@@=%++ XO ++$.$$..$XX$X$.*o.**o*ooooo*o**.o*.$X$XX$..$$.$++ OX ++%=@@*@o%+o@@=@@0%0++++%+%+++++%%:",
".%+ >>>>>&>&>>>>>XXXXXXXX>&&.o*@=%+ >##>>&<#<<>2<<<2<222<<<<2#X...X#2<<<<222<2<<<2><<#<&>>##> +%=@*o.&&>XXXXXXXX>>>>>&>&>>>>> +%",
".%+&>>9995959899888911128855X$.*=% &><<995r7rtti444iii44444i7<1X.X1<7i44444iii444ittr7r599<<>& %=*.$X5588211198889989595999>>&+%",
".% >5>>55555>5>>>>>55>O555X&#X.*=%&&>qq88r4tttttt4aaaa44a444472X.X274444a44aaaa4tttttt4r88qq>&&%=*.X#&X555O>55>>>>>5>55555>>5> %",
".%&>>&>>>>>>>>>>>>>>>XX>>X.&$X.@=%&>##>#5#77<999<<<77<<777<<<71...17<<<777<<77<<<999<77#5#>##>&%=@.X$&.X>>XX>>>>>>>>>>>>>>>&>>&%",
"o% >>&>>>>>>>>>>>>>>>XX>>X.&oo*@@% >>##>>#222>>>1112<211<221##X.o.X##122<112<2111>>>222#>>##>> %@@*oo&.X>>XX>>>>>>>>>>>>>>>&>> %",
"o%+  &&>>>>>&>&&&&&>>X&>XX. o*@@@%+  ##>##12#>>####2<2#1<22##X..o..X##22<1#2<2####>>#21##>##  +%@@@*o .XX>&X>>&&&&&>&>>>>>&&  +%",
"o:%+ +++ ++++++++++   ++ +%%@@@@@:%+ +++ +..$$..$.$XXX..X.......o.......X..XXX$.$..$$..+ +++ +%:@@@@@%%+ ++   ++++++++++ +++ +%:",
"o,::%:::%%::%:::%:%%+%:%+%=:---=*,::%:::%%@@*@@@*@*o.o@o.o@@@@@*o*@@@@@o.o@o.o*@*@@@*@@%%:::%::,*=---:=%+%:%+%%:%:::%::%%:::%::,",
"o,,,,,,,,,,,,,,,,,,,:,,,::,,666-+,,,,,,,,,--=---=--=@===@@-----@o@-----@@===@=--=---=--,,,,,,,,,+-666,,::,,,:,,,,,,,,,,,,,,,,,,,",
".:,,,,,,,,,,,,,,,,,,,,,,,,;;;6--%:,,,,,,,,--------------------@@.@@--------------------,,,,,,,,:%--6;;;,,,,,,,,,,,,,,,,,,,,,,,,:",
".%%:::::::::::::::::%:::%:@@@@@o%%%:::::::@@@@@@@@@@*@@@*@@@@@@o.o@@@@@@*@@@*@@@@@@@@@@:::::::%%%o@@@@@:%:::%:::::::::::::::::%%",
".+%++%%++%++++++++++++++++++++++%+%++%%++%..........$...$...............$...$..........%++%%++%+%++++++++++++++++++++++%++%%++%+",
".++ &>>>>>>>&>>>>>>>5>>>>>11#X..%++ &>>>>>22#22<<<<q7q<q7q<<<#X...X#<<<q7q<q7q<<<<22#22>>>>>& ++%..X#11>>>>>5>>>>>>>&>>>>>>>& ++",
".+ &>>58888888888888uu88ttt4<#X.%+ &>>58eett44444444aa44a4447<#X.X#<7444a44aa44444444ttee85>>& +%.X#<4ttt88uu88888888888885>>& +",
".+&&>98u8uuu88888uuuuuuuee4e7<X.%+&&>98u8uttttt44aaaaa4aaa4447<X.X<7444aaa4aaaaa44tttttu8u89>&&+%.X<7e4eeuuuuuuu88888uuu8u89>&&+",
"o%&>9>>5>555>>>>>>>>55>>>77>r<Xo%%&>9>>5>577<<<<<<<<77<<77<<<r<XoX<r<<<77<<77<<<<<<<<775>5>>9>&%%oX<r>77>>>55>>>>>>>>555>5>>9>&%",
"o% >>&&>&>>>&&&&&&&&>>>>><>><<Xo:% >>&X>&><2#>######2<212<###<<XoX<<###<212<2######>#2<>&>X&>> %:oX<<>><>>>>>&&&&&&&&>>>&>&&>> %",
"o% &&&&>&>>>&&&   &&>>O&>1>>##Xo:% &&&X>&>21#>#OO<222<<<qq7q7q<22<<q77q<<<222<<OOO#>#12>&>X&&& %:oX##>>1>&O>>&&   &&&>>>&>&&&& %",
"o%+   &&&>>&&   & &&&>O&>1>>OX.o:%+  $XX&>2##>OO=$...$$.OOXO1O$..$XO11$X$....$$=#OO>##2>&XX$  +%:o.XO>>1>&O>&&& &   &&>>&&&   +%",
"o%+    &&&>&   && &$&>>&>1>>OX.o:%+  $XX&&1#O>O#=X$.$XX$O#X#1#X$.XO#11XOX.$.$XX0##O>O#1&&XX$  +%:o.XO>>1>&>>&$& &&   &>&&&    +%",
"o%+    &&&>&   && &$&>>&>1>>OX.+:%+  $XX&&1#O>O#=X$$$XX$##X#2#X===O#22XOX.$$$XX0##O>O#1&&XX$  +%:+.XO>>1>&>>&$& &&   &>&&&    +%",
"o%+    &&&&&   &  &$&>>&>1>>OX.+:%+  X$X&&##O>O#0X$$$XO$##X#2#w3=3w#22XOO.$$$XO0O#O>O##&&X$X  +%:+.XO>>1>&>>&$&  &   &&&&&    +%",
"o%+    &&&&&   &  &$&>O&>1>>OX.+:%+  X$XX&##O>O#0OXXXOOX11O121yp6py122X#O$XXXOO@O#O>O##&XX$X  +%:+.XO>>1>&O>&$&  &   &&&&&    +%",
"o%+    & &&&    & &$&>O&>#>>OX.+:%+  $$XX&##O>XO0OXXXOOX11O1<1yw6wy1<<X#O$XXXOO@#OX>O##&XX$$  +%:+.XO>>#>&O>&$& &    &&& &    +%",
"o%+    &  &&   &  &$&OO&##>>OX.+:%+  $.XX ##O>X#@OOXOO#X12O2<2ww3ww2<<O##$OXOO#@O#X>O## XX.$  +%:+.XO>>##&OO&$&  &   &&  &    +%",
"o%+       &&   & $&$&OO&#>>>OX.+%%+  $.$X O#O>X#@#OOO##X22O2q23ypyw2qqO1#XOOO##*&#X>O#O X$.$  +%%+.XO>>>#&OO&$&$ &   &&       +%",
"o:+       &&      &$&OO&#>>>XX.+%:+  $.$X O#OXXO@#OOO##Xoooo$X3fwf3X$ooooXOOO##*&OXXO#O X$.$  +:%+.XX>>>#&OO&$&      &&       +:",
".:+      .&&   &  &$&OO&#>>>XX..%:+  $.$X$O#OXX#*##O##1Oo=======--======oX#O##1o&#XXO#O$X$.$  +:%..XX>>>#&OO&$&  &   &&.      +:",
".:+    . .&&  .   &$&OO&>>>>OX..%:+  ..$X$O#OXXO*1###11 o= O$.o*@*o.$O =o ###11o&OXXO#O$X$..  +:%..XO>>>>&OO&$&   .  &&. .    +:",
"o:+    .  &   .   &$&OO&>>>>OX.+%:+  ..$XO#OOXXO*1###11Oo=#<21#OXO#127#=oO###11o&OXXOO#OX$..  +:%+.XO>>>>&OO&$&   .   &  .    +:",
"o%+    .  &   .   &$&OO&>>>>XX.+:%+  ..$ O#OXXXO*##O##12o=<<q<1#O#2<qq<=o##O##1o>OXXXO#O $..  +%:+.XX>>>>&OO&$&   .   &  .    +%",
"o%+    . .&  ..&  &$ O&&>>>>X&.+:%+  ..$ O#OXXX#@#OOO##Xo=X1q2#OO#12q1X=oXOOO##*>#XXXO#O $..  +%:+.&X>>>>&&O $&  &..  &. .    +%",
"o%+      .&  ..  $ $ O&&>#>>O&.+,%+  ..  O#OXXXO@#OOO##.o=@Xq2#OO#12qX@=o.OOO##*>OXXXO#O  ..  +%,+.&O>>#>&&O $ $  ..  &.      +%",
"*%+      .&  .   $ $ X&&>#>OX&.+,%+  ..  $#OXXXO@OOXOO#X6w=O<2#OXO#2<O=w6XOXOO#@>OXXXO#$  ..  +%,+.&XO>#>&&X $ $   .  &.      +%",
"*%+      .  ..   $ $ X&&>#>OX&.+:%+   .  .OO&XXO0OXXXOO#1121<1OXXO#1<<1#OOXXXOO@>OXX&OO.  .   +%:+.&XO>#>&&X $ $   ..  .      +%",
"*%+         .$.   &$ X &>#>OX&.+:%+   .   OO&XXO0OXXXOO#112121OXXO#1221#OOXXXOO@>OXX&OO   .   +%:+.&XO>#>& X $&   .$.         +%",
"*%+     .    $.  .&$ X &>#>OX&.+:%+   . . OO&XXX0X$$$XO ## #2#O$$XO#22 OO $$$XO0&XXX&OO . .   +%:+.&XO>#>& X $&.  .$    .     +%",
"*%+     .    $.  . $.X &>>>OX&.+%%+  .  . OO&XXX=X$$$XX.##$#2#X$$XO#22XOX.$$$XX0&XXX&OO .  .  +%%+.&XO>>>& X.$ .  .$    .     +%",
"*%+      .&  ..  . $.X &>>>OX&.+%%+  .   $#O&&XO=X$.$XX$O#X#1#X$.XO#11XOX.$.$XX0&OX&&O#$   .  +%%+.&XO>>>& X.$ .  ..  &.      +%",
"*%+      .   $   $ $.$ &O>>OX&.+:%+  .   XO&&&XO=$...$$.OOXO1O$..$XO11$X$....$$=&OX&&&OX   .  +%:+.&XO>>O& $.$ $   $   .      +%",
"*%+      .   .   $ $.$ &O>>O&&.*:%+  .   XO&&&XX=$...$$.OOXO1O$..$XO11$X$....$$=&XX&&&OX   .  +%:*.&&O>>O& $.$ $   .   .      +%",
"*%+          .   $.$.$  O>>O&&.*:%+  .   OO&&&XX=..o..$.XO$O#O$.o.XO##$X$o.o..$=&XX&&&OO   .  +%:*.&&O>>O  $.$.$   .          +%",
"@%+          .   $.$.$  X>>&X&.@:%+  .   OO&&&XX-.ooo...XX$X#X.oo.$X##.$.oooo..=XXX&&&OO   .  +%:@.&X&>>X  $.$.$   .          +%",
"@%+       &  .   $.$.$  X>&&XX.@,%+  .   O#& &XX-.ooo...XX$XOX.oo.$XOO.$.oooo..=XXX& &#O   .  +%,@.XX&&>X  $.$.$   .  &       +%",
"@%+       &  .   $. .$  X>&&X .@,%+  .   O#&  &X-oo*oo.o$X.XOX.o*o.XOO...*o*oo.-XX&  &#O   .  +%,@. X&&>X  $. .$   .  &       +%",
"@:+    &  &      $ ..$  X> &X .@,:+    & X#&  &X3o***ooo$$.$O$o**o.$OO..o****oo-XX&  &#X &    +:,@. X& >X  $.. $      &  &    +:",
"@:+    &  &      $ ..$  X> &X .@,:+    & X#&  &X3o*@*ooo.$.$X$o*@o.$XX..o**@*oo-XX&  &#X &    +:,@. X& >X  $.. $      &  &    +:",
"@:+    &  &      . ..$. X> & +.@,:+    & X#&  &X3*@@@*o*....X.o@@*o.XXooo*@@@*o3XX&  &#X &    +:,@.+ & >X .$.. .      &  &    +:",
"@,%+            .. ..$. X>   +%@,,%+     XXX  &X336p6333--=-=-36p33-==-3336p6333XX&  XXX     +%,,@%+   >X .$.. ..            +%,",
"-,:%+++++++++%++++++++++..  +%:-,,:%++++++..++.$.$$..+++..$...@@-@@...$..+++..$$.$.++..++++++%:,,-:%+  ..++++++++++%+++++++++%:,",
"-;,::::%:%%::%:%::%::%%%%%o%%%:-;;,::::%:%o@%%@*@@o%%%%o%@@@@@@---@@@@@@%o%%%%o@@*@%%@o%:%::::,;;-:%%%o%%%%%::%::%:%::%%:%::::,;",
"6;;,,,,:,::,,:,:,,,,,,:,,,,,,,36;;;,,,,:,:@=::-@---===@=-------363-------=@===---@-::=@:,:,,,,;;;63,,,,,,,:,,,,,,:,:,,::,:,,,,;;",
"3,;;;;;;;;;;;;;;;;;;;;;;ppp66663,,;;;;;;;;;;;;;66ppppppppp6pp6663666pp6ppppppppp66;;;;;;;;;;;;;,,36666ppp;;;;;;;;;;;;;;;;;;;;;;,",
"-;,,;;;;;;;;;;;;;;;;;;;;;;;;;;,,,;,,;;;;;;633663333666666636633---336636666666333366336;;;;;;,,;,,,;;;;;;;;;;;;;;;;;;;;;;;;;;,,;",
"-,,,,,,,,,,,,,,,,,,,,,,,,,,,,,,,:-----==--==---------===-----------------===---------==--==-----:,,,,,,,,,,,,,,,,,,,,,,,,,,,,,,,",
"@,::::::::::::,,,::::%%%:::::::::=@@@@@@@@@@@@===@@@@***@@@@-@@@@@@@-@@@@***@@@@===@@@@@@@@@@@@=:::::::::%%%::::,,,::::::::::::,",
".++++++++++++++++++++++++++++++++...............................................................++++++++++++++++++++++++++++++++",
"X                  $$            OOO&&&&&&&OOOXXXXXOXOOOOOXXXOOOXOOOXXXOOOOOXOXXXXXOOO&&&&&&&OOO            $$                  ",
"O      & >&&   $$$XXX$$&&      &&XXO>>>>>>>#OO>>>OOOO####OOOOOXOOOXOOOOO####OOOO>>>OO#>>>>>>>OXX&&      &&$$XXX$$$   &&> &      ",
"$      & &&     + .$$ &       +  XXXX$$&&  OXO &$XXOXO#OXXXXXXX$$$XXXXXXXO#OXOXX$& OXO  &&$$XXXX  +       & $$. +     && &      ",
"$+ ++          +++... &   ..+++++$X$$ &    OOO & $XOXO#OXX$X$...$...$X$XXO#OXOX$ & OOO    & $$X$+++++..   & ...+++          ++ +",
".+ ++    &    ++++ .. &   .$.+++o.X$. &   .OXO X .XOXO#OXX$X$.......$X$XXO#OXOX. X OXO.   & .$X.o+++.$.   & .. ++++    &    ++ +",
".+ +++   &    ++++ ..    +.$.+.+o.X$. &   .XOO+X .XOXOOXX.$$.........$$.XXOOXOX. X+OOX.   & .$X.o+.+.$.+    .. ++++    &   +++ +",
".++ ++   &    ++++ ..  . +.$.+.+o$$X.    +.XO&+X $XXXOOOX.$$..$...$..$$.XOOOXXX$ X+&OX.+    .X$$o+.+.$.+ .  .. ++++    &   ++ ++",
". +  +   &    +o++++.  .+..$$...oX$X.  . +.OX +X   .XOOX$..$$.$...$.$$..$XOOX.   X+ XO.+ .  .X$Xo...$$..+.  .++++o+    &   +  + ",
". + ++       ++oo+++.  .+.$$$...oX$X.  .+..O& +X   $XOXO$..$..$...$..$..$OXOX$   X+ &O..+.  .X$Xo...$$$.+.  .+++oo++       ++ + ",
"$++ ++       +ooo++o.  ...$$$$.+o.$X.  .+.$O&++.+. .XXOO$..$..$.$.$..$..$OOXX. .+.++&O$.+.  .X$.o+.$$$$...  .o++ooo+       ++ ++",
"o++ +        ++o++o.. . +.$$.$..+.$X.  ...$  ++.+   XOOO$.ooo...o...ooo.$OOOX   +.++  $...  .X$.+..$.$$.+ . ..o++o++        + ++",
"@%:::,,,:::%%%%%%%%%+++++%%%%%::,%%%*ooo****@@@@@@****oo*@@@@***@***@@@@*oo****@@@@@@****ooo*%%%,::%%%%%+++++%%%%%%%%%:::,,,:::%"
};
