/* XPM */
static char *SW2STONE[] = {
/* columns rows colors chars-per-pixel */
"64 128 39 1 ",
"  c gray34",
". c gray42",
"X c gray39",
"o c gray31",
"O c #5B5B5B",
"+ c gray28",
"@ c #6F6F6F",
"# c #777777",
"$ c #434343",
"% c gray23",
"& c gray50",
"* c #373737",
"= c #838383",
"- c #8B8B8B",
"; c #939393",
": c #2F2F2F",
"> c #272727",
", c #979797",
"< c #4B4B4B",
"1 c #9F9F9F",
"2 c #0B1707",
"3 c #17330F",
"4 c #1F4317",
"5 c #439337",
"6 c #37732B",
"7 c #2F6323",
"8 c #27531B",
"9 c #3F832F",
"0 c #13230B",
"q c #4B9F3F",
"w c #53AF47",
"e c #836B57",
"r c #5F4B37",
"t c #533F2F",
"y c #937B63",
"u c #9B7F6B",
"i c #AF977F",
"p c #8B0000",
"a c #730000",
/* pixels */
" X.  %**o$+$ooo o  X+$OXX*+.  o @ XXX..XX@##+o$o+    XX@@O X+o$o",
" o.  +:%$++++Xoo oo ++o+X+$  o o o o..@X XX. $ooo   XXXXXX  +$oo",
"  .X +:%++++++ ooOXX++XoX +  o oo+  X.@X XX  $X$ o  XX  O + %$X$",
"  .X %:%++++o++oooXO+ooo.#X  o +++XXX @o@ .  ++*    XX X O+X+++*",
"o .X.%*%++++ +o*OoXX$ ++XXo       O@ X.XX..  + + o o XXXX + ++ +",
" .. X$%$++oo%oX+o+oo++X*+XX      X OXX.$@.X  +++oo    .XXX+o++++",
"  .  +:%+++ %+O+%>*+++#@XXX     oO  .X.o. o  oo++oo    XXX+oooo+",
"    o$>+++o $+X$+ o:$+@ X#X  o. o  X@... .+  +X++oo o  X XX  +X+",
"ooo o$>+++oX+oO+XoX>>%#O XX  o  o  X..@X XX  + o% o  X XXXoo++ o",
"X.  o$:+oO$o+*Xooo.X+o#X XX     o  #X@@O@X   Oooooo    XO@+OoOoo",
"o$ .$+%++o+o$%+o...XoXXXXXX     o  X@XX XXX  o+++o     X XXX $++",
"Xooo$%%$ *+++ *X@O+X+oXXX oX  o + +@@XXO X X  o+   o   XXX oO+o+",
".o $$$%+++++% o$ .oo++XXO%oX  o  o+O.X.X  XX  o+ooo   XX#X +ooo+",
"XX  $:%%+++$+o+ooOoO++X Xo X  ooXo+...&O  XX  +$o+o   XO.X+$oo+$",
"X    %%%+++++OO +OX+++Xo+X    + XO+#XX#O XX  o$o++o  X .@Xoo+o$o",
"X  o$%$$+ +%  OO+oX+$XXX%+O   + XX+X.X O..+  +*++++  X ..oO$++*+",
"   $o%$++* o+ oX+o. *.XO@+X   + oXo...X#XXX  +%o+ooo XXOXXOoo+%o",
"Xooo *$+$+$ +   oo@+*o&# XX   + OX XX.O. XX  o%+++o  XXXXXXooo%+",
" Xo$o*%++$% ooXoo+#$%o#.XOXX   +oO+X..X#X XX ++%% + o  .OXX +++%",
" X.  $%o++  oOOoXo +$X# X+X.  o XO X..O. . X +$++oo   oXoX.  $$+",
"o  o $*O+++X+XXXoX@++.$ XXX  o  ooo .#X@  .  $++o +  o XXXX+++++",
"$X oo*%++*  +OOXXO+#.+.#@O#.   +oXOXX.X#XXXX ++*% o    O XoO+++*",
"$X oo$%$X++oooXOOO+#@@#=XO#     o OOX#..XX   +++%      X X+ $+++",
" . o o>$o +O+oOoooO..#=##$.     ooOXX@.@XXX   ++%o+  .oX@ +oo ++",
" X o +$++* o+ oX+XoOX##X.O.   o oXo...X#XX   +$o%ooo XXOXXOoo+$o",
".. o $$+$+$ +   o XX.@X#@.@ X + OX XX.O. X   o%+%+o oXXXXXXooo%+",
".. o *%++$% ooXoo.O...###@@    +oO+X..OX .   ++%% o o  .OXX +++%",
" X.  $%o++  oOOooOO# ##.@#.. o+ XO X..X@   X $%++o    oXoX.  $%+",
"$   X$*O+++X+XXX+ o  X.@#.@   o ooo .#XX     +$+oo   o XXXX+++$+",
"o    *%++*  +OOXoXo %#@ .XX  + ooXOXX.X.X .  %+$+ o  o O XoO+%+$",
"oX  $$%$X++oooXO   %@.#X##X     o OOX#.@X    ++++      X X+ $+++",
"o.  X+>$o +O+oOoXo@+..X...o   o ooOXX@.# .    ++%   o. X@ +oo ++",
".oXX +%$oXo+oooo+ X..X&&XXO     OOOX..@@XXX  oo++ooo   oX ooooo+",
"Xo.  $$$oX  $+oo%+O.@X&@XX    o oO..X.#@XoX  o$+++o   oOo+O oo$+",
"o$.oX>$$+ o++++o$   =.@@.o+    oOXO.XX@#     +o$o+       O   +o$",
" o.X *$$+ooo Xoo OX&@@#@..+      OOO#@.#XXX  o+++++X o  OO  Xo++",
"XoX o$$:+Oo+oooXoo X&@O ..o    +   X#XX.X#   o+%+oo%   oOO  +o+%",
"X  . $+>$ o++++oooO@&&X.#Xoo    oo @.XX#X# o  ++o+o+  o X   +o++",
". XX $+ +oXo+$+ +Xo#&&  X Xo  ooo  XXX@#.XXo  o$oo + . +XX+ooXo$",
".$.. $+@+ XooooXoX X#XXXoX    o XXO.X@..  X o oo++  o XoXO++oooo",
"X X  %+oooOO XoXXX.#X O >oX o o OO XX#.oX  Xo $o+oo   XO@O +oO$o",
"X$.Xo%+oo+XO Oo.OO+#@@#=XXo   o O  XX#X..XoX  $++o  o XOX   o $+",
"X .Xo+%ooo OO OOooO..#=##$O.   XO XX...@.X .   O+ooo   OX o+o  O",
"$ . o+$++oX+OoOo+XoOX##X.O.     Xo .##..X   o +o++oo   OXOOoo +o",
"oooX$*+oo+OOoX Xo XX.@X#@.@      oo#@.X.    ooooo+oo   OOXO$oooo",
"Xo.o $+oXooooOXoo.O...###@@   o +  @#. XX    O$+++o    XXOO$OO$+",
"o .X +++%Xo ++++oOO####.@#. X  +ooo.#@X       +%+o oo  .OXO$  +%",
"  .  oXX*ooo+++ + o# X.@#.@  Xo o+OX.@XX     O$+++ooo  O.XO$OO$+",
" X o o XX +o ++XoXo  #@ .XX  .o oo .#@.oX  ooX$+o+o o  +XOX+OX$+",
" X .  o*+#*oO+oo   %@.#X##X  X ooo .@#.X  X  Oo$+oo o .oXOOOXOo$",
"XXX oo +X#+XoX+oXo@+..X...o  X  +oo#.#@@     Oo++o    XOO.XoXOo+",
"oX.o$+oooo XO+ X+ X+.X&&XXO .   o  @X.@X    X o+      XX..X+X o+",
"o.  $o$ o++XoX$+%+O #X&@XX   . o%oo.X## X X  X $ +   X.X#.XXoX $",
"oo.$$++ooooOoX$$$  ...@@.o+ X.  o+OX@#&=X X XX o o o X XXOXXXX o",
"X X$$o+Xo+ooooX  OX .@#@..+  . o+o ...X#X    XO$ o o   +XXXoOXO$",
"o  X$%+$o$ooOXoXoo X=@O ..o    o$XoX.o..X    Oo$ o     OOOX+OOo$",
"o .&:::$+++OX@  ooO@&@X.#Xo  oo *+oXXOX X  X o$o o   XX O@O+Oo$o",
"    $*o$+oooOO O+Xo#&&  X X     %O+XXXX..X    o+        XXXOo o+",
"  oo$+$oXoo+O X+oX X#XXXooX    o+o+oXXXO.   Xo $+oo     XXX+Xo $",
"oo oo+$$Ooo O o+XX.#X O >X     ++++o..XX     o+*%oo    XOXXoOo+*",
"    $+++OOOO+o o@XOXOX++>oX  Xo+%++X.XOO XoX Xo*o   o    XOoOXo*",
"    o$+o+oo+oooo+  oo#o+OXX  X o*$OX..OOX    Oo$+++ oX oOOO+OOo$",
"X X o$+++o+oooooooooo .## @     *+ O..XXX    ooo+o+ o  XO+ O ooo",
"X XXo+$$+++o++oOooXoX oOX&  oX  +++X@.XXX X oOoo+++ oooOXX@OOOoo",
"----###@@@########@@@@@#@=;;=###--;-=#=#=;;;=;;;=@@.##=###@@@@@#",
";;;-;;;=#=#&#-&&#########&&&###@#@@.@@#@#---#&&&&&@.X@;#####-;-#",
"&&&#---##@@&#&&#@#@XXX@#@#&@###@#@.X.@####-##@&X&@.X@@-#@#@@.@@#",
"X&@##-#@@@@#######@XXX@#@##@###@#@XXX.#@##-##@&.&@XX@@####@@..@#",
".&@##-#@@@@##&##@#@XXX@#@##@@##@#@XXXX##@#-##@&X&@XX@@##@#.@..@#",
"X&@###@@@@@##&#@##XXXX@#X##@###@@@.X.X@#@#-@#@&.&..X@ #@##.@..@#",
".&@#@-#@@@@#@&#@#@X@ X@@X#@.@##@X..X.X@@##-@#@&@&&@X@@#@#@.@..@@",
"@&@#@-#@@@@#@&##@@X@ X@XX#@.#@#@...XXX.@##-@#@&.@&@X@ ##@@.@..@.",
" X.  %**o$+$ooo #;---;;;,,1,1,;--;;,11,;;;---;;#+    XX@@O X+o$o",
" o.  +:%$++++Xoo+.XXX..@##&#=#.XX.@#==#@..XXX..+o   XXXXXX  +$oo",
"  .X +:%++++++ o+@.X.@@##&=&=&@.X@#&==&#@@.X.@@< o  XX  O + %$X$",
"  .X %:%++++o++o+@...@@#&&=&-&@..@#&--&#@@...@@<    XX X O+X+++*",
"o .X.%*%++++ +o*<@...XOOOOOOOOOOX@#&--&##@...@#< o o XXXX + ++ +",
" .. X$%$++oo%oX+<#@@@.aaaaaaaaaa.#&=--=&##@@@##ooo    .XXX+o++++",
"  .  +:%+++ %+O+<#@@@.appppppppa.#&=;;=&##@@@##o+oo    XXX+oooo+",
"    o$>+++o $+X$o##@#.appppppppa.#&-;;++&##@##&o+oo o  X XX  +X+",
"ooo o$>+++oX+oO+o&###.appppppppa.&=-,,$o&&###&& % o  X XXXoo++ o",
"X.  o$:+oO$o+*Xoo&###.appppppppa.&=-,,$o&&###&& ooo    XO@+OoOoo",
"o$ .$+%++o+o$%+o &&#&.appppppppa.&-;,,$o&&&#&&=O+o     X XXX $++",
"Xooo$%%$ *+++ *X =&&&.appppppppa.=-;11$o==&&&==O   o   XXX oO+o+",
".o $$$%+++++% o$ =&&&.appppppppa.=-;11$o==&&&==Oooo   XX#X +ooo+",
"XX  $:%%+++$+o+o &&#&&;;;;;;;;;;#&-;,,$o=&&#&&=Oo+o   XO.X+$oo+$",
"X    %%%+++++OO o&###&&=--;-,-&##&=-,,$o&&###&& ++o  X .@Xoo+o$o",
"X  o$%$$+ +%  OOo&###&&=--;-,-&##&=-,,$o&&###&& +++  X ..oO$++*+",
"   $o%$++* o+ oXo##@##&&=---;-&#@#&-;;$o&##@##&o+ooo XXOXXOoo+%o",
"Xooo *$+$+$ +   <#@@@##&==-=;=#@@#&=;;$o##@@@##o++o  XXXXXXooo%+",
" Xo$o*%++$% ooXo<#@@@XOOOOOOOOOOX#&=--$o##@@@##o% + o  .OXX +++%",
" X.  $%o++  oOOo<@....695qwwq596.@#&--$o#@...@#<+oo   oXoX.  $$+",
"o  o $*O+++X+XXX+@....7695qq5967.@#&-uiiu@...@@<o +  o XXXX+++++",
"$X oo*%++*  +OOX+@.X..8769559678X@#&=eyye@.X.@@<% o    O XoO+++*",
"$X oo$%$X++oooXO+.XXX.4876996784X.@#=rttr.XXX..+%      X X+ $+++",
" . o o>$o +O+oOo+.XXX.3487667843X.@#=@$$@.XXX..+%o+  .oX@ +oo ++",
" X o +$++* o+ oX+XXOXX0348778430OX@#&&$o.XXOXX.+%ooo XXOXXOoo+$o",
".. o $$+$+$ +   $XOOOX2034884302OX.@&&=-XXOOOXX+%+o oXXXXXXooo%+",
".. o *%++$% ooXo$XOOOX2203443222OX.@##@.XXOOOXX+% o o  .OXX +++%",
" X.  $%o++  oOOo$OO O.##########.OX@##@XXOO OOX$+o    oXoX.  $%+",
"$   X$*O+++X+XXX%O   OOX..@.#.O  OX.##.XOO   OO$oo   o XXXX+++$+",
"o    *%++*  +OOX%O o OOXX.@.@.O oOX.@@.XOO o OO$+ o  o O XoO+%+$",
"oX  $$%$X++oooXO% ooo OOXX.X@XOoo OX@@XOO ooo O%+      X X+ $+++",
"o.  X+>$o +O+oOo%%*:*%%%$$+$+$%*:%%$++$%%%*:*%%%%   o. X@ +oo ++",
".oXX +%$oXo+oooo+ X..X&&XXO     OOOX..@@XXX  oo++ooo   oX ooooo+",
"Xo.  $$$oX  $+oo%+O.@X&@XX    o oO..X.#@XoX  o$+++o   oOo+O oo$+",
"o$.oX>$$+ o++++o$   =.@@.o+    oOXO.XX@#     +o$o+       O   +o$",
" o.X *$$+ooo Xoo OX&@@#@..+      OOO#@.#XXX  o+++++X o  OO  Xo++",
"XoX o$$:+Oo+oooXoo X&@O ..o    +   X#XX.X#   o+%+oo%   oOO  +o+%",
"X  . $+>$ o++++oooO@&&X.#Xoo    oo @.XX#X# o  ++o+o+  o X   +o++",
". XX $+ +oXo+$+ +Xo#&&  X Xo  ooo  XXX@#.XXo  o$oo + . +XX+ooXo$",
".$.. $+@+ XooooXoX X#XXXoX    o XXO.X@..  X o oo++  o XoXO++oooo",
"X X  %+oooOO XoXXX.#X O >oX o o OO XX#.oX  Xo $o+oo   XO@O +oO$o",
"X$.Xo%+oo+XO Oo.OO+#@@#=XXo   o O  XX#X..XoX  $++o  o XOX   o $+",
"X .Xo+%ooo OO OOooO..#=##$O.   XO XX...@.X .   O+ooo   OX o+o  O",
"$ . o+$++oX+OoOo+XoOX##X.O.     Xo .##..X   o +o++oo   OXOOoo +o",
"oooX$*+oo+OOoX Xo XX.@X#@.@      oo#@.X.    ooooo+oo   OOXO$oooo",
"Xo.o $+oXooooOXoo.O...###@@   o +  @#. XX    O$+++o    XXOO$OO$+",
"o .X +++%Xo ++++oOO####.@#. X  +ooo.#@X       +%+o oo  .OXO$  +%",
"  .  oXX*ooo+++ + o# X.@#.@  Xo o+OX.@XX     O$+++ooo  O.XO$OO$+",
"----###@@@########@@@@@#@=;;=###--;-=#=#=;;;=;;;=@@.##=###@@@@@#",
";;;-;;;=#=#&#-&&#########&&&###@#@@.@@#@#---#&&&&&@.X@;#####-;-#",
"&&&#---##@@&#&&#@#@XXX@#@#&@###@#@.X.@####-##@&X&@.X@@-#@#@@.@@#",
"X&@##-#@@@@#######@XXX@#@##@###@#@XXX.#@##-##@&.&@XX@@####@@..@#",
".&@##-#@@@@##&##@#@XXX@#@##@@##@#@XXXX##@#-##@&X&@XX@@##@#.@..@#",
"X&@###@@@@@##&#@##XXXX@#X##@###@@@.X.X@#@#-@#@&.&..X@ #@##.@..@#",
".&@#@-#@@@@#@&#@#@X@ X@@X#@.@##@X..X.X@@##-@#@&@&&@X@@#@#@.@..@@",
"@&@#@-#@@@@#@&##@@X@ X@XX#@.#@#@...XXX.@##-@#@&.@&@X@ ##@@.@..@."
};
