/* XPM */
static char *WOODGARG[] = {
/* columns rows colors chars-per-pixel */
"64 128 64 1 ",
"  c #5B472B",
". c #533F2F",
"X c #43331B",
"o c #4B371B",
"O c #2B230F",
"+ c #3F2F17",
"@ c #6F5743",
"# c #67533F",
"$ c #5F4B37",
"% c #272727",
"& c #533F1F",
"* c #1F170B",
"= c #332B13",
"- c #5F4323",
"; c #1B1B1B",
": c #53573B",
"> c #373F27",
", c #3F472B",
"< c #774F2B",
"1 c #675333",
"2 c #474F33",
"3 c #6B4727",
"4 c #5B6347",
"5 c #373737",
"6 c #2F2F2F",
"7 c #775F3F",
"8 c #6F7357",
"9 c #775F4B",
"0 c #070707",
"q c #875733",
"w c #676B4F",
"e c gray28",
"r c #170F07",
"t c #7B634F",
"y c #7B7F63",
"u c gray31",
"i c #13230B",
"p c #574333",
"a c #17330F",
"s c gray34",
"d c #836B4B",
"f c #836B57",
"g c #232323",
"h c #8F5F37",
"j c #4B4B4B",
"k c #8F7753",
"l c #434343",
"z c #5B5B5B",
"x c #0B1707",
"c c #4F3B23",
"v c #7F0000",
"b c #131313",
"n c #430000",
"m c #937B63",
"M c #7F532F",
"N c #8B735B",
"B c #730000",
"V c gray23",
"C c #E30000",
"Z c #9B0000",
"A c #670000",
"S c #5B0000",
"D c #6B0F0F",
"F c #A70000",
/* pixels */
"##t#ss$#sss##eeVe#@#su##8ueee##uz$$$9#$$9t9$s9ssssssss#f@@s#99#9",
"XX@o.. oo- &>%%OOo X.XX%#X+OOXXX#=5O@X+oo7 o @o $.X..o<7 o1& oo ",
"OO====O==O==O;;b;==*=;gg=OO;*OOO=OOO=;O==+=O=X=O==O======OXO=O==",
"%=+=+=++===+=%%%=+=%=%==+====%==+===%=%==>=+==+=++=+++>>X=+==++=",
"..$p$pp$$.eu$ll5.$p.el..#e.....p$..e$.$.p$$$p$$$$$pp$$#$@p$$p$$p",
"p:#w###@###w#ll5jp:.:.::9p.l.p:$$jl##p#p$##$###$$####$@@N###$##$",
"+O  & -# &+ o%%*XXX%+%X.#X%%%+O .XXXe+.oX$ ---oo-&o o-<-d-  X1o&",
";O+=++==oO++=**;g;O;;;g=6*r*;;OXgOO==OOO=X+=O+OO++=+O+oOp+=+=+O+",
"r@+O=oX%=&&+%OO=.XXXXc+$O#++XXc  cX$X-o..X@o   @O@X&XX X.+... 5X",
"r:X%OX5==oooX=OO&=-.XX=$O#.++X+c1 X.X&...X@oo&<@*#..oo +.+ XX#5%",
"r:%%+..%O=++++XO ooo.X%jO#XXXXXO1@Xoo  ..X@oo-39O#X&Xo.X.X.,%.&X",
";uO%%+.=*X=+.O5%..OX&.O#O#oXXX-=&7&oo 33 o.... 9O#oXXo XoX..+  5",
";uO%%O.X*X=+.%.%.$O.o-O$O@oo.X.XX<<-o  <1o .X&<@O#.... X +..+..X",
"re%*.+ &OO+6.%++.oX...XjO@ ...-. <<1- @##  ..  @O9+oo .o-&+.&X.X",
"re%O++ .%%X%&X+XX...+@+ O@. .o o&<17  @#@ o.#.$#=@o.-o o -+&.&X.",
"*e%%+X+$+%XX.XOXO.X.X   =@o .o  o 1k  @#@   3o @O@.$o&<X.oo o.XX",
"=u*OOX%.XXXXX+%X+&XXX9.$O#o oo o&1@to--@9$.-1 #9O@ .oo X Xo &XXo",
"=@O*%=O..+%X=XOXO.Xoo@o$O1o. X 5X#q o -q ..o   @O7- .. + ooo XX&",
"=@+OOO*55X+55o%5%.oXo< $O@. oX oo 7 &  @ Xo-o  @=7oo..XX&..X#XX.",
"O9X**%OXX.+.+.%XO.XXo o$O@o oo  & 7-.$.q.Xo o& #O7 o.o.X &++..+X",
"=9XO*O+XoXOXO.+++.XX...$O@oooo..--q-o .#oXo&-o @Oho=-+$5..++..X&",
"=9XOOO+ 5%%X+.OXooX o  $O$+ ooo...q  -- &o&&&. #O9.o = .o += ...",
"+@+%*X+.XXOXX+%X..X$.  $O#X..X..X q <& ..- o&o $O1 o X. .@X+o   ",
"X#%%*OX.XXXXoO+5o.X$o o$O#X .o. o @3<-1 ...& o $O# .#o. . oo    ",
"=u%%+++ X5%+ ++5+...o o$O@=$.X oo.@#3    o - ..@O$o3.... $.o.  3",
"=uX++o+.XX+6$++XX1X.o#o$O#. oo o  #@ @ #.oo&& .$O@. ....$$.5$o 3",
"g:5%%XO.o+++oX=.= o.o  $O$. oo.X@o 3qd <o.X&o--@=#.$oXoo ...3.-@",
"*u=%%.O o%+XX+XXX o -3o$O$.#o. o - @@t 1... .# @=$ <..X..#o 3-o<",
";e%5X++t+XX.XXXXXo..o & O@.$.o..$$.qdqt@ .o .. @=$#q.oX $@o3 3o#",
"*e=%+++#Xo+.o=oX.$..&1ojO#o  ...@$#qqqdq -3 o..@= #9oX&3o..@.&.#",
"*:%++5O9%X+o.+X.X -oo &#O$.  ...@ -7@tf#--@.o-o@=# 1 X.@oo  . .@",
"*u*%X5%9XXX. OX..#.$.$.#O@   --&@33 @td@ .@.   @O$@@..o<o&.@ $.@",
"*uO%+++@.XX..+ooo# .o..#O@-   && -<&77q9 --3- 1$O@ < &o1o.o3$u$#",
"O:+%%==@.XXooOo+.$# . X1O1  & 1o--3 dt7@  .333 $O9 $. +7X..#@ .3",
";#OXXXO#XOX-.O5X+@$. @X@O@ 3.   o   7kt@ @.    #O@ @  o o..#@o&@",
"O:O+XXO$.%X.$OXo..  .@+#O1-3oM--o    9t# @o .o<7O@3## o3o. #3o& ",
"=:O+O++&oXX.#+..o$   eX#O@  o< @. o-3.q#  o  oo7*h3 @.. o..#.o  ",
"OeOO+o=$.OXX %5XX@o o.o =@o - -  .o-#$9<o o. o-hOho33o& o ..---.",
"O:O++.+X OX..+.+o<.. . $=@. o o ooo&1.f#o3.. o3tO9o 3o  .$#. -oo",
"+:*+%5%5.XX+$+XX.@ o.oo#O@#.o o#oooo3ot@o oo3o$fO@  3o-- .@+..XX",
"XzOOOXX5e+++ X++ @ +.$.#O@3 - -<&o.o  @@  ..#$#f=#.@3-   .@o..+o",
"X@+OOXXX#=5O@X+oo7 o @o@=$    3<&-..3 3<< o<@o$f=@.# --  X@o.. o",
"X@+%OXo+#X+X %X..7&o-q $O@-----33  o.. 3<<. @ of=@. $ o ..@. .o ",
"X@X++5X+ XXX5+5+.@o X. $O@&   o . oo$.$ q3. #  h=9.-< .$$o o X  ",
"XzX+OX+o.XX5.X Oo<..&..#O#    o   -    ot33-@..f+@  @3o 1X o1&o1",
"X#O%O+Xoo5%..+.+o -o  .$=#o o#.$@ #- X1.t@  @ Xk=@.#3q.  . # . $",
"X@%%%+O .XXXe+.oX$ ---o$=$o..3.  o@o .. 77   .&f=73#$@.@    & -#",
"6:*O%%+#5X+..XX+.@$.o3X$O@ ..-o&1.33@## @k<<  .m=7 q t-<oo .  .&",
"=u%=%XX#X5XX.XX +q  o.+#O@ .--+1o  &@ @.@N<<3- f+9@<17o -- .$#Xo",
"=u++=oX X.+ooX. Xt3-o X1O@  o & o  o# #X1d< 1 ot=#71 @&1<&@o-7& ",
"=uXOoX .Xoo..+o .$@o.$.#O#..o.    <o&7@#@77& @oh=@<  7o<    -   ",
"+uOO+X X.o...o.$.@#. @.$O$#.X& &-& .X<<# t@- . @=9t@@q+@    . .<",
"+e%%XX@..X5..oX#+t.o  &1O$<o.o   ..oo..o.@<@. 3$=@d3 @o $  #    ",
"OeXOX.#.XX.5.XX&o9.o @X9O$9 . o  . 3o .&&<< .. @O@9# @. $  .&- #",
"O:OO++1X.o.X.XXood X# X9O$@..o . . o  .. @.<o--@=@<Mo<o.$. .. #$",
"=:%OXX<X.5.= oo .t.o. X9O1 . o $.. o o o  oq-- 1O@@<.to -o. o @ ",
"=u%OXX X5%Xo +o 5@o $  @O@o. .. .o o ooo< oq .&@O@7..< 3-oo&o #.",
"6u%%XX.XX+%X.XX.5$oo  o#O#X # o ..#. .oo @oq<o @O7<& 1 & ..X  $.",
"=u%%+. X%+++ X.XX@ .  o#O$o3  X..o o...Xo3 @7o.@*7  #  o ...oo@ ",
"+:%%Ooo#%%XO.X.X+<3 .@X#=#.3 -&X5o &oXoo.$ <ho 7*@@.@# . $..oo1.",
"O:%%OXX@XOXX.X oo3q o &#=#  #o ..o.&.X..   @ko-7O@<X@  .. +... .",
"b:%OOXX@X+Xoo+...@.#.#.#O#o3 &&oo   .o o   <mo @O1 X## oX X- &o ",
";e+%%XX &+XX X&55# @o .jO@.#$..  ooo.. o -<1k1&@=@  #3 o+.oX@+  ",
"O:O%O X&.XoX.w:w4::4w888O@#-3 o @o . X   888ww::4w:w#.&.+.oX +$$",
"O@OXO.X$.5X+>6,228y248y42:3.# o #o  o..:24y842y822,6><o$X 1o = 1",
";z%%%.+ ..+6,;w2428y224y42>o#$$-33 oo.>24y422y8242w;,6. +  o =& ",
"r@OO%.XO.+***6;6,248y,24yw:> @ . .$.X>:wy42,y842,6;6*** + 1XXoX@",
"rz*=OX5%X6;****:4>64yy4,44,,,:44444:,,,44,4yy46>4:****;6X @o .o ",
"*@X5Xe.Oo*6*;66,06>8y4y888:2,w8yyy8w:,:888y8y8>60,66;*6*o  o@X. ",
";:OX%#.**0*66*6;2y4622yyy4,,48y4:4y84,,4yyy4264y2;6*66*0* &Xtoo ",
"*uXoOXoO;0006**6666;64w8y84,4yww8wwy4,48y8w46;6666**6000;@ o oo.",
"r:X.*XX,00000*;66;>2:48yy8w,488,6,8842w8yy84:2>;66;*00000,3. X&.",
"*:O.%.O*00000;***,2:44yw8y82484:::48428y8wy44:2,***;00000*@oo.oo",
"%:OXXX+0000000**66>>24244884:84w8w48:48844242>>66**0000000@.. X&",
"Xe%%OX*0%*0*;;;;%;0>,4:66>4828444448284>66:4,>0;%;;;;*0*%0*- 1=&",
"=:O%*+0000;**r0%00;66w8:,>8w,4824284,w8>,:8w66;00%0r**;0000  1=.",
"O#O%%%000000r00*00*;2wyy8yw2>,2>a>2,>2wy8yyw2;*00*00r000000-o.X-",
"O@*O+O0000**00;;00*;48888842>a::*::a>24888844;*00;;00**0000.XoX ",
"*9%OOO0000**r0;000;660;624w2>a4>;>4a>2w426;066;000;0r**0000.XXoX",
"O9.OOo;000***r00000*>>%;;;*i6,6;%;6,6i*;;;%>>*00000r***000;1X .&",
"O@ +Oo;*rr0*66*00r>,4266;000ii0a>a0ii000;6624,>r00*66*0rr*;#.. &",
"Ou#oO+00000****00042606:,600000242000006,860624000****000009-. .",
"=u@oO%00000000000>8>000AZnSCB00,:,000AZnSCv00>8>00000000000#$.$.",
"O:. %OX0000000000,>>i0x*vDFB000:8:000nvDFvx0i>>,00000000000  ..o",
";u+$.OX0000000000*,48426r;0000,8y8,0000;r62484,a0000000000.&.ooX",
"O#+. *%00000000.;*42484>*;0;>,48y84,>;0;*>48424i;$00000000.. Xoo",
"O@X=<*X00000000.06242,,:::::4488y8844::::,,224260$00000000o.1=o.",
"O@X=oX%;0000000X.6,6a,:8yy844448y844448yy8:,>,,6O$0000000;oo1O.X",
";@55X.++0000000%.>*ra:44884262w8y8w26248844:aii>O@0000000 oX&XXX",
"O#.X+X.X0000000O.X*;;,44:6;;*8wyyyw8*;;6:44,i;*7O#0000000. X.oX.",
"*:XX%. #%000000OX+%0;62,6*;;,*xa>ax*,;;*6,26;0%#*@000000+..+&&XX",
";uOOoXo#X000000OOX+;r*,6*0;,:>*000*>:,;0*6,*r; #O#000000XX.+&oXX",
";#O=o+.e5X0000#+OXO0006*00X>>>>000>>>>X00*600011O#o0000..o-OoX.+",
"O#++5+Xe..*=XO&X*==X006;;00X>22;0;22>X00;;600X.@O#. -- o oo=o..+",
";u%%5%+..4+%OXXo%XOX00;*;000000000000000;*;00o&9*@o&o-o&o.XoX.+X",
"*@%%XO+=o<&O=O=X%+5X+r0*;;*r000000000r*;;*0r o #O@Xo&+&>XXoo.X%+",
"r@+O=oX%=&&+%OO=.XXXX;0**;iaai**0**iaai;**0;   @O@X&XX X.+... 5X",
"r:X%OX5==oooX=OO&=-.XX0;*6,,>>>i*i>>>,,6*;0oo&<@*#..oo +.+ XX#5%",
"r:%%+..%O=++++XO ooo.X0062:2,>a000a>,2:2600oo-39O#X&Xo.X.X.,%.&X",
";uO%%+.=*X=+.O5%..OX&.O0*22444::,:::4442*0.... 9O#oXXo XoX..+  5",
";uO%%O.X*X=+.%.%.$O.o-O$0>>:448888844:2>0o .X&<@O#.... X +..+..X",
"re%*.+ &OO+6.%++.oX...XjO0>,,2444442,>>0#  ..  @O9+oo .o-&+.&X.X",
"re%O++ .%%X%&X+XX...+@+ O@00>>>>>>>>>00#@ o.#.$#=@o.-o o -+&.&X.",
"*e%%+X+$+%XX.XOXO.X.X   =@o 000000000 @#@   3o @O@.$o&<X.oo o.XX",
"=u*OOX%.XXXXX+%X+&XXX9.$O#o oo o&1@to--@9$.-1 #9O@ .oo X Xo &XXo",
"=@O*%=O..+%X=XOXO.Xoo@o$O1o. X 5X#q o -q ..o   @O7- .. + ooo XX&",
"=@+OOO*55X+55o%5%.oXo< $O@. oX oo 7 &  @ Xo-o  @=7oo..XX&..X#XX.",
"O9X**%OXX.+.+.%XO.XXo o$O@o oo  & 7-.$.q.Xo o& #O7 o.o.X &++..+X",
"=9XO*O+XoXOXO.+++.XX...$O@oooo..--q-o .#oXo&-o @Oho=-+$5..++..X&",
"=9XOOO+ 5%%X+.OXooX o  $O$+ ooo...q  -- &o&&&. #O9.o = .o += ...",
"+@+%*X+.XXOXX+%X..X$.  $O#X..X..X q <& ..- o&o $O1 o X. .@X+o   ",
"X#%%*OX.XXXXoO+5o.X$o o$O#X .o. o @3<-1 ...& o $O# .#o. . oo    ",
"=u%%+++ X5%+ ++5+...o o$O@=$.X oo.@#3    o - ..@O$o3.... $.o.  3",
"=uX++o+.XX+6$++XX1X.o#o$O#. oo o  #@ @ #.oo&& .$O@. ....$$.5$o 3",
"g:5%%XO.o+++oX=.= o.o  $O$. oo.X@o 3qd <o.X&o--@=#.$oXoo ...3.-@",
"*u=%%.O o%+XX+XXX o -3o$O$.#o. o - @@t 1... .# @=$ <..X..#o 3-o<",
";e%5X++t+XX.XXXXXo..o & O@.$.o..$$.qdqt@ .o .. @=$#q.oX $@o3 3o#",
"*e=%+++#Xo+.o=oX.$..&1ojO#o  ...@$#qqqdq -3 o..@= #9oX&3o..@.&.#",
"*:%++5O9%X+o.+X.X -oo &#O$.  ...@ -7@tf#--@.o-o@=# 1 X.@oo  . .@",
"*u*%X5%9XXX. OX..#.$.$.#O@   --&@33 @td@ .@.   @O$@@..o<o&.@ $.@",
"*uO%+++@.XX..+ooo# .o..#O@-   && -<&77q9 --3- 1$O@ < &o1o.o3$u$#",
"O:+%%==@.XXooOo+.$# . X1O1  & 1o--3 dt7@  .333 $O9 $. +7X..#@ .3",
";#OXXXO#XOX-.O5X+@$. @X@O@ 3.   o   7kt@ @.    #O@ @  o o..#@o&@",
"O:O+XXO$.%X.$OXo..  .@+#O1-3oM--o    9t# @o .o<7O@3## o3o. #3o& ",
"=:O+O++&oXX.#+..o$   eX#O@  o< @. o-3.q#  o  oo7*h3 @.. o..#.o  ",
"##t#ss$#sss##eeVe#@#su##8ueee##uz$$$9#$$9t9$s9ssssssss#f@@s#99#9",
"XX@o.. oo- &>%%OOo X.XX%#X+OOXXX#=5O@X+oo7 o @o $.X..o<7 o1& oo ",
"OO====O==O==O;;b;==*=;gg=OO;*OOO=OOO=;O==+=O=X=O==O======OXO=O=="
};
